<?xml version='1.0' encoding='utf-8'?>
<svg xmlns="http://www.w3.org/2000/svg" width="128" height="128" version="1.1" id="svg6" viewBox="0 0 128 128">
  <defs id="defs10" />
  <g aria-label="Y" id="text4" style="line-height:1.25;fill:#40c0e7">
    <path d="m 47.519941,119.92 c 2.72,0 5.44,-1.44 6.88,-4 L 109.11994,23.919999 c 1.44,-2.4 1.6,-3.36 1.6,-5.12 0,-4.48 -4,-7.84 -7.84,-7.84 -2.72,0 -5.439999,1.28 -6.879999,3.84 l -31.84,53.76 -31.36,-53.6 c -1.44,-2.56 -4.16,-4 -6.72,-4 -4.48,0 -8,3.68 -8,7.84 0,1.6 0.32,2.88 1.28,4.64 l 35.52,60.8 -13.92,23.360001 c -1.28,2.08 -1.28,3.04 -1.28,4.48 0,4 3.36,7.84 7.84,7.84 z" style="text-align:center;text-anchor:middle" id="path12" />
  </g>
</svg>