<svg version="1.1" xmlns="http://www.w3.org/2000/svg" xmlns:xlink="http://www.w3.org/1999/xlink" width="115.74699" height="109.39986" viewBox="0,0,115.74699,109.39986"><g transform="translate(-182.1265,-125.30007)"><g data-paper-data="{&quot;isPaintingLayer&quot;:true}" fill-rule="nonzero" stroke="none" stroke-width="1" stroke-linecap="butt" stroke-linejoin="miter" stroke-miterlimit="10" stroke-dasharray="" stroke-dashoffset="0" style=""><path d="M250.1741,166.46686c0.36992,-5.17887 -6.28863,-7.86078 -9.15551,-11.28254c-10.91262,-12.94718 1.57216,-29.59354 15.81405,-21.27036c11.37502,-18.58844 42.6332,-4.80895 31.99802,19.60572c12.94718,3.60671 11.19005,20.34556 -0.18497,23.67484c0.83233,12.29981 -15.999,16.27645 -20.623,6.84351c-2.12704,-4.1616 -5.40806,-10.89275 -9.29221,-8.95068c-3.88415,1.94207 -8.92631,-1.96194 -8.55639,-8.62049z" fill="#729a24"/><path d="M253.11642,181.9093c10.63518,10.35774 14.33436,29.7785 4.99391,40.13623c-13.68702,15.16669 -31.25818,9.34046 -37.91672,6.84351c-6.38111,-2.312 -11.28255,-2.49696 -17.3862,1.01727c-6.10367,3.51424 -13.50205,5.54878 -17.94109,4.53151c-3.60671,-0.73984 -3.69919,-6.65855 0,-7.12095c13.50205,-1.66463 15.07422,-13.13213 11.09758,-22.75003c-6.38111,-15.44413 -3.32928,-28.02139 2.31199,-33.75513c16.9238,-17.10877 36.52952,-6.38111 44.02039,0.27743c3.51424,-3.51424 5.91871,-5.73374 6.47359,-6.3811c0.73984,-0.9248 1.8496,-0.73984 2.312,0.27744c1.3872,3.14431 5.64127,7.49087 9.15551,8.97054c0.83233,0.36992 0.9248,1.57216 0.18496,2.12704c-0.4624,0.27744 -7.30591,5.82624 -7.30591,5.82624z" fill="#b91830"/></g></g></svg>