<?xml version="1.0" encoding="UTF-8"?>
<svg clip-rule="evenodd" fill-rule="evenodd" stroke-linejoin="round" stroke-miterlimit="2" version="1.1" viewBox="0 0 128 128" xml:space="preserve" xmlns="http://www.w3.org/2000/svg"><g transform="matrix(.256 0 0 .256 -4.2665 -4.2666)"><path d="m516.67 83.343c0-36.794-29.881-66.676-66.667-66.676h-366.67c-36.786 0-66.667 29.882-66.667 66.676v366.65c0 36.794 29.881 66.677 66.667 66.677h366.67c36.786 0 66.667-29.883 66.667-66.677z" fill="#40c0e7"/><path d="m421.67 149.46h-315c-1.625 0-3.209 0.667-4.334 1.792s-1.791 2.75-1.791 4.333v46.917c0 1.583 0.625 3.167 1.791 4.333 1.125 1.167 2.709 1.792 4.334 1.792h202.33v176.04h-21.917c-1.791 0-3.5 0.791-4.666 2.166-1.167 1.375-1.667 3.209-1.375 5l7.916 46.875c0.5 2.959 3.084 5.125 6.042 5.125h46.125c0.333 0 4.542-0.041 10.042-1.375 5.5-1.333 12.541-3.958 17.958-9.958 5.625-6.333 8.083-13.917 9.375-19.875s1.292-10.375 1.292-10.708v-193.29h41.833c1.625 0 3.208-0.667 4.333-1.792s1.792-2.708 1.792-4.333v-46.917c0-1.583-0.667-3.208-1.792-4.333-1.083-1.125-2.666-1.792-4.291-1.792z" fill="#fff" fill-rule="nonzero"/><path d="m274.83 237.5h-131.33c-1.625 0-3.167 0.667-4.333 1.792-1.125 1.125-1.792 2.708-1.792 4.333v121.79c0 1.583 0.667 3.208 1.833 4.333 1.125 1.167 2.709 1.792 4.334 1.792h131.33c1.625 0 3.208-0.625 4.333-1.792 1.125-1.125 1.792-2.75 1.792-4.333v-121.79c0-1.625-0.667-3.208-1.792-4.333-1.166-1.167-2.75-1.792-4.375-1.792zm-38.666 43.833v46.334l-0.625 1.583-1.584 0.667h-49.541l-1.584-0.667-0.666-1.583v-46.334l0.666-1.583 1.584-0.625h49.5l1.583 0.625z" fill="#fff" fill-rule="nonzero"/></g></svg>
