<?xml version='1.0' encoding='UTF-8'?>
<svg xmlns="http://www.w3.org/2000/svg" version="1.1" id="svg12" viewBox="0 0 128 128">
  <defs id="defs16"/>
  <ellipse cx="63.59" cy="64.41" rx="61.69" ry="61.69" fill="#006ca2" id="ellipse2"/>
  <g aria-label="18" id="text6" style="line-height:1.25;fill:#ffffff">
    <path d="m 27.871001,95.968002 h 19.008 c 2.4,0 4.608,-2.016 4.608,-4.608 0,-2.496 -1.728,-4.608 -4.8,-4.608 h -3.936 l 0.672,-49.536 c 0,-2.304 -1.728,-4.608 -4.704,-4.608 -0.96,0 -2.496,0.576 -3.264,1.44 l -11.232,12.192 c -0.768,0.864 -1.248,1.92 -1.248,3.072 0,2.496 2.016,4.608 4.608,4.608 1.248,0 2.4,-0.384 3.36,-1.344 l 3.168,-3.36 -0.672,37.536 h -5.568 c -2.688,0 -4.608,2.112 -4.608,4.608 0,2.592 1.92,4.608 4.608,4.608 z" id="path18"/>
    <path d="m 79.614967,96.544002 c 11.52,0 20.064,-8.16 20.064,-18.912 0,-6.432 -3.264,-11.808 -8.832,-15.648 4.032,-2.784 7.392,-6.912 7.392,-13.248 0,-9.504 -7.296,-16.128 -17.664,-16.128 -9.792,0 -18.24,6.624 -18.24,17.568 0,6.144 2.784,9.792 6.816,12.384 -4.8,3.072 -9.504,7.872 -9.696,15.936 -0.288,10.368 8.352,18.048 20.16,18.048 z m 0.384,-39.168 c -6.144,-1.824 -8.64,-3.936 -8.64,-7.584 0,-5.184 4.128,-7.872 9.216,-7.872 4.704,0 8.544,2.4 8.544,6.336 0,3.264 -1.824,6.144 -9.12,9.12 z m -0.384,29.952 c -6.144,0 -11.04,-3.456 -11.04,-8.352 0,-6.912 6.432,-9.504 12,-11.904 5.088,1.728 10.08,5.184 10.08,10.752 0,6.528 -5.952,9.504 -11.04,9.504 z" id="path20"/>
  </g>
  <path fill="#db4437" d="M111.37 102.59l-8.43 8.41-86.31-85.73 8.43-8.41z" id="path8"/>
  <path d="M64 128C28.71 128 0 99.29 0 64S28.71 0 64 0s64 28.71 64 64-28.71 64-64 64zm0-117.11c-29.29 0-53.11 23.83-53.11 53.11 0 29.29 23.83 53.11 53.11 53.11S117.11 93.29 117.11 64 93.29 10.89 64 10.89z" fill="#db4437" id="path10"/>
</svg>
