<?xml version='1.0' encoding='UTF-8'?>
<svg xmlns="http://www.w3.org/2000/svg" xmlns:svg="http://www.w3.org/2000/svg" viewBox="0 0 128 128" version="1.1" xml:space="preserve" style="fill-rule:evenodd;clip-rule:evenodd;stroke-linecap:round;stroke-linejoin:round" id="svg24"><defs id="defs28"/>
    <path d="M61.01,64L29.68,86.97L29.68,72.64L0.44,72.64L0.44,55.5L29.68,55.5L29.68,41.03L61.01,64Z" style="fill:rgb(237,108,48);fill-rule:nonzero" id="path2"/>
    <g transform="translate(30.28)" id="g6">
        <path d="m 94.28,9.42 c 0,-3.422 -2.778,-6.2 -6.2,-6.2 H 39.92 c -3.422,0 -6.2,2.778 -6.2,6.2 v 109.15 c 0,3.422 2.778,6.2 6.2,6.2 h 48.16 c 3.422,0 6.2,-2.778 6.2,-6.2 z" style="fill:#181818" id="path4"/>
    </g>
    <g transform="translate(30.28)" id="g10">
        <path id="rect8" style="fill:#0c5e9f;fill-rule:nonzero" d="m 35.308998,9.5699997 h 57.383 V 116.584 h -57.383 z"/>
    </g>
    <g transform="translate(30.28)" id="g14">
        <path d="M 54.121,120.309 H 73.879 M 54.121,6.48 h 19.758" style="fill:none;stroke:#282828;stroke-width:1.48" id="path12"/>
    </g>
    <g transform="matrix(0.931817,0,0,0.931817,75.3195,36.036)" id="g18">
        <g aria-label="04:20" id="text16" style="fill:#ffffff"><path d="m 4.7839081,0.103998 c 2.374621,0 4.315917,-2.807946 4.315917,-6.0318841 0,-2.94661 -1.646635,-5.5118939 -3.951924,-5.5118939 -2.4266201,0 -4.33325009,2.8772779 -4.33325009,6.0492169 0,2.9119441 1.64663499,5.4945611 3.96925709,5.4945611 z m 0,-1.663968 c -1.3693071,0 -2.3226221,-1.854631 -2.3226221,-3.8652591 0,-2.374621 1.230643,-4.350583 2.6866151,-4.350583 1.334641,0 2.322622,1.837298 2.322622,3.882592 0,2.3572881 -1.247976,4.3332501 -2.686615,4.3332501 z" id="path31"/><path d="m 15.669041,0.121331 c 0.450658,0 0.849317,-0.398659 0.849317,-0.83198401 V -2.478619 h 0.103998 c 0.450658,0 0.86665,-0.363993 0.86665,-0.831984 0,-0.450658 -0.329327,-0.831984 -0.797318,-0.831984 h -0.17333 v -6.482542 c 0,-0.467991 -0.363993,-0.831984 -0.849317,-0.831984 -0.294661,0 -0.537323,0.138664 -0.69332,0.398659 l -4.385249,7.210528 c -0.08666,0.155997 -0.138664,0.259995 -0.138664,0.467991 0,0.485324 0.329327,0.814651 0.831984,0.814651 l 3.553265,0.051999 v 1.80263199 c 0,0.43332501 0.363993,0.83198401 0.831984,0.83198401 z m -0.831984,-4.298584 -2.07996,-0.051999 2.07996,-3.4146011 z" id="path33"/><path d="m 19.915623,-5.5292271 c 0.537323,0 1.022647,-0.502657 1.022647,-1.143978 0,-0.537323 -0.398659,-0.953315 -0.901316,-0.953315 -0.537323,0 -1.022647,0.537323 -1.022647,1.109312 0,0.537323 0.363993,0.987981 0.901316,0.987981 z M 19.447632,0.103998 c 0.537323,0 1.022647,-0.502657 1.022647,-1.126645 0,-0.537323 -0.381326,-0.970648 -0.883983,-0.970648 -0.537323,0 -1.022647,0.537323 -1.022647,1.10931199 0,0.55465601 0.34666,0.98798101 0.883983,0.98798101 z" id="path35"/><path d="m 22.498253,0 h 6.23988 c 0.433325,0 0.831984,-0.363993 0.831984,-0.81465101 0,-0.46799099 -0.398659,-0.83198399 -0.831984,-0.83198399 H 24.21422 c 0.242662,-1.507971 1.334641,-2.270623 2.409287,-2.963943 1.334641,-0.8493171 2.807946,-1.8372981 2.807946,-3.7785941 0,-1.6813009 -1.38664,-3.0506079 -3.362602,-3.0506079 -1.421306,0 -2.478619,0.762652 -3.085274,1.351974 -0.433325,0.4159919 -0.554656,0.6239879 -0.554656,0.9013159 0,0.415992 0.329327,0.849317 0.831984,0.849317 0.398659,0 0.554656,-0.190663 0.727986,-0.381326 0.121331,-0.138664 0.953315,-1.057313 2.07996,-1.057313 0.953315,0 1.698634,0.571989 1.698634,1.38664 0,1.057313 -0.918649,1.629302 -2.183958,2.461286 -1.473305,0.935982 -3.085274,2.1146261 -3.085274,5.11323509 z" id="path37"/><path d="m 35.04733,0.103998 c 2.374621,0 4.315917,-2.807946 4.315917,-6.0318841 0,-2.94661 -1.646635,-5.5118939 -3.951924,-5.5118939 -2.42662,0 -4.33325,2.8772779 -4.33325,6.0492169 0,2.9119441 1.646635,5.4945611 3.969257,5.4945611 z m 0,-1.663968 c -1.369307,0 -2.322622,-1.854631 -2.322622,-3.8652591 0,-2.374621 1.230643,-4.350583 2.686615,-4.350583 1.334641,0 2.322622,1.837298 2.322622,3.882592 0,2.3572881 -1.247976,4.3332501 -2.686615,4.3332501 z" id="path39"/></g>
    </g>
    <g transform="matrix(0.931817,0,0,0.931817,75.3195,48.7395)" id="g22">
        <g aria-label="17.07." id="text20" style="fill:#ffffff"><path d="M 1.284,0 H 3.66 c 0.3,0 0.576,-0.252 0.576,-0.576 0,-0.312 -0.216,-0.576 -0.6,-0.576 H 3.144 l 0.084,-6.192 c 0,-0.288 -0.216,-0.576 -0.588,-0.576 -0.12,0 -0.312,0.072 -0.408,0.18 l -1.404,1.524 c -0.096,0.108 -0.156,0.24 -0.156,0.384 0,0.312 0.252,0.576 0.576,0.576 0.156,0 0.3,-0.048 0.42,-0.168 L 2.064,-5.844 1.98,-1.152 H 1.284 c -0.336,0 -0.576,0.264 -0.576,0.576 0,0.324 0.24,0.576 0.576,0.576 z" id="path42"/><path d="m 6.0479958,0.06 c 0.168,0 0.396,-0.072 0.516,-0.312 l 3.288,-6.576 c 0.06,-0.12 0.144,-0.3 0.144,-0.42 0,-0.324 -0.252,-0.588 -0.576,-0.588 h -3.924 c -0.324,0 -0.576,0.276 -0.576,0.576 0,0.324 0.252,0.576 0.576,0.576 h 3 l -2.952,5.916 c -0.06,0.12 -0.072,0.204 -0.072,0.252 0,0.3 0.252,0.576 0.576,0.576 z" id="path44"/><path d="m 11.100005,0.072 c 0.36,0 0.708,-0.348 0.708,-0.78 0,-0.372 -0.276,-0.672 -0.624,-0.672 -0.372,0 -0.708,0.372 -0.708,0.768 0,0.384 0.252,0.684 0.624,0.684 z" id="path46"/><path d="m 15.600002,0.072 c 1.644,0 2.988,-1.944 2.988,-4.176 0,-2.04 -1.14,-3.816 -2.736,-3.816 -1.68,0 -3,1.992 -3,4.188 0,2.016 1.14,3.804 2.748,3.804 z m 0,-1.152 c -0.948,0 -1.608,-1.284 -1.608,-2.676 0,-1.644 0.852,-3.012 1.86,-3.012 0.924,0 1.608,1.272 1.608,2.688 0,1.632 -0.864,3 -1.86,3 z" id="path48"/><path d="m 20.484008,0.06 c 0.168,0 0.396,-0.072 0.516,-0.312 l 3.288,-6.576 c 0.06,-0.12 0.144,-0.3 0.144,-0.42 0,-0.324 -0.252,-0.588 -0.576,-0.588 h -3.924 c -0.324,0 -0.576,0.276 -0.576,0.576 0,0.324 0.252,0.576 0.576,0.576 h 3 l -2.952,5.916 c -0.06,0.12 -0.072,0.204 -0.072,0.252 0,0.3 0.252,0.576 0.576,0.576 z" id="path50"/><path d="m 25.536017,0.072 c 0.36,0 0.708,-0.348 0.708,-0.78 0,-0.372 -0.276,-0.672 -0.624,-0.672 -0.372,0 -0.708,0.372 -0.708,0.768 0,0.384 0.252,0.684 0.624,0.684 z" id="path52"/></g>
    </g>
</svg>
