<?xml version='1.0' encoding='UTF-8'?>
<svg xmlns="http://www.w3.org/2000/svg" version="1.1" id="svg8" viewBox="0 0 128 128">
  <defs id="defs12"/>
  <path d="M99.97 71.84l-3.31.51c-19.07 2.87-35.8 6.82-51.13 12.08-4.25 1.45-8.82 3.14-13.99 5.14-.39.15-.78.27-1.17.39-1.78.55-5.49 1.69-5.02 6.19.32 2.94 2.37 5 4.98 5h.26c1-.05 1.93-.44 2.75-.78.32-.13.63-.27.91-.35 1.43-.38 2.94-.85 4.76-1.48 16.61-5.72 33.28-10.91 49.54-15.41l5.15-1.41c2.7-.74 5.41-1.47 8.1-2.23 1.93-.55 3.08-2.28 2.82-4.2-.31-2.21-2.3-3.81-4.65-3.45zM118.86 81.57l-8.27 1.78c-16.2 3.48-32.96 7.08-49.14 11.98-10.31 3.12-20.22 6.87-31.17 11.1-5.45 2.1-10.65 4.87-15.03 7.31-.35.2-.78.4-1.24.61-2 .94-4.74 2.23-5.62 4.77-1.06 3.05.89 6.09 3.38 7.27.85.4 1.67.6 2.49.6 1.25 0 2.29-.46 3.06-.86.77-.41 1.58-.77 2.39-1.13.76-.34 1.52-.68 2.25-1.05 21.33-10.67 44.44-18.31 64.41-24.63 6.25-1.98 12.99-3.97 20.63-6.08l1.22-.34c4.21-1.17 8.43-2.33 12.64-3.52 1.97-.56 3.15-2.36 2.86-4.37a4.018 4.018 0 0 0-4.86-3.44z" fill="#ed6c30" id="path2"/>
  <g aria-label="100" transform="rotate(-9.71)" id="text6" style="line-height:1.25;fill:#ed6c30;stroke-width:1.137">
    <path d="M 1.2464477,80.927002 H 18.049519 c 2.1216,0 4.073472,-1.782144 4.073472,-4.073472 0,-2.206464 -1.527552,-4.073472 -4.2432,-4.073472 h -3.479424 l 0.594048,-43.789823 c 0,-2.036736 -1.527552,-4.073472 -4.158335,-4.073472 -0.8486404,0 -2.2064644,0.509184 -2.8853764,1.27296 l -9.9290878,10.777728 c -0.678912,0.763776 -1.103232,1.69728 -1.103232,2.715648 0,2.206464 1.782144,4.073472 4.07347192,4.073472 1.10323198,0 2.12159998,-0.339456 2.97023998,-1.188096 l 2.8005119,-2.97024 -0.594048,33.181823 H 1.2464477 c -2.3761919,0 -4.0734719,1.867008 -4.0734719,4.073472 0,2.291328 1.69728,4.073472 4.0734719,4.073472 z" id="path14"/>
    <path d="m 39.915984,81.436186 c 11.626368,0 21.131135,-13.747968 21.131135,-29.532672 0,-14.426879 -8.062079,-26.986751 -19.348991,-26.986751 -11.88096,0 -21.216,14.087424 -21.216,29.617535 0,14.257152 8.06208,26.901888 19.433856,26.901888 z m 0,-8.146944 c -6.704256,0 -11.371776,-9.080448 -11.371776,-18.924672 0,-11.626367 6.025344,-21.300863 13.15392,-21.300863 6.534528,0 11.371776,8.995584 11.371776,19.009535 0,11.541504 -6.110208,21.216 -13.15392,21.216 z" id="path16"/>
    <path d="m 79.434235,81.436186 c 11.626368,0 21.131135,-13.747968 21.131135,-29.532672 0,-14.426879 -8.062079,-26.986751 -19.348991,-26.986751 -11.88096,0 -21.215999,14.087424 -21.215999,29.617535 0,14.257152 8.062079,26.901888 19.433855,26.901888 z m 0,-8.146944 c -6.704256,0 -11.371776,-9.080448 -11.371776,-18.924672 0,-11.626367 6.025344,-21.300863 13.15392,-21.300863 6.534528,0 11.371776,8.995584 11.371776,19.009535 0,11.541504 -6.110208,21.216 -13.15392,21.216 z" id="path18"/>
  </g>
</svg>
