<?xml version='1.0' encoding='utf-8'?>
<svg xmlns="http://www.w3.org/2000/svg" width="128" height="128" version="1.1" id="svg18" viewBox="0 0 128 128">
  <defs id="defs22" />
  <path d="M115.5 126.36h-103c-5.52 0-10-4.48-10-10V26.84c0-5.76 4.67-10.43 10.43-10.43h102.13c5.76 0 10.43 4.67 10.43 10.43v89.52c.01 5.53-4.47 10-9.99 10z" fill="#e0e0e0" id="path2" />
  <path d="M125.5 51.44H2.5V9.78c0-4.42 3.58-8 8-8h107c4.42 0 8 3.58 8 8z" fill="#1e88e5" id="path4" />
  <g fill="#9e9e9e" id="g8">
    <path d="m 83.64,83.6 h 4.51 v 4.38 h -4.51 z m 14.36,0 h 4.51 v 4.38 H 98 Z m 14.36,0 h 4.51 v 4.38 h -4.51 z M 83.64,94.47 h 4.51 v 4.38 h -4.51 z m 14.36,0 h 4.51 v 4.38 H 98 Z m 14.36,0 h 4.51 v 4.38 h -4.51 z m -28.72,10.87 h 4.51 v 4.38 h -4.51 z m 14.36,0 h 4.51 v 4.38 H 98 Z m 14.36,0 h 4.51 v 4.38 h -4.51 z" id="path6" />
  </g>
  <g aria-label="July" id="text12" style="line-height:1.25">
    <path d="m 36.258001,36.81 c 4.6,0 7.32,-2.92 7.32,-6.84 V 14.09 h 0.12 c 1,0 1.84,-0.88 1.84,-1.96 0,-1.04 -0.92,-1.96 -1.96,-1.96 h -7.64 c -1.12,0 -2.04,0.92 -2.04,1.96 0,1.12 0.92,2 2.04,2 h 3.64 v 15.84 c 0,1.6 -1.04,2.84 -3.32,2.84 -2.64,0 -3.56,-1.4 -3.56,-3.32 0,-1.12 -0.88,-2 -2,-2 -1.24,0 -2,0.92 -2,2.08 0,3.32 2.04,7.24 7.56,7.24 z" style="fill:#ffffff" id="path24" />
    <path d="m 55.018028,36.93 c 2.4,0 4.32,-1.36 5.68,-2.32 v 0.44 c 0,1.08 1,1.76 2.04,1.76 1.04,0 1.92,-0.92 1.92,-1.92 V 18.65 c 0,-1.08 -0.92,-1.84 -1.92,-1.84 -0.92,0 -1.88,0.76 -1.88,1.84 l -0.08,11.4 c 0,0.48 -0.08,0.84 -0.24,1 -0.68,0.76 -2.96,2.28 -5.12,2.28 -1.44,0 -2.64,-1.08 -2.64,-7 0,-4.04 0.48,-6.96 0.48,-7.64 0,-1.28 -0.92,-1.88 -1.92,-1.88 -1.16,0 -1.68,0.76 -1.88,2.04 -0.28,1.8 -0.44,4.6 -0.44,6.6 0,9.48 1.96,11.48 6,11.48 z" style="fill:#ffffff" id="path26" />
    <path d="m 72.178014,36.81 c 0.92,0 1.92,-0.8 1.92,-1.8 v -23.2 c 0,-1.04 -0.92,-1.8800003 -1.92,-1.8800003 -1.12,0 -1.92,0.8400003 -1.92,1.8800003 v 23.2 c 0,1 0.92,1.8 1.92,1.8 z" style="fill:#ffffff" id="path28" />
    <path d="m 82.458016,43.97 c 0.84,0 1.48,-0.56 1.8,-1.24 l 10.68,-23.2 c 0.12,-0.24 0.16,-0.56 0.16,-0.8 0,-1.12 -0.8,-1.96 -1.76,-1.96 -0.84,0 -1.52,0.56 -1.84,1.24 l -5.04,11.16 -5.64,-11.16 c -0.28,-0.56 -0.88,-1.2 -1.84,-1.2 -1.12,0 -2,0.88 -2,1.96 0,0.36 0.12,0.72 0.24,0.96 l 7.16,13.96 -3.48,7.48 c -0.12,0.28 -0.2,0.6 -0.2,0.84 0,1.08 0.8,1.96 1.76,1.96 z" style="fill:#ffffff" id="path30" />
  </g>
  <g aria-label="17" id="text16" style="line-height:1.25;fill:#2f2f2f;stroke-width:1.61">
    <path d="m 19.891832,111.26 h 12.754962 c 1.610475,0 3.092112,-1.3528 3.092112,-3.09211 0,-1.67489 -1.159542,-3.09211 -3.22095,-3.09211 H 29.876777 L 30.32771,71.835575 c 0,-1.546056 -1.159542,-3.092112 -3.156531,-3.092112 -0.64419,0 -1.674894,0.386514 -2.190246,0.966285 l -7.537022,8.181213 c -0.515352,0.579771 -0.837447,1.28838 -0.837447,2.061408 0,1.674894 1.352798,3.092112 3.092111,3.092112 0.837447,0 1.610475,-0.257676 2.254665,-0.901866 l 2.125827,-2.254665 -0.450933,25.18783 h -3.736302 c -1.803732,0 -3.092111,1.41722 -3.092111,3.09211 0,1.73931 1.288379,3.09211 3.092111,3.09211 z" id="path33" />
    <path d="m 45.466153,111.5821 c 0.901866,0 2.125827,-0.38652 2.770017,-1.6749 L 65.886976,74.605592 c 0.322095,-0.64419 0.773028,-1.610475 0.773028,-2.254665 0,-1.739313 -1.352799,-3.156531 -3.092112,-3.156531 H 42.502879 c -1.739313,0 -3.092112,1.481637 -3.092112,3.092112 0,1.739313 1.352799,3.092112 3.092112,3.092112 h 16.10475 l -15.847074,31.75857 c -0.322095,0.64419 -0.386514,1.09512 -0.386514,1.3528 0,1.61047 1.352799,3.09211 3.092112,3.09211 z" id="path35" />
  </g>
</svg>