<?xml version="1.0" encoding="UTF-8"?>
<svg width="128" height="128" version="1.1" viewBox="0 0 128 128" xmlns="http://www.w3.org/2000/svg">
 <path d="M8.484 32.03a4.378 4.378 0 0 1 .272 1.5 4.378 4.378 0 0 1-4.377 4.378v3.432a4.378 4.378 0 0 1 4.377 4.377 4.378 4.378 0 0 1-4.377 4.379v3.431a4.378 4.378 0 0 1 4.377 4.38 4.378 4.378 0 0 1-4.377 4.376v3.434a4.378 4.378 0 0 1 4.377 4.377 4.378 4.378 0 0 1-4.377 4.379v3.431a4.378 4.378 0 0 1 4.377 4.38 4.378 4.378 0 0 1-4.377 4.376v3.432a4.378 4.378 0 0 1 4.377 4.379 4.378 4.378 0 0 1-.268 1.5H85.23a4.378 4.378 0 0 1-.271-1.5 4.378 4.378 0 0 1 4.377-4.38 4.378 4.378 0 0 1 4.379 4.38 4.378 4.378 0 0 1-.268 1.5h26.069a4.378 4.378 0 0 1-.272-1.5 4.378 4.378 0 0 1 4.377-4.38v-3.43a4.378 4.378 0 0 1-4.377-4.378 4.378 4.378 0 0 1 4.377-4.379v-3.431a4.378 4.378 0 0 1-4.377-4.38 4.378 4.378 0 0 1 4.377-4.376v-3.434a4.378 4.378 0 0 1-4.377-4.377 4.378 4.378 0 0 1 4.377-4.379v-3.431a4.378 4.378 0 0 1-4.377-4.38 4.378 4.378 0 0 1 4.377-4.376v-3.432a4.378 4.378 0 0 1-4.377-4.379 4.378 4.378 0 0 1 .27-1.5h-26.07a4.378 4.378 0 0 1 .27 1.5 4.378 4.378 0 0 1-4.378 4.38 4.378 4.378 0 0 1-4.377-4.38 4.378 4.378 0 0 1 .27-1.5zm80.852 9.31a4.378 4.378 0 0 1 4.379 4.377 4.378 4.378 0 0 1-4.38 4.379 4.378 4.378 0 0 1-4.376-4.38 4.378 4.378 0 0 1 4.377-4.376zm0 12.187a4.378 4.378 0 0 1 4.379 4.38 4.378 4.378 0 0 1-4.38 4.376 4.378 4.378 0 0 1-4.376-4.377 4.378 4.378 0 0 1 4.377-4.379zm0 12.19a4.378 4.378 0 0 1 4.379 4.377 4.378 4.378 0 0 1-4.38 4.379 4.378 4.378 0 0 1-4.376-4.38 4.378 4.378 0 0 1 4.377-4.376zm0 12.187a4.378 4.378 0 0 1 4.379 4.38 4.378 4.378 0 0 1-4.38 4.376 4.378 4.378 0 0 1-4.376-4.377 4.378 4.378 0 0 1 4.377-4.379z" fill="#e79a00" stroke-width=".6" paint-order="stroke fill markers"/>
 <g transform="scale(1.0025 .9975)" fill="#2f2f2f" aria-label="KeynoteEmoji Theatre10105 N Atanu Drive,Pertinuco, AC 90641, ASU">
  <path d="m19.373 54.366h-1.4347l-1.5598-2.5106-0.53382 0.38369v2.127h-1.2595v-5.9555h1.2595v2.7275q0.12512-0.17516 0.25023-0.35032t0.25023-0.35032l1.6098-2.0269h1.4013l-2.0769 2.6358z"/>
  <path d="m21.901 49.728q0.94253 0 1.493 0.54216 0.55051 0.53382 0.55051 1.5264v0.60055h-2.936q0.01668 0.52548 0.30862 0.82576 0.30028 0.30028 0.82576 0.30028 0.44207 0 0.80074-0.08341 0.35866-0.09175 0.74235-0.27525v0.95922q-0.33364 0.16682-0.70898 0.24189-0.367 0.08341-0.89249 0.08341-0.68396 0-1.2094-0.25023-0.52548-0.25857-0.82576-0.77571t-0.30028-1.3012q0-0.80074 0.26691-1.3262 0.27525-0.53382 0.75903-0.80074t1.126-0.26691zm0.0083 0.88415q-0.35866 0-0.60055 0.23355-0.23355 0.23355-0.27525 0.72567h1.7433q-0.0083-0.41705-0.21687-0.68396-0.20852-0.27525-0.6506-0.27525z"/>
  <path d="m24.136 49.812h1.3596l0.85912 2.5607q0.06673 0.1835 0.10009 0.38369 0.03336 0.19184 0.05005 0.40871h0.02502q0.02502-0.21687 0.06673-0.40871 0.05005-0.20018 0.10843-0.38369l0.84244-2.5607h1.3346l-1.9268 5.1381q-0.25857 0.70898-0.75903 1.0593-0.49212 0.35866-1.1427 0.35866-0.20852 0-0.367-0.02502-0.15014-0.01668-0.26691-0.04171v-0.98424q0.09175 0.01668 0.21687 0.03336 0.13346 0.01668 0.27525 0.01668 0.39203 0 0.61723-0.24189 0.23355-0.23355 0.34198-0.56719l0.07507-0.22521z"/>
  <path d="m32.118 49.728q0.73401 0 1.1761 0.40037 0.44207 0.39203 0.44207 1.2678v2.9694h-1.2428v-2.6608q0-0.49212-0.17516-0.73401-0.17516-0.25023-0.55885-0.25023-0.56719 0-0.77571 0.39203-0.20852 0.38369-0.20852 1.1094v2.1436h-1.2428v-4.5542h0.95087l0.16682 0.58387h0.06673q0.21687-0.35032 0.59221-0.5088 0.38369-0.15848 0.80908-0.15848z"/>
  <path d="m39.15 52.081q0 1.1344-0.60055 1.7516-0.59221 0.61723-1.6182 0.61723-0.63392 0-1.1344-0.27525-0.49212-0.27525-0.77571-0.80074-0.28359-0.53382-0.28359-1.2929 0-1.1344 0.59221-1.7433t1.6265-0.60889q0.64226 0 1.1344 0.27525t0.77571 0.80074q0.28359 0.51714 0.28359 1.2762zm-3.1446 0q0 0.67562 0.21687 1.0259 0.22521 0.34198 0.72567 0.34198 0.49212 0 0.70898-0.34198 0.22521-0.35032 0.22521-1.0259t-0.22521-1.0093q-0.21687-0.34198-0.71733-0.34198-0.49212 0-0.71733 0.34198-0.21687 0.33364-0.21687 1.0093z"/>
  <path d="m42.094 53.457q0.20852 0 0.40037-0.04171t0.38369-0.10009v0.92585q-0.20018 0.08341-0.50046 0.1418-0.29194 0.06673-0.64226 0.06673-0.40871 0-0.73401-0.13346-0.31696-0.13346-0.5088-0.45876-0.1835-0.33364-0.1835-0.91751v-2.1937h-0.59221v-0.52548l0.68396-0.41705 0.35866-0.95922h0.7924v0.96756h1.2762v0.93419h-1.2762v2.1937q0 0.25857 0.15014 0.39203 0.15014 0.12512 0.39203 0.12512z"/>
  <path d="m45.673 49.728q0.94253 0 1.493 0.54216 0.55051 0.53382 0.55051 1.5264v0.60055h-2.936q0.01668 0.52548 0.30862 0.82576 0.30028 0.30028 0.82576 0.30028 0.44207 0 0.80074-0.08341 0.35866-0.09175 0.74235-0.27525v0.95922q-0.33364 0.16682-0.70898 0.24189-0.367 0.08341-0.89249 0.08341-0.68396 0-1.2094-0.25023-0.52548-0.25857-0.82576-0.77571t-0.30028-1.3012q0-0.80074 0.26691-1.3262 0.27525-0.53382 0.75903-0.80074t1.126-0.26691zm0.0083 0.88415q-0.35866 0-0.60055 0.23355-0.23355 0.23355-0.27525 0.72567h1.7433q-0.0083-0.41705-0.21687-0.68396-0.20852-0.27525-0.6506-0.27525z"/>
  <path d="m17.972 62.233h-3.3281v-5.9555h3.3281v0.65894h-2.5774v1.86h2.4272v0.6506h-2.4272v2.127h2.5774z"/>
  <path d="m24.086 57.679q0.75903 0 1.1344 0.39203 0.37534 0.38369 0.37534 1.2512v2.911h-0.72567v-2.8776q0-1.0593-0.90917-1.0593-0.6506 0-0.93419 0.37534-0.27525 0.37534-0.27525 1.0927v2.4689h-0.72567v-2.8776q0-1.0593-0.91751-1.0593-0.67562 0-0.93419 0.41705t-0.25857 1.2011v2.3188h-0.73401v-4.4708h0.59221l0.10843 0.60889h0.04171q0.20852-0.35032 0.55885-0.51714 0.35866-0.17516 0.75903-0.17516 1.051 0 1.3679 0.75069h0.04171q0.22521-0.38369 0.60889-0.56719 0.39203-0.1835 0.82576-0.1835z"/>
  <path d="m30.867 59.989q0 1.1094-0.56719 1.7182-0.55885 0.60889-1.5181 0.60889-0.59221 0-1.0593-0.26691-0.45876-0.27525-0.72567-0.7924-0.26691-0.52548-0.26691-1.2678 0-1.1094 0.55885-1.7099t1.5181-0.60055q0.60889 0 1.0676 0.27525 0.4671 0.26691 0.72567 0.78405 0.26691 0.5088 0.26691 1.2512zm-3.3781 0q0 0.7924 0.30862 1.2595 0.31696 0.45876 1.0009 0.45876 0.67562 0 0.99258-0.45876 0.31696-0.4671 0.31696-1.2595t-0.31696-1.2428-1.0009-0.45041-0.99258 0.45041-0.30862 1.2428z"/>
  <path d="m31.968 56.553q0-0.24189 0.12512-0.35032 0.12512-0.11677 0.30862-0.11677 0.16682 0 0.29194 0.11677 0.13346 0.10843 0.13346 0.35032 0 0.23355-0.13346 0.35032-0.12512 0.11677-0.29194 0.11677-0.1835 0-0.30862-0.11677t-0.12512-0.35032zm-0.4671 7.6821q-0.20852 0-0.367-0.03336-0.15848-0.02502-0.27525-0.06673v-0.59221q0.12512 0.03336 0.25857 0.05839 0.13346 0.02502 0.29194 0.02502 0.26691 0 0.44207-0.15014 0.17516-0.1418 0.17516-0.55051v-5.1631h0.73401v5.1381q0 0.62558-0.30028 0.9759-0.30028 0.35866-0.95922 0.35866z"/>
  <path d="m34.554 56.086q0.16682 0 0.29194 0.11677 0.13346 0.10843 0.13346 0.35032 0 0.23355-0.13346 0.35032-0.12512 0.11677-0.29194 0.11677-0.1835 0-0.30862-0.11677t-0.12512-0.35032q0-0.24189 0.12512-0.35032 0.12512-0.11677 0.30862-0.11677zm0.35866 1.6765v4.4708h-0.73401v-4.4708z"/>
  <path d="m40.484 62.233h-0.75069v-5.2965h-1.86v-0.65894h4.4624v0.65894h-1.8517z"/>
  <path d="m43.871 57.754q0 0.33364-0.04171 0.62558h0.05005q0.21687-0.34198 0.58387-0.51714 0.37534-0.17516 0.80908-0.17516 0.81742 0 1.2261 0.39203 0.40871 0.38369 0.40871 1.2428v2.911h-0.72567v-2.861q0-1.076-1.0009-1.076-0.75069 0-1.0343 0.42539-0.27525 0.41705-0.27525 1.2011v2.3105h-0.73401v-6.3392h0.73401z"/>
  <path d="m50.018 57.679q0.57553 0 0.98424 0.25023 0.41705 0.25023 0.63392 0.70898 0.22521 0.45041 0.22521 1.0593v0.44207h-3.0611q0.01668 0.75903 0.38369 1.1594 0.37534 0.39203 1.0426 0.39203 0.42539 0 0.75069-0.07507 0.33364-0.08341 0.68396-0.23355v0.64226q-0.34198 0.15014-0.67562 0.21687-0.33364 0.07507-0.7924 0.07507-0.63392 0-1.126-0.25857-0.48378-0.25857-0.75903-0.76737-0.26691-0.51714-0.26691-1.2595 0-0.73401 0.24189-1.2595 0.25023-0.52548 0.6923-0.80908 0.45041-0.28359 1.0426-0.28359zm-0.0083 0.60055q-0.52548 0-0.8341 0.34198-0.30028 0.33364-0.35866 0.93419h2.2771q-0.0083-0.56719-0.26691-0.91751-0.25857-0.35866-0.81742-0.35866z"/>
  <path d="m54.689 57.687q0.81742 0 1.2094 0.35866t0.39203 1.1427v3.0445h-0.53382l-0.1418-0.63392h-0.03336q-0.29194 0.367-0.61723 0.54216-0.31696 0.17516-0.88415 0.17516-0.60889 0-1.0093-0.31696-0.40037-0.3253-0.40037-1.0093 0-0.66728 0.52548-1.0259 0.52548-0.367 1.6182-0.40037l0.75903-0.02502v-0.26691q0-0.55885-0.24189-0.77571t-0.68396-0.21687q-0.35032 0-0.66728 0.10843-0.31696 0.10009-0.59221 0.23355l-0.22521-0.55051q0.29194-0.15848 0.6923-0.26691 0.40037-0.11677 0.8341-0.11677zm0.21687 2.3855q-0.8341 0.03336-1.1594 0.26691-0.31696 0.23355-0.31696 0.65894 0 0.37534 0.22521 0.55051 0.23355 0.17516 0.59221 0.17516 0.56719 0 0.94253-0.30862 0.37534-0.31696 0.37534-0.96756v-0.40037z"/>
  <path d="m59.168 61.716q0.16682 0 0.34198-0.02502 0.17516-0.03336 0.28359-0.06673v0.55885q-0.11677 0.05839-0.33364 0.09175-0.21687 0.04171-0.41705 0.04171-0.35032 0-0.6506-0.11677-0.29194-0.12512-0.47544-0.42539t-0.1835-0.84244v-2.6024h-0.63392v-0.35032l0.64226-0.29194 0.29194-0.95087h0.43373v1.0259h1.2929v0.56719h-1.2929v2.5857q0 0.40871 0.19184 0.60889 0.20018 0.19184 0.5088 0.19184z"/>
  <path d="m62.772 57.679q0.12512 0 0.26691 0.01668 0.15014 0.0083 0.25857 0.03336l-0.09175 0.67562q-0.10843-0.02502-0.24189-0.04171-0.12512-0.01668-0.24189-0.01668-0.34198 0-0.64226 0.19184-0.30028 0.1835-0.48378 0.52548-0.17516 0.33364-0.17516 0.78405v2.3855h-0.73401v-4.4708h0.60055l0.08341 0.81742h0.03336q0.21687-0.367 0.55885-0.63392t0.80908-0.26691z"/>
  <path d="m65.691 57.679q0.57553 0 0.98424 0.25023 0.41705 0.25023 0.63392 0.70898 0.22521 0.45041 0.22521 1.0593v0.44207h-3.0611q0.01668 0.75903 0.38369 1.1594 0.37534 0.39203 1.0426 0.39203 0.42539 0 0.75069-0.07507 0.33364-0.08341 0.68396-0.23355v0.64226q-0.34198 0.15014-0.67562 0.21687-0.33364 0.07507-0.7924 0.07507-0.63392 0-1.126-0.25857-0.48378-0.25857-0.75903-0.76737-0.26691-0.51714-0.26691-1.2595 0-0.73401 0.24189-1.2595 0.25023-0.52548 0.6923-0.80908 0.45041-0.28359 1.0426-0.28359zm-0.0083 0.60055q-0.52548 0-0.8341 0.34198-0.30028 0.33364-0.35866 0.93419h2.2771q-0.0083-0.56719-0.26691-0.91751-0.25857-0.35866-0.81742-0.35866z"/>
  <path d="m16.258 70.1h-0.58686v-3.4052q0-0.29343 0.0068-0.47086t0.02047-0.3685q-0.10918 0.10918-0.1979 0.18425-0.08871 0.07506-0.22519 0.19107l-0.51862 0.42309-0.3139-0.40262 1.317-1.0236h0.49815z"/>
  <path d="m21.307 67.657q0 0.78476-0.16378 1.3512-0.16378 0.55957-0.51862 0.85982t-0.94171 0.30026q-0.8257 0-1.2215-0.66193-0.38897-0.66875-0.38897-1.8493 0-0.79158 0.15695-1.3512 0.16378-0.55957 0.51862-0.853 0.35485-0.30026 0.93489-0.30026 0.81888 0 1.2215 0.66193 0.40262 0.6551 0.40262 1.8425zm-2.6341 0q0 1.0031 0.22519 1.5013 0.23202 0.49815 0.78476 0.49815 0.54592 0 0.77794-0.49133 0.23884-0.49815 0.23884-1.5081 0-0.9963-0.23884-1.4945-0.23202-0.49815-0.77794-0.49815-0.55274 0-0.78476 0.49815-0.22519 0.49815-0.22519 1.4945z"/>
  <path d="m24.064 70.1h-0.58686v-3.4052q0-0.29343 0.0068-0.47086t0.02047-0.3685q-0.10918 0.10918-0.1979 0.18425-0.08871 0.07506-0.22519 0.19107l-0.51862 0.42309-0.3139-0.40262 1.317-1.0236h0.49815z"/>
  <path d="m29.114 67.657q0 0.78476-0.16378 1.3512-0.16378 0.55957-0.51862 0.85982t-0.94171 0.30026q-0.8257 0-1.2215-0.66193-0.38897-0.66875-0.38897-1.8493 0-0.79158 0.15695-1.3512 0.16378-0.55957 0.51862-0.853 0.35485-0.30026 0.93489-0.30026 0.81888 0 1.2215 0.66193 0.40262 0.6551 0.40262 1.8425zm-2.6341 0q0 1.0031 0.22519 1.5013 0.23202 0.49815 0.78476 0.49815 0.54592 0 0.77794-0.49133 0.23884-0.49815 0.23884-1.5081 0-0.9963-0.23884-1.4945-0.23202-0.49815-0.77794-0.49815-0.55274 0-0.78476 0.49815-0.22519 0.49815-0.22519 1.4945z"/>
  <path d="m31.325 67.111q0.75064 0 1.1942 0.37532t0.44356 1.0577q0 0.75746-0.4845 1.1942-0.47768 0.42991-1.3375 0.42991-0.37532 0-0.7097-0.06824-0.32755-0.06824-0.55274-0.1979v-0.56639q0.24566 0.15013 0.59369 0.23884 0.35485 0.08189 0.67558 0.08189 0.5391 0 0.86665-0.25249 0.33438-0.25931 0.33438-0.79841 0-0.47768-0.29343-0.73017-0.29343-0.25931-0.92806-0.25931-0.19107 0-0.43674 0.03412t-0.39579 0.06824l-0.30026-0.19107 0.18425-2.2997h2.443v0.54592h-1.9312l-0.11601 1.4126q0.11601-0.02047 0.3139-0.04777t0.43674-0.0273z"/>
  <path d="m39.65 70.1h-0.71652l-2.6068-4.0466h-0.0273q0.01365 0.23884 0.03412 0.59369t0.02047 0.73017v2.7228h-0.56639v-4.8723h0.7097l2.5999 4.033h0.0273q-0.0068-0.10918-0.02047-0.32755-0.0068-0.21837-0.02047-0.47768-0.0068-0.25931-0.0068-0.47768v-2.7501h0.57322z"/>
  <path d="m45.805 70.1-0.58686-1.5081h-1.9312l-0.58004 1.5081h-0.62098l1.9039-4.8928h0.55274l1.8971 4.8928zm-1.317-3.528q-0.02047-0.05459-0.06824-0.1979-0.04777-0.1433-0.09554-0.29343-0.04094-0.15695-0.06824-0.23884-0.04777 0.21154-0.10918 0.41626-0.06142 0.1979-0.10236 0.3139l-0.55274 1.474h1.5422z"/>
  <path d="m48.248 69.677q0.13648 0 0.27978-0.02047 0.1433-0.0273 0.23202-0.05459v0.45721q-0.09554 0.04777-0.27296 0.07506-0.17742 0.03412-0.3412 0.03412-0.28661 0-0.53227-0.09554-0.23884-0.10236-0.38897-0.34802t-0.15013-0.68922v-2.1291h-0.51862v-0.28661l0.52545-0.23884 0.23884-0.77794h0.35485v0.83935h1.0577v0.46403h-1.0577v2.1154q0 0.33438 0.15695 0.49815 0.16378 0.15695 0.41626 0.15695z"/>
  <path d="m50.876 66.381q0.66875 0 0.98948 0.29343t0.32073 0.93489v2.4908h-0.43674l-0.11601-0.51862h-0.0273q-0.23884 0.30026-0.50498 0.44356-0.25931 0.1433-0.72334 0.1433-0.49815 0-0.8257-0.25931-0.32755-0.26614-0.32755-0.8257 0-0.54592 0.42991-0.83935 0.42991-0.30026 1.3239-0.32755l0.62098-0.02047v-0.21837q0-0.45721-0.1979-0.63463t-0.55957-0.17742q-0.28661 0-0.54592 0.08871-0.25931 0.08189-0.4845 0.19107l-0.18425-0.45038q0.23884-0.12966 0.56639-0.21837 0.32755-0.09554 0.6824-0.09554zm0.17742 1.9517q-0.6824 0.0273-0.94854 0.21837-0.25931 0.19107-0.25931 0.5391 0 0.30708 0.18425 0.45038 0.19107 0.1433 0.4845 0.1433 0.46403 0 0.77111-0.25249 0.30708-0.25931 0.30708-0.79158v-0.32755z"/>
  <path d="m55.079 66.374q0.6551 0 0.98948 0.32073 0.33438 0.3139 0.33438 1.0236v2.3816h-0.59369v-2.3406q0-0.8803-0.81888-0.8803-0.60734 0-0.83935 0.3412t-0.23202 0.98266v1.8971h-0.60051v-3.6577h0.4845l0.08871 0.49815h0.03412q0.17742-0.28661 0.49133-0.42309 0.3139-0.1433 0.66193-0.1433z"/>
  <path d="m60.593 66.442v3.6577h-0.49133l-0.08871-0.4845h-0.0273q-0.17742 0.28661-0.49133 0.42309-0.3139 0.12966-0.66875 0.12966-0.66193 0-0.9963-0.3139-0.33438-0.32073-0.33438-1.0168v-2.3952h0.60734v2.3543q0 0.87347 0.81206 0.87347 0.60734 0 0.83935-0.3412 0.23884-0.3412 0.23884-0.98266v-1.9039z"/>
  <path d="m67.513 67.616q0 1.2351-0.67558 1.863-0.66875 0.62098-1.8698 0.62098h-1.358v-4.8723h1.5013q0.73699 0 1.2761 0.27296t0.83253 0.80523q0.29343 0.52545 0.29343 1.3102zm-0.64828 0.02047q0-0.97583-0.4845-1.4262-0.47768-0.45721-1.358-0.45721h-0.79841v3.8214h0.66193q1.979 0 1.979-1.938z"/>
  <path d="m70.215 66.374q0.10236 0 0.21837 0.01365 0.12283 0.0068 0.21154 0.0273l-0.07506 0.55274q-0.08871-0.02047-0.1979-0.03412-0.10236-0.01365-0.1979-0.01365-0.27978 0-0.52545 0.15695-0.24566 0.15013-0.39579 0.42991-0.1433 0.27296-0.1433 0.64146v1.9517h-0.60051v-3.6577h0.49133l0.06824 0.66875h0.0273q0.17742-0.30026 0.45721-0.51862t0.66193-0.21837z"/>
  <path d="m71.634 65.071q0.13648 0 0.23884 0.09554 0.10918 0.08871 0.10918 0.28661 0 0.19107-0.10918 0.28661-0.10236 0.09554-0.23884 0.09554-0.15013 0-0.25249-0.09554t-0.10236-0.28661q0-0.1979 0.10236-0.28661 0.10236-0.09554 0.25249-0.09554zm0.29343 1.3716v3.6577h-0.60051v-3.6577z"/>
  <path d="m73.893 70.1-1.3853-3.6577h0.64146l0.77794 2.1564q0.05459 0.15013 0.11601 0.33438 0.06142 0.18425 0.10918 0.35485 0.04777 0.16378 0.06824 0.27978h0.0273q0.0273-0.11601 0.07506-0.28661 0.05459-0.1706 0.11601-0.35485 0.06824-0.18425 0.11601-0.32755l0.77794-2.1564h0.64146l-1.3921 3.6577z"/>
  <path d="m77.967 66.374q0.47086 0 0.80523 0.20472 0.3412 0.20472 0.51862 0.58004 0.18425 0.3685 0.18425 0.86665v0.36167h-2.5044q0.01365 0.62098 0.3139 0.94854 0.30708 0.32073 0.853 0.32073 0.34802 0 0.61416-0.06142 0.27296-0.06824 0.55957-0.19107v0.52545q-0.27978 0.12283-0.55274 0.17742-0.27296 0.06142-0.64828 0.06142-0.51862 0-0.92124-0.21154-0.39579-0.21154-0.62098-0.62781-0.21837-0.42309-0.21837-1.0304 0-0.60051 0.1979-1.0304 0.20472-0.42991 0.56639-0.66193 0.3685-0.23202 0.853-0.23202zm-0.0068 0.49133q-0.42991 0-0.6824 0.27978-0.24566 0.27296-0.29343 0.76429h1.863q-0.0068-0.46403-0.21837-0.75064-0.21154-0.29343-0.66875-0.29343z"/>
  <path d="m81.133 69.383q-0.08871 0.36167-0.25931 0.79158-0.16378 0.43674-0.32755 0.80523h-0.44356q0.09554-0.38897 0.19107-0.853 0.10236-0.46403 0.15013-0.81888h0.64146z"/>
  <path d="m15.353 74.556q0.74312 0 1.0828 0.29194t0.33971 0.82274q0 0.31317-0.14332 0.58919-0.13801 0.27071-0.47241 0.44056-0.3291 0.16986-0.89705 0.16986h-0.43526v1.4756h-0.47772v-3.7899zm-0.04246 0.40872h-0.48303v1.4969h0.38218q0.54142 0 0.80682-0.17516t0.2654-0.5945q0-0.36625-0.23355-0.54672t-0.73781-0.18047z"/>
  <path d="m18.596 75.448q0.36625 0 0.62634 0.15924 0.2654 0.15924 0.40341 0.45118 0.14332 0.28663 0.14332 0.67412v0.28132h-1.948q0.01062 0.48303 0.24417 0.73781 0.23886 0.24948 0.6635 0.24948 0.27071 0 0.47772-0.04777 0.21232-0.05308 0.43526-0.14862v0.40872q-0.21763 0.09554-0.42995 0.13801-0.21232 0.04777-0.50426 0.04777-0.40341 0-0.71658-0.16455-0.30786-0.16455-0.48303-0.48834-0.16986-0.3291-0.16986-0.80151 0-0.4671 0.15393-0.80151 0.15924-0.3344 0.44056-0.51488 0.28663-0.18047 0.6635-0.18047zm-0.0053 0.38218q-0.3344 0-0.5308 0.21763-0.19109 0.21232-0.22824 0.5945h1.4491q-0.0053-0.36094-0.16986-0.58388-0.16455-0.22824-0.52018-0.22824z"/>
  <path d="m21.818 75.448q0.07962 0 0.16986 0.01062 0.09554 0.0053 0.16455 0.02123l-0.05839 0.42995q-0.069-0.01592-0.15393-0.02654-0.07962-0.01062-0.15393-0.01062-0.21763 0-0.40872 0.12208-0.19109 0.11678-0.30786 0.3344-0.11147 0.21232-0.11147 0.49895v1.5181h-0.4671v-2.8451h0.38218l0.05308 0.52018h0.02123q0.13801-0.23355 0.35564-0.40341t0.51488-0.16986z"/>
  <path d="m23.634 78.017q0.10616 0 0.21763-0.01592 0.11147-0.02123 0.18047-0.04246v0.35564q-0.07431 0.03716-0.21232 0.05839-0.13801 0.02654-0.2654 0.02654-0.22294 0-0.41402-0.07431-0.18578-0.07962-0.30256-0.27071t-0.11678-0.53611v-1.6561h-0.40341v-0.22294l0.40872-0.18578 0.18578-0.60511h0.27602v0.65288h0.82274v0.36094h-0.82274v1.6455q0 0.26009 0.12208 0.38748 0.12739 0.12208 0.32379 0.12208z"/>
  <path d="m24.838 74.434q0.10616 0 0.18578 0.07431 0.08493 0.069 0.08493 0.22294 0 0.14862-0.08493 0.22294-0.07962 0.07431-0.18578 0.07431-0.11678 0-0.1964-0.07431t-0.07962-0.22294q0-0.15393 0.07962-0.22294 0.07962-0.07431 0.1964-0.07431zm0.22824 1.0669v2.8451h-0.4671v-2.8451z"/>
  <path d="m27.339 75.448q0.50957 0 0.76966 0.24948 0.26009 0.24417 0.26009 0.7962v1.8525h-0.4618v-1.8206q0-0.68473-0.63696-0.68473-0.47241 0-0.65288 0.2654t-0.18047 0.76435v1.4756h-0.4671v-2.8451h0.37687l0.069 0.38748h0.02654q0.13801-0.22294 0.38218-0.3291 0.24417-0.11147 0.51488-0.11147z"/>
  <path d="m31.627 75.501v2.8451h-0.38218l-0.069-0.37687h-0.02123q-0.13801 0.22294-0.38218 0.3291-0.24417 0.10085-0.52018 0.10085-0.51488 0-0.77497-0.24417-0.26009-0.24948-0.26009-0.79089v-1.8631h0.47241v1.8313q0 0.67942 0.63165 0.67942 0.47241 0 0.65288-0.2654 0.18578-0.2654 0.18578-0.76435v-1.4809z"/>
  <path d="m33.671 78.399q-0.37687 0-0.67412-0.15393-0.29194-0.15393-0.4618-0.47772-0.16455-0.32379-0.16455-0.82805 0-0.52549 0.17516-0.85459t0.47241-0.48303q0.30256-0.15393 0.68473-0.15393 0.21763 0 0.41933 0.04777 0.2017 0.04246 0.3291 0.10616l-0.14332 0.38748q-0.12739-0.04777-0.29725-0.09024-0.16986-0.04246-0.31848-0.04246-0.83866 0-0.83866 1.0775 0 0.51488 0.2017 0.79089 0.20701 0.27071 0.61042 0.27071 0.23355 0 0.40872-0.04777 0.18047-0.04777 0.3291-0.11678v0.41402q-0.14332 0.07431-0.31848 0.11147-0.16986 0.04246-0.41402 0.04246z"/>
  <path d="m37.551 76.918q0 0.70596-0.36094 1.0934-0.35564 0.38748-0.96606 0.38748-0.37687 0-0.67412-0.16986-0.29194-0.17516-0.4618-0.50426-0.16986-0.3344-0.16986-0.80682 0-0.70596 0.35564-1.0881t0.96606-0.38218q0.38748 0 0.67942 0.17516 0.29725 0.16986 0.4618 0.49895 0.16986 0.32379 0.16986 0.7962zm-2.1497 0q0 0.50426 0.1964 0.80151 0.2017 0.29194 0.63696 0.29194 0.42995 0 0.63165-0.29194 0.2017-0.29725 0.2017-0.80151t-0.2017-0.79089-0.63696-0.28663-0.63165 0.28663-0.1964 0.79089z"/>
  <path d="m38.857 77.789q-0.069 0.28132-0.2017 0.61573-0.12739 0.33971-0.25478 0.62634h-0.34502q0.07431-0.30256 0.14862-0.6635 0.07962-0.36094 0.11678-0.63696h0.49895z"/>
  <path d="m43.533 78.346-0.45649-1.1731h-1.5022l-0.45118 1.1731h-0.48303l1.4809-3.8058h0.42995l1.4756 3.8058zm-1.0244-2.7442q-0.01592-0.04246-0.05308-0.15393-0.03716-0.11147-0.07431-0.22824-0.03185-0.12208-0.05308-0.18578-0.03716 0.16455-0.08493 0.32379-0.04777 0.15393-0.07962 0.24417l-0.42995 1.1465h1.1996z"/>
  <path d="m46.065 74.922q-0.61042 0-0.96075 0.40872t-0.35033 1.12q0 0.70596 0.32379 1.12 0.3291 0.40872 0.98198 0.40872 0.24948 0 0.47241-0.04246t0.43526-0.10616v0.41402q-0.21232 0.07962-0.44056 0.11678-0.22294 0.03716-0.53611 0.03716-0.57857 0-0.96606-0.23886t-0.58388-0.67942q-0.19109-0.44056-0.19109-1.0351 0-0.57326 0.20701-1.0085 0.21232-0.44056 0.62104-0.68473 0.40872-0.24948 0.9926-0.24948 0.5998 0 1.0457 0.22294l-0.19109 0.40341q-0.17516-0.07962-0.39279-0.14332-0.21232-0.0637-0.4671-0.0637z"/>
  <path d="m51.421 76.175q0 0.40872-0.07431 0.80682-0.069 0.39279-0.26009 0.71658-0.18578 0.31848-0.5308 0.50957-0.33971 0.19109-0.87582 0.19109-0.10616 0-0.24948-0.01592-0.13801-0.01062-0.22824-0.03716v-0.3981q0.20701 0.069 0.4671 0.069 0.37156 0 0.61042-0.12208 0.24417-0.12208 0.38748-0.3291 0.14332-0.21232 0.20701-0.48834 0.0637-0.28132 0.07431-0.58919h-0.03185q-0.11678 0.18047-0.33971 0.31317-0.21763 0.12739-0.56265 0.12739-0.48834 0-0.79089-0.29725-0.29725-0.30256-0.29725-0.84928 0-0.3981 0.14862-0.68473 0.15393-0.28663 0.42464-0.44056t0.63696-0.15393q0.36094 0 0.65288 0.18578 0.29194 0.18047 0.4618 0.55203 0.16986 0.36625 0.16986 0.93421zm-1.2845-1.2792q-0.3291 0-0.54142 0.21763-0.20701 0.21763-0.20701 0.6635 0 0.36625 0.17516 0.57857 0.18047 0.20701 0.55203 0.20701 0.25478 0 0.44056-0.10085 0.18578-0.10616 0.28663-0.2654 0.10616-0.15924 0.10616-0.3291 0-0.22824-0.09024-0.45118t-0.27071-0.37156q-0.18047-0.14862-0.45118-0.14862z"/>
  <path d="m54.473 76.446q0 0.61042-0.12739 1.051-0.12739 0.43526-0.40341 0.66881t-0.7325 0.23355q-0.64227 0-0.95013-0.51488-0.30256-0.52018-0.30256-1.4385 0-0.61573 0.12208-1.051 0.12739-0.43526 0.40341-0.6635 0.27602-0.23355 0.7272-0.23355 0.63696 0 0.95013 0.51488 0.31317 0.50957 0.31317 1.4332zm-2.0489 0q0 0.78028 0.17516 1.1678 0.18047 0.38748 0.61042 0.38748 0.42464 0 0.60511-0.38218 0.18578-0.38748 0.18578-1.1731 0-0.77497-0.18578-1.1625-0.18047-0.38748-0.60511-0.38748-0.42995 0-0.61042 0.38748-0.17516 0.38748-0.17516 1.1625z"/>
  <path d="m55.025 76.727q0-0.40872 0.069-0.80151 0.07431-0.3981 0.26009-0.71658 0.19109-0.32379 0.5308-0.51488t0.87582-0.19109q0.11147 0 0.24417 0.01062 0.13801 0.01062 0.22294 0.03716v0.3981q-0.09554-0.03185-0.21763-0.04777-0.11678-0.01592-0.23886-0.01592-0.36625 0-0.61042 0.12208t-0.38748 0.3344q-0.13801 0.21232-0.2017 0.48834-0.0637 0.27602-0.07962 0.58919h0.03185q0.12208-0.18578 0.33971-0.31317 0.21763-0.1327 0.55734-0.1327 0.49364 0 0.7962 0.30256 0.30256 0.29725 0.30256 0.84928 0 0.5945-0.3291 0.93421-0.32379 0.33971-0.87582 0.33971-0.36094 0-0.65288-0.18047t-0.4671-0.55203q-0.16986-0.37156-0.16986-0.93952zm1.2845 1.2792q0.3344 0 0.54142-0.21232 0.20701-0.21763 0.20701-0.66881 0-0.36094-0.18578-0.57326-0.18047-0.21232-0.54672-0.21232-0.24948 0-0.43526 0.10616-0.18578 0.10085-0.29194 0.26009-0.10085 0.15924-0.10085 0.3291 0 0.22824 0.09024 0.45649 0.09024 0.22294 0.27071 0.37156 0.18047 0.14332 0.45118 0.14332z"/>
  <path d="m60.699 77.486h-0.55203v0.8599h-0.45118v-0.8599h-1.8153v-0.3981l1.7835-2.5531h0.48303v2.5319h0.55203zm-1.0032-1.6136q0-0.27602 0.01062-0.4671 0.01062-0.1964 0.01592-0.37156h-0.02123q-0.04246 0.10085-0.10616 0.21763t-0.12208 0.1964l-1.1359 1.6189h1.3588z"/>
  <path d="m62.69 78.346h-0.45649v-2.6487q0-0.22824 0.0053-0.36625t0.01592-0.28663q-0.08493 0.08493-0.15393 0.14332-0.069 0.05839-0.17516 0.14862l-0.40341 0.3291-0.24417-0.31317 1.0244-0.7962h0.38748z"/>
  <path d="m64.861 77.789q-0.069 0.28132-0.2017 0.61573-0.12739 0.33971-0.25478 0.62634h-0.34502q0.07431-0.30256 0.14862-0.6635 0.07962-0.36094 0.11678-0.63696h0.49895z"/>
  <path d="m69.537 78.346-0.45649-1.1731h-1.5022l-0.45118 1.1731h-0.48303l1.4809-3.8058h0.42995l1.4756 3.8058zm-1.0244-2.7442q-0.01592-0.04246-0.05308-0.15393-0.03716-0.11147-0.07431-0.22824-0.03185-0.12208-0.05308-0.18578-0.03716 0.16455-0.08493 0.32379-0.04777 0.15393-0.07962 0.24417l-0.42995 1.1465h1.1996z"/>
  <path d="m72.701 77.332q0 0.50426-0.36625 0.78558t-0.98729 0.28132q-0.31848 0-0.58919-0.04777t-0.45118-0.1327v-0.45649q0.19109 0.08493 0.47241 0.15393 0.28663 0.069 0.58919 0.069 0.42464 0 0.63696-0.16455 0.21763-0.16455 0.21763-0.44587 0-0.18578-0.07962-0.31317t-0.27602-0.23355q-0.19109-0.11147-0.53611-0.23355-0.48303-0.17516-0.7325-0.42995-0.24417-0.25478-0.24417-0.69535 0-0.30256 0.15393-0.51488 0.15393-0.21763 0.42464-0.3344 0.27602-0.11678 0.63165-0.11678 0.31317 0 0.57326 0.05839t0.47241 0.15393l-0.14862 0.40872q-0.1964-0.08493-0.42995-0.14332-0.22824-0.05839-0.47772-0.05839-0.35564 0-0.53611 0.15393-0.18047 0.14862-0.18047 0.3981 0 0.19109 0.07962 0.31848t0.26009 0.22824 0.48834 0.21763q0.3344 0.12208 0.56265 0.2654 0.23355 0.13801 0.35033 0.3344 0.12208 0.1964 0.12208 0.49364z"/>
  <path d="m76.347 77.008q0 0.39279-0.15924 0.71127-0.15924 0.31317-0.48834 0.49895-0.32379 0.18047-0.82805 0.18047-0.70596 0-1.0775-0.38218-0.36625-0.38748-0.36625-1.0191v-2.4417h0.47772v2.4576q0 0.4618 0.24417 0.71658 0.24948 0.25478 0.74843 0.25478 0.51488 0 0.74312-0.27071 0.23355-0.27602 0.23355-0.70596v-2.4523h0.47241z"/>
 </g>
 <g transform="scale(1.0613 .94227)" fill="#2f2f2f" aria-label="27.07.2018">
  <path d="m17.271 98.252h-3.8142v-0.58991l1.5111-1.5273q0.43637-0.43637 0.73537-0.77578t0.45254-0.66264q0.15354-0.33132 0.15354-0.71921 0-0.47678-0.28284-0.71921-0.28284-0.25051-0.73537-0.25051-0.42021 0-0.74345 0.14546-0.31516 0.14546-0.64648 0.40405l-0.37981-0.47678q0.3394-0.28284 0.77578-0.47678 0.44446-0.20202 0.99396-0.20202 0.8081 0 1.2768 0.41213 0.4687 0.40405 0.4687 1.1233 0 0.45254-0.18586 0.8485t-0.51718 0.78386q-0.33132 0.37981-0.77578 0.81618l-1.2041 1.1879v0.03232h2.9172z"/>
  <path d="m18.79 98.252 2.3677-5.1234h-3.1112v-0.64648h3.8708v0.54951l-2.3435 5.2203z"/>
  <path d="m22.896 97.816q0-0.299 0.14546-0.42021t0.34748-0.12122q0.21011 0 0.35556 0.12122 0.15354 0.12122 0.15354 0.42021 0 0.29092-0.15354 0.42021-0.14546 0.1293-0.35556 0.1293-0.20202 0-0.34748-0.1293t-0.14546-0.42021z"/>
  <path d="m28.706 95.359q0 0.92932-0.19394 1.6-0.19394 0.66264-0.61416 1.0182t-1.1152 0.35556q-0.9778 0-1.4465-0.78386-0.46062-0.79194-0.46062-2.19 0-0.9374 0.18586-1.6 0.19394-0.66264 0.61416-1.0101 0.42021-0.35556 1.1071-0.35556 0.96972 0 1.4465 0.78386 0.47678 0.77578 0.47678 2.1819zm-3.1193 0q0 1.1879 0.26667 1.7778 0.27475 0.58991 0.92932 0.58991 0.64648 0 0.92123-0.58183 0.28284-0.58991 0.28284-1.7859 0-1.1798-0.28284-1.7697-0.27475-0.58991-0.92123-0.58991-0.65456 0-0.92932 0.58991-0.26667 0.58991-0.26667 1.7697z"/>
  <path d="m30.201 98.252 2.3677-5.1234h-3.1112v-0.64648h3.8708v0.54951l-2.3435 5.2203z"/>
  <path d="m34.306 97.816q0-0.299 0.14546-0.42021t0.34748-0.12122q0.21011 0 0.35556 0.12122 0.15354 0.12122 0.15354 0.42021 0 0.29092-0.15354 0.42021-0.14546 0.1293-0.35556 0.1293-0.20202 0-0.34748-0.1293t-0.14546-0.42021z"/>
  <path d="m40.092 98.252h-3.8142v-0.58991l1.5111-1.5273q0.43637-0.43637 0.73537-0.77578t0.45254-0.66264q0.15354-0.33132 0.15354-0.71921 0-0.47678-0.28284-0.71921-0.28284-0.25051-0.73537-0.25051-0.42021 0-0.74345 0.14546-0.31516 0.14546-0.64648 0.40405l-0.37981-0.47678q0.3394-0.28284 0.77578-0.47678 0.44446-0.20202 0.99396-0.20202 0.8081 0 1.2768 0.41213 0.4687 0.40405 0.4687 1.1233 0 0.45254-0.18586 0.8485t-0.51718 0.78386q-0.33132 0.37981-0.77578 0.81618l-1.2041 1.1879v0.03232h2.9172z"/>
  <path d="m44.738 95.359q0 0.92932-0.19394 1.6-0.19394 0.66264-0.61416 1.0182t-1.1152 0.35556q-0.9778 0-1.4465-0.78386-0.46062-0.79194-0.46062-2.19 0-0.9374 0.18586-1.6 0.19394-0.66264 0.61416-1.0101 0.42021-0.35556 1.1071-0.35556 0.96972 0 1.4465 0.78386 0.47678 0.77578 0.47678 2.1819zm-3.1193 0q0 1.1879 0.26667 1.7778 0.27475 0.58991 0.92932 0.58991 0.64648 0 0.92123-0.58183 0.28284-0.58991 0.28284-1.7859 0-1.1798-0.28284-1.7697-0.27475-0.58991-0.92123-0.58991-0.65456 0-0.92932 0.58991-0.26667 0.58991-0.26667 1.7697z"/>
  <path d="m48.003 98.252h-0.69497v-4.0324q0-0.34748 0.0081-0.55759t0.02424-0.43637q-0.1293 0.1293-0.23435 0.21819-0.10505 0.08889-0.26667 0.22627l-0.61416 0.50102-0.37173-0.47678 1.5596-1.2122h0.58991z"/>
  <path d="m52.06 92.401q0.75961 0 1.2445 0.35556t0.48486 1.0263q0 0.34748-0.15354 0.60608-0.14546 0.25859-0.39597 0.46062-0.25051 0.19394-0.54951 0.34748 0.35556 0.1697 0.64648 0.38789 0.29092 0.21011 0.46062 0.49294 0.17778 0.28284 0.17778 0.6788 0 0.72729-0.51718 1.1556-0.5091 0.42021-1.3738 0.42021-0.92932 0-1.4303-0.40405-0.50102-0.41213-0.50102-1.1475 0-0.39597 0.16162-0.68688 0.1697-0.29092 0.44446-0.50102t0.58991-0.35556q-0.42021-0.24243-0.71921-0.58183-0.29092-0.34748-0.29092-0.88083 0-0.44446 0.22627-0.74345 0.22627-0.30708 0.61416-0.4687t0.88083-0.16162zm-0.0081 0.57375q-0.44446 0-0.73537 0.21819-0.28284 0.21011-0.28284 0.61416 0 0.299 0.13738 0.50102 0.14546 0.20202 0.38789 0.34748 0.24243 0.13738 0.53335 0.26667 0.42021-0.17778 0.70305-0.42829 0.29092-0.25051 0.29092-0.68688 0-0.40405-0.28284-0.61416-0.28284-0.21819-0.75153-0.21819zm-1.2041 3.8142q0 0.42021 0.299 0.70305 0.299 0.27475 0.92123 0.27475 0.58991 0 0.89699-0.27475 0.31516-0.28284 0.31516-0.72729 0-0.42021-0.33132-0.69497-0.33132-0.28284-0.88083-0.49294l-0.1293-0.04849q-0.53335 0.22627-0.81618 0.52526-0.27475 0.29092-0.27475 0.73537z"/>
 </g>
 <rect x="96.651" y="36.109" width="19.925" height="55.781" rx="1" ry="1" fill="#fff" stroke-width=".6" paint-order="stroke fill markers"/>
 <g fill="#2f2f2f" stroke-linecap="round" stroke-linejoin="round" stroke-width=".19">
  <path d="m98.063 90.273v-0.554h17.101v0.554zm0-1.107v-0.553h17.101v0.553zm0-2.212v-1.106h17.101v1.106zm0-1.659v-0.553h17.101v0.553zm0-1.66v-0.553h17.101v0.553zm0-1.105v-1.66h17.101v1.66zm0-2.766v-0.554h17.101v0.554zm0-1.107v-1.659h17.101v1.66zm0-3.318v-0.553h17.101v0.553zm0-1.107v-1.106h17.101v1.106zm0-2.765v-1.107h17.101v1.106zm0-1.659v-0.554h17.101v0.554zm0-1.66v-1.106h17.101v1.106zm0-1.659v-1.106h17.101v1.106zm0-1.659v-0.553h17.101v0.553zm0-1.107v-0.553h17.101v0.553zm0-1.106v-0.553h17.101v0.553zm0-2.212v-0.553h17.101v0.553zm0-1.66v-0.553h17.101v0.553zm0-2.212v-0.553h17.101v0.553zm0-1.659v-1.107h17.101v1.107zm0-2.213v-1.106h17.101v1.106zm0-1.659v-0.553h17.101v0.553zm0-1.659v-0.554h17.101v0.554zm0-2.213v-1.66h17.101v1.66zm0-2.212v-0.553h17.101v0.553zm0-1.66v-1.106h17.101v1.106zm0-1.658v-1.107h17.101v1.106zm0-2.213v-0.553h17.101v0.553zm0-1.107v-0.553h17.101v0.553z"/>
 </g>
</svg>
