<?xml version="1.0" encoding="UTF-8" standalone="no"?>
<svg
   width="100%"
   height="100%"
   viewBox="0 0 128 128"
   version="1.1"
   xml:space="preserve"
   style="fill-rule:evenodd;clip-rule:evenodd;stroke-linecap:round;stroke-linejoin:round"
   id="svg31"
   xmlns="http://www.w3.org/2000/svg"
   xmlns:svg="http://www.w3.org/2000/svg"><defs
   id="defs35" />
    <g
   id="g4">
        <path
   d="m 25.326,31.44 c 0,0 -3.219,5.223 -3.219,8.14 0,2.918 3.22,5.223 3.22,8.14 0,2.918 -3.22,5.222 -3.22,8.14 0,2.918 3.22,5.222 3.22,8.14 0,2.918 -3.22,5.222 -3.22,8.14 0,2.918 3.22,5.222 3.22,8.14 0,2.917 -3.22,5.222 -3.22,8.14 0,2.917 3.22,8.14 3.22,8.14 M 11.44,47.72 c 0,2.918 -3.219,5.222 -3.219,8.14 0,2.918 3.22,5.222 3.22,8.14 0,2.918 -3.22,5.222 -3.22,8.14 0,2.918 3.22,5.222 3.22,8.14"
   style="fill:none;stroke:#000000;stroke-width:3.78"
   id="path2" />
    </g>
    <g
   id="g8">
        <path
   d="m 102.674,31.44 c 0,0 3.219,5.223 3.219,8.14 0,2.918 -3.22,5.223 -3.22,8.14 0,2.918 3.22,5.222 3.22,8.14 0,2.918 -3.22,5.222 -3.22,8.14 0,2.918 3.22,5.222 3.22,8.14 0,2.918 -3.22,5.222 -3.22,8.14 0,2.917 3.22,5.222 3.22,8.14 0,2.917 -3.22,8.14 -3.22,8.14 M 116.56,47.72 c 0,2.918 3.219,5.222 3.219,8.14 0,2.918 -3.22,5.222 -3.22,8.14 0,2.918 3.22,5.222 3.22,8.14 0,2.918 -3.22,5.222 -3.22,8.14"
   style="fill:none;stroke:#000000;stroke-width:3.78"
   id="path6" />
    </g>
    <path
   d="M94.28,9.42C94.28,5.998 91.502,3.22 88.08,3.22L39.92,3.22C36.498,3.22 33.72,5.998 33.72,9.42L33.72,118.57C33.72,121.992 36.498,124.77 39.92,124.77L88.08,124.77C91.502,124.77 94.28,121.992 94.28,118.57L94.28,9.42Z"
   style="fill:rgb(24,24,24)"
   id="path10" />
    <rect
   x="35.309"
   y="9.57"
   width="57.383"
   height="107.014"
   style="fill:rgb(12,94,159);fill-rule:nonzero"
   id="rect12" />
    <g
   id="g19">
        <path
   d="m 64,59.854 c -10.58,0 -19.155,8.576 -19.155,19.15 0,10.58 8.576,19.155 19.155,19.155 10.574,0 19.155,-8.575 19.155,-19.155 C 83.15,68.424 74.575,59.854 64,59.854 Z m 14.824,19.15 c 0,3.549 -1.251,6.804 -3.326,9.353 L 54.642,67.507 c 2.64,-2.154 5.946,-3.329 9.353,-3.327 8.192,0 14.83,6.632 14.83,14.824 z m -29.653,0 c 0,-2.953 0.873,-5.693 2.357,-8.005 L 72,91.47 c -2.385,1.54 -5.166,2.359 -8.005,2.358 -8.187,0.005 -14.824,-6.633 -14.824,-14.825 z"
   style="fill:#ffffff;fill-rule:nonzero"
   id="path14" />
        <g
   transform="matrix(0.50475,0,0,0.50475,18.931,46.7)"
   id="g17">
            <path
   id="e"
   d="m 106.64,46.87 c -3.05,-2.79 -7.01,-4.5 -11.1,-5.04 -0.78,-0.1 -2.2,-0.04 -2.69,0.74 -0.51,0.82 -0.44,1.95 -0.3,2.85 0.96,6.4 1.25,12.57 -0.1,18.96 -0.22,1.08 -0.44,2.16 -0.78,3.21 -0.31,0.94 -0.78,2.36 -1.67,2.92 -0.75,0.46 -1.54,-0.21 -2.07,-0.69 -3.06,-2.84 -7.44,-4.63 -11.67,-4.03 -1.25,0.17 -2.66,0.57 -3.77,1.2 -1.14,0.65 -2.49,1.82 -3.14,2.99 -1.34,2.44 -1.61,5.39 -0.6,8 0.27,0.72 0.63,1.45 1.05,2.09 2.33,3.53 6.85,5.1 10.92,5.12 3.53,0.02 7.23,-1.1 9.58,-3.87 1.01,-1.2 1.74,-2.6 2.28,-4.05 0.62,-1.67 1.25,-3.33 1.9,-4.98 0.64,-1.6 1.1,-3.28 1.49,-4.96 0.471,-2.087 0.785,-4.206 0.94,-6.34 0.07,-0.81 0.09,-1.63 0.16,-2.44 0.15,-1.67 -0.14,-3.31 2.14,-2.99 0.7,0.09 1.37,0.47 1.98,0.79 1.55,0.82 2.97,2.02 3.88,3.53 1.05,1.76 0.89,3.67 0.25,5.55 -0.11,0.32 -0.18,0.75 -0.12,1.09 0.15,0.88 0.73,1.33 1.61,1.19 2.03,-0.33 4.3,-4.45 4.6,-6.85 0.63,-4.98 -1.14,-10.66 -4.77,-13.99 z"
   style="fill:#ffffff;fill-rule:nonzero" />
        </g>
    </g>
    <path
   d="M54.121,120.309L73.879,120.309M54.121,6.48L73.879,6.48"
   style="fill:none;stroke:rgb(40,40,40);stroke-width:1.48"
   id="path21" />
    <g
   transform="matrix(0.931817,0,0,0.931817,45.0395,36.036)"
   id="g25">
        <g
   aria-label="04:20"
   id="text23"
   style="fill:#ffffff"><path
     d="m 4.7839081,0.103998 c 2.374621,0 4.315917,-2.807946 4.315917,-6.0318841 0,-2.94661 -1.646635,-5.5118939 -3.951924,-5.5118939 -2.4266201,0 -4.33325009,2.8772779 -4.33325009,6.0492169 0,2.9119441 1.64663499,5.4945611 3.96925709,5.4945611 z m 0,-1.663968 c -1.3693071,0 -2.3226221,-1.854631 -2.3226221,-3.8652591 0,-2.374621 1.230643,-4.350583 2.6866151,-4.350583 1.334641,0 2.322622,1.837298 2.322622,3.882592 0,2.3572881 -1.247976,4.3332501 -2.686615,4.3332501 z"
     id="path37" /><path
     d="m 15.669041,0.121331 c 0.450658,0 0.849317,-0.398659 0.849317,-0.83198401 V -2.478619 h 0.103998 c 0.450658,0 0.86665,-0.363993 0.86665,-0.831984 0,-0.450658 -0.329327,-0.831984 -0.797318,-0.831984 h -0.17333 v -6.482542 c 0,-0.467991 -0.363993,-0.831984 -0.849317,-0.831984 -0.294661,0 -0.537323,0.138664 -0.69332,0.398659 l -4.385249,7.210528 c -0.08666,0.155997 -0.138664,0.259995 -0.138664,0.467991 0,0.485324 0.329327,0.814651 0.831984,0.814651 l 3.553265,0.051999 v 1.80263199 c 0,0.43332501 0.363993,0.83198401 0.831984,0.83198401 z m -0.831984,-4.298584 -2.07996,-0.051999 2.07996,-3.4146011 z"
     id="path39" /><path
     d="m 19.915623,-5.5292271 c 0.537323,0 1.022647,-0.502657 1.022647,-1.143978 0,-0.537323 -0.398659,-0.953315 -0.901316,-0.953315 -0.537323,0 -1.022647,0.537323 -1.022647,1.109312 0,0.537323 0.363993,0.987981 0.901316,0.987981 z M 19.447632,0.103998 c 0.537323,0 1.022647,-0.502657 1.022647,-1.126645 0,-0.537323 -0.381326,-0.970648 -0.883983,-0.970648 -0.537323,0 -1.022647,0.537323 -1.022647,1.10931199 0,0.55465601 0.34666,0.98798101 0.883983,0.98798101 z"
     id="path41" /><path
     d="m 22.498253,0 h 6.23988 c 0.433325,0 0.831984,-0.363993 0.831984,-0.81465101 0,-0.46799099 -0.398659,-0.83198399 -0.831984,-0.83198399 H 24.21422 c 0.242662,-1.507971 1.334641,-2.270623 2.409287,-2.963943 1.334641,-0.8493171 2.807946,-1.8372981 2.807946,-3.7785941 0,-1.6813009 -1.38664,-3.0506079 -3.362602,-3.0506079 -1.421306,0 -2.478619,0.762652 -3.085274,1.351974 -0.433325,0.4159919 -0.554656,0.6239879 -0.554656,0.9013159 0,0.415992 0.329327,0.849317 0.831984,0.849317 0.398659,0 0.554656,-0.190663 0.727986,-0.381326 0.121331,-0.138664 0.953315,-1.057313 2.07996,-1.057313 0.953315,0 1.698634,0.571989 1.698634,1.38664 0,1.057313 -0.918649,1.629302 -2.183958,2.461286 -1.473305,0.935982 -3.085274,2.1146261 -3.085274,5.11323509 z"
     id="path43" /><path
     d="m 35.04733,0.103998 c 2.374621,0 4.315917,-2.807946 4.315917,-6.0318841 0,-2.94661 -1.646635,-5.5118939 -3.951924,-5.5118939 -2.42662,0 -4.33325,2.8772779 -4.33325,6.0492169 0,2.9119441 1.646635,5.4945611 3.969257,5.4945611 z m 0,-1.663968 c -1.369307,0 -2.322622,-1.854631 -2.322622,-3.8652591 0,-2.374621 1.230643,-4.350583 2.686615,-4.350583 1.334641,0 2.322622,1.837298 2.322622,3.882592 0,2.3572881 -1.247976,4.3332501 -2.686615,4.3332501 z"
     id="path45" /></g>
    </g>
    <g
   transform="matrix(0.931817,0,0,0.931817,45.0395,48.7395)"
   id="g29">
        <g
   aria-label="17.07."
   id="text27"
   style="fill:#ffffff"><path
     d="M 1.284,0 H 3.66 c 0.3,0 0.576,-0.252 0.576,-0.576 0,-0.312 -0.216,-0.576 -0.6,-0.576 H 3.144 l 0.084,-6.192 c 0,-0.288 -0.216,-0.576 -0.588,-0.576 -0.12,0 -0.312,0.072 -0.408,0.18 l -1.404,1.524 c -0.096,0.108 -0.156,0.24 -0.156,0.384 0,0.312 0.252,0.576 0.576,0.576 0.156,0 0.3,-0.048 0.42,-0.168 L 2.064,-5.844 1.98,-1.152 H 1.284 c -0.336,0 -0.576,0.264 -0.576,0.576 0,0.324 0.24,0.576 0.576,0.576 z"
     id="path48" /><path
     d="m 6.0479958,0.06 c 0.168,0 0.396,-0.072 0.516,-0.312 l 3.288,-6.576 c 0.06,-0.12 0.144,-0.3 0.144,-0.42 0,-0.324 -0.252,-0.588 -0.576,-0.588 h -3.924 c -0.324,0 -0.576,0.276 -0.576,0.576 0,0.324 0.252,0.576 0.576,0.576 h 3 l -2.952,5.916 c -0.06,0.12 -0.072,0.204 -0.072,0.252 0,0.3 0.252,0.576 0.576,0.576 z"
     id="path50" /><path
     d="m 11.100005,0.072 c 0.36,0 0.708,-0.348 0.708,-0.78 0,-0.372 -0.276,-0.672 -0.624,-0.672 -0.372,0 -0.708,0.372 -0.708,0.768 0,0.384 0.252,0.684 0.624,0.684 z"
     id="path52" /><path
     d="m 15.600002,0.072 c 1.644,0 2.988,-1.944 2.988,-4.176 0,-2.04 -1.14,-3.816 -2.736,-3.816 -1.68,0 -3,1.992 -3,4.188 0,2.016 1.14,3.804 2.748,3.804 z m 0,-1.152 c -0.948,0 -1.608,-1.284 -1.608,-2.676 0,-1.644 0.852,-3.012 1.86,-3.012 0.924,0 1.608,1.272 1.608,2.688 0,1.632 -0.864,3 -1.86,3 z"
     id="path54" /><path
     d="m 20.484008,0.06 c 0.168,0 0.396,-0.072 0.516,-0.312 l 3.288,-6.576 c 0.06,-0.12 0.144,-0.3 0.144,-0.42 0,-0.324 -0.252,-0.588 -0.576,-0.588 h -3.924 c -0.324,0 -0.576,0.276 -0.576,0.576 0,0.324 0.252,0.576 0.576,0.576 h 3 l -2.952,5.916 c -0.06,0.12 -0.072,0.204 -0.072,0.252 0,0.3 0.252,0.576 0.576,0.576 z"
     id="path56" /><path
     d="m 25.536017,0.072 c 0.36,0 0.708,-0.348 0.708,-0.78 0,-0.372 -0.276,-0.672 -0.624,-0.672 -0.372,0 -0.708,0.372 -0.708,0.768 0,0.384 0.252,0.684 0.624,0.684 z"
     id="path58" /></g>
    </g>
</svg>
