<?xml version="1.0" encoding="UTF-8" standalone="no"?>
<svg
   width="128"
   height="128"
   version="1.1"
   id="svg6"
   xmlns="http://www.w3.org/2000/svg"
   xmlns:svg="http://www.w3.org/2000/svg">
  <defs
     id="defs10" />
  <g
     aria-label="I"
     id="text4"
     style="line-height:1.25;fill:#40c0e7">
    <path
       d="m 44.719945,118.96 h 38.24 c 4.48,0 7.84,-3.52 7.84,-8 0,-4.48 -3.04,-8 -7.84,-8 h -11.04 V 27.759999 h 11.04 c 4.48,0 7.84,-3.68 7.84,-8.16 0,-4.48 -3.36,-7.84 -7.84,-7.84 h -38.24 c -4.48,0 -8,3.36 -8,7.84 0,4.48 3.52,8.16 8,8.16 h 11.2 V 102.96 h -11.2 c -4.48,0 -8,3.52 -8,8 0,4.48 3.52,8 8,8 z"
       style="text-align:center;text-anchor:middle"
       id="path12" />
  </g>
</svg>
