<?xml version="1.0" encoding="UTF-8" standalone="no"?>
<svg
   height="128"
   width="128"
   version="1.1"
   id="svg48"
   xmlns:xlink="http://www.w3.org/1999/xlink"
   xmlns="http://www.w3.org/2000/svg"
   xmlns:svg="http://www.w3.org/2000/svg">
  <defs
     id="defs16">
    <linearGradient
       id="b">
      <stop
         offset="0"
         id="stop2" />
      <stop
         offset="1"
         stop-opacity="0"
         id="stop4" />
    </linearGradient>
    <linearGradient
       id="a">
      <stop
         offset="0"
         id="stop7" />
      <stop
         offset="1"
         stop-opacity="0"
         id="stop9" />
    </linearGradient>
    <linearGradient
       xlink:href="#b"
       id="c"
       x1="75.648"
       y1="24.908"
       x2="75.648"
       y2="79.176"
       gradientUnits="userSpaceOnUse"
       gradientTransform="matrix(1.12036 0 0 1.12036 -21.72 -8.445)" />
    <filter
       id="d"
       x="-0.011883514"
       width="1.023767"
       y="-0.012109721"
       height="1.0242194"
       color-interpolation-filters="sRGB">
      <feGaussianBlur
         stdDeviation=".628"
         id="feGaussianBlur13" />
    </filter>
  </defs>
  <g
     transform="rotate(15,87.408,67.082)"
     id="g46">
    <path
       id="rect18"
       style="fill:#b90000;stroke-width:16.805;stroke-linecap:round;paint-order:stroke fill markers"
       d="m 40.364999,19.677 h 47.271002 c 4.163864,0 7.515999,3.352136 7.515999,7.516 v 85.942 c 0,4.16386 -3.352135,7.516 -7.515999,7.516 H 40.364999 c -4.163864,0 -7.516,-3.35214 -7.516,-7.516 V 27.193 c 0,-4.163864 3.352136,-7.516 7.516,-7.516 z" />
    <path
       id="rect20"
       style="opacity:0.114;fill:url(#c);stroke-width:9.302;stroke-linecap:round;paint-order:stroke fill markers"
       d="m 40.364999,19.677 h 47.271002 c 4.163864,0 7.515999,3.352136 7.515999,7.516 v 15.905001 c 0,4.163863 -3.352135,7.515999 -7.515999,7.515999 H 40.364999 c -4.163864,0 -7.516,-3.352136 -7.516,-7.515999 V 27.193 c 0,-4.163864 3.352136,-7.516 7.516,-7.516 z" />
    <path
       id="rect22"
       style="fill:#d00000;stroke-width:2.241;stroke-linecap:round;paint-order:markers fill stroke"
       d="m 40.364999,19.677 h 47.271002 c 4.163864,0 7.515999,3.352136 7.515999,7.516 v 12.682001 c 0,4.163864 -3.352135,7.516 -7.515999,7.516 H 40.364999 c -4.163864,0 -7.516,-3.352136 -7.516,-7.516 V 27.193 c 0,-4.163864 3.352136,-7.516 7.516,-7.516 z" />
    <g
       filter="url(#d)"
       transform="matrix(0.21972,0,0,0.21972,68.111,70.535)"
       id="g32">
      <path
         d="m -27.655,-38.466 c -2.073,0 -4.097,1.164 -6.47,2.726 -2.371,1.561 -4.956,3.627 -7.412,5.765 a 113.624,113.624 0 0 0 -6.577,6.195 55.414,55.414 0 0 0 -2.278,2.46 c -0.603,0.702 -1.02,1.199 -1.325,1.79 -0.99,1.903 -3.029,6.826 -3.951,9.55 -2.984,-1.988 -5.911,-3.72 -8.482,-4.39 -1.534,-0.398 -3.016,-0.575 -4.423,-0.547 -6.097,0.12 -10.818,3.98 -12.54,9.335 -1.14,3.52 -2.741,16.173 4.199,26.183 0.29,0.418 0.501,0.666 0.762,1.019 l -0.116,0.348 a 1.5,1.5 0 0 0 0,0.008 c -5.268,16.452 -5.533,32.523 -5.533,38.35 0,3.855 2,7.427 5.317,10.504 3.317,3.077 7.982,5.75 13.676,7.984 11.387,4.469 26.935,7.182 44.099,7.182 17.169,0 32.712,-2.713 44.099,-7.182 5.693,-2.234 10.35,-4.907 13.667,-7.984 3.316,-3.077 5.317,-6.65 5.317,-10.503 0,-5.751 -0.261,-21.478 -5.326,-37.697 a 1.5,1.5 0 0 0 -0.19,-0.38 l -0.166,-0.613 c 0.26,-0.358 0.484,-0.618 0.787,-1.052 6.96,-10 5.348,-22.647 4.208,-26.167 -2.12,-6.58 -8.794,-10.908 -16.964,-8.788 -2.526,0.655 -5.379,2.251 -8.308,4.191 -0.995,-2.76 -2.916,-7.17 -4.15,-9.393 -0.307,-0.555 -0.72,-1.052 -1.325,-1.747 a 59.59,59.59 0 0 0 -2.278,-2.444 117.547,117.547 0 0 0 -6.568,-6.196 c -2.451,-2.14 -5.039,-4.208 -7.405,-5.773 -2.367,-1.565 -4.386,-2.733 -6.46,-2.733 -2.584,0 -4.27,1.088 -5.451,1.921 -1.181,0.834 -1.834,1.375 -3.487,1.375 -1.654,0 -2.314,-0.541 -3.496,-1.375 -1.181,-0.833 -2.867,-1.921 -5.45,-1.921 z m 0,2.999 c 1.837,0 2.572,0.56 3.727,1.375 1.156,0.816 2.762,1.93 5.219,1.93 2.456,0 4.062,-1.114 5.218,-1.93 1.156,-0.816 1.882,-1.375 3.72,-1.375 0.625,0 2.624,0.79 4.812,2.236 2.187,1.447 4.688,3.452 7.073,5.533 a 115.23,115.23 0 0 1 6.403,6.03 57.103,57.103 0 0 1 2.162,2.32 c 0.55,0.633 0.935,1.172 0.97,1.234 0.963,1.736 2.644,5.679 3.635,8.283 C 10.124,-6.174 4.95,-1.931 1.12,0.225 -0.076,0.58 -19.126,6.01 -40.022,-0.67 c -3.59,-2.28 -8.064,-5.864 -12.507,-9.029 0.95,-2.629 2.779,-7.11 3.479,-8.457 0.019,-0.036 0.392,-0.576 0.936,-1.209 a 52.058,52.058 0 0 1 2.145,-2.327 110.878,110.878 0 0 1 6.395,-6.022 c 2.389,-2.079 4.905,-4.073 7.098,-5.517 2.193,-1.443 4.194,-2.236 4.821,-2.236 z m -40.554,26.804 c 1.003,0.006 2.087,0.1 3.255,0.298 2.006,0.341 3.844,0.885 5.633,1.532 -7.837,7.594 -12.89,17.158 -16.202,26.722 -5.235,-7.58 -4.747,-18.099 -3.553,-21.9 0.77,-2.46 3.847,-6.697 10.867,-6.652 z m 98.825,0.166 c 7.051,-0.078 10.247,4.026 11.017,6.485 C 42.825,1.784 43.1,12.105 38.079,19.831 34.777,10.313 29.753,0.8 21.97,-6.766 c 1.704,-0.592 3.463,-1.097 5.392,-1.425 a 20.752,20.752 0 0 1 3.255,-0.306 z m -88.049,4.075 c 5.433,2.358 10.84,5.847 19.018,9.02 11.832,4.591 19.582,3.899 19.739,3.885 0.218,0.015 8.05,0.52 19.83,-4.05 8.24,-3.198 13.508,-6.56 18.893,-8.822 7.492,7.37 12.423,16.731 15.58,26.183 l 0.481,1.764 a 1.5,1.5 0 0 0 0.182,0.406 c 4.777,15.565 5.086,30.761 5.086,36.362 0,2.822 -1.44,5.602 -4.357,8.308 -2.916,2.707 -7.28,5.25 -12.731,7.389 -10.903,4.279 -26.146,6.974 -42.997,6.974 -16.846,0 -32.101,-2.695 -43.006,-6.974 -5.452,-2.14 -9.805,-4.682 -12.723,-7.389 -2.917,-2.706 -4.365,-5.487 -4.365,-8.308 0,-5.73 0.291,-21.496 5.392,-37.43 v -0.01 l 0.307,-0.943 0.008,-0.009 c 3.162,-9.514 8.113,-18.946 15.664,-26.357 z"
         style="line-height:normal;font-variant-ligatures:normal;font-variant-position:normal;font-variant-caps:normal;font-variant-numeric:normal;font-variant-alternates:normal;font-feature-settings:normal;text-indent:0;text-align:start;text-decoration-line:none;text-decoration-style:solid;text-decoration-color:#000000;text-transform:none;text-orientation:mixed;shape-padding:0;isolation:auto;mix-blend-mode:normal"
         color="#000000"
         
         
         white-space="normal"
         overflow="visible"
         fill="#ffd22a"
         stroke-width="0"
         stroke-linecap="round"
         stroke-linejoin="round"
         paint-order="stroke fill markers"
         enable-background="accumulate"
         id="path24" />
      <path
         d="m 6.757,48.176 c -1.06,-2.07 -3.7,-3.88 -7.25,-3.79 -3.73,0.1 -9.11,1.55 -12.68,2.06 -1.82,0.25 -3.7,0.37 -5.5,0.42 -1.81,-0.05 -3.69,-0.16 -5.52,-0.42 -3.57,-0.51 -8.95,-1.96 -12.68,-2.06 -3.55,-0.09 -6.19,1.72 -7.25,3.79 -2.68,5.14 2.96,12.12 7.73,15.32 5.03,3.38 9.63,5.06 14.79,5.74 1.22,0.16 4.58,0.2 5.94,-0.02 5.52,-0.9 9.5,-2.33 14.54,-5.72 4.76,-3.2 10.56,-10.18 7.88,-15.32 z"
         fill="none"
         stroke="#ffd125"
         stroke-width="3"
         stroke-linecap="round"
         stroke-linejoin="round"
         id="path26" />
      <g
         fill="#7f6300"
         stroke-width="0"
         paint-order="stroke fill markers"
         id="g30">
        <path
           d="m -40.503,32.416 c -4.49,0.04 -8.17,-4.27 -8.22,-9.62 -0.05,-5.37 3.55,-9.75 8.04,-9.79 4.48,-0.04 8.17,4.27 8.22,9.64 0.05,5.36 -3.55,9.73 -8.04,9.77 z m 44.11,0 c 4.48,-0.01 8.11,-4.36 8.1,-9.71 -0.01,-5.37 -3.66,-9.7 -8.14,-9.69 -4.49,0.01 -8.13,4.36 -8.12,9.73 0.01,5.36 3.67,9.69 8.16,9.67 z"
           paint-order="stroke fill markers"
           id="path28" />
      </g>
    </g>
    <path
       style="line-height:normal;font-variant-ligatures:normal;font-variant-position:normal;font-variant-caps:normal;font-variant-numeric:normal;font-variant-alternates:normal;font-feature-settings:normal;text-indent:0;text-align:start;text-decoration-line:none;text-decoration-style:solid;text-decoration-color:#000000;text-transform:none;text-orientation:mixed;shape-padding:0;isolation:auto;mix-blend-mode:normal"
       d="m 62.035,62.083 c -0.455,0 -0.9,0.256 -1.421,0.599 -0.522,0.343 -1.09,0.797 -1.63,1.266 -0.539,0.47 -1.048,0.955 -1.444,1.362 -0.198,0.203 -0.368,0.386 -0.5,0.54 a 2.093,2.093 0 0 0 -0.292,0.393 c -0.217,0.419 -0.665,1.5 -0.868,2.099 -0.656,-0.437 -1.299,-0.818 -1.864,-0.965 a 3.592,3.592 0 0 0 -0.972,-0.12 c -1.34,0.027 -2.376,0.875 -2.755,2.051 -0.25,0.774 -0.602,3.554 0.923,5.753 0.064,0.092 0.11,0.147 0.167,0.224 l -0.025,0.076 a 0.33,0.33 0 0 0 0,0.002 c -1.158,3.615 -1.216,7.146 -1.216,8.427 0,0.846 0.44,1.631 1.168,2.307 0.73,0.676 1.754,1.264 3.005,1.755 2.502,0.982 5.918,1.578 9.69,1.578 3.772,0 7.187,-0.596 9.689,-1.578 1.251,-0.491 2.274,-1.079 3.003,-1.755 0.729,-0.676 1.168,-1.46 1.168,-2.307 0,-1.264 -0.057,-4.72 -1.17,-8.283 a 0.33,0.33 0 0 0 -0.042,-0.084 l -0.036,-0.134 c 0.057,-0.079 0.106,-0.136 0.173,-0.232 1.529,-2.197 1.175,-4.975 0.924,-5.749 -0.465,-1.446 -1.932,-2.397 -3.727,-1.93 -0.555,0.143 -1.182,0.494 -1.825,0.92 -0.22,-0.606 -0.641,-1.575 -0.912,-2.064 a 2.3,2.3 0 0 0 -0.291,-0.384 13.093,13.093 0 0 0 -0.5,-0.537 25.828,25.828 0 0 0 -1.444,-1.36 16.101,16.101 0 0 0 -1.627,-1.27 c -0.52,-0.343 -0.964,-0.6 -1.42,-0.6 -0.567,0 -0.938,0.24 -1.197,0.422 -0.26,0.183 -0.403,0.302 -0.766,0.302 -0.364,0 -0.509,-0.119 -0.768,-0.302 -0.26,-0.183 -0.63,-0.422 -1.198,-0.422 z m 0,0.659 c 0.404,0 0.565,0.123 0.819,0.302 0.254,0.18 0.607,0.424 1.147,0.424 0.54,0 0.892,-0.245 1.146,-0.424 0.254,-0.18 0.414,-0.302 0.817,-0.302 0.138,0 0.577,0.173 1.058,0.491 0.48,0.318 1.03,0.759 1.554,1.216 0.524,0.457 1.024,0.933 1.407,1.325 0.191,0.196 0.354,0.37 0.475,0.51 0.12,0.138 0.205,0.257 0.213,0.27 0.211,0.382 0.58,1.248 0.799,1.82 -1.134,0.804 -2.271,1.736 -3.112,2.21 -0.263,0.078 -4.449,1.271 -9.04,-0.197 -0.789,-0.5 -1.772,-1.288 -2.748,-1.983 0.209,-0.578 0.61,-1.563 0.764,-1.858 0.004,-0.009 0.086,-0.127 0.206,-0.266 0.12,-0.14 0.28,-0.316 0.471,-0.512 0.382,-0.391 0.88,-0.866 1.405,-1.323 a 15.51,15.51 0 0 1 1.56,-1.212 c 0.482,-0.317 0.921,-0.491 1.059,-0.491 z m -8.91,5.89 c 0.22,0 0.458,0.021 0.715,0.065 0.44,0.075 0.844,0.194 1.237,0.336 -1.722,1.669 -2.832,3.77 -3.56,5.872 -1.15,-1.666 -1.043,-3.977 -0.78,-4.812 0.169,-0.54 0.845,-1.472 2.388,-1.462 z m 21.713,0.036 c 1.55,-0.017 2.252,0.884 2.421,1.425 0.262,0.834 0.322,3.101 -0.78,4.799 -0.726,-2.091 -1.83,-4.181 -3.54,-5.844 0.374,-0.13 0.76,-0.24 1.184,-0.313 a 4.56,4.56 0 0 1 0.715,-0.067 z m -19.346,0.895 c 1.194,0.518 2.382,1.285 4.179,1.982 2.6,1.009 4.302,0.857 4.337,0.853 0.048,0.004 1.769,0.115 4.357,-0.89 1.81,-0.702 2.968,-1.44 4.151,-1.938 1.646,1.62 2.73,3.676 3.423,5.753 l 0.106,0.388 a 0.33,0.33 0 0 0 0.04,0.089 c 1.05,3.42 1.118,6.759 1.118,7.99 0,0.62 -0.317,1.23 -0.958,1.825 -0.64,0.595 -1.6,1.153 -2.797,1.623 -2.396,0.94 -5.745,1.533 -9.447,1.533 -3.702,0 -7.054,-0.592 -9.45,-1.533 -1.198,-0.47 -2.154,-1.028 -2.795,-1.623 -0.641,-0.595 -0.96,-1.206 -0.96,-1.825 0,-1.26 0.065,-4.724 1.186,-8.225 v -0.002 l 0.067,-0.207 0.002,-0.002 c 0.695,-2.09 1.782,-4.163 3.441,-5.791 z"
       color="#000000"
       
       
       white-space="normal"
       overflow="visible"
       fill="#ffd22a"
       stroke-width="0"
       stroke-linecap="round"
       stroke-linejoin="round"
       paint-order="stroke fill markers"
       enable-background="accumulate"
       id="path34" />
    <path
       d="m 69.596,81.12 c -0.233,-0.455 -0.813,-0.853 -1.593,-0.833 -0.82,0.022 -2.002,0.34 -2.786,0.453 -0.4,0.055 -0.813,0.081 -1.208,0.092 -0.398,-0.01 -0.811,-0.035 -1.213,-0.092 -0.785,-0.112 -1.967,-0.43 -2.786,-0.453 -0.78,-0.02 -1.36,0.378 -1.593,0.833 -0.59,1.13 0.65,2.663 1.698,3.366 1.105,0.743 2.116,1.112 3.25,1.261 0.268,0.035 1.006,0.044 1.305,-0.004 1.213,-0.198 2.087,-0.512 3.195,-1.257 1.046,-0.703 2.32,-2.237 1.731,-3.366 z"
       fill="none"
       stroke="#ffd125"
       stroke-width="0.65916"
       stroke-linecap="round"
       stroke-linejoin="round"
       id="path36" />
    <g
       fill="#7f6300"
       stroke-width="0"
       paint-order="stroke fill markers"
       id="g40">
      <path
         d="m 59.212,77.657 c -0.986,0.009 -1.795,-0.938 -1.806,-2.114 -0.011,-1.18 0.78,-2.142 1.767,-2.15 0.984,-0.01 1.795,0.938 1.806,2.117 0.01,1.178 -0.78,2.138 -1.767,2.147 z m 9.692,0 c 0.984,-0.002 1.782,-0.958 1.78,-2.133 -0.003,-1.18 -0.805,-2.132 -1.789,-2.13 -0.986,0.003 -1.786,0.959 -1.784,2.138 0.002,1.178 0.806,2.13 1.793,2.125 z"
         paint-order="stroke fill markers"
         id="path38" />
    </g>
    <g
       aria-label="絵文字"
       id="text44"
       style="line-height:1.25;fill:#ffd22a;stroke-width:0.332">
      <path
         d="m 48.069221,35.131232 c 0.305509,0.783697 0.637584,1.819771 0.770414,2.483921 l 1.182187,-0.425056 c -0.159396,-0.66415 -0.504754,-1.647092 -0.836829,-2.417506 z m -2.895694,-0.252377 c -0.119547,1.129055 -0.332075,2.324525 -0.703999,3.108222 0.332075,0.119547 0.92981,0.39849 1.208753,0.584452 0.371924,-0.850112 0.677433,-2.191695 0.810263,-3.45358 z m -0.584452,-1.952601 0.13283,1.394715 1.939318,-0.13283 v 5.366332 h 1.394715 v -5.459313 l 0.66415,-0.03985 c 0.06642,0.239094 0.119547,0.464905 0.159396,0.66415 l 1.102489,-0.491471 v 0.730565 h 1.673658 c -0.239094,0.916527 -0.597735,1.99245 -0.943093,2.78943 l -1.341583,0.0797 0.252377,1.447847 5.857803,-0.544603 c 0.159396,0.332075 0.292226,0.637584 0.39849,0.903244 l 1.341583,-0.717282 c -0.39849,-0.96966 -1.261885,-2.377658 -2.098714,-3.440298 l -1.248602,0.624301 c 0.305509,0.39849 0.611018,0.863395 0.889961,1.341583 l -2.404223,0.185962 c 0.345358,-0.783697 0.730565,-1.753356 1.06264,-2.669883 h 3.493429 v -1.394715 h -6.933726 v 0.53132 c -0.172679,-0.757131 -0.650867,-1.85962 -1.142338,-2.696449 l -1.049357,0.425056 c 0.159396,0.292226 0.318792,0.624301 0.464905,0.969659 l -1.288451,0.05313 c 0.850112,-1.089206 1.766639,-2.430789 2.510487,-3.599693 l -1.301734,-0.584452 c -0.318792,0.650867 -0.730565,1.407998 -1.19547,2.151846 -0.13283,-0.172679 -0.278943,-0.345358 -0.438339,-0.53132 0.464905,-0.730565 1.009508,-1.766639 1.487696,-2.683166 L 46.64794,27.081734 c -0.225811,0.703999 -0.597735,1.59396 -0.969659,2.337808 l -0.305509,-0.278943 -0.770414,1.089206 c 0.557886,0.53132 1.182187,1.235319 1.580677,1.806488 l -0.624301,0.863395 z M 55.68038,31.451841 c 0.252377,0.225811 0.504754,0.438339 0.757131,0.611018 0.252377,-0.478188 0.624301,-1.049357 0.943093,-1.434564 -1.275168,-0.730565 -2.616751,-2.165129 -3.546561,-3.466863 H 52.35963 c -0.650867,1.182187 -2.019016,2.78943 -3.360599,3.692674 0.292226,0.332075 0.677433,0.943093 0.863395,1.341583 0.332075,-0.239094 0.66415,-0.504754 0.982942,-0.79698 v 1.142338 h 4.835012 z m -2.52377,-2.776147 c 0.544603,0.757131 1.354866,1.700224 2.191695,2.483921 h -4.237277 c 0.836829,-0.79698 1.554111,-1.713507 2.045582,-2.483921 z"
         
         id="path55" />
      <path
         d="m 63.357954,27.068451 v 2.111997 h -5.233502 v 1.554111 h 1.912752 c 0.730565,1.952601 1.633809,3.612976 2.842562,4.981125 -1.354866,1.036074 -3.015241,1.793205 -4.994408,2.324525 0.318792,0.385207 0.823546,1.142338 1.009508,1.554111 2.032299,-0.637584 3.759089,-1.500979 5.206936,-2.669883 1.407998,1.19547 3.134788,2.072148 5.286634,2.630034 0.239094,-0.451622 0.757131,-1.208753 1.142338,-1.59396 -2.032299,-0.451622 -3.71924,-1.235319 -5.087389,-2.284676 1.235319,-1.341583 2.204978,-2.962109 2.92226,-4.941276 h 1.926035 v -1.554111 h -5.299917 v -2.111997 z m 0.823546,7.465046 c -1.022791,-1.075923 -1.806488,-2.364374 -2.364374,-3.798938 h 4.662333 c -0.557886,1.500979 -1.3283,2.762864 -2.297959,3.798938 z"
         
         id="path57" />
      <path
         d="m 76.601105,33.364593 v 0.836829 h -4.927993 v 1.514262 h 4.927993 v 1.965884 c 0,0.185962 -0.0797,0.239094 -0.345358,0.239094 -0.26566,0.01328 -1.261885,0 -2.072148,-0.02657 0.26566,0.438339 0.584452,1.155621 0.677433,1.633809 1.115772,0 1.965884,-0.03985 2.590185,-0.26566 0.650867,-0.252377 0.850112,-0.677433 0.850112,-1.540828 V 35.71568 h 4.994408 v -1.514262 h -4.994408 v -0.09298 c 1.102489,-0.677433 2.12528,-1.620526 2.895694,-2.483921 l -1.036074,-0.783697 -0.358641,0.0797 h -5.871086 v 1.434564 h 4.476371 c -0.385207,0.371924 -0.810263,0.730565 -1.222036,1.009508 z m -4.888144,-5.020974 v 3.45358 h 1.567394 v -1.939318 h 8.262026 v 1.939318 h 1.647092 v -3.45358 h -4.901427 v -1.275168 h -1.700224 v 1.275168 z"
         
         id="path59" />
    </g>
  </g>
</svg>
