<?xml version="1.0" encoding="UTF-8"?>
<svg clip-rule="evenodd" fill-rule="evenodd" stroke-linejoin="round" stroke-miterlimit="2" version="1.1" viewBox="0 0 128 128" xml:space="preserve" xmlns="http://www.w3.org/2000/svg"><g transform="matrix(.256 0 0 .256 -4.2665 -4.2666)"><path d="m516.67 83.343c0-36.794-29.881-66.676-66.667-66.676h-366.67c-36.786 0-66.667 29.882-66.667 66.676v366.65c0 36.794 29.881 66.677 66.667 66.677h366.67c36.786 0 66.667-29.883 66.667-66.677z" fill="#40c0e7"/><path d="m417.67 396.42h-112.71v-30.042h70.167c1.75 0 3.417-0.708 4.625-1.917 1.208-1.208 1.917-2.916 1.917-4.666v-40.25c0-1.75-0.709-3.417-1.917-4.667-1.208-1.208-2.917-1.917-4.625-1.917h-216.88c-1.75 0-3.417 0.709-4.625 1.917s-1.917 2.917-1.917 4.667v40.25c0 1.708 0.709 3.416 1.917 4.666 1.208 1.209 2.917 1.917 4.625 1.917h69.792v30.042h-112.38c-1.709 0-3.417 0.708-4.625 1.916-1.209 1.209-1.917 2.917-1.917 4.625v40.25c0 1.75 0.708 3.417 1.917 4.625 1.208 1.209 2.916 1.917 4.625 1.917h302c1.75 0 3.416-0.708 4.625-1.917 1.208-1.208 1.916-2.916 1.916-4.625v-40.25c0-1.708-0.708-3.416-1.916-4.625-1.209-1.208-2.875-1.916-4.625-1.916zm17.375-284.42h-130.08v-34.208c0-1.709-0.708-3.417-1.916-4.625-1.209-1.209-2.917-1.917-4.667-1.917h-63.792c-1.75 0-3.416 0.708-4.625 1.917-1.208 1.208-1.916 2.916-1.916 4.625v34.208h-130.12c-1.75 0-3.417 0.708-4.625 1.917-1.209 1.208-1.917 2.916-1.917 4.625v106.79c0 1.709 0.708 3.417 1.917 4.625 1.208 1.209 2.916 1.917 4.625 1.917h50.75c1.75 0 3.416-0.708 4.625-1.917 1.208-1.208 1.916-2.916 1.916-4.625v-58.666h222.5v58.625c0 1.708 0.709 3.416 1.917 4.625 1.208 1.208 2.917 1.916 4.625 1.916h50.75c1.75 0 3.417-0.708 4.667-1.916 1.208-1.209 1.916-2.917 1.916-4.625v-106.75c-9e-3 -3.586-2.956-6.533-6.541-6.542z" fill="#fff" fill-rule="nonzero"/><path d="m143.12 308.21c77.542-21.416 110.21-75.041 110.67-75.791 1.625-2.625 1.125-6.042-1.125-8.167l-31.459-29.625c-1.218-1.142-2.826-1.777-4.496-1.777-2.359 0-4.544 1.269-5.712 3.319v0.083c-0.625 1.042-7.958 13.167-23.167 26.708-15.25 13.542-38.333 28.459-70.791 35.542-2.084 0.458-3.792 1.875-4.625 3.833-0.834 1.959-0.667 4.209 0.458 6l22.958 36.959c1.542 2.541 4.5 3.708 7.292 2.916zm199.83-8.333c15.959 3.5 33.959 4.125 55.792 4.125 1.75 0 3.417-0.708 4.625-1.917 1.208-1.208 1.917-2.916 1.917-4.625v-41c-0.01-3.6-2.975-6.558-6.575-6.558-0.156 0-0.312 6e-3 -0.467 0.017s-0.708 0.041-2.083 0.083c-1.375 0.083-3.375 0.125-5.834 0.125-5.583 0-13.416-0.292-21.166-1.5s-15.375-3.417-20.375-6.625c-3.042-1.917-6.042-5.333-8.584-9.583-3.791-6.334-6.541-14.417-8.208-20.75-0.833-3.167-1.417-5.917-1.792-7.875-0.166-1-0.333-1.75-0.416-2.25l-0.084-0.75c-0.458-3.292-3.333-5.709-6.666-5.625l-45.542 1.041c-1.75 0.042-3.417 0.792-4.625 2.084-1.208 1.291-1.875 3-1.792 4.75 0 0.291 0.5 12.5 4.292 27.916 3.833 15.375 10.833 34.125 25.042 47.25 12.625 11.542 26.583 18.209 42.541 21.667z" fill="#fff" fill-rule="nonzero"/></g></svg>
