<?xml version="1.0" encoding="UTF-8" standalone="no"?>
<svg
   width="128"
   height="128"
   id="svg14"
   version="1.1"
   sodipodi:docname="emoji_u1f577.svg"
   inkscape:version="1.4.2 (f4327f4, 2025-05-13)"
   xmlns:inkscape="http://www.inkscape.org/namespaces/inkscape"
   xmlns:sodipodi="http://sodipodi.sourceforge.net/DTD/sodipodi-0.dtd"
   xmlns="http://www.w3.org/2000/svg"
   xmlns:svg="http://www.w3.org/2000/svg">
  <defs
     id="defs12355" />
  <sodipodi:namedview
     id="namedview12353"
     pagecolor="#ffffff"
     bordercolor="#000000"
     borderopacity="0.25"
     inkscape:showpageshadow="2"
     inkscape:pageopacity="0.0"
     inkscape:pagecheckerboard="0"
     inkscape:deskcolor="#d1d1d1"
     showgrid="false"
     inkscape:zoom="2.9996796"
     inkscape:cx="54.172452"
     inkscape:cy="66.173734"
     inkscape:window-width="1366"
     inkscape:window-height="697"
     inkscape:window-x="-8"
     inkscape:window-y="-8"
     inkscape:window-maximized="1"
     inkscape:current-layer="svg14" />
  <style
     id="style2">.st1{fill:#2f2f2f}</style>
  <path
     id="path30-8-8"
     style="fill:none;stroke:#474c4f;stroke-width:7.50001;stroke-linecap:round;stroke-linejoin:round;stroke-miterlimit:10;stroke-dasharray:none;stroke-opacity:1"
     d="m 54.217477,79.573015 c 0,0 -20.850721,16.053439 -9.851668,40.950795 m 0.819762,-52.583099 c 0,0 -21.786348,11.146812 -20.763246,35.071129 M 48.540929,61.302706 c 0,0 -30.976027,4.670576 -39.1667152,-2.532013 0,0 -1.9469761,-6.011736 -2.680249,-13.035633 M 68.495917,80.616262 c 0,0 -13.349864,18.059516 -1.455994,41.526268 M 81.02696,63.972157 c 0,0 24.4338,-9.775994 40.27911,12.357304 M 75.604594,50.281045 c 0,0 20.684186,-13.077697 40.767156,-0.02502 M 68.180746,49.790934 c 0,0 19.782555,-24.281201 17.747122,-34.99462 0,0 -4.186613,-4.734237 -9.862328,-8.9388541 M 74.66056,76.790425 c 0,0 22.345087,-2.300084 36.50311,19.875222"
     sodipodi:nodetypes="cccccccccccccccccc" />
  <path
     d="M 53.975122,47.541283 C 45.116308,52.656329 42.212818,69.186694 54.379333,84.637531 64.313607,97.284022 73.83195,95.361115 79.492439,92.092666 85.152934,88.824318 91.745826,82.40347 85.767375,67.486247 78.42036,49.387371 62.833898,42.42626 53.975122,47.541283 Z"
     style="fill:#474c4f;fill-opacity:1;stroke-width:0.999999"
     id="path4-17-6"
     sodipodi:nodetypes="zczcz" />
  <g
     id="g81"
     transform="matrix(1.1834157,0,-1.2839068e-8,1.1835099,-640.0563,-1861.3272)"
     style="stroke-width:0.844977">
    <path
       d="m 591.06442,1617.598 -3.38954,1.9569 c -7.16973,4.1395 -16.41943,1.6513 -20.55224,-5.5069 l -0.5705,-0.9882 c -4.13945,-7.1697 -1.65129,-16.4194 5.50695,-20.5522 l 3.38954,-1.957 c 7.16973,-4.1394 16.4128,-1.6627 20.55224,5.507 l 0.57051,0.9881 c 4.13944,7.1698 1.65128,16.4195 -5.50696,20.5523 z"
       style="clip-rule:evenodd;fill:#474c4f;fill-opacity:1;fill-rule:evenodd;stroke-width:0.844977"
       id="path3-34-8" />
    <path
       d="m 573.85275,1592.1547 c -4.60261,2.642 -5.34962,-3.4792 -8.40899,-0.1809 -2.24371,2.4291 2.32761,8.8854 2.32761,8.8854 l 8.21046,-4.725 v 0 l 0.12639,-0.073 0.12639,-0.073 v 0 l 8.19719,-4.748 c 0,0 -2.76173,-6.813 -6.56512,-5.9575 -3.80338,0.8554 0.57542,4.207 -4.01393,6.872 z"
       style="fill:#474c4f;fill-opacity:1;stroke-width:0.844977"
       id="path13-5-5"
       sodipodi:nodetypes="ccccccccccc" />
    <ellipse
       cx="-152.58897"
       cy="1695.1228"
       rx="2.5414472"
       ry="3.0894845"
       style="fill:#ffffff;stroke-width:0.845011"
       transform="rotate(-24.883983)"
       id="ellipse60-6" />
    <ellipse
       cx="-441.92468"
       cy="1642.6801"
       rx="2.5413132"
       ry="3.0893214"
       style="fill:#ffffff;stroke-width:0.84497"
       transform="rotate(-35.114062)"
       id="ellipse61-0" />
    <ellipse
       cx="384.22717"
       cy="1884.1858"
       rx="1.7741852"
       ry="2.8079669"
       style="fill:#ffffff;stroke-width:0.925602"
       transform="matrix(0.74108652,-0.67140954,0.15007285,0.98867494,0,0)"
       id="ellipse80" />
    <ellipse
       cx="563.32831"
       cy="1944.6654"
       rx="1.7741852"
       ry="2.8079669"
       style="fill:#ffffff;stroke-width:0.925602"
       transform="matrix(-0.99878554,0.04926906,0.59298123,0.80521628,0,0)"
       id="ellipse81" />
  </g>
</svg>
