<?xml version="1.0" encoding="UTF-8"?>
<svg clip-rule="evenodd" fill-rule="evenodd" stroke-linejoin="round" stroke-miterlimit="2" version="1.1" viewBox="0 0 128 128" xml:space="preserve" xmlns="http://www.w3.org/2000/svg"><g transform="matrix(.256 0 0 .256 -4.2665 -4.2666)"><path d="m516.67 83.343c0-36.794-29.881-66.676-66.667-66.676h-366.67c-36.786 0-66.667 29.882-66.667 66.676v366.65c0 36.794 29.881 66.677 66.667 66.677h366.67c36.786 0 66.667-29.883 66.667-66.677z" fill="#ed6c30"/><path d="m371.71 282.96c1.167 0 2.334-0.5 3.167-1.291 0.833-0.834 1.292-2 1.292-3.167v-40.375c0-1.167-0.459-2.333-1.292-3.167-0.833-0.833-2-1.291-3.167-1.291h-196.5c-1.166 0-2.333 0.5-3.166 1.291-0.834 0.834-1.292 2-1.292 3.167v40.375c0 1.167 0.458 2.333 1.292 3.167 0.833 0.833 2 1.291 3.166 1.291zm42.292 23.542h-281.08c-1.167 0-2.334 0.458-3.167 1.333-0.833 0.834-1.292 2-1.292 3.167v128.54c0 1.166 0.459 2.333 1.292 3.166 0.833 0.834 2 1.292 3.167 1.292h281.08c1.167 0 2.333-0.5 3.167-1.292 0.833-0.875 1.291-2 1.291-3.166v-128.54c0-1.167-0.458-2.375-1.291-3.167-0.792-0.875-1.959-1.333-3.167-1.333zm-53.167 51.875v33.75l-0.708 1.708-1.708 0.709h-169.92l-1.708-0.709-0.709-1.708v-33.75l0.709-1.708 1.708-0.709h169.96l1.709 0.709z" fill="#fff" fill-rule="nonzero"/><path d="m476 207.21s-1.5-0.625-4.375-1.916c-20.167-9-107-50.334-195.21-128.75l-0.25-0.125c-0.25-0.209-0.584-0.334-0.875-0.459-0.276-0.159-0.57-0.285-0.875-0.375-0.125 0-0.209-0.083-0.292-0.083-0.208-0.042-0.417 0.042-0.667 0.042-0.208 0-0.416-0.084-0.666-0.042-0.084 0-0.209 0.083-0.292 0.083-0.306 0.09-0.599 0.216-0.875 0.375-0.292 0.125-0.583 0.25-0.875 0.459l-0.25 0.125c-50.417 44.791-100.38 77.5-137.71 99-18.667 10.75-34.167 18.666-45 23.916-5.375 2.625-9.667 4.584-12.5 5.834-2.875 1.291-4.375 1.916-4.375 1.916-1.209 0.5-2.125 1.5-2.542 2.75s-0.25 2.625 0.458 3.75l29.417 47.584c1.167 1.875 3.5 2.625 5.542 1.75 0.25-0.125 79.958-33.334 169.67-105.04 89.709 71.667 169.46 104.92 169.67 105.04 2.042 0.833 4.375 0.083 5.542-1.75l29.416-47.584c0.667-1.125 0.875-2.5 0.459-3.75-0.375-1.25-1.334-2.208-2.542-2.75z" fill="#fff" fill-rule="nonzero"/></g></svg>
