<?xml version='1.0' encoding='utf-8'?>
<svg xmlns="http://www.w3.org/2000/svg" version="1.1" viewBox="0 0 128 128">
 <g transform="scale(1.1130434782608696)"><g transform="translate(-182.5 -122.5)">
  <g fill="#ff69a5" stroke-miterlimit="10" data-paper-data="{&quot;isPaintingLayer&quot;:true}">
   <path d="m199.67 177.95c-1.7616-3.5995 0.79071-5.8813 3.8699-6.5958 4.4491-1.0995 6.3658-3.2243 7.0034-8.1724 0.65153-5.033-1.1478-6.8092-4.3867-7.7762 0 0-11.232-4.2822-13.157-5.2949-7.1604-3.6141-3.1593-14.196 5.1888-10.387 9.3104 4.3153 14.388 16.909 22.441 10.303 3.2296-2.6934 3.7851-6.6097 2.2375-9.39-4.3589-7.9458-0.47641-15.149 4.8654-15.318 5.1722-0.1968 6.1285 3.5319 6.4592 5.7641 0.63224 4.1111-0.50248 13.682 8.2506 15.554 5.6421 1.187 7.8319-4.7261 12.156-5.0621 2.3086-0.17939 0.96006-3.7254 1.7462-6.7323 0.68627-2.6247 3.3322-4.8316 7.1305-4.1196 8.1497 1.5276 1.3125 16.183 3.3027 15.202 6.8178-3.3243 10.845-9.2845 16.11-6.3299 5.1801 2.9407 5.4763 13.879-3.8322 15.923-19.888 4.4032-12.579 10.829-12.399 15.041 0.45192 11.051-6.9981 10.264-4.2206 18.822 2.8485 8.6563 22.919 9.5101 19.487 21.405-1.2467 4.4126-7.8557 6.4645-12.631 1.5866-5.9654-6.1186-11.175-20.564-16.367-17.06-2.5536 1.7589-1.1605 4.9495-0.80463 5.9662 3.659 10.619-11.443 18.769-18.368 7.3532-3.5623-5.8986-1.8773-8.3252-7.3901-8.707-4.0428-0.31484-5.2267-0.94219-8.9322 3.5897-7.749 9.5311-11.298 14.699-15.676 15.897-10.239 2.9373-15.901-11.93-5.6665-16.436 4.9694-2.1466 5.6149-3.9573 6.1604-6.22 0.54547-2.2626 2.1666-9.4887-1.9054-10.157-1.527-0.25054-2.9513 0.99677-4.6731 1.9339-2.3853 1.2639-5.3796 1.9922-7.6018 0.66933-3.4251-1.9558-2.2924-6.7356-0.0198-7.8438 2.2726-1.1081 11.623-3.4072 11.623-3.4072zm78.814-0.0269c1.4422 0.23662 6.2359 1.2845 8.991 0.95245 11.36-1.2724 6.8305-15.083-3.9871-11.805-1.6523 0.51296-5.1682 1.7656-6.1988 2.2063-4.2211 1.8338-3.1316 7.9365 1.1949 8.6464zm-51.34 52.21c1.401 6.328 11.307 5.9497 11.913-0.39756 0.344-3.6896-4.6988-13.838-4.6988-13.838-1.293-2.7385-5.7865-2.4304-6.2584 0.97686-0.25185 1.0041-1.7855 9.2899-0.9558 13.259z" />
  </g>
 </g>
</g></svg>
