<?xml version='1.0' encoding='utf-8'?>
<svg xmlns="http://www.w3.org/2000/svg" width="128" height="128" version="1.1" id="svg6" viewBox="0 0 128 128">
  <defs id="defs10" />
  <g aria-label="R" id="text4" style="line-height:1.25;fill:#40c0e7">
    <path d="m 37.199985,119.92 c 4.16,0 7.84,-3.36 7.84,-7.84 V 83.119999 c 3.84,-0.64 7.68,-0.96 10.72,-0.96 5.6,0 17.92,1.92 37.76,33.600001 1.6,2.56 4,4.16 7.040005,4.16 4.8,0 7.84,-3.84 7.84,-7.84 0,-1.12 -0.16,-2.4 -0.8,-3.68 C 99.599985,92.399999 88.559985,81.839999 81.039985,75.919999 c 12.64,-5.6 23.680005,-14.88 23.680005,-31.04 0,-21.6 -20.160005,-34.08 -56.000005,-34.08 h -6.56 c -11.04,0 -12.8,1.44 -12.8,9.6 V 112.08 c 0,4.48 3.36,7.84 7.84,7.84 z m 7.84,-51.520001 v -42.24 h 3.2 c 25.6,0 40.64,6.4 40.64,18.72 0,15.36 -24.32,22.24 -43.84,23.52 z" style="text-align:center;text-anchor:middle" id="path12" />
  </g>
</svg>