<?xml version="1.0" encoding="UTF-8" standalone="no"?>
<svg
   width="128"
   height="128"
   version="1.1"
   id="svg8"
   xmlns="http://www.w3.org/2000/svg"
   xmlns:svg="http://www.w3.org/2000/svg">
  <defs
     id="defs12" />
  <path
     d="M121.03.23H7.02C3.24.23.14 3.32.14 7.11v114.01c0 3.79 3.1 6.88 6.88 6.88h114.01c3.78 0 6.88-3.09 6.88-6.88V7.11c0-3.78-3.1-6.88-6.88-6.88z"
     fill="#006ca2"
     id="path2" />
  <g
     aria-label="WC"
     id="text6"
     style="line-height:1.25;fill:#ffffff">
    <path
       d="m 25.562411,90.208004 c 1.717341,0 2.912013,-0.522669 3.584016,-2.538678 l 10.229379,-31.658808 8.736039,31.509474 c 0.448002,1.717341 1.642674,2.688012 3.584016,2.688012 1.568007,0 2.837346,-0.896004 3.360015,-2.389344 L 70.810613,44.213132 c 0.373335,-1.120005 0.373335,-1.792008 0.373335,-2.389344 0,-1.866675 -1.568007,-3.285348 -3.584016,-3.285348 -1.792008,0 -2.98668,0.970671 -3.584016,2.613345 L 52.069196,74.229266 43.183823,41.973122 c -0.522669,-1.792008 -1.792008,-2.613345 -3.434682,-2.613345 -1.717341,0 -2.98668,0.74667 -3.584016,2.538678 L 25.711745,74.154599 15.930368,41.973122 c -0.522669,-1.642674 -1.717341,-2.613345 -3.584016,-2.613345 -2.016009,0 -3.584016,1.418673 -3.584016,3.285348 0,0.597336 0,1.045338 0.373335,2.389344 l 12.992058,42.634857 c 0.522669,1.642674 1.568007,2.538678 3.434682,2.538678 z"
       
       id="path14" />
    <path
       d="m 93.50944,90.208004 c 7.2427,0 13.8134,-3.061347 17.92008,-8.885373 0.52267,-0.74667 0.672,-1.49334 0.672,-2.24001 0,-2.389344 -1.792,-3.73335 -3.73335,-3.73335 -1.12,0 -2.01601,0.298668 -2.91201,1.49334 -2.38934,3.136014 -6.048027,6.197361 -11.94672,6.197361 -7.765368,0 -14.336064,-5.600025 -14.336064,-15.306735 0,-10.826715 7.616034,-21.205428 15.306735,-21.205428 4.032018,0 6.346699,1.269339 7.914699,2.912013 v 0.522669 c 0,1.568007 1.49334,2.98668 3.50935,2.98668 2.09068,0 3.73335,-1.717341 3.73335,-3.73335 v -4.778688 c 0,-1.866675 -1.41867,-3.434682 -3.43468,-3.434682 -1.04534,0 -1.79201,0.448002 -2.24001,0.896004 -2.24001,-1.344006 -5.600025,-2.613345 -8.96004,-2.613345 -11.424051,0 -23.296104,13.514727 -23.296104,28.448127 0,14.18673 9.930711,22.474767 21.802764,22.474767 z"
       
       id="path16" />
  </g>
</svg>
