<?xml version='1.0' encoding='utf-8'?>
<svg xmlns="http://www.w3.org/2000/svg" width="128" height="128" version="1.1" id="svg661" viewBox="0 0 128 128">
  <defs id="defs665" />
  <g transform="matrix(5.71429,0,0,7.05882,-18.857205,-24.23525)" id="g4" style="clip-rule:evenodd;fill:#ed6c30;fill-rule:evenodd;stroke-linejoin:round;stroke-miterlimit:2">
    <path d="M 25,6.267 C 25,5.016 23.745,4 22.2,4 H 6.8 C 5.255,4 4,5.016 4,6.267 V 18.733 C 4,19.984 5.255,21 6.8,21 h 15.4 c 1.545,0 2.8,-1.016 2.8,-2.267 z" style="fill:#ed6c30" id="path2" />
  </g>
  <g transform="translate(-2.273514,1.047149)" id="g12" style="clip-rule:evenodd;fill:#ffb091;fill-rule:evenodd;stroke-linejoin:round;stroke-miterlimit:2">
    <path d="M 30.915,7.958 C 25.554,8.085 15,8 12.066,18.857 c -0.581,2.15 -1.578,5.57 0.285,7.423 1.433,1.425 3.932,0.985 5.373,-0.162 1.534,-1.221 2.286,-3.205 3.245,-4.857 1.114,-1.917 2.599,-3.655 4.34,-5.034 1.627,-1.289 3.482,-2.052 5.444,-2.683 1.362,-0.438 3.297,-0.632 3.969,-1.979 C 36,9 32.576,7.869 30.915,7.958 Z" style="fill:#ffb091" id="path10" />
  </g>
  <g aria-label="VS" id="text659" style="line-height:1.25">
    <path d="m 34.79,97.312 c 1.824,0 3.552,-0.768 4.416,-2.976 L 61.19,38.464 c 0.288,-0.672 0.384,-1.344 0.384,-1.824 0,-2.4 -1.92,-4.608 -4.704,-4.608 -1.92,0 -3.552,1.056 -4.416,2.976 L 35.174,78.784 20.486,35.296 c -0.768,-2.208 -2.496,-3.264 -4.416,-3.264 -2.976,0 -4.896,1.92 -4.896,4.512 0,0.576 0.096,1.344 0.384,2.208 l 18.72,55.392 c 0.672,2.112 2.496,3.168 4.512,3.168 z" style="fill:#ffffff" id="path11" />
    <path d="m 87.97401,97.312 c 12.48,0 23.136,-8.256 23.136,-19.296 0,-9.408 -7.008,-15.456 -19.68,-19.104 -10.368,-2.976 -14.784,-5.76 -14.784,-10.272 0,-4.8 4.416,-7.968 13.152,-7.968 7.104,0 11.424,2.784 11.904,6.24 0.288,2.208 2.112,4.032 4.416,4.032 2.688,0 4.704,-2.112 4.704,-4.992 0,-8.448 -7.776,-14.112 -21.024,-14.112 -13.92,0 -22.464,7.2 -22.464,17.472 0,10.944 9.888,15.648 20.832,18.72 10.56,2.976 13.728,6.528 13.728,10.464 0,5.472 -5.664,9.792 -13.728,9.792 -5.76,0 -12.384,-2.688 -14.496,-8.544 -0.768,-2.112 -2.4,-3.552 -4.8,-3.552 -2.784,0 -4.896,2.208 -4.896,4.8 0,1.056 0.384,2.304 1.056,3.744 3.072,6.528 11.232,12.576 22.944,12.576 z" style="fill:#ffffff" id="path13" />
  </g>
</svg>