<?xml version="1.0" encoding="UTF-8" standalone="no"?>
<svg
   width="128"
   height="128"
   version="1.1"
   id="svg1774"
   xmlns="http://www.w3.org/2000/svg"
   xmlns:svg="http://www.w3.org/2000/svg">
  <defs
     id="defs1778" />
  <g
     transform="matrix(5.71429,0,0,7.05882,-18.857205,-24.23525)"
     id="g4"
     style="clip-rule:evenodd;fill:#db4437;fill-rule:evenodd;stroke-linejoin:round;stroke-miterlimit:2">
    <path
       d="M 25,6.267 C 25,5.016 23.745,4 22.2,4 H 6.8 C 5.255,4 4,5.016 4,6.267 V 18.733 C 4,19.984 5.255,21 6.8,21 h 15.4 c 1.545,0 2.8,-1.016 2.8,-2.267 z"
       style="fill:#db4437"
       id="path2" />
  </g>
  <g
     transform="translate(-2.273514,1.047149)"
     id="g12"
     style="clip-rule:evenodd;fill:#ef9a9a;fill-rule:evenodd;stroke-linejoin:round;stroke-miterlimit:2">
    <path
       d="M 30.915,7.958 C 25.554,8.085 15,8 12.066,18.857 c -0.581,2.15 -1.578,5.57 0.285,7.423 1.433,1.425 3.932,0.985 5.373,-0.162 1.534,-1.221 2.286,-3.205 3.245,-4.857 1.114,-1.917 2.599,-3.655 4.34,-5.034 1.627,-1.289 3.482,-2.052 5.444,-2.683 1.362,-0.438 3.297,-0.632 3.969,-1.979 C 36,9 32.576,7.869 30.915,7.958 Z"
       style="fill:#ef9a9a"
       id="path10" />
  </g>
  <g
     aria-label="CL"
     id="text1772"
     style="line-height:1.25">
    <path
       d="m 39.03,97.312 c 9.312,0 17.76,-3.936 23.04,-11.424 0.672,-0.96 0.864,-1.92 0.864,-2.88 0,-3.072 -2.304,-4.8 -4.8,-4.8 -1.44,0 -2.592,0.384 -3.744,1.92 -3.072,4.032 -7.776,7.968 -15.36,7.968 -9.984,0 -18.432,-7.2 -18.432,-19.68 0,-13.92 9.792,-27.264 19.68,-27.264 5.184,0 8.16,1.632 10.176,3.744 v 0.672 c 0,2.016 1.92,3.84 4.512,3.84 2.688,0 4.8,-2.208 4.8,-4.8 v -6.144 c 0,-2.4 -1.824,-4.416 -4.416,-4.416 -1.344,0 -2.304,0.576 -2.88,1.152 -2.88,-1.728 -7.2,-3.36 -11.52,-3.36 -14.688,0 -29.952,17.376 -29.952,36.576 0,18.24 12.768,28.896 28.032,28.896 z"
       style="fill:#ffffff"
       id="path11" />
    <path
       d="M 76.757984,97.216 108.05398,95.2 c 2.4,-0.192 4.32,-2.496 4.32,-4.8 0,-2.784 -2.016,-4.8 -4.704,-4.608 L 81.557984,87.52 V 36.64 c 0,-2.496 -2.208,-4.704 -4.704,-4.704 -2.688,0 -4.8,2.208 -4.8,4.704 v 55.968 c 0,2.4 2.208,4.8 4.704,4.608 z"
       style="fill:#ffffff"
       id="path13" />
  </g>
</svg>
