<?xml version="1.0" encoding="UTF-8"?>
<svg clip-rule="evenodd" fill-rule="evenodd" stroke-linejoin="round" stroke-miterlimit="2" version="1.1" viewBox="0 0 128 128" xml:space="preserve" xmlns="http://www.w3.org/2000/svg"><g transform="matrix(.256 0 0 .256 -4.2665 -4.2666)"><path d="m516.67 83.343c0-36.794-29.881-66.676-66.667-66.676h-366.67c-36.786 0-66.667 29.882-66.667 66.676v366.65c0 36.794 29.881 66.677 66.667 66.677h366.67c36.786 0 66.667-29.883 66.667-66.677z" fill="#ed6c30"/><path d="m95.417 242.71c1.75 0 3.5-0.708 4.708-2l48.667-50.5v27.334c0 1.708 0.708 3.416 1.916 4.625 1.209 1.208 2.917 1.916 4.625 1.916h35.709c1.708 0 3.416-0.708 4.625-1.916 1.208-1.209 1.916-2.917 1.916-4.625v-30.459l30.75 31.917c1.209 1.292 2.959 2 4.709 2 1.791 0 3.5-0.75 4.708-2l22.5-23.375c2.458-2.542 2.458-6.583 0-9.083l-28.417-29.5h17.792c1.75 0 3.417-0.709 4.625-1.959 1.208-1.208 1.917-2.916 1.917-4.625v-25.833c0-1.75-0.709-3.417-1.917-4.625s-2.917-1.917-4.625-1.917h-52.083v-25.375c0-1.75-0.709-3.416-1.917-4.625-1.208-1.208-2.917-1.916-4.625-1.916h-35.708c-1.709 0-3.417 0.708-4.625 1.916-1.209 1.209-1.917 2.917-1.917 4.625v25.375h-64c-1.708 0-3.417 0.709-4.625 1.917s-1.958 2.917-1.958 4.625v25.833c0 1.709 0.708 3.417 1.958 4.625 1.208 1.209 2.917 1.959 4.625 1.959h32.708l-49.291 51.208c-2.459 2.542-2.459 6.542 0 9.083l22.5 23.375c1.25 1.25 2.958 2 4.75 2zm320.08-85.666h32.708c1.709 0 3.417-0.709 4.625-1.959 1.209-1.208 1.917-2.916 1.917-4.625v-25.833c0-1.75-0.708-3.417-1.917-4.625-1.208-1.208-2.916-1.917-4.625-1.917h-64.041v-25.375c0-1.75-0.709-3.416-1.917-4.625-1.208-1.208-2.917-1.916-4.625-1.916h-35.667c-1.75 0-3.416 0.708-4.625 1.916-1.208 1.209-1.916 2.917-1.916 4.625v25.375h-52.084c-1.75 0-3.416 0.709-4.625 1.917-1.208 1.208-1.916 2.917-1.916 4.625v25.833c0 1.709 0.708 3.417 1.916 4.625 1.209 1.209 2.917 1.959 4.625 1.959h17.792l-28.417 29.5c-2.458 2.541-2.458 6.541 0 9.083l22.5 23.375c1.209 1.292 2.917 2 4.709 2 1.791 0 3.5-0.75 4.708-2l30.75-31.917v30.459c0 1.708 0.708 3.416 1.917 4.625 1.208 1.208 2.916 1.916 4.625 1.916h35.666c1.75 0 3.417-0.708 4.625-1.916 1.209-1.209 1.917-2.917 1.917-4.625v-27.334l48.667 50.5c1.25 1.292 2.958 2 4.708 2s3.5-0.708 4.708-2l22.5-23.375c2.459-2.541 2.459-6.583 0-9.083zm31.667 154.42h-357.17c-1.708 0-3.417 0.709-4.625 1.917s-1.917 2.917-1.917 4.625v32.417c0 1.708 0.709 3.416 1.917 4.625 1.208 1.208 2.917 1.916 4.625 1.916h154.5v44.375h-28.833c-1.834 0-3.584 0.792-4.834 2.125-1.25 1.375-1.833 3.209-1.666 5.042l3.625 37.625c0.333 3.375 3.125 5.958 6.541 5.958h52.709c0.333 0 3.791-0.041 8.416-1.125 4.584-1.125 10.542-3.333 15.25-8.5 4.792-5.416 6.875-11.75 7.959-16.708 1.041-4.958 1.083-8.625 1.083-8.917v-59.833h142.54c1.708 0 3.416-0.708 4.625-1.917 1.208-1.208 1.916-2.916 1.916-4.625v-32.416c0-1.75-0.708-3.417-1.916-4.625-1.334-1.25-3-1.959-4.75-1.959zm-324.75-62.875c-1.209 1.209-1.917 2.917-1.917 4.625v32.417c0 1.75 0.708 3.417 1.917 4.625 1.208 1.208 2.916 1.917 4.625 1.917h283.08c1.75 0 3.417-0.709 4.625-1.917s1.917-2.917 1.917-4.625v-32.417c0-1.75-0.709-3.416-1.917-4.625-1.208-1.208-2.917-1.916-4.625-1.916h-283.08c-1.709 0-3.417 0.666-4.625 1.916z" fill="#fff" fill-rule="nonzero"/><path d="m174.62 367.83c-2.292-2.791-6.375-3.166-9.167-0.875l-51.541 41.959c-1.375 1.083-2.209 2.708-2.375 4.458-0.167 1.75 0.375 3.5 1.5 4.833l23.416 28.125c2.292 2.75 6.375 3.167 9.167 0.875l51.583-41.916c1.375-1.125 2.209-2.709 2.417-4.459 0.167-1.75-0.375-3.458-1.5-4.833zm253.12 35.334-62.708-38.584c-3.084-1.875-7.084-0.958-9 2.084l-19.5 30.958c-0.917 1.5-1.209 3.292-0.834 5 0.417 1.708 1.459 3.167 2.959 4.083l62.75 38.625c3.083 1.917 7.083 0.959 9-2.083l19.5-31c0.916-1.5 1.25-3.292 0.833-5-0.417-1.667-1.5-3.167-3-4.083zm-132.12 39.333v0.042z" fill="#fff" fill-rule="nonzero"/></g></svg>
