<?xml version="1.0" encoding="UTF-8"?>
<svg clip-rule="evenodd" fill-rule="evenodd" stroke-linecap="round" stroke-linejoin="round" version="1.1" viewBox="0 0 128 128" xml:space="preserve" xmlns="http://www.w3.org/2000/svg"><g transform="matrix(.24045 0 0 .24045 -.12023 -.12023)"><path d="m266.67 39.833c-260.04 0-266.17 291.5-266.17 349.17 0 57.75 119.12 104.5 266.17 104.5 147 0 266.17-46.75 266.17-104.5 0-57.667-6.166-349.17-266.17-349.17z" fill="#fcc21b" fill-rule="nonzero"/><g fill="#2f2f2f" fill-rule="nonzero"><path d="m175.88 259.58c-18.708 0.167-34.042-17.791-34.25-40.083-0.208-22.375 14.792-40.625 33.5-40.792 18.667-0.166 34.042 17.792 34.25 40.167 0.208 22.292-14.792 40.5-33.5 40.708z"/><path d="m359.67 259.58c18.666-0.041 33.791-18.166 33.75-40.458-0.042-22.375-15.25-40.417-33.917-40.375-18.708 0.042-33.875 18.167-33.833 40.542 0.083 22.291 15.291 40.333 34 40.291z"/></g><path d="m357.04 353.12h-180.75c-6.917 0-12.5-5.583-12.5-12.5s5.583-12.5 12.5-12.5h180.79c6.917 0 12.5 5.583 12.5 12.5s-5.625 12.5-12.541 12.5z" fill="#2f2f2f" fill-rule="nonzero"/><g fill="none"><path d="m336.54 141.19c27.57-7.617 44.552-3.854 66.112 15.125" stroke="#212121" stroke-width="16.67"/><path d="m141.75 175.9s34.819 10.162 63.815-2.959" stroke="#fcc21b" stroke-width="29.17"/><path d="m141.75 175.9s34.819 10.162 63.815-2.959" stroke="#212121" stroke-width="16.67"/></g></g></svg>
