<?xml version="1.0" encoding="UTF-8"?>
<svg width="128" height="128" version="1.1" viewBox="0 0 128 128" xmlns="http://www.w3.org/2000/svg">
 <rect x="113.63" y="35.254" width="6.78" height="8.678" rx="2.873" fill="#e70000" paint-order="stroke fill markers"/>
 <path d="M27.915 23.522A3.509 3.509 0 0 0 24.4 27.04v3.493h67.815V27.04a3.509 3.509 0 0 0-3.516-3.518z" fill="#00a3c6" style="font-variant-east_asian:normal" paint-order="stroke fill markers"/>
 <path d="M50.116 60.864c.012 2.177.167 5.134.742 8.275 1.152 6.296 3.952 14.364 12.769 17.55 8.704 3.145 16.748 1.462 22.457-.848a152.367 152.367 0 0 0-1.434-7.6c-.134-.618-.306-1.275-.455-1.91-3.695 1.92-10.063 4.238-16.512 1.908-3.205-1.158-5.482-5.504-6.403-10.536-.472-2.574-.596-5.03-.606-6.84z" fill="#9c0000" font-family="sans-serif" font-weight="400" overflow="visible" stroke-linecap="round" stroke-linejoin="round" stroke-width="27.944" style="font-feature-settings:normal;font-variant-alternates:normal;font-variant-caps:normal;font-variant-ligatures:normal;font-variant-numeric:normal;font-variant-position:normal;isolation:auto;mix-blend-mode:normal;shape-padding:0;text-decoration-color:#000;text-decoration-line:none;text-decoration-style:solid;text-indent:0;text-orientation:mixed;text-transform:none" white-space="normal"/>
 <path d="M14.797 32.76c-2.644 0-4.773 1.738-4.773 3.9v16.847c0 2.162 2.129 3.903 4.773 3.903h1.007a3.634 3.634 0 0 1-.344-1.503V34.028c0-.445.105-.866.256-1.269z" fill="#c60000" style="font-variant-east_asian:normal" paint-order="stroke fill markers"/>
 <path d="M112.61 60.843c-.137.01-.274.02-.414.02H79.335c2.109 5.797 4.076 13.43 5.315 20.028 1.698 9.042 2.354 16.013 2.354 16.013a15.83 15.83 0 1 0 31.517-2.95s-.784-8.384-2.76-18.905c-.832-4.43-1.838-9.26-3.151-14.206z" fill="#cb0300" font-family="sans-serif" font-weight="400" overflow="visible" stroke-linecap="round" stroke-linejoin="round" stroke-width="30" style="font-feature-settings:normal;font-variant-alternates:normal;font-variant-caps:normal;font-variant-ligatures:normal;font-variant-numeric:normal;font-variant-position:normal;isolation:auto;mix-blend-mode:normal;shape-padding:0;text-decoration-color:#000;text-decoration-line:none;text-decoration-style:solid;text-indent:0;text-orientation:mixed;text-transform:none" white-space="normal"/>
 <rect x="15.461" y="27.028" width="102.03" height="33.837" rx="5.292" fill="#2eb7d6" style="font-variant-east_asian:normal" paint-order="stroke fill markers"/>
 <g font-family="sans-serif" font-weight="400" letter-spacing="0" opacity=".846" word-spacing="0">
  <g transform="rotate(.315 -1356.4 46.235)" fill="#24a2c0" style="paint-order:stroke fill markers" aria-label="#StopGunViolence">
   <path d="m25.212 44.796c0.19061 0 0.40128-0.11035 0.4715-0.34109l0.45144-1.575h0.91291l-0.35112 1.1938c-0.0301 0.10032-0.04013 0.20064-0.04013 0.24077 0 0.2508 0.19061 0.48154 0.48154 0.48154 0.18058 0 0.39125-0.10032 0.46147-0.34109l0.46147-1.575h1.0634c0.26083 0 0.48154-0.21067 0.48154-0.48154 0-0.2508-0.2207-0.48154-0.48154-0.48154h-0.7825l0.29093-1.0333h0.90288c0.2508 0 0.48154-0.21067 0.48154-0.48154 0-0.2508-0.23074-0.48154-0.48154-0.48154h-0.62198l0.35112-1.1737c0.02006-0.07022 0.0301-0.16051 0.0301-0.20064 0-0.24077-0.19061-0.48154-0.48154-0.48154-0.19061 0-0.40128 0.13042-0.46147 0.34109l-0.44141 1.5148h-0.91291l0.34109-1.1637c0.02006-0.07022 0.04013-0.12038 0.04013-0.2207 0-0.2508-0.19061-0.4715-0.48154-0.4715-0.20064 0-0.41131 0.13042-0.4715 0.34109l-0.43138 1.5148h-1.2139c-0.27086 0-0.48154 0.23074-0.48154 0.48154 0 0.27086 0.21067 0.48154 0.48154 0.48154h0.92294l-0.30096 1.0333h-1.0333c-0.27086 0-0.48154 0.23074-0.48154 0.48154 0 0.27086 0.21067 0.48154 0.48154 0.48154h0.7524l-0.34109 1.2038c-0.0301 0.10032-0.05016 0.17054-0.05016 0.2508 0 0.23074 0.19061 0.46147 0.48154 0.46147zm1.2038-2.8792 0.29093-1.0333h0.92294l-0.30096 1.0333z"/>
   <path d="m33.227 44.796c1.3042 0 2.4177-0.86275 2.4177-2.0164 0-0.98314-0.73234-1.6152-2.0566-1.9964-1.0835-0.31099-1.5449-0.60192-1.5449-1.0734 0-0.5016 0.46147-0.83266 1.3744-0.83266 0.74237 0 1.1938 0.29093 1.244 0.65208 0.0301 0.23074 0.2207 0.42134 0.46147 0.42134 0.2809 0 0.49157-0.2207 0.49157-0.52166 0-0.88282-0.81259-1.4747-2.197-1.4747-1.4546 0-2.3475 0.7524-2.3475 1.8258 0 1.1436 1.0333 1.6352 2.1769 1.9562 1.1035 0.31099 1.4346 0.68218 1.4346 1.0935 0 0.57182-0.59189 1.0233-1.4346 1.0233-0.60192 0-1.2941-0.2809-1.5148-0.89285-0.08026-0.2207-0.2508-0.37118-0.5016-0.37118-0.29093 0-0.51163 0.23074-0.51163 0.5016 0 0.11035 0.04013 0.24077 0.11035 0.39125 0.32102 0.68218 1.1737 1.3142 2.3976 1.3142z"/>
   <path d="m37.571 44.806c0.26083 0 0.48154-0.21067 0.48154-0.4715v-3.5814h0.85272c0.27086 0 0.48154-0.23074 0.48154-0.48154 0-0.2809-0.21067-0.49157-0.48154-0.49157h-0.85272v-1.0734c0-0.2508-0.19061-0.49157-0.48154-0.49157-0.27086 0-0.48154 0.24077-0.48154 0.49157v1.0734h-0.77246c-0.26083 0-0.5016 0.19061-0.5016 0.49157 0 0.2508 0.21067 0.48154 0.48154 0.48154h0.79253v3.5814c0 0.26083 0.23074 0.4715 0.48154 0.4715z"/>
   <path d="m41.494 44.796c1.2741 0 2.3575-1.2239 2.3575-2.6886 0-1.2339-0.90288-2.3174-2.0766-2.3174-1.2741 0-2.3475 1.2339-2.3475 2.6785 0 1.2841 0.89285 2.3274 2.0666 2.3274zm0-0.90288c-0.54173 0-1.0835-0.5016-1.0835-1.4346s0.61195-1.7656 1.3242-1.7656c0.63202 0 1.1336 0.69221 1.1336 1.4647 0 0.92294-0.65208 1.7355-1.3744 1.7355z"/>
   <path d="m45.416 46.572c0.2508 0 0.48154-0.23074 0.48154-0.48154v-1.6352c0.31099 0.18058 0.60192 0.27086 0.95304 0.27086 1.7857 0 2.2271-1.5349 2.2271-2.6685 0-1.5249-0.90288-2.2773-1.6854-2.2773-0.65208 0-1.1537 0.18058-1.5048 0.58186v-0.11035c0-0.30096-0.26083-0.4715-0.46147-0.4715-0.2809 0-0.49157 0.21067-0.49157 0.49157v5.8186c0 0.2508 0.2207 0.48154 0.48154 0.48154zm1.4948-2.7688c-0.38122 0-0.7825-0.15048-1.0132-0.24077v-2.2271c0.18058-0.23074 0.63202-0.65208 1.4145-0.65208 0.46147 0 0.85272 0.48154 0.85272 1.3744 0 1.1938-0.5016 1.7456-1.254 1.7456z"/>
   <path d="m52.91 44.806c1.4747 0 2.4779-0.91291 2.8391-2.1067 0.04013 0 0.08026-0.01003 0.12038-0.02006 0.19061-0.06019 0.35112-0.23074 0.35112-0.4715 0-0.21067-0.09029-0.40128-0.32102-0.4715-0.38122-0.12038-0.7524-0.17054-1.1136-0.17054-0.54173 0-1.1236 0.08026-1.3443 0.17054-0.26083 0.11035-0.36115 0.29093-0.36115 0.49157 0 0.32102 0.24077 0.5016 0.49157 0.5016 0.2207 0 0.40128-0.14045 1.0233-0.17054h0.15048c-0.30096 0.7825-0.9731 1.244-1.8359 1.244-1.3944 0-2.0465-1.3242-2.0465-2.3375 0-0.77246 0.57182-2.518 2.197-2.518 1.0433 0 1.5349 0.59189 1.7355 1.1336 0.07022 0.19061 0.23074 0.32102 0.48154 0.32102 0.29093 0 0.48154-0.18058 0.48154-0.46147 0-0.43138-0.76243-1.9964-2.6986-1.9964-1.9663 0-3.2002 1.8559-3.2002 3.5212 0 1.7054 1.1737 3.3407 3.0497 3.3407z"/>
   <path d="m58.618 44.826c0.60192 0 1.0835-0.34109 1.4245-0.58186v0.11035c0 0.27086 0.2508 0.44141 0.51163 0.44141s0.48154-0.23074 0.48154-0.48154v-4.073c0-0.27086-0.23074-0.46147-0.48154-0.46147-0.23074 0-0.4715 0.19061-0.4715 0.46147l-0.02006 2.8591c0 0.12038-0.02006 0.21067-0.06019 0.2508-0.17054 0.19061-0.74237 0.57182-1.2841 0.57182-0.36115 0-0.66211-0.27086-0.66211-1.7556 0-1.0132 0.12038-1.7456 0.12038-1.9161 0-0.32102-0.23074-0.4715-0.48154-0.4715-0.29093 0-0.42134 0.19061-0.4715 0.51163-0.07022 0.45144-0.11035 1.1537-0.11035 1.6553 0 2.3776 0.49157 2.8792 1.5048 2.8792z"/>
   <path d="m62.922 44.796c0.30096 0 0.4715-0.2207 0.4715-0.5016v-0.84269c0-0.74237 0.11035-1.2038 0.41131-1.7456 0.34109-0.62198 0.76243-0.98314 1.1637-0.98314 0.46147 0 0.66211 0.34109 0.66211 1.9362v1.6653c0 0.24077 0.2207 0.4715 0.48154 0.4715 0.27086 0 0.46147-0.23074 0.46147-0.48154 0-0.57182 0.01003-0.91291 0.01003-1.7556 0-2.0967-0.43138-2.7688-1.5249-2.7688-0.68218 0-1.2741 0.43138-1.6553 1.2339v-0.76243c0-0.27086-0.21067-0.48154-0.46147-0.48154-0.26083 0-0.5016 0.21067-0.5016 0.48154v4.073c0 0.24077 0.2207 0.46147 0.48154 0.46147z"/>
   <path d="m69.734 44.796c0.19061 0 0.37118-0.08026 0.46147-0.31099l2.2973-5.8386c0.0301-0.07022 0.04013-0.14045 0.04013-0.19061 0-0.2508-0.20064-0.48154-0.49157-0.48154-0.20064 0-0.37118 0.11035-0.46147 0.31099l-1.8058 4.5746-1.5349-4.5445c-0.08026-0.23074-0.26083-0.34109-0.46147-0.34109-0.31099 0-0.51163 0.20064-0.51163 0.4715 0 0.06019 0.01003 0.14045 0.04013 0.23074l1.9562 5.7885c0.07022 0.2207 0.26083 0.33106 0.4715 0.33106z"/>
   <path d="m73.827 39.369c0.27086 0 0.4715-0.20064 0.48154-0.4715l0.01003-0.38122c0.01003-0.24077-0.2207-0.48154-0.4715-0.48154s-0.4715 0.21067-0.48154 0.4715l-0.01003 0.37118c-0.01003 0.26083 0.2207 0.49157 0.4715 0.49157zm-0.05016 5.4273c0.26083 0 0.49157-0.2207 0.49157-0.49157l0.05016-3.9927c0-0.27086-0.21067-0.49157-0.49157-0.49157-0.26083 0-0.49157 0.2207-0.49157 0.49157l-0.05016 3.9927c0 0.27086 0.2207 0.49157 0.49157 0.49157z"/>
   <path d="m77.468 44.796c1.2741 0 2.3575-1.2239 2.3575-2.6886 0-1.2339-0.90288-2.3174-2.0766-2.3174-1.2741 0-2.3475 1.2339-2.3475 2.6785 0 1.2841 0.89285 2.3274 2.0666 2.3274zm0-0.90288c-0.54173 0-1.0835-0.5016-1.0835-1.4346s0.61195-1.7656 1.3242-1.7656c0.63202 0 1.1336 0.69221 1.1336 1.4647 0 0.92294-0.65208 1.7355-1.3744 1.7355z"/>
   <path d="m81.391 44.796c0.23074 0 0.48154-0.20064 0.48154-0.45144v-5.8186c0-0.26083-0.23074-0.4715-0.48154-0.4715-0.2809 0-0.48154 0.21067-0.48154 0.4715v5.8186c0 0.2508 0.23074 0.45144 0.48154 0.45144z"/>
   <path d="m85.444 44.796c0.62198 0 1.3142-0.33106 1.6753-0.74237 0.08026-0.09029 0.12038-0.18058 0.12038-0.30096 0-0.26083-0.20064-0.45144-0.4715-0.45144-0.13042 0-0.24077 0.07022-0.33106 0.16051-0.2207 0.23074-0.55176 0.43138-0.99317 0.43138-0.57182 0-1.1035-0.23074-1.2941-0.65208l2.6886-1.5449c0.21067-0.12038 0.31099-0.30096 0.31099-0.46147 0-0.4715-0.60192-1.4446-1.9261-1.4446-1.3744 0-2.2672 1.2339-2.2672 2.4879 0 1.575 1.0734 2.518 2.4879 2.518zm-1.575-2.3876c0-0.14045 0-0.21067 0.02006-0.36115 0.08026-0.74237 0.62198-1.3543 1.4045-1.3543 0.39125 0 0.70224 0.14045 0.86275 0.42134z"/>
   <path d="m88.684 44.796c0.30096 0 0.4715-0.2207 0.4715-0.5016v-0.84269c0-0.74237 0.11035-1.2038 0.41131-1.7456 0.34109-0.62198 0.76243-0.98314 1.1637-0.98314 0.46147 0 0.66211 0.34109 0.66211 1.9362v1.6653c0 0.24077 0.2207 0.4715 0.48154 0.4715 0.27086 0 0.46147-0.23074 0.46147-0.48154 0-0.57182 0.01003-0.91291 0.01003-1.7556 0-2.0967-0.43138-2.7688-1.5249-2.7688-0.68218 0-1.2741 0.43138-1.6553 1.2339v-0.76243c0-0.27086-0.21067-0.48154-0.46147-0.48154-0.26083 0-0.5016 0.21067-0.5016 0.48154v4.073c0 0.24077 0.2207 0.46147 0.48154 0.46147z"/>
   <path d="m95.516 44.796c0.84269 0 1.5349-0.4715 1.886-0.94301 0.08026-0.10032 0.11035-0.21067 0.11035-0.34109 0-0.23074-0.21067-0.44141-0.4715-0.44141-0.19061 0-0.34109 0.13042-0.43138 0.2508-0.23074 0.31099-0.54173 0.56179-1.1136 0.56179-0.61195 0-1.2239-0.4715-1.2239-1.3042 0-0.95304 0.69221-1.876 1.3343-1.876 0.40128 0 0.59189 0.19061 0.77246 0.39125 0.13042 0.16051 0.21067 0.20064 0.38122 0.20064 0.26083 0 0.48154-0.20064 0.48154-0.46147 0-0.12038-0.04013-0.23074-0.15048-0.35112-0.38122-0.45144-0.7524-0.69221-1.4948-0.69221-1.1938 0-2.2672 1.4346-2.2672 2.809 0 1.2239 0.95304 2.197 2.187 2.197z"/>
   <path d="m100.53 44.796c0.62198 0 1.3142-0.33106 1.6753-0.74237 0.0803-0.09029 0.12038-0.18058 0.12038-0.30096 0-0.26083-0.20064-0.45144-0.4715-0.45144-0.13042 0-0.24077 0.07022-0.33106 0.16051-0.2207 0.23074-0.55176 0.43138-0.99316 0.43138-0.57183 0-1.1035-0.23074-1.2941-0.65208l2.6886-1.5449c0.21068-0.12038 0.311-0.30096 0.311-0.46147 0-0.4715-0.60192-1.4446-1.9262-1.4446-1.3744 0-2.2672 1.2339-2.2672 2.4879 0 1.575 1.0734 2.518 2.4879 2.518zm-1.575-2.3876c0-0.14045 0-0.21067 0.02006-0.36115 0.08026-0.74237 0.62198-1.3543 1.4045-1.3543 0.39124 0 0.70224 0.14045 0.86275 0.42134z"/>
  </g>
  <g transform="matrix(.9926 .00546 -.00554 1.0074 .234 7.462)" fill="#218fa8" style="paint-order:stroke fill markers" aria-label="#StopGunViolence">
   <path d="m25.42 44.63c0.19236 0 0.40496-0.11136 0.47583-0.34422l0.45558-1.5895h0.92128l-0.35434 1.2048c-0.03037 0.10124-0.0405 0.20248-0.0405 0.24298 0 0.2531 0.19236 0.48595 0.48595 0.48595 0.18223 0 0.39484-0.10124 0.4657-0.34422l0.4657-1.5895h1.0731c0.26322 0 0.48595-0.2126 0.48595-0.48595 0-0.2531-0.22273-0.48595-0.48595-0.48595h-0.78967l0.2936-1.0428h0.91116c0.2531 0 0.48595-0.2126 0.48595-0.48595 0-0.2531-0.23285-0.48595-0.48595-0.48595h-0.62769l0.35434-1.1845c0.02025-0.07087 0.03037-0.16198 0.03037-0.20248 0-0.24298-0.19236-0.48595-0.48595-0.48595-0.19236 0-0.40496 0.13161-0.4657 0.34422l-0.44545 1.5287h-0.92128l0.34422-1.1744c0.02025-0.07087 0.0405-0.12149 0.0405-0.22273 0-0.2531-0.19236-0.47583-0.48595-0.47583-0.20248 0-0.41508 0.13161-0.47583 0.34422l-0.43534 1.5287h-1.225c-0.27335 0-0.48595 0.23285-0.48595 0.48595 0 0.27335 0.2126 0.48595 0.48595 0.48595h0.93141l-0.30372 1.0428h-1.0428c-0.27335 0-0.48595 0.23285-0.48595 0.48595 0 0.27335 0.2126 0.48595 0.48595 0.48595h0.7593l-0.34422 1.2149c-0.03037 0.10124-0.05062 0.17211-0.05062 0.2531 0 0.23285 0.19236 0.4657 0.48595 0.4657zm1.2149-2.9056 0.2936-1.0428h0.93141l-0.30372 1.0428z"/>
   <path d="m33.509 44.63c1.3161 0 2.4399-0.87066 2.4399-2.0349 0-0.99215-0.73905-1.63-2.0754-2.0147-1.0934-0.31384-1.5591-0.60744-1.5591-1.0833 0-0.5062 0.4657-0.84029 1.387-0.84029 0.74918 0 1.2048 0.2936 1.2554 0.65806 0.03037 0.23285 0.22273 0.42521 0.4657 0.42521 0.28347 0 0.49608-0.22273 0.49608-0.52645 0-0.89091-0.82004-1.4882-2.2172-1.4882-1.468 0-2.369 0.7593-2.369 1.8426 0 1.1541 1.0428 1.6502 2.1969 1.9742 1.1136 0.31384 1.4477 0.68843 1.4477 1.1035 0 0.57707-0.59732 1.0326-1.4477 1.0326-0.60744 0-1.306-0.28347-1.5287-0.90104-0.08099-0.22273-0.2531-0.37459-0.5062-0.37459-0.2936 0-0.51632 0.23285-0.51632 0.5062 0 0.11136 0.0405 0.24298 0.11136 0.39484 0.32397 0.68843 1.1845 1.3262 2.4196 1.3262z"/>
   <path d="m37.892 44.64c0.26322 0 0.48595-0.2126 0.48595-0.47583v-3.6143h0.86054c0.27335 0 0.48595-0.23285 0.48595-0.48595 0-0.28347-0.2126-0.49608-0.48595-0.49608h-0.86054v-1.0833c0-0.2531-0.19236-0.49608-0.48595-0.49608-0.27335 0-0.48595 0.24298-0.48595 0.49608v1.0833h-0.77955c-0.26322 0-0.5062 0.19236-0.5062 0.49608 0 0.2531 0.2126 0.48595 0.48595 0.48595h0.7998v3.6143c0 0.26322 0.23285 0.47583 0.48595 0.47583z"/>
   <path d="m41.851 44.63c1.2857 0 2.3791-1.2351 2.3791-2.7132 0-1.2453-0.91116-2.3386-2.0957-2.3386-1.2857 0-2.369 1.2453-2.369 2.7031 0 1.2959 0.90104 2.3488 2.0855 2.3488zm0-0.91116c-0.5467 0-1.0934-0.5062-1.0934-1.4477s0.61756-1.7818 1.3364-1.7818c0.63781 0 1.144 0.69856 1.144 1.4781 0 0.93141-0.65806 1.7515-1.387 1.7515z"/>
   <path d="m45.809 46.422c0.2531 0 0.48595-0.23285 0.48595-0.48595v-1.6502c0.31384 0.18223 0.60744 0.27335 0.96178 0.27335 1.8021 0 2.2475-1.549 2.2475-2.693 0-1.5388-0.91116-2.2981-1.7008-2.2981-0.65806 0-1.1643 0.18223-1.5186 0.58719v-0.11136c0-0.30372-0.26322-0.47583-0.4657-0.47583-0.28347 0-0.49608 0.2126-0.49608 0.49608v5.8719c0 0.2531 0.22273 0.48595 0.48595 0.48595zm1.5085-2.7942c-0.38471 0-0.78967-0.15186-1.0225-0.24298v-2.2475c0.18223-0.23285 0.63781-0.65806 1.4275-0.65806 0.4657 0 0.86054 0.48595 0.86054 1.387 0 1.2048-0.5062 1.7616-1.2655 1.7616z"/>
   <path d="m53.372 44.64c1.4882 0 2.5006-0.92128 2.8651-2.126 0.0405 0 0.08099-0.01012 0.12149-0.02025 0.19236-0.06074 0.35434-0.23285 0.35434-0.47583 0-0.2126-0.09112-0.40496-0.32397-0.47583-0.38471-0.12149-0.7593-0.17211-1.1238-0.17211-0.5467 0-1.1339 0.08099-1.3566 0.17211-0.26322 0.11136-0.36446 0.2936-0.36446 0.49608 0 0.32397 0.24298 0.5062 0.49608 0.5062 0.22273 0 0.40496-0.14174 1.0326-0.17211h0.15186c-0.30372 0.78967-0.98203 1.2554-1.8527 1.2554-1.4072 0-2.0653-1.3364-2.0653-2.3589 0-0.77955 0.57707-2.5411 2.2172-2.5411 1.0529 0 1.549 0.59732 1.7515 1.144 0.07087 0.19236 0.23285 0.32397 0.48595 0.32397 0.2936 0 0.48595-0.18223 0.48595-0.4657 0-0.43533-0.76942-2.0147-2.7234-2.0147-1.9843 0-3.2296 1.8729-3.2296 3.5535 0 1.7211 1.1845 3.3713 3.0777 3.3713z"/>
   <path d="m59.132 44.66c0.60744 0 1.0934-0.34422 1.4376-0.58719v0.11136c0 0.27335 0.2531 0.44546 0.51632 0.44546s0.48595-0.23285 0.48595-0.48595v-4.1103c0-0.27335-0.23285-0.4657-0.48595-0.4657-0.23285 0-0.47583 0.19236-0.47583 0.4657l-0.02025 2.8853c0 0.12149-0.02025 0.2126-0.06074 0.2531-0.17211 0.19236-0.74918 0.57707-1.2959 0.57707-0.36446 0-0.66818-0.27335-0.66818-1.7717 0-1.0225 0.12149-1.7616 0.12149-1.9337 0-0.32397-0.23285-0.47583-0.48595-0.47583-0.2936 0-0.42521 0.19236-0.47583 0.51632-0.07087 0.45558-0.11136 1.1643-0.11136 1.6705 0 2.3994 0.49608 2.9056 1.5186 2.9056z"/>
   <path d="m63.476 44.63c0.30372 0 0.47583-0.22273 0.47583-0.5062v-0.85042c0-0.74918 0.11136-1.2149 0.41508-1.7616 0.34422-0.62769 0.76942-0.99215 1.1744-0.99215 0.4657 0 0.66818 0.34422 0.66818 1.9539v1.6806c0 0.24298 0.22273 0.47583 0.48595 0.47583 0.27335 0 0.4657-0.23285 0.4657-0.48595 0-0.57707 0.01012-0.92128 0.01012-1.7717 0-2.1159-0.43533-2.7942-1.5388-2.7942-0.68843 0-1.2857 0.43533-1.6705 1.2453v-0.76942c0-0.27335-0.2126-0.48595-0.4657-0.48595-0.26322 0-0.5062 0.2126-0.5062 0.48595v4.1103c0 0.24298 0.22273 0.4657 0.48595 0.4657z"/>
   <path d="m70.35 44.63c0.19236 0 0.37459-0.08099 0.4657-0.31384l2.3184-5.8922c0.03037-0.07087 0.0405-0.14174 0.0405-0.19236 0-0.2531-0.20248-0.48595-0.49608-0.48595-0.20248 0-0.37459 0.11136-0.4657 0.31384l-1.8223 4.6165-1.549-4.5862c-0.08099-0.23285-0.26322-0.34422-0.4657-0.34422-0.31384 0-0.51632 0.20248-0.51632 0.47583 0 0.06074 0.01012 0.14174 0.0405 0.23285l1.9742 5.8415c0.07087 0.22273 0.26322 0.33409 0.47583 0.33409z"/>
   <path d="m74.48 39.153c0.27335 0 0.47583-0.20248 0.48595-0.47583l0.01012-0.38471c0.01012-0.24298-0.22273-0.48595-0.47583-0.48595s-0.47583 0.2126-0.48595 0.47583l-0.01012 0.37459c-0.01012 0.26322 0.22273 0.49608 0.47583 0.49608zm-0.05062 5.4771c0.26322 0 0.49608-0.22273 0.49608-0.49608l0.05062-4.0294c0-0.27335-0.2126-0.49608-0.49608-0.49608-0.26322 0-0.49608 0.22273-0.49608 0.49608l-0.05062 4.0294c0 0.27335 0.22273 0.49608 0.49608 0.49608z"/>
   <path d="m78.155 44.63c1.2857 0 2.3791-1.2351 2.3791-2.7132 0-1.2453-0.91116-2.3386-2.0957-2.3386-1.2857 0-2.369 1.2453-2.369 2.7031 0 1.2959 0.90104 2.3488 2.0855 2.3488zm0-0.91116c-0.5467 0-1.0934-0.5062-1.0934-1.4477s0.61756-1.7818 1.3364-1.7818c0.63781 0 1.144 0.69856 1.144 1.4781 0 0.93141-0.65806 1.7515-1.387 1.7515z"/>
   <path d="m82.114 44.63c0.23285 0 0.48595-0.20248 0.48595-0.45558v-5.8719c0-0.26322-0.23285-0.47583-0.48595-0.47583-0.28347 0-0.48595 0.2126-0.48595 0.47583v5.8719c0 0.2531 0.23285 0.45558 0.48595 0.45558z"/>
   <path d="m86.204 44.63c0.62769 0 1.3262-0.33409 1.6907-0.74918 0.08099-0.09112 0.12149-0.18223 0.12149-0.30372 0-0.26322-0.20248-0.45558-0.47583-0.45558-0.13161 0-0.24298 0.07087-0.33409 0.16198-0.22273 0.23285-0.55682 0.43533-1.0023 0.43533-0.57707 0-1.1136-0.23285-1.306-0.65806l2.7132-1.5591c0.2126-0.12149 0.31384-0.30372 0.31384-0.4657 0-0.47583-0.60744-1.4579-1.9438-1.4579-1.387 0-2.288 1.2453-2.288 2.5108 0 1.5895 1.0833 2.5411 2.5108 2.5411zm-1.5895-2.4095c0-0.14174 0-0.2126 0.02025-0.36446 0.08099-0.74918 0.62769-1.3667 1.4174-1.3667 0.39484 0 0.70868 0.14174 0.87066 0.42521z"/>
   <path d="m89.474 44.63c0.30372 0 0.47583-0.22273 0.47583-0.5062v-0.85042c0-0.74918 0.11136-1.2149 0.41508-1.7616 0.34422-0.62769 0.76942-0.99215 1.1744-0.99215 0.4657 0 0.66818 0.34422 0.66818 1.9539v1.6806c0 0.24298 0.22273 0.47583 0.48595 0.47583 0.27335 0 0.4657-0.23285 0.4657-0.48595 0-0.57707 0.01012-0.92128 0.01012-1.7717 0-2.1159-0.43533-2.7942-1.5388-2.7942-0.68843 0-1.2857 0.43533-1.6705 1.2453v-0.76942c0-0.27335-0.2126-0.48595-0.4657-0.48595-0.26322 0-0.5062 0.2126-0.5062 0.48595v4.1103c0 0.24298 0.22273 0.4657 0.48595 0.4657z"/>
   <path d="m96.368 44.63c0.85042 0 1.549-0.47583 1.9033-0.95166 0.08099-0.10124 0.11136-0.2126 0.11136-0.34422 0-0.23285-0.2126-0.44546-0.47583-0.44546-0.19236 0-0.34422 0.13161-0.43533 0.2531-0.23285 0.31384-0.5467 0.56694-1.1238 0.56694-0.61756 0-1.2351-0.47583-1.2351-1.3161 0-0.96178 0.69856-1.8932 1.3465-1.8932 0.40496 0 0.59732 0.19236 0.77955 0.39484 0.13161 0.16198 0.2126 0.20248 0.38471 0.20248 0.26322 0 0.48595-0.20248 0.48595-0.4657 0-0.12149-0.0405-0.23285-0.15186-0.35434-0.38471-0.45558-0.7593-0.69856-1.5085-0.69856-1.2048 0-2.288 1.4477-2.288 2.8347 0 1.2351 0.96178 2.2172 2.207 2.2172z"/>
   <path d="m101.43 44.63c0.62768 0 1.3262-0.33409 1.6907-0.74918 0.081-0.09112 0.12149-0.18223 0.12149-0.30372 0-0.26322-0.20248-0.45558-0.47583-0.45558-0.13161 0-0.24297 0.07087-0.33409 0.16198-0.22273 0.23285-0.55682 0.43533-1.0023 0.43533-0.57707 0-1.1136-0.23285-1.306-0.65806l2.7132-1.5591c0.21261-0.12149 0.31384-0.30372 0.31384-0.4657 0-0.47583-0.60743-1.4579-1.9438-1.4579-1.387 0-2.288 1.2453-2.288 2.5108 0 1.5895 1.0833 2.5411 2.5108 2.5411zm-1.5895-2.4095c0-0.14174 0-0.2126 0.02025-0.36446 0.08099-0.74918 0.62768-1.3667 1.4174-1.3667 0.39483 0 0.70868 0.14174 0.87066 0.42521z"/>
  </g>
  <g transform="rotate(.315 -1356.4 46.235)" fill="#3ebdd9" style="paint-order:stroke fill markers" aria-label="#StopGunViolence">
   <path d="m25.229 44.847c0.19061 0 0.40128-0.11035 0.4715-0.34109l0.45144-1.575h0.91291l-0.35112 1.1938c-0.0301 0.10032-0.04013 0.20064-0.04013 0.24077 0 0.2508 0.19061 0.48154 0.48154 0.48154 0.18058 0 0.39125-0.10032 0.46147-0.34109l0.46147-1.575h1.0634c0.26083 0 0.48154-0.21067 0.48154-0.48154 0-0.2508-0.2207-0.48154-0.48154-0.48154h-0.7825l0.29093-1.0333h0.90288c0.2508 0 0.48154-0.21067 0.48154-0.48154 0-0.2508-0.23074-0.48154-0.48154-0.48154h-0.62198l0.35112-1.1737c0.02006-0.07022 0.0301-0.16051 0.0301-0.20064 0-0.24077-0.19061-0.48154-0.48154-0.48154-0.19061 0-0.40128 0.13042-0.46147 0.34109l-0.44141 1.5148h-0.91291l0.34109-1.1637c0.02006-0.07022 0.04013-0.12038 0.04013-0.2207 0-0.2508-0.19061-0.4715-0.48154-0.4715-0.20064 0-0.41131 0.13042-0.4715 0.34109l-0.43138 1.5148h-1.2139c-0.27086 0-0.48154 0.23074-0.48154 0.48154 0 0.27086 0.21067 0.48154 0.48154 0.48154h0.92294l-0.30096 1.0333h-1.0333c-0.27086 0-0.48154 0.23074-0.48154 0.48154 0 0.27086 0.21067 0.48154 0.48154 0.48154h0.7524l-0.34109 1.2038c-0.0301 0.10032-0.05016 0.17054-0.05016 0.2508 0 0.23074 0.19061 0.46147 0.48154 0.46147zm1.2038-2.8792 0.29093-1.0333h0.92294l-0.30096 1.0333z"/>
   <path d="m33.244 44.847c1.3042 0 2.4177-0.86275 2.4177-2.0164 0-0.98314-0.73234-1.6152-2.0566-1.9964-1.0835-0.31099-1.5449-0.60192-1.5449-1.0734 0-0.5016 0.46147-0.83266 1.3744-0.83266 0.74237 0 1.1938 0.29093 1.244 0.65208 0.0301 0.23074 0.2207 0.42134 0.46147 0.42134 0.2809 0 0.49157-0.2207 0.49157-0.52166 0-0.88282-0.81259-1.4747-2.197-1.4747-1.4546 0-2.3475 0.7524-2.3475 1.8258 0 1.1436 1.0333 1.6352 2.1769 1.9562 1.1035 0.31099 1.4346 0.68218 1.4346 1.0935 0 0.57182-0.59189 1.0233-1.4346 1.0233-0.60192 0-1.2941-0.2809-1.5148-0.89285-0.08026-0.2207-0.2508-0.37118-0.5016-0.37118-0.29093 0-0.51163 0.23074-0.51163 0.5016 0 0.11035 0.04013 0.24077 0.11035 0.39125 0.32102 0.68218 1.1737 1.3142 2.3976 1.3142z"/>
   <path d="m37.588 44.857c0.26083 0 0.48154-0.21067 0.48154-0.4715v-3.5814h0.85272c0.27086 0 0.48154-0.23074 0.48154-0.48154 0-0.2809-0.21067-0.49157-0.48154-0.49157h-0.85272v-1.0734c0-0.2508-0.19061-0.49157-0.48154-0.49157-0.27086 0-0.48154 0.24077-0.48154 0.49157v1.0734h-0.77246c-0.26083 0-0.5016 0.19061-0.5016 0.49157 0 0.2508 0.21067 0.48154 0.48154 0.48154h0.79253v3.5814c0 0.26083 0.23074 0.4715 0.48154 0.4715z"/>
   <path d="m41.511 44.847c1.2741 0 2.3575-1.2239 2.3575-2.6886 0-1.2339-0.90288-2.3174-2.0766-2.3174-1.2741 0-2.3475 1.2339-2.3475 2.6785 0 1.2841 0.89285 2.3274 2.0666 2.3274zm0-0.90288c-0.54173 0-1.0835-0.5016-1.0835-1.4346s0.61195-1.7656 1.3242-1.7656c0.63202 0 1.1336 0.69221 1.1336 1.4647 0 0.92294-0.65208 1.7355-1.3744 1.7355z"/>
   <path d="m45.433 46.623c0.2508 0 0.48154-0.23074 0.48154-0.48154v-1.6352c0.31099 0.18058 0.60192 0.27086 0.95304 0.27086 1.7857 0 2.2271-1.5349 2.2271-2.6685 0-1.5249-0.90288-2.2773-1.6854-2.2773-0.65208 0-1.1537 0.18058-1.5048 0.58186v-0.11035c0-0.30096-0.26083-0.4715-0.46147-0.4715-0.2809 0-0.49157 0.21067-0.49157 0.49157v5.8186c0 0.2508 0.2207 0.48154 0.48154 0.48154zm1.4948-2.7688c-0.38122 0-0.7825-0.15048-1.0132-0.24077v-2.2271c0.18058-0.23074 0.63202-0.65208 1.4145-0.65208 0.46147 0 0.85272 0.48154 0.85272 1.3744 0 1.1938-0.5016 1.7456-1.254 1.7456z"/>
   <path d="m52.927 44.857c1.4747 0 2.4779-0.91291 2.8391-2.1067 0.04013 0 0.08026-0.01003 0.12038-0.02006 0.19061-0.06019 0.35112-0.23074 0.35112-0.4715 0-0.21067-0.09029-0.40128-0.32102-0.4715-0.38122-0.12038-0.7524-0.17054-1.1136-0.17054-0.54173 0-1.1236 0.08026-1.3443 0.17054-0.26083 0.11035-0.36115 0.29093-0.36115 0.49157 0 0.32102 0.24077 0.5016 0.49157 0.5016 0.2207 0 0.40128-0.14045 1.0233-0.17054h0.15048c-0.30096 0.7825-0.9731 1.244-1.8359 1.244-1.3944 0-2.0465-1.3242-2.0465-2.3375 0-0.77246 0.57182-2.518 2.197-2.518 1.0433 0 1.5349 0.59189 1.7355 1.1336 0.07022 0.19061 0.23074 0.32102 0.48154 0.32102 0.29093 0 0.48154-0.18058 0.48154-0.46147 0-0.43138-0.76243-1.9964-2.6986-1.9964-1.9663 0-3.2002 1.8559-3.2002 3.5212 0 1.7054 1.1737 3.3407 3.0497 3.3407z"/>
   <path d="m58.635 44.877c0.60192 0 1.0835-0.34109 1.4245-0.58186v0.11035c0 0.27086 0.2508 0.44141 0.51163 0.44141s0.48154-0.23074 0.48154-0.48154v-4.073c0-0.27086-0.23074-0.46147-0.48154-0.46147-0.23074 0-0.4715 0.19061-0.4715 0.46147l-0.02006 2.8591c0 0.12038-0.02006 0.21067-0.06019 0.2508-0.17054 0.19061-0.74237 0.57182-1.2841 0.57182-0.36115 0-0.66211-0.27086-0.66211-1.7556 0-1.0132 0.12038-1.7456 0.12038-1.9161 0-0.32102-0.23074-0.4715-0.48154-0.4715-0.29093 0-0.42134 0.19061-0.4715 0.51163-0.07022 0.45144-0.11035 1.1537-0.11035 1.6553 0 2.3776 0.49157 2.8792 1.5048 2.8792z"/>
   <path d="m62.939 44.847c0.30096 0 0.4715-0.2207 0.4715-0.5016v-0.84269c0-0.74237 0.11035-1.2038 0.41131-1.7456 0.34109-0.62198 0.76243-0.98314 1.1637-0.98314 0.46147 0 0.66211 0.34109 0.66211 1.9362v1.6653c0 0.24077 0.2207 0.4715 0.48154 0.4715 0.27086 0 0.46147-0.23074 0.46147-0.48154 0-0.57182 0.01003-0.91291 0.01003-1.7556 0-2.0967-0.43138-2.7688-1.5249-2.7688-0.68218 0-1.2741 0.43138-1.6553 1.2339v-0.76243c0-0.27086-0.21067-0.48154-0.46147-0.48154-0.26083 0-0.5016 0.21067-0.5016 0.48154v4.073c0 0.24077 0.2207 0.46147 0.48154 0.46147z"/>
   <path d="m69.751 44.847c0.19061 0 0.37118-0.08026 0.46147-0.31099l2.2973-5.8386c0.0301-0.07022 0.04013-0.14045 0.04013-0.19061 0-0.2508-0.20064-0.48154-0.49157-0.48154-0.20064 0-0.37118 0.11035-0.46147 0.31099l-1.8058 4.5746-1.5349-4.5445c-0.08026-0.23074-0.26083-0.34109-0.46147-0.34109-0.31099 0-0.51163 0.20064-0.51163 0.4715 0 0.06019 0.01003 0.14045 0.04013 0.23074l1.9562 5.7885c0.07022 0.2207 0.26083 0.33106 0.4715 0.33106z"/>
   <path d="m73.844 39.42c0.27086 0 0.4715-0.20064 0.48154-0.4715l0.01003-0.38122c0.01003-0.24077-0.2207-0.48154-0.4715-0.48154s-0.4715 0.21067-0.48154 0.4715l-0.01003 0.37118c-0.01003 0.26083 0.2207 0.49157 0.4715 0.49157zm-0.05016 5.4273c0.26083 0 0.49157-0.2207 0.49157-0.49157l0.05016-3.9927c0-0.27086-0.21067-0.49157-0.49157-0.49157-0.26083 0-0.49157 0.2207-0.49157 0.49157l-0.05016 3.9927c0 0.27086 0.2207 0.49157 0.49157 0.49157z"/>
   <path d="m77.485 44.847c1.2741 0 2.3575-1.2239 2.3575-2.6886 0-1.2339-0.90288-2.3174-2.0766-2.3174-1.2741 0-2.3475 1.2339-2.3475 2.6785 0 1.2841 0.89285 2.3274 2.0666 2.3274zm0-0.90288c-0.54173 0-1.0835-0.5016-1.0835-1.4346s0.61195-1.7656 1.3242-1.7656c0.63202 0 1.1336 0.69221 1.1336 1.4647 0 0.92294-0.65208 1.7355-1.3744 1.7355z"/>
   <path d="m81.408 44.847c0.23074 0 0.48154-0.20064 0.48154-0.45144v-5.8186c0-0.26083-0.23074-0.4715-0.48154-0.4715-0.2809 0-0.48154 0.21067-0.48154 0.4715v5.8186c0 0.2508 0.23074 0.45144 0.48154 0.45144z"/>
   <path d="m85.461 44.847c0.62198 0 1.3142-0.33106 1.6753-0.74237 0.08026-0.09029 0.12038-0.18058 0.12038-0.30096 0-0.26083-0.20064-0.45144-0.4715-0.45144-0.13042 0-0.24077 0.07022-0.33106 0.16051-0.2207 0.23074-0.55176 0.43138-0.99317 0.43138-0.57182 0-1.1035-0.23074-1.2941-0.65208l2.6886-1.5449c0.21067-0.12038 0.31099-0.30096 0.31099-0.46147 0-0.4715-0.60192-1.4446-1.9261-1.4446-1.3744 0-2.2672 1.2339-2.2672 2.4879 0 1.575 1.0734 2.518 2.4879 2.518zm-1.575-2.3876c0-0.14045 0-0.21067 0.02006-0.36115 0.08026-0.74237 0.62198-1.3543 1.4045-1.3543 0.39125 0 0.70224 0.14045 0.86275 0.42134z"/>
   <path d="m88.701 44.847c0.30096 0 0.4715-0.2207 0.4715-0.5016v-0.84269c0-0.74237 0.11035-1.2038 0.41131-1.7456 0.34109-0.62198 0.76243-0.98314 1.1637-0.98314 0.46147 0 0.66211 0.34109 0.66211 1.9362v1.6653c0 0.24077 0.2207 0.4715 0.48154 0.4715 0.27086 0 0.46147-0.23074 0.46147-0.48154 0-0.57182 0.01003-0.91291 0.01003-1.7556 0-2.0967-0.43138-2.7688-1.5249-2.7688-0.68218 0-1.2741 0.43138-1.6553 1.2339v-0.76243c0-0.27086-0.21067-0.48154-0.46147-0.48154-0.26083 0-0.5016 0.21067-0.5016 0.48154v4.073c0 0.24077 0.2207 0.46147 0.48154 0.46147z"/>
   <path d="m95.533 44.847c0.84269 0 1.5349-0.4715 1.886-0.94301 0.08026-0.10032 0.11035-0.21067 0.11035-0.34109 0-0.23074-0.21067-0.44141-0.4715-0.44141-0.19061 0-0.34109 0.13042-0.43138 0.2508-0.23074 0.31099-0.54173 0.56179-1.1136 0.56179-0.61195 0-1.2239-0.4715-1.2239-1.3042 0-0.95304 0.69221-1.876 1.3343-1.876 0.40128 0 0.59189 0.19061 0.77246 0.39125 0.13042 0.16051 0.21067 0.20064 0.38122 0.20064 0.26083 0 0.48154-0.20064 0.48154-0.46147 0-0.12038-0.04013-0.23074-0.15048-0.35112-0.38122-0.45144-0.7524-0.69221-1.4948-0.69221-1.1938 0-2.2672 1.4346-2.2672 2.809 0 1.2239 0.95304 2.197 2.187 2.197z"/>
   <path d="m100.55 44.847c0.62198 0 1.3142-0.33106 1.6753-0.74237 0.0803-0.09029 0.12038-0.18058 0.12038-0.30096 0-0.26083-0.20064-0.45144-0.4715-0.45144-0.13042 0-0.24077 0.07022-0.33106 0.16051-0.2207 0.23074-0.55176 0.43138-0.99316 0.43138-0.57183 0-1.1035-0.23074-1.2941-0.65208l2.6886-1.5449c0.21068-0.12038 0.311-0.30096 0.311-0.46147 0-0.4715-0.60192-1.4446-1.9262-1.4446-1.3744 0-2.2672 1.2339-2.2672 2.4879 0 1.575 1.0734 2.518 2.4879 2.518zm-1.575-2.3876c0-0.14045 0-0.21067 0.02006-0.36115 0.08026-0.74237 0.62198-1.3543 1.4045-1.3543 0.39124 0 0.70224 0.14045 0.86275 0.42134z"/>
  </g>
 </g>
 <rect x="23.086" y="31.044" width="83.072" height="7.538" rx="4.309" fill="#fff" fill-opacity=".691" stroke-linecap="round" stroke-linejoin="round" stroke-width="27.658" paint-order="stroke fill markers"/>
</svg>
