<svg xmlns="http://www.w3.org/2000/svg" width="128" height="128" xml:space="preserve" style="fill-rule:evenodd;clip-rule:evenodd;stroke-linecap:round;stroke-linejoin:round;stroke-miterlimit:10" viewBox="0 0 128 128"><path d="M83.69 91.034a10.6 10.6 0 0 1-3.19-6.17l-2.82-19.91 8.48-1.21c.28 3.58 1.57 19.43 2.66 21.63 1.09 2.21 11.75 14.48 13.45 16.44l-2.19 4.75zm-58.41 10.77c1.71-1.96 12.36-14.23 13.45-16.44 1.08-2.2 2.38-18.05 2.66-21.63l8.48 1.21-2.82 19.91c-.33 2.35-1.47 4.54-3.19 6.17l-16.39 15.53z" style="fill:#70534a;fill-rule:nonzero"/><path d="M49.27 96.774v-26.96c0-.26-.2-.48-.46-.5l-8.51-.75.78-8.81c.01-.11 1.59-11.17 23.13-11.17 21.46 0 22.69 11.06 22.7 11.17l.78 8.806-8.22.734c-.26.02-.46.24-.46.5v26.98z" style="fill:#da4105;fill-rule:nonzero"/><path d="M63.57 53.104c-2.08 0-3.77-1.6-3.77-3.58v-4.48h8.4v4.48c0 1.97-1.69 3.58-3.77 3.58z" style="fill:#563e37;fill-rule:nonzero"/><path d="M30.68 122.714c-4.16 0-7.94-.81-10.14-2.17-2.17-1.34-4-3.97-3.31-6.03.9-2.71 3.63-5.48 6.94-7.05 8.82-4.19 22.23-7.05 22.36-7.08 1.88-.42 3.63-.62 5.23-.62 1.97 0 3.72.32 5.2.96 2.29.98 8.76 3.06 15.02 5.07 5.07 1.63 11.13 3.58 13.63 4.55-5.77 1.09-11.01 2.64-16.53 4.28-8.71 2.59-18.59 5.52-33.88 7.77-1.47.21-2.99.32-4.52.32" style="fill:#70534a;fill-rule:nonzero"/><path d="M97.17 122.674c-1.49 0-2.99-.1-4.45-.29-10.39-1.38-23.92-5.6-34.46-10.73-3.99-1.94-7.67-4.2-10.35-5.85-1.08-.66-2.03-1.25-2.81-1.7-1.78-1.03-3.2-1.62-5.16-1.62-.36 0-.73.02-1.12.06l-.61-.544" style="fill:url(#a);fill-rule:nonzero"/><path d="m42.58 101.994 6.45-3.84c.15-.09.24-.25.24-.43v-2.69c1.66.51 6.38 1.65 15.14 1.65 8.66 0 13.05-1.12 14.62-1.64l.12 2.7c.01.17.1.32.24.41l6.44 3.84-21.73 9.82z" style="fill:#1e9ddb;fill-rule:nonzero;fill-opacity:1"/><path d="m55.95 108.594 4.43-.52 8.57-1.2c1.24-.17 3.09-1.29 3.16-2.67.03-.7.25-2.36 1.51-2.81.36-.12.68-.18.98-.18.56 0 1.04.21 1.59.46.74.34 1.59.72 2.88.72.82 0 1.7-.15 2.72-.47a.4.4 0 0 0 .11-.05c.03-.02 2.62-1.57 4.75-2.33.3-.11.62-.17.94-.17 1.54 0 3.03 1.27 3.54 2.44.34.62.53 1.33.43 1.52-.01.02-.07.04-.16.04s-.18.01-.26.01c-.34 0-.6-.03-1.01-.08l-.61-.07c-.4-.04-.77-.06-1.13-.06-1.96 0-3.37.59-5.16 1.62-.86.5-1.72 1.04-2.65 1.63-2.15 1.36-4.59 2.9-8.43 4.77-2.2 1.07-5.29 2.38-6.13 2.73z" style="fill:url(#b);fill-rule:nonzero"/><path d="M49.027 107.765c-2.742.067-6.619.29-11.156.914-.918.128-2.11.543-3.168 1.222-1.058.68-2.008 1.642-2.217 2.913a.503.503 0 0 0 .494.581.5.5 0 0 0 .493-.419c.14-.86.848-1.642 1.77-2.233.92-.59 1.882-1.175 2.614-1.277 8.986-1.234 15.159-1.356 15.159-1.356.276.016.819.478.834.202l.001-.029a.5.5 0 0 0-.474-.499c-.264-.014-1.608-.087-4.35-.02z" style="fill:#563e37;fill-rule:nonzero"/><path d="m29.92 105.17-3-2.17s-.02-.09-.35-.5c-1.38-1.66-3.95-.77-5.66-1.43-1.7-.66-1.79-3.81-4.35-3.58-.94.09.16 3.48.16 3.48s-.48 5.83 2.92 7.32c4.83 2.11 8.6-.97 8.6-.97z" style="fill:url(#c);fill-rule:nonzero" transform="translate(.43 -1.126)"/><path d="M15.46 106.06s.406-2.8.47-4.21c.062-1.346-.703-3.531-.08-4.04.616-.504 1.58.09 1.99 1.32.38 1.14.28 3.54.28 3.54.61-.619 1.51-.51 1.68.45l.211 2.728s.455-1.188 1.369-.528c.984.711 2.19 2.54 2.19 2.54s.445-1.453 2.285-2.413 3.553-1.067 3.765.053c.17.9-4.297 3.376-5.97 4.65-.538.41-1.21-.12-1.21-.12-.8.47-1.76.62-2.66.41-.71-.17-1.35-.56-1.83-1.11l-.36-.42-.54.21c-.88.06-1.84-.45-2.37-1.09 0 0-1.654-1.79-2.067-2.996-.503-1.47-.83-4.024-.253-4.654.49-.534 1.554-.714 1.63 1.44l.09 2.54c.6.88 3.48 4.58 3.48 4.58" style="fill:url(#d);fill-rule:nonzero;stroke:#563e37;stroke-width:.5" transform="translate(.43 -1.126)"/><path d="M18.498 100.544c-.193-.004-.176.432-.19.624l-.269 3.917a.35.35 0 0 0 .068.217l3.012 4.07a.352.352 0 0 0 .563-.416l-2.94-3.975-.003-3.973c0-.194-.047-.46-.24-.464z" style="fill:#563e37;fill-rule:nonzero"/><path d="M20.394 103.854c-.194.009-.27.213-.25.406l.062.586c.025.231.058.273.157.424l2.477 3.773c.106.162.387.304.54.187s-.002-.264-.12-.417c-.099-.132-2.05-2.48-2.576-3.923-.132-.36-.14-.516-.148-.68-.008-.194.051-.365-.142-.356" style="fill:#563e37;fill-rule:nonzero"/><path d="M97.17 122.674c-1.49 0-2.99-.1-4.45-.29-10.39-1.38-23.92-5.6-34.46-10.73-3.99-1.94-7.67-4.2-10.35-5.85-1.08-.66-2.03-1.25-2.81-1.7-1.78-1.03-3.2-1.62-5.16-1.62-.36 0-.73.02-1.12.06l-.61.07c-.41.05-.68.08-1.01.08-.08 0-.17 0-.26-.01-.09 0-.15-.02-.16-.04-.12-.21.12-.97.41-1.48.53-1.22 2.03-2.49 3.57-2.49.32 0 .64.06.94.17 2.13.77 4.72 2.32 4.75 2.33.03.02.07.04.11.05 1.01.31 1.9.47 2.72.47 1.29 0 2.14-.38 2.88-.72.55-.25 1.02-.46 1.59-.46.3 0 .62.06.98.19 1.27.44 1.48 2.11 1.51 2.81.06 1.38 1.91 2.5 3.16 2.67.29.05 7.7 1.38 11.51 1.38 3.74 0 7.07-.5 10.29-.98 2.93-.44 5.7-.85 8.53-.85 1.02 0 1.974.05 2.924.16 6.78.77 12.536 3.26 17.586 7.6.2.39.35.72.45 1.04.69 2.06-1.14 4.68-3.31 6.03-2.17 1.32-5.98 2.11-10.21 2.11" style="fill:#70534a;fill-rule:nonzero"/><path d="M49.867 62.403a.79.79 0 0 0-.787.71l-.63 6.17.36.03c.259.021.461.24.46.5v.557a.79.79 0 0 0 .728-.707l.652-6.389a.793.793 0 0 0-.783-.871m28.467.213-.057.004a.794.794 0 0 0-.705.865l.653 6.39c.042.4.383.708.785.708v-.789c0-.26.2-.48.46-.5l.282-.025-.607-5.944a.794.794 0 0 0-.811-.709" style="fill-opacity:.56"/><path d="M39.94 102.483c-.36 0-.73.021-1.12.061l-.61-.544" style="fill-opacity:.39"/><path d="M50.28 107.232c.304.182.56.34.868.523-.642-.003-1.213-.013-2.12.01a99 99 0 0 0-3.717.174s7.25 2.617 8.171 10.959c4.982-1.189 9.243-2.405 13.235-3.584-2.943-1.143-5.8-2.367-8.457-3.66-2.97-1.444-5.648-3.013-7.98-4.422" style="fill-opacity:.31"/><path d="M88.39 103.175c-1.96 0-3.37.589-5.16 1.619-.86.5-1.72 1.04-2.65 1.63-.163.104-.362.223-.531.329.383-.056.77-.111 1.15-.168 1.097-.165 2.169-.319 3.233-.455l.013-.01c2.833-1.973 9.248-2.117 9.248-2.117-.719-.273-1.418-.53-2.12-.791-.004.042 0 .097-.012.123-.01.02-.07.039-.16.039s-.18.01-.26.01c-.34 0-.6-.03-1.01-.08l-.611-.07c-.4-.04-.77-.06-1.13-.06z" style="fill-opacity:.39"/><path d="m29.92 105.17-3-2.17s-.02-.09-.35-.5c-1.38-1.66-3.95-.77-5.66-1.43-1.7-.66-1.79-3.81-4.35-3.58-.94.09.16 3.48.16 3.48s-.48 5.83 2.92 7.32c4.83 2.11 8.6-.97 8.6-.97z" style="fill:url(#e);fill-rule:nonzero" transform="matrix(-1 0 0 1 127.57 -1.126)"/><path d="M15.46 106.06s.406-2.8.47-4.21c.062-1.346-.703-3.531-.08-4.04.616-.504 1.58.09 1.99 1.32.38 1.14.28 3.54.28 3.54.61-.619 1.51-.51 1.68.45l.211 2.728s.455-1.188 1.369-.528c.984.711 2.19 2.54 2.19 2.54s.445-1.453 2.285-2.413 3.553-1.067 3.765.053c.17.9-4.297 3.376-5.97 4.65-.538.41-1.21-.12-1.21-.12-.8.47-1.76.62-2.66.41-.71-.17-1.35-.56-1.83-1.11l-.36-.42-.54.21c-.88.06-1.84-.45-2.37-1.09 0 0-1.654-1.79-2.067-2.996-.503-1.47-.83-4.024-.253-4.654.49-.534 1.554-.714 1.63 1.44l.09 2.54c.6.88 3.48 4.58 3.48 4.58" style="fill:url(#f);fill-rule:nonzero;stroke:#563e37;stroke-width:.5" transform="matrix(-1 0 0 1 127.57 -1.126)"/><path d="M109.502 100.544c.193-.004.176.432.19.624l.269 3.917a.35.35 0 0 1-.068.217l-3.012 4.07a.352.352 0 0 1-.563-.416l2.94-3.975.003-3.973c0-.194.047-.46.24-.464z" style="fill:#563e37;fill-rule:nonzero"/><path d="M107.606 103.854c.194.009.27.213.25.406l-.062.586c-.025.231-.058.273-.157.424l-2.477 3.773c-.106.162-.387.304-.54.187s.002-.264.12-.417c.099-.132 2.05-2.48 2.576-3.923.132-.36.14-.516.148-.68.008-.194-.051-.365.142-.356" style="fill:#563e37;fill-rule:nonzero"/><path d="M64.062 8.865c-12.141 0-15.75 8.567-15.75 21.603 0 13.04 9.85 17.734 15.75 17.734s15.626-4.818 15.626-17.855c0-13.04-3.484-21.482-15.626-21.482" style="fill:#70534a;fill-rule:nonzero"/><path d="M66.193 36.413a8.4 8.4 0 0 1-2.193.326c-.62 0-1.42-.106-2.193-.326-.33-.096-.458.22-.341.429.246.432 1.232 1.302 2.534 1.302s2.288-.87 2.534-1.302c.121-.21-.011-.521-.341-.43z" style="fill:#563e37;fill-rule:nonzero"/><path d="M55.137 29.945s2.511 2.184 5.013 0m12.713 0s-2.511 2.184-5.013 0" style="fill:none;stroke:#2f2f2f;stroke-width:1.08;stroke-miterlimit:4"/><path d="M68.566 40.257s-3.044.655-4.566.655-4.566-.655-4.566-.655c-.524 0-.749.35-.402.878.483.737 2.283 2.157 4.968 2.157s4.485-1.42 4.968-2.157c.347-.528.122-.878-.402-.878" style="fill:#513f35;fill-rule:nonzero"/><path d="M94.066 27.778c2.609-2.071 6.263-3.817 11.41-3.919 0 0 .245-.01.358-.01.102 0 .357.01.357.01 3.72.105 6.772 1.059 9.211 2.384a11.7 11.7 0 0 1 2.271.978c.411.235.784.496 1.154.791.076.061.357.216.382.309.029.104-.215-.016-.323-.025-.155-.013-.312-.024-.467-.044l-.051-.006A18 18 0 0 1 120 29.772q.406.243.804.542c.328.248.597.553.855.87.089.11.181.217.258.336.049.075.231.215.143.225-.164.019-.362-.068-.54-.125.49.69.87 1.344 1.145 1.916a22 22 0 0 1 1.843 5.752c.584.781 1.059 1.632 1.146 2.468.014.129-.201-.164-.306-.239-.195-.14-.401-.262-.602-.393.108 1.251.098 2.383.032 3.351.37.45.919 1.038.984 1.631.005.054-.099-.045-.147-.069a2.6 2.6 0 0 1-.381-.219 6 6 0 0 1-.537-.438c-.182 1.626-.491 2.598-.491 2.598s-.214-.224-.622-.541a4.4 4.4 0 0 0-.919-.531c.641 2.894 1.186 7.523 0 9.525-1.93-1.619-4.557-7.162-5.274-16.657-.656.574-1.323 1.09-1.899 1.334.042.174.083.348.138.511q.093.282.228.545c.049.092.263.284.16.268-.25-.038-.63-.422-.852-.559a6.2 6.2 0 0 0-1.417-.665 14 14 0 0 1-1.466-.161c.181.606.328 1.224.381 1.854.019.224.042.875-.13 1.032l-.177-.239q-.168-.24-.34-.477c-.327-.452-.653-.901-1.03-1.314-.7-.768-1.424-1.493-2.227-2.113-.775-.352-1.551-.702-2.371-.954-1.09-.336-2.211-.382-3.324-.585a7 7 0 0 1-.578-.133l-.335.015c.635 1.536.848 3.238.358 4.828a7.3 7.3 0 0 1-.959 1.986c-.031.045-.332.485-.412.452-.229-.096-.574-.838-.718-1.047-.539-.785-1.112-1.593-1.792-2.266-1.251-1.241-2.759-2.056-4.307-2.808.095 5.761-1.667 13.544-5.32 17.153-.942-2.112-.797-6.926 0-9.525 0 0-.49.194-.918.531-.398.317-.623.541-.623.541s-.692-2.59-.702-5.863c-.184.162-.516.577-.725.61-.061.01.011-.124.018-.186q.027-.224.065-.446.083-.518.227-1.023c.13-.452.315-.875.532-1.282.221-2.067.793-4.222 2.002-6.067a17 17 0 0 1-.711-.071 3.8 3.8 0 0 1-.854-.198c-.036-.013-.225-.056-.237-.094 0 0 .523-.253.603-.296.661-.351 1.313-.748 1.955-1.135.335-.203.676-.43 1.013-.673a22 22 0 0 1 2.125-2.35 2.6 2.6 0 0 1-.601-.68c-.192-.314-.372-.676-.416-1.047-.015-.126.072-.448.286-.407.567.109.823.929 1.438 1.068.156.035.376-.005.587-.06" style="fill:#232020;fill-rule:nonzero" transform="translate(-40.273 -17.428)scale(.98477)"/><defs><linearGradient id="a" x1="0" y1="0" x2="1" y2="0" gradientUnits="userSpaceOnUse" gradientTransform="translate(36.734 110.679)scale(74.096)"><stop offset="0" style="stop-color:#70534a;stop-opacity:1"/><stop offset="1" style="stop-color:#70534a;stop-opacity:1"/></linearGradient><linearGradient id="b" x1="0" y1="0" x2="1" y2="0" gradientUnits="userSpaceOnUse" gradientTransform="translate(55.953 106.663)scale(35.638)"><stop offset="0" style="stop-color:#70534a;stop-opacity:1"/><stop offset="1" style="stop-color:#70534a;stop-opacity:1"/></linearGradient><linearGradient id="c" x1="0" y1="0" x2="1" y2="0" gradientUnits="userSpaceOnUse" gradientTransform="rotate(55.76 -85.068 69.645)scale(11.062)"><stop offset="0" style="stop-color:#70534a;stop-opacity:1"/><stop offset="1" style="stop-color:#70534a;stop-opacity:1"/></linearGradient><linearGradient id="d" x1="0" y1="0" x2="1" y2="0" gradientUnits="userSpaceOnUse" gradientTransform="translate(12.324 104.168)scale(17.311)"><stop offset="0" style="stop-color:#70534a;stop-opacity:1"/><stop offset="1" style="stop-color:#70534a;stop-opacity:1"/></linearGradient><linearGradient id="e" x1="0" y1="0" x2="1" y2="0" gradientUnits="userSpaceOnUse" gradientTransform="rotate(55.76 -85.068 69.645)scale(11.062)"><stop offset="0" style="stop-color:#70534a;stop-opacity:1"/><stop offset="1" style="stop-color:#70534a;stop-opacity:1"/></linearGradient><linearGradient id="f" x1="0" y1="0" x2="1" y2="0" gradientUnits="userSpaceOnUse" gradientTransform="translate(12.324 104.168)scale(17.311)"><stop offset="0" style="stop-color:#70534a;stop-opacity:1"/><stop offset="1" style="stop-color:#70534a;stop-opacity:1"/></linearGradient></defs></svg>
