<?xml version='1.0' encoding='UTF-8'?>
<svg xmlns="http://www.w3.org/2000/svg" version="1.1" id="svg6" viewBox="0 0 128 128">
  <defs id="defs10"/>
  <g aria-label="C" id="text4" style="line-height:1.25;fill:#40c0e7">
    <path d="m 69.040013,119.92 c 15.52,0 29.6,-6.56 38.399997,-19.04 1.12,-1.600001 1.44,-3.200001 1.44,-4.800001 0,-5.12 -3.84,-8 -8,-8 -2.399997,0 -4.319997,0.64 -6.239997,3.2 -5.12,6.72 -12.96,13.280001 -25.6,13.280001 -16.64,0 -30.72,-12.000001 -30.72,-32.800001 0,-23.2 16.32,-45.44 32.8,-45.44 8.64,0 13.6,2.72 16.96,6.24 v 1.12 c 0,3.36 3.2,6.4 7.52,6.4 4.479997,0 7.999997,-3.68 7.999997,-8 v -10.24 c 0,-4 -3.04,-7.36 -7.359997,-7.36 -2.24,0 -3.84,0.96 -4.8,1.92 -4.8,-2.88 -12,-5.6 -19.2,-5.6 -24.48,0 -49.92,28.96 -49.92,60.96 0,30.400001 21.28,48.160001 46.72,48.160001 z" style="text-align:center;text-anchor:middle" id="path12"/>
  </g>
</svg>
