<?xml version='1.0' encoding='utf-8'?>
<svg xmlns="http://www.w3.org/2000/svg" width="128" height="128" version="1.1" id="svg12" viewBox="0 0 128 128">
  <defs id="defs16" />
  <path d="M116 128H12c-6.6 0-12-5.4-12-12V12C0 5.4 5.4 0 12 0h104c6.6 0 12 5.4 12 12v104c0 6.6-5.4 12-12 12z" fill="#1bb7fc" id="path2" />
  <path d="M124.48 3.52L3.52 124.48C5.7 126.65 8.7 128 12 128h104c6.6 0 12-5.4 12-12V12c0-3.3-1.35-6.3-3.52-8.48z" fill="#1b79fc" id="path4" />
  <path d="M112 101c0 6.63-5.37 12-12 12H27.89c-6.6 0-12-5.4-12-12V28.9c0-6.6 5.4-12 12-12H100c6.63 0 12 5.37 12 12z" fill="#1ba2fc" id="path6" />
  <g aria-label="3" id="text10" style="line-height:1.25;text-align:center;text-anchor:middle;fill:#ffffff;stroke-width:1.102">
    <path d="m 63.3489,99.719004 c 9.736728,0 22.330974,-6.244206 22.330974,-22.013472 0,-7.196712 -2.963352,-13.335084 -8.890056,-17.250942 4.550862,-3.598356 7.302546,-8.46672 7.302546,-14.181756 0,-9.630894 -9.101724,-17.039274 -20.849298,-17.039274 -6.032538,0 -11.218404,2.11668 -14.28759,4.021692 -3.598356,2.222514 -4.339194,4.127526 -4.339194,5.82087 0,2.434182 1.58751,5.080032 5.080032,5.080032 1.375842,0 2.010846,-0.52917 3.280854,-1.375842 1.799178,-1.164174 4.974198,-3.280854 10.265898,-3.280854 6.87921,0 10.689234,3.492522 10.689234,6.773376 0,5.080032 -6.561708,9.419226 -12.276744,9.419226 -2.963352,0 -5.185866,2.222514 -5.185866,5.080032 0,2.751684 2.222514,5.080032 5.080032,5.080032 3.915858,0 13.864254,2.11668 13.864254,11.853408 0,8.149218 -6.561708,11.853408 -12.276744,11.853408 -7.196712,0 -10.795068,-4.76253 -11.853408,-6.667542 -0.952506,-1.693344 -2.328348,-2.751684 -4.445028,-2.751684 -2.857518,0 -5.080032,2.11668 -5.080032,4.868364 0,0.635004 0.317502,2.010846 0.846672,3.17502 3.069186,6.773376 11.64174,11.535906 20.743464,11.535906 z" id="path18" />
  </g>
</svg>