<?xml version="1.0" encoding="UTF-8" standalone="no"?>
<svg
   width="100%"
   height="100%"
   viewBox="0 0 128 128"
   version="1.1"
   xml:space="preserve"
   style="fill-rule:evenodd;clip-rule:evenodd;stroke-linejoin:round;stroke-miterlimit:2"
   id="svg19"
   xmlns="http://www.w3.org/2000/svg"
   xmlns:svg="http://www.w3.org/2000/svg"><defs
   id="defs23" />
    <path
   d="M128,12.8C128,5.735 122.265,0 115.2,0L12.8,0C5.735,0 0,5.735 0,12.8L0,115.2C0,122.265 5.735,128 12.8,128L115.2,128C122.265,128 128,122.265 128,115.2L128,12.8Z"
   style="fill:rgb(28,97,146)"
   id="path2" />
    <g
   transform="translate(12.5363,82.7006)"
   id="g7">
        <g
   id="text837">
            <g
   aria-label="a"
   id="text4"
   style="fill:#ffffff"><path
     d="m 21.231991,0.87105603 c 1.524348,0 2.613168,-1.30658405 2.613168,-2.72205013 V -24.498451 c -1.415466,-0.653292 -4.790808,-2.340963 -8.71056,-2.340963 -8.0572688,0 -13.0658409,7.893945 -13.0658409,15.406804 0,7.0228888 4.5186031,11.75925601 10.5071129,11.75925601 2.177641,0 4.518604,-0.59885102 6.206275,-2.39540411 v 0.7621741 c 0,1.306584 0.979938,2.17764003 2.449845,2.17764003 z M 12.956958,-4.7363672 c -3.4842237,0 -5.6074227,-2.286522 -5.6074227,-6.8051248 0,-5.335219 3.1031367,-10.28935 7.8939457,-10.28935 1.143261,0 2.504286,0.272205 3.429783,0.653292 l -0.163323,14.2091018 c -1.143261,1.034379 -3.26646,2.232081 -5.552983,2.232081 z"
     id="path25" /></g>
        </g>
    </g>
    <g
   transform="translate(49.0017,82.6578)"
   id="g12">
        <g
   id="text841">
            <g
   aria-label="b"
   id="text9"
   style="fill:#ffffff"><path
     d="m 6.4318518,0.27723499 c 1.441622,0 2.384221,-0.99804597 2.384221,-1.66340999 V -1.718857 C 10.035907,-0.83170498 12.697363,0 14.804349,0 c 7.319003,0 12.198339,-4.8793359 12.198339,-14.582561 0,-8.150708 -4.657548,-12.309233 -10.035906,-12.309233 -2.938691,0 -5.5447,0.831705 -7.8180272,3.32682 v -10.867612 c 0,-1.497069 -1.275281,-2.495115 -2.606009,-2.495115 -1.4416219,0 -2.6614559,0.998046 -2.6614559,2.495115 v 32.2147061 c 0,1.44162192 1.10894,2.49511489 2.5505619,2.49511489 z M 14.41622,-5.2120179 c -2.051539,0 -4.103078,-0.55447 -5.2674652,-0.9425989 v -9.5923312 c 0,-3.215926 3.4377142,-5.821934 7.7071332,-5.821934 2.883244,0 4.934782,2.217879 4.934782,6.986321 0,5.6555942 -1.940645,9.3705431 -7.37445,9.3705431 z"
     id="path28" /></g>
        </g>
    </g>
    <g
   transform="translate(85.5269,84.1205)"
   id="g17">
        <g
   id="text845">
            <g
   aria-label="c"
   id="text14"
   style="fill:#ffffff"><path
     d="m 15.105024,0.35402401 c 4.956337,0 9.027613,-2.77318811 11.092753,-5.54637611 0.472032,-0.5900401 0.649044,-1.2390841 0.649044,-2.0061361 0,-1.357092 -1.239084,-2.5961761 -2.773188,-2.5961761 -1.121076,0 -2.006136,0.7670521 -2.537172,1.4751001 -1.357092,1.829124 -3.186216,3.3042241 -6.549445,3.3042241 -3.599244,0 -7.1984878,-2.7731881 -7.1984878,-7.6705199 0,-5.605381 4.0712758,-11.033749 7.8475318,-11.033749 2.36016,0 3.481237,1.121076 4.543309,2.301156 0.767052,0.944064 1.239084,1.18008 2.242152,1.18008 1.534104,0 2.832192,-1.18008 2.832192,-2.714184 0,-0.708048 -0.236016,-1.357092 -0.88506,-2.06514 -2.242152,-2.65518 -4.4253,-4.071276 -8.791597,-4.071276 -7.0214758,0 -13.3349039,8.437572 -13.3349039,16.521121 0,7.1984879 5.6053801,12.92187601 12.8628719,12.92187601 z"
     id="path31" /></g>
        </g>
    </g>
</svg>
