<?xml version='1.0' encoding='utf-8'?>
<svg xmlns="http://www.w3.org/2000/svg" xmlns:ns1="http://www.w3.org/1999/xlink" width="128" height="128" version="1.1" id="svg50" viewBox="0 0 128 128">
  <defs id="defs8">
    <linearGradient id="a">
      <stop offset="0" stop-color="#fff" stop-opacity=".705" id="stop2" />
      <stop offset="1" stop-color="#fff" stop-opacity=".393" id="stop4" />
    </linearGradient>
    <linearGradient ns1:href="#a" id="b" x1="64" y1="17.286" x2="64" y2="110.54" gradientUnits="userSpaceOnUse" />
  </defs>
  <g stroke-width="3.78" stroke-opacity="0.393" id="g40">
    <path d="m 18.451,19.81 c -0.36,0.06 -0.762,0.107 -1.11,0.169 C 7.181,21.767 2.146,24.635 2.146,24.635 A 1.89,1.89 0 0 0 1.203,26.27 v 1.32 z" fill="#1e1e82" paint-order="fill markers stroke" id="path10" />
    <path d="M 36.63,18.48 C 29.359,18.438 23.353,19.01 18.451,19.81 L 1.203,27.59 v 9.474 L 42.09,18.625 A 140.43,140.43 0 0 0 36.63,18.48 Z" fill="#1e8282" paint-order="fill markers stroke" id="path12" />
    <path d="M 42.09,18.625 1.203,37.065 v 9.476 l 58.1,-26.203 C 53.016,19.397 47.283,18.858 42.09,18.625 Z" fill="#1e821e" paint-order="fill markers stroke" id="path14" />
    <path d="M 59.303,20.338 1.203,46.54 v 9.477 L 75.051,22.708 A 176.6,176.6 0 0 1 64.328,21.149 194.258,194.258 0 0 0 59.303,20.337 Z" fill="#82821e" paint-order="fill markers stroke" id="path16" />
    <path d="M 75.05,22.709 1.204,56.018 v 9.474 l 92.79,-41.85 c -5.498,0.126 -11.8,-0.12 -18.942,-0.933 z" fill="#821e1e" paint-order="fill markers stroke" id="path18" />
    <path d="m 123.775,17.643 c -0.371,0.221 -4.538,2.632 -13.796,4.396 -4.28,0.815 -9.591,1.457 -15.987,1.604 L 1.203,65.493 v 9.478 L 124.908,19.176 Z" fill="#811e82" paint-order="fill markers stroke" id="path20" />
    <path d="M 124.908,19.176 1.203,74.97 v 9.474 L 126.797,27.8 v -6.069 l -1.889,-2.556 z" fill="#1e1e82" paint-order="fill markers stroke" id="path22" />
    <path d="M 126.797,27.8 1.203,84.446 v 9.477 L 126.797,37.276 v -9.474 z" fill="#1e8282" paint-order="fill markers stroke" id="path24" />
    <path d="M 126.797,37.275 1.203,93.922 v 9.476 L 126.797,46.754 Z" fill="#1e821e" paint-order="fill markers stroke" id="path26" />
    <path d="M 126.797,46.754 1.203,103.398 v 5.252 a 1.89,1.89 0 0 0 2.994,1.534 c 0,0 3.947,-2.904 13.487,-4.909 0.208,-0.043 0.434,-0.084 0.648,-0.127 l 108.465,-48.92 z" fill="#82821e" paint-order="fill markers stroke" id="path28" />
    <path d="m 126.797,56.229 -108.465,48.92 c 5.93,-1.188 13.848,-1.96 24.018,-1.358 L 126.797,65.703 V 56.23 Z" fill="#821e1e" paint-order="fill markers stroke" id="path30" />
    <path d="M 126.797,65.703 42.35,103.791 c 4.982,0.295 10.51,0.926 16.595,1.992 l 67.852,-30.601 z" fill="#811e82" paint-order="fill markers stroke" id="path32" />
    <path d="m 126.797,75.182 -67.852,30.601 c 1.528,0.268 3.079,0.554 4.678,0.88 3.656,0.742 7.116,1.325 10.42,1.788 l 52.754,-23.795 z" fill="#1e1e82" paint-order="fill markers stroke" id="path34" />
    <path d="m 126.797,84.656 -52.754,23.795 c 6.674,0.936 12.652,1.349 17.945,1.383 l 34.809,-15.701 z" fill="#1e8282" paint-order="fill markers stroke" id="path36" />
    <path d="m 126.797,94.133 -34.809,15.701 c 7.776,0.05 14.105,-0.695 19.1,-1.729 10.078,-2.085 14.916,-5.474 14.916,-5.474 a 1.89,1.89 0 0 0 0.793,-1.54 z" fill="#1e821e" paint-order="fill markers stroke" id="path38" />
  </g>
  <path style="line-height:normal;font-variant-ligatures:normal;font-variant-position:normal;font-variant-caps:normal;font-variant-numeric:normal;font-variant-alternates:normal;font-variant-east-asian:normal;font-feature-settings:normal;text-indent:0;text-align:start;text-decoration-line:none;text-decoration-style:solid;text-decoration-color:#000;text-transform:none;text-orientation:mixed;shape-padding:0;isolation:auto;mix-blend-mode:normal" d="M124.852 17.287a1.89 1.89 0 0 0-.928.276s-4.245 2.628-13.945 4.476c-9.701 1.848-24.688 2.81-45.65-.889-21.37-3.77-36.827-2.96-46.987-1.171-10.16 1.788-15.196 4.656-15.196 4.656a1.89 1.89 0 0 0-.943 1.635v82.38a1.89 1.89 0 0 0 2.994 1.534s3.947-2.904 13.487-4.909c9.54-2.004 24.492-2.972 45.939 1.387 21.89 4.45 37.387 3.53 47.465 1.443 10.078-2.085 14.916-5.474 14.916-5.474a1.89 1.89 0 0 0 .793-1.54V19.177a1.89 1.89 0 0 0-1.945-1.889z" color="#000" white-space="normal" overflow="visible" fill="url(#b)" fill-rule="evenodd" stroke-width="3.78" stroke-linecap="round" stroke-linejoin="round" paint-order="fill markers stroke" id="path42" />
  <path d="M3.092 26.27S21.66 15.54 64 23.012c42.34 7.472 60.908-3.835 60.908-3.835v81.917s-17.57 12.525-60.908 3.716C20.662 96 3.092 108.651 3.092 108.651z" fill="none" fill-rule="evenodd" stroke="#000" stroke-width="3.78" stroke-linecap="round" stroke-linejoin="round" stroke-opacity=".393" paint-order="fill markers stroke" id="path44" />
  <g aria-label="?" id="text48" style="line-height:25;fill:#ffffff;stroke:#000000;stroke-opacity:0.721">
    <path d="m 57.728,76.32 c 1.088,0 2.688,-1.216 4.352,-2.688 0.064,-0.064 3.2,-2.88 5.824,-5.312 2.24,-2.048 6.976,-5.568 6.976,-12.608 0,-8.064 -5.76,-13.44 -14.272,-13.44 -4.928,0 -8.832,2.816 -10.624,4.8 -0.64,0.704 -1.6,1.92 -1.6,2.944 0,1.856 1.472,3.072 3.072,3.072 0.768,0 1.536,-0.256 2.048,-0.832 1.6,-1.792 3.776,-3.968 7.104,-3.968 6.144,0 8.32,3.84 8.32,7.424 0,2.624 -2.56,5.824 -5.568,8.768 -3.328,3.264 -6.016,5.184 -7.552,6.528 -0.704,0.576 -1.088,1.472 -1.088,2.304 0,1.664 1.344,3.008 3.008,3.008 z m -1.984,10.176 c 1.984,0 3.776,-1.856 3.776,-4.16 0,-1.984 -1.408,-3.584 -3.328,-3.584 -1.92,0 -3.776,1.984 -3.776,4.096 0,2.048 1.344,3.648 3.328,3.648 z" id="path54" />
  </g>
</svg>