<?xml version="1.0" encoding="UTF-8"?>
<svg clip-rule="evenodd" fill-rule="evenodd" stroke-linejoin="round" stroke-miterlimit="2" version="1.1" viewBox="0 0 128 128" xml:space="preserve" xmlns="http://www.w3.org/2000/svg"><g transform="translate(-202.67 -202.67)"><g transform="matrix(.256 0 0 .256 198.4 198.4)"><path d="m516.67 83.343c0-36.794-29.881-66.676-66.667-66.676h-366.67c-36.786 0-66.667 29.882-66.667 66.676v366.65c0 36.794 29.881 66.677 66.667 66.677h366.67c36.786 0 66.667-29.883 66.667-66.677z" fill="#ed6c30"/></g><path d="m260.58 264.02h42.293c0.416 0 0.8215-0.17049 1.1095-0.45849s0.4585-0.704 0.4585-1.1095v-35.498c0-0.416-0.1705-0.8215-0.4585-1.1095-0.288-0.2985-0.6935-0.4585-1.1095-0.4585h-42.293c-0.416 0-0.82125 0.16-1.1092 0.4585-0.288 0.288-0.45875 0.6935-0.45875 1.1095v35.498c0 0.40551 0.17075 0.82151 0.45875 1.1095 0.2985 0.288 0.69325 0.45849 1.1092 0.45849zm32.843-23.413-0.4055 0.17075h-22.57l-0.4055-0.17075-0.1705-0.40525v-4.4055l0.1705-0.40525 0.4055-0.17075h22.57l0.4055 0.17075 0.1705 0.40525v4.4055zm0.16 8.768v4.4052l-0.17075 0.4055-0.40524 0.1705h-22.56l-0.4055-0.1705-0.1705-0.4055v-4.4052l0.1705-0.40524 0.4055-0.17076h22.57l0.4055 0.17076zm15.925 18.4h-55.328c-0.416 0-0.82125 0.16-1.1092 0.45875-0.288 0.288-0.45876 0.69324-0.45876 1.1092v8.2132c0 0.416 0.17076 0.82151 0.45876 1.1095 0.29849 0.29849 0.69324 0.45849 1.1092 0.45849h32.117v3.7655h-32.117c-0.416 0-0.82125 0.16-1.1092 0.45849-0.288 0.29875-0.45876 0.704-0.45876 1.1095v6.72c0 0.40525 0.17076 0.82125 0.45876 1.1092 0.29849 0.29875 0.69324 0.45875 1.1092 0.45875h32.117v7.2425h-3.8185c-0.45875 0-0.896 0.20275-1.1948 0.55475s-0.42675 0.82125-0.352 1.28l1.5148 9.0027c0.128 0.75725 0.78924 1.3012 1.5465 1.3012h8.864c0.0747 0 0.90675 0 2.016-0.256 1.0988-0.27725 2.5175-0.78925 3.648-2.0372 1.152-1.3015 1.6428-2.816 1.8988-4 0.256-1.1735 0.256-2.0588 0.256-2.1335v-10.965h8.8212c0.416 0 0.8215-0.16 1.1095-0.45876 0.288-0.29849 0.4585-0.70399 0.4585-1.1092v-6.72c0-0.40524-0.1705-0.82124-0.4585-1.1092s-0.6935-0.45875-1.1095-0.45875h-8.8212v-3.7652h8.8212c0.416 0 0.8215-0.17076 1.1095-0.45876s0.4585-0.69324 0.4585-1.1092v-8.2135c0-0.416-0.1705-0.82125-0.4585-1.1092-0.288-0.27724-0.68275-0.44799-1.0988-0.44799z" fill="#fff" fill-rule="nonzero" stroke-width=".256"/><path d="m275.48 296.35h-12.778c-0.416 0-0.82151 0.17075-1.1095 0.45875-0.288 0.2985-0.45849 0.69325-0.45849 1.1092v8.0427c0 0.416 0.17049 0.82125 0.45849 1.1092s0.69351 0.45875 1.1095 0.45875h12.789c0.416 0 0.82124-0.17075 1.1092-0.45875 0.288-0.29875 0.45876-0.69325 0.45876-1.1092v-8.0427c0-0.416-0.17076-0.82125-0.45876-1.1092-0.29849-0.288-0.70399-0.45875-1.12-0.45875zm-49.909-49.621c0.14925 0.384 0.45875 0.704 0.84275 0.87449 0.37325 0.16 0.81049 0.16 1.1945 0.0215l21.76-8.5867c0.384-0.14924 0.6935-0.45875 0.864-0.84275 0.16-0.384 0.17075-0.82124 0.0215-1.2052l-3.744-9.4827c-0.32-0.79999-1.2268-1.1945-2.0375-0.87449l-21.76 8.576c-0.81049 0.30925-1.2052 1.2265-0.88524 2.0372zm27.371 10.538-3.744-9.4825c-0.16-0.40551-0.448-0.704-0.84275-0.864-0.384-0.17075-0.81075-0.1815-1.2052-0.0215l-24.448 9.728c-0.81075 0.32-1.1948 1.2268-0.88551 2.0375l3.744 9.4825c0.16 0.39475 0.448 0.704 0.84275 0.864 0.384 0.16 0.81075 0.17075 1.2052 0.0215l5.5895-2.2188v41.835c0 0.416 0.16 0.82124 0.4585 1.1092 0.288 0.288 0.6935 0.45875 1.1095 0.45875h10.133c0.416 0 0.82125-0.17075 1.1092-0.45875 0.28799-0.288 0.45875-0.69324 0.45875-1.1092v-47.125l5.5787-2.2185c0.82124-0.33075 1.216-1.248 0.896-2.0375z" fill="#fff" fill-rule="nonzero" stroke-width=".256"/></g></svg>
