<?xml version="1.0" encoding="UTF-8"?>
<svg clip-rule="evenodd" fill-rule="evenodd" stroke-linejoin="round" stroke-miterlimit="2" version="1.1" viewBox="0 0 128 128" xml:space="preserve" xmlns="http://www.w3.org/2000/svg"><g transform="matrix(.24366 0 0 .24366 -.98202 -4.6847)"><path d="m63.065 362.55c7.043-26.991 29.616-44.506 50.377-39.089 20.76 5.417 31.897 31.729 24.854 58.72s-29.616 44.506-50.377 39.088c-20.76-5.417-31.897-31.729-24.854-58.719z" fill="#fff"/><g fill-rule="nonzero"><path d="m472.17 358.29c12.5 25 7.041 53-12.209 62.625-19.166 9.583-44.875-2.875-57.375-27.834-12.5-24.958-7.041-53 12.167-62.625s44.917 2.834 57.417 27.834z" fill="#fff"/><rect x="127.42" y="257.25" width="284.58" height="77.083" fill="#2f2f2f"/><path d="m521.21 333.83-31.75-5.75c-0.397-7.937-1.386-15.834-2.958-23.625l35.25-5.25c4.828-0.732 8.207-5.293 7.5-10.125-0.75-4.875-5.333-8.125-10.125-7.5l-37.083 5.542c-5.042-16.25-12.417-32.125-22-46.917 4.333-41.75 12.708-154.88-21.209-177.67-27.083-18.167-91.5 49.25-112.21 73.458-4.792 5.583-9.167 10.625-13.167 15.208-14.5-2.208-29.25-3.458-43.958-3.416-14.708-0.042-29.417 1.208-43.958 3.416-4-4.583-8.334-9.625-13.167-15.208-20.75-24.208-85.167-91.625-112.25-73.458-33.958 22.791-25.542 136-21.208 177.71-9.568 14.793-17.055 30.832-22.25 47.667l-42.459-6.25c-4.833-0.625-9.375 2.625-10.083 7.5s2.625 9.375 7.5 10.125l40.75 6.041c-1.292 6.625-2.208 13.209-2.667 19.834-0.041 0.625-0.041 1.291-0.083 1.916l-37.417 6.75c-4.214 0.763-7.309 4.467-7.309 8.75 0 0.531 0.048 1.061 0.143 1.584 0.752 4.217 4.466 7.312 8.75 7.291 0.5 0 1.041-0.041 1.583-0.125l33.833-6.125c0.125 9.042 0.834 18.042 2.292 26.875l-23.75 7.542c-4.647 1.48-7.258 6.516-5.792 11.167 1.174 3.69 4.625 6.214 8.497 6.214 0.921 0 1.835-0.143 2.712-0.423l22.208-7.041c7.167 25.375 21.417 48.791 46.542 67.541 25.208 18.792 56.541 31.542 88.875 38.459 12.25 2.625 44 8.75 77.291 8.75 33.292 0 68.125-6.125 80.417-8.75 32.292-6.917 63.667-19.667 88.875-38.459 24.583-18.333 38.708-41.125 46.042-65.875l17.041 5.417c4.652 1.471 9.69-1.142 11.167-5.792 1.5-4.666-1.083-9.708-5.792-11.166l-18.416-5.834c1.541-9.041 2.375-18.291 2.541-27.583l28.209 5.125c0.541 0.083 1.083 0.125 1.625 0.125 4.208 0 7.958-3.042 8.75-7.292 0.708-4.875-2.5-9.5-7.334-10.375zm-395.88 16.417c-1.041 2.375-2.375 4.875-3.125 7.375-2.333 7.917-3.375 19.458-6.166 29.708-3.209 11.709-8.792 21.834-21.334 23.334-17.833 2.166-26.958-16.75-23.333-32 3-12.584 11.042-22.917 21.667-30.042 6.541-4.375 14.708-9.75 22.583-11.25 3.208-0.583 8-1.875 11.083-0.125 4.25 2.542 0 9.833-1.375 13zm9.5-32.417c-3.75-3.166-4.25-8.708-1.125-12.458 0.792-0.917 19.125-22.458 50.792-17.042 31.625 5.375 41.875 31.75 42.292 32.875 0.365 0.992 0.552 2.04 0.552 3.096 0 4.885-4.001 8.913-8.886 8.946-3.583 0-6.916-2.167-8.291-5.75-0.334-0.875-7.417-18-28.625-21.625-21.334-3.625-33.667 10.333-34.209 10.958-3.208 3.709-8.791 4.167-12.5 1zm256.67-0.833c-0.458-0.542-12.708-14.667-34.083-11.125-21.334 3.5-28.459 20.75-28.75 21.458-1.375 3.459-4.75 5.625-8.292 5.625-1.042 0-2.167-0.208-3.208-0.625-4.513-1.752-6.801-6.89-5.084-11.416 0.417-1.125 10.792-27.417 42.5-32.625 31.709-5.125 49.917 16.458 50.667 17.375 3.125 3.791 2.542 9.375-1.208 12.5-3.792 3.166-9.417 2.625-12.542-1.167zm49.208 93.667c-12.583-1.5-18.125-11.625-21.333-23.334-2.833-10.291-3.833-21.791-6.208-29.708-0.75-2.542-2.084-5-3.125-7.375-1.375-3.167-5.625-10.458-1.292-12.958 3.042-1.75 7.875-0.417 11.083 0.125 7.875 1.458 16.042 6.833 22.584 11.25 10.625 7.166 18.666 17.458 21.666 30.041 3.584 15.25-5.5 34.125-23.375 31.959z" fill="#bdbdbd"/><path d="m149.75 376.58c-0.167 0-1.125 0.042-1.333 0.042-6.292 0.333-10.084 3.292-12.125 5.75-3.334 3.958-4.625 9.25-3.834 15.708 0.792 6.792 3.792 14.084 5.5 17.792 18.75 42.042 74.167 60.875 120.75 60.875 39.917-0.125 69.917-5.583 94.584-17.208 15.375-7.25 27.958-18.125 36.375-31.542 4.833-7.792 8.291-17.083 10.666-28.458 1.375-6.584 0.417-11.834-2.791-15.75-2.75-3.375-6.917-5.25-11.667-5.25-6.375 0-13.125 3.208-19.625 6.333-1.375 0.667-2.625 1.25-3.833 1.792-10.792 4.833-24.375 7.708-36.334 7.708-8.166 0-15.458-1.292-21.166-3.792-1.875-0.791-3.709-1.666-5.542-2.583-3.417-1.625-6.958-3.333-10.875-4.75l-1.125-0.417c-3.708-1.333-8.333-3-13.125-3.625-1.792-0.25-3.458-0.333-5.167-0.333-6.375 0-12.833 1.583-19.625 4.792-1.833 0.875-3.583 1.75-5.333 2.625-6.667 3.333-12.375 6.208-19.5 7.375-4.917 0.833-9.458 1.25-13.417 1.25-2.416 0-4.666-0.167-6.666-0.459-5.917-0.916-11.792-2.541-18-4.208l-1.417-0.375c-5.292-1.417-10.167-2.75-13.333-4.625-0.959-0.583-1.834-1.125-2.709-1.667-4.583-3-10.875-7-19.333-7z" fill="#2f2f2f"/></g><path d="m111.24 211.75c-1.125 1.014-2.713 1.335-4.144 0.837-1.431-0.497-2.477-1.733-2.732-3.226-6.473-39.864-30.511-219.36 92.258-52.555 0.765 1.04 1.004 2.377 0.647 3.618-0.356 1.241-1.268 2.246-2.469 2.722-14.066 5.77-54.823 23.709-83.56 48.604zm315.3-6.177c1.126 1.021 2.72 1.345 4.155 0.845s2.483-1.744 2.731-3.244c5.9-37.342 25.939-194.45-81.303-46.697-0.752 1.037-0.985 2.363-0.632 3.595 0.354 1.231 1.254 2.232 2.442 2.713 12.746 5.337 47.61 21.058 72.607 42.788z" fill="#f9c3d5"/><path d="m225.58 151.21s7.946 84.154 20.071-2.421m67.804 2.421s-14.091 79.642-18.783-2.291m-33.775-1.029s9.167 133 19.529 0.087" fill="#616161"/></g></svg>
