<?xml version="1.0" encoding="UTF-8" standalone="no"?>
<svg
   width="128"
   height="128"
   version="1.1"
   id="svg2288"
   xmlns="http://www.w3.org/2000/svg"
   xmlns:svg="http://www.w3.org/2000/svg">
  <defs
     id="defs2292" />
  <g
     transform="matrix(5.71429,0,0,7.05882,-18.857205,-24.23525)"
     id="g4"
     style="clip-rule:evenodd;fill:#9531a6;fill-rule:evenodd;stroke-linejoin:round;stroke-miterlimit:2">
    <path
       d="M 25,6.267 C 25,5.016 23.745,4 22.2,4 H 6.8 C 5.255,4 4,5.016 4,6.267 V 18.733 C 4,19.984 5.255,21 6.8,21 h 15.4 c 1.545,0 2.8,-1.016 2.8,-2.267 z"
       style="fill:#9531a6"
       id="path2" />
  </g>
  <g
     transform="translate(-2.273515,1.047149)"
     id="g12"
     style="clip-rule:evenodd;fill:#ca98d3;fill-rule:evenodd;stroke-linejoin:round;stroke-miterlimit:2">
    <path
       d="M 30.915,7.958 C 25.554,8.085 15,8 12.066,18.857 c -0.581,2.15 -1.578,5.57 0.285,7.423 1.433,1.425 3.932,0.985 5.373,-0.162 1.534,-1.221 2.286,-3.205 3.245,-4.857 1.114,-1.917 2.599,-3.655 4.34,-5.034 1.627,-1.289 3.482,-2.052 5.444,-2.683 1.362,-0.438 3.297,-0.632 3.969,-1.979 C 36,9 32.576,7.869 30.915,7.958 Z"
       style="fill:#ca98d3"
       id="path10" />
  </g>
  <g
     aria-label="ID"
     id="text2286"
     style="line-height:65.7904px;fill:#ffffff;stroke-width:0.888492">
    <path
       d="m 18.946545,98.632187 h 25.158334 c 2.94742,0 5.157985,-2.31583 5.157985,-5.26325 0,-2.94742 -2.000035,-5.26325 -5.157985,-5.26325 h -7.263285 v -49.47455 h 7.263285 c 2.94742,0 5.157985,-2.421095 5.157985,-5.368515 0,-2.94742 -2.210565,-5.157985 -5.157985,-5.157985 H 18.946545 c -2.94742,0 -5.26325,2.210565 -5.26325,5.157985 0,2.94742 2.31583,5.368515 5.26325,5.368515 h 7.368549 v 49.47455 h -7.368549 c -2.94742,0 -5.26325,2.31583 -5.26325,5.26325 0,2.94742 2.31583,5.26325 5.26325,5.26325 z"
       style="stroke-width:0.33585"
       id="path11" />
    <path
       d="m 77.473956,99.895367 c 20.316145,0 36.842754,-10.000175 36.842754,-32.947945 0,-33.158475 -31.368974,-38.842785 -48.211374,-38.842785 -2.94742,0 -5.26325,2.210565 -5.26325,5.157985 v 59.685255 c 0,2.31583 1.789505,4.42113 4.00007,5.157985 0.947385,0.315795 6.842225,1.789505 12.6318,1.789505 z m 0,-10.5265 c -2.1053,0 -4.315865,-0.315795 -6.10537,-0.63159 v -49.89561 c 17.579255,1.368445 32.421624,8.63173 32.421624,28.105755 0,15.052895 -10.315974,22.421445 -26.316254,22.421445 z"
       style="stroke-width:0.33585"
       id="path13" />
  </g>
</svg>
