<?xml version="1.0" encoding="UTF-8"?>
<svg width="128" height="128" version="1.1" viewBox="0 0 128 128" xmlns="http://www.w3.org/2000/svg">
 <path d="M50.862 31.976S22.284 61.081 15.658 76.968L6.03 69.307c7.644-16.633 35.205-46.551 35.205-46.551z" fill="#dbe6ea" stroke-width="1.397"/>
 <path d="m64 22.756-22.684-0.157s-4.569 18.199-4.569 88.567c0 0 14.372 4.47 27.253 4.47" fill="#ecf2f4" stroke-width="1.397"/>
 <g transform="translate(6.03 -8.198)">
  <ellipse cx="42.915" cy="111.32" rx="8.407" ry="2.949" fill="#dbe6ea" stroke-width="2.143" paint-order="stroke fill markers"/>
  <path d="M34.508 94.512h16.814v16.814H34.508z" fill="#dbe6ea" stroke-width="1.601" paint-order="stroke fill markers"/>
  <ellipse cx="42.915" cy="97.455" rx="8.407" ry="1.676" fill="#cbdbe1" stroke-width="1.615" paint-order="stroke fill markers"/>
  <path d="M34.508 94.512h16.814v2.944H34.508z" fill="#cbdbe1" stroke-width=".67" paint-order="stroke fill markers"/>
 </g>
 <path d="m77.138 31.976s28.578 29.105 35.204 44.992l9.628-7.661c-7.644-16.633-35.205-46.551-35.205-46.551z" fill="#dbe6ea" stroke-width="1.397"/>
 <path d="M64 22.756l22.684-.157s4.569 18.199 4.569 88.567c0 0-14.372 4.47-27.253 4.47" fill="#ecf2f4" stroke-width="1.397"/>
 <g stroke-width="1.222">
  <path d="M64 13.385c-8.327 0-9.902 1.598-9.902 1.598C53.076 27.755 64 44.785 64 44.785z" fill="#454545"/>
  <path d="M54.031 18.197S57.851 16.74 64 16.74v-4.376c-6.15 0-9.902 1.348-9.902 1.348z" fill="#919fbc"/>
  <path d="M54.098 14.983C53.076 27.755 64 44.785 64 44.785s-7.834-3.354-13.246-12.379l.907-4.925-3.156-4.833s1.64-7.267 5.593-8.936z" fill="#cacaca"/>
  <path d="M64 13.385c8.327 0 9.902 1.598 9.902 1.598C74.924 27.755 64 44.785 64 44.785z" fill="#454545"/>
  <path d="M73.969 18.197S70.149 16.74 64 16.74v-4.376c6.15 0 9.902 1.348 9.902 1.348z" fill="#919fbc"/>
  <path d="M73.902 14.983C74.924 27.755 64 44.785 64 44.785s7.834-3.354 13.246-12.379l-.907-4.925 3.156-4.833s-1.64-7.267-5.593-8.936z" fill="#cacaca"/>
 </g>
 <g transform="matrix(-1 0 0 1 121.97 -8.198)">
  <ellipse cx="42.915" cy="111.32" rx="8.407" ry="2.949" fill="#dbe6ea" stroke-width="2.143" paint-order="stroke fill markers"/>
  <path d="M34.508 94.512h16.814v16.814H34.508z" fill="#dbe6ea" stroke-width="1.601" paint-order="stroke fill markers"/>
  <ellipse cx="42.915" cy="97.455" rx="8.407" ry="1.676" fill="#cbdbe1" stroke-width="1.615" paint-order="stroke fill markers"/>
  <path d="M34.508 94.512h16.814v2.944H34.508z" fill="#cbdbe1" stroke-width=".67" paint-order="stroke fill markers"/>
 </g>
 <g transform="translate(45.908 -19.063) scale(.74772)">
  <ellipse cx="42.915" cy="111.32" rx="8.407" ry="2.949" fill="#dbe6ea" stroke-width="2.143" paint-order="stroke fill markers"/>
  <path d="M34.508 94.512h16.814v16.814H34.508z" fill="#dbe6ea" stroke-width="1.601" paint-order="stroke fill markers"/>
  <ellipse cx="42.915" cy="97.455" rx="8.407" ry="1.676" fill="#cbdbe1" stroke-width="1.615" paint-order="stroke fill markers"/>
  <path d="M34.508 94.512h16.814v2.944H34.508z" fill="#cbdbe1" stroke-width=".67" paint-order="stroke fill markers"/>
 </g>
 <g transform="rotate(-15 43.913 27.442)">
  <path d="m67.388 52.647h9.292c0.65095 0 1.175 0.52405 1.175 1.175v1.243c0 0.65095-0.52405 1.175-1.175 1.175h-9.292c-0.65095 0-1.175-0.52405-1.175-1.175v-1.243c0-0.65095 0.52405-1.175 1.175-1.175z" fill="#1433b4" stroke-width=".972" style="paint-order:stroke fill markers"/>
  <g fill="#fff" stroke-width=".041" aria-label="Dr E. Brown">
   <path d="m68.009 55.006c0.31517 0 0.57155-0.15514 0.57155-0.51113 0-0.5144-0.48663-0.60258-0.74791-0.60258-0.04572 0-0.08165 0.03429-0.08165 0.08002v0.92591c0 0.03593 0.02776 0.06859 0.06205 0.08002 0.0147 0.0049 0.10614 0.02776 0.19596 0.02776zm0-0.1633c-0.03266 0-0.06695-0.0049-0.09471-0.0098v-0.77404c0.27271 0.02123 0.50296 0.13391 0.50296 0.43601 0 0.23352-0.16003 0.34783-0.40825 0.34783z"/>
   <path d="m68.841 54.996c0.03919 0 0.07838-0.03593 0.07838-0.07512l0.0016-0.31027c0-0.06695 0.0065-0.12411 0.05552-0.18616 0.02776-0.03756 0.08655-0.09145 0.13064-0.09145 0.02776 0 0.03593 0.0098 0.03593 0.02613v0.02123c0 0.03756 0.0196 0.07838 0.07675 0.07838 0.04409 0 0.07675-0.03429 0.07675-0.07675v-0.048986c0-0.07022-0.03429-0.15514-0.15677-0.15514-0.09635 0-0.1682 0.04736-0.21882 0.13064v-0.04899c0-0.04409-0.03593-0.07838-0.08002-0.07838-0.04246 0-0.08002 0.03429-0.08002 0.07838v0.66136c0 0.03919 0.03919 0.07512 0.08002 0.07512z"/>
   <path d="m70.09 54.986h0.6483c0.04572 0 0.08002-0.03593 0.08002-0.08165s-0.03429-0.08165-0.08002-0.08165h-0.56828v-0.32497h0.49643c0.04572 0 0.08002-0.03593 0.08002-0.08165s-0.03429-0.08002-0.08002-0.08002h-0.49643v-0.28087h0.57155c0.04572 0 0.08002-0.03756 0.08002-0.08165 0-0.04572-0.03429-0.08165-0.08002-0.08165h-0.65157c-0.04572 0-0.08165 0.03593-0.08165 0.08165v0.93081c0 0.04572 0.03593 0.08165 0.08165 0.08165z"/>
   <path d="m70.988 54.996c0.04899 0 0.09635-0.04736 0.09635-0.10614 0-0.05062-0.03756-0.09145-0.08492-0.09145-0.05062 0-0.09635 0.05062-0.09635 0.10451 0 0.05226 0.03429 0.09308 0.08492 0.09308z"/>
   <path d="m71.948 54.999c0.4899 0 0.72342-0.12901 0.72342-0.3511 0-0.12574-0.05389-0.21066-0.16493-0.26291 0.04246-0.04572 0.07512-0.11268 0.07512-0.20412 0-0.1486-0.12574-0.28904-0.37069-0.28904h-0.27761c-0.04246 0-0.08002 0.03756-0.08002 0.08002v0.93734c0 0.06042 0.02286 0.08981 0.09471 0.08981zm0.06859-0.66463v-0.28578h0.19433c0.1388 0 0.20902 0.06205 0.20902 0.13391 0 0.07512-0.06042 0.15187-0.1535 0.15187zm0 0.5095v-0.35273h0.24985c0.16003 0 0.24332 0.06695 0.24332 0.15677 0 0.13227-0.22535 0.19106-0.49317 0.19596z"/>
   <path d="m72.923 54.996c0.03919 0 0.07838-0.03593 0.07838-0.07512l0.0016-0.31027c0-0.06695 0.0065-0.12411 0.05552-0.18616 0.02776-0.03756 0.08655-0.09145 0.13064-0.09145 0.02776 0 0.03593 0.0098 0.03593 0.02613v0.02123c0 0.03756 0.0196 0.07838 0.07675 0.07838 0.04409 0 0.07675-0.03429 0.07675-0.07675v-0.048986c0-0.07022-0.03429-0.15514-0.15677-0.15514-0.09635 0-0.1682 0.04736-0.21882 0.13064v-0.04899c0-0.04409-0.03593-0.07838-0.08002-0.07838-0.04246 0-0.08002 0.03429-0.08002 0.07838v0.66136c0 0.03919 0.03919 0.07512 0.08002 0.07512z"/>
   <path d="m73.763 54.996c0.20739 0 0.38376-0.19923 0.38376-0.43764 0-0.20086-0.14697-0.37722-0.33803-0.37722-0.20739 0-0.38212 0.20086-0.38212 0.43601 0 0.20902 0.14534 0.37886 0.3364 0.37886zm0-0.14697c-0.08818 0-0.17636-0.08165-0.17636-0.23352s0.09961-0.28741 0.21556-0.28741c0.10288 0 0.18453 0.11268 0.18453 0.23842 0 0.15024-0.10614 0.28251-0.22372 0.28251z"/>
   <path d="m74.448 54.996c0.03266 0 0.06205-0.0196 0.07512-0.05716l0.15677-0.43111 0.10941 0.42785c0.01143 0.04246 0.03919 0.06042 0.07675 0.06042 0.03919 0 0.06369-0.0245 0.07512-0.05879l0.20902-0.65157c0.0016-0.0049 0.0049-0.0147 0.0049-0.03103 0-0.04246-0.03756-0.07348-0.07838-0.07348-0.03429 0-0.06695 0.02776-0.07675 0.06042l-0.12901 0.42458-0.10125-0.42948c-0.0098-0.03919-0.03919-0.05715-0.07838-0.05715-0.03429 0-0.06695 0.02286-0.07838 0.05715l-0.14697 0.42131-0.08328-0.41315c-0.0082-0.03756-0.03429-0.06532-0.07675-0.06532s-0.07675 0.03429-0.07675 0.06859c0 0.0147 0.0016 0.02286 0.0049 0.03919l0.13554 0.64504c0.0082 0.03919 0.03429 0.06369 0.07838 0.06369z"/>
   <path d="m75.413 54.996c0.04899 0 0.07675-0.03593 0.07675-0.08165v-0.13717c0-0.12084 0.01796-0.19596 0.06695-0.28414 0.05552-0.10125 0.12411-0.16003 0.18943-0.16003 0.07512 0 0.10778 0.05552 0.10778 0.31517v0.27108c0 0.03919 0.03593 0.07675 0.07838 0.07675 0.04409 0 0.07512-0.03756 0.07512-0.07838 0-0.09308 0.0016-0.1486 0.0016-0.28578 0-0.3413-0.07022-0.45071-0.24822-0.45071-0.11104 0-0.20739 0.07022-0.26944 0.20086v-0.12411c0-0.04409-0.03429-0.07838-0.07512-0.07838-0.04246 0-0.08165 0.03429-0.08165 0.07838v0.663c0 0.03919 0.03593 0.07512 0.07838 0.07512z"/>
  </g>
 </g>
</svg>
