<?xml version="1.0" encoding="UTF-8" standalone="no"?>
<svg
   width="128"
   height="128"
   version="1.1"
   id="svg24"
   xmlns="http://www.w3.org/2000/svg"
   xmlns:svg="http://www.w3.org/2000/svg">
  <defs
     id="defs28" />
  <path
     d="M8.484 32.03a4.378 4.378 0 0 1 .272 1.5 4.378 4.378 0 0 1-4.377 4.378v3.432a4.378 4.378 0 0 1 4.377 4.377 4.378 4.378 0 0 1-4.377 4.379v3.431a4.378 4.378 0 0 1 4.377 4.38 4.378 4.378 0 0 1-4.377 4.376v3.434a4.378 4.378 0 0 1 4.377 4.377 4.378 4.378 0 0 1-4.377 4.379v3.431a4.378 4.378 0 0 1 4.377 4.38 4.378 4.378 0 0 1-4.377 4.376v3.432a4.378 4.378 0 0 1 4.377 4.379 4.378 4.378 0 0 1-.268 1.5H85.23a4.378 4.378 0 0 1-.271-1.5 4.378 4.378 0 0 1 4.377-4.38 4.378 4.378 0 0 1 4.379 4.38 4.378 4.378 0 0 1-.268 1.5h26.069a4.378 4.378 0 0 1-.272-1.5 4.378 4.378 0 0 1 4.377-4.38v-3.43a4.378 4.378 0 0 1-4.377-4.378 4.378 4.378 0 0 1 4.377-4.379v-3.431a4.378 4.378 0 0 1-4.377-4.38 4.378 4.378 0 0 1 4.377-4.376v-3.434a4.378 4.378 0 0 1-4.377-4.377 4.378 4.378 0 0 1 4.377-4.379v-3.431a4.378 4.378 0 0 1-4.377-4.38 4.378 4.378 0 0 1 4.377-4.376v-3.432a4.378 4.378 0 0 1-4.377-4.379 4.378 4.378 0 0 1 .27-1.5h-26.07a4.378 4.378 0 0 1 .27 1.5 4.378 4.378 0 0 1-4.378 4.38 4.378 4.378 0 0 1-4.377-4.38 4.378 4.378 0 0 1 .27-1.5zm80.852 9.31a4.378 4.378 0 0 1 4.379 4.377 4.378 4.378 0 0 1-4.38 4.379 4.378 4.378 0 0 1-4.376-4.38 4.378 4.378 0 0 1 4.377-4.376zm0 12.187a4.378 4.378 0 0 1 4.379 4.38 4.378 4.378 0 0 1-4.38 4.376 4.378 4.378 0 0 1-4.376-4.377 4.378 4.378 0 0 1 4.377-4.379zm0 12.19a4.378 4.378 0 0 1 4.379 4.377 4.378 4.378 0 0 1-4.38 4.379 4.378 4.378 0 0 1-4.376-4.38 4.378 4.378 0 0 1 4.377-4.376zm0 12.187a4.378 4.378 0 0 1 4.379 4.38 4.378 4.378 0 0 1-4.38 4.376 4.378 4.378 0 0 1-4.376-4.377 4.378 4.378 0 0 1 4.377-4.379z"
     fill="#e79a00"
     stroke-width=".6"
     paint-order="stroke fill markers"
     id="path2" />
  <g
     aria-label="KeynoteEmoji Theatre10105 N Atanu Drive,Pertinuco, AC 90641, ASU"
     transform="scale(1.00251,0.9975)"
     id="text12"
     style="line-height:7.10881px;fill:none;stroke:#000000">
    <path
       d="m 17.972136,54.424388 c 0.225207,0 0.408709,-0.175161 0.408709,-0.408709 0,-0.125115 -0.04171,-0.233548 -0.158479,-0.325299 l -2.660779,-2.076909 2.518982,-2.160319 c 0.116774,-0.100092 0.141797,-0.200184 0.141797,-0.308617 0,-0.208525 -0.191843,-0.41705 -0.400368,-0.41705 -0.100092,0 -0.200184,0.04171 -0.266912,0.100092 l -2.277093,1.951794 v -1.634836 c 0,-0.233548 -0.191843,-0.408709 -0.408709,-0.408709 -0.225207,0 -0.408709,0.175161 -0.408709,0.408709 v 4.862803 c 0,0.216866 0.183502,0.408709 0.408709,0.408709 0.216866,0 0.408709,-0.191843 0.408709,-0.408709 v -1.576449 l 2.443913,1.910089 c 0.06673,0.05005 0.141797,0.08341 0.25023,0.08341 z"
       style="fill:#2f2f2f;stroke:none;stroke-width:1.696"
       id="path30" />
    <path
       d="m 20.916506,54.416047 c 0.517142,0 1.092671,-0.275253 1.392947,-0.617234 0.06673,-0.07507 0.100092,-0.150138 0.100092,-0.25023 0,-0.216866 -0.16682,-0.375345 -0.392027,-0.375345 -0.108433,0 -0.200184,0.05839 -0.275253,0.133456 -0.183502,0.191843 -0.458755,0.358663 -0.825759,0.358663 -0.475437,0 -0.917509,-0.191843 -1.075988,-0.542165 l 2.235387,-1.284514 c 0.175161,-0.100092 0.258571,-0.25023 0.258571,-0.383686 0,-0.392027 -0.50046,-1.201104 -1.601472,-1.201104 -1.142716,0 -1.885065,1.025943 -1.885065,2.068568 0,1.309537 0.892487,2.093591 2.068567,2.093591 z M 19.60697,52.430889 c 0,-0.116774 0,-0.175161 0.01668,-0.300276 0.06673,-0.617234 0.517142,-1.126035 1.167739,-1.126035 0.325299,0 0.58387,0.116774 0.717326,0.350322 z"
       style="fill:#2f2f2f;stroke:none;stroke-width:1.696"
       id="path32" />
    <path
       d="m 23.785804,55.909086 c 0.175161,0 0.308617,-0.116774 0.375345,-0.258571 l 2.227047,-4.83778 c 0.02502,-0.05005 0.03336,-0.116774 0.03336,-0.16682 0,-0.233548 -0.16682,-0.408709 -0.367004,-0.408709 -0.175161,0 -0.316958,0.116774 -0.383686,0.258571 L 24.6199,52.822916 23.443819,50.495777 c -0.05839,-0.116774 -0.183502,-0.25023 -0.383686,-0.25023 -0.233548,0 -0.41705,0.183502 -0.41705,0.408709 0,0.07507 0.02502,0.150138 0.05005,0.200184 l 1.493039,2.911009 -0.725667,1.559767 c -0.02502,0.05839 -0.04171,0.125115 -0.04171,0.175161 0,0.225207 0.16682,0.408709 0.367004,0.408709 z"
       style="fill:#2f2f2f;stroke:none;stroke-width:1.696"
       id="path34" />
    <path
       d="m 27.430822,54.416047 c 0.25023,0 0.392027,-0.183502 0.392027,-0.41705 v -0.700644 c 0,-0.617234 0.09175,-1.00092 0.341981,-1.451334 0.283594,-0.517142 0.633916,-0.817418 0.967556,-0.817418 0.383686,0 0.550506,0.283594 0.550506,1.609813 v 1.384606 c 0,0.200184 0.183502,0.392027 0.400368,0.392027 0.225207,0 0.383686,-0.191843 0.383686,-0.400368 0,-0.475437 0.0083,-0.759031 0.0083,-1.459675 0,-1.743269 -0.358663,-2.302116 -1.267832,-2.302116 -0.567188,0 -1.059307,0.358663 -1.376265,1.025943 v -0.633916 c 0,-0.225207 -0.175161,-0.400368 -0.383686,-0.400368 -0.216866,0 -0.41705,0.175161 -0.41705,0.400368 v 3.386446 c 0,0.200184 0.183502,0.383686 0.400368,0.383686 z"
       style="fill:#2f2f2f;stroke:none;stroke-width:1.696"
       id="path36" />
    <path
       d="m 33.010945,54.416047 c 1.059307,0 1.960135,-1.017602 1.960135,-2.235388 0,-1.025943 -0.75069,-1.926771 -1.726587,-1.926771 -1.059307,0 -1.951794,1.025943 -1.951794,2.227047 0,1.067648 0.742349,1.935112 1.718246,1.935112 z m 0,-0.75069 c -0.450414,0 -0.900828,-0.41705 -0.900828,-1.192763 0,-0.775713 0.508801,-1.468016 1.101012,-1.468016 0.525483,0 0.942533,0.575529 0.942533,1.217786 0,0.767372 -0.542165,1.442993 -1.142717,1.442993 z"
       style="fill:#2f2f2f;stroke:none;stroke-width:1.696"
       id="path38" />
    <path
       d="m 36.564215,54.424388 c 0.216866,0 0.400368,-0.175161 0.400368,-0.392027 v -2.977737 h 0.708985 c 0.225207,0 0.400368,-0.191843 0.400368,-0.400368 0,-0.233548 -0.175161,-0.408709 -0.400368,-0.408709 H 36.964583 V 49.35306 c 0,-0.208525 -0.158479,-0.408709 -0.400368,-0.408709 -0.225207,0 -0.400368,0.200184 -0.400368,0.408709 v 0.892487 H 35.52159 c -0.216866,0 -0.41705,0.158479 -0.41705,0.408709 0,0.208525 0.175161,0.400368 0.400368,0.400368 h 0.658939 v 2.977737 c 0,0.216866 0.191843,0.392027 0.400368,0.392027 z"
       style="fill:#2f2f2f;stroke:none;stroke-width:1.696"
       id="path40" />
    <path
       d="m 40.17586,54.416047 c 0.517142,0 1.092671,-0.275253 1.392947,-0.617234 0.06673,-0.07507 0.100092,-0.150138 0.100092,-0.25023 0,-0.216866 -0.16682,-0.375345 -0.392027,-0.375345 -0.108433,0 -0.200184,0.05839 -0.275253,0.133456 -0.183502,0.191843 -0.458755,0.358663 -0.825759,0.358663 -0.475437,0 -0.91751,-0.191843 -1.075989,-0.542165 l 2.235388,-1.284514 c 0.175161,-0.100092 0.258571,-0.25023 0.258571,-0.383686 0,-0.392027 -0.50046,-1.201104 -1.601472,-1.201104 -1.142717,0 -1.885066,1.025943 -1.885066,2.068568 0,1.309537 0.892487,2.093591 2.068568,2.093591 z m -1.309537,-1.985158 c 0,-0.116774 0,-0.175161 0.01668,-0.300276 0.06673,-0.617234 0.517142,-1.126035 1.16774,-1.126035 0.325299,0 0.58387,0.116774 0.717326,0.350322 z"
       style="fill:#2f2f2f;stroke:none;stroke-width:1.696"
       id="path42" />
    <path
       d="m 14.802556,62.233002 h 3.511561 c 0.150138,0 0.266912,-0.125115 0.266912,-0.275253 0,-0.150138 -0.116774,-0.258571 -0.266912,-0.258571 h -3.25299 v -2.110273 h 2.869304 c 0.150138,0 0.258571,-0.125115 0.258571,-0.275253 0,-0.150138 -0.108433,-0.258571 -0.258571,-0.258571 h -2.869304 v -1.876725 h 3.269672 c 0.150138,0 0.266912,-0.125115 0.266912,-0.266912 0,-0.150138 -0.116774,-0.266912 -0.266912,-0.266912 h -3.528243 c -0.150138,0 -0.275253,0.116774 -0.275253,0.266912 v 5.046305 c 0,0.150138 0.125115,0.275253 0.275253,0.275253 z"
       style="fill:#2f2f2f;stroke:none;stroke-width:1.696"
       id="path44" />
    <path
       d="m 19.782138,62.283048 c 0.141797,0 0.258571,-0.116774 0.258571,-0.25023 v -1.242809 c 0,-0.650598 0.07507,-0.934192 0.375345,-1.359583 0.291935,-0.408709 0.725667,-0.817418 1.134376,-0.817418 0.450414,0 0.642257,0.291935 0.642257,0.992579 v 2.427231 c 0,0.133456 0.125115,0.25023 0.266912,0.25023 0.150138,0 0.258571,-0.116774 0.258571,-0.25023 v -1.885066 c 0,-0.959215 0.8341,-1.534744 1.292855,-1.534744 0.425391,0 0.658939,0.283594 0.658939,0.992579 v 2.427231 c 0,0.133456 0.116774,0.25023 0.258571,0.25023 0.141797,0 0.266912,-0.116774 0.266912,-0.25023 v -2.368844 c 0,-1.117694 -0.483778,-1.543085 -1.117694,-1.543085 -0.450414,0 -0.992579,0.25023 -1.41797,0.942533 -0.158479,-0.75069 -0.633916,-0.942533 -1.042625,-0.942533 -0.567188,0 -1.209445,0.492119 -1.576449,1.217786 V 58.37946 c 0,-0.133456 -0.108433,-0.258571 -0.258571,-0.258571 -0.141797,0 -0.266912,0.125115 -0.266912,0.258571 v 3.653358 c 0,0.133456 0.125115,0.25023 0.266912,0.25023 z"
       style="fill:#2f2f2f;stroke:none;stroke-width:1.696"
       id="path46" />
    <path
       d="m 27.839541,62.283048 c 1.050966,0 1.943453,-1.025943 1.943453,-2.25207 0,-1.067648 -0.734008,-1.910089 -1.684882,-1.910089 -1.126035,0 -1.951794,1.117694 -1.951794,2.243729 0,1.075989 0.734008,1.91843 1.693223,1.91843 z m 0.03336,-0.475437 c -0.617234,0 -1.184422,-0.567188 -1.184422,-1.459675 0,-0.909169 0.617234,-1.75161 1.367924,-1.75161 0.675621,0 1.192763,0.692303 1.192763,1.476357 0,0.925851 -0.650598,1.734928 -1.376265,1.734928 z"
       style="fill:#2f2f2f;stroke:none;stroke-width:1.696"
       id="path48" />
    <path
       d="m 31.167601,57.428586 c 0.125115,0 0.258571,-0.08341 0.266912,-0.200184 l 0.04171,-0.358663 c 0.01668,-0.133456 -0.09175,-0.300276 -0.25023,-0.300276 -0.125115,0 -0.25023,0.08341 -0.266912,0.208525 l -0.03336,0.400368 c -0.01668,0.116774 0.100092,0.25023 0.241889,0.25023 z m -0.725667,6.33916 c 0.617234,0 1.017602,-0.542165 1.017602,-1.50138 0,-0.308617 -0.05005,-3.678381 -0.05005,-3.911929 0,-0.133456 -0.125115,-0.258571 -0.258571,-0.258571 -0.158479,0 -0.266912,0.116774 -0.266912,0.266912 0,0.33364 0.05839,3.653358 0.05839,3.970316 0,0.617234 -0.216866,0.950874 -0.50046,0.950874 -0.266912,0 -0.433732,-0.158479 -0.567188,-0.508801 -0.03336,-0.108433 -0.133456,-0.183502 -0.25023,-0.183502 -0.158479,0 -0.266912,0.125115 -0.266912,0.25023 0,0.03336 0.01668,0.08341 0.02502,0.108433 0.175161,0.458755 0.600552,0.817418 1.059307,0.817418 z"
       style="fill:#2f2f2f;stroke:none;stroke-width:1.696"
       id="path50" />
    <path
       d="m 33.077691,57.46195 c 0.133456,0 0.258571,-0.100092 0.258571,-0.25023 l 0.0083,-0.341981 c 0,-0.125115 -0.116774,-0.258571 -0.25023,-0.258571 -0.133456,0 -0.266912,0.116774 -0.266912,0.25023 l -0.0083,0.341981 c 0,0.141797 0.116774,0.258571 0.258571,0.258571 z m -0.05005,4.821098 c 0.141797,0 0.266912,-0.125115 0.266912,-0.266912 l 0.05005,-3.619994 c 0,-0.150138 -0.116774,-0.275253 -0.266912,-0.275253 -0.141797,0 -0.275253,0.125115 -0.275253,0.275253 l -0.05005,3.619994 c 0,0.141797 0.125115,0.266912 0.275253,0.266912 z"
       style="fill:#2f2f2f;stroke:none;stroke-width:1.696"
       id="path52" />
    <path
       d="m 38.958086,62.283048 c 0.150138,0 0.266912,-0.125115 0.266912,-0.266912 v -4.846121 h 1.576449 c 0.150138,0 0.258571,-0.116774 0.258571,-0.258571 0,-0.150138 -0.108433,-0.266912 -0.258571,-0.266912 h -3.678381 c -0.141797,0 -0.266912,0.116774 -0.266912,0.266912 0,0.141797 0.125115,0.258571 0.266912,0.258571 h 1.576449 v 4.846121 c 0,0.141797 0.116774,0.266912 0.258571,0.266912 z"
       style="fill:#2f2f2f;stroke:none;stroke-width:1.696"
       id="path54" />
    <path
       d="m 42.052591,62.291389 c 0.141797,0 0.258571,-0.100092 0.258571,-0.275253 v -1.351242 c 0,-0.275253 0.02502,-0.517142 0.125115,-0.717326 0.125115,-0.266912 0.759031,-1.33456 1.442993,-1.33456 0.283594,0 0.642257,0.258571 0.642257,2.368844 0,0.508801 -0.01668,0.909169 -0.01668,1.050966 0,0.133456 0.125115,0.25023 0.258571,0.25023 0.141797,0 0.241889,-0.108433 0.25023,-0.25023 0.02502,-0.283594 0.02502,-0.558847 0.02502,-1.109353 0,-1.885066 -0.275253,-2.827599 -1.117694,-2.827599 -0.658939,0 -1.301196,0.650598 -1.609813,1.284514 v -2.560687 c 0,-0.141797 -0.100092,-0.266912 -0.258571,-0.266912 -0.150138,0 -0.266912,0.125115 -0.266912,0.266912 v 5.213125 c 0,0.133456 0.125115,0.258571 0.266913,0.258571 z"
       style="fill:#2f2f2f;stroke:none;stroke-width:1.696"
       id="path56" />
    <path
       d="m 48.066446,62.283048 c 0.508801,0 1.08433,-0.266912 1.376265,-0.600552 0.03336,-0.04171 0.06673,-0.108433 0.06673,-0.16682 0,-0.141797 -0.108433,-0.25023 -0.25023,-0.25023 -0.06673,0 -0.133456,0.03336 -0.16682,0.08341 -0.225207,0.241889 -0.66728,0.450414 -1.034284,0.450414 -0.642257,0 -1.126035,-0.275253 -1.409629,-0.809077 l 2.58571,-1.476357 c 0.141797,-0.08341 0.200184,-0.175161 0.200184,-0.266912 0,-0.367004 -0.492119,-1.126035 -1.568108,-1.126035 -1.134376,0 -1.876725,1.025943 -1.876725,2.160319 0,1.075989 0.817418,2.00184 2.076909,2.00184 z m -1.576449,-1.759951 c -0.01668,-0.100092 -0.01668,-0.175161 -0.01668,-0.266912 0.01668,-0.909169 0.58387,-1.643177 1.401288,-1.643177 0.575529,0 0.892487,0.200184 1.042625,0.567188 z"
       style="fill:#2f2f2f;stroke:none;stroke-width:1.696"
       id="path58" />
    <path
       d="m 53.179475,62.349776 c 0.150138,0 0.258571,-0.125115 0.258571,-0.275253 V 58.46287 c -0.141797,-0.06673 -0.658939,-0.341981 -1.267832,-0.341981 -1.292855,0 -2.00184,1.267832 -2.00184,2.360503 0,1.075989 0.675621,1.801656 1.576449,1.801656 0.442073,0 0.884146,-0.191843 1.176081,-0.442073 v 0.233548 c 0,0.150138 0.08341,0.275253 0.258571,0.275253 z m -1.434652,-0.558847 c -0.608893,0 -1.042625,-0.508801 -1.042625,-1.326219 0,-1.067648 0.650598,-1.851702 1.484698,-1.851702 0.266912,0 0.592211,0.100092 0.742349,0.16682 l -0.03336,2.527323 c -0.191843,0.191843 -0.66728,0.483778 -1.151058,0.483778 z"
       style="fill:#2f2f2f;stroke:none;stroke-width:1.696"
       id="path60" />
    <path
       d="m 55.214686,62.291389 c 0.133456,0 0.258571,-0.116774 0.258571,-0.25023 v -3.403128 h 0.934192 c 0.150138,0 0.266912,-0.125115 0.266912,-0.266912 0,-0.150138 -0.116774,-0.258571 -0.266912,-0.258571 h -0.934192 v -1.142717 c 0,-0.141797 -0.100092,-0.266912 -0.258571,-0.266912 -0.150138,0 -0.266912,0.125115 -0.266912,0.266912 v 1.142717 h -0.900828 c -0.150138,0 -0.283594,0.100092 -0.283594,0.258571 0,0.141797 0.116774,0.266912 0.266912,0.266912 h 0.91751 v 3.403128 c 0,0.133456 0.125115,0.25023 0.266912,0.25023 z"
       style="fill:#2f2f2f;stroke:none;stroke-width:1.696"
       id="path62" />
    <path
       d="m 57.391682,62.283048 c 0.133456,0 0.258571,-0.116774 0.258571,-0.241889 l 0.0083,-1.843361 c 0,-0.283594 0.108433,-0.658939 0.283594,-0.884146 0.283594,-0.375345 0.642257,-0.700644 1.017602,-0.700644 0.225207,0 0.283594,0.108433 0.283594,0.241889 v 0.191843 c 0,0.125115 0.05839,0.258571 0.241888,0.258571 0.150138,0 0.258571,-0.108433 0.258571,-0.25023 v -0.266912 c 0,-0.316958 -0.150138,-0.692303 -0.692302,-0.692303 -0.692303,0 -1.142717,0.542165 -1.392947,0.984238 v -0.708985 c 0,-0.141797 -0.116774,-0.25023 -0.266912,-0.25023 -0.141797,0 -0.266912,0.108433 -0.266912,0.25023 v 3.67004 c 0,0.125115 0.133456,0.241889 0.266912,0.241889 z"
       style="fill:#2f2f2f;stroke:none;stroke-width:1.696"
       id="path64" />
    <path
       d="m 62.087663,62.283048 c 0.508801,0 1.08433,-0.266912 1.376265,-0.600552 0.03336,-0.04171 0.06673,-0.108433 0.06673,-0.16682 0,-0.141797 -0.108433,-0.25023 -0.25023,-0.25023 -0.06673,0 -0.133456,0.03336 -0.16682,0.08341 -0.225207,0.241889 -0.66728,0.450414 -1.034284,0.450414 -0.642257,0 -1.126035,-0.275253 -1.409629,-0.809077 l 2.58571,-1.476357 c 0.141797,-0.08341 0.200184,-0.175161 0.200184,-0.266912 0,-0.367004 -0.492119,-1.126035 -1.568108,-1.126035 -1.134376,0 -1.876724,1.025943 -1.876724,2.160319 0,1.075989 0.817417,2.00184 2.076908,2.00184 z m -1.576449,-1.759951 c -0.01668,-0.100092 -0.01668,-0.175161 -0.01668,-0.266912 0.01668,-0.909169 0.58387,-1.643177 1.401288,-1.643177 0.575529,0 0.892487,0.200184 1.042625,0.567188 z"
       style="fill:#2f2f2f;stroke:none;stroke-width:1.696"
       id="path66" />
    <path
       d="m 14.496928,70.099998 h 1.46716 c 0.109184,0 0.211544,-0.09554 0.211544,-0.211544 0,-0.116008 -0.08189,-0.218368 -0.225192,-0.218368 h -0.450384 l 0.05459,-3.971567 c 0,-0.109184 -0.08189,-0.218368 -0.218368,-0.218368 -0.04094,0 -0.116008,0.0273 -0.150128,0.06824 l -0.859824,0.934888 c -0.04094,0.04094 -0.06142,0.09554 -0.06142,0.143304 0,0.116008 0.08871,0.218368 0.211544,0.218368 0.06142,0 0.116008,-0.02047 0.156952,-0.06824 l 0.491328,-0.525448 -0.05459,3.418823 h -0.573216 c -0.122832,0 -0.211544,0.10236 -0.211544,0.218368 0,0.116008 0.08871,0.211544 0.211544,0.211544 z"
       style="fill:#2f2f2f;stroke:none;stroke-width:1.696"
       id="path68" />
    <path
       d="m 18.543559,70.140942 c 0.934888,0 1.699176,-1.132784 1.699176,-2.449815 0,-1.1942 -0.64828,-2.224624 -1.549048,-2.224624 -0.95536,0 -1.706,1.16008 -1.706,2.45664 0,1.180551 0.64828,2.217799 1.555872,2.217799 z m 0,-0.423088 c -0.675576,0 -1.139608,-0.866648 -1.139608,-1.808359 0,-1.105488 0.600512,-2.019904 1.289736,-2.019904 0.655104,0 1.139608,0.859824 1.139608,1.815184 0,1.098663 -0.607336,2.013079 -1.289736,2.013079 z"
       style="fill:#2f2f2f;stroke:none;stroke-width:1.696"
       id="path70" />
    <path
       d="m 21.355042,70.099998 h 1.46716 c 0.109184,0 0.211544,-0.09554 0.211544,-0.211544 0,-0.116008 -0.08189,-0.218368 -0.225192,-0.218368 H 22.35817 l 0.05459,-3.971567 c 0,-0.109184 -0.08189,-0.218368 -0.218368,-0.218368 -0.04094,0 -0.116008,0.0273 -0.150128,0.06824 l -0.859824,0.934888 c -0.04094,0.04094 -0.06142,0.09554 -0.06142,0.143304 0,0.116008 0.08871,0.218368 0.211544,0.218368 0.06142,0 0.116008,-0.02047 0.156952,-0.06824 l 0.491328,-0.525448 -0.05459,3.418823 h -0.573216 c -0.122832,0 -0.211544,0.10236 -0.211544,0.218368 0,0.116008 0.08871,0.211544 0.211544,0.211544 z"
       style="fill:#2f2f2f;stroke:none;stroke-width:1.696"
       id="path72" />
    <path
       d="m 25.401673,70.140942 c 0.934888,0 1.699176,-1.132784 1.699176,-2.449815 0,-1.1942 -0.64828,-2.224624 -1.549048,-2.224624 -0.95536,0 -1.706,1.16008 -1.706,2.45664 0,1.180551 0.64828,2.217799 1.555872,2.217799 z m 0,-0.423088 c -0.675576,0 -1.139608,-0.866648 -1.139608,-1.808359 0,-1.105488 0.600512,-2.019904 1.289736,-2.019904 0.655104,0 1.139608,0.859824 1.139608,1.815184 0,1.098663 -0.607336,2.013079 -1.289736,2.013079 z"
       style="fill:#2f2f2f;stroke:none;stroke-width:1.696"
       id="path74" />
    <path
       d="m 29.270876,70.140942 c 0.812056,0 1.555872,-0.78476 1.555872,-1.746943 0,-0.941712 -0.607336,-1.56952 -1.419392,-1.56952 -0.354848,0 -0.641455,0.116008 -0.852999,0.232016 l 0.109184,-1.085016 h 1.760591 c 0.116008,0 0.218368,-0.08871 0.218368,-0.211544 0,-0.116008 -0.10236,-0.211544 -0.218368,-0.211544 h -1.951663 c -0.10236,0 -0.20472,0.08189 -0.218368,0.191072 l -0.177424,1.767416 c -0.01365,0.129656 0.07506,0.245664 0.218368,0.245664 0.06824,0 0.109184,-0.02047 0.163776,-0.07506 0.129656,-0.129656 0.436735,-0.429912 0.948535,-0.429912 0.689224,0 0.996304,0.58004 0.996304,1.146432 0,0.709695 -0.532272,1.317031 -1.132784,1.317031 -0.436735,0 -0.716519,-0.197896 -0.969007,-0.525448 -0.04777,-0.06824 -0.08189,-0.109184 -0.184248,-0.109184 -0.116008,0 -0.218368,0.09554 -0.218368,0.211544 0,0.03412 0.0068,0.07506 0.0273,0.10236 0.09554,0.218368 0.573216,0.75064 1.344327,0.75064 z"
       style="fill:#2f2f2f;stroke:none;stroke-width:1.696"
       id="path76" />
    <path
       d="m 34.313808,70.140942 c 0.116008,0 0.218368,-0.09554 0.218368,-0.218368 l 0.0068,-3.521183 2.518056,3.644015 c 0.04094,0.06142 0.122832,0.09554 0.177424,0.09554 0.122832,0 0.218368,-0.09554 0.218368,-0.218368 v -4.217231 c 0,-0.116008 -0.10236,-0.218368 -0.218368,-0.218368 -0.122832,0 -0.218368,0.10236 -0.218368,0.218368 v 3.534831 l -2.518056,-3.657663 c -0.04777,-0.05459 -0.10236,-0.08871 -0.184248,-0.08871 -0.116008,0 -0.211544,0.10236 -0.211544,0.211544 l -0.0068,4.217231 c 0,0.116008 0.10236,0.218368 0.218368,0.218368 z"
       style="fill:#2f2f2f;stroke:none;stroke-width:1.696"
       id="path78" />
    <path
       d="m 43.846941,70.147766 c 0.129656,0 0.218368,-0.109184 0.218368,-0.211544 0,-0.05459 -0.02047,-0.10236 -0.04094,-0.163776 l -1.439864,-4.189935 c -0.03412,-0.08871 -0.116008,-0.143304 -0.20472,-0.143304 -0.08189,0 -0.1706,0.04777 -0.211544,0.13648 l -1.09184,2.791016 -0.3412,0.07506 c -0.09554,0.02047 -0.163776,0.109184 -0.163776,0.211543 0,0.116008 0.08189,0.20472 0.191072,0.211544 0.03412,0 0.08189,-0.0068 0.122832,-0.02047 l -0.37532,0.962184 c -0.02047,0.05459 -0.0273,0.08871 -0.0273,0.116008 0,0.122832 0.08189,0.218368 0.20472,0.218368 0.08871,0 0.1706,-0.05459 0.197896,-0.13648 l 0.498152,-1.255616 1.699176,-0.375319 0.559568,1.624111 c 0.0273,0.09554 0.116008,0.150128 0.20472,0.150128 z m -2.279216,-1.890247 0.78476,-1.992608 0.58004,1.699176 z"
       style="fill:#2f2f2f;stroke:none;stroke-width:1.696"
       id="path80" />
    <path
       d="m 45.18444,70.147766 c 0.109184,0 0.211544,-0.09554 0.211544,-0.20472 v -2.784191 h 0.764288 c 0.122832,0 0.218368,-0.10236 0.218368,-0.218368 0,-0.122832 -0.09554,-0.211544 -0.218368,-0.211544 h -0.764288 v -0.934888 c 0,-0.116008 -0.08189,-0.218368 -0.211544,-0.218368 -0.122832,0 -0.218368,0.10236 -0.218368,0.218368 v 0.934888 H 44.22908 c -0.122832,0 -0.232016,0.08189 -0.232016,0.211544 0,0.116008 0.09554,0.218368 0.218368,0.218368 h 0.75064 v 2.784191 c 0,0.109184 0.10236,0.20472 0.218368,0.20472 z"
       style="fill:#2f2f2f;stroke:none;stroke-width:1.696"
       id="path82" />
    <path
       d="m 48.794337,70.195534 c 0.122832,0 0.211544,-0.10236 0.211544,-0.225192 v -2.954791 c -0.116008,-0.05459 -0.539096,-0.279784 -1.037248,-0.279784 -1.05772,0 -1.63776,1.037248 -1.63776,1.931191 0,0.880296 0.552744,1.473984 1.289736,1.473984 0.361672,0 0.723344,-0.156952 0.962184,-0.361672 v 0.191072 c 0,0.122832 0.06824,0.225192 0.211544,0.225192 z m -1.173728,-0.457208 c -0.498152,0 -0.853,-0.416264 -0.853,-1.085016 0,-0.873471 0.532272,-1.514927 1.214672,-1.514927 0.218368,0 0.484504,0.08189 0.607336,0.13648 l -0.0273,2.067671 c -0.156952,0.156952 -0.54592,0.395792 -0.941712,0.395792 z"
       style="fill:#2f2f2f;stroke:none;stroke-width:1.696"
       id="path84" />
    <path
       d="m 50.288796,70.140942 c 0.122832,0 0.20472,-0.10236 0.20472,-0.225192 l 0.0068,-0.607336 c 0.0068,-0.498152 0.122832,-0.955359 0.429912,-1.514927 0.232016,-0.423088 0.552744,-0.655104 0.853,-0.655104 0.457208,0 0.641456,0.245664 0.641456,1.528575 0,0.675576 0.0068,0.95536 0.0068,1.26244 0,0.109184 0.09554,0.211544 0.20472,0.211544 0.122831,0 0.204719,-0.10236 0.204719,-0.218368 0,-0.313904 0.0068,-0.586864 0.0068,-1.282912 0,-1.364799 -0.259311,-1.903895 -1.003127,-1.903895 -0.593688,0 -1.078192,0.457208 -1.344328,1.276088 v -1.078192 c 0,-0.116008 -0.09554,-0.20472 -0.211544,-0.20472 -0.116008,0 -0.218368,0.08871 -0.218368,0.20472 v 3.009383 c 0,0.10236 0.10236,0.197896 0.218368,0.197896 z"
       style="fill:#2f2f2f;stroke:none;stroke-width:1.696"
       id="path86" />
    <path
       d="m 54.772162,70.161414 c 0.504976,0 0.941712,-0.286608 1.119136,-0.518624 v 0.259312 c 0,0.13648 0.09554,0.23884 0.23884,0.23884 0.116008,0 0.225192,-0.10236 0.225192,-0.211544 v -3.009383 c 0,-0.116008 -0.09554,-0.191072 -0.20472,-0.191072 -0.10236,0 -0.20472,0.07506 -0.20472,0.191072 l -0.0273,2.081319 c 0,0.08189 0,0.211544 -0.08189,0.30708 -0.13648,0.156952 -0.600512,0.470856 -1.05772,0.470856 -0.450384,0 -0.620984,-0.395792 -0.620984,-1.344327 0,-0.996304 0.08189,-1.269264 0.08189,-1.50128 0,-0.129656 -0.08871,-0.20472 -0.197896,-0.20472 -0.129656,0 -0.191072,0.07506 -0.218368,0.252488 -0.05459,0.320728 -0.08871,0.812056 -0.08189,1.453512 0.01365,1.330679 0.320728,1.726471 1.030424,1.726471 z"
       style="fill:#2f2f2f;stroke:none;stroke-width:1.696"
       id="path88" />
    <path
       d="m 60.654443,70.147766 c 1.317032,0 2.3884,-0.627808 2.3884,-2.060847 0,-2.210976 -2.067672,-2.586296 -3.17316,-2.586296 -0.122832,0 -0.225192,0.08871 -0.225192,0.211544 v 4.101223 c 0,0.10236 0.07506,0.191072 0.1706,0.218368 0.05459,0.01365 0.436736,0.116008 0.839352,0.116008 z m 0,-0.436736 c -0.20472,0 -0.423088,-0.04094 -0.566392,-0.06824 v -3.705431 c 1.344328,0.06824 2.511232,0.620984 2.511232,2.14956 0,1.091839 -0.764288,1.624111 -1.94484,1.624111 z"
       style="fill:#2f2f2f;stroke:none;stroke-width:1.696"
       id="path90" />
    <path
       d="m 64.121033,70.140942 c 0.109184,0 0.211544,-0.09554 0.211544,-0.197896 l 0.0068,-1.508103 c 0,-0.232016 0.08871,-0.539096 0.232016,-0.723344 0.232016,-0.30708 0.525448,-0.573216 0.832528,-0.573216 0.184248,0 0.232016,0.08871 0.232016,0.197896 v 0.156952 c 0,0.10236 0.04777,0.211544 0.197896,0.211544 0.122832,0 0.211544,-0.08871 0.211544,-0.20472 v -0.218368 c 0,-0.259312 -0.122832,-0.566392 -0.566392,-0.566392 -0.566392,0 -0.934888,0.44356 -1.139608,0.805232 v -0.58004 c 0,-0.116008 -0.09554,-0.20472 -0.218368,-0.20472 -0.116008,0 -0.218368,0.08871 -0.218368,0.20472 v 3.002559 c 0,0.10236 0.109184,0.197896 0.218368,0.197896 z"
       style="fill:#2f2f2f;stroke:none;stroke-width:1.696"
       id="path92" />
    <path
       d="m 66.877926,66.196671 c 0.109184,0 0.211544,-0.08189 0.211544,-0.20472 l 0.0068,-0.279784 c 0,-0.10236 -0.09554,-0.211544 -0.20472,-0.211544 -0.109184,0 -0.218368,0.09554 -0.218368,0.20472 l -0.0068,0.279784 c 0,0.116008 0.09554,0.211544 0.211544,0.211544 z m -0.04094,3.944271 c 0.116008,0 0.218368,-0.10236 0.218368,-0.218368 l 0.04094,-2.961615 c 0,-0.122832 -0.09554,-0.225192 -0.218368,-0.225192 -0.116008,0 -0.225192,0.10236 -0.225192,0.225192 l -0.04094,2.961615 c 0,0.116008 0.10236,0.218368 0.225192,0.218368 z"
       style="fill:#2f2f2f;stroke:none;stroke-width:1.696"
       id="path94" />
    <path
       d="m 69.020656,70.147766 c 0.109184,0 0.163776,-0.06142 0.197896,-0.13648 l 1.201024,-2.975263 c 0.01365,-0.0273 0.0273,-0.05459 0.0273,-0.09554 0,-0.109184 -0.09554,-0.211544 -0.218368,-0.211544 -0.08871,0 -0.163776,0.05459 -0.197896,0.129656 L 69.02066,69.41077 68.017532,66.879067 c -0.04094,-0.08871 -0.10236,-0.143304 -0.197896,-0.143304 -0.122832,0 -0.225192,0.08871 -0.225192,0.211544 0,0.03412 0.0068,0.04777 0.01365,0.07506 l 1.214672,2.975263 c 0.03412,0.08189 0.10236,0.150128 0.197896,0.150128 z"
       style="fill:#2f2f2f;stroke:none;stroke-width:1.696"
       id="path96" />
    <path
       d="m 72.364418,70.140942 c 0.416264,0 0.88712,-0.218368 1.12596,-0.491328 0.0273,-0.03412 0.05459,-0.08871 0.05459,-0.13648 0,-0.116008 -0.08871,-0.20472 -0.20472,-0.20472 -0.05459,0 -0.109184,0.0273 -0.13648,0.06824 -0.184248,0.197896 -0.54592,0.368496 -0.846176,0.368496 -0.525448,0 -0.92124,-0.225192 -1.153256,-0.661928 l 2.11544,-1.207847 c 0.116008,-0.06824 0.163776,-0.143304 0.163776,-0.218368 0,-0.300256 -0.402616,-0.92124 -1.282912,-0.92124 -0.928064,0 -1.5354,0.839352 -1.5354,1.767416 0,0.880295 0.668752,1.637759 1.699176,1.637759 z m -1.289736,-1.439864 c -0.01365,-0.08189 -0.01365,-0.143303 -0.01365,-0.218367 0.01365,-0.743816 0.47768,-1.344328 1.146432,-1.344328 0.470856,0 0.730168,0.163776 0.853,0.464032 z"
       style="fill:#2f2f2f;stroke:none;stroke-width:1.696"
       id="path98" />
    <path
       d="m 74.16595,70.761926 c 0.13648,0 0.156952,-0.109184 0.300256,-0.464032 0.10236,-0.245664 0.150128,-0.354848 0.150128,-0.484504 0,-0.116008 -0.109184,-0.23884 -0.245664,-0.23884 -0.150128,0 -0.293432,0.150128 -0.293432,0.327552 0,0.08189 0.03412,0.150128 0.07506,0.20472 l -0.156952,0.416264 c -0.0068,0.02047 -0.01365,0.04777 -0.01365,0.06824 0,0.09554 0.08189,0.1706 0.184248,0.1706 z"
       style="fill:#2f2f2f;stroke:none;stroke-width:1.696"
       id="path100" />
    <path
       d="m 14.44542,78.377849 c 0.09554,0 0.169856,-0.07431 0.169856,-0.169856 v -1.082832 c 0.74312,-0.0053 2.075428,-0.286632 2.075428,-1.27392 0,-0.700656 -0.642268,-1.093448 -1.979884,-1.093448 -0.414024,0 -0.435256,0.05308 -0.435256,0.233552 v 3.216648 c 0,0.09554 0.07962,0.169856 0.169856,0.169856 z m 0.169856,-1.587092 v -1.693252 c 0.04246,-0.0053 0.127392,-0.0053 0.18578,-0.0053 0.997904,0 1.555244,0.270708 1.555244,0.759044 0,0.785584 -1.284536,0.934208 -1.741024,0.939516 z"
       style="fill:#2f2f2f;stroke:none;stroke-width:1.696"
       id="path102" />
    <path
       d="m 18.150402,78.377849 c 0.323788,0 0.69004,-0.169856 0.87582,-0.382176 0.02123,-0.02654 0.04246,-0.069 0.04246,-0.10616 0,-0.09024 -0.069,-0.15924 -0.15924,-0.15924 -0.04246,0 -0.08493,0.02123 -0.10616,0.05308 -0.143316,0.153932 -0.42464,0.286632 -0.658192,0.286632 -0.408716,0 -0.71658,-0.175164 -0.897052,-0.514876 l 1.64548,-0.939516 c 0.09024,-0.05308 0.127392,-0.111468 0.127392,-0.169856 0,-0.233552 -0.313172,-0.71658 -0.997904,-0.71658 -0.721888,0 -1.1943,0.652884 -1.1943,1.374772 0,0.684732 0.520184,1.27392 1.321692,1.27392 z M 17.14719,77.257861 c -0.01062,-0.0637 -0.01062,-0.111468 -0.01062,-0.169856 0.01062,-0.578572 0.37156,-1.045676 0.891744,-1.045676 0.366252,0 0.567956,0.127392 0.6635,0.360944 z"
       style="fill:#2f2f2f;stroke:none;stroke-width:1.696"
       id="path104" />
    <path
       d="m 19.827727,78.377849 c 0.08493,0 0.164548,-0.07431 0.164548,-0.153932 l 0.0053,-1.173068 c 0,-0.180472 0.069,-0.419332 0.180472,-0.562648 0.180472,-0.23886 0.408716,-0.445872 0.647576,-0.445872 0.143316,0 0.180472,0.069 0.180472,0.153932 v 0.122084 c 0,0.07962 0.03716,0.164548 0.153932,0.164548 0.09554,0 0.164548,-0.069 0.164548,-0.15924 v -0.169856 c 0,-0.201704 -0.09554,-0.440564 -0.440564,-0.440564 -0.440564,0 -0.727196,0.34502 -0.886436,0.626344 v -0.45118 c 0,-0.09024 -0.07431,-0.15924 -0.169856,-0.15924 -0.09024,0 -0.169856,0.069 -0.169856,0.15924 v 2.33552 c 0,0.07962 0.08493,0.153932 0.169856,0.153932 z"
       style="fill:#2f2f2f;stroke:none;stroke-width:1.696"
       id="path106" />
    <path
       d="m 22.0677,78.383157 c 0.08493,0 0.164548,-0.07431 0.164548,-0.15924 v -2.165664 h 0.594496 c 0.09554,0 0.169856,-0.07962 0.169856,-0.169856 0,-0.09554 -0.07431,-0.164548 -0.169856,-0.164548 h -0.594496 v -0.727196 c 0,-0.09024 -0.0637,-0.169856 -0.164548,-0.169856 -0.09554,0 -0.169856,0.07962 -0.169856,0.169856 v 0.727196 H 21.32458 c -0.09554,0 -0.180472,0.0637 -0.180472,0.164548 0,0.09024 0.07431,0.169856 0.169856,0.169856 h 0.58388 v 2.165664 c 0,0.08493 0.07962,0.15924 0.169856,0.15924 z"
       style="fill:#2f2f2f;stroke:none;stroke-width:1.696"
       id="path108" />
    <path
       d="m 23.490241,75.309825 c 0.08493,0 0.164548,-0.0637 0.164548,-0.15924 l 0.0053,-0.217628 c 0,-0.07962 -0.07431,-0.164548 -0.15924,-0.164548 -0.08493,0 -0.169856,0.07431 -0.169856,0.15924 l -0.0053,0.217628 c 0,0.09024 0.07431,0.164548 0.164548,0.164548 z m -0.03185,3.068024 c 0.09024,0 0.169856,-0.07962 0.169856,-0.169856 l 0.03185,-2.303672 c 0,-0.09554 -0.07431,-0.175164 -0.169856,-0.175164 -0.09024,0 -0.175164,0.07962 -0.175164,0.175164 l -0.03185,2.303672 c 0,0.09024 0.07962,0.169856 0.175164,0.169856 z"
       style="fill:#2f2f2f;stroke:none;stroke-width:1.696"
       id="path110" />
    <path
       d="m 24.657997,78.377849 c 0.09554,0 0.15924,-0.07962 0.15924,-0.175164 l 0.0053,-0.472412 c 0.0053,-0.387484 0.09554,-0.74312 0.334404,-1.178376 0.180472,-0.329096 0.429948,-0.509568 0.6635,-0.509568 0.355636,0 0.498952,0.191088 0.498952,1.188992 0,0.525492 0.0053,0.74312 0.0053,0.98198 0,0.08493 0.07431,0.164548 0.15924,0.164548 0.09554,0 0.15924,-0.07962 0.15924,-0.169856 0,-0.244168 0.0053,-0.456488 0.0053,-0.997904 0,-1.0616 -0.201704,-1.480932 -0.780276,-1.480932 -0.461796,0 -0.838664,0.355636 -1.045676,0.992596 v -0.838664 c 0,-0.09024 -0.07431,-0.15924 -0.164548,-0.15924 -0.09024,0 -0.169856,0.069 -0.169856,0.15924 v 2.340828 c 0,0.07962 0.07962,0.153932 0.169856,0.153932 z"
       style="fill:#2f2f2f;stroke:none;stroke-width:1.696"
       id="path112" />
    <path
       d="m 28.14535,78.393773 c 0.392792,0 0.732504,-0.222936 0.870512,-0.403408 v 0.201704 c 0,0.10616 0.07431,0.18578 0.18578,0.18578 0.09024,0 0.175164,-0.07962 0.175164,-0.164548 v -2.340828 c 0,-0.09024 -0.07431,-0.148624 -0.15924,-0.148624 -0.07962,0 -0.15924,0.05839 -0.15924,0.148624 l -0.02123,1.61894 c 0,0.0637 0,0.164548 -0.0637,0.23886 -0.10616,0.122084 -0.467104,0.366252 -0.82274,0.366252 -0.350328,0 -0.483028,-0.307864 -0.483028,-1.045676 0,-0.774968 0.0637,-0.987288 0.0637,-1.16776 0,-0.100852 -0.069,-0.15924 -0.153932,-0.15924 -0.100852,0 -0.148624,0.05839 -0.169856,0.196396 -0.04246,0.249476 -0.069,0.631652 -0.0637,1.130604 0.01062,1.03506 0.249476,1.342924 0.801508,1.342924 z"
       style="fill:#2f2f2f;stroke:none;stroke-width:1.696"
       id="path114" />
    <path
       d="m 31.123136,78.377849 c 0.445872,0 0.806816,-0.244168 0.971364,-0.488336 0.03185,-0.04246 0.05308,-0.07962 0.05308,-0.122084 0,-0.08493 -0.07431,-0.15924 -0.164548,-0.15924 -0.0637,0 -0.111468,0.04246 -0.148624,0.09554 -0.148624,0.21232 -0.366252,0.366252 -0.711272,0.366252 -0.376868,0 -0.833356,-0.297248 -0.833356,-0.854588 0,-0.594496 0.435256,-1.178376 0.870512,-1.178376 0.2654,0 0.408716,0.116776 0.546724,0.281324 0.03185,0.03716 0.069,0.05839 0.122084,0.05839 0.09024,0 0.15924,-0.07431 0.15924,-0.164548 0,-0.03716 -0.01592,-0.08493 -0.04246,-0.111468 -0.201704,-0.233552 -0.403408,-0.37156 -0.7962,-0.37156 -0.615728,0 -1.183684,0.764352 -1.183684,1.496856 0,0.652884 0.5308,1.151836 1.157144,1.151836 z"
       style="fill:#2f2f2f;stroke:none;stroke-width:1.696"
       id="path116" />
    <path
       d="m 33.601974,78.377849 c 0.668808,0 1.236764,-0.652884 1.236764,-1.43316 0,-0.679424 -0.467104,-1.215532 -1.072216,-1.215532 -0.71658,0 -1.242072,0.711272 -1.242072,1.427852 0,0.684732 0.467104,1.22084 1.077524,1.22084 z m 0.02123,-0.302556 c -0.392792,0 -0.753736,-0.360944 -0.753736,-0.9289 0,-0.578572 0.392792,-1.11468 0.870512,-1.11468 0.429948,0 0.759044,0.440564 0.759044,0.939516 0,0.589188 -0.414024,1.104064 -0.87582,1.104064 z"
       style="fill:#2f2f2f;stroke:none;stroke-width:1.696"
       id="path118" />
    <path
       d="m 35.396074,78.860877 c 0.10616,0 0.122084,-0.08493 0.233552,-0.360944 0.07962,-0.191088 0.116776,-0.276016 0.116776,-0.376868 0,-0.09024 -0.08493,-0.18578 -0.191088,-0.18578 -0.116776,0 -0.228244,0.116776 -0.228244,0.254784 0,0.0637 0.02654,0.116776 0.05839,0.15924 l -0.122084,0.323788 c -0.0053,0.01592 -0.01062,0.03716 -0.01062,0.05308 0,0.07431 0.0637,0.1327 0.143316,0.1327 z"
       style="fill:#2f2f2f;stroke:none;stroke-width:1.696"
       id="path120" />
    <path
       d="m 40.491751,78.383157 c 0.100852,0 0.169856,-0.08493 0.169856,-0.164548 0,-0.04246 -0.01592,-0.07962 -0.03185,-0.127392 l -1.119988,-3.259112 c -0.02654,-0.069 -0.09024,-0.111468 -0.15924,-0.111468 -0.0637,0 -0.1327,0.03716 -0.164548,0.10616 l -0.84928,2.170972 -0.2654,0.05839 c -0.07431,0.01592 -0.127392,0.08493 -0.127392,0.164548 0,0.09024 0.0637,0.15924 0.148624,0.164548 0.02654,0 0.0637,-0.0053 0.09554,-0.01592 l -0.29194,0.748428 c -0.01592,0.04246 -0.02123,0.069 -0.02123,0.09024 0,0.09554 0.0637,0.169856 0.15924,0.169856 0.069,0 0.1327,-0.04246 0.153932,-0.10616 l 0.387484,-0.976672 1.321692,-0.29194 0.435256,1.263304 c 0.02123,0.07431 0.09024,0.116776 0.15924,0.116776 z m -1.772872,-1.470316 0.61042,-1.549936 0.45118,1.321692 z"
       style="fill:#2f2f2f;stroke:none;stroke-width:1.696"
       id="path122" />
    <path
       d="m 42.588405,78.377849 c 0.509568,0 0.966056,-0.222936 1.263304,-0.626344 0.02654,-0.03185 0.03185,-0.069 0.03185,-0.100852 0,-0.111468 -0.08493,-0.169856 -0.169856,-0.169856 -0.05308,0 -0.09024,0.01062 -0.1327,0.0637 -0.2654,0.34502 -0.605112,0.498952 -0.992596,0.498952 -0.615728,0 -1.183684,-0.461796 -1.183684,-1.242072 0,-0.907668 0.652884,-1.709176 1.284536,-1.709176 0.37156,0 0.567956,0.169856 0.668808,0.2654 v 0.04246 c 0,0.09024 0.07431,0.164548 0.169856,0.164548 0.09554,0 0.169856,-0.07962 0.169856,-0.169856 v -0.339712 c 0,-0.09554 -0.07431,-0.164548 -0.164548,-0.164548 -0.0637,0 -0.116776,0.03185 -0.138008,0.07431 -0.164548,-0.10616 -0.37156,-0.207012 -0.705964,-0.207012 -0.817432,0 -1.634864,0.971364 -1.634864,2.04358 0,0.960748 0.700656,1.576476 1.534012,1.576476 z"
       style="fill:#2f2f2f;stroke:none;stroke-width:1.696"
       id="path124" />
    <path
       d="m 46.808266,78.377849 c 0.03716,0 0.069,-0.01062 0.100852,-0.02654 0.674116,-0.34502 1.40662,-1.040368 1.40662,-2.261208 0,-0.918284 -0.488336,-1.327 -1.130604,-1.327 -0.615728,0 -1.098756,0.50426 -1.098756,1.30046 0,0.705964 0.456488,1.077524 1.019136,1.077524 0.307864,0 0.55734,-0.09554 0.74312,-0.201704 -0.191088,0.493644 -0.61042,0.897052 -1.109372,1.135912 -0.05308,0.02654 -0.09024,0.07962 -0.09024,0.148624 0,0.08493 0.069,0.153932 0.15924,0.153932 z m 0.297248,-1.555244 c -0.403408,0 -0.705964,-0.249476 -0.705964,-0.759044 0,-0.589188 0.323788,-0.98198 0.774968,-0.98198 0.403408,0 0.828048,0.196396 0.828048,1.00852 0,0.127392 -0.0053,0.249476 -0.02123,0.37156 -0.100852,0.100852 -0.403408,0.360944 -0.87582,0.360944 z"
       style="fill:#2f2f2f;stroke:none;stroke-width:1.696"
       id="path126" />
    <path
       d="m 50.210696,78.377849 c 0.727196,0 1.321692,-0.881128 1.321692,-1.905572 0,-0.9289 -0.50426,-1.730408 -1.204916,-1.730408 -0.74312,0 -1.327,0.90236 -1.327,1.91088 0,0.918284 0.50426,1.7251 1.210224,1.7251 z m 0,-0.329096 c -0.525492,0 -0.886436,-0.674116 -0.886436,-1.40662 0,-0.859896 0.467104,-1.571168 1.003212,-1.571168 0.509568,0 0.886436,0.668808 0.886436,1.411928 0,0.854588 -0.472412,1.56586 -1.003212,1.56586 z"
       style="fill:#2f2f2f;stroke:none;stroke-width:1.696"
       id="path128" />
    <path
       d="m 53.331794,78.377849 c 0.605112,0 1.093448,-0.50426 1.093448,-1.30046 0,-0.711272 -0.456488,-1.077524 -1.013828,-1.077524 -0.313172,0 -0.55734,0.09554 -0.74312,0.201704 0.18578,-0.493644 0.594496,-0.912976 1.104064,-1.14122 0.05308,-0.02123 0.09024,-0.07431 0.09024,-0.143316 0,-0.09024 -0.0637,-0.153932 -0.153932,-0.153932 -0.04246,0 -0.069,0.01062 -0.10616,0.02654 -0.599804,0.297248 -1.40662,0.966056 -1.40662,2.261208 0,0.98198 0.573264,1.327 1.135912,1.327 z m 0.0053,-0.31848 c -0.47772,0 -0.828048,-0.29194 -0.828048,-1.00852 0,-0.127392 0.0053,-0.249476 0.02654,-0.37156 0.100852,-0.100852 0.403408,-0.360944 0.87582,-0.360944 0.387484,0 0.705964,0.228244 0.705964,0.759044 0,0.594496 -0.334404,0.98198 -0.780276,0.98198 z"
       style="fill:#2f2f2f;stroke:none;stroke-width:1.696"
       id="path130" />
    <path
       d="m 56.564365,78.377849 c 0.08493,0 0.164548,-0.07962 0.164548,-0.164548 v -0.700656 l 0.164548,0.0053 c 0.08493,0 0.15924,-0.07962 0.15924,-0.169856 0,-0.09024 -0.07431,-0.164548 -0.15924,-0.164548 l -0.164548,-0.0053 v -2.2559 c 0,-0.09554 -0.069,-0.164548 -0.164548,-0.164548 -0.0637,0 -0.111468,0.02654 -0.148624,0.08493 l -1.449084,2.3886 c -0.01592,0.02654 -0.02654,0.05308 -0.02654,0.09024 0,0.08493 0.07431,0.164548 0.164548,0.164548 l 1.289844,0.02123 v 0.705964 c 0,0.08493 0.07431,0.164548 0.169856,0.164548 z m -0.169856,-1.204916 -0.992596,-0.01592 0.992596,-1.640172 z"
       style="fill:#2f2f2f;stroke:none;stroke-width:1.696"
       id="path132" />
    <path
       d="m 57.843589,78.346001 h 1.14122 c 0.08493,0 0.164548,-0.07431 0.164548,-0.164548 0,-0.09024 -0.0637,-0.169856 -0.175164,-0.169856 h -0.350328 l 0.04246,-3.089256 c 0,-0.08493 -0.0637,-0.169856 -0.169856,-0.169856 -0.03185,0 -0.09024,0.02123 -0.116776,0.05308 l -0.668808,0.727196 c -0.03185,0.03185 -0.04777,0.07431 -0.04777,0.111468 0,0.09024 0.069,0.169856 0.164548,0.169856 0.04777,0 0.09024,-0.01592 0.122084,-0.05308 l 0.382176,-0.408716 -0.04246,2.659308 h -0.445872 c -0.09554,0 -0.164548,0.07962 -0.164548,0.169856 0,0.09024 0.069,0.164548 0.164548,0.164548 z"
       style="fill:#2f2f2f;stroke:none;stroke-width:1.696"
       id="path134" />
    <path
       d="m 59.738544,78.860877 c 0.10616,0 0.122084,-0.08493 0.233552,-0.360944 0.07962,-0.191088 0.116776,-0.276016 0.116776,-0.376868 0,-0.09024 -0.08493,-0.18578 -0.191088,-0.18578 -0.116776,0 -0.228244,0.116776 -0.228244,0.254784 0,0.0637 0.02654,0.116776 0.05839,0.15924 l -0.122084,0.323788 c -0.0053,0.01592 -0.01062,0.03716 -0.01062,0.05308 0,0.07431 0.0637,0.1327 0.143316,0.1327 z"
       style="fill:#2f2f2f;stroke:none;stroke-width:1.696"
       id="path136" />
    <path
       d="m 64.83422,78.383157 c 0.100852,0 0.169856,-0.08493 0.169856,-0.164548 0,-0.04246 -0.01592,-0.07962 -0.03185,-0.127392 L 63.85224,74.832105 c -0.02654,-0.069 -0.09024,-0.111468 -0.15924,-0.111468 -0.0637,0 -0.1327,0.03716 -0.164548,0.10616 l -0.849281,2.170972 -0.2654,0.05839 c -0.07431,0.01592 -0.127392,0.08493 -0.127392,0.164548 0,0.09024 0.0637,0.15924 0.148624,0.164548 0.02654,0 0.0637,-0.0053 0.09554,-0.01592 l -0.29194,0.748428 c -0.01592,0.04246 -0.02123,0.069 -0.02123,0.09024 0,0.09554 0.0637,0.169856 0.15924,0.169856 0.069,0 0.1327,-0.04246 0.153932,-0.10616 l 0.387485,-0.976672 1.321692,-0.29194 0.435256,1.263304 c 0.02123,0.07431 0.09024,0.116776 0.15924,0.116776 z m -1.772872,-1.470316 0.61042,-1.549936 0.45118,1.321692 z"
       style="fill:#2f2f2f;stroke:none;stroke-width:1.696"
       id="path138" />
    <path
       d="m 66.60709,78.377849 c 0.652884,0 1.236764,-0.429948 1.236764,-1.024444 0,-0.493644 -0.376868,-0.833356 -1.14122,-1.045676 -0.567956,-0.15924 -0.854588,-0.355636 -0.854588,-0.668808 0,-0.360944 0.307864,-0.578572 0.865204,-0.578572 0.467104,0 0.76966,0.191088 0.801508,0.456488 0.0053,0.07431 0.07431,0.143316 0.15924,0.143316 0.09024,0 0.164548,-0.07431 0.164548,-0.169856 0,-0.435256 -0.3981,-0.732504 -1.109372,-0.732504 -0.764352,0 -1.22084,0.382176 -1.22084,0.897052 0,0.573264 0.58388,0.843972 1.109372,0.987288 0.674116,0.18578 0.886436,0.429948 0.886436,0.737812 0,0.382176 -0.366252,0.679424 -0.897052,0.679424 -0.440564,0 -0.828048,-0.233552 -0.944824,-0.562648 -0.02654,-0.08493 -0.08493,-0.138008 -0.175164,-0.138008 -0.100852,0 -0.180472,0.07962 -0.180472,0.175164 0,0.03185 0.01592,0.07962 0.03185,0.10616 0.169856,0.42464 0.621036,0.737812 1.268612,0.737812 z"
       style="fill:#2f2f2f;stroke:none;stroke-width:1.696"
       id="path140" />
    <path
       d="m 69.871509,78.377849 c 0.939516,0 1.35354,-0.58388 1.465008,-1.43316 0.04777,-0.37156 0.0637,-0.732504 0.0637,-1.08814 0,-0.387484 -0.02123,-0.897052 -0.02123,-0.9289 0,-0.07962 -0.0637,-0.164548 -0.169856,-0.164548 -0.116776,0 -0.164548,0.09024 -0.164548,0.175164 0,0.307864 0.0053,0.599804 0.0053,0.886436 0,0.376868 -0.01062,0.721888 -0.04777,1.077524 -0.08493,0.737812 -0.445872,1.178376 -1.119988,1.178376 -0.897052,0 -1.066908,-0.95544 -1.093448,-1.7251 -0.0053,-0.180472 -0.01062,-0.435256 -0.01062,-0.652884 0,-0.260092 0.01062,-0.514876 0.01062,-0.774968 0,-0.08493 -0.0637,-0.164548 -0.164548,-0.164548 -0.09554,0 -0.169856,0.07431 -0.169856,0.15924 0,0.281324 -0.01062,0.578572 -0.01062,0.891744 0,0.217628 0,0.350328 0.01062,0.615728 0.04777,1.263304 0.525492,1.948036 1.417236,1.948036 z"
       style="fill:#2f2f2f;stroke:none;stroke-width:1.696"
       id="path142" />
  </g>
  <g
     aria-label="27.07.2018"
     transform="scale(1.06127,0.94227)"
     id="text16"
     style="line-height:5.05041px;fill:none;stroke:#000000">
    <path
       d="m 13.594265,98.251999 h 2.981889 c 0.137377,0 0.258592,-0.113134 0.258592,-0.24243 0,-0.145458 -0.121215,-0.258592 -0.258592,-0.258592 h -2.464705 c 0.05657,-0.953558 0.686885,-1.398013 1.309122,-1.802063 0.662642,-0.428293 1.341446,-0.840424 1.341446,-1.769739 0,-0.759614 -0.638399,-1.37377 -1.527309,-1.37377 -0.670723,0 -1.163664,0.363645 -1.446499,0.638399 -0.185863,0.169701 -0.234349,0.250511 -0.234349,0.339402 0,0.121215 0.105053,0.258592 0.258592,0.258592 0.121215,0 0.185863,-0.08889 0.250511,-0.16162 0.05657,-0.06465 0.517184,-0.573751 1.171745,-0.573751 0.573751,0 1.018206,0.371726 1.018206,0.872748 0,0.662642 -0.541427,0.977801 -1.155583,1.365689 -0.800019,0.517184 -1.503066,1.090935 -1.503066,2.464705 z"
       style="fill:#2f2f2f;stroke:none"
       id="path145" />
    <path
       d="m 18.24084,98.300485 c 0.08081,0 0.185863,-0.0404 0.226268,-0.137377 l 2.456624,-4.864762 c 0.01616,-0.0404 0.03232,-0.08889 0.03232,-0.129296 0,-0.145458 -0.105053,-0.258592 -0.250511,-0.258592 H 17.83679 c -0.145458,0 -0.250511,0.113134 -0.250511,0.250511 0,0.145458 0.105053,0.250511 0.250511,0.250511 h 2.456624 l -2.270761,4.52536 c -0.02424,0.0404 -0.03232,0.07273 -0.03232,0.105053 0,0.137377 0.113134,0.258592 0.250511,0.258592 z"
       style="fill:#2f2f2f;stroke:none"
       id="path147" />
    <path
       d="m 21.66718,98.300485 c 0.177782,0 0.347483,-0.177782 0.347483,-0.40405 0,-0.177782 -0.129296,-0.315159 -0.290916,-0.315159 -0.177782,0 -0.347483,0.185863 -0.347483,0.387888 0,0.185863 0.121215,0.331321 0.290916,0.331321 z"
       style="fill:#2f2f2f;stroke:none"
       id="path149" />
    <path
       d="m 24.713716,98.300485 c 1.107097,0 2.012169,-1.341446 2.012169,-2.901079 0,-1.414175 -0.767695,-2.634406 -1.834387,-2.634406 -1.13134,0 -2.02025,1.37377 -2.02025,2.90916 0,1.398013 0.767695,2.626325 1.842468,2.626325 z m 0,-0.501022 c -0.800019,0 -1.349527,-1.026287 -1.349527,-2.141465 0,-1.309122 0.711128,-2.391976 1.527309,-2.391976 0.775776,0 1.349527,1.018206 1.349527,2.149546 0,1.301041 -0.719209,2.383895 -1.527309,2.383895 z"
       style="fill:#2f2f2f;stroke:none"
       id="path151" />
    <path
       d="m 28.220865,98.300485 c 0.08081,0 0.185863,-0.0404 0.226268,-0.137377 l 2.456624,-4.864762 c 0.01616,-0.0404 0.03232,-0.08889 0.03232,-0.129296 0,-0.145458 -0.105053,-0.258592 -0.250511,-0.258592 h -2.868755 c -0.145458,0 -0.250511,0.113134 -0.250511,0.250511 0,0.145458 0.105053,0.250511 0.250511,0.250511 h 2.456624 l -2.270761,4.52536 c -0.02424,0.0404 -0.03232,0.07273 -0.03232,0.105053 0,0.137377 0.113134,0.258592 0.250511,0.258592 z"
       style="fill:#2f2f2f;stroke:none"
       id="path153" />
    <path
       d="m 31.647205,98.300485 c 0.177782,0 0.347483,-0.177782 0.347483,-0.40405 0,-0.177782 -0.129296,-0.315159 -0.290916,-0.315159 -0.177782,0 -0.347483,0.185863 -0.347483,0.387888 0,0.185863 0.121215,0.331321 0.290916,0.331321 z"
       style="fill:#2f2f2f;stroke:none"
       id="path155" />
    <path
       d="m 32.843193,98.251999 h 2.981889 c 0.137377,0 0.258592,-0.113134 0.258592,-0.24243 0,-0.145458 -0.121215,-0.258592 -0.258592,-0.258592 h -2.464705 c 0.05657,-0.953558 0.686885,-1.398013 1.309122,-1.802063 0.662642,-0.428293 1.341446,-0.840424 1.341446,-1.769739 0,-0.759614 -0.638399,-1.37377 -1.527309,-1.37377 -0.670723,0 -1.163664,0.363645 -1.446499,0.638399 -0.185863,0.169701 -0.234349,0.250511 -0.234349,0.339402 0,0.121215 0.105053,0.258592 0.258592,0.258592 0.121215,0 0.185863,-0.08889 0.250511,-0.16162 0.05657,-0.06465 0.517184,-0.573751 1.171745,-0.573751 0.573751,0 1.018206,0.371726 1.018206,0.872748 0,0.662642 -0.541427,0.977801 -1.155583,1.365689 -0.800019,0.517184 -1.503066,1.090935 -1.503066,2.464705 z"
       style="fill:#2f2f2f;stroke:none"
       id="path157" />
    <path
       d="m 38.92011,98.300485 c 1.107097,0 2.012169,-1.341446 2.012169,-2.901079 0,-1.414175 -0.767695,-2.634406 -1.834387,-2.634406 -1.13134,0 -2.02025,1.37377 -2.02025,2.90916 0,1.398013 0.767695,2.626325 1.842468,2.626325 z m 0,-0.501022 c -0.800019,0 -1.349527,-1.026287 -1.349527,-2.141465 0,-1.309122 0.711128,-2.391976 1.527309,-2.391976 0.775776,0 1.349527,1.018206 1.349527,2.149546 0,1.301041 -0.719209,2.383895 -1.527309,2.383895 z"
       style="fill:#2f2f2f;stroke:none"
       id="path159" />
    <path
       d="m 42.249477,98.251999 h 1.737415 c 0.129296,0 0.250511,-0.113134 0.250511,-0.250511 0,-0.137377 -0.09697,-0.258592 -0.266673,-0.258592 h -0.533346 l 0.06465,-4.703142 c 0,-0.129296 -0.09697,-0.258592 -0.258592,-0.258592 -0.04849,0 -0.137377,0.03232 -0.177782,0.08081 l -1.018206,1.107097 c -0.04849,0.04849 -0.07273,0.113134 -0.07273,0.169701 0,0.137377 0.105053,0.258592 0.250511,0.258592 0.07273,0 0.137377,-0.02424 0.185863,-0.08081 l 0.581832,-0.622237 -0.06465,4.048581 h -0.678804 c -0.145458,0 -0.250511,0.121215 -0.250511,0.258592 0,0.137377 0.105053,0.250511 0.250512,0.250511 z"
       style="fill:#2f2f2f;stroke:none"
       id="path161" />
    <path
       d="m 46.742512,98.300485 c 0.961639,0 1.672767,-0.670723 1.672767,-1.559633 0,-0.622237 -0.363645,-1.147502 -0.977801,-1.470742 0.428293,-0.226268 0.840424,-0.573751 0.840424,-1.204069 0,-0.767695 -0.597994,-1.301041 -1.446499,-1.301041 -0.800019,0 -1.494985,0.533346 -1.494985,1.430337 0,0.597994 0.379807,0.921234 0.8081,1.13134 -0.501022,0.258592 -1.05053,0.670723 -1.066692,1.494985 -0.0081,0.848505 0.694966,1.478823 1.664686,1.478823 z m 0.04849,-3.272805 c -0.686885,-0.193944 -0.961639,-0.444455 -0.961639,-0.864667 0,-0.581832 0.476779,-0.88891 1.002044,-0.88891 0.525265,0 0.945477,0.282835 0.945477,0.743452 0,0.363645 -0.169701,0.694966 -0.985882,1.010125 z m -0.04849,2.771783 c -0.64648,0 -1.171745,-0.387888 -1.171745,-0.929315 0,-0.800019 0.694966,-1.066692 1.252555,-1.317203 0.549508,0.177782 1.099016,0.56567 1.099016,1.21215 0,0.711128 -0.630318,1.034368 -1.179826,1.034368 z"
       style="fill:#2f2f2f;stroke:none"
       id="path163" />
  </g>
  <rect
     width="19.925"
     height="55.781"
     x="96.651"
     y="36.109"
     rx="1"
     ry="1"
     fill="#fff"
     stroke-width=".6"
     paint-order="stroke fill markers"
     id="rect18" />
  <g
     fill="#2f2f2f"
     stroke-width="0.19"
     stroke-linecap="round"
     stroke-linejoin="round"
     id="g22">
    <path
       d="m 98.063,90.273 v -0.554 h 17.101 v 0.554 z m 0,-1.107 v -0.553 h 17.101 v 0.553 z m 0,-2.212 v -1.106 h 17.101 v 1.106 z m 0,-1.659 v -0.553 h 17.101 v 0.553 z m 0,-1.66 v -0.553 h 17.101 v 0.553 z m 0,-1.105 v -1.66 h 17.101 v 1.66 z m 0,-2.766 V 79.21 h 17.101 v 0.554 z m 0,-1.107 v -1.659 h 17.101 v 1.66 z m 0,-3.318 v -0.553 h 17.101 v 0.553 z m 0,-1.107 v -1.106 h 17.101 v 1.106 z m 0,-2.765 V 70.36 h 17.101 v 1.106 z m 0,-1.659 v -0.554 h 17.101 v 0.554 z m 0,-1.66 v -1.106 h 17.101 v 1.106 z m 0,-1.659 v -1.106 h 17.101 v 1.106 z m 0,-1.659 v -0.553 h 17.101 v 0.553 z m 0,-1.107 V 63.17 h 17.101 v 0.553 z m 0,-1.106 v -0.553 h 17.101 v 0.553 z m 0,-2.212 v -0.553 h 17.101 v 0.553 z m 0,-1.66 v -0.553 h 17.101 v 0.553 z m 0,-2.212 V 55.98 h 17.101 v 0.553 z m 0,-1.659 v -1.107 h 17.101 v 1.107 z m 0,-2.213 v -1.106 h 17.101 v 1.106 z m 0,-1.659 v -0.553 h 17.101 v 0.553 z m 0,-1.659 v -0.554 h 17.101 v 0.554 z m 0,-2.213 v -1.66 h 17.101 v 1.66 z m 0,-2.212 v -0.553 h 17.101 v 0.553 z m 0,-1.66 v -1.106 h 17.101 v 1.106 z m 0,-1.658 v -1.107 h 17.101 v 1.106 z m 0,-2.213 v -0.553 h 17.101 v 0.553 z m 0,-1.107 v -0.553 h 17.101 v 0.553 z"
       id="path20" />
  </g>
</svg>
