<?xml version="1.0" encoding="UTF-8" standalone="no"?>
<svg
   width="100%"
   height="100%"
   viewBox="0 0 534 534"
   version="1.1"
   xml:space="preserve"
   style="fill-rule:evenodd;clip-rule:evenodd;stroke-linejoin:round;stroke-miterlimit:2;"
   id="svg16"
   sodipodi:docname="emoji_u1f9ce.svg"
   inkscape:version="1.4.2 (f4327f4, 2025-05-13)"
   xmlns:inkscape="http://www.inkscape.org/namespaces/inkscape"
   xmlns:sodipodi="http://sodipodi.sourceforge.net/DTD/sodipodi-0.dtd"
   xmlns="http://www.w3.org/2000/svg"
   xmlns:svg="http://www.w3.org/2000/svg"><defs
     id="defs16" /><sodipodi:namedview
     id="namedview16"
     pagecolor="#ffffff"
     bordercolor="#000000"
     borderopacity="0.25"
     inkscape:showpageshadow="2"
     inkscape:pageopacity="0.0"
     inkscape:pagecheckerboard="0"
     inkscape:deskcolor="#d1d1d1"
     inkscape:zoom="0.96816479"
     inkscape:cx="266.48356"
     inkscape:cy="267"
     inkscape:window-width="1366"
     inkscape:window-height="697"
     inkscape:window-x="-8"
     inkscape:window-y="-8"
     inkscape:window-maximized="1"
     inkscape:current-layer="svg16" /><g
     id="g1"
     transform="matrix(-1,0,0,1,533.33429,0)"><path
       d="m 328.304,476.893 47.677,-41.532 -75.558,-109.263 -65.102,46.006 z"
       style="fill:#1d8cc8;fill-rule:nonzero"
       id="path1" /></g><g
     id="g4"
     transform="matrix(-1,0,0,1,533.33429,0)"><g
       id="g2"><path
         d="m 375.281,433.581 c -10.455,-14.06 -30.359,-16.986 -44.418,-6.531 -14.06,10.455 -16.987,30.358 -6.532,44.418 10.455,14.06 30.358,16.986 44.418,6.531 14.06,-10.455 16.987,-30.358 6.532,-44.418 z"
         style="fill:#42ade7"
         id="path2" /></g><g
       id="g3"><path
         d="m 201.614,406.723 -7.294,54.361 154.64,23.54 3.984,-63.685 z"
         style="fill:#42ade7;fill-rule:nonzero"
         id="path3" /></g></g><g
     id="g6"
     transform="matrix(-1,0,0,1,533.33429,0)"><path
       d="m 164.76,419.314 -6.3,47.097 c -1.142,8.461 4.101,16.583 12.285,19.015 0.871,0.259 1.761,0.447 2.658,0.567 9.548,1.268 18.314,-5.394 19.582,-14.943 l 6.3,-47.096 c 1.267,-9.549 -5.394,-18.314 -14.943,-19.582 -9.467,-1.269 -18.302,5.473 -19.582,14.942 z"
       style="fill:#4568ad;fill-rule:nonzero"
       id="path4" /><path
       d="m 175.12,486.265 10.927,-81.65 -23.334,-3.121 -10.927,81.65 z"
       style="fill:#4568ad;fill-rule:nonzero"
       id="path5" /><path
       d="m 197.844,434.92 3.771,-28.195 -18.956,-2.535 -3.771,28.195 z"
       style="fill:#4568ad;fill-rule:nonzero"
       id="path6" /></g><g
     id="g7"
     transform="matrix(-1,0,0,1,533.33429,0)"><path
       d="m 245.565,144.053 -0.631,49.61 37.765,5.048 14.708,-97.471 z"
       style="fill:#fcc21b;fill-rule:nonzero"
       id="path7" /></g><g
     id="g8"
     transform="matrix(-1,0,0,1,533.33429,0)"><path
       d="m 236.779,95.998 9.902,82.18 53.638,-6.068 c 24.951,-2.815 42.474,-25.921 38.445,-50.677 L 333.861,91.386 C 329.347,63.621 301.873,45.806 274.69,53.039 l -10.776,2.864 c -17.718,4.757 -29.319,21.843 -27.135,40.095 z"
       style="fill:#fcc21b;fill-rule:nonzero"
       id="path8" /></g><g
     id="g9"
     transform="matrix(-1,0,0,1,533.33429,0)"><path
       d="m 228.331,165.342 c 11.553,11.058 16.111,-8.063 23.514,-21.591 4.111,-7.514 12.713,-14.286 12.873,-21.188 0.276,-12.136 2.767,-11.602 7.912,-14.66 0,0 6.553,13.568 9.864,14.66 3.31,1.092 8.499,-2.355 9.989,-8.107 l 2.961,-11.455 c 1.282,-4.961 4.884,-9.015 9.66,-10.874 0,0 35.726,-7.732 29.843,-35.527 -4.325,-20.431 -9.227,3.709 -46.59,-13.693 -6.072,-2.83 -17.329,-3.243 -23.639,-2.612 -29.222,2.864 -48.682,27.994 -40.139,56.06 6.767,22.227 -22.863,43.493 3.752,68.987 z"
       style="fill:#6d4c41;fill-rule:nonzero"
       id="path9" /></g><g
     id="g10"
     transform="matrix(-1,0,0,1,533.33429,0)"><path
       d="m 316.387,112.744 c 0.534,3.641 3.349,6.262 6.359,5.825 3.009,-0.437 5.048,-3.689 4.514,-7.329 -0.534,-3.641 -3.349,-6.262 -6.359,-5.825 -3.01,0.388 -5,3.689 -4.514,7.329"
       style="fill:#444444;fill-rule:nonzero"
       id="path10" /></g><g
     id="g11"
     transform="matrix(-1,0,0,1,533.33429,0)"><path
       d="m 235.323,372.1 h 64.317 c 12.223,0 22.28,-10.057 22.28,-22.28 L 310.27,233.855 c -2.33,-18.834 -8.203,-50.289 -33.881,-50.289 h -22.232 c -22.135,0 -31.358,26.164 -32.329,49.221 l -8.737,117.081 c -0.049,12.233 9.902,22.232 22.232,22.232 z"
       style="fill:#da4105;fill-rule:nonzero"
       id="path11" /></g><g
     id="g12"
     transform="matrix(-1,0,0,1,533.33429,0)"><path
       d="m 231.818,326.583 35.503,5.781 11.689,-71.812 -35.503,-5.776 z"
       style="fill:#fcc21b;fill-rule:nonzero"
       id="path12" /></g><g
     id="g13"
     transform="matrix(-1,0,0,1,533.33429,0)"><path
       d="m 264.985,319.551 c -5.462,-8.431 -16.742,-10.842 -25.174,-5.38 -8.432,5.462 -10.843,16.743 -5.381,25.174 5.463,8.432 16.743,10.843 25.175,5.381 8.432,-5.463 10.843,-16.743 5.38,-25.175 z"
       style="fill:#fcc21b"
       id="path13" /></g><g
     id="g14"
     transform="matrix(-1,0,0,1,533.33429,0)"><path
       d="m 283.815,286.279 -55.482,-10.048 10.291,-56.744 c 2.63,-13.121 14.261,-22.65 27.644,-22.65 15.47,0 28.197,12.728 28.197,28.198 0,1.505 -0.116,3.009 -0.359,4.5 z"
       style="fill:#a23004;fill-rule:nonzero"
       id="path14" /></g><g
     id="g15"
     transform="matrix(-1,0,0,1,533.33429,0)"><path
       d="m 258.263,394.424 32.97,-14.382 -24.625,-56.464 -32.97,14.383 z"
       style="fill:#fcc21b;fill-rule:nonzero"
       id="path15" /></g><g
     id="g16"
     transform="matrix(-1,0,0,1,533.33429,0)"><path
       d="m 291.679,424.865 c -2.971,1.31 -6.184,1.985 -9.427,1.985 -9.256,0 -17.678,-5.5 -21.397,-13.975 l -4.708,-10.728 c -1.311,-2.97 -1.985,-6.184 -1.985,-9.426 0,-9.257 5.499,-17.679 13.975,-21.397 2.97,-1.311 6.184,-1.986 9.426,-1.986 9.257,0 17.679,5.5 21.397,13.975 l 4.709,10.728 c 1.306,2.966 1.98,6.174 1.98,9.417 0,9.257 -5.495,17.679 -13.97,21.407 z"
       style="fill:#fcc21b;fill-rule:nonzero"
       id="path16" /></g></svg>
