<?xml version="1.0" encoding="UTF-8"?>
<svg clip-rule="evenodd" fill-rule="evenodd" stroke-linejoin="round" stroke-miterlimit="1.4142" version="1.1" viewBox="0 0 128 128" xml:space="preserve" xmlns="http://www.w3.org/2000/svg" xmlns:xlink="http://www.w3.org/1999/xlink">
    <g transform="matrix(.91521 0 0 1.4766 5.4265 -67.122)">
        <path d="m-2.544 95.269v-12.933l66.544-19.444 66.544 19.444v12.933l-66.544 19.444-66.544-19.444z" fill="#ffa92d"/>
    </g>
    <g transform="matrix(1 0 0 1.6134 -7.1054e-15 -78.774)">
        <g transform="matrix(1 -0 -0 .61983 7.1054e-15 48.826)">
            <use transform="scale(.97836 .99191)" x="68.016" y="35.249" width="23.481" height="11.903" xlink:href="#_Image1"/>
        
        
            <use transform="scale(.97836 .99191)" x="53.34" y="42.072" width="23.481" height="11.903" xlink:href="#_Image1"/>
        
        
            <use transform="scale(.97836 .99191)" x="23.989" y="55.72" width="23.481" height="11.903" xlink:href="#_Image1"/>
        
        
            <use transform="scale(.97836 .99191)" x="53.49" y="28.425" width="23.481" height="11.903" xlink:href="#_Image1"/>
        
        
            <use transform="scale(.97836 .99191)" x="38.815" y="35.249" width="23.481" height="11.903" xlink:href="#_Image1"/>
        
        
            <use transform="scale(.97836 .99191)" x="24.14" y="42.072" width="23.481" height="11.903" xlink:href="#_Image1"/>
        
        
            <use transform="scale(.97836 .99191)" x="9.464" y="48.896" width="23.481" height="11.903" xlink:href="#_Image1"/>
        
        
            <use transform="scale(.97836 .99191)" x="82.691" y="42.072" width="23.481" height="11.903" xlink:href="#_Image1"/>
        
        
            <use transform="scale(.97836 .99191)" x="68.016" y="48.896" width="23.481" height="11.903" xlink:href="#_Image1"/>
        
        
            <use transform="scale(.97836 .99191)" x="53.34" y="55.72" width="23.481" height="11.903" xlink:href="#_Image1"/>
        
        
            <use transform="scale(.97836 .99191)" x="38.665" y="62.544" width="23.481" height="11.903" xlink:href="#_Image1"/>
        
        
            <use transform="scale(.97836 .99191)" x="97.366" y="48.896" width="23.481" height="11.903" xlink:href="#_Image1"/>
        
        
            <use transform="scale(.97836 .99191)" x="82.691" y="55.72" width="23.481" height="11.903" xlink:href="#_Image1"/>
        
        
            <use transform="scale(.97836 .99191)" x="68.016" y="62.544" width="23.481" height="11.903" xlink:href="#_Image1"/>
        
        
            <use transform="scale(.97836 .99191)" x="53.34" y="69.368" width="23.481" height="11.903" xlink:href="#_Image1"/>
        </g>
    </g>
    <g transform="matrix(.22564 0 0 .14456 63.879 30.025)">
        <path d="m63.84 39.701 48.422 35.632-48.422 35.632-48.423-35.632 48.423-35.632z" fill="#c70"/>
    </g>
    <g transform="matrix(.22564 0 0 .14456 49.522 36.793)">
        <path d="m63.84 39.701 48.422 35.632-48.422 35.632-48.423-35.632 48.423-35.632z" fill="#c70"/>
    </g>
    <g transform="matrix(.22564 0 0 .14456 20.806 50.331)">
        <path d="m63.84 39.701 48.422 35.632-48.422 35.632-48.423-35.632 48.423-35.632z" fill="#c70"/>
    </g>
    <g transform="matrix(.22564 0 0 .14456 49.668 23.256)">
        <path d="m63.84 39.701 48.422 35.632-48.422 35.632-48.423-35.632 48.423-35.632z" fill="#c70"/>
    </g>
    <g transform="matrix(.22564 0 0 .14456 35.31 30.025)">
        <path d="m63.84 39.701 48.422 35.632-48.422 35.632-48.423-35.632 48.423-35.632z" fill="#c70"/>
    </g>
    <g transform="matrix(.22564 0 0 .14456 20.953 36.793)">
        <path d="m63.84 39.701 48.422 35.632-48.422 35.632-48.423-35.632 48.423-35.632z" fill="#c70"/>
    </g>
    <g transform="matrix(.22564 0 0 .14456 6.5947 43.562)">
        <path d="m63.84 39.701 48.422 35.632-48.422 35.632-48.423-35.632 48.423-35.632z" fill="#c70"/>
    </g>
    <g transform="matrix(.22564 0 0 .14456 78.237 36.793)">
        <path d="m63.84 39.701 48.422 35.632-48.422 35.632-48.423-35.632 48.423-35.632z" fill="#c70"/>
    </g>
    <g transform="matrix(.22564 0 0 .14456 63.879 43.562)">
        <path d="m63.84 39.701 48.422 35.632-48.422 35.632-48.423-35.632 48.423-35.632z" fill="#c70"/>
    </g>
    <g transform="matrix(.22564 0 0 .14456 49.522 50.331)">
        <path d="m63.84 39.701 48.422 35.632-48.422 35.632-48.423-35.632 48.423-35.632z" fill="#c70"/>
    </g>
    <g transform="matrix(.22564 0 0 .14456 35.164 57.099)">
        <path d="m63.84 39.701 48.422 35.632-48.422 35.632-48.423-35.632 48.423-35.632z" fill="#c70"/>
    </g>
    <g transform="matrix(.22564 0 0 .14456 92.595 43.562)">
        <path d="m63.84 39.701 48.422 35.632-48.422 35.632-48.423-35.632 48.423-35.632z" fill="#c70"/>
    </g>
    <g transform="matrix(.22564 0 0 .14456 78.237 50.331)">
        <path d="m63.84 39.701 48.422 35.632-48.422 35.632-48.423-35.632 48.423-35.632z" fill="#c70"/>
    </g>
    <g transform="matrix(.22564 0 0 .14456 63.879 57.099)">
        <path d="m63.84 39.701 48.422 35.632-48.422 35.632-48.423-35.632 48.423-35.632z" fill="#c70"/>
    </g>
    <g transform="matrix(.22564 0 0 .14456 49.522 63.868)">
        <path d="m63.84 39.701 48.422 35.632-48.422 35.632-48.423-35.632 48.423-35.632z" fill="#c70"/>
    </g>
    <g transform="matrix(.22564 0 0 .14456 35.164 43.562)">
        <path d="m63.84 39.701 48.422 35.632-48.422 35.632-48.423-35.632 48.423-35.632z" fill="#c70"/>
    </g>
<path d="m64.036 41.861c-1.86-0.2-6.18 3.47-9.07 5.53-2.58 1.83-7.92 5.4-8.42 6.1-1.38 1.92 0.84 4.04 0.84 4.04s15.74 8.07 16.26 8c0.51-0.06 4.25-0.51 6.18-2.06 1.93-1.54 10.55-10.94 10.55-10.94s0.26-1.35-1.16-2.32c-1.13-0.77-5.84-3.59-7.32-4.61s-5.35-3.47-7.86-3.74z" fill="#ffe265"/><path d="m63.266 63.671s1.09 0.39 2.32-0.32 8.04-5.6 12.74-9.97c0.6-0.56 1.74-2.06 1.35-2.64s1.54 0.32 1.54 2.96c0 2.71-1.01 3.68-1.74 4.31-0.97 0.84-13.19 11.45-14.67 11-1.05-0.32-2.9-1.74-2.9-1.74z" fill="#fcb602"/><path d="m46.736 53.491c-1.31 0.73-0.61 3.29-0.26 4.18 0.58 1.48 5.69 4.04 7.58 5.3 4.79 3.19 9.72 5.97 10.43 6.03s0.74-2.79 0-4.76c-0.48-1.27-6.1-3.83-9.02-5.59-4.34-2.6-7.89-5.63-8.73-5.16z" fill="#ffebc9"/></svg>
