<?xml version='1.0' encoding='UTF-8'?>
<svg xmlns="http://www.w3.org/2000/svg" xmlns:svg="http://www.w3.org/2000/svg" viewBox="0 0 128 128" version="1.1" xml:space="preserve" style="fill-rule:evenodd;clip-rule:evenodd;stroke-linejoin:round;stroke-miterlimit:2" id="svg24"><defs id="defs28"/>
    <path d="M128,12.8C128,5.735 122.265,0 115.2,0L12.8,0C5.735,0 0,5.735 0,12.8L0,115.2C0,122.265 5.735,128 12.8,128L115.2,128C122.265,128 128,122.265 128,115.2L128,12.8Z" style="fill:rgb(28,97,146)" id="path2"/>
    <g transform="translate(78.0998,54.5493)" id="g7">
        <g id="text835">
            <g aria-label="2" id="text4" style="fill:#ffffff"><path d="m 3.30695,0 h 23.81004 c 1.653475,0 3.174672,-1.388919 3.174672,-3.108533 0,-1.785753 -1.521197,-3.174672 -3.174672,-3.174672 H 9.854711 c 0.925946,-5.754093 5.092703,-8.664209 9.193321,-11.309769 5.092703,-3.240811 10.714518,-7.010734 10.714518,-14.418302 0,-6.415483 -5.29112,-11.640464 -12.830966,-11.640464 -5.423398,0 -9.457877,2.910116 -11.772742,5.158842 -1.653475,1.587336 -2.116448,2.381004 -2.116448,3.439228 0,1.587336 1.256641,3.240811 3.174672,3.240811 1.521197,0 2.116448,-0.727529 2.777838,-1.455058 0.462973,-0.529112 3.637645,-4.034479 7.93668,-4.034479 3.637645,0 6.481622,2.182587 6.481622,5.29112 0,4.034479 -3.505367,6.217066 -8.333514,9.391738 C 9.457877,-19.048032 3.30695,-14.55058 3.30695,-3.108533 Z" id="path30"/></g>
        </g>
    </g>
    <g transform="translate(13.4914,117.725)" id="g12">
        <g id="text893">
            <g aria-label="3" id="text9" style="fill:#ffffff"><path d="m 15.145831,0.396834 c 6.084788,0 13.955329,-3.902201 13.955329,-13.756912 0,-4.497452 -1.851892,-8.333514 -5.555676,-10.780657 2.843977,-2.248726 4.563591,-5.29112 4.563591,-8.862626 0,-6.018649 -5.687954,-10.648379 -13.029383,-10.648379 -3.769923,0 -7.010734,1.32278 -8.928765,2.513282 -2.248726,1.388919 -2.711699,2.579421 -2.711699,3.637645 0,1.521197 0.992085,3.174672 3.174672,3.174672 0.859807,0 1.256641,-0.330695 2.050309,-0.859807 1.124363,-0.727529 3.108533,-2.050309 6.415483,-2.050309 4.299035,0 6.680039,2.182587 6.680039,4.232896 0,3.174672 -4.100618,5.886371 -7.672124,5.886371 -1.851892,0 -3.240811,1.388919 -3.240811,3.174672 0,1.719614 1.388919,3.174672 3.174672,3.174672 2.447143,0 8.664209,1.32278 8.664209,7.407568 0,5.092703 -4.100618,7.407568 -7.672124,7.407568 -4.497452,0 -6.746178,-2.976255 -7.407568,-4.166757 -0.595251,-1.058224 -1.455058,-1.719614 -2.777838,-1.719614 -1.785753,0 -3.174672,1.32278 -3.174672,3.042394 0,0.396834 0.198417,1.256641 0.529112,1.98417 1.918031,4.232896 7.27529,7.209151 12.963244,7.209151 z" id="path33"/></g>
        </g>
    </g>
    <g transform="translate(17.9889,54.6485)" id="g17">
        <g id="text917">
            <g aria-label="1" id="text14" style="fill:#ffffff"><path d="m 7.076873,0 h 13.095522 c 1.653475,0 3.174672,-1.388919 3.174672,-3.174672 0,-1.719614 -1.190502,-3.174672 -3.30695,-3.174672 h -2.711699 l 0.462973,-34.127724 c 0,-1.587336 -1.190502,-3.174672 -3.240811,-3.174672 -0.66139,0 -1.719614,0.396834 -2.248726,0.992085 l -7.738263,8.399653 c -0.529112,0.595251 -0.859807,1.32278 -0.859807,2.116448 0,1.719614 1.388919,3.174672 3.174672,3.174672 0.859807,0 1.653475,-0.264556 2.314865,-0.925946 l 2.182587,-2.314865 -0.462973,25.860349 H 7.076873 c -1.851892,0 -3.174672,1.455058 -3.174672,3.174672 C 3.902201,-1.388919 5.224981,0 7.076873,0 Z" id="path36"/></g>
        </g>
    </g>
    <g transform="translate(78.8273,117.857)" id="g22">
        <g id="text921">
            <g aria-label="4" id="text19" style="fill:#ffffff"><path d="m 21.958148,0.462973 c 1.719614,0 3.240811,-1.521197 3.240811,-3.174672 v -6.746178 h 0.396834 c 1.719614,0 3.30695,-1.388919 3.30695,-3.174672 0,-1.719614 -1.256641,-3.174672 -3.042394,-3.174672 h -0.66139 v -24.735986 c 0,-1.785753 -1.388919,-3.174672 -3.240811,-3.174672 -1.124363,0 -2.050309,0.529112 -2.64556,1.521197 L 2.579421,-14.682858 c -0.330695,0.595251 -0.529112,0.992085 -0.529112,1.785753 0,1.851892 1.256641,3.108533 3.174672,3.108533 l 13.558495,0.198417 v 6.878456 c 0,1.653475 1.388919,3.174672 3.174672,3.174672 z m -3.174672,-16.402472 -7.93668,-0.198417 7.93668,-13.029383 z" id="path39"/></g>
        </g>
    </g>
</svg>
