<?xml version='1.0' encoding='utf-8'?>
<svg xmlns="http://www.w3.org/2000/svg" width="128" height="128" version="1.1" id="svg27" viewBox="0 0 128 128">
  <defs id="defs5">
    <clipPath id="a">
      <path d="M22.54 13.52a2.812 2.812 0 0 0-2.81 2.81v27.621c0 1.108 1.784 2 4 2h77.89c2.215 0 4-.892 4-2v-27.62c0-1.55-1.26-2.811-2.81-2.811z" fill="#0078b3" paint-order="stroke fill markers" id="path2" />
    </clipPath>
  </defs>
  <path d="M105.46 125.16H25.19c-1.55 0-2.81-1.26-2.81-2.81V18.98c0-1.55 1.26-2.81 2.81-2.81h80.27c1.55 0 2.81 1.26 2.81 2.81v103.38c0 1.55-1.26 2.8-2.81 2.8z" fill="#78909c" id="path7" />
  <path d="M102.81 122.52H22.54c-1.55 0-2.81-1.26-2.81-2.81V16.33c0-1.55 1.26-2.81 2.81-2.81h80.27c1.55 0 2.81 1.26 2.81 2.81v103.38c0 1.55-1.26 2.81-2.81 2.81z" fill="#e0e0e0" id="path9" />
  <path d="M105.62 94.41l-12.33 15.42-15.87 12.69h25.39c1.57 0 2.81-1.21 2.81-2.81z" fill="#b0bec5" id="path11" />
  <path d="M77.42 122.52c.8-4.37 1.08-9.48.36-15.99-.16-1.49.94-2.81 2.44-2.88 3.46-.17 9.4-.61 13.61-1.73 6.03-1.6 11.79-7.51 11.79-7.51s-3.51 9.33-12.76 18.26c-6.52 6.29-15.44 9.85-15.44 9.85z" fill="#78a3ad" id="path13" />
  <g aria-label="17" id="text17" style="line-height:40.8128;fill:#00199e">
    <path d="m 39.359102,97.963997 h 12.929401 c 1.6325,0 3.1344,-1.3713 3.1344,-3.1344 0,-1.6978 -1.1754,-3.1344 -3.265,-3.1344 h -2.677301 l 0.4571,-33.694802 c 0,-1.5672 -1.1754,-3.1344 -3.1997,-3.1344 -0.653,0 -1.6978,0.3918 -2.2202,0.9795 l -7.6401,8.2931 c -0.5224,0.5877 -0.8489,1.306 -0.8489,2.0896 0,1.6978 1.3713,3.134401 3.1344,3.134401 0.8489,0 1.6325,-0.2612 2.2855,-0.9142 l 2.1549,-2.285501 -0.4571,25.532302 h -3.7874 c -1.8284,0 -3.1344,1.4366 -3.1344,3.1344 0,1.7631 1.306,3.1344 3.1344,3.1344 z" id="path31" />
    <path d="m 65.28318,98.290497 c 0.9142,0 2.1549,-0.3918 2.8079,-1.6978 L 85.983281,60.808295 c 0.3265,-0.653 0.7836,-1.6325 0.7836,-2.2855 0,-1.7631 -1.3713,-3.1997 -3.1344,-3.1997 H 62.27938 c -1.7631,0 -3.1344,1.5019 -3.1344,3.1344 0,1.7631 1.3713,3.1344 3.1344,3.1344 H 78.604381 L 62.54058,93.784797 c -0.3265,0.653 -0.3918,1.1101 -0.3918,1.3713 0,1.6325 1.3713,3.1344 3.1344,3.1344 z" id="path33" />
  </g>
  <path d="M22.54 13.52a2.812 2.812 0 0 0-2.81 2.81v27.621c0 1.108 1.784 2 4 2h77.89c2.215 0 4-.892 4-2v-27.62c0-1.55-1.26-2.811-2.81-2.811H22.54z" fill="#0078b3" paint-order="stroke fill markers" id="path19" />
  <path d="M38.15 2.84c-5.08 0-9.06 4.88-9.06 11.1s3.98 11.1 9.06 11.1c1.66 0 3.01-1.35 3.01-3.01 0-1.66-1.34-3-3-3-1.44 0-3.06-2.18-3.06-5.1 0-2.92 1.62-5.1 3.06-5.1 1.38 0 2.912 2.012 3.037 4.75h5.998c-.151-6.046-4.064-10.74-9.045-10.74zM62.46 2.84c-5.08 0-9.06 4.88-9.06 11.1s3.98 11.1 9.06 11.1c1.66 0 3-1.34 3-3s-1.34-3-3-3c-1.44 0-3.06-2.18-3.06-5.1 0-2.92 1.62-5.1 3.06-5.1 1.38 0 2.905 2.007 3.034 4.74h6.012c-.152-6.046-4.064-10.74-9.045-10.74zM86.77 2.84c-5.08 0-9.06 4.88-9.06 11.1s3.98 11.1 9.06 11.1c1.66 0 3-1.34 3-3s-1.34-3-3-3c-1.44 0-3.06-2.18-3.06-5.1 0-2.92 1.62-5.1 3.06-5.1 1.378 0 2.906 2.007 3.035 4.74h6.01C95.662 7.534 91.75 2.84 86.77 2.84z" fill="#616161" id="path21" />
  <g aria-label="July" id="text25" clip-path="url(#a)" style="line-height:1.25;fill:#ffffff;stroke-width:0.638">
    <path d="m 46.296936,43.862156 c 2.935489,0 4.671257,-1.863398 4.671257,-4.364946 V 29.363388 h 0.07658 c 0.63815,0 1.174196,-0.561572 1.174196,-1.250774 0,-0.663676 -0.587098,-1.250774 -1.250774,-1.250774 H 46.09273 c -0.714728,0 -1.301826,0.587098 -1.301826,1.250774 0,0.714728 0.587098,1.2763 1.301826,1.2763 h 2.322866 V 39.49721 c 0,1.02104 -0.663676,1.812346 -2.118658,1.812346 -1.684716,0 -2.271814,-0.89341 -2.271814,-2.118658 0,-0.714728 -0.561572,-1.2763 -1.2763,-1.2763 -0.791306,0 -1.2763,0.587098 -1.2763,1.327352 0,2.118658 1.301826,4.620206 4.824414,4.620206 z" id="path36" />
    <path d="m 58.268646,43.938734 c 1.53156,0 2.756808,-0.867884 3.624692,-1.480508 v 0.280786 c 0,0.689202 0.63815,1.123144 1.301826,1.123144 0.663676,0 1.225248,-0.587098 1.225248,-1.225248 V 32.273352 c 0,-0.689202 -0.587098,-1.174196 -1.225248,-1.174196 -0.587098,0 -1.199722,0.484994 -1.199722,1.174196 l -0.05105,7.27491 c 0,0.306312 -0.05105,0.536046 -0.153156,0.63815 -0.433942,0.484994 -1.888924,1.454982 -3.267328,1.454982 -0.918936,0 -1.684716,-0.689202 -1.684716,-4.46705 0,-2.578126 0.306312,-4.441524 0.306312,-4.875466 0,-0.816832 -0.587098,-1.199722 -1.225248,-1.199722 -0.740254,0 -1.072092,0.484994 -1.199722,1.301826 -0.178682,1.14867 -0.280786,2.93549 -0.280786,4.21179 0,6.049662 1.250774,7.325962 3.8289,7.325962 z" id="path38" />
    <path d="m 69.21929,43.862156 c 0.587098,0 1.225248,-0.51052 1.225248,-1.14867 v -14.80508 c 0,-0.663676 -0.587098,-1.199722 -1.225248,-1.199722 -0.714728,0 -1.225248,0.536046 -1.225248,1.199722 v 14.80508 c 0,0.63815 0.587098,1.14867 1.225248,1.14867 z" id="path40" />
    <path d="m 75.779475,48.431309 c 0.536046,0 0.944462,-0.357364 1.14867,-0.791306 l 6.815442,-14.805079 c 0.07658,-0.153156 0.102104,-0.357364 0.102104,-0.51052 0,-0.714728 -0.51052,-1.250774 -1.123144,-1.250774 -0.536046,0 -0.969988,0.357364 -1.174196,0.791306 l -3.216276,7.121754 -3.599166,-7.121754 c -0.178682,-0.357364 -0.561572,-0.76578 -1.174196,-0.76578 -0.714728,0 -1.2763,0.561572 -1.2763,1.250774 0,0.229734 0.07658,0.459468 0.153156,0.612624 l 4.569154,8.908574 -2.220762,4.773362 c -0.07658,0.178682 -0.12763,0.38289 -0.12763,0.536046 0,0.689201 0.51052,1.250773 1.123144,1.250773 z" id="path42" />
  </g>
</svg>