<?xml version='1.0' encoding='UTF-8'?>
<svg xmlns="http://www.w3.org/2000/svg" version="1.1" viewBox="0 0 121.74 121.74">
 <g transform="matrix(.98462 0 0 .98462 -3.1315 -3.1279)">
  <g transform="translate(-175.45,-113)">
   <g stroke-miterlimit="10" data-paper-data="{&quot;isPaintingLayer&quot;:true}">
    <path d="m246.12 218.7s-0.14 3.66 0.21 7.6 2.53 5.21 2.39 8.8c-0.12 3.1-4.23 4.72-10.28 4.72s-9.08-1.69-9.64-4.01c-0.85-3.52 1.76-5.56 2.53-8.59 0.78-3.02 1.06-8.02 1.06-8.02z" fill="#855b51"/>
    <g fill="none" stroke="#855b51" stroke-linecap="round">
     <path d="m224.01 142.43s13.339-26.821 13.708-17.197c0.38162 9.9452 1.4954 93.712 1.4954 93.712" stroke-width="14"/>
     <path d="m239.96 122.99 13.957 22.182" stroke-width="13.5"/>
     <path d="m214.54 163.61 24.674-4.9847 26.419 2.7416" stroke-width="13"/>
     <path d="m238.21 178.32s-0.86138 0.11691-1.8669 0.25337c-4.2292 0.57397-33.026 4.4821-33.026 4.4821" stroke-width="12.5"/>
     <path d="m216.78 191.03 20.936-8.9724" stroke-width="10.5"/>
     <path d="m265.88 190.53s-36.448-10.594-25.671-10.219c16.915 0.58847 39.878 1.4954 39.878 1.4954" stroke-width="7.5"/>
     <path d="m202.32 203.99 35.142-5.7324 42.121 5.4832" stroke-width="8.5"/>
     <path d="m216.28 213.71 22.431-12.711 23.428 9.4709" stroke-width="11"/>
    </g>
   </g>
  </g>
 </g>
</svg>
