<?xml version="1.0" encoding="UTF-8" standalone="no"?>
<svg
   width="128"
   height="128"
   version="1.1"
   id="svg12"
   xmlns="http://www.w3.org/2000/svg"
   xmlns:svg="http://www.w3.org/2000/svg">
  <defs
     id="defs16" />
  <path
     d="M116 128H12c-6.6 0-12-5.4-12-12V12C0 5.4 5.4 0 12 0h104c6.6 0 12 5.4 12 12v104c0 6.6-5.4 12-12 12z"
     fill="#1bb7fc"
     id="path2" />
  <path
     d="M124.48 3.52L3.52 124.48C5.7 126.65 8.7 128 12 128h104c6.6 0 12-5.4 12-12V12c0-3.3-1.35-6.3-3.52-8.48z"
     fill="#1b79fc"
     id="path4" />
  <path
     d="M112 101c0 6.63-5.37 12-12 12H27.89c-6.6 0-12-5.4-12-12V28.9c0-6.6 5.4-12 12-12H100c6.63 0 12 5.37 12 12z"
     fill="#1ba2fc"
     id="path6" />
  <g
     aria-label="5"
     id="text10"
     style="line-height:1.25;text-align:center;text-anchor:middle;fill:#ffffff;stroke-width:1.102">
    <path
       d="m 63.666396,99.719004 c 12.70008,0 24.34182,-12.17091 24.34182,-27.093504 0,-14.710926 -9.630894,-24.447654 -22.330974,-24.447654 -3.70419,0 -7.090878,0.740838 -9.842562,1.905012 l 1.05834,-9.948396 h 23.389314 c 2.64585,0 5.080032,-2.222514 5.080032,-5.185866 0,-2.64585 -2.434182,-5.080032 -5.080032,-5.080032 h -28.04601 c -2.434182,0 -4.868364,2.010846 -5.080032,4.550862 L 44.616276,59.92542 c -0.317502,3.280854 1.799178,5.609202 4.76253,5.609202 2.11668,0 3.280854,-0.740838 4.445028,-1.905012 1.375842,-1.375842 5.503368,-5.2917 11.853408,-5.2917 8.46672,0 12.17091,7.196712 12.17091,14.28759 0,9.207558 -6.667542,16.827606 -14.181756,16.827606 -5.397534,0 -9.207558,-2.328348 -12.17091,-6.561708 -1.05834,-1.481676 -1.905012,-2.540016 -4.339194,-2.540016 -2.64585,0 -5.080032,2.434182 -5.080032,5.080032 0,0.846672 0.211668,1.693344 0.52917,2.434182 1.481676,3.386688 8.99589,11.853408 21.060966,11.853408 z"
       
       id="path18" />
  </g>
</svg>
