<?xml version='1.0' encoding='utf-8'?>
<svg xmlns="http://www.w3.org/2000/svg" width="128" height="128" version="1.1" id="svg21" viewBox="0 0 128 128">
  <defs id="defs3">
    <path id="a" d="M0 0h128v128H0z" />
  </defs>
  <path fill="#006ca2" d="M48.87 61.82h25.58L106.43 0H80.85z" id="path5" />
  <path fill="#2f2f2f" d="M77.65 55.64L64.86 30.91 52.07 55.64l3.2 6.18h19.18z" id="path7" />
  <path d="M76.5 76.75H50.92V61.82H76.5zm0-21.32H50.92a6.4 6.4 0 0 0-6.4 6.4v14.92a6.4 6.4 0 0 0 6.4 6.4H76.5c3.53 0 6.39-2.86 6.39-6.4V61.82c0-3.53-2.86-6.39-6.39-6.39" fill="#fcc21b" id="path9" />
  <path d="M95.68 95.93c0 17.66-14.32 31.98-31.98 31.98S31.72 113.6 31.72 95.93 46.04 63.95 63.7 63.95c17.67 0 31.98 14.32 31.98 31.98" fill="#fcc21b" id="path11" />
  <path d="M42.27 88.15c-.42 0-.84-.08-1.24-.26-1.54-.66-2.28-2.45-1.68-4 .01-.02.02-.05.02-.07.01-.05.02-.04.04-.08 2.83-6.74 8.76-11.72 15.88-13.37.35-.08.72.09.88.42.16.33.07.73-.22.96-4.67 3.71-8.4 8.71-10.78 14.47 0 .01-.01.02-.01.02s0 .01-.01.01c-.33.77-.94 1.37-1.72 1.67-.37.16-.77.23-1.16.23" fill="#fff" id="path13" />
  <path fill="#006ca2" d="M76.59 61.82H51L19.03 0h25.58z" id="path15" />
  <g aria-label="1" id="text19" style="line-height:1.25;fill:#f79329">
    <path d="m 59.840001,109.195 h 7.92 c 1,0 1.92,-0.84 1.92,-1.92 0,-1.04 -0.72,-1.92 -2,-1.92 h -1.64 l 0.28,-20.64 c 0,-0.96 -0.72,-1.92 -1.96,-1.92 -0.4,0 -1.04,0.24 -1.36,0.6 l -4.68,5.08 c -0.32,0.36 -0.52,0.8 -0.52,1.28 0,1.04 0.84,1.92 1.92,1.92 0.52,0 1,-0.16 1.4,-0.56 l 1.32,-1.4 -0.28,15.64 h -2.32 c -1.12,0 -1.92,0.88 -1.92,1.92 0,1.08 0.8,1.92 1.92,1.92 z" id="path25" />
  </g>
</svg>