<?xml version="1.0" encoding="UTF-8" standalone="no"?>
<svg
   width="128"
   height="128"
   style="enable-background:new 0 0 128 128"
   version="1.1"
   id="svg60"
   xmlns:xlink="http://www.w3.org/1999/xlink"
   xmlns="http://www.w3.org/2000/svg"
   xmlns:svg="http://www.w3.org/2000/svg">
  <metadata
     id="metadata66" />
  <defs
     id="defs64">
    <path
       d="m 39.95,98.79 c -2.7,-0.82 -5.5,-1.34 -8.35,-1.33 -1.74,0 -3.61,-0.19 -5.34,0.01 -0.45,0.05 -1.03,0.14 -1.43,0.32 l -0.17,0.09 c -0.5,0.07 -0.98,0.19 -1.4,0.42 -1.38,0.78 -1.26,2.13 -1.43,3.32 -0.13,0.92 -0.21,1.71 -0.23,2.65 -0.05,2.21 -0.11,4.44 -0.01,6.75 0.1,2.52 0.1,5.07 0.14,7.66 0.03,3.01 -1,7.11 3.89,7.54 0.31,0.03 0.66,0.05 1.02,0.06 0.47,0.19 1.25,0.06 1.72,0.15 0.89,0.17 1.8,0.17 2.71,0.17 1.3,0 2.6,0.07 3.88,-0.11 0.9,-0.13 1.81,-0.01 2.7,-0.21 3.81,-0.86 7.03,-3.2 8.94,-6.38 3.05,-5.08 2.76,-12.2 -0.71,-17.04 -1.43,-1.95 -3.53,-3.33 -5.93,-4.07 z m -1.06,16.78 c -0.63,1.43 -1.7,2.48 -2.96,2.87 -0.72,0.22 -1.55,0.15 -2.29,0.15 -0.45,0 -0.85,0.01 -1.25,-0.25 -0.55,-0.35 -0.84,-0.68 -0.85,-1.46 -0.01,-0.99 -0.08,-1.97 -0.08,-2.95 0,-1.86 0.08,-3.71 0.08,-5.57 0,-0.69 -0.12,-1.62 0.07,-2.27 l 0.06,-0.16 c 0.39,-0.89 1.58,-0.48 2.26,-0.48 0.93,-0.01 1.87,0.23 2.77,0.6 0.79,0.33 1.49,0.95 1.96,1.83 1.15,2.2 1.24,5.41 0.23,7.69 z m 62.32,-16.78 c -2.7,-0.82 -5.5,-1.34 -8.35,-1.33 -1.73,0 -3.61,-0.19 -5.34,0.01 -0.45,0.05 -1.03,0.14 -1.44,0.32 l -0.17,0.09 c -0.5,0.07 -0.98,0.19 -1.41,0.42 -1.38,0.78 -1.26,2.13 -1.43,3.32 -0.13,0.92 -0.2,1.71 -0.23,2.65 -0.05,2.21 -0.11,4.44 -0.01,6.75 0.1,2.52 0.1,5.07 0.14,7.66 0.04,3.01 -1,7.11 3.89,7.54 0.32,0.03 0.66,0.05 1.02,0.06 0.46,0.19 1.25,0.06 1.72,0.15 0.89,0.17 1.8,0.17 2.71,0.17 1.3,0 2.6,0.07 3.89,-0.11 0.9,-0.13 1.8,-0.01 2.7,-0.21 3.81,-0.86 7.03,-3.2 8.94,-6.38 3.05,-5.08 2.76,-12.2 -0.72,-17.04 -1.4,-1.95 -3.51,-3.33 -5.91,-4.07 z m -1.05,16.78 c -0.63,1.43 -1.7,2.48 -2.96,2.87 -0.72,0.22 -1.55,0.15 -2.28,0.15 -0.44,0 -0.85,0.01 -1.25,-0.25 -0.55,-0.35 -0.83,-0.68 -0.85,-1.46 -0.01,-0.99 -0.08,-1.97 -0.08,-2.95 0,-1.86 0.08,-3.71 0.08,-5.57 0,-0.69 -0.12,-1.62 0.07,-2.27 l 0.06,-0.16 c 0.39,-0.89 1.59,-0.48 2.26,-0.48 0.93,-0.01 1.87,0.23 2.77,0.6 0.79,0.33 1.49,0.95 1.96,1.83 1.14,2.2 1.24,5.41 0.22,7.69 z M 77.09,100.31 c 0.29,0.37 0.49,0.79 0.51,1.28 0.03,0.79 -0.15,1.57 -0.3,2.34 -0.38,1.99 -1.05,3.91 -1.59,5.87 -0.82,2.9 -1.57,5.81 -2.52,8.67 -0.08,0.23 -0.16,0.46 -0.24,0.7 -1.4,3.95 -3.93,9.16 -10.66,7.42 -2.89,-0.75 -3.69,-3.22 -4.63,-5.19 -0.37,-0.77 -0.68,-1.58 -0.95,-2.39 -1.46,-4.36 -2.98,-8.92 -4.09,-13.38 -0.2,-0.81 -0.54,-1.64 -0.71,-2.49 -0.15,-0.79 -0.26,-1.63 -0.07,-2.42 0.27,-1.07 1.18,-1.6 2.21,-1.81 1.29,-0.27 2.63,-0.5 3.95,-0.32 2.26,0.31 2.68,2.92 3.16,4.69 0.74,2.8 1.19,5.68 2.05,8.45 0.18,0.58 0.3,1.21 0.62,1.74 0.38,0.62 1.13,0.7 1.59,0.08 0.19,-0.24 0.24,-0.61 0.32,-0.9 0.15,-0.55 0.29,-1.1 0.42,-1.66 0.27,-1.11 0.5,-2.23 0.76,-3.34 0.31,-1.34 0.59,-2.73 1.03,-4.04 0.27,-0.83 0.48,-1.7 0.76,-2.52 0.31,-0.89 0.92,-1.81 1.82,-2.23 0.98,-0.45 2.06,-0.12 3.09,-0.12 0.65,0 1.35,0.21 1.95,0.47 0.57,0.25 1.13,0.62 1.52,1.1 z"
       id="SVGID_1_-6" />
    <path
       d="m 39.95,98.79 c -2.7,-0.82 -5.5,-1.34 -8.35,-1.33 -1.74,0 -3.61,-0.19 -5.34,0.01 -0.45,0.05 -1.03,0.14 -1.43,0.32 l -0.17,0.09 c -0.5,0.07 -0.98,0.19 -1.4,0.42 -1.38,0.78 -1.26,2.13 -1.43,3.32 -0.13,0.92 -0.21,1.71 -0.23,2.65 -0.05,2.21 -0.11,4.44 -0.01,6.75 0.1,2.52 0.1,5.07 0.14,7.66 0.03,3.01 -1,7.11 3.89,7.54 0.31,0.03 0.66,0.05 1.02,0.06 0.47,0.19 1.25,0.06 1.72,0.15 0.89,0.17 1.8,0.17 2.71,0.17 1.3,0 2.6,0.07 3.88,-0.11 0.9,-0.13 1.81,-0.01 2.7,-0.21 3.81,-0.86 7.03,-3.2 8.94,-6.38 3.05,-5.08 2.76,-12.2 -0.71,-17.04 -1.43,-1.95 -3.53,-3.33 -5.93,-4.07 z m -1.06,16.78 c -0.63,1.43 -1.7,2.48 -2.96,2.87 -0.72,0.22 -1.55,0.15 -2.29,0.15 -0.45,0 -0.85,0.01 -1.25,-0.25 -0.55,-0.35 -0.84,-0.68 -0.85,-1.46 -0.01,-0.99 -0.08,-1.97 -0.08,-2.95 0,-1.86 0.08,-3.71 0.08,-5.57 0,-0.69 -0.12,-1.62 0.07,-2.27 l 0.06,-0.16 c 0.39,-0.89 1.58,-0.48 2.26,-0.48 0.93,-0.01 1.87,0.23 2.77,0.6 0.79,0.33 1.49,0.95 1.96,1.83 1.15,2.2 1.24,5.41 0.23,7.69 z m 62.32,-16.78 c -2.7,-0.82 -5.5,-1.34 -8.35,-1.33 -1.73,0 -3.61,-0.19 -5.34,0.01 -0.45,0.05 -1.03,0.14 -1.44,0.32 l -0.17,0.09 c -0.5,0.07 -0.98,0.19 -1.41,0.42 -1.38,0.78 -1.26,2.13 -1.43,3.32 -0.13,0.92 -0.2,1.71 -0.23,2.65 -0.05,2.21 -0.11,4.44 -0.01,6.75 0.1,2.52 0.1,5.07 0.14,7.66 0.04,3.01 -1,7.11 3.89,7.54 0.32,0.03 0.66,0.05 1.02,0.06 0.46,0.19 1.25,0.06 1.72,0.15 0.89,0.17 1.8,0.17 2.71,0.17 1.3,0 2.6,0.07 3.89,-0.11 0.9,-0.13 1.8,-0.01 2.7,-0.21 3.81,-0.86 7.03,-3.2 8.94,-6.38 3.05,-5.08 2.76,-12.2 -0.72,-17.04 -1.4,-1.95 -3.51,-3.33 -5.91,-4.07 z m -1.05,16.78 c -0.63,1.43 -1.7,2.48 -2.96,2.87 -0.72,0.22 -1.55,0.15 -2.28,0.15 -0.44,0 -0.85,0.01 -1.25,-0.25 -0.55,-0.35 -0.83,-0.68 -0.85,-1.46 -0.01,-0.99 -0.08,-1.97 -0.08,-2.95 0,-1.86 0.08,-3.71 0.08,-5.57 0,-0.69 -0.12,-1.62 0.07,-2.27 l 0.06,-0.16 c 0.39,-0.89 1.59,-0.48 2.26,-0.48 0.93,-0.01 1.87,0.23 2.77,0.6 0.79,0.33 1.49,0.95 1.96,1.83 1.14,2.2 1.24,5.41 0.22,7.69 z M 77.09,100.31 c 0.29,0.37 0.49,0.79 0.51,1.28 0.03,0.79 -0.15,1.57 -0.3,2.34 -0.38,1.99 -1.05,3.91 -1.59,5.87 -0.82,2.9 -1.57,5.81 -2.52,8.67 -0.08,0.23 -0.16,0.46 -0.24,0.7 -1.4,3.95 -3.93,9.16 -10.66,7.42 -2.89,-0.75 -3.69,-3.22 -4.63,-5.19 -0.37,-0.77 -0.68,-1.58 -0.95,-2.39 -1.46,-4.36 -2.98,-8.92 -4.09,-13.38 -0.2,-0.81 -0.54,-1.64 -0.71,-2.49 -0.15,-0.79 -0.26,-1.63 -0.07,-2.42 0.27,-1.07 1.18,-1.6 2.21,-1.81 1.29,-0.27 2.63,-0.5 3.95,-0.32 2.26,0.31 2.68,2.92 3.16,4.69 0.74,2.8 1.19,5.68 2.05,8.45 0.18,0.58 0.3,1.21 0.62,1.74 0.38,0.62 1.13,0.7 1.59,0.08 0.19,-0.24 0.24,-0.61 0.32,-0.9 0.15,-0.55 0.29,-1.1 0.42,-1.66 0.27,-1.11 0.5,-2.23 0.76,-3.34 0.31,-1.34 0.59,-2.73 1.03,-4.04 0.27,-0.83 0.48,-1.7 0.76,-2.52 0.31,-0.89 0.92,-1.81 1.82,-2.23 0.98,-0.45 2.06,-0.12 3.09,-0.12 0.65,0 1.35,0.21 1.95,0.47 0.57,0.25 1.13,0.62 1.52,1.1 z"
       id="SVGID_1_-7" />
    <defs
       id="defs3">
      <path
         id="SVGID_1_"
         d="m 39.95,98.79 c -2.7,-0.82 -5.5,-1.34 -8.35,-1.33 -1.74,0 -3.61,-0.19 -5.34,0.01 -0.45,0.05 -1.03,0.14 -1.43,0.32 l -0.17,0.09 c -0.5,0.07 -0.98,0.19 -1.4,0.42 -1.38,0.78 -1.26,2.13 -1.43,3.32 -0.13,0.92 -0.21,1.71 -0.23,2.65 -0.05,2.21 -0.11,4.44 -0.01,6.75 0.1,2.52 0.1,5.07 0.14,7.66 0.03,3.01 -1,7.11 3.89,7.54 0.31,0.03 0.66,0.05 1.02,0.06 0.47,0.19 1.25,0.06 1.72,0.15 0.89,0.17 1.8,0.17 2.71,0.17 1.3,0 2.6,0.07 3.88,-0.11 0.9,-0.13 1.81,-0.01 2.7,-0.21 3.81,-0.86 7.03,-3.2 8.94,-6.38 3.05,-5.08 2.76,-12.2 -0.71,-17.04 -1.43,-1.95 -3.53,-3.33 -5.93,-4.07 z m -1.06,16.78 c -0.63,1.43 -1.7,2.48 -2.96,2.87 -0.72,0.22 -1.55,0.15 -2.29,0.15 -0.45,0 -0.85,0.01 -1.25,-0.25 -0.55,-0.35 -0.84,-0.68 -0.85,-1.46 -0.01,-0.99 -0.08,-1.97 -0.08,-2.95 0,-1.86 0.08,-3.71 0.08,-5.57 0,-0.69 -0.12,-1.62 0.07,-2.27 l 0.06,-0.16 c 0.39,-0.89 1.58,-0.48 2.26,-0.48 0.93,-0.01 1.87,0.23 2.77,0.6 0.79,0.33 1.49,0.95 1.96,1.83 1.15,2.2 1.24,5.41 0.23,7.69 z m 62.32,-16.78 c -2.7,-0.82 -5.5,-1.34 -8.35,-1.33 -1.73,0 -3.61,-0.19 -5.34,0.01 -0.45,0.05 -1.03,0.14 -1.44,0.32 l -0.17,0.09 c -0.5,0.07 -0.98,0.19 -1.41,0.42 -1.38,0.78 -1.26,2.13 -1.43,3.32 -0.13,0.92 -0.2,1.71 -0.23,2.65 -0.05,2.21 -0.11,4.44 -0.01,6.75 0.1,2.52 0.1,5.07 0.14,7.66 0.04,3.01 -1,7.11 3.89,7.54 0.32,0.03 0.66,0.05 1.02,0.06 0.46,0.19 1.25,0.06 1.72,0.15 0.89,0.17 1.8,0.17 2.71,0.17 1.3,0 2.6,0.07 3.89,-0.11 0.9,-0.13 1.8,-0.01 2.7,-0.21 3.81,-0.86 7.03,-3.2 8.94,-6.38 3.05,-5.08 2.76,-12.2 -0.72,-17.04 -1.4,-1.95 -3.51,-3.33 -5.91,-4.07 z m -1.05,16.78 c -0.63,1.43 -1.7,2.48 -2.96,2.87 -0.72,0.22 -1.55,0.15 -2.28,0.15 -0.44,0 -0.85,0.01 -1.25,-0.25 -0.55,-0.35 -0.83,-0.68 -0.85,-1.46 -0.01,-0.99 -0.08,-1.97 -0.08,-2.95 0,-1.86 0.08,-3.71 0.08,-5.57 0,-0.69 -0.12,-1.62 0.07,-2.27 l 0.06,-0.16 c 0.39,-0.89 1.59,-0.48 2.26,-0.48 0.93,-0.01 1.87,0.23 2.77,0.6 0.79,0.33 1.49,0.95 1.96,1.83 1.14,2.2 1.24,5.41 0.22,7.69 z M 77.09,100.31 c 0.29,0.37 0.49,0.79 0.51,1.28 0.03,0.79 -0.15,1.57 -0.3,2.34 -0.38,1.99 -1.05,3.91 -1.59,5.87 -0.82,2.9 -1.57,5.81 -2.52,8.67 -0.08,0.23 -0.16,0.46 -0.24,0.7 -1.4,3.95 -3.93,9.16 -10.66,7.42 -2.89,-0.75 -3.69,-3.22 -4.63,-5.19 -0.37,-0.77 -0.68,-1.58 -0.95,-2.39 -1.46,-4.36 -2.98,-8.92 -4.09,-13.38 -0.2,-0.81 -0.54,-1.64 -0.71,-2.49 -0.15,-0.79 -0.26,-1.63 -0.07,-2.42 0.27,-1.07 1.18,-1.6 2.21,-1.81 1.29,-0.27 2.63,-0.5 3.95,-0.32 2.26,0.31 2.68,2.92 3.16,4.69 0.74,2.8 1.19,5.68 2.05,8.45 0.18,0.58 0.3,1.21 0.62,1.74 0.38,0.62 1.13,0.7 1.59,0.08 0.19,-0.24 0.24,-0.61 0.32,-0.9 0.15,-0.55 0.29,-1.1 0.42,-1.66 0.27,-1.11 0.5,-2.23 0.76,-3.34 0.31,-1.34 0.59,-2.73 1.03,-4.04 0.27,-0.83 0.48,-1.7 0.76,-2.52 0.31,-0.89 0.92,-1.81 1.82,-2.23 0.98,-0.45 2.06,-0.12 3.09,-0.12 0.65,0 1.35,0.21 1.95,0.47 0.57,0.25 1.13,0.62 1.52,1.1 z" />
    </defs>
    <clipPath
       id="SVGID_2_">
      <use
         style="overflow:visible"
         xlink:href="#SVGID_1_"
         id="use7"
         x="0"
         y="0"
         width="100%"
         height="100%" />
    </clipPath>
  </defs>
  <g
     id="g56">
    <g
       id="g44">
      <path
         id="path12"
         style="fill:#fcc21b"
         d="m 110.32,45.45 c 0,22.11 -20.74,40.04 -46.33,40.04 -25.57,0 -46.31,-17.93 -46.31,-40.04 0,-22.11 20.73,-40.04 46.31,-40.04 25.59,0 46.33,17.92 46.33,40.04 z" />
      <g
         id="g18">
        <path
           id="polygon14"
           style="fill:#ffffff"
           d="m 62.99,45.45 52.14,-4.49 v 12.7 z" />
        <path
           id="polygon16"
           style="fill:#ffffff"
           d="M 110.32,33.45 102.55,16.86 86.97,9.44 63.99,45.45 Z" />
      </g>
      <g
         id="g42">
        <path
           id="polygon20"
           style="fill:#ffffff"
           d="m 63.04,45.69 48.62,-16.93 1.63,23.09 z" />
        <path
           id="polygon22"
           style="fill:#ffffff"
           d="M 65,45.31 19.39,67.63 14.25,44.93 Z" />
        <path
           id="polygon24"
           style="fill:#ffffff"
           d="m 18.64,59.97 8.98,16.12 16.09,6.55 20.28,-37.19 z" />
        <g
           id="g32">
          <path
             id="polygon26"
             style="fill:#ffffff"
             d="M 18.85,65.74 27,76.3 65.11,44.44 Z" />
          <path
             id="polygon28"
             style="fill:#fcc21b"
             d="M 18.01,66.33 12.82,54.44 64.96,46.21 Z" />
          <path
             id="polygon30"
             style="fill:#ffffff"
             d="M 33.29,82.14 22.16,73.85 63.4,45.05 Z" />
        </g>
        <g
           id="g40">
          <path
             id="polygon34"
             style="fill:#ffffff"
             d="M 109.12,30.39 102.44,19.08 60.31,46.91 Z" />
          <path
             id="polygon36"
             style="fill:#fcc21b"
             d="m 110.04,29.89 3.55,12.33 -52.9,2.94 z" />
          <path
             id="polygon38"
             style="fill:#ffffff"
             d="M 96.98,12.65 106.92,22 62.1,46.47 Z" />
        </g>
      </g>
    </g>
    <path
       id="path46"
       style="fill:#fcc21b"
       d="m 63.99,5.41 c 25.59,0 46.33,17.93 46.33,40.04 0,22.11 -20.74,40.04 -46.33,40.04 -25.57,0 -46.31,-17.93 -46.31,-40.04 0,-22.12 20.73,-40.04 46.31,-40.04 m 0,-4.35 c -29.5,0 -53.5,20.75 -53.5,46.26 0,25.5 24,46.26 53.5,46.26 29.51,0 53.52,-20.75 53.52,-46.26 C 117.51,21.81 93.5,1.06 63.99,1.06 Z" />
    <g
       id="g54">
      <path
         id="ellipse48"
         style="fill:#ffffff"
         d="m 75.760002,43.950001 a 11.77,10.18 0 0 1 -11.77,10.18 11.77,10.18 0 0 1 -11.770001,-10.18 A 11.77,10.18 0 0 1 63.990002,33.77 a 11.77,10.18 0 0 1 11.77,10.180001 z" />
      <path
         id="path50"
         style="fill:#fcc21b"
         d="m 63.99,33.77 c 6.5,0 11.78,4.56 11.78,10.18 0,5.62 -5.28,10.17 -11.78,10.17 -6.5,0 -11.77,-4.55 -11.77,-10.17 0,-5.62 5.27,-10.18 11.77,-10.18 m 0,-3.19 c -9.13,0 -16.56,6.42 -16.56,14.32 0,7.9 7.43,14.32 16.56,14.32 9.14,0 16.57,-6.43 16.57,-14.32 0,-7.89 -7.43,-14.32 -16.57,-14.32 z" />
      <path
         id="ellipse52"
         style="fill:#fcc21b"
         d="m 69.520002,43.950001 a 5.5300002,4.7800002 0 0 1 -5.53,4.78 5.5300002,4.7800002 0 0 1 -5.530001,-4.78 5.5300002,4.7800002 0 0 1 5.530001,-4.78 5.5300002,4.7800002 0 0 1 5.53,4.78 z" />
    </g>
  </g>
  <g
     aria-label="DVD"
     id="text904"
     style="line-height:1.25;opacity:1;fill:#006ca2;stroke-width:2.26198">
    <path
       d="m 35.055099,126.63937 c 8.149155,0 14.77826,-4.01125 14.77826,-13.21599 0,-13.30043 -12.582632,-15.580508 -19.338408,-15.580508 -1.182261,0 -2.11118,0.886695 -2.11118,2.068956 v 23.940782 c 0,0.92892 0.717801,1.77339 1.604497,2.06895 0.380012,0.12668 2.744533,0.71781 5.066831,0.71781 z m 0,-4.22236 c -0.844472,0 -1.731167,-0.12667 -2.448968,-0.25335 v -20.01398 c 7.051341,0.54891 13.004868,3.46233 13.004868,11.2737 0,6.03797 -4.137913,8.99363 -10.5559,8.99363 z"
       
       id="path51" />
    <path
       d="m 61.402572,126.38602 c 0.802249,0 1.562273,-0.33778 1.942286,-1.30893 l 9.669204,-24.57413 c 0.126671,-0.29557 0.168894,-0.591132 0.168894,-0.80225 0,-1.05559 -0.844472,-2.026733 -2.068956,-2.026733 -0.844472,0 -1.562273,0.46446 -1.942286,1.308932 L 61.571467,118.23687 55.111256,99.10958 c -0.337789,-0.971143 -1.097813,-1.435603 -1.942285,-1.435603 -1.308932,0 -2.153404,0.844472 -2.153404,1.98451 0,0.253341 0.04222,0.591133 0.168894,0.971143 l 8.233602,24.36302 c 0.295565,0.92891 1.097814,1.39337 1.984509,1.39337 z"
       
       id="path53" />
    <path
       d="m 83.232178,126.63937 c 8.149154,0 14.778259,-4.01125 14.778259,-13.21599 0,-13.30043 -12.582632,-15.580508 -19.338408,-15.580508 -1.182261,0 -2.11118,0.886695 -2.11118,2.068956 v 23.940782 c 0,0.92892 0.717801,1.77339 1.604497,2.06895 0.380012,0.12668 2.744534,0.71781 5.066832,0.71781 z m 0,-4.22236 c -0.844472,0 -1.731168,-0.12667 -2.448969,-0.25335 v -20.01398 c 7.051341,0.54891 13.004868,3.46233 13.004868,11.2737 0,6.03797 -4.137912,8.99363 -10.555899,8.99363 z"
       
       id="path55" />
  </g>
</svg>
