<?xml version='1.0' encoding='utf-8'?>
<svg xmlns="http://www.w3.org/2000/svg" width="128" height="128" version="1.1" id="svg497" viewBox="0 0 128 128">
  <defs id="defs501" />
  <g transform="matrix(5.71429,0,0,7.05882,-18.857205,-24.23525)" id="g4" style="clip-rule:evenodd;fill:#db4437;fill-rule:evenodd;stroke-linejoin:round;stroke-miterlimit:2">
    <path d="M 25,6.267 C 25,5.016 23.745,4 22.2,4 H 6.8 C 5.255,4 4,5.016 4,6.267 V 18.733 C 4,19.984 5.255,21 6.8,21 h 15.4 c 1.545,0 2.8,-1.016 2.8,-2.267 z" style="fill:#db4437" id="path2" />
  </g>
  <g transform="translate(-2.273514,1.047149)" id="g12" style="clip-rule:evenodd;fill:#ef9a9a;fill-rule:evenodd;stroke-linejoin:round;stroke-miterlimit:2">
    <path d="M 30.915,7.958 C 25.554,8.085 15,8 12.066,18.857 c -0.581,2.15 -1.578,5.57 0.285,7.423 1.433,1.425 3.932,0.985 5.373,-0.162 1.534,-1.221 2.286,-3.205 3.245,-4.857 1.114,-1.917 2.599,-3.655 4.34,-5.034 1.627,-1.289 3.482,-2.052 5.444,-2.683 1.362,-0.438 3.297,-0.632 3.969,-1.979 C 36,9 32.576,7.869 30.915,7.958 Z" style="fill:#ef9a9a" id="path10" />
  </g>
  <g id="text491" style="line-height:1.25" />
  <g aria-label="AB" id="text495" style="line-height:1.25;fill:#ffffff">
    <path d="m 56.799998,97.023997 c 2.88,0 4.8,-2.208 4.8,-4.608 0,-1.152 -0.288,-1.824 -0.672,-2.976 l -19.104,-55.392 c -0.768,-2.304 -2.592,-3.168 -4.416,-3.168 -1.92,0 -3.744,1.056 -4.512,2.976 l -14.208,36.096 -3.552,0.768 c -2.112,0.48 -3.648,2.304 -3.648,4.608 0,2.016 0.96,3.456 2.496,4.224 0.288,0.192 0.576,0.288 0.864,0.384 l -3.84,9.6 c -0.384,0.96 -0.672,2.016 -0.672,2.88 0,2.496 2.208,4.512 4.8,4.512 2.304,0 3.744,-1.44 4.416,-3.072 l 6.24,-15.744 19.584,-4.32 6.912,19.968 c 0.672,2.112 2.112,3.264 4.512,3.264 z m -26.976,-29.472 7.2,-18.144 5.184,15.456 z" id="path13" />
    <path d="m 75.136002,97.119997 c 28.799998,0 42.527998,-7.584 42.527998,-20.64 0,-7.392 -3.168,-12.384 -9.696,-15.456 2.496,-2.688 4.416,-6.624 4.416,-12 0,-8.736 -7.392,-16.992 -21.791998,-16.992 h -16.32 c -2.496,0 -4.704,2.208 -4.704,4.704 v 55.104 c 0,3.552 1.344,5.28 5.568,5.28 z m 4.032,-39.072 v -16.8 h 11.424 c 8.16,0 12.287998,3.648 12.287998,7.872 0,4.416 -3.551998,8.928 -9.023998,8.928 z m 0,29.952 v -20.736 h 14.688 c 9.407998,0 14.303998,3.936 14.303998,9.216 0,7.776 -13.247998,11.232 -28.991998,11.52 z" id="path15" />
  </g>
</svg>