<?xml version='1.0' encoding='utf-8'?>
<svg xmlns="http://www.w3.org/2000/svg" width="128" height="128" version="1.1" id="svg2777" viewBox="0 0 128 128">
  <defs id="defs2781" />
  <g transform="matrix(5.71429,0,0,7.05882,-18.857205,-24.23525)" id="g4" style="clip-rule:evenodd;fill:#40c0e7;fill-rule:evenodd;stroke-linejoin:round;stroke-miterlimit:2">
    <path d="M 25,6.267 C 25,5.016 23.745,4 22.2,4 H 6.8 C 5.255,4 4,5.016 4,6.267 V 18.733 C 4,19.984 5.255,21 6.8,21 h 15.4 c 1.545,0 2.8,-1.016 2.8,-2.267 z" style="fill:#40c0e7" id="path2" />
  </g>
  <g transform="translate(-2.273514,1.047149)" id="g12" style="clip-rule:evenodd;fill:#94e0f1;fill-rule:evenodd;stroke-linejoin:round;stroke-miterlimit:2">
    <path d="M 30.915,7.958 C 25.554,8.085 15,8 12.066,18.857 c -0.581,2.15 -1.578,5.57 0.285,7.423 1.433,1.425 3.932,0.985 5.373,-0.162 1.534,-1.221 2.286,-3.205 3.245,-4.857 1.114,-1.917 2.599,-3.655 4.34,-5.034 1.627,-1.289 3.482,-2.052 5.444,-2.683 1.362,-0.438 3.297,-0.632 3.969,-1.979 C 36,9 32.576,7.869 30.915,7.958 Z" style="fill:#94e0f1" id="path10" />
  </g>
  <g aria-label="OK" id="text2775" style="line-height:65.7148;fill:#ffffff">
    <path d="m 31.142474,99.801534 c 16.928183,0 31.438055,-16.612752 31.438055,-38.482703 0,-19.136208 -11.56584,-33.225504 -27.337439,-33.225504 -16.717896,0 -31.3329115,16.612752 -31.3329115,38.482703 0,18.92592 11.3555515,33.225504 27.2322955,33.225504 z m 0,-9.98868 c -8.621808,0 -16.717896,-7.8858 -16.717896,-23.236824 0,-16.717895 9.147528,-28.494023 20.187648,-28.494023 8.621807,0 17.453903,8.306376 17.453903,23.6574 0,16.717895 -9.568104,28.073447 -20.923655,28.073447 z" style="stroke-width:0.471" id="path11" />
    <path d="m 118.93777,99.906678 c 2.83888,0 5.15205,-2.208024 5.15205,-5.152056 0,-1.57716 -0.52572,-2.944032 -1.99773,-4.100616 L 88.55115,64.47315 120.30464,37.240855 c 1.47201,-1.261728 1.78745,-2.523456 1.78745,-3.890328 0,-2.6286 -2.41832,-5.2572 -5.04692,-5.2572 -1.26172,0 -2.52345,0.52572 -3.3646,1.261728 L 84.976255,53.958751 V 33.350527 c 0,-2.944032 -2.418312,-5.152056 -5.152056,-5.152056 -2.838888,0 -5.152056,2.208024 -5.152056,5.152056 v 61.298951 c 0,2.733744 2.313168,5.152056 5.152056,5.152056 2.733744,0 5.152056,-2.418312 5.152056,-5.152056 V 74.777262 l 30.807195,24.077976 c 0.84115,0.630864 1.78744,1.05144 3.15432,1.05144 z" style="stroke-width:0.471" id="path13" />
  </g>
</svg>