<?xml version="1.0" encoding="UTF-8"?>
<svg clip-rule="evenodd" fill-rule="evenodd" stroke-linejoin="round" stroke-miterlimit="2" version="1.1" viewBox="0 0 128 128" xml:space="preserve" xmlns="http://www.w3.org/2000/svg"><g transform="matrix(.24366 0 0 .24366 -.98202 -8.2809)"><g fill-rule="nonzero"><path d="m478.03 89.496c-31.983 0.392-87.396 36.962-108.32 52.333-9.291 6.75-17.25 12.55-24.125 17.425-25.666-7.75-53.5-11.791-81.083-11.791-28.042-0.042-56.333 4.166-82.375 12.166-8-4.666-17.583-10.379-28.917-17.254-27.166-16.542-109.29-60.708-129.42-35.042-23.834 30.459 13.333 125.92 31.875 168.67-6.084 15.958-9.875 32.417-10.959 48.792-0.291 3.958-0.416 7.916-0.5 11.833l-30-4.458c-4.833-0.625-9.375 2.625-10.083 7.458-0.708 4.875 2.625 9.417 7.5 10.083l33 4.917c0.48 7.806 1.468 15.572 2.958 23.25l-35.416 6.375c-4.215 0.76-7.31 4.464-7.31 8.746 0 0.533 0.048 1.064 0.143 1.587 0.782 4.201 4.477 7.28 8.75 7.292 0.5 0 1.042-0.042 1.583-0.125l36.834-6.625c2.737 8.286 6.34 16.261 10.75 23.792l-35.209 11.166c-4.666 1.5-7.291 6.5-5.791 11.167 1.164 3.669 4.593 6.179 8.443 6.179 0.925 0 1.844-0.145 2.723-0.429l40.375-12.833c6.851 8.424 14.732 15.955 23.459 22.416 25.208 18.834 56.541 31.542 88.875 38.459 12.291 2.625 44 8.75 77.291 8.75 33.292 0 68.125-6.125 80.417-8.75 32.292-6.917 63.667-19.625 88.875-38.459 9.625-7.208 17.625-15.083 24.25-23.5l43.75 13.875c0.875 0.292 1.792 0.417 2.708 0.417 3.75 0 7.25-2.375 8.459-6.167 1.458-4.666-1.125-9.708-5.792-11.166l-38.792-12.334c4.25-7.5 7.667-15.333 10.292-23.375l40.833 7.375c4.794 0.836 9.436-2.384 10.334-7.166 0.833-4.709-2.375-9.334-7.209-10.209l-39.541-7.125c1.416-7.166 2.291-14.5 2.791-21.916l37.292-5.542c4.342-0.635 7.595-4.398 7.595-8.786 0-0.434-0.032-0.868-0.095-1.297-0.708-4.834-5.208-8.084-10.125-7.459l-34.25 5.084c-0.083-4.167-0.208-8.334-0.5-12.5-1.042-15.5-4.5-31.125-10.042-46.292 12.25-34.625 50.542-151.54 21.375-182.79-4.166-4.466-10.3-6.304-17.679-6.212z" fill="#ffca28"/><path d="m402.42 345.79c-5 0.375-4.334 8.791-4.417 12.25-0.083 2.583 0.042 5.416-0.375 8-1.292 8.166-5.333 19-7.208 29.5-2.167 11.958-1.5 23.5 9.208 30.25 15.208 9.625 31.542-3.459 34.875-18.792 2.708-12.667-0.125-25.458-6.583-36.458-4.042-6.834-9.084-15.167-15.542-19.875-2.667-1.875-6.458-5.167-9.958-4.875z" fill="#fff"/><path d="m318.86 295.33c-0.201-0.013-0.402-0.02-0.604-0.02-4.884 0-8.904 4.019-8.904 8.904 0 0.975 0.16 1.943 0.474 2.866 0.375 1.084 9.792 27.759 41.25 34.133 4.125 0.834 8.046 1.163 11.754 1.163 24.417 0 38.834-15.917 39.542-16.667 3.25-3.625 2.917-9.208-0.708-12.458s-9.25-3-12.542 0.625c-0.542 0.583-13.333 14.167-34.542 9.917-21.125-4.25-27.666-21.667-27.958-22.5-1.153-3.36-4.219-5.716-7.762-5.963zm-111.58 2.504c-3.545 0.2-6.648 2.499-7.87 5.834-0.292 0.791-6.875 18.208-28.125 22.375-21.25 4.125-33.875-9.584-34.375-10.084-3.25-3.666-8.875-4.041-12.542-0.833-3.708 3.292-4.079 8.875-0.829 12.583 0.666 0.75 15.125 16.917 39.75 16.917 3.583 0 7.375-0.375 11.416-1.167 31.5-6.125 41.042-32.708 41.459-33.875 0.321-0.93 0.485-1.908 0.485-2.893 0-4.866-4.005-8.871-8.871-8.871-0.166 0-0.332 5e-3 -0.498 0.014z" fill="#2f2f2f"/></g><path d="m78.801 246.26c-0.821 1.273-2.269 1.998-3.78 1.893-1.511-0.106-2.845-1.025-3.481-2.4-16.681-36.78-86.86-203.73 75.291-74.867 1.01 0.804 1.591 2.031 1.571 3.323-0.019 1.291-0.637 2.5-1.671 3.273-12.066 9.25-46.71 37.231-67.93 68.778zm381.37-10.513c0.891 1.201 2.36 1.831 3.845 1.647 1.486-0.184 2.757-1.152 3.329-2.535 14.52-35.885 74.252-196.63-76.619-66.824-0.994 0.856-1.527 2.129-1.438 3.438 0.088 1.308 0.787 2.498 1.886 3.213 12.426 8.28 47.009 32.658 68.997 61.061z" fill="#f9c3d5"/><path d="m242.31 148.32c-6.458 0.5-12.9 1.212-19.287 2.146 1.367 13.279 8.629 74.65 19.292-2.146zm49.767 0.508c4.529 73.705 16.042 12.484 17.846 2.296-5.923-0.95-11.875-1.714-17.846-2.292zm-27.575-1.375c-2.054 0-4.117 0.067-6.175 0.109 0.75 10.962 9.167 127.85 18.946 0.208-4.254-0.2-8.512-0.304-12.771-0.313z" fill="#ff8f00"/></g></svg>
