<?xml version='1.0' encoding='UTF-8'?>
<svg xmlns="http://www.w3.org/2000/svg" xmlns:svg="http://www.w3.org/2000/svg" viewBox="0 0 128 128" version="1.1" xml:space="preserve" style="fill-rule:evenodd;clip-rule:evenodd;stroke-linejoin:round;stroke-miterlimit:2" id="svg30"><defs id="defs34"/>
    <path d="M29.31,97.26C23.24,95.82 9.63,88.24 5.67,77.21C2.57,68.59 4.42,57.94 9.97,52.44C13.66,48.79 18.45,47.79 23.46,49.65C33.88,53.5 38.41,74.81 38.46,75.02L38.53,75.6C38.76,81.76 38.51,92.62 34.25,96.12C33.2,96.98 31.96,97.43 30.67,97.43C30.22,97.42 29.76,97.37 29.31,97.26ZM19.61,58.41C16.72,56.63 15.07,57.58 15.07,57.58C11.57,61.05 10.77,67.17 13.55,73.86C16.09,79.98 23.12,85.66 29.72,87.13C30.63,84.93 30.14,83.73 29.96,78.15C28.6,72.12 23.74,60.96 19.61,58.41Z" style="fill:rgb(238,90,70);fill-rule:nonzero" id="path2"/>
    <path d="M46.83,109.7C47.22,109.17 47.73,108.7 48.4,108.39C49.57,107.85 57.18,106.89 65.64,105.96C74.09,106.89 81.71,107.85 82.88,108.39C83.55,108.7 84.06,109.17 84.45,109.7C85.78,111.53 86.57,114.33 84.65,115.29C81.73,116.75 75.9,118.72 65.64,118.72C55.38,118.72 49.55,116.75 46.63,115.29C44.71,114.33 45.5,111.54 46.83,109.7Z" style="fill:rgb(204,63,39);fill-rule:nonzero" id="path4"/>
    <path d="M47.47,45.31C47.47,45.31 60.3,41.12 65.64,41.12C70.98,41.12 83.81,45.31 83.81,45.31C94.06,53.68 105.47,66.81 105.47,79.24C105.47,92.33 97.66,104.66 85.25,110.5C79.61,113.15 72.52,113.72 65.64,113.72C58.76,113.72 51.68,113.16 46.03,110.5C33.61,104.66 25.81,92.33 25.81,79.24C25.81,66.81 37.23,53.68 47.47,45.31Z" style="fill:rgb(238,90,70);fill-rule:nonzero" id="path6"/>
    <path d="M123.4,51.04L123.28,49.59L113.78,48.87C113.78,48.87 110.4,51.73 108.34,57.22C106.4,62.4 104.89,67.68 102.43,68.09L99.96,68.5C99.96,68.5 94.34,69.7 94.05,80.96C93.76,92.22 99.96,93.99 99.96,93.99C99.96,93.99 107.36,95.02 113.11,84.12C118.86,73.22 116.81,65.83 118.66,60.28C120.51,54.73 123.4,51.04 123.4,51.04Z" style="fill:rgb(238,90,70);fill-rule:nonzero" id="path8"/>
    <ellipse cx="118.54" cy="50.05" rx="5.29" ry="2.77" style="fill:rgb(238,90,70)" id="ellipse10"/>
    <ellipse cx="118.54" cy="49.85" rx="3.68" ry="1.73" style="fill-opacity:0.23" id="ellipse12"/>
    <ellipse cx="65.1" cy="50.92" rx="25.69" ry="8.43" style="fill:rgb(255,167,38)" id="ellipse14"/>
    <path d="M86.59,47.36C86.59,47.36 78.57,38.82 65,38.82C51.43,38.82 43.41,47.36 43.41,47.36C43.41,51.17 53.07,54.26 65,54.26C76.93,54.26 86.59,51.17 86.59,47.36Z" style="fill:rgb(238,90,70);fill-rule:nonzero" id="path16"/>
    <circle cx="65" cy="34.92" r="7.31" style="fill:rgb(238,90,70)" id="circle18"/>
    <g id="g22">
        <path d="m 21.86,59.77 c -1.89,-1.25 -3.93,-2.27 -5.97,-2.53 -2.04,-0.28 -3.92,0.47 -5.3,1.95 -0.71,0.69 -1.22,1.52 -1.62,2.48 -0.43,0.94 -0.69,1.99 -0.94,3.04 -0.45,2.13 -0.69,4.36 -0.89,6.64 -0.65,-2.21 -0.87,-4.53 -0.68,-6.87 0.08,-1.17 0.34,-2.34 0.72,-3.51 0.43,-1.13 1.06,-2.31 1.99,-3.19 0.88,-0.87 1.97,-1.63 3.22,-2.01 1.25,-0.37 2.59,-0.38 3.79,-0.05 2.41,0.67 4.32,2.21 5.68,4.05 z" style="fill-opacity:0.23;fill-rule:nonzero" id="path20"/>
    </g>
    <path d="M33.58,68.14C36.12,61.73 41.98,60.06 44.21,62.41C47.82,66.21 42.15,73.56 39.56,77.42C37.6,80.34 37.19,86.3 36.95,87.14C35.96,90.54 33.43,88.27 32.64,85.15C31.37,80.15 31.06,74.5 33.58,68.14Z" style="fill:white;fill-opacity:0.54;fill-rule:nonzero" id="path24"/>
    <g transform="matrix(0.360918,0,0,0.360918,56.3839,107.588)" id="g28">
        <g aria-label="418" id="text26" style="fill-opacity:0.22"><path d="m 21.500001,27.545 c 0.312,0 0.588,-0.276 0.588,-0.576 v -1.224 h 0.072 c 0.312,0 0.6,-0.252 0.6,-0.576 0,-0.312 -0.228,-0.576 -0.552,-0.576 h -0.12 v -4.488 c 0,-0.324 -0.252,-0.576 -0.588,-0.576 -0.204,0 -0.372,0.096 -0.48,0.276 l -3.036,4.992 c -0.06,0.108 -0.096,0.18 -0.096,0.324 0,0.336 0.228,0.564 0.576,0.564 l 2.46,0.036 v 1.248 c 0,0.3 0.252,0.576 0.576,0.576 z m -0.576,-2.976 -1.44,-0.036 1.44,-2.364 z" id="path36"/><path d="m 24.427999,27.461 h 2.376 c 0.3,0 0.576,-0.252 0.576,-0.576 0,-0.312 -0.216,-0.576 -0.6,-0.576 h -0.492 l 0.084,-6.192 c 0,-0.288 -0.216,-0.576 -0.588,-0.576 -0.12,0 -0.312,0.072 -0.408,0.18 l -1.404,1.524 c -0.096,0.108 -0.156,0.24 -0.156,0.384 0,0.312 0.252,0.576 0.576,0.576 0.156,0 0.3,-0.048 0.42,-0.168 l 0.396,-0.42 -0.084,4.692 h -0.696 c -0.336,0 -0.576,0.264 -0.576,0.576 0,0.324 0.24,0.576 0.576,0.576 z" id="path38"/><path d="m 30.895995,27.533 c 1.44,0 2.508,-1.02 2.508,-2.364 0,-0.804 -0.408,-1.476 -1.104,-1.956 0.504,-0.348 0.924,-0.864 0.924,-1.656 0,-1.188 -0.912,-2.016 -2.208,-2.016 -1.224,0 -2.28,0.828 -2.28,2.196 0,0.768 0.348,1.224 0.852,1.548 -0.6,0.384 -1.188,0.984 -1.212,1.992 -0.036,1.296 1.044,2.256 2.52,2.256 z m 0.048,-4.896 c -0.768,-0.228 -1.08,-0.492 -1.08,-0.948 0,-0.648 0.516,-0.984 1.152,-0.984 0.588,0 1.068,0.3 1.068,0.792 0,0.408 -0.228,0.768 -1.14,1.14 z m -0.048,3.744 c -0.768,0 -1.38,-0.432 -1.38,-1.044 0,-0.864 0.804,-1.188 1.5,-1.488 0.636,0.216 1.26,0.648 1.26,1.344 0,0.816 -0.744,1.188 -1.38,1.188 z" id="path40"/></g>
    </g>
</svg>
