<?xml version='1.0' encoding='UTF-8'?>
<svg xmlns="http://www.w3.org/2000/svg" version="1.1" id="svg8" viewBox="0 0 128 128">
  <defs id="defs12"/>
  <g aria-label="SOON" id="text4" style="line-height:1.25;fill:#78a3ad">
    <path d="m 22.537,120.647 c 5.2,0 9.64,-3.44 9.64,-8.04 0,-3.92 -2.92,-6.44 -8.2,-7.96 -4.32,-1.24 -6.16,-2.4 -6.16,-4.28 0,-2.000002 1.84,-3.320002 5.48,-3.320002 2.96,0 4.76,1.16 4.96,2.6 0.12,0.920002 0.88,1.680002 1.84,1.680002 1.12,0 1.96,-0.88 1.96,-2.080002 0,-3.52 -3.24,-5.88 -8.76,-5.88 -5.8,0 -9.36,3 -9.36,7.280002 0,4.56 4.12,6.52 8.68,7.8 4.4,1.24 5.72,2.72 5.72,4.36 0,2.28 -2.36,4.08 -5.72,4.08 -2.4,0 -5.16,-1.12 -6.04,-3.56 -0.32,-0.88 -1,-1.48 -2,-1.48 -1.16,0 -2.04,0.92 -2.04,2 0,0.44 0.16,0.96 0.44,1.56 1.28,2.72 4.68,5.24 9.56,5.24 z" id="path14"/>
    <path d="m 45.536982,120.647 c 6.44,0 11.96,-6.32 11.96,-14.64 0,-7.280002 -4.4,-12.640002 -10.4,-12.640002 -6.36,0 -11.92,6.32 -11.92,14.640002 0,7.2 4.32,12.64 10.36,12.64 z m 0,-3.8 c -3.28,0 -6.36,-3 -6.36,-8.84 0,-6.36 3.48,-10.840002 7.68,-10.840002 3.28,0 6.64,3.160002 6.64,9.000002 0,6.36 -3.64,10.68 -7.96,10.68 z" id="path16"/>
    <path d="m 71.057001,120.647 c 6.44,0 11.96,-6.32 11.96,-14.64 0,-7.280002 -4.4,-12.640002 -10.4,-12.640002 -6.36,0 -11.92,6.32 -11.92,14.640002 0,7.2 4.32,12.64 10.36,12.64 z m 0,-3.8 c -3.28,0 -6.36,-3 -6.36,-8.84 0,-6.36 3.48,-10.840002 7.68,-10.840002 3.28,0 6.64,3.160002 6.64,9.000002 0,6.36 -3.64,10.68 -7.96,10.68 z" id="path18"/>
    <path d="m 89.577021,120.647 c 1.08,0 2,-0.84 2,-1.96 l 0.04,-16.96 12.479999,18.04 c 0.4,0.56 1.04,0.88 1.64,0.88 1.08,0 1.96,-0.8 1.96,-1.96 V 95.366998 c 0,-1.08 -0.92,-2 -1.96,-2 -1.12,0 -2,0.92 -2,2 V 112.367 L 91.217021,94.246998 c -0.36,-0.52 -1.04,-0.84 -1.64,-0.84 -1.12,0 -1.92,0.92 -1.92,1.96 l -0.04,23.320002 c 0,1.04 0.92,1.96 1.96,1.96 z" id="path20"/>
  </g>
  <path d="M111.68 48.36L65.56 82.17V61.08H16.32V35.85h49.24v-21.3z" fill="#ed6c30" id="path6"/>
</svg>
