<svg version="1.1" xmlns="http://www.w3.org/2000/svg" xmlns:xlink="http://www.w3.org/1999/xlink" width="108.19616" height="109.38066" viewBox="0,0,108.19616,109.38066"><g transform="translate(-185.90192,-125.30967)"><g data-paper-data="{&quot;isPaintingLayer&quot;:true}" fill="#ff69a5" fill-rule="nonzero" stroke="none" stroke-width="1" stroke-linecap="butt" stroke-linejoin="miter" stroke-miterlimit="10" stroke-dasharray="" stroke-dashoffset="0" style=""><path d="M199.67149,177.94862c-1.76158,-3.59946 0.79071,-5.88132 3.8699,-6.59575c4.4491,-1.09949 6.36582,-3.22427 7.00343,-8.17243c0.65153,-5.03299 -1.14785,-6.8092 -4.38674,-7.77618c0,0 -11.2324,-4.28217 -13.15705,-5.29488c-7.16042,-3.61408 -3.15926,-14.19566 5.18882,-10.38672c9.3104,4.31529 14.3877,16.90908 22.44094,10.30276c3.22964,-2.69342 3.78507,-6.60967 2.23754,-9.38995c-4.3589,-7.94585 -0.47641,-15.14934 4.86543,-15.31831c5.17217,-0.1968 6.1285,3.53189 6.4592,5.76407c0.63224,4.1111 -0.50248,13.68199 8.25057,15.55369c5.64206,1.18704 7.83186,-4.72608 12.1557,-5.06206c2.30864,-0.17939 0.96006,-3.72543 1.74625,-6.7323c0.68627,-2.62467 3.33219,-4.83163 7.13049,-4.11964c8.1497,1.52761 1.31247,16.18258 3.30273,15.20238c6.81782,-3.32434 10.8448,-9.28451 16.10972,-6.32989c5.1801,2.9407 5.47627,13.87887 -3.83219,15.92341c-19.8881,4.40322 -12.57925,10.82939 -12.39901,15.04056c0.45192,11.05085 -6.99814,10.2641 -4.22059,18.82166c2.84847,8.65631 22.91945,9.5101 19.48693,21.4046c-1.24669,4.41264 -7.85573,6.46449 -12.63087,1.58655c-5.96544,-6.11864 -11.17462,-20.56351 -16.3667,-17.05954c-2.55362,1.75894 -1.16053,4.94948 -0.80463,5.96615c3.65901,10.61875 -11.44267,18.76924 -18.36842,7.35317c-3.56229,-5.89858 -1.87732,-8.32522 -7.39014,-8.70701c-4.04283,-0.31484 -5.22672,-0.94219 -8.93224,3.58973c-7.74905,9.53108 -11.2975,14.69858 -15.6757,15.89681c-10.23899,2.93727 -15.90149,-11.93045 -5.66646,-16.43646c4.96938,-2.14664 5.61492,-3.95729 6.16039,-6.21995c0.54547,-2.26265 2.16663,-9.4887 -1.90535,-10.15679c-1.527,-0.25054 -2.95127,0.99677 -4.67313,1.9339c-2.38527,1.26386 -5.37963,1.99221 -7.60185,0.66933c-3.42512,-1.95583 -2.29243,-6.73563 -0.01982,-7.84375c2.27261,-1.10811 11.62283,-3.40715 11.62283,-3.40715zM278.48557,177.92167c1.44216,0.23662 6.23589,1.28447 8.99098,0.95245c11.35969,-1.27241 6.83051,-15.08302 -3.98706,-11.80509c-1.65227,0.51296 -5.1682,1.76556 -6.1988,2.20627c-4.22113,1.83382 -3.1316,7.93651 1.19489,8.64636zM227.14523,230.13143c1.40103,6.32803 11.30728,5.94968 11.91309,-0.39756c0.344,-3.68958 -4.69885,-13.83844 -4.69885,-13.83844c-1.29302,-2.73853 -5.78653,-2.43038 -6.25844,0.97686c-0.25185,1.00408 -1.78554,9.28988 -0.9558,13.25914z"/></g></g></svg>