<?xml version="1.0" encoding="UTF-8"?>
<svg clip-rule="evenodd" fill-rule="evenodd" stroke-linejoin="round" stroke-miterlimit="2" version="1.1" viewBox="0 0 128 128" xml:space="preserve" xmlns="http://www.w3.org/2000/svg"><g transform="matrix(.256 0 0 .256 -4.2665 -4.2666)"><path d="m516.67 83.343c0-36.794-29.881-66.676-66.667-66.676h-366.67c-36.786 0-66.667 29.882-66.667 66.676v366.65c0 36.794 29.881 66.677 66.667 66.677h366.67c36.786 0 66.667-29.883 66.667-66.677z" fill="#40c0e7"/><path d="m430.33 120.17h-135.12c8.167-26.125 10-43 10.042-43.334 0.208-1.875-0.417-3.75-1.667-5.125-1.25-1.416-3.083-2.208-4.958-2.208h-47c-3.167 0-5.875 2.208-6.5 5.333 0 0-0.083 0.417-0.292 1.375-1.083 4.792-5.291 21.584-14.416 44h-112.38c-1.75 0-3.459 0.709-4.709 1.917-1.25 1.25-1.916 2.958-1.916 4.708v50.834c0 1.75 0.708 3.458 1.916 4.708 1.25 1.25 2.959 1.958 4.709 1.958h77.958c-6.549 9.583-13.63 18.792-21.208 27.584-0.084 0.041-0.125 0.041-0.209 0.083-0.125 0.125-0.166 0.25-0.25 0.375-19.458 22.542-43.666 44.042-74.125 60.958-1.583 0.875-2.708 2.292-3.166 4.042-0.459 1.75-0.25 3.583 0.666 5.125l26.167 44.25c0.917 1.583 2.417 2.667 4.208 3.083 1.75 0.417 3.625 0.084 5.167-0.916 14.292-9.334 27.375-19.042 39.417-29v147.67c0 1.75 0.708 3.459 1.916 4.709 1.25 1.25 2.959 1.916 4.709 1.916h47.583c1.75 0 3.458-0.708 4.708-1.916 1.25-1.25 1.917-2.959 1.917-4.709v-63.75h119.46v18.959h-16.125c-1.958 0-3.833 0.875-5.083 2.333-1.25 1.5-1.833 3.5-1.5 5.375l6.458 38.125c0.542 3.208 3.292 5.542 6.542 5.542h37.542c0.333 0 3.833 0 8.541-1.167 4.625-1.125 10.667-3.333 15.417-8.583 4.875-5.5 6.958-11.917 8.042-16.917 1.041-5.042 1.041-8.75 1.083-9.042v-201.83c0-1.75-0.708-3.458-1.958-4.708s-2.959-1.917-4.709-1.917h-154.42c5.666-8.75 10.75-17.375 15.291-25.75h162.25c1.75 0 3.459-0.708 4.709-1.958s1.916-2.959 1.916-4.709v-50.833c0-1.75-0.708-3.458-1.916-4.708-1.25-1.209-2.959-1.875-4.709-1.875zm-196.79 202.38h119.46v19.958h-119.46zm119.46-41.334h-119.46v-19.958h119.46z" fill="#fff" fill-rule="nonzero"/></g></svg>
