<?xml version="1.0" encoding="UTF-8"?>
<svg clip-rule="evenodd" fill-rule="evenodd" stroke-linejoin="round" stroke-miterlimit="2" version="1.1" viewBox="0 0 128 128" xml:space="preserve" xmlns="http://www.w3.org/2000/svg"><g transform="matrix(.24079 0 0 .24079 -.10042 -.21082)"><path d="m266.21 40.167c-259.62 0-265.79 291.08-265.79 348.71s119 104.29 265.79 104.29c146.83 0 265.79-46.709 265.79-104.29 0-57.625-6.125-348.71-265.79-348.71z" fill="#fcbc03" fill-rule="nonzero"/><path d="m133.17 218.82c-3.217 5.308-10.213 7.05-15.542 3.875-5.317-3.159-7.117-10.117-4-15.459 0.75-1.291 19.167-31.75 59.875-31.75 40.75 0 59.167 30.459 59.958 31.75 1.013 1.742 1.546 3.717 1.546 5.73 0 6.245-5.133 11.387-11.379 11.395-3.833 0-7.625-1.958-9.75-5.5-0.542-0.916-13-20.666-40.375-20.666-27.375-0.042-39.75 19.75-40.333 20.625zm283.5 3.916c-1.792 1.084-3.792 1.584-5.709 1.584-3.916 0-7.708-2.042-9.833-5.584-0.458-0.833-12.833-20.583-40.25-20.583-27.875 0-40.25 20.375-40.375 20.583-2.067 3.342-5.725 5.384-9.654 5.384-6.229 0-11.35-5.121-11.35-11.35 0-1.954 0.504-3.875 1.462-5.575 0.75-1.292 19.167-31.75 59.917-31.75 40.708 0 59.083 30.458 59.833 31.75 3.167 5.416 1.334 12.375-4.041 15.541z" fill="#2f2f2f" fill-rule="nonzero"/><path d="m444.04 330.88c-5.75-9.208-12.209-29.042-13.209-35.375-1.708-10.875-6.25-30.583-9.583-47.083-0.917-4.459-0.833-10.667 4.792-10.959 4.5-0.125 11.541 2.542 15.666 3.959 12.167 4.166 24.917 11.208 35.459 18.333 19.25 13.208 32.333 34.375 29.75 58.292-1.959 17.666-18.542 29.333-33.542 28.625-10.833-0.417-24-7.209-29.333-15.792zm-354.75 0c5.75-9.208 12.208-29.042 13.208-35.375 1.708-10.875 6.25-30.583 9.583-47.083 0.917-4.459 0.834-10.667-4.791-10.959-4.5-0.125-11.542 2.542-15.667 3.959-12.167 4.166-24.917 11.208-35.458 18.333-19.25 13.208-32.334 34.375-29.75 58.292 1.958 17.666 18.541 29.333 33.541 28.625 10.834-0.417 24-7.209 29.334-15.792z" fill="#fff" fill-rule="nonzero"/><path d="m397.81 265.94c-12.483-8.443-28.198-2.868-42.096 0-38.701 7.999-72.717 8.322-89.038 8.322s-50.337-0.323-89.039-8.322c-13.897-2.868-29.612-8.443-42.095 0-15.836 10.706-4.161 49.085 20.765 75.02 15.069 15.675 50.943 46.095 110.37 46.095s95.3-30.42 110.37-46.095c24.926-25.935 36.561-64.314 20.765-75.02z" fill="#ec6c31" fill-rule="nonzero"/></g></svg>
