<?xml version="1.0" encoding="UTF-8"?>
<svg width="135" height="135" version="1.1" viewBox="0 0 135 135" xmlns="http://www.w3.org/2000/svg">
 <g transform="translate(-172.5,-112.5)">
  <g data-paper-data='{"isPaintingLayer":true}'>
   <g stroke-miterlimit="10">
    <g>
     <path d="m303.22 209.42c0 13.86-28.29 25.1-63.22 25.1-34.92 0-63.23-11.24-63.23-25.1 0-13.87 1.47-83.94 63.23-83.94 61.77 0 63.22 70.06 63.22 83.94" fill="#fcc21b"/>
     <path d="m256.43 200.75c0.2836 0.23819 1.0174 1.9542 0.75668 2.654-0.37876 1.0166-1.9346 1.0229-2.3466 0.68078-8.9286-7.4441-20.928-7.4441-29.857 0-0.32468 0.26963-1.6743 0.16368-2.0654-0.59323-0.44669-0.8647 0.10448-2.4335 0.4754-2.7415 4.9438-4.1159 10.732-6.1772 16.521-6.1772s11.577 2.0547 16.516 6.1772z" fill="#2f2f2f" data-paper-data='{"index":null}'/>
     <path d="m271.57 177.16c4.2915-1.812 6.2942 2.0981 5.4359 5.5313-2.1934 8.4876-21.553 15.926-30.708 0.66757-2.6703-4.3869 2.1934-7.0572 4.9591-5.0544 7.3432 5.3406 15.926 0.66757 20.313-1.1444zm-65.517 0.95366c-2.0981-2.0981-6.2942 0-5.6266 3.4332 2.6703 13.256 26.131 15.163 30.613 1.3351 1.1444-3.7193-2.0027-6.1035-5.4359-4.1961-8.3923 4.673-14.877 3.91-19.55-0.5722z" fill="#eb8f00"/>
     <path d="m247.88 167.26c6.1-0.2 20.7 0.3 26.9 0.8 2.2 0.2 2.4 2.1 2.2 3.4-2.7 15.8-29.5 18.7-31.4-1.2-0.2-2.7 1.2-3 2.3-3zm-45.3 2c-1.7 0.3-2.4 2-2 3.7 3.7 15.6 30.3 15.4 31.5-3 0-1.7-0.6-3.1-2.7-3.1-4.6 0-20.3 1.4-26.8 2.4z" fill="#fff"/>
     <g fill="#2f2f2f">
      <path d="m216.25 179.41c-4.49 0.04-8.17-4.27-8.22-9.62-0.05-5.37 3.55-9.75 8.04-9.79 4.48-0.04 8.17 4.27 8.22 9.64 0.05 5.36-3.55 9.73-8.04 9.77z"/>
      <path d="m252.2 169.74c-0.01-5.37 3.63-9.72 8.12-9.73 4.48-0.01 8.13 4.32 8.14 9.69 0.01 5.35-3.62 9.7-8.1 9.71-4.49 0.01-8.14-4.32-8.16-9.67z"/>
     </g>
    </g>
    <path d="m195.03 168.87v-22.4h86.4v22.4z" fill="#fcc21b" stroke-width="0"/>
   </g>
   <path d="m199.04 161.41c7.6424-4.7291 16.43-8.3186 26.129-9.2886" fill="none" fill-rule="evenodd" stroke="#bf3f0c" stroke-linecap="round" stroke-linejoin="round" stroke-miterlimit="1.5" stroke-width="5"/>
   <path d="m251.64 152.86c9.6991 0.96995 18.486 4.5594 26.129 9.2886" fill="none" fill-rule="evenodd" stroke="#bf3f0c" stroke-linecap="round" stroke-linejoin="round" stroke-miterlimit="1.5" stroke-width="5" data-paper-data='{"index":null}'/>
  </g>
 </g>
</svg>
