<?xml version='1.0' encoding='UTF-8'?>
<svg xmlns="http://www.w3.org/2000/svg" xmlns:svg="http://www.w3.org/2000/svg" viewBox="0 0 128 128" version="1.1" xml:space="preserve" style="fill-rule:evenodd;clip-rule:evenodd;stroke-linejoin:round;stroke-miterlimit:2" id="svg40578"><defs id="defs40582">
        
    
            
        
        
    
            
        </defs>
    <path d="M128,12.8C128,5.735 122.265,0 115.2,0L12.8,0C5.735,0 0,5.735 0,12.8L0,115.2C0,122.265 5.735,128 12.8,128L115.2,128C122.265,128 128,122.265 128,115.2L128,12.8Z" style="fill:rgb(28,97,146)" id="path40556"/>
    <path id="path931" style="color:#000000;clip-rule:nonzero;fill:#ffffff;fill-rule:nonzero;stroke-width:2;stroke-linejoin:miter;-inkscape-stroke:none" d="M 94.974609 6.4335938 C 94.067446 6.424532 93.172725 6.9414451 92.773438 7.6875 C 92.374151 8.4335549 92.300781 9.2710882 92.300781 10.238281 L 92.300781 43.421875 C 91.765299 43.340035 91.249856 43.201172 90.685547 43.201172 C 89.318479 43.201172 88.003485 43.450178 86.765625 43.949219 C 85.541872 44.421006 84.444734 45.087826 83.494141 45.943359 C 82.556908 46.784752 81.80637 47.803728 81.257812 48.970703 C 80.698036 50.1403 80.416016 51.418845 80.416016 52.759766 C 80.416016 54.909559 81.063167 56.758481 82.388672 58.083984 A 1.0001 1.0001 0 0 0 82.402344 58.095703 C 83.769602 59.411368 85.713714 60.025391 88.037109 60.025391 C 89.449244 60.025391 90.779721 59.719051 91.978516 59.107422 A 1.0001 1.0001 0 0 0 91.992188 59.099609 C 93.161731 58.479035 94.176248 57.645577 95.011719 56.619141 C 95.843814 55.596855 96.482351 54.409165 96.925781 53.082031 C 97.392604 51.748805 97.626953 50.344487 97.626953 48.884766 L 97.626953 24.066406 C 100.07332 25.289567 105.08984 28.53889 105.08984 34.673828 C 105.08984 39.069521 103.55825 42.591498 101.98828 45.412109 C 101.68161 45.963082 101.56602 46.575343 101.69531 47.128906 C 101.82461 47.68247 102.18612 48.129574 102.61719 48.390625 C 103.4968 48.923308 104.77661 48.769534 105.47656 47.816406 C 108.25009 44.039655 109.47852 39.041525 109.47852 33.931641 C 109.47852 27.484759 106.27008 23.574871 103.25195 20.623047 C 101.74289 19.147134 100.28328 17.876511 99.251953 16.625 C 98.220627 15.373489 97.626953 14.210304 97.626953 12.779297 L 97.626953 10.238281 C 97.626953 9.3619485 97.545543 8.5342855 97.164062 7.7890625 C 96.782582 7.0438395 95.925371 6.4430904 94.974609 6.4335938 z "/>
    <g transform="translate(15.824982,111.05762)" id="g40566">
        <g id="text893">
            <g aria-label="@" id="text40563" style="fill:#ffffff"><path d="m 21.057598,6.680039 c 5.489537,0 9.391738,-0.992085 11.640464,-2.64556 1.719614,-1.256641 2.314865,-2.248726 2.314865,-3.439228 0,-1.521197 -1.388919,-2.910116 -3.108533,-2.910116 -0.66139,0 -1.190502,0.198417 -2.116448,0.793668 -2.050309,1.32278 -4.431313,2.248726 -7.93668,2.248726 -9.656294,0 -18.3866415,-5.092703 -18.3866415,-16.865445 0,-11.90502 8.8626255,-17.989808 17.7252515,-17.989808 10.119267,0 15.410387,7.93668 15.410387,15.145831 0,5.423398 -1.918031,7.804402 -4.894286,7.804402 -1.851892,0 -3.240811,-1.455058 -3.240811,-3.637645 0,-1.190502 0.462973,-2.050309 0.462973,-3.042394 0,-1.190502 -0.66139,-2.248726 -1.653475,-2.843977 0.925946,-0.462973 1.521197,-1.388919 1.521197,-2.579421 0,-1.256641 -0.462973,-2.182587 -1.98417,-3.174672 -2.116448,-1.32278 -4.232896,-1.918031 -6.349344,-1.918031 -6.6139,0 -11.7066025,6.217066 -11.7066025,12.963244 0,6.812317 4.0344785,9.25946 8.4657915,9.25946 2.777838,0 4.960425,-1.455058 6.812317,-3.439228 1.653475,2.381004 4.497452,4.299035 8.201236,4.299035 5.357259,0 10.648379,-5.092703 10.648379,-13.690773 0,-11.90502 -9.590155,-21.429036 -21.693592,-21.429036 -13.8230505,0 -24.0084565,10.317684 -24.0084565,24.273013 0,14.286024 10.317684,22.817955 23.8761785,22.817955 z M 14.97281,-15.410387 c 0,-3.505367 2.381004,-6.812317 5.555676,-6.812317 1.32278,0 2.182587,0.529112 2.976255,0.992085 0.330695,0.198417 0.595251,0.396834 0.925946,0.529112 -0.66139,0.396834 -1.190502,1.124363 -1.587336,1.918031 -0.727529,1.653475 -3.174672,6.415483 -5.621815,6.415483 -1.455058,0 -2.248726,-0.992085 -2.248726,-3.042394 z" id="path14"/></g>
        </g>
    </g>
    <path id="path918" style="color:#000000;clip-rule:nonzero;fill:#ffffff;fill-rule:nonzero;stroke:none;stroke-width:2;stroke-linejoin:miter;-inkscape-stroke:none" d="M 18.876953 11.773438 C 17.978781 11.812891 17.190079 12.151595 16.634766 12.683594 C 16.000122 13.291592 15.669812 14.107415 15.626953 14.925781 C 15.584093 15.744146 15.828822 16.590754 16.396484 17.261719 C 16.964147 17.932682 17.860823 18.383986 18.919922 18.439453 L 54.457031 20.302734 C 55.516132 20.358204 56.457153 20.000577 57.091797 19.392578 C 57.72644 18.78458 58.05675 17.968757 58.099609 17.150391 C 58.142469 16.332021 57.897742 15.485418 57.330078 14.814453 C 56.762415 14.143489 55.865741 13.690233 54.806641 13.634766 L 19.269531 11.775391 C 19.137144 11.768457 19.005263 11.767801 18.876953 11.773438 z M 53.609375 25.808594 L 18.035156 26.691406 C 16.974587 26.717736 16.062628 27.145492 15.476562 27.800781 C 14.890498 28.45607 14.624185 29.295755 14.644531 30.115234 C 14.664881 30.934713 14.973934 31.759369 15.591797 32.384766 C 16.209659 33.010164 17.140603 33.39352 18.201172 33.367188 L 32.525391 33.011719 L 32.599609 56.396484 C 32.603309 57.508932 32.984585 58.45255 33.638672 59.054688 C 34.292761 59.656825 35.127408 59.88689 35.90625 59.917969 C 36.68466 59.949029 37.539036 59.793389 38.253906 59.246094 C 38.968775 58.698799 39.439243 57.759905 39.484375 56.628906 A 1.0001 1.0001 0 0 0 39.484375 56.585938 L 39.410156 32.839844 L 53.775391 32.484375 C 54.83596 32.458045 55.74792 32.028335 56.333984 31.373047 C 56.920049 30.717758 57.184409 29.878072 57.164062 29.058594 C 57.143713 28.239117 56.836611 27.41446 56.21875 26.789062 C 55.600889 26.163665 54.669945 25.782261 53.609375 25.808594 z "/>
    <g transform="translate(83.161096,111.18962)" id="g40576">
        <g id="text921">
            <g aria-label="%" id="text40573" style="fill:#ffffff"><path d="m -2.1521411,-24.934403 c 5.357259,0 9.722433,-4.365174 9.722433,-9.722433 0,-5.29112 -4.365174,-9.656294 -9.722433,-9.656294 -5.29112,0 -9.6562939,4.365174 -9.6562939,9.656294 0,5.357259 4.3651739,9.722433 9.6562939,9.722433 z m -0.66139,25.331237 c 0.992085,0 2.05030896,-0.462973 2.64555996,-1.587336 L 21.128787,-39.551122 c 0.264556,-0.462973 0.330695,-1.058224 0.330695,-1.455058 0,-1.521197 -1.32278,-3.042394 -3.042394,-3.042394 -0.992085,0 -2.116448,0.529112 -2.64556,1.521197 L -5.3929521,-4.299035 c -0.330695,0.595251 -0.462973,1.256641 -0.462973,1.719614 0,1.521197 1.190502,2.976255 3.042394,2.976255 z m 0.66139,-31.614442 c -1.851892,0 -3.373089,-1.521197 -3.373089,-3.439228 0,-1.851892 1.521197,-3.373089 3.373089,-3.373089 1.91803096,0 3.439228,1.521197 3.439228,3.373089 0,1.918031 -1.52119704,3.439228 -3.439228,3.439228 z M 17.491142,0.859807 c 5.29112,0 9.656294,-4.299035 9.656294,-9.656294 0,-5.357259 -4.365174,-9.656294 -9.656294,-9.656294 -5.357259,0 -9.7224331,4.299035 -9.7224331,9.656294 0,5.357259 4.3651741,9.656294 9.7224331,9.656294 z m 0,-6.217066 c -1.918031,0 -3.439228,-1.521197 -3.439228,-3.439228 0,-1.851892 1.521197,-3.439228 3.439228,-3.439228 1.851892,0 3.373089,1.587336 3.373089,3.439228 0,1.918031 -1.521197,3.439228 -3.373089,3.439228 z" id="path17"/></g>
        </g>
    </g>
</svg>
