<?xml version='1.0' encoding='utf-8'?>
<svg xmlns="http://www.w3.org/2000/svg" width="128" height="128" version="1.1" xml:space="preserve" style="fill-rule:evenodd;clip-rule:evenodd;stroke-linecap:round;stroke-linejoin:round;stroke-miterlimit:1.5;" viewBox="0 0 128 128"><g id="g4534" transform="matrix(1,0,0,1,0,-1.8)"><g transform="matrix(1,0,0,1,0,1.8)"><path d="M64,11.864L64,64" style="fill:none;stroke:#86a8b4;stroke-width:16;" /></g><g transform="matrix(1,0,0,1,0,1.8)"><path d="M64,64L113.584,47.856" style="fill:none;stroke:#86a8b4;stroke-width:16;" /></g><g transform="matrix(1,0,0,1,0,1.8)"><path d="M64,64L14.416,47.856" style="fill:none;stroke:#86a8b4;stroke-width:16;" /></g><g transform="matrix(1,0,0,1,0,1.8)"><path d="M64,64L33.355,106.179" style="fill:none;stroke:#86a8b4;stroke-width:16;" /></g><g transform="matrix(1,0,0,1,0,1.8)"><path d="M64,64L94.635,106.179" style="fill:none;stroke:#86a8b4;stroke-width:16;" /></g><g transform="matrix(1.42227,0,0,1.42227,-27.025,-25.225)"><circle cx="64" cy="64" r="5.262" style="fill:#ecf0f1;" /></g></g><g transform="matrix(0.873104,0,0,0.873104,8.12133,8.12133)"><circle cx="64" cy="64" r="59.713" style="fill:none;stroke:#212121;stroke-width:20.62;" /></g></svg>