<?xml version="1.0" encoding="UTF-8" standalone="no"?>
<svg
   width="100%"
   height="100%"
   viewBox="0 0 534 534"
   version="1.1"
   xml:space="preserve"
   style="fill-rule:evenodd;clip-rule:evenodd;stroke-linejoin:round;stroke-miterlimit:2"
   id="svg8"
   xmlns="http://www.w3.org/2000/svg"
   xmlns:svg="http://www.w3.org/2000/svg"><defs
     id="defs12" /><g
     id="g4"><path
       id="path2"
       d="M 516.667,83.343 C 516.667,46.549 486.786,16.667 450,16.667 H 83.333 c -36.786,0 -66.667,29.882 -66.667,66.676 V 449.99 c 0,36.794 29.881,66.677 66.667,66.677 H 450 c 36.786,0 66.667,-29.883 66.667,-66.677 z"
       style="fill:#196ca2" /></g><g
     id="g12" /><g
     id="text141"><g
       aria-label="P"
       id="text5"
       style="fill:#ffffff"><path
         d="m 199.067,405.46699 c 11.2,0 19.6,-8.4 19.6,-19.6 v -69.6 c 56.8,-2 147.6,-25.2 147.6,-98 0,-54.8 -48,-85.6 -148.4,-85.6 -33.6,0 -38.8,3.2 -38.8,24.8 v 228.4 c 0,11.2 9.6,19.6 20,19.6 z m 19.6,-128.4 v -104.8 h 5.6 c 65.6,0 102.4,16.4 102.4,46 0,45.2 -72.4,56.8 -108,58.8 z"
         id="path14" /></g></g></svg>
