<?xml version="1.0" encoding="UTF-8"?>
<svg width="128" height="128" version="1.1" viewBox="0 0 128 128" xmlns="http://www.w3.org/2000/svg">
 <path d="M20.966 6.492c-.948 0-1.712.892-1.712 2v98.576l12.955 13.278h74.825c.948 0 1.712-.892 1.712-2V8.492c0-1.108-.764-2-1.712-2z" fill="#ffc40e" stroke-linecap="round" stroke-linejoin="round" stroke-width=".925" paint-order="stroke fill markers"/>
 <g transform="scale(.99926 1.0007)" stroke-width=".89" aria-label="@SwiftOnSecurity:Fun fact: Linux doesn't actuallysupport graphics - it just zoomsout the terminal so all the letterslook like dots.">
  <path d="m26.354 18.524c0.45011 0 0.77007-0.08134 0.95445-0.21692 0.141-0.10304 0.1898-0.18438 0.1898-0.282 0-0.12473-0.11388-0.23861-0.25488-0.23861-0.05423 0-0.09761 0.01627-0.17354 0.06508-0.16811 0.10846-0.36334 0.18438-0.65076 0.18438-0.79176 0-1.5076-0.41757-1.5076-1.3829 0-0.97614 0.72668-1.4751 1.4534-1.4751 0.82972 0 1.2636 0.65076 1.2636 1.2419 0 0.44469-0.15727 0.63991-0.4013 0.63991-0.15184 0-0.26573-0.11931-0.26573-0.29826 0-0.09761 0.03796-0.16811 0.03796-0.24946 0-0.09761-0.05423-0.18438-0.13558-0.23319 0.07592-0.03796 0.12473-0.11388 0.12473-0.2115 0-0.10304-0.03796-0.17896-0.16269-0.2603-0.17354-0.10846-0.34707-0.15727-0.52061-0.15727-0.5423 0-0.95987 0.50976-0.95987 1.0629 0 0.55857 0.3308 0.75922 0.69414 0.75922 0.22777 0 0.40672-0.11931 0.55857-0.282 0.13558 0.19523 0.36876 0.3525 0.67245 0.3525 0.43926 0 0.8731-0.41757 0.8731-1.1226 0-0.97614-0.78634-1.7571-1.7787-1.7571-1.1334 0-1.9685 0.84599-1.9685 1.9902 0 1.1714 0.84599 1.8709 1.9577 1.8709zm-0.49892-1.8113c0-0.28742 0.19523-0.55857 0.45553-0.55857 0.10846 0 0.17896 0.04338 0.24404 0.08134 0.02712 0.01627 0.04881 0.03254 0.07592 0.04338-0.05423 0.03254-0.09761 0.09219-0.13015 0.15727-0.05965 0.13558-0.2603 0.52603-0.46096 0.52603-0.11931 0-0.18438-0.08134-0.18438-0.24946z"/>
  <path d="m30.058 18.009c0.70499 0 1.3069-0.46638 1.3069-1.09 0-0.53145-0.39588-0.8731-1.1117-1.0792-0.58568-0.16811-0.83514-0.32538-0.83514-0.58026 0-0.27115 0.24946-0.45011 0.74295-0.45011 0.4013 0 0.64534 0.15727 0.67245 0.3525 0.01627 0.12473 0.11931 0.22777 0.24946 0.22777 0.15184 0 0.26573-0.11931 0.26573-0.282 0-0.47722-0.43926-0.79718-1.1876-0.79718-0.78634 0-1.269 0.40672-1.269 0.98699 0 0.61822 0.55857 0.88395 1.1768 1.0575 0.59653 0.16811 0.77549 0.36876 0.77549 0.59111 0 0.30911-0.31996 0.55315-0.77549 0.55315-0.32538 0-0.69957-0.15184-0.81887-0.48265-0.04338-0.11931-0.13558-0.20065-0.27115-0.20065-0.15727 0-0.27657 0.12473-0.27657 0.27115 0 0.05965 0.02169 0.13015 0.05965 0.2115 0.17354 0.36876 0.63449 0.71041 1.2961 0.71041z"/>
  <path d="m32.352 18.009c0.10846 0 0.20607-0.06508 0.24946-0.1898l0.52061-1.4317 0.36334 1.4208c0.03796 0.141 0.13015 0.20065 0.25488 0.20065 0.13015 0 0.2115-0.08135 0.24946-0.19523l0.69414-2.1638c0.0054-0.01627 0.01627-0.04881 0.01627-0.10304 0-0.141-0.12473-0.24404-0.2603-0.24404-0.11388 0-0.22234 0.09219-0.25488 0.20065l-0.42842 1.41-0.33623-1.4262c-0.03254-0.13015-0.13015-0.1898-0.2603-0.1898-0.11388 0-0.22234 0.07592-0.2603 0.1898l-0.48807 1.3991-0.27657-1.372c-0.02711-0.12473-0.11388-0.21692-0.25488-0.21692s-0.25488 0.11388-0.25488 0.22777c0 0.04881 0.0054 0.07592 0.01627 0.13015l0.45011 2.1421c0.02712 0.13015 0.11388 0.2115 0.2603 0.2115z"/>
  <path d="m35.59 15.075c0.14642 0 0.25488-0.10846 0.2603-0.25488l0.0054-0.20607c0.0054-0.13015-0.11931-0.2603-0.25488-0.2603s-0.25488 0.11388-0.2603 0.25488l-0.0054 0.20065c-0.0054 0.141 0.11931 0.26573 0.25488 0.26573zm-0.02711 2.9338c0.141 0 0.26573-0.11931 0.26573-0.26573l0.02712-2.1584c0-0.14642-0.11388-0.26573-0.26573-0.26573-0.141 0-0.26573 0.11931-0.26573 0.26573l-0.02712 2.1584c0 0.14642 0.11931 0.26573 0.26573 0.26573z"/>
  <path d="m36.973 18.009c0.13558 0 0.2603-0.11931 0.2603-0.24946v-1.9631h0.55857c0.13558 0 0.24404-0.11931 0.24404-0.24946 0-0.13558-0.13558-0.24946-0.24404-0.24946l-0.55315-0.0054c0.03254-0.37419 0.19523-0.42842 0.64534-0.42842 0.16269 0 0.25488-0.11931 0.25488-0.25488 0-0.20065-0.13558-0.24946-0.31453-0.24946-0.74295 0-1.0738 0.23319-1.1063 0.93276h-0.2603c-0.12473 0-0.24404 0.11931-0.24404 0.25488 0 0.13015 0.11931 0.24946 0.24946 0.24946h0.24946v1.9631c0 0.13015 0.12473 0.24946 0.2603 0.24946z"/>
  <path d="m38.827 18.014c0.141 0 0.2603-0.11388 0.2603-0.25488v-1.936h0.46096c0.14642 0 0.2603-0.12473 0.2603-0.2603 0-0.15184-0.11388-0.26573-0.2603-0.26573h-0.46096v-0.58026c0-0.13558-0.10304-0.26573-0.2603-0.26573-0.14642 0-0.2603 0.13015-0.2603 0.26573v0.58026h-0.41757c-0.141 0-0.27115 0.10304-0.27115 0.26573 0 0.13558 0.11388 0.2603 0.2603 0.2603h0.42842v1.936c0 0.141 0.12473 0.25488 0.2603 0.25488z"/>
  <path d="m41.376 18.009c0.8731 0 1.6215-0.85683 1.6215-1.9848 0-0.98699-0.59653-1.7137-1.41-1.7137-0.86226 0-1.6161 0.85683-1.6161 1.9848 0 0.97614 0.58568 1.7137 1.4046 1.7137zm0-0.51518c-0.44469 0-0.86226-0.40672-0.86226-1.1985 0-0.86226 0.4718-1.4696 1.0412-1.4696 0.44469 0 0.90022 0.42842 0.90022 1.2202 0 0.86226-0.49349 1.4479-1.0792 1.4479z"/>
  <path d="m43.854 18.009c0.16269 0 0.25488-0.11931 0.25488-0.27115v-0.45553c0-0.4013 0.05965-0.65076 0.22234-0.9436 0.18438-0.33623 0.41215-0.53145 0.62907-0.53145 0.24946 0 0.35792 0.18438 0.35792 1.0466v0.90022c0 0.13015 0.11931 0.25488 0.2603 0.25488 0.14642 0 0.24946-0.12473 0.24946-0.2603 0-0.30911 0.0054-0.49349 0.0054-0.94902 0-1.1334-0.23319-1.4967-0.8243-1.4967-0.36876 0-0.68872 0.23319-0.8948 0.66703v-0.41215c0-0.14642-0.11388-0.2603-0.24946-0.2603-0.141 0-0.27115 0.11388-0.27115 0.2603v2.2017c0 0.13015 0.11931 0.24946 0.2603 0.24946z"/>
  <path d="m47.623 18.009c0.70499 0 1.3069-0.46638 1.3069-1.09 0-0.53145-0.39588-0.8731-1.1117-1.0792-0.58568-0.16811-0.83514-0.32538-0.83514-0.58026 0-0.27115 0.24946-0.45011 0.74295-0.45011 0.4013 0 0.64534 0.15727 0.67245 0.3525 0.01627 0.12473 0.11931 0.22777 0.24946 0.22777 0.15184 0 0.26573-0.11931 0.26573-0.282 0-0.47722-0.43926-0.79718-1.1876-0.79718-0.78634 0-1.269 0.40672-1.269 0.98699 0 0.61822 0.55857 0.88395 1.1768 1.0575 0.59653 0.16811 0.77549 0.36876 0.77549 0.59111 0 0.30911-0.31996 0.55315-0.77549 0.55315-0.32538 0-0.69957-0.15184-0.81887-0.48265-0.04338-0.11931-0.13558-0.20065-0.27115-0.20065-0.15727 0-0.27657 0.12473-0.27657 0.27115 0 0.05965 0.02169 0.13015 0.05965 0.2115 0.17354 0.36876 0.63449 0.71041 1.2961 0.71041z"/>
  <path d="m50.671 18.009c0.33623 0 0.71041-0.17896 0.90564-0.4013 0.04338-0.04881 0.06508-0.09761 0.06508-0.16269 0-0.141-0.10846-0.24404-0.25488-0.24404-0.0705 0-0.13015 0.03796-0.17896 0.08677-0.11931 0.12473-0.29826 0.23319-0.53688 0.23319-0.30911 0-0.59653-0.12473-0.69957-0.3525l1.4534-0.83514c0.11388-0.06508 0.16811-0.16269 0.16811-0.24946 0-0.25488-0.32538-0.78091-1.0412-0.78091-0.74295 0-1.2256 0.66703-1.2256 1.3449 0 0.85141 0.58026 1.3612 1.3449 1.3612zm-0.85141-1.2907c0-0.07592 0-0.11388 0.01085-0.19523 0.04338-0.4013 0.33623-0.7321 0.75922-0.7321 0.2115 0 0.37961 0.07592 0.46638 0.22777z"/>
  <path d="m53.171 18.009c0.45553 0 0.82972-0.25488 1.0195-0.50976 0.04338-0.05423 0.05965-0.11388 0.05965-0.18438 0-0.12473-0.11388-0.23861-0.25488-0.23861-0.10304 0-0.18438 0.0705-0.23319 0.13558-0.12473 0.16811-0.29284 0.30369-0.60195 0.30369-0.3308 0-0.66161-0.25488-0.66161-0.70499 0-0.51518 0.37419-1.0141 0.72126-1.0141 0.21692 0 0.31996 0.10304 0.41757 0.2115 0.0705 0.08677 0.11388 0.10846 0.20607 0.10846 0.141 0 0.2603-0.10846 0.2603-0.24946 0-0.06508-0.02169-0.12473-0.08134-0.1898-0.20607-0.24404-0.40672-0.37419-0.80803-0.37419-0.64534 0-1.2256 0.77549-1.2256 1.5184 0 0.66161 0.51518 1.1876 1.1822 1.1876z"/>
  <path d="m55.454 18.025c0.32538 0 0.58568-0.18438 0.77007-0.31453v0.05965c0 0.14642 0.13558 0.23861 0.27657 0.23861s0.2603-0.12473 0.2603-0.2603v-2.2017c0-0.14642-0.12473-0.24946-0.2603-0.24946-0.12473 0-0.25488 0.10304-0.25488 0.24946l-0.01085 1.5456c0 0.06508-0.01085 0.11388-0.03254 0.13558-0.09219 0.10304-0.4013 0.30911-0.69414 0.30911-0.19523 0-0.35792-0.14642-0.35792-0.94902 0-0.54772 0.06508-0.9436 0.06508-1.0358 0-0.17354-0.12473-0.25488-0.2603-0.25488-0.15727 0-0.22777 0.10304-0.25488 0.27657-0.03796 0.24404-0.05965 0.62364-0.05965 0.8948 0 1.2853 0.26573 1.5564 0.81345 1.5564z"/>
  <path d="m57.786 18.009c0.13015 0 0.2603-0.11931 0.2603-0.24946l0.0054-1.0304c0-0.22234 0.02169-0.41215 0.18438-0.61822 0.09219-0.12473 0.28742-0.30369 0.43384-0.30369 0.09219 0 0.11931 0.03254 0.11931 0.08677v0.0705c0 0.12473 0.06508 0.2603 0.25488 0.2603 0.14642 0 0.25488-0.11388 0.25488-0.25488v-0.16269c0-0.23319-0.11388-0.51518-0.52061-0.51518-0.31996 0-0.55857 0.15727-0.72668 0.43384v-0.16269c0-0.14642-0.11931-0.2603-0.26573-0.2603-0.141 0-0.26573 0.11388-0.26573 0.2603v2.1963c0 0.13015 0.13015 0.24946 0.26573 0.24946z"/>
  <path d="m59.999 15.075c0.14642 0 0.25488-0.10846 0.2603-0.25488l0.0054-0.20607c0.0054-0.13015-0.11931-0.2603-0.25488-0.2603s-0.25488 0.11388-0.2603 0.25488l-0.0054 0.20065c-0.0054 0.141 0.11931 0.26573 0.25488 0.26573zm-0.02712 2.9338c0.141 0 0.26573-0.11931 0.26573-0.26573l0.02712-2.1584c0-0.14642-0.11388-0.26573-0.26573-0.26573-0.141 0-0.26573 0.11931-0.26573 0.26573l-0.02712 2.1584c0 0.14642 0.11931 0.26573 0.26573 0.26573z"/>
  <path d="m61.495 18.014c0.141 0 0.2603-0.11388 0.2603-0.25488v-1.936h0.46096c0.14642 0 0.2603-0.12473 0.2603-0.2603 0-0.15184-0.11388-0.26573-0.2603-0.26573h-0.46096v-0.58026c0-0.13558-0.10304-0.26573-0.2603-0.26573-0.14642 0-0.2603 0.13015-0.2603 0.26573v0.58026h-0.41757c-0.141 0-0.27115 0.10304-0.27115 0.26573 0 0.13558 0.11388 0.2603 0.2603 0.2603h0.42842v1.936c0 0.141 0.12473 0.25488 0.2603 0.25488z"/>
  <path d="m63.177 18.979c0.11388 0 0.20065-0.07592 0.24404-0.16811l1.4479-3.1453c0.01627-0.03254 0.02169-0.07592 0.02169-0.10846 0-0.15184-0.10846-0.26573-0.23861-0.26573-0.11388 0-0.20607 0.07592-0.24946 0.16811l-0.6833 1.513-0.76464-1.513c-0.03796-0.07592-0.11931-0.16269-0.24946-0.16269-0.15184 0-0.27115 0.11931-0.27115 0.26573 0 0.04881 0.01627 0.09761 0.03254 0.13015l0.97072 1.8926-0.4718 1.0141c-0.01627 0.03796-0.02711 0.08135-0.02711 0.11388 0 0.14642 0.10846 0.26573 0.23861 0.26573z"/>
  <path d="m65.492 16.246c0.16811 0 0.31996-0.15727 0.31996-0.35792 0-0.16811-0.12473-0.29826-0.282-0.29826-0.16811 0-0.31996 0.16811-0.31996 0.34707 0 0.16811 0.11388 0.30911 0.282 0.30911zm-0.14642 1.7625c0.16811 0 0.31996-0.15727 0.31996-0.3525 0-0.16811-0.11931-0.30369-0.27657-0.30369-0.16811 0-0.31996 0.16811-0.31996 0.34707 0 0.17354 0.10846 0.30911 0.27657 0.30911z"/>
  <path d="m24.315 23.658c0.10304 0 0.17354-0.0705 0.19523-0.16811l0.34165-1.5835h1.6757c0.09219 0 0.17896-0.0705 0.19523-0.16269 0.01627-0.08677-0.04338-0.15184-0.13015-0.15184h-1.6757l0.27115-1.2798h2.1584c0.09219 0 0.17896-0.07592 0.19523-0.16811 0.01627-0.08677-0.04338-0.15184-0.13015-0.15184h-2.3156c-0.09761 0-0.17354 0.07592-0.19523 0.1898l-0.71041 3.3026c-0.02169 0.09761 0.04881 0.17354 0.12473 0.17354z"/>
  <path d="m27.992 23.674c0.41215 0 0.81345-0.22234 0.99241-0.41757l-0.04338 0.21692c-0.02169 0.10846 0.04338 0.18438 0.13558 0.18438 0.08677 0 0.18438-0.07592 0.20607-0.16269l0.50976-2.4024c0.01627-0.08135-0.03254-0.14642-0.11931-0.14642-0.07592 0-0.16811 0.05965-0.1898 0.14642l-0.37419 1.6649c-0.03254 0.13558-0.0705 0.2115-0.19523 0.30369-0.15184 0.11388-0.49349 0.32538-0.85683 0.32538-0.23319 0-0.35792-0.13015-0.35792-0.45553 0-0.48265 0.23861-1.3124 0.39588-1.8004 0.03254-0.10846-0.01085-0.18438-0.11931-0.18438-0.08677 0-0.141 0.03254-0.19523 0.19523-0.1898 0.50976-0.40672 1.4208-0.40672 1.8764 0 0.43926 0.1898 0.65618 0.61822 0.65618z"/>
  <path d="m30.27 23.658c0.09219 0 0.17354-0.07592 0.1898-0.17354l0.10846-0.48265c0.08677-0.39046 0.26573-0.76464 0.61822-1.2039 0.26573-0.3308 0.55315-0.5423 0.79718-0.5423 0.3525 0 0.47722 0.1898 0.26573 1.1714-0.13015 0.60195-0.17354 0.8243-0.22234 1.0683-0.01627 0.08677 0.03796 0.16269 0.12473 0.16269 0.09219 0 0.16811-0.07592 0.18438-0.16811 0.04881-0.24404 0.10304-0.46638 0.25488-1.1714 0.20607-0.95987 0.03796-1.3666-0.51518-1.3666-0.44469 0-0.93818 0.37419-1.2907 1.0412l0.1898-0.88937c0.02169-0.08677-0.04338-0.15727-0.13015-0.15727-0.08677 0-0.17354 0.0705-0.20065 0.15727l-0.50976 2.4024c-0.01627 0.08135 0.04881 0.15184 0.13558 0.15184z"/>
  <path d="m35.123 23.658c0.08677 0 0.17896-0.0705 0.19523-0.15184l0.47722-2.2614h0.7321c0.0705 0 0.17896-0.07592 0.17896-0.1898 0-0.04881-0.05423-0.10846-0.11388-0.10846l-0.7321-0.0054c0.141-0.62907 0.3525-0.71041 0.98156-0.71041 0.09219 0 0.20065-0.08134 0.20065-0.19523 0-0.09219-0.08677-0.11388-0.20065-0.11388-0.75922 0-1.1388 0.24946-1.3069 1.0195h-0.4013c-0.09219 0-0.17896 0.08677-0.17896 0.18438 0 0.06508 0.05423 0.11931 0.12473 0.11931h0.39046l-0.47722 2.2614c-0.02169 0.08135 0.04881 0.15184 0.13015 0.15184z"/>
  <path d="m37.173 23.658c0.29284 0 0.59653-0.13015 0.8243-0.29284l-0.03796 0.16811c-0.02169 0.09761 0.02712 0.16811 0.12473 0.16811 0.08677 0 0.17354-0.06508 0.20065-0.17354l0.49892-2.3536c-0.07592-0.04338-0.37419-0.22234-0.77549-0.22234-0.92191 0-1.6594 1.0304-1.6594 1.8547 0 0.52061 0.3308 0.85141 0.8243 0.85141zm0.05965-0.30369c-0.34165 0-0.54772-0.17354-0.54772-0.60738 0-0.71584 0.63991-1.4859 1.2744-1.4859 0.17896 0 0.37419 0.06508 0.46638 0.10846l-0.37419 1.6649c-0.15184 0.11931-0.49892 0.31996-0.81887 0.31996z"/>
  <path d="m40.123 23.658c0.42842 0 0.85141-0.24946 1.0738-0.49349 0.04881-0.05423 0.08134-0.09761 0.08134-0.15727 0-0.0705-0.05423-0.11931-0.13015-0.11931-0.06508 0-0.11931 0.03796-0.16811 0.09219-0.20607 0.21692-0.4718 0.37961-0.8026 0.37961-0.3525 0-0.71584-0.21692-0.71584-0.68872 0-0.58568 0.63449-1.4154 1.1822-1.4154 0.27657 0 0.4013 0.11931 0.50976 0.29284 0.02169 0.02712 0.05423 0.04881 0.10304 0.04881 0.10304 0 0.20065-0.08677 0.20065-0.1898 0-0.02711-0.01085-0.05965-0.02712-0.08677-0.15184-0.22777-0.3308-0.36876-0.72668-0.36876-0.72126 0-1.5618 0.98156-1.5618 1.7842 0 0.55315 0.42842 0.92191 0.98156 0.92191z"/>
  <path d="m42.097 23.663c0.08134 0 0.17896-0.0705 0.20065-0.15727l0.47722-2.2451h0.61822c0.10304 0 0.20065-0.08677 0.20065-0.18438 0-0.07592-0.04881-0.13015-0.13015-0.13015h-0.62364l0.15727-0.7538c0.02169-0.07592-0.01627-0.16811-0.12473-0.16811-0.08677 0-0.18438 0.08134-0.20065 0.16811l-0.15727 0.7538h-0.60738c-0.10846 0-0.2115 0.07592-0.2115 0.18438 0 0.08134 0.05965 0.13015 0.13015 0.13015h0.62364l-0.48265 2.2397c-0.01627 0.08134 0.02712 0.16269 0.13015 0.16269z"/>
  <path d="m43.936 21.732c0.13558 0 0.28742-0.16269 0.28742-0.30911 0-0.09219-0.06508-0.16269-0.15184-0.16269-0.12473 0-0.282 0.15727-0.282 0.31453 0 0.09219 0.05423 0.15727 0.14642 0.15727zm-0.56942 1.9252c0.14642 0 0.28742-0.16269 0.28742-0.31453 0-0.09219-0.05965-0.15727-0.14642-0.15727-0.12473 0-0.282 0.14642-0.282 0.31453 0 0.08677 0.05423 0.15727 0.141 0.15727z"/>
  <path d="m46.376 23.658 1.8926-0.13015c0.09761-0.0054 0.18438-0.09219 0.18438-0.20065 0-0.06508-0.04881-0.11931-0.13558-0.11388l-1.7191 0.11388 0.6833-3.205c0.01627-0.08677-0.03796-0.16269-0.13015-0.16269-0.08677 0-0.17896 0.07592-0.20065 0.16269l-0.71584 3.3731c-0.01627 0.08677 0.04881 0.16811 0.141 0.16269z"/>
  <path d="m49.717 20.512c0.08134 0 0.17354-0.06508 0.19523-0.16269l0.04881-0.21692c0.02169-0.08134-0.02712-0.16269-0.11931-0.16269-0.08677 0-0.17354 0.0705-0.19523 0.15727l-0.05423 0.21692c-0.02169 0.09761 0.04881 0.16811 0.12473 0.16811zm-0.69957 3.1453c0.09761 0 0.17896-0.07592 0.20065-0.16811l0.53145-2.3482c0.02712-0.09219-0.03254-0.17354-0.13015-0.17354-0.09761 0-0.17896 0.07592-0.20607 0.16811l-0.53145 2.3536c-0.01627 0.07592 0.03254 0.16811 0.13558 0.16811z"/>
  <path d="m50.243 23.658c0.09219 0 0.17354-0.07592 0.1898-0.17354l0.10846-0.48265c0.08677-0.39046 0.26573-0.76464 0.61822-1.2039 0.26573-0.3308 0.55315-0.5423 0.79718-0.5423 0.3525 0 0.47722 0.1898 0.26573 1.1714-0.13015 0.60195-0.17354 0.8243-0.22234 1.0683-0.01627 0.08677 0.03796 0.16269 0.12473 0.16269 0.09219 0 0.16811-0.07592 0.18438-0.16811 0.04881-0.24404 0.10304-0.46638 0.25488-1.1714 0.20607-0.95987 0.03796-1.3666-0.51518-1.3666-0.44469 0-0.93818 0.37419-1.2907 1.0412l0.1898-0.88937c0.02169-0.08677-0.04338-0.15727-0.13015-0.15727-0.08677 0-0.17354 0.0705-0.20065 0.15727l-0.50976 2.4024c-0.01627 0.08135 0.04881 0.15184 0.13558 0.15184z"/>
  <path d="m53.816 23.674c0.41215 0 0.81345-0.22234 0.99241-0.41757l-0.04338 0.21692c-0.02169 0.10846 0.04338 0.18438 0.13558 0.18438 0.08677 0 0.18438-0.07592 0.20607-0.16269l0.50976-2.4024c0.01627-0.08135-0.03254-0.14642-0.11931-0.14642-0.07592 0-0.16811 0.05965-0.1898 0.14642l-0.37419 1.6649c-0.03254 0.13558-0.0705 0.2115-0.19523 0.30369-0.15184 0.11388-0.49349 0.32538-0.85683 0.32538-0.23319 0-0.35792-0.13015-0.35792-0.45553 0-0.48265 0.23861-1.3124 0.39588-1.8004 0.03254-0.10846-0.01085-0.18438-0.11931-0.18438-0.08677 0-0.141 0.03254-0.19523 0.19523-0.1898 0.50976-0.40672 1.4208-0.40672 1.8764 0 0.43926 0.1898 0.65618 0.61822 0.65618z"/>
  <path d="m57.857 23.658c0.08677 0 0.17354-0.09219 0.17354-0.18438 0-0.03796-0.01627-0.06508-0.03796-0.09761l-0.69414-1.1009 1.2636-1.0466c0.04338-0.03254 0.07592-0.08677 0.07592-0.141 0-0.0705-0.05965-0.13015-0.13558-0.13015-0.03796 0-0.08677 0.01627-0.11931 0.04881l-1.2473 1.0521-0.63991-1.0521c-0.02169-0.03796-0.03796-0.05965-0.10846-0.05965-0.08677 0-0.17354 0.09219-0.17354 0.19523 0 0.03796 0.02712 0.07592 0.04338 0.10304l0.63449 1.0141-1.3341 1.1117c-0.04338 0.03796-0.07592 0.08677-0.07592 0.15184 0 0.07592 0.05423 0.13015 0.12473 0.13015 0.05423 0 0.09761-0.02169 0.12473-0.04881l1.3232-1.1226 0.67788 1.1117c0.02712 0.04338 0.06508 0.06508 0.12473 0.06508z"/>
  <path d="m61.127 23.658c0.36334 0 0.74295-0.23319 0.95445-0.42299l-0.06508 0.23319c-0.02169 0.0705 0.01085 0.1898 0.12473 0.1898 0.09219 0 0.17896-0.06508 0.20607-0.15727l0.80803-3.4382c0.02169-0.09219-0.03796-0.17354-0.12473-0.17354-0.09219 0-0.18438 0.07592-0.20607 0.16811l-0.2603 1.1009c-0.15184-0.09761-0.39046-0.20065-0.68872-0.20065-0.87853 0-1.5184 0.88395-1.5184 1.8655 0 0.53688 0.30911 0.83514 0.77007 0.83514zm0.03796-0.30911c-0.29826 0-0.48265-0.1898-0.48265-0.57484 0-0.77549 0.45553-1.5022 1.1388-1.5022 0.30911 0 0.57484 0.141 0.66703 0.20065l-0.282 1.2148c-0.05965 0.25488-0.51518 0.66161-1.0412 0.66161z"/>
  <path d="m64.12 23.658c0.85683 0 1.5998-0.91106 1.5998-1.7571 0-0.5423-0.3308-0.95445-0.85683-0.95445-0.85683 0-1.6052 0.91106-1.6052 1.7571 0 0.54772 0.33623 0.95445 0.86226 0.95445zm0.08134-0.282c-0.4013 0-0.61822-0.282-0.61822-0.71041 0-0.66703 0.58026-1.4371 1.1931-1.4371 0.4013 0 0.61822 0.28742 0.61822 0.71584 0 0.66703-0.58026 1.4317-1.1931 1.4317z"/>
  <path d="m67.238 23.658c0.3308 0 0.73753-0.17354 0.97072-0.39046 0.03796-0.03254 0.0705-0.08677 0.0705-0.141 0-0.0705-0.04881-0.11388-0.12473-0.11388-0.03796 0-0.08677 0.01627-0.11388 0.04338-0.18438 0.16811-0.50976 0.29826-0.77549 0.29826-0.39588 0-0.72126-0.17896-0.78634-0.53688l1.9035-0.97072c0.11931-0.05965 0.16269-0.11388 0.16269-0.23861 0-0.24946-0.23861-0.65618-0.86768-0.65618-0.81345 0-1.5456 0.86768-1.5456 1.692 0 0.56399 0.39588 1.0141 1.1063 1.0141zm-0.79718-1.1334c0-0.22234 0.141-0.56942 0.31996-0.79718 0.22234-0.28742 0.53145-0.4718 0.88395-0.4718 0.36334 0 0.55315 0.13558 0.58568 0.38503z"/>
  <path d="m69.527 23.658c0.56942 0 1.0683-0.43384 1.0683-0.92191 0-0.3308-0.2115-0.46638-0.69414-0.63991-0.36334-0.13015-0.53145-0.22777-0.53145-0.43384 0-0.24404 0.27115-0.42299 0.71041-0.42299 0.33623 0 0.47722 0.09761 0.47722 0.25488 0 0.11931-0.05423 0.141-0.05423 0.21692 0 0.06508 0.05965 0.11388 0.13558 0.11388 0.15727 0 0.23319-0.21692 0.23319-0.38503 0-0.30369-0.25488-0.48807-0.78634-0.48807-0.63449 0-1.0249 0.34165-1.0249 0.76464 0 0.33623 0.22234 0.51518 0.6833 0.66703 0.40672 0.141 0.53145 0.23861 0.53145 0.40672 0 0.29826-0.31996 0.56942-0.68872 0.56942-0.39588 0-0.60195-0.15184-0.63991-0.46096-0.01085-0.0705-0.05423-0.10846-0.12473-0.10846-0.10304 0-0.19523 0.10304-0.19523 0.2115 0 0.24404 0.2603 0.65618 0.90022 0.65618z"/>
  <path d="m71.208 23.658c0.09219 0 0.17354-0.07592 0.1898-0.17354l0.10846-0.48265c0.08677-0.39046 0.26573-0.76464 0.61822-1.2039 0.26573-0.3308 0.55315-0.5423 0.79718-0.5423 0.3525 0 0.47722 0.1898 0.26573 1.1714-0.13015 0.60195-0.17354 0.8243-0.22234 1.0683-0.01627 0.08677 0.03796 0.16269 0.12473 0.16269 0.09219 0 0.16811-0.07592 0.18438-0.16811 0.04881-0.24404 0.10304-0.46638 0.25488-1.1714 0.20607-0.95987 0.03796-1.3666-0.51518-1.3666-0.44469 0-0.93818 0.37419-1.2907 1.0412l0.1898-0.88937c0.02169-0.08677-0.04338-0.15727-0.13015-0.15727-0.08677 0-0.17354 0.0705-0.20065 0.15727l-0.50976 2.4024c-0.01627 0.08135 0.04881 0.15184 0.13558 0.15184z"/>
  <path d="m74.695 20.973c0.09219 0 0.18438-0.08134 0.20065-0.16269l0.15184-0.72126c0.01627-0.09219-0.03796-0.16269-0.13015-0.16269-0.08677 0-0.17896 0.07592-0.19523 0.16269l-0.15184 0.72126c-0.02169 0.09219 0.02712 0.16269 0.12473 0.16269z"/>
  <path d="m75.378 23.663c0.08134 0 0.17896-0.0705 0.20065-0.15727l0.47722-2.2451h0.61822c0.10304 0 0.20065-0.08677 0.20065-0.18438 0-0.07592-0.04881-0.13015-0.13015-0.13015h-0.62364l0.15727-0.7538c0.02169-0.07592-0.01627-0.16811-0.12473-0.16811-0.08677 0-0.18438 0.08134-0.20065 0.16811l-0.15727 0.7538h-0.60738c-0.10846 0-0.2115 0.07592-0.2115 0.18438 0 0.08134 0.05965 0.13015 0.13015 0.13015h0.62364l-0.48265 2.2397c-0.01627 0.08134 0.02711 0.16269 0.13015 0.16269z"/>
  <path d="m79.38 23.658c0.29284 0 0.59653-0.13015 0.8243-0.29284l-0.03796 0.16811c-0.02169 0.09761 0.02711 0.16811 0.12473 0.16811 0.08677 0 0.17354-0.06508 0.20065-0.17354l0.49892-2.3536c-0.07592-0.04338-0.37419-0.22234-0.77549-0.22234-0.92191 0-1.6594 1.0304-1.6594 1.8547 0 0.52061 0.3308 0.85141 0.8243 0.85141zm0.05965-0.30369c-0.34165 0-0.54772-0.17354-0.54772-0.60738 0-0.71584 0.63991-1.4859 1.2744-1.4859 0.17896 0 0.37419 0.06508 0.46638 0.10846l-0.37419 1.6649c-0.15184 0.11931-0.49892 0.31996-0.81887 0.31996z"/>
  <path d="m82.33 23.658c0.42842 0 0.85141-0.24946 1.0738-0.49349 0.04881-0.05423 0.08134-0.09761 0.08134-0.15727 0-0.0705-0.05423-0.11931-0.13015-0.11931-0.06508 0-0.11931 0.03796-0.16811 0.09219-0.20607 0.21692-0.4718 0.37961-0.8026 0.37961-0.3525 0-0.71584-0.21692-0.71584-0.68872 0-0.58568 0.63449-1.4154 1.1822-1.4154 0.27657 0 0.4013 0.11931 0.50976 0.29284 0.02169 0.02712 0.05423 0.04881 0.10304 0.04881 0.10304 0 0.20065-0.08677 0.20065-0.1898 0-0.02711-0.01085-0.05965-0.02711-0.08677-0.15184-0.22777-0.3308-0.36876-0.72668-0.36876-0.72126 0-1.5618 0.98156-1.5618 1.7842 0 0.55315 0.42842 0.92191 0.98156 0.92191z"/>
  <path d="m84.304 23.663c0.08134 0 0.17896-0.0705 0.20065-0.15727l0.47722-2.2451h0.61822c0.10304 0 0.20065-0.08677 0.20065-0.18438 0-0.07592-0.04881-0.13015-0.13015-0.13015h-0.62364l0.15727-0.7538c0.02169-0.07592-0.01627-0.16811-0.12473-0.16811-0.08677 0-0.18438 0.08134-0.20065 0.16811l-0.15727 0.7538h-0.60738c-0.10846 0-0.2115 0.07592-0.2115 0.18438 0 0.08134 0.05965 0.13015 0.13015 0.13015h0.62364l-0.48265 2.2397c-0.01627 0.08134 0.02711 0.16269 0.13015 0.16269z"/>
  <path d="m86.365 23.674c0.41215 0 0.81345-0.22234 0.99241-0.41757l-0.04338 0.21692c-0.02169 0.10846 0.04338 0.18438 0.13558 0.18438 0.08677 0 0.18438-0.07592 0.20607-0.16269l0.50976-2.4024c0.01627-0.08135-0.03254-0.14642-0.11931-0.14642-0.07592 0-0.16811 0.05965-0.1898 0.14642l-0.37419 1.6649c-0.03254 0.13558-0.0705 0.2115-0.19523 0.30369-0.15184 0.11388-0.49349 0.32538-0.85683 0.32538-0.23319 0-0.35792-0.13015-0.35792-0.45553 0-0.48265 0.23861-1.3124 0.39588-1.8004 0.03254-0.10846-0.01085-0.18438-0.11931-0.18438-0.08677 0-0.141 0.03254-0.19523 0.19523-0.1898 0.50976-0.40672 1.4208-0.40672 1.8764 0 0.43926 0.1898 0.65618 0.61822 0.65618z"/>
  <path d="m89.342 23.658c0.29284 0 0.59653-0.13015 0.8243-0.29284l-0.03796 0.16811c-0.02169 0.09761 0.02711 0.16811 0.12473 0.16811 0.08677 0 0.17354-0.06508 0.20065-0.17354l0.49892-2.3536c-0.07592-0.04338-0.37419-0.22234-0.77549-0.22234-0.92191 0-1.6594 1.0304-1.6594 1.8547 0 0.52061 0.3308 0.85141 0.8243 0.85141zm0.05965-0.30369c-0.34165 0-0.54772-0.17354-0.54772-0.60738 0-0.71584 0.63991-1.4859 1.2744-1.4859 0.17896 0 0.37419 0.06508 0.46638 0.10846l-0.37419 1.6649c-0.15184 0.11931-0.49892 0.31996-0.81887 0.31996z"/>
  <path d="m91.425 23.658c0.08134 0 0.17354-0.06508 0.19523-0.14642l0.72126-3.4273c0.02169-0.08677-0.03796-0.15727-0.12473-0.15727-0.09219 0-0.17896 0.0705-0.20065 0.15727l-0.72668 3.4165c-0.02169 0.09219 0.05423 0.15727 0.13558 0.15727z"/>
  <path d="m92.612 23.658c0.08134 0 0.17354-0.06508 0.19523-0.14642l0.72126-3.4273c0.02169-0.08677-0.03796-0.15727-0.12473-0.15727-0.09219 0-0.17896 0.0705-0.20065 0.15727l-0.72668 3.4165c-0.02169 0.09219 0.05423 0.15727 0.13558 0.15727z"/>
  <path d="m93.643 24.715c0.08135 0 0.14642-0.05423 0.17354-0.10304l2.3048-3.4273c0.02711-0.03796 0.04338-0.08135 0.04338-0.11388 0-0.07592-0.05965-0.13015-0.13558-0.13015-0.08134 0-0.14642 0.05423-0.17896 0.10304l-1.269 1.8872-0.53145-1.8764c-0.01627-0.05965-0.06508-0.10846-0.13015-0.10846-0.10304 0-0.20607 0.09219-0.20607 0.20607 0 0.03254 0.0054 0.04881 0.02169 0.09219l0.58568 2.0716-0.77007 1.1497c-0.02169 0.03796-0.03796 0.07592-0.03796 0.12473 0 0.0705 0.05423 0.12473 0.13015 0.12473z"/>
  <path d="m24.869 29.308c0.56942 0 1.0683-0.43384 1.0683-0.92191 0-0.3308-0.2115-0.46638-0.69414-0.63991-0.36334-0.13015-0.53145-0.22777-0.53145-0.43384 0-0.24404 0.27115-0.42299 0.71041-0.42299 0.33623 0 0.47722 0.09761 0.47722 0.25488 0 0.11931-0.05423 0.141-0.05423 0.21692 0 0.06508 0.05965 0.11388 0.13558 0.11388 0.15727 0 0.23319-0.21692 0.23319-0.38503 0-0.30369-0.25488-0.48807-0.78634-0.48807-0.63449 0-1.0249 0.34165-1.0249 0.76464 0 0.33623 0.22234 0.51518 0.6833 0.66703 0.40672 0.141 0.53145 0.23861 0.53145 0.40672 0 0.29826-0.31996 0.56942-0.68872 0.56942-0.39588 0-0.60195-0.15184-0.63991-0.46096-0.01085-0.0705-0.05423-0.10846-0.12473-0.10846-0.10304 0-0.19523 0.10304-0.19523 0.2115 0 0.24404 0.2603 0.65618 0.90022 0.65618z"/>
  <path d="m27.114 29.324c0.41215 0 0.81345-0.22234 0.99241-0.41757l-0.04338 0.21692c-0.02169 0.10846 0.04338 0.18438 0.13558 0.18438 0.08677 0 0.18438-0.07592 0.20607-0.16269l0.50976-2.4024c0.01627-0.08134-0.03254-0.14642-0.11931-0.14642-0.07592 0-0.16811 0.05965-0.1898 0.14642l-0.37419 1.6649c-0.03254 0.13558-0.0705 0.2115-0.19523 0.30369-0.15184 0.11388-0.49349 0.32538-0.85683 0.32538-0.23319 0-0.35792-0.13015-0.35792-0.45553 0-0.48265 0.23861-1.3124 0.39588-1.8004 0.03254-0.10846-0.01085-0.18438-0.11931-0.18438-0.08677 0-0.141 0.03254-0.19523 0.19523-0.1898 0.50976-0.40672 1.4208-0.40672 1.8764 0 0.43926 0.1898 0.65618 0.61822 0.65618z"/>
  <path d="m29.164 30.354c0.08135 0 0.17896-0.07592 0.19523-0.16269l0.23319-1.0846c0.17354 0.09761 0.36876 0.18438 0.63991 0.18438 0.60738 0 1.0087-0.34165 1.2473-0.74295 0.17354-0.29826 0.31453-0.7321 0.31453-1.1009 0-0.51518-0.26573-0.85141-0.76464-0.85141-0.41215 0-0.7321 0.16269-0.98699 0.36876l0.04881-0.20607c0.02169-0.09219-0.04338-0.16269-0.13015-0.16269-0.08677 0-0.17896 0.07592-0.19523 0.16811l-0.7321 3.4273c-0.01627 0.08677 0.03796 0.16269 0.13015 0.16269zm1.1714-1.3503c-0.30911 0-0.58568-0.13558-0.67788-0.19523l0.30911-1.4588c0.11931-0.13558 0.49349-0.46638 0.98699-0.46638 0.35792 0 0.51518 0.22234 0.51518 0.60738 0 0.282-0.09761 0.66161-0.22234 0.88937-0.20065 0.37419-0.48265 0.62364-0.91106 0.62364z"/>
  <path d="m32.059 30.354c0.08135 0 0.17896-0.07592 0.19523-0.16269l0.23319-1.0846c0.17354 0.09761 0.36876 0.18438 0.63991 0.18438 0.60738 0 1.0087-0.34165 1.2473-0.74295 0.17354-0.29826 0.31453-0.7321 0.31453-1.1009 0-0.51518-0.26573-0.85141-0.76464-0.85141-0.41215 0-0.7321 0.16269-0.98699 0.36876l0.04881-0.20607c0.02169-0.09219-0.04338-0.16269-0.13015-0.16269-0.08677 0-0.17896 0.07592-0.19523 0.16811l-0.7321 3.4273c-0.01627 0.08677 0.03796 0.16269 0.13015 0.16269zm1.1714-1.3503c-0.30911 0-0.58568-0.13558-0.67788-0.19523l0.30911-1.4588c0.11931-0.13558 0.49349-0.46638 0.98699-0.46638 0.35792 0 0.51518 0.22234 0.51518 0.60738 0 0.282-0.09761 0.66161-0.22234 0.88937-0.20065 0.37419-0.48265 0.62364-0.91106 0.62364z"/>
  <path d="m35.942 29.308c0.85683 0 1.5998-0.91106 1.5998-1.7571 0-0.5423-0.3308-0.95445-0.85683-0.95445-0.85683 0-1.6052 0.91106-1.6052 1.7571 0 0.54772 0.33623 0.95445 0.86226 0.95445zm0.08135-0.282c-0.4013 0-0.61822-0.282-0.61822-0.71041 0-0.66703 0.58026-1.4371 1.1931-1.4371 0.4013 0 0.61822 0.28742 0.61822 0.71584 0 0.66703-0.58026 1.4317-1.1931 1.4317z"/>
  <path d="m38.046 29.308c0.08135 0 0.17354-0.0705 0.19523-0.15184l0.2603-1.2202c0.03796-0.17354 0.16811-0.4013 0.34165-0.58568 0.2115-0.21692 0.49892-0.44469 0.74837-0.44469 0.11931 0 0.15184 0.05423 0.15184 0.11931 0 0.0705-0.03254 0.15727-0.04338 0.20607-0.0054 0.04881 0.02169 0.13015 0.12473 0.13015 0.09219 0 0.17354-0.06508 0.19523-0.15184 0.02169-0.09761 0.05423-0.2115 0.05423-0.30369 0-0.16269-0.09219-0.31996-0.36876-0.31996-0.36876 0-0.79718 0.30369-1.0466 0.63991l0.09761-0.46638c0.01627-0.08135-0.03796-0.15727-0.13558-0.15727-0.08135 0-0.17896 0.0705-0.19523 0.15727l-0.51518 2.397c-0.01627 0.08134 0.05965 0.15184 0.13558 0.15184z"/>
  <path d="m40.422 29.313c0.08135 0 0.17896-0.0705 0.20065-0.15727l0.47722-2.2451h0.61822c0.10304 0 0.20065-0.08677 0.20065-0.18438 0-0.07592-0.04881-0.13015-0.13015-0.13015h-0.62364l0.15727-0.7538c0.02169-0.07592-0.01627-0.16811-0.12473-0.16811-0.08677 0-0.18438 0.08134-0.20065 0.16811l-0.15727 0.7538h-0.60738c-0.10846 0-0.2115 0.07592-0.2115 0.18438 0 0.08134 0.05965 0.13015 0.13015 0.13015h0.62364l-0.48265 2.2397c-0.01627 0.08134 0.02711 0.16269 0.13015 0.16269z"/>
  <path d="m44.18 30.3c0.63449 0 1.1768-0.34165 1.3558-1.1063l0.58026-2.4729c0.02169-0.09761-0.01627-0.18438-0.13015-0.18438-0.12473 0-0.17896 0.09761-0.20607 0.22777-0.12473-0.08134-0.30369-0.16811-0.55315-0.16811-0.82972 0-1.6106 0.85683-1.6161 1.7408-0.0054 0.6128 0.34707 0.97072 0.82972 0.97072 0.282-0.0054 0.59111-0.15184 0.83514-0.41215l-0.0705 0.282c-0.11388 0.43384-0.34165 0.79718-0.95987 0.79718-0.39588 0-0.49892-0.07592-0.60738-0.07592-0.11388 0-0.20065 0.10846-0.20065 0.20065 0 0.05965 0.04338 0.10846 0.11931 0.12473 0.12473 0.03254 0.36876 0.07592 0.62364 0.07592zm0.28742-1.3015c-0.33623 0-0.55857-0.25488-0.55857-0.71584 0-0.69414 0.59653-1.3666 1.269-1.3666 0.20607 0 0.41215 0.07592 0.50976 0.17354l-0.16811 0.77007c-0.18438 0.86226-0.6833 1.1388-1.0521 1.1388z"/>
  <path d="m46.555 29.308c0.08134 0 0.17354-0.0705 0.19523-0.15184l0.2603-1.2202c0.03796-0.17354 0.16811-0.4013 0.34165-0.58568 0.2115-0.21692 0.49892-0.44469 0.74837-0.44469 0.11931 0 0.15184 0.05423 0.15184 0.11931 0 0.0705-0.03254 0.15727-0.04338 0.20607-0.0054 0.04881 0.02169 0.13015 0.12473 0.13015 0.09219 0 0.17354-0.06508 0.19523-0.15184 0.02169-0.09761 0.05423-0.2115 0.05423-0.30369 0-0.16269-0.09219-0.31996-0.36876-0.31996-0.36876 0-0.79718 0.30369-1.0466 0.63991l0.09761-0.46638c0.01627-0.08135-0.03796-0.15727-0.13558-0.15727-0.08134 0-0.17896 0.0705-0.19523 0.15727l-0.51518 2.397c-0.01627 0.08134 0.05965 0.15184 0.13558 0.15184z"/>
  <path d="m49.25 29.308c0.29284 0 0.59653-0.13015 0.8243-0.29284l-0.03796 0.16811c-0.02169 0.09761 0.02712 0.16811 0.12473 0.16811 0.08677 0 0.17354-0.06508 0.20065-0.17354l0.49892-2.3536c-0.07592-0.04338-0.37419-0.22234-0.77549-0.22234-0.92191 0-1.6594 1.0304-1.6594 1.8547 0 0.52061 0.3308 0.85141 0.8243 0.85141zm0.05965-0.30369c-0.34165 0-0.54772-0.17354-0.54772-0.60738 0-0.71584 0.63991-1.4859 1.2744-1.4859 0.17896 0 0.37419 0.06508 0.46638 0.10846l-0.37419 1.6649c-0.15184 0.11931-0.49892 0.31996-0.81887 0.31996z"/>
  <path d="m51.105 30.354c0.08134 0 0.17896-0.07592 0.19523-0.16269l0.23319-1.0846c0.17354 0.09761 0.36876 0.18438 0.63991 0.18438 0.60738 0 1.0087-0.34165 1.2473-0.74295 0.17354-0.29826 0.31453-0.7321 0.31453-1.1009 0-0.51518-0.26573-0.85141-0.76464-0.85141-0.41215 0-0.7321 0.16269-0.98699 0.36876l0.04881-0.20607c0.02169-0.09219-0.04338-0.16269-0.13015-0.16269-0.08677 0-0.17896 0.07592-0.19523 0.16811l-0.7321 3.4273c-0.01627 0.08677 0.03796 0.16269 0.13015 0.16269zm1.1714-1.3503c-0.30911 0-0.58568-0.13558-0.67788-0.19523l0.30911-1.4588c0.11931-0.13558 0.49349-0.46638 0.98699-0.46638 0.35792 0 0.51518 0.22234 0.51518 0.60738 0 0.282-0.09761 0.66161-0.22234 0.88937-0.20065 0.37419-0.48265 0.62364-0.91106 0.62364z"/>
  <path d="m54.223 29.313c0.08134 0 0.17896-0.06508 0.20065-0.17354l0.1898-0.88395c0.03796-0.17896 0.08677-0.34165 0.20065-0.49349 0.28742-0.38503 0.76464-0.85683 1.1171-0.85683 0.16811 0 0.24946 0.141 0.24946 0.4718 0 0.53688-0.18438 1.2256-0.30911 1.7842-0.01627 0.08677 0.05423 0.14642 0.13015 0.14642 0.08677 0 0.15727-0.0705 0.18438-0.15727 0.13558-0.42299 0.32538-1.3937 0.32538-1.8492 0-0.47722-0.14642-0.71584-0.48265-0.71584-0.46096 0-1.0087 0.52061-1.2473 0.86768l0.36334-1.7082c0.01627-0.07592-0.02169-0.16811-0.12473-0.16811-0.09219 0-0.18438 0.08134-0.20065 0.16811l-0.72668 3.4056c-0.01627 0.08134 0.03796 0.16269 0.13015 0.16269z"/>
  <path d="m57.846 26.162c0.08134 0 0.17354-0.06508 0.19523-0.16269l0.04881-0.21692c0.02169-0.08134-0.02712-0.16269-0.11931-0.16269-0.08677 0-0.17354 0.0705-0.19523 0.15727l-0.05423 0.21692c-0.02169 0.09761 0.04881 0.16811 0.12473 0.16811zm-0.69957 3.1453c0.09761 0 0.17896-0.07592 0.20065-0.16811l0.53145-2.3482c0.02712-0.09219-0.03254-0.17354-0.13015-0.17354-0.09761 0-0.17896 0.07592-0.20607 0.16811l-0.53145 2.3536c-0.01627 0.07592 0.03254 0.16811 0.13558 0.16811z"/>
  <path d="m59.234 29.308c0.42842 0 0.85141-0.24946 1.0738-0.49349 0.04881-0.05423 0.08135-0.09761 0.08135-0.15727 0-0.0705-0.05423-0.11931-0.13015-0.11931-0.06508 0-0.11931 0.03796-0.16811 0.09219-0.20607 0.21692-0.4718 0.37961-0.8026 0.37961-0.3525 0-0.71584-0.21692-0.71584-0.68872 0-0.58568 0.63449-1.4154 1.1822-1.4154 0.27657 0 0.4013 0.11931 0.50976 0.29284 0.02169 0.02712 0.05423 0.04881 0.10304 0.04881 0.10304 0 0.20065-0.08677 0.20065-0.1898 0-0.02711-0.01085-0.05965-0.02712-0.08677-0.15184-0.22777-0.3308-0.36876-0.72668-0.36876-0.72126 0-1.5618 0.98156-1.5618 1.7842 0 0.55315 0.42842 0.92191 0.98156 0.92191z"/>
  <path d="m61.56 29.308c0.56942 0 1.0683-0.43384 1.0683-0.92191 0-0.3308-0.2115-0.46638-0.69414-0.63991-0.36334-0.13015-0.53145-0.22777-0.53145-0.43384 0-0.24404 0.27115-0.42299 0.71041-0.42299 0.33623 0 0.47722 0.09761 0.47722 0.25488 0 0.11931-0.05423 0.141-0.05423 0.21692 0 0.06508 0.05965 0.11388 0.13558 0.11388 0.15727 0 0.23319-0.21692 0.23319-0.38503 0-0.30369-0.25488-0.48807-0.78634-0.48807-0.63449 0-1.0249 0.34165-1.0249 0.76464 0 0.33623 0.22234 0.51518 0.6833 0.66703 0.40672 0.141 0.53145 0.23861 0.53145 0.40672 0 0.29826-0.31996 0.56942-0.68872 0.56942-0.39588 0-0.60195-0.15184-0.63991-0.46096-0.01085-0.0705-0.05423-0.10846-0.12473-0.10846-0.10304 0-0.19523 0.10304-0.19523 0.2115 0 0.24404 0.2603 0.65618 0.90022 0.65618z"/>
  <path d="m65.167 28.077h1.3232c0.09761 0 0.19523-0.09219 0.19523-0.1898 0-0.0705-0.05423-0.12473-0.13015-0.12473h-1.3232c-0.08677 0-0.19523 0.06508-0.19523 0.18438 0 0.0705 0.05965 0.13015 0.13015 0.13015z"/>
  <path d="m69.782 26.162c0.08134 0 0.17354-0.06508 0.19523-0.16269l0.04881-0.21692c0.02169-0.08134-0.02711-0.16269-0.11931-0.16269-0.08677 0-0.17354 0.0705-0.19523 0.15727l-0.05423 0.21692c-0.02169 0.09761 0.04881 0.16811 0.12473 0.16811zm-0.69957 3.1453c0.09761 0 0.17896-0.07592 0.20065-0.16811l0.53145-2.3482c0.02711-0.09219-0.03254-0.17354-0.13015-0.17354-0.09761 0-0.17896 0.07592-0.20607 0.16811l-0.53145 2.3536c-0.01627 0.07592 0.03254 0.16811 0.13558 0.16811z"/>
  <path d="m70.525 29.313c0.08134 0 0.17896-0.0705 0.20065-0.15727l0.47722-2.2451h0.61822c0.10304 0 0.20065-0.08677 0.20065-0.18438 0-0.07592-0.04881-0.13015-0.13015-0.13015h-0.62364l0.15727-0.7538c0.02169-0.07592-0.01627-0.16811-0.12473-0.16811-0.08677 0-0.18438 0.08134-0.20065 0.16811l-0.15727 0.7538h-0.60738c-0.10846 0-0.2115 0.07592-0.2115 0.18438 0 0.08134 0.05965 0.13015 0.13015 0.13015h0.62364l-0.48265 2.2397c-0.01627 0.08134 0.02711 0.16269 0.13015 0.16269z"/>
  <path d="m74.711 26.119c0.08677 0 0.16811-0.05965 0.19523-0.13015l0.07592-0.24404c0.03254-0.08135-0.03254-0.17354-0.12473-0.17354-0.08677 0-0.16269 0.05965-0.1898 0.13558l-0.0705 0.24946c-0.02712 0.08677 0.03254 0.16269 0.11388 0.16269zm-1.3612 4.1594c0.42299 0 0.72668-0.3525 0.85683-0.97072l0.51518-2.5597c0.01627-0.08677-0.04338-0.16269-0.13015-0.16269-0.09219 0-0.17896 0.07592-0.19523 0.16811l-0.51518 2.5813c-0.0705 0.37419-0.25488 0.64534-0.4718 0.64534-0.20607 0-0.3308-0.18438-0.39046-0.57484-0.01085-0.0705-0.06508-0.11931-0.13558-0.11931-0.12473 0-0.20607 0.11931-0.19523 0.2115 0.05965 0.48807 0.32538 0.78091 0.66161 0.78091z"/>
  <path d="m75.796 29.324c0.41215 0 0.81345-0.22234 0.99241-0.41757l-0.04338 0.21692c-0.02169 0.10846 0.04338 0.18438 0.13558 0.18438 0.08677 0 0.18438-0.07592 0.20607-0.16269l0.50976-2.4024c0.01627-0.08134-0.03254-0.14642-0.11931-0.14642-0.07592 0-0.16811 0.05965-0.1898 0.14642l-0.37419 1.6649c-0.03254 0.13558-0.0705 0.2115-0.19523 0.30369-0.15184 0.11388-0.49349 0.32538-0.85683 0.32538-0.23319 0-0.35792-0.13015-0.35792-0.45553 0-0.48265 0.23861-1.3124 0.39588-1.8004 0.03254-0.10846-0.01085-0.18438-0.11931-0.18438-0.08677 0-0.141 0.03254-0.19523 0.19523-0.1898 0.50976-0.40672 1.4208-0.40672 1.8764 0 0.43926 0.1898 0.65618 0.61822 0.65618z"/>
  <path d="m78.643 29.308c0.56942 0 1.0683-0.43384 1.0683-0.92191 0-0.3308-0.2115-0.46638-0.69414-0.63991-0.36334-0.13015-0.53145-0.22777-0.53145-0.43384 0-0.24404 0.27115-0.42299 0.71041-0.42299 0.33623 0 0.47722 0.09761 0.47722 0.25488 0 0.11931-0.05423 0.141-0.05423 0.21692 0 0.06508 0.05965 0.11388 0.13558 0.11388 0.15727 0 0.23319-0.21692 0.23319-0.38503 0-0.30369-0.25488-0.48807-0.78634-0.48807-0.63449 0-1.0249 0.34165-1.0249 0.76464 0 0.33623 0.22234 0.51518 0.6833 0.66703 0.40672 0.141 0.53145 0.23861 0.53145 0.40672 0 0.29826-0.31996 0.56942-0.68872 0.56942-0.39588 0-0.60195-0.15184-0.63991-0.46096-0.01085-0.0705-0.05423-0.10846-0.12473-0.10846-0.10304 0-0.19523 0.10304-0.19523 0.2115 0 0.24404 0.2603 0.65618 0.90022 0.65618z"/>
  <path d="m80.541 29.313c0.08134 0 0.17896-0.0705 0.20065-0.15727l0.47722-2.2451h0.61822c0.10304 0 0.20065-0.08677 0.20065-0.18438 0-0.07592-0.04881-0.13015-0.13015-0.13015h-0.62364l0.15727-0.7538c0.02169-0.07592-0.01627-0.16811-0.12473-0.16811-0.08677 0-0.18438 0.08134-0.20065 0.16811l-0.15727 0.7538h-0.60738c-0.10846 0-0.2115 0.07592-0.2115 0.18438 0 0.08134 0.05965 0.13015 0.13015 0.13015h0.62364l-0.48265 2.2397c-0.01627 0.08134 0.02712 0.16269 0.13015 0.16269z"/>
  <path d="m83.458 29.286h1.8438c0.10304 0 0.20065-0.09219 0.20065-0.1898 0-0.0705-0.05965-0.12473-0.13558-0.12473h-1.5293l2.0282-2.0499c0.05965-0.05965 0.07592-0.11931 0.07592-0.15184 0-0.07592-0.05423-0.13558-0.13015-0.13558h-1.7679c-0.11388 0-0.20607 0.09219-0.20607 0.18438 0 0.07592 0.05423 0.13015 0.13558 0.13015h1.4751l-2.0662 2.0716c-0.03796 0.03796-0.05965 0.08134-0.05965 0.13015 0 0.07592 0.05423 0.13558 0.13558 0.13558z"/>
  <path d="m86.832 29.308c0.85683 0 1.5998-0.91106 1.5998-1.7571 0-0.5423-0.3308-0.95445-0.85683-0.95445-0.85683 0-1.6052 0.91106-1.6052 1.7571 0 0.54772 0.33623 0.95445 0.86226 0.95445zm0.08134-0.282c-0.4013 0-0.61822-0.282-0.61822-0.71041 0-0.66703 0.58026-1.4371 1.1931-1.4371 0.4013 0 0.61822 0.28742 0.61822 0.71584 0 0.66703-0.58026 1.4317-1.1931 1.4317z"/>
  <path d="m89.7 29.308c0.85683 0 1.5998-0.91106 1.5998-1.7571 0-0.5423-0.3308-0.95445-0.85683-0.95445-0.85683 0-1.6052 0.91106-1.6052 1.7571 0 0.54772 0.33623 0.95445 0.86226 0.95445zm0.08134-0.282c-0.4013 0-0.61822-0.282-0.61822-0.71041 0-0.66703 0.58026-1.4371 1.1931-1.4371 0.4013 0 0.61822 0.28742 0.61822 0.71584 0 0.66703-0.58026 1.4317-1.1931 1.4317z"/>
  <path d="m91.804 29.308c0.08677 0 0.17896-0.0705 0.19523-0.15727l0.16811-0.80803c0.09761-0.43384 0.18438-0.61822 0.44469-0.8948 0.24946-0.27115 0.59653-0.5423 0.85683-0.5423 0.30369 0 0.39046 0.19523 0.29284 0.66161l-0.33623 1.5835c-0.01627 0.08677 0.04338 0.15727 0.13015 0.15727 0.09219 0 0.17896-0.0705 0.19523-0.15727l0.2603-1.2419c0.13558-0.62364 0.77549-1.0033 1.0683-1.0033 0.28742 0 0.4013 0.1898 0.29826 0.66161l-0.3308 1.5835c-0.02169 0.08677 0.03796 0.15727 0.12473 0.15727 0.08677 0 0.17896-0.0705 0.20065-0.15727l0.32538-1.5456c0.15184-0.72668-0.09761-1.0033-0.51518-1.0033-0.282 0-0.67788 0.15727-1.0575 0.61822 0-0.49349-0.282-0.61822-0.54772-0.61822-0.36876 0-0.86768 0.3308-1.2039 0.80803l0.13558-0.64534c0.01627-0.08677-0.03796-0.16269-0.13015-0.16269-0.08677 0-0.17896 0.07592-0.19523 0.16269l-0.50976 2.3861c-0.01627 0.08677 0.04338 0.15727 0.13015 0.15727z"/>
  <path d="m96.875 29.308c0.56942 0 1.0683-0.43384 1.0683-0.92191 0-0.3308-0.2115-0.46638-0.69414-0.63991-0.36334-0.13015-0.53145-0.22777-0.53145-0.43384 0-0.24404 0.27115-0.42299 0.71041-0.42299 0.33623 0 0.47722 0.09761 0.47722 0.25488 0 0.11931-0.05423 0.141-0.05423 0.21692 0 0.06508 0.05965 0.11388 0.13558 0.11388 0.15727 0 0.23319-0.21692 0.23319-0.38503 0-0.30369-0.25488-0.48807-0.78634-0.48807-0.63449 0-1.0249 0.34165-1.0249 0.76464 0 0.33623 0.22234 0.51518 0.6833 0.66703 0.40672 0.141 0.53145 0.23861 0.53145 0.40672 0 0.29826-0.31996 0.56942-0.68872 0.56942-0.39588 0-0.60195-0.15184-0.63991-0.46096-0.01085-0.0705-0.05423-0.10846-0.12473-0.10846-0.10304 0-0.19523 0.10304-0.19523 0.2115 0 0.24404 0.2603 0.65618 0.90022 0.65618z"/>
  <path d="m25.058 34.957c0.85683 0 1.5998-0.91106 1.5998-1.7571 0-0.5423-0.3308-0.95445-0.85683-0.95445-0.85683 0-1.6052 0.91106-1.6052 1.7571 0 0.54772 0.33623 0.95445 0.86226 0.95445zm0.08135-0.282c-0.4013 0-0.61822-0.282-0.61822-0.71041 0-0.66703 0.58026-1.4371 1.1931-1.4371 0.4013 0 0.61822 0.28742 0.61822 0.71584 0 0.66703-0.58026 1.4317-1.1931 1.4317z"/>
  <path d="m27.732 34.973c0.41215 0 0.81345-0.22234 0.99241-0.41757l-0.04338 0.21692c-0.02169 0.10846 0.04338 0.18438 0.13558 0.18438 0.08677 0 0.18438-0.07592 0.20607-0.16269l0.50976-2.4024c0.01627-0.08134-0.03254-0.14642-0.11931-0.14642-0.07592 0-0.16811 0.05965-0.1898 0.14642l-0.37419 1.6649c-0.03254 0.13558-0.0705 0.2115-0.19523 0.30369-0.15184 0.11388-0.49349 0.32538-0.85683 0.32538-0.23319 0-0.35792-0.13015-0.35792-0.45553 0-0.48265 0.23861-1.3124 0.39588-1.8004 0.03254-0.10846-0.01085-0.18438-0.11931-0.18438-0.08677 0-0.141 0.03254-0.19523 0.19523-0.1898 0.50976-0.40672 1.4208-0.40672 1.8764 0 0.43926 0.1898 0.65618 0.61822 0.65618z"/>
  <path d="m30.226 34.962c0.08134 0 0.17896-0.0705 0.20065-0.15727l0.47722-2.2451h0.61822c0.10304 0 0.20065-0.08677 0.20065-0.18438 0-0.07592-0.04881-0.13015-0.13015-0.13015h-0.62364l0.15727-0.7538c0.02169-0.07592-0.01627-0.16811-0.12473-0.16811-0.08677 0-0.18438 0.08134-0.20065 0.16811l-0.15727 0.7538h-0.60738c-0.10846 0-0.2115 0.07592-0.2115 0.18438 0 0.08134 0.05965 0.13015 0.13015 0.13015h0.62364l-0.48265 2.2397c-0.01627 0.08135 0.02711 0.16269 0.13015 0.16269z"/>
  <path d="m33.746 34.962c0.08134 0 0.17896-0.0705 0.20065-0.15727l0.47722-2.2451h0.61822c0.10304 0 0.20065-0.08677 0.20065-0.18438 0-0.07592-0.04881-0.13015-0.13015-0.13015h-0.62364l0.15727-0.7538c0.02169-0.07592-0.01627-0.16811-0.12473-0.16811-0.08677 0-0.18438 0.08134-0.20065 0.16811l-0.15727 0.7538h-0.60738c-0.10846 0-0.2115 0.07592-0.2115 0.18438 0 0.08134 0.05965 0.13015 0.13015 0.13015h0.62364l-0.48265 2.2397c-0.01627 0.08135 0.02711 0.16269 0.13015 0.16269z"/>
  <path d="m35.237 34.962c0.08134 0 0.17896-0.06508 0.20065-0.17354l0.1898-0.88395c0.03796-0.17896 0.08677-0.34165 0.20065-0.49349 0.28742-0.38503 0.76464-0.85683 1.1171-0.85683 0.16811 0 0.24946 0.141 0.24946 0.4718 0 0.53688-0.18438 1.2256-0.30911 1.7842-0.01627 0.08677 0.05423 0.14642 0.13015 0.14642 0.08677 0 0.15727-0.0705 0.18438-0.15727 0.13558-0.42299 0.32538-1.3937 0.32538-1.8492 0-0.47722-0.14642-0.71584-0.48265-0.71584-0.46096 0-1.0087 0.52061-1.2473 0.86768l0.36334-1.7082c0.01627-0.07592-0.02169-0.16811-0.12473-0.16811-0.09219 0-0.18438 0.08134-0.20065 0.16811l-0.72668 3.4056c-0.01627 0.08135 0.03796 0.16269 0.13015 0.16269z"/>
  <path d="m39.169 34.957c0.3308 0 0.73753-0.17354 0.97072-0.39046 0.03796-0.03254 0.0705-0.08677 0.0705-0.141 0-0.0705-0.04881-0.11388-0.12473-0.11388-0.03796 0-0.08677 0.01627-0.11388 0.04338-0.18438 0.16811-0.50976 0.29826-0.77549 0.29826-0.39588 0-0.72126-0.17896-0.78634-0.53688l1.9035-0.97072c0.11931-0.05965 0.16269-0.11388 0.16269-0.23861 0-0.24946-0.23861-0.65618-0.86768-0.65618-0.81345 0-1.5456 0.86768-1.5456 1.692 0 0.56399 0.39588 1.0141 1.1063 1.0141zm-0.79718-1.1334c0-0.22234 0.141-0.56942 0.31996-0.79718 0.22234-0.28742 0.53145-0.4718 0.88395-0.4718 0.36334 0 0.55315 0.13558 0.58568 0.38503z"/>
  <path d="m42.911 34.962c0.08134 0 0.17896-0.0705 0.20065-0.15727l0.47722-2.2451h0.61822c0.10304 0 0.20065-0.08677 0.20065-0.18438 0-0.07592-0.04881-0.13015-0.13015-0.13015h-0.62364l0.15727-0.7538c0.02169-0.07592-0.01627-0.16811-0.12473-0.16811-0.08677 0-0.18438 0.08134-0.20065 0.16811l-0.15727 0.7538h-0.60738c-0.10846 0-0.2115 0.07592-0.2115 0.18438 0 0.08134 0.05965 0.13015 0.13015 0.13015h0.62364l-0.48265 2.2397c-0.01627 0.08135 0.02712 0.16269 0.13015 0.16269z"/>
  <path d="m45.319 34.957c0.3308 0 0.73753-0.17354 0.97072-0.39046 0.03796-0.03254 0.0705-0.08677 0.0705-0.141 0-0.0705-0.04881-0.11388-0.12473-0.11388-0.03796 0-0.08677 0.01627-0.11388 0.04338-0.18438 0.16811-0.50976 0.29826-0.77549 0.29826-0.39588 0-0.72126-0.17896-0.78634-0.53688l1.9035-0.97072c0.11931-0.05965 0.16269-0.11388 0.16269-0.23861 0-0.24946-0.23861-0.65618-0.86768-0.65618-0.81345 0-1.5456 0.86768-1.5456 1.692 0 0.56399 0.39588 1.0141 1.1063 1.0141zm-0.79718-1.1334c0-0.22234 0.141-0.56942 0.31996-0.79718 0.22234-0.28742 0.53145-0.4718 0.88395-0.4718 0.36334 0 0.55315 0.13558 0.58568 0.38503z"/>
  <path d="m47.032 34.957c0.08134 0 0.17354-0.0705 0.19523-0.15184l0.2603-1.2202c0.03796-0.17354 0.16811-0.4013 0.34165-0.58568 0.2115-0.21692 0.49892-0.44469 0.74837-0.44469 0.11931 0 0.15184 0.05423 0.15184 0.11931 0 0.0705-0.03254 0.15727-0.04338 0.20607-0.0054 0.04881 0.02169 0.13015 0.12473 0.13015 0.09219 0 0.17354-0.06508 0.19523-0.15184 0.02169-0.09761 0.05423-0.2115 0.05423-0.30369 0-0.16269-0.09219-0.31996-0.36876-0.31996-0.36876 0-0.79718 0.30369-1.0466 0.63991l0.09761-0.46638c0.01627-0.08134-0.03796-0.15727-0.13558-0.15727-0.08135 0-0.17896 0.0705-0.19523 0.15727l-0.51518 2.397c-0.01627 0.08134 0.05965 0.15184 0.13558 0.15184z"/>
  <path d="m49.185 34.957c0.08677 0 0.17896-0.0705 0.19523-0.15727l0.16811-0.80803c0.09761-0.43384 0.18438-0.61822 0.44469-0.8948 0.24946-0.27115 0.59653-0.5423 0.85683-0.5423 0.30369 0 0.39046 0.19523 0.29284 0.66161l-0.33623 1.5835c-0.01627 0.08677 0.04338 0.15727 0.13015 0.15727 0.09219 0 0.17896-0.0705 0.19523-0.15727l0.2603-1.2419c0.13558-0.62364 0.77549-1.0033 1.0683-1.0033 0.28742 0 0.4013 0.1898 0.29826 0.66161l-0.3308 1.5835c-0.02169 0.08677 0.03796 0.15727 0.12473 0.15727 0.08677 0 0.17896-0.0705 0.20065-0.15727l0.32538-1.5456c0.15184-0.72668-0.09761-1.0033-0.51518-1.0033-0.282 0-0.67788 0.15727-1.0575 0.61822 0-0.49349-0.282-0.61822-0.54772-0.61822-0.36876 0-0.86768 0.3308-1.2039 0.80803l0.13558-0.64534c0.01627-0.08677-0.03796-0.16269-0.13015-0.16269-0.08677 0-0.17896 0.07592-0.19523 0.16269l-0.50976 2.3861c-0.01627 0.08677 0.04338 0.15727 0.13015 0.15727z"/>
  <path d="m54.386 31.811c0.08134 0 0.17354-0.06508 0.19523-0.16269l0.04881-0.21692c0.02169-0.08135-0.02711-0.16269-0.11931-0.16269-0.08677 0-0.17354 0.0705-0.19523 0.15727l-0.05423 0.21692c-0.02169 0.09761 0.04881 0.16811 0.12473 0.16811zm-0.69957 3.1453c0.09761 0 0.17896-0.07592 0.20065-0.16811l0.53145-2.3482c0.02711-0.09219-0.03254-0.17354-0.13015-0.17354-0.09761 0-0.17896 0.07592-0.20607 0.16811l-0.53145 2.3536c-0.01627 0.07592 0.03254 0.16811 0.13558 0.16811z"/>
  <path d="m54.912 34.957c0.09219 0 0.17354-0.07592 0.1898-0.17354l0.10846-0.48265c0.08677-0.39046 0.26573-0.76464 0.61822-1.2039 0.26573-0.3308 0.55315-0.5423 0.79718-0.5423 0.3525 0 0.47722 0.1898 0.26573 1.1714-0.13015 0.60195-0.17354 0.8243-0.22234 1.0683-0.01627 0.08677 0.03796 0.16269 0.12473 0.16269 0.09219 0 0.16811-0.07592 0.18438-0.16811 0.04881-0.24404 0.10304-0.46638 0.25488-1.1714 0.20607-0.95987 0.03796-1.3666-0.51518-1.3666-0.44469 0-0.93818 0.37419-1.2907 1.0412l0.1898-0.88937c0.02169-0.08677-0.04338-0.15727-0.13015-0.15727-0.08677 0-0.17354 0.0705-0.20065 0.15727l-0.50976 2.4024c-0.01627 0.08134 0.04881 0.15184 0.13558 0.15184z"/>
  <path d="m58.621 34.957c0.29284 0 0.59653-0.13015 0.8243-0.29284l-0.03796 0.16811c-0.02169 0.09761 0.02712 0.16811 0.12473 0.16811 0.08677 0 0.17354-0.06508 0.20065-0.17354l0.49892-2.3536c-0.07592-0.04338-0.37419-0.22234-0.77549-0.22234-0.92191 0-1.6594 1.0304-1.6594 1.8547 0 0.52061 0.3308 0.85141 0.8243 0.85141zm0.05965-0.30369c-0.34165 0-0.54772-0.17354-0.54772-0.60738 0-0.71584 0.63991-1.4859 1.2744-1.4859 0.17896 0 0.37419 0.06508 0.46638 0.10846l-0.37419 1.6649c-0.15184 0.11931-0.49892 0.31996-0.81887 0.31996z"/>
  <path d="m60.704 34.957c0.08134 0 0.17354-0.06508 0.19523-0.14642l0.72126-3.4273c0.02169-0.08677-0.03796-0.15727-0.12473-0.15727-0.09219 0-0.17896 0.0705-0.20065 0.15727l-0.72668 3.4165c-0.02169 0.09219 0.05423 0.15727 0.13558 0.15727z"/>
  <path d="m64.267 34.957c0.56942 0 1.0683-0.43384 1.0683-0.92191 0-0.3308-0.2115-0.46638-0.69414-0.63991-0.36334-0.13015-0.53145-0.22777-0.53145-0.43384 0-0.24404 0.27115-0.42299 0.71041-0.42299 0.33623 0 0.47722 0.09761 0.47722 0.25488 0 0.11931-0.05423 0.141-0.05423 0.21692 0 0.06508 0.05965 0.11388 0.13558 0.11388 0.15727 0 0.23319-0.21692 0.23319-0.38503 0-0.30369-0.25488-0.48807-0.78634-0.48807-0.63449 0-1.0249 0.34165-1.0249 0.76464 0 0.33623 0.22234 0.51518 0.6833 0.66703 0.40672 0.141 0.53145 0.23861 0.53145 0.40672 0 0.29826-0.31996 0.56942-0.68872 0.56942-0.39588 0-0.60195-0.15184-0.63991-0.46096-0.01085-0.0705-0.05423-0.10846-0.12473-0.10846-0.10304 0-0.19523 0.10304-0.19523 0.2115 0 0.24404 0.2603 0.65618 0.90022 0.65618z"/>
  <path d="m66.707 34.957c0.85683 0 1.5998-0.91106 1.5998-1.7571 0-0.5423-0.3308-0.95445-0.85683-0.95445-0.85683 0-1.6052 0.91106-1.6052 1.7571 0 0.54772 0.33623 0.95445 0.86226 0.95445zm0.08134-0.282c-0.4013 0-0.61822-0.282-0.61822-0.71041 0-0.66703 0.58026-1.4371 1.1931-1.4371 0.4013 0 0.61822 0.28742 0.61822 0.71584 0 0.66703-0.58026 1.4317-1.1931 1.4317z"/>
  <path d="m71.322 34.957c0.29284 0 0.59653-0.13015 0.8243-0.29284l-0.03796 0.16811c-0.02169 0.09761 0.02711 0.16811 0.12473 0.16811 0.08677 0 0.17354-0.06508 0.20065-0.17354l0.49892-2.3536c-0.07592-0.04338-0.37419-0.22234-0.77549-0.22234-0.92191 0-1.6594 1.0304-1.6594 1.8547 0 0.52061 0.3308 0.85141 0.8243 0.85141zm0.05965-0.30369c-0.34165 0-0.54772-0.17354-0.54772-0.60738 0-0.71584 0.63991-1.4859 1.2744-1.4859 0.17896 0 0.37419 0.06508 0.46638 0.10846l-0.37419 1.6649c-0.15184 0.11931-0.49892 0.31996-0.81887 0.31996z"/>
  <path d="m73.404 34.957c0.08134 0 0.17354-0.06508 0.19523-0.14642l0.72126-3.4273c0.02169-0.08677-0.03796-0.15727-0.12473-0.15727-0.09219 0-0.17896 0.0705-0.20065 0.15727l-0.72668 3.4165c-0.02169 0.09219 0.05423 0.15727 0.13558 0.15727z"/>
  <path d="m74.592 34.957c0.08134 0 0.17354-0.06508 0.19523-0.14642l0.72126-3.4273c0.02169-0.08677-0.03796-0.15727-0.12473-0.15727-0.09219 0-0.17896 0.0705-0.20065 0.15727l-0.72668 3.4165c-0.02169 0.09219 0.05423 0.15727 0.13558 0.15727z"/>
  <path d="m77.802 34.962c0.08134 0 0.17896-0.0705 0.20065-0.15727l0.47722-2.2451h0.61822c0.10304 0 0.20065-0.08677 0.20065-0.18438 0-0.07592-0.04881-0.13015-0.13015-0.13015h-0.62364l0.15727-0.7538c0.02169-0.07592-0.01627-0.16811-0.12473-0.16811-0.08677 0-0.18438 0.08134-0.20065 0.16811l-0.15727 0.7538h-0.60738c-0.10846 0-0.2115 0.07592-0.2115 0.18438 0 0.08134 0.05965 0.13015 0.13015 0.13015h0.62364l-0.48265 2.2397c-0.01627 0.08135 0.02712 0.16269 0.13015 0.16269z"/>
  <path d="m79.294 34.962c0.08134 0 0.17896-0.06508 0.20065-0.17354l0.1898-0.88395c0.03796-0.17896 0.08677-0.34165 0.20065-0.49349 0.28742-0.38503 0.76464-0.85683 1.1171-0.85683 0.16811 0 0.24946 0.141 0.24946 0.4718 0 0.53688-0.18438 1.2256-0.30911 1.7842-0.01627 0.08677 0.05423 0.14642 0.13015 0.14642 0.08677 0 0.15727-0.0705 0.18438-0.15727 0.13558-0.42299 0.32538-1.3937 0.32538-1.8492 0-0.47722-0.14642-0.71584-0.48265-0.71584-0.46096 0-1.0087 0.52061-1.2473 0.86768l0.36334-1.7082c0.01627-0.07592-0.02169-0.16811-0.12473-0.16811-0.09219 0-0.18438 0.08134-0.20065 0.16811l-0.72668 3.4056c-0.01627 0.08135 0.03796 0.16269 0.13015 0.16269z"/>
  <path d="m83.225 34.957c0.3308 0 0.73753-0.17354 0.97072-0.39046 0.03796-0.03254 0.0705-0.08677 0.0705-0.141 0-0.0705-0.04881-0.11388-0.12473-0.11388-0.03796 0-0.08677 0.01627-0.11388 0.04338-0.18438 0.16811-0.50976 0.29826-0.77549 0.29826-0.39588 0-0.72126-0.17896-0.78634-0.53688l1.9035-0.97072c0.11931-0.05965 0.16269-0.11388 0.16269-0.23861 0-0.24946-0.23861-0.65618-0.86768-0.65618-0.81345 0-1.5456 0.86768-1.5456 1.692 0 0.56399 0.39588 1.0141 1.1063 1.0141zm-0.79718-1.1334c0-0.22234 0.141-0.56942 0.31996-0.79718 0.22234-0.28742 0.53145-0.4718 0.88395-0.4718 0.36334 0 0.55315 0.13558 0.58568 0.38503z"/>
  <path d="m86.75 34.957c0.08134 0 0.17354-0.06508 0.19523-0.14642l0.72126-3.4273c0.02169-0.08677-0.03796-0.15727-0.12473-0.15727-0.09219 0-0.17896 0.0705-0.20065 0.15727l-0.72668 3.4165c-0.02169 0.09219 0.05423 0.15727 0.13558 0.15727z"/>
  <path d="m88.947 34.957c0.3308 0 0.73753-0.17354 0.97072-0.39046 0.03796-0.03254 0.0705-0.08677 0.0705-0.141 0-0.0705-0.04881-0.11388-0.12473-0.11388-0.03796 0-0.08677 0.01627-0.11388 0.04338-0.18438 0.16811-0.50976 0.29826-0.77549 0.29826-0.39588 0-0.72126-0.17896-0.78634-0.53688l1.9035-0.97072c0.11931-0.05965 0.16269-0.11388 0.16269-0.23861 0-0.24946-0.23861-0.65618-0.86768-0.65618-0.81345 0-1.5456 0.86768-1.5456 1.692 0 0.56399 0.39588 1.0141 1.1063 1.0141zm-0.79718-1.1334c0-0.22234 0.141-0.56942 0.31996-0.79718 0.22234-0.28742 0.53145-0.4718 0.88395-0.4718 0.36334 0 0.55315 0.13558 0.58568 0.38503z"/>
  <path d="m90.883 34.962c0.08134 0 0.17896-0.0705 0.20065-0.15727l0.47722-2.2451h0.61822c0.10304 0 0.20065-0.08677 0.20065-0.18438 0-0.07592-0.04881-0.13015-0.13015-0.13015h-0.62364l0.15727-0.7538c0.02169-0.07592-0.01627-0.16811-0.12473-0.16811-0.08677 0-0.18438 0.08134-0.20065 0.16811l-0.15727 0.7538h-0.60738c-0.10846 0-0.2115 0.07592-0.2115 0.18438 0 0.08134 0.05965 0.13015 0.13015 0.13015h0.62364l-0.48265 2.2397c-0.01627 0.08135 0.02712 0.16269 0.13015 0.16269z"/>
  <path d="m92.596 34.962c0.08134 0 0.17896-0.0705 0.20065-0.15727l0.47722-2.2451h0.61822c0.10304 0 0.20065-0.08677 0.20065-0.18438 0-0.07592-0.04881-0.13015-0.13015-0.13015h-0.62364l0.15727-0.7538c0.02169-0.07592-0.01627-0.16811-0.12473-0.16811-0.08677 0-0.18438 0.08134-0.20065 0.16811l-0.15727 0.7538h-0.60738c-0.10846 0-0.2115 0.07592-0.2115 0.18438 0 0.08134 0.05965 0.13015 0.13015 0.13015h0.62364l-0.48265 2.2397c-0.01627 0.08135 0.02711 0.16269 0.13015 0.16269z"/>
  <path d="m95.004 34.957c0.3308 0 0.73753-0.17354 0.97072-0.39046 0.03796-0.03254 0.0705-0.08677 0.0705-0.141 0-0.0705-0.04881-0.11388-0.12473-0.11388-0.03796 0-0.08677 0.01627-0.11388 0.04338-0.18438 0.16811-0.50976 0.29826-0.77549 0.29826-0.39588 0-0.72126-0.17896-0.78634-0.53688l1.9035-0.97072c0.11931-0.05965 0.16269-0.11388 0.16269-0.23861 0-0.24946-0.23861-0.65618-0.86768-0.65618-0.81345 0-1.5456 0.86768-1.5456 1.692 0 0.56399 0.39588 1.0141 1.1063 1.0141zm-0.79718-1.1334c0-0.22234 0.141-0.56942 0.31996-0.79718 0.22234-0.28742 0.53145-0.4718 0.88395-0.4718 0.36334 0 0.55315 0.13558 0.58568 0.38503z"/>
  <path d="m96.718 34.957c0.08134 0 0.17354-0.0705 0.19523-0.15184l0.2603-1.2202c0.03796-0.17354 0.16811-0.4013 0.34165-0.58568 0.2115-0.21692 0.49892-0.44469 0.74837-0.44469 0.11931 0 0.15184 0.05423 0.15184 0.11931 0 0.0705-0.03254 0.15727-0.04338 0.20607-0.0054 0.04881 0.02169 0.13015 0.12473 0.13015 0.09219 0 0.17354-0.06508 0.19523-0.15184 0.02169-0.09761 0.05423-0.2115 0.05423-0.30369 0-0.16269-0.09219-0.31996-0.36876-0.31996-0.36876 0-0.79718 0.30369-1.0466 0.63991l0.09761-0.46638c0.01627-0.08134-0.03796-0.15727-0.13558-0.15727-0.08134 0-0.17896 0.0705-0.19523 0.15727l-0.51518 2.397c-0.01627 0.08134 0.05965 0.15184 0.13558 0.15184z"/>
  <path d="m99.445 34.957c0.56942 0 1.0683-0.43384 1.0683-0.92191 0-0.3308-0.2115-0.46638-0.69415-0.63991-0.36334-0.13015-0.53145-0.22777-0.53145-0.43384 0-0.24404 0.27115-0.42299 0.71041-0.42299 0.33623 0 0.47722 0.09761 0.47722 0.25488 0 0.11931-0.0542 0.141-0.0542 0.21692 0 0.06508 0.0597 0.11388 0.13558 0.11388 0.15727 0 0.23319-0.21692 0.23319-0.38503 0-0.30369-0.25488-0.48807-0.78634-0.48807-0.63449 0-1.0249 0.34165-1.0249 0.76464 0 0.33623 0.22234 0.51518 0.6833 0.66703 0.40672 0.141 0.53146 0.23861 0.53146 0.40672 0 0.29826-0.31996 0.56942-0.68872 0.56942-0.39588 0-0.60195-0.15184-0.63991-0.46096-0.01085-0.0705-0.05423-0.10846-0.12473-0.10846-0.10304 0-0.19523 0.10304-0.19523 0.2115 0 0.24404 0.2603 0.65618 0.90022 0.65618z"/>
  <path d="m24.299 40.606c0.08134 0 0.17354-0.06508 0.19523-0.14642l0.72126-3.4273c0.02169-0.08677-0.03796-0.15727-0.12473-0.15727-0.09219 0-0.17896 0.0705-0.20065 0.15727l-0.72668 3.4165c-0.02169 0.09219 0.05423 0.15727 0.13558 0.15727z"/>
  <path d="m26.246 40.606c0.85683 0 1.5998-0.91106 1.5998-1.7571 0-0.5423-0.3308-0.95445-0.85683-0.95445-0.85683 0-1.6052 0.91106-1.6052 1.7571 0 0.54772 0.33623 0.95445 0.86226 0.95445zm0.08134-0.282c-0.4013 0-0.61822-0.282-0.61822-0.71041 0-0.66703 0.58026-1.4371 1.1931-1.4371 0.4013 0 0.61822 0.28742 0.61822 0.71584 0 0.66703-0.58026 1.4317-1.1931 1.4317z"/>
  <path d="m29.115 40.606c0.85683 0 1.5998-0.91106 1.5998-1.7571 0-0.5423-0.3308-0.95445-0.85683-0.95445-0.85683 0-1.6052 0.91106-1.6052 1.7571 0 0.54772 0.33623 0.95445 0.86226 0.95445zm0.08134-0.282c-0.4013 0-0.61822-0.282-0.61822-0.71041 0-0.66703 0.58026-1.4371 1.1931-1.4371 0.4013 0 0.61822 0.28742 0.61822 0.71584 0 0.66703-0.58026 1.4317-1.1931 1.4317z"/>
  <path d="m31.235 40.606c0.08677 0 0.17354-0.07592 0.19523-0.16269l0.19523-0.92733c0.13015-0.0705 0.32538-0.17896 0.55315-0.33623 0.13015 0.2115 0.53688 0.90564 0.74295 1.3015 0.03796 0.07592 0.08134 0.10846 0.15727 0.10846 0.09219 0 0.18438-0.08134 0.18438-0.17896 0-0.03796-0.01085-0.0705-0.05423-0.141-0.16811-0.30369-0.63991-1.09-0.74295-1.2744 0.27115-0.20607 0.79176-0.63991 1.0792-0.9436 0.03796-0.03254 0.0705-0.08134 0.0705-0.13558 0-0.06508-0.05423-0.11931-0.13015-0.11931-0.05423 0-0.10846 0.02712-0.15184 0.0705-0.50976 0.52603-1.2961 1.128-1.6486 1.3341l0.45553-2.1584c0.02169-0.07592-0.02169-0.16811-0.12473-0.16811-0.08135 0-0.18438 0.0705-0.20065 0.15727l-0.71584 3.4111c-0.01627 0.08677 0.04881 0.16269 0.13558 0.16269z"/>
  <path d="m35.666 40.606c0.08134 0 0.17354-0.06508 0.19523-0.14642l0.72126-3.4273c0.02169-0.08677-0.03796-0.15727-0.12473-0.15727-0.09219 0-0.17896 0.0705-0.20065 0.15727l-0.72668 3.4165c-0.02169 0.09219 0.05423 0.15727 0.13558 0.15727z"/>
  <path d="m37.553 37.46c0.08134 0 0.17354-0.06508 0.19523-0.16269l0.04881-0.21692c0.02169-0.08134-0.02712-0.16269-0.11931-0.16269-0.08677 0-0.17354 0.0705-0.19523 0.15727l-0.05423 0.21692c-0.02169 0.09761 0.04881 0.16811 0.12473 0.16811zm-0.69957 3.1453c0.09761 0 0.17896-0.07592 0.20065-0.16811l0.53145-2.3482c0.02712-0.09219-0.03254-0.17354-0.13015-0.17354-0.09761 0-0.17896 0.07592-0.20607 0.16811l-0.53145 2.3536c-0.01627 0.07592 0.03254 0.16811 0.13558 0.16811z"/>
  <path d="m38.09 40.606c0.08677 0 0.17354-0.07592 0.19523-0.16269l0.19523-0.92733c0.13015-0.0705 0.32538-0.17896 0.55315-0.33623 0.13015 0.2115 0.53688 0.90564 0.74295 1.3015 0.03796 0.07592 0.08134 0.10846 0.15727 0.10846 0.09219 0 0.18438-0.08134 0.18438-0.17896 0-0.03796-0.01085-0.0705-0.05423-0.141-0.16811-0.30369-0.63991-1.09-0.74295-1.2744 0.27115-0.20607 0.79176-0.63991 1.0792-0.9436 0.03796-0.03254 0.0705-0.08134 0.0705-0.13558 0-0.06508-0.05423-0.11931-0.13015-0.11931-0.05423 0-0.10846 0.02712-0.15184 0.0705-0.50976 0.52603-1.2961 1.128-1.6486 1.3341l0.45553-2.1584c0.02169-0.07592-0.02169-0.16811-0.12473-0.16811-0.08134 0-0.18438 0.0705-0.20065 0.15727l-0.71584 3.4111c-0.01627 0.08677 0.04881 0.16269 0.13558 0.16269z"/>
  <path d="m41.723 40.606c0.3308 0 0.73753-0.17354 0.97072-0.39046 0.03796-0.03254 0.0705-0.08677 0.0705-0.141 0-0.0705-0.04881-0.11388-0.12473-0.11388-0.03796 0-0.08677 0.01627-0.11388 0.04338-0.18438 0.16811-0.50976 0.29826-0.77549 0.29826-0.39588 0-0.72126-0.17896-0.78634-0.53688l1.9035-0.97072c0.11931-0.05965 0.16269-0.11388 0.16269-0.23861 0-0.24946-0.23861-0.65618-0.86768-0.65618-0.81345 0-1.5456 0.86768-1.5456 1.692 0 0.56399 0.39588 1.0141 1.1063 1.0141zm-0.79718-1.1334c0-0.22234 0.141-0.56942 0.31996-0.79718 0.22234-0.28742 0.53145-0.4718 0.88395-0.4718 0.36334 0 0.55315 0.13558 0.58568 0.38503z"/>
  <path d="m45.893 40.606c0.36334 0 0.74295-0.23319 0.95445-0.42299l-0.06508 0.23319c-0.02169 0.0705 0.01085 0.1898 0.12473 0.1898 0.09219 0 0.17896-0.06508 0.20607-0.15727l0.80803-3.4382c0.02169-0.09219-0.03796-0.17354-0.12473-0.17354-0.09219 0-0.18438 0.07592-0.20607 0.16811l-0.2603 1.1009c-0.15184-0.09761-0.39046-0.20065-0.68872-0.20065-0.87853 0-1.5184 0.88395-1.5184 1.8655 0 0.53688 0.30911 0.83514 0.77007 0.83514zm0.03796-0.30911c-0.29826 0-0.48265-0.1898-0.48265-0.57484 0-0.77549 0.45553-1.5022 1.1388-1.5022 0.30911 0 0.57484 0.141 0.66703 0.20065l-0.282 1.2148c-0.05965 0.25488-0.51518 0.66161-1.0412 0.66161z"/>
  <path d="m48.887 40.606c0.85683 0 1.5998-0.91106 1.5998-1.7571 0-0.5423-0.3308-0.95445-0.85683-0.95445-0.85683 0-1.6052 0.91106-1.6052 1.7571 0 0.54772 0.33623 0.95445 0.86226 0.95445zm0.08134-0.282c-0.4013 0-0.61822-0.282-0.61822-0.71041 0-0.66703 0.58026-1.4371 1.1931-1.4371 0.4013 0 0.61822 0.28742 0.61822 0.71584 0 0.66703-0.58026 1.4317-1.1931 1.4317z"/>
  <path d="m51.213 40.611c0.08134 0 0.17896-0.0705 0.20065-0.15727l0.47722-2.2451h0.61822c0.10304 0 0.20065-0.08677 0.20065-0.18438 0-0.07592-0.04881-0.13015-0.13015-0.13015h-0.62364l0.15727-0.7538c0.02169-0.07592-0.01627-0.16811-0.12473-0.16811-0.08677 0-0.18438 0.08134-0.20065 0.16811l-0.15727 0.7538h-0.60738c-0.10846 0-0.2115 0.07592-0.2115 0.18438 0 0.08134 0.05965 0.13015 0.13015 0.13015h0.62364l-0.48265 2.2397c-0.01627 0.08134 0.02712 0.16269 0.13015 0.16269z"/>
  <path d="m53.28 40.606c0.56942 0 1.0683-0.43384 1.0683-0.92191 0-0.3308-0.2115-0.46638-0.69414-0.63991-0.36334-0.13015-0.53145-0.22777-0.53145-0.43384 0-0.24404 0.27115-0.42299 0.71041-0.42299 0.33623 0 0.47722 0.09761 0.47722 0.25488 0 0.11931-0.05423 0.141-0.05423 0.21692 0 0.06508 0.05965 0.11388 0.13558 0.11388 0.15727 0 0.23319-0.21692 0.23319-0.38503 0-0.30369-0.25488-0.48807-0.78634-0.48807-0.63449 0-1.0249 0.34165-1.0249 0.76464 0 0.33623 0.22234 0.51518 0.6833 0.66703 0.40672 0.141 0.53145 0.23861 0.53145 0.40672 0 0.29826-0.31996 0.56942-0.68872 0.56942-0.39588 0-0.60195-0.15184-0.63991-0.46096-0.01085-0.0705-0.05423-0.10846-0.12473-0.10846-0.10304 0-0.19523 0.10304-0.19523 0.2115 0 0.24404 0.2603 0.65618 0.90022 0.65618z"/>
  <path d="m54.744 40.573c0.14642 0 0.282-0.16811 0.282-0.31453 0-0.09219-0.05965-0.15727-0.14642-0.15727-0.12473 0-0.282 0.15184-0.282 0.30911 0 0.09219 0.05965 0.16269 0.14642 0.16269z"/>
 </g>
 <g stroke-width="3.08">
  <g transform="rotate(-4.45 112.76 60.893)" fill="#1db7ff">
   <rect x="103.69" y="18.951" width="21.074" height="8.264" rx="2" ry="2" fill-opacity=".679" paint-order="stroke fill markers"/>
   <path d="M119.11 18.951v8.264h3.658c1.108 0 2-.892 2-2V20.95c0-1.108-.892-2-2-2z" paint-order="stroke fill markers"/>
  </g>
  <g transform="rotate(3.513 112.76 8.185)" fill="#ff1d1d" fill-opacity=".84">
   <rect x="103.69" y="51.956" width="21.074" height="8.264" rx="2" ry="2" paint-order="stroke fill markers"/>
   <path d="M119.11 51.955v8.264h3.658c1.108 0 2-.892 2-2v-4.264c0-1.108-.892-2-2-2z" paint-order="stroke fill markers"/>
  </g>
  <g transform="rotate(-2.275 112.76 154.72)" fill="#1fff1d" fill-opacity=".84">
   <rect x="103.69" y="76.581" width="21.074" height="8.264" rx="2" ry="2" paint-order="stroke fill markers"/>
   <path d="M119.11 76.581v8.264h3.658c1.108 0 2-.892 2-2V78.58c0-1.108-.892-2-2-2z" paint-order="stroke fill markers"/>
  </g>
 </g>
 <path d="M33.942 105.71a1.49 1.49 0 0 0-.346.009l-9.748 1.35 12.955 13.277-1.306-12.877c-.098-.963-.76-1.68-1.555-1.758z" fill="#d39f00" stroke-linecap="round" stroke-linejoin="round" stroke-width=".925" paint-order="stroke fill markers"/>
</svg>
