<?xml version='1.0' encoding='UTF-8'?>
<svg xmlns="http://www.w3.org/2000/svg" version="1.1" id="svg2100" viewBox="0 0 128 128">
  <defs id="defs2104"/>
  <g transform="matrix(5.71429,0,0,7.05882,-18.857205,-24.23525)" id="g4" style="clip-rule:evenodd;fill:#40c0e7;fill-rule:evenodd;stroke-linejoin:round;stroke-miterlimit:2">
    <path d="M 25,6.267 C 25,5.016 23.745,4 22.2,4 H 6.8 C 5.255,4 4,5.016 4,6.267 V 18.733 C 4,19.984 5.255,21 6.8,21 h 15.4 c 1.545,0 2.8,-1.016 2.8,-2.267 z" style="fill:#40c0e7" id="path2"/>
  </g>
  <g transform="translate(-2.273514,1.047149)" id="g12" style="clip-rule:evenodd;fill:#94e0f1;fill-rule:evenodd;stroke-linejoin:round;stroke-miterlimit:2">
    <path d="M 30.915,7.958 C 25.554,8.085 15,8 12.066,18.857 c -0.581,2.15 -1.578,5.57 0.285,7.423 1.433,1.425 3.932,0.985 5.373,-0.162 1.534,-1.221 2.286,-3.205 3.245,-4.857 1.114,-1.917 2.599,-3.655 4.34,-5.034 1.627,-1.289 3.482,-2.052 5.444,-2.683 1.362,-0.438 3.297,-0.632 3.969,-1.979 C 36,9 32.576,7.869 30.915,7.958 Z" style="fill:#94e0f1" id="path10"/>
  </g>
  <g aria-label="FREE" transform="scale(0.80489688,1.2423952)" id="text2098" style="line-height:40.7721;fill:#ffffff">
    <path d="m 9.2223145,73.791242 c 1.8265885,0 3.2617645,-1.435177 3.2617645,-3.261765 V 53.894476 h 17.35259 c 1.826588,0 3.196529,-1.500412 3.196529,-3.19653 0,-1.826588 -1.369941,-3.327 -3.196529,-3.327 H 12.484079 V 36.150475 h 22.767119 c 1.826589,0 3.19653,-1.565647 3.19653,-3.261765 0,-1.826588 -1.369941,-3.261765 -3.19653,-3.261765 H 9.2223145 c -1.8265884,0 -3.2617649,1.435177 -3.2617649,3.261765 v 37.640767 c 0,1.826588 1.4351765,3.261765 3.2617649,3.261765 z" style="stroke-width:1.00001" id="path11"/>
    <path d="m 47.058748,73.726007 c 1.696117,0 3.196529,-1.369942 3.196529,-3.19653 V 58.721888 c 1.565647,-0.260941 3.131295,-0.391412 4.370765,-0.391412 2.283236,0 7.306354,0.782824 15.395531,13.699413 0.652353,1.043765 1.630882,1.696118 2.870353,1.696118 1.957059,0 3.196529,-1.565648 3.196529,-3.19653 0,-0.456647 -0.06524,-0.97853 -0.326176,-1.500412 -3.261765,-6.52353 -7.763001,-10.829059 -10.82906,-13.242765 5.153589,-2.283236 9.654825,-6.066883 9.654825,-12.655648 0,-8.806766 -8.219648,-13.895119 -22.832355,-13.895119 h -2.674647 c -4.501236,0 -5.218824,0.587118 -5.218824,3.914118 v 37.379826 c 0,1.826588 1.369941,3.19653 3.19653,3.19653 z M 50.255277,52.720241 V 35.498122 h 1.304706 c 10.437648,0 16.569766,2.609412 16.569766,7.63253 0,6.262588 -9.915765,9.067706 -17.874472,9.589589 z" style="stroke-width:1.00001" id="path13"/>
    <path d="m 85.156175,73.334595 h 25.898415 c 1.82659,0 3.19653,-1.435177 3.19653,-3.261765 0,-1.826589 -1.36994,-3.261765 -3.19653,-3.261765 H 88.352705 V 53.829241 h 19.831535 c 1.82658,0 3.19653,-1.435177 3.19653,-3.261765 0,-1.826589 -1.36995,-3.19653 -3.19653,-3.19653 H 88.352705 V 36.150475 h 22.832355 c 1.82659,0 3.19653,-1.500412 3.19653,-3.261765 0,-1.826588 -1.36994,-3.261765 -3.19653,-3.261765 H 85.156175 c -1.826588,0 -3.261765,1.435177 -3.261765,3.261765 v 37.18412 c 0,1.826588 1.435177,3.261765 3.261765,3.261765 z" style="stroke-width:1.00001" id="path15"/>
    <path d="m 123.84074,73.334595 h 25.89841 c 1.82659,0 3.19653,-1.435177 3.19653,-3.261765 0,-1.826589 -1.36994,-3.261765 -3.19653,-3.261765 H 127.03727 V 53.829241 h 19.83153 c 1.82659,0 3.19653,-1.435177 3.19653,-3.261765 0,-1.826589 -1.36994,-3.19653 -3.19653,-3.19653 H 127.03727 V 36.150475 h 22.83235 c 1.82659,0 3.19653,-1.500412 3.19653,-3.261765 0,-1.826588 -1.36994,-3.261765 -3.19653,-3.261765 h -26.02888 c -1.82659,0 -3.26177,1.435177 -3.26177,3.261765 v 37.18412 c 0,1.826588 1.43518,3.261765 3.26177,3.261765 z" style="stroke-width:1.00001" id="path17"/>
  </g>
</svg>
