<?xml version='1.0' encoding='utf-8'?>
<svg xmlns="http://www.w3.org/2000/svg" width="128" height="128" version="1.1" id="svg6" viewBox="0 0 128 128">
  <defs id="defs10" />
  <g aria-label="K" id="text4" style="line-height:1.25;fill:#40c0e7">
    <path d="m 98.320022,120.08 c 4.319998,0 7.839998,-3.36 7.839998,-7.84 0,-2.4 -0.8,-4.48 -3.04,-6.24 l -51.039998,-39.840001 48.319998,-41.44 c 2.24,-1.92 2.72,-3.84 2.72,-5.92 0,-4 -3.679998,-8 -7.679998,-8 -1.92,0 -3.84,0.8 -5.12,1.92 l -43.68,37.44 v -31.36 c 0,-4.48 -3.68,-7.84 -7.84,-7.84 -4.32,0 -7.84,3.36 -7.84,7.84 V 112.08 c 0,4.16 3.52,7.84 7.84,7.84 4.16,0 7.84,-3.68 7.84,-7.84 V 81.839999 l 46.88,36.640001 c 1.28,0.96 2.72,1.6 4.8,1.6 z" style="text-align:center;text-anchor:middle" id="path12" />
  </g>
</svg>