<?xml version='1.0' encoding='UTF-8'?>
<svg xmlns="http://www.w3.org/2000/svg" version="1.1" viewBox="0 0 121.49 121.49">
 <g transform="matrix(1.113 0 0 1.113 -3.255 -3.2586)">
  <g transform="translate(-182.5,-122.5)">
   <g stroke-miterlimit="10" data-paper-data="{&quot;isPaintingLayer&quot;:true}">
    <path d="m278.25 163.51c-2.1554 2.784-50.112 63.044-53.165 66.996-2.8738 3.6821-22.092 7.0947-23.978-0.35923-0.35923-1.1675-0.98787-4.7597-1.4369-7.1845-0.80826-4.7597 5.119-6.8253 5.119-6.8253l0.80826-68.792c-9.1602-3.6821-9.0704-21.643 9.4297-21.913 9.4297-0.0898 14.998 1.2573 21.913 7.3641 3.5922 3.0534 6.1068 7.0947 8.6214 10.507 5.4782 7.3641 12.573 1.7063 18.5 0.53884 14.1-2.6942 19.847 12.663 14.189 19.668zm-14.638-7.0049s-4.2209 1.5267-5.7476 2.0656c-6.9151 2.5146-15.267 1.8859-19.668-1.5267-1.7961-1.4369-9.0704-7.3641-11.585-9.5195-2.2452-1.8859-6.4661-2.4248-7.4539-1.7961-0.53884 0.35923-1.1675 0.62864-1.7063 0.80826l0.26942 56.488c0 0.0898 0.0898 0.17961 0.17961 0.0898 3.1432-2.9636 45.083-42.748 46.43-44.185 1.2573-1.2573 0.17961-2.8738-0.71845-2.4248z" fill="#fca31c"/>
    <path d="m227.57 199.35v-56.351c0-0.65525-1.4561-0.65525-1.4561 0v56.351c0 0.58244 1.4561 0.58244 1.4561 0zm4.6595-6.2612v-47.396c0-0.65525 1.4561-0.65525 1.4561 0v47.396c0 0.58244-1.4561 0.65525-1.4561 0zm5.3876-5.5332v-35.602c0-0.65525 1.4561-0.65525 1.4561 0v35.602c0 0.58244-1.3833 0.58244-1.4561 0zm5.606-5.8972v-25.191c0-0.65525 1.4561-0.65525 1.4561 0v25.191c0 0.58244-1.4561 0.58244-1.4561 0zm5.97-5.97v-17.4c0-0.65525 1.4561-0.65525 1.4561 0v17.328c0 0.58244-1.4561 0.65525-1.4561 0.0728zm5.7516-6.1884v-12.595c0-0.65525 1.4561-0.65525 1.4561 0v12.595c0 0.58244-1.4561 0.58244-1.4561 0z" fill="#6ca4ae"/>
    <g fill="#464c50">
     <path d="m225.02 142.13c0-1.0052 0.8149-1.8201 1.8201-1.8201s1.8201 0.8149 1.8201 1.8201-0.8149 1.8201-1.8201 1.8201-1.8201-0.8149-1.8201-1.8201z"/>
     <path d="m231.21 145.18c0-0.96502 0.7823-1.7473 1.7473-1.7473s1.7473 0.7823 1.7473 1.7473-0.7823 1.7473-1.7473 1.7473-1.7473-0.7823-1.7473-1.7473z"/>
     <path d="m236.67 151.08c0-0.96502 0.7823-1.7473 1.7473-1.7473s1.7473 0.7823 1.7473 1.7473-0.7823 1.7473-1.7473 1.7473-1.7473-0.7823-1.7473-1.7473z"/>
     <path d="m242.35 155.96c0-0.8846 0.71711-1.6017 1.6017-1.6017s1.6017 0.71711 1.6017 1.6017-0.71711 1.6017-1.6017 1.6017-1.6017-0.71711-1.6017-1.6017z"/>
     <path d="m248.39 157.49c0-0.8444 0.68451-1.5289 1.5289-1.5289s1.5289 0.68451 1.5289 1.5289-0.68451 1.5289-1.5289 1.5289-1.5289-0.68451-1.5289-1.5289z"/>
     <path d="m254.14 156.4c0-0.8444 0.68451-1.5289 1.5289-1.5289s1.5289 0.68451 1.5289 1.5289-0.68451 1.5289-1.5289 1.5289-1.5289-0.68451-1.5289-1.5289z"/>
    </g>
   </g>
  </g>
 </g>
</svg>
