<?xml version="1.0" encoding="UTF-8" standalone="no"?>
<svg
   width="128"
   height="128"
   version="1.1"
   id="svg22"
   xmlns:xlink="http://www.w3.org/1999/xlink"
   xmlns="http://www.w3.org/2000/svg"
   xmlns:svg="http://www.w3.org/2000/svg">
  <path
     d="M67.5 41.68c-.51 0-.93-.65-.93-1.44v-6.38c0-.79-.64-1.43-1.43-1.43h-4.49c-.79 0-1.44.65-1.44 1.43v6.38c0 .79-.42 1.44-.93 1.44s-.94.65-.94 1.43v2.54c0 .79.42 1.43.94 1.43h9.23c.51 0 .93-.64.93-1.43v-2.54c0-.78-.42-1.43-.94-1.43z"
     fill="#78a3ad"
     id="path2" />
  <defs
     id="defs5">
    <path
       d="M121.57 79.19c-4.68-4.68-12-6.14-12-6.14s-3.83-9.95-7.06-14.28c-8.78-11.8-19.77-14.44-37.58-14.44-12.31 0-24.53.47-34.54 13.08-3.83 4.83-10.11 15.64-10.11 15.64s-10.01 2.24-15.07 7.88c-3.88 4.32-6.79 18.9-1.67 24.01 4.73 4.73 9.89 7.06 13.32 7.06H112.03c5.17 0 9.52-2.6 12.24-6.96 4.66-7.48 1.97-21.17-2.7-25.85z"
       id="a" />
  </defs>
  <use
     height="100%"
     width="100%"
     xlink:href="#a"
     overflow="visible"
     fill="#fcc21b"
     id="use7" />
  <clipPath
     id="b">
    <use
       height="100%"
       width="100%"
       xlink:href="#a"
       overflow="visible"
       id="use9" />
  </clipPath>
  <path
     clip-path="url(#b)"
     fill="#f79329"
     d="M-4.13 85.07h42.18v14.88H-4.13zM87.7 85.07h42.39v14.88H87.7z"
     id="path12" />
  <path
     d="M40.72 109.71c0 6.24-5.06 11.31-11.3 11.31-6.25 0-11.31-5.06-11.31-11.31 0-6.24 5.06-11.29 11.31-11.29 6.24 0 11.3 5.05 11.3 11.29zM109 109.71c0 6.24-5.07 11.31-11.3 11.31-6.25 0-11.31-5.06-11.31-11.31 0-6.24 5.06-11.29 11.31-11.29 6.23 0 11.3 5.05 11.3 11.29z"
     fill="#2f2f2f"
     id="path14" />
  <path
     d="M58.6 71.35c0 2.85-1.83 3.81-4.08 3.81H38.57c-5.52 0-2.55-8.34 2.84-14.25s13.69-6.38 14.83-6.09c2.2.54 2.36 2.58 2.36 4.81v11.72zM65.49 71.35c0 2.85 2.66 3.81 5.89 3.81H92.4c7.98 0 3.35-11.62-4.76-17.09-5.76-3.88-17.09-3.54-18.74-3.26-3.19.54-3.41 2.58-3.41 4.81v11.73z"
     fill="#40c0e7"
     id="path16" />
  <g
     aria-label="TAXI"
     id="text20"
     style="line-height:1.25;fill:#2f2f2f;stroke-width:0.941">
    <path
       d="m 47.331244,98.527369 c 0.474174,0 0.860538,-0.403926 0.860538,-0.860538 v -9.255174 h 2.774796 c 0.491736,0 0.860538,-0.403926 0.860538,-0.8781 0,-0.491736 -0.368802,-0.860538 -0.860538,-0.860538 H 43.69591 c -0.456612,0 -0.860538,0.368802 -0.860538,0.860538 0,0.474174 0.403926,0.8781 0.860538,0.8781 h 2.757234 v 9.255174 c 0,0.456612 0.403926,0.860538 0.8781,0.860538 z"
       
       id="path26" />
    <path
       d="m 59.115365,98.544931 c 0.52686,0 0.8781,-0.403926 0.8781,-0.842976 0,-0.210744 -0.05269,-0.333678 -0.122934,-0.544422 L 56.375693,87.024259 c -0.140496,-0.421488 -0.474174,-0.579546 -0.807852,-0.579546 -0.35124,0 -0.684918,0.193182 -0.825414,0.544422 l -2.599176,6.603312 -0.649794,0.140496 c -0.386364,0.08781 -0.667356,0.421488 -0.667356,0.842976 0,0.368802 0.17562,0.632232 0.456612,0.772728 0.05269,0.03512 0.105372,0.05269 0.158058,0.07025 l -0.70248,1.7562 c -0.07025,0.17562 -0.122934,0.368802 -0.122934,0.52686 0,0.456612 0.403926,0.825414 0.8781,0.825414 0.421488,0 0.684918,-0.26343 0.807852,-0.561984 l 1.14153,-2.880168 3.582648,-0.79029 1.264464,3.652896 c 0.122934,0.386364 0.386364,0.597108 0.825414,0.597108 z m -4.934922,-5.391534 1.31715,-3.319218 0.948348,2.827482 z"
       
       id="path28" />
    <path
       d="m 61.855039,98.527369 c 0.245868,0 0.43905,-0.07025 0.649794,-0.316116 l 3.670458,-4.355376 3.494838,4.355376 c 0.17562,0.210744 0.421488,0.316116 0.684918,0.316116 0.474174,0 0.842976,-0.403926 0.842976,-0.860538 0,-0.17562 -0.01756,-0.35124 -0.158058,-0.52686 l -3.705582,-4.671492 3.758268,-4.47831 c 0.122934,-0.158058 0.210744,-0.35124 0.210744,-0.561984 0,-0.456612 -0.421488,-0.860538 -0.8781,-0.860538 -0.228306,0 -0.491736,0.105372 -0.667356,0.316116 l -3.529962,4.197318 -3.354342,-4.197318 c -0.17562,-0.210744 -0.421488,-0.316116 -0.667356,-0.316116 -0.456612,0 -0.895662,0.368802 -0.895662,0.860538 0,0.228306 0.105372,0.403926 0.210744,0.544422 l 3.565086,4.47831 -3.916326,4.65393 c -0.105372,0.122934 -0.193182,0.368802 -0.193182,0.561984 0,0.43905 0.35124,0.860538 0.8781,0.860538 z"
       
       id="path30" />
    <path
       d="m 73.990394,98.421997 h 4.197318 c 0.491736,0 0.860538,-0.386364 0.860538,-0.8781 0,-0.491736 -0.333678,-0.8781 -0.860538,-0.8781 h -1.211778 v -8.25414 h 1.211778 c 0.491736,0 0.860538,-0.403926 0.860538,-0.895662 0,-0.491736 -0.368802,-0.860538 -0.860538,-0.860538 h -4.197318 c -0.491736,0 -0.8781,0.368802 -0.8781,0.860538 0,0.491736 0.386364,0.895662 0.8781,0.895662 h 1.22934 v 8.25414 h -1.22934 c -0.491736,0 -0.8781,0.386364 -0.8781,0.8781 0,0.491736 0.386364,0.8781 0.8781,0.8781 z"
       
       id="path32" />
  </g>
</svg>
