<?xml version="1.0" encoding="UTF-8"?>
<svg clip-rule="evenodd" fill-rule="evenodd" stroke-linejoin="round" stroke-miterlimit="2" version="1.1" viewBox="0 0 128 128" xml:space="preserve" xmlns="http://www.w3.org/2000/svg"><g transform="matrix(.24366 0 0 .24366 -.98201 -4.5571)"><ellipse cx="262.58" cy="325.46" rx="180" ry="135.04" fill="#2f2f2f"/><path d="m521.21 329.79-37.666-6.792c-0.576-7.273-1.648-14.498-3.209-21.625l41.417-6.167c4.346-0.644 7.598-4.414 7.598-8.808 0-0.44-0.033-0.881-0.098-1.317-0.708-4.833-5.208-8.125-10.083-7.458l-43.5 6.458c-5-15.333-12.125-30.333-21.209-44.333 4.375-41.792 12.709-154.92-21.208-177.67-27.042-18.166-91.458 49.292-112.25 73.459-4.792 5.583-9.167 10.583-13.167 15.208-14.5-2.208-29.25-3.458-43.916-3.458-14.709 0-29.459 1.208-43.917 3.458-4.042-4.625-8.375-9.625-13.167-15.208-20.75-24.209-85.166-91.625-112.25-73.459-33.958 22.834-25.541 136-21.208 177.71-8.917 13.75-15.958 28.458-20.958 43.541l-38.167-5.708c-4.815-0.694-9.36 2.654-10.125 7.458-0.708 4.875 2.625 9.417 7.5 10.125l36 5.375c-1.75 7.792-2.917 15.625-3.5 23.459l-31.958 5.75c-4.215 0.762-7.309 4.466-7.309 8.749 0 0.531 0.047 1.061 0.142 1.584 0.899 4.782 5.54 8 10.333 7.167l28.167-5.084c0.042 9.334 0.625 18.625 2 27.75l-17.833 5.667c-3.675 1.168-6.188 4.603-6.188 8.458 0 4.861 3.993 8.864 8.854 8.875 0.875 0 1.792-0.083 2.709-0.416l16.083-5.125c7.042 26 21.375 49.958 47 69.083 25.208 18.792 56.542 31.542 88.875 38.458 12.292 2.625 44 8.75 77.292 8.75 33.291 0 68.125-6.125 80.416-8.75 32.292-6.916 63.667-19.666 88.875-38.458 26.167-19.542 40.542-44.125 47.417-70.75l21.333 6.75c0.875 0.333 1.792 0.417 2.709 0.417 3.75 0 7.25-2.417 8.458-6.167 1.458-4.667-1.125-9.708-5.792-11.167l-23.25-7.375c1.25-8.916 1.792-17.958 1.792-27.041l33.792 6.083c4.793 0.833 9.434-2.385 10.333-7.167 0.853-4.788-2.38-9.431-7.167-10.291zm-389.08-75.584c-0.683-1.285-1.04-2.719-1.04-4.175 0-4.885 4.02-8.904 8.904-8.904 3.041 0 5.878 1.557 7.511 4.121 0.375 0.625 10.208 16.5 31.833 16.5 22 0 31.75-16.333 31.834-16.5 1.633-2.564 4.47-4.121 7.51-4.121 4.885 0 8.904 4.019 8.904 8.904 0 1.456-0.357 2.89-1.039 4.175-0.625 1.042-15.125 25.334-47.209 25.334-32.125-0.042-46.625-24.292-47.208-25.334zm110.21 113.83c-1.75 4.583-6.916 6.791-11.5 5.125-12.375-4.792-17.958-3.5-20.166-2.292-0.709 0.375-2.875 1.542-3.917 6.042-0.583 2.458 1.708 9.541 12.125 14.5 3.75 1.791 5.75 5.958 4.833 10-0.912 4.034-4.53 6.921-8.666 6.916-0.042 0.042-0.084 0-0.084 0-13.25 0-19 3.584-19.625 5.25-1.5 4.084-0.625 6.459 0.167 7.917 2.917 5.333 12 10.083 25 13.083 4.792 1.084 7.792 5.834 6.667 10.625-0.959 4.125-4.584 6.917-8.667 6.917-0.667 0-1.333-0.083-2-0.208-18.792-4.292-31.167-11.667-36.708-21.959-3.709-6.875-4.125-14.708-1.209-22.583 2.292-6.208 7.709-10.917 15.625-13.708-4.916-7.084-6.25-14.667-4.875-20.709 1.834-8.125 6.292-14.291 12.875-17.791 8.75-4.667 20.5-4.167 34.917 1.375 4.667 1.75 6.958 6.916 5.208 11.5zm160.62-113.83c-0.625 1.042-15.083 25.334-47.208 25.334-32.083 0-46.583-24.292-47.208-25.334-2.5-4.25-1.042-9.708 3.208-12.166 4.208-2.459 9.625-1.042 12.125 3.166 0.5 0.792 10.333 16.542 31.875 16.542 22 0 31.75-16.333 31.875-16.5 2.458-4.25 7.917-5.667 12.167-3.208 4.208 2.458 5.625 7.916 3.166 12.166z" fill="#a1867f" fill-rule="nonzero"/><path d="m96.192 208.33c-1.125 1.014-2.713 1.335-4.144 0.838s-2.477-1.733-2.732-3.227c-6.474-39.865-30.514-219.36 92.258-52.554 0.765 1.04 1.004 2.377 0.647 3.618s-1.269 2.246-2.469 2.722c-14.067 5.769-54.826 23.706-83.56 48.603zm332.12-2.284c1.124 1.023 2.716 1.351 4.152 0.855 1.437-0.497 2.488-1.737 2.74-3.236 6.496-40.391 30.745-223-92.78-53.343-0.756 1.039-0.99 2.369-0.634 3.604s1.262 2.236 2.456 2.714c14.068 5.827 55.135 24.071 84.066 49.406z" fill="#f9c3d5"/><path d="m220 150.75s7.946 84.154 20.071-2.421m67.762 2.421s-14.091 79.642-18.783-2.292m-37.296-0.158s9.167 133 19.529 0.088" fill="#855c52"/></g></svg>
