<?xml version="1.0" encoding="UTF-8"?>
<svg width="128" height="128" version="1.1" viewBox="0 0 128 128" xmlns="http://www.w3.org/2000/svg">
 <path d="M80.67 35.35c0 2.19-1.8 3.99-3.99 3.99H51.33c-2.2 0-3.99-1.8-3.99-3.99V24.56c0-2.2 1.8-3.99 3.99-3.99h25.34c2.19 0 3.99 1.79 3.99 3.99v10.79z" fill="#2f2f2f"/>
 <g fill="#2f2f2f">
  <path d="m93.35 120.07c0 4.38 3.53 7.93 7.91 7.93s7.91-3.56 7.91-7.93v-32.08c0-4.36-3.53-7.91-7.91-7.91s-7.91 3.55-7.91 7.91zm-73.98 0c0 4.38 3.54 7.93 7.91 7.93 4.38 0 7.91-3.56 7.91-7.93v-32.08c0-4.36-3.54-7.91-7.91-7.91s-7.91 3.55-7.91 7.91z"/>
 </g>
 <path d="M106.23 72.54H21.76c-6.58 0-11.97 4.2-11.97 9.33v25.05c0 2.2 1.8 3.99 4 3.99h100.42c2.19 0 3.99-1.8 3.99-3.99V81.87c.01-5.13-5.38-9.33-11.97-9.33z" fill="#fcc21b"/>
 <g fill="#fff">
  <circle cx="27.67" cy="90.43" r="7.59"/>
  <path d="m93.75 90.43c0 4.19 3.4 7.59 7.6 7.59 4.18 0 7.59-3.4 7.59-7.59s-3.4-7.59-7.59-7.59c-4.2 0-7.6 3.4-7.6 7.59z"/>
 </g>
 <path d="M108.01 68.29v-.03l-6.53-24.12c-1.17-4.31-5.79-7.85-10.26-7.85H36.79c-4.48 0-9.1 3.54-10.27 7.85l-6.53 24.12c-.01.01-.01.03-.01.04l-2.12 7.81h92.28z" fill="#fcc21b"/>
 <path d="M93.75 47.48c-.47-2.19-2.68-3.98-4.92-3.98H39.16c-2.24 0-4.45 1.79-4.92 3.98L29.83 68.2c-.47 2.19.99 3.98 3.22 3.98h61.9c2.24 0 3.69-1.79 3.22-3.98z" fill="#40c0e7"/>
 <g fill="#fff" stroke-width=".592" aria-label="TAXI">
  <path d="m54.438 32.945c0.29822 0 0.5412-0.25404 0.5412-0.5412v-5.8207h1.7451c0.30926 0 0.5412-0.25404 0.5412-0.55225 0-0.30926-0.23194-0.5412-0.5412-0.5412h-4.5726c-0.28717 0-0.5412 0.23194-0.5412 0.5412 0 0.29822 0.25404 0.55225 0.5412 0.55225h1.7341v5.8207c0 0.28717 0.25404 0.5412 0.55225 0.5412z"/>
  <path d="m61.849 32.956c0.33135 0 0.55225-0.25404 0.55225-0.53016 0-0.13254-0.03314-0.20986-0.07731-0.3424l-2.198-6.373c-0.08836-0.26508-0.29822-0.36448-0.50807-0.36448-0.2209 0-0.43076 0.1215-0.51912 0.3424l-1.6347 4.1529-0.40866 0.08836c-0.24299 0.05523-0.41971 0.26508-0.41971 0.53016 0 0.23194 0.11045 0.39762 0.28717 0.48598 0.03313 0.02209 0.06627 0.03313 0.0994 0.04418l-0.4418 1.1045c-0.04418 0.11045-0.07731 0.23194-0.07731 0.33135 0 0.28717 0.25404 0.51912 0.55225 0.51912 0.26508 0 0.43076-0.16568 0.50807-0.35344l0.71792-1.8114 2.2532-0.49702 0.79524 2.2974c0.07731 0.24299 0.24299 0.37553 0.51912 0.37553zm-3.1036-3.3908 0.82838-2.0875 0.59643 1.7782z"/>
  <path d="m63.572 32.945c0.15463 0 0.27612-0.04418 0.40866-0.19881l2.3084-2.7392 2.198 2.7392c0.11045 0.13254 0.26508 0.19881 0.43076 0.19881 0.29822 0 0.53016-0.25404 0.53016-0.5412 0-0.11045-0.01104-0.2209-0.0994-0.33135l-2.3305-2.938 2.3636-2.8165c0.07731-0.09941 0.13254-0.2209 0.13254-0.35344 0-0.28717-0.26508-0.5412-0.55225-0.5412-0.14358 0-0.30926 0.06627-0.41971 0.19881l-2.22 2.6398-2.1096-2.6398c-0.11045-0.13254-0.26508-0.19881-0.41971-0.19881-0.28717 0-0.5633 0.23194-0.5633 0.5412 0 0.14358 0.06627 0.25404 0.13254 0.3424l2.2421 2.8165-2.463 2.9269c-0.06627 0.07731-0.1215 0.23194-0.1215 0.35344 0 0.27612 0.2209 0.5412 0.55225 0.5412z"/>
  <path d="m71.204 32.879h2.6398c0.30926 0 0.5412-0.24299 0.5412-0.55225s-0.20986-0.55225-0.5412-0.55225h-0.7621v-5.1912h0.7621c0.30926 0 0.5412-0.25404 0.5412-0.5633s-0.23194-0.5412-0.5412-0.5412h-2.6398c-0.30926 0-0.55225 0.23194-0.55225 0.5412s0.24299 0.5633 0.55225 0.5633h0.77315v5.1912h-0.77315c-0.30926 0-0.55225 0.24299-0.55225 0.55225s0.24299 0.55225 0.55225 0.55225z"/>
 </g>
</svg>
