<?xml version='1.0' encoding='UTF-8'?>
<svg xmlns="http://www.w3.org/2000/svg" version="1.1" id="svg12" viewBox="0 0 128 128">
  <defs id="defs16"/>
  <path d="M116 128H12c-6.6 0-12-5.4-12-12V12C0 5.4 5.4 0 12 0h104c6.6 0 12 5.4 12 12v104c0 6.6-5.4 12-12 12z" fill="#1bb7fc" id="path2"/>
  <path d="M124.48 3.52L3.52 124.48C5.7 126.65 8.7 128 12 128h104c6.6 0 12-5.4 12-12V12c0-3.3-1.35-6.3-3.52-8.48z" fill="#1b79fc" id="path4"/>
  <path d="M112 101c0 6.63-5.37 12-12 12H27.89c-6.6 0-12-5.4-12-12V28.9c0-6.6 5.4-12 12-12H100c6.63 0 12 5.37 12 12z" fill="#1ba2fc" id="path6"/>
  <g aria-label="4" id="text10" style="line-height:1.25;text-align:center;text-anchor:middle;fill:#ffffff;stroke-width:1.102">
    <path d="m 75.519819,99.824838 c 2.751684,0 5.185866,-2.434182 5.185866,-5.080032 V 83.949738 h 0.635004 c 2.751684,0 5.2917,-2.222514 5.2917,-5.080032 0,-2.751684 -2.010846,-5.080032 -4.868364,-5.080032 h -1.05834 V 34.207758 c 0,-2.857518 -2.222514,-5.080032 -5.185866,-5.080032 -1.799178,0 -3.280854,0.846672 -4.23336,2.434182 L 44.510457,75.588852 c -0.52917,0.952506 -0.846672,1.58751 -0.846672,2.857518 0,2.963352 2.010846,4.974198 5.080032,4.974198 l 21.69597,0.317502 v 11.006736 c 0,2.64585 2.222514,5.080032 5.080032,5.080032 z M 70.439787,73.578006 57.739707,73.260504 70.439787,52.411206 Z" id="path18"/>
  </g>
</svg>
