<?xml version='1.0' encoding='UTF-8'?>
<svg xmlns="http://www.w3.org/2000/svg" xmlns:svg="http://www.w3.org/2000/svg" viewBox="0 0 128 128" version="1.1" xml:space="preserve" style="fill-rule:evenodd;clip-rule:evenodd;stroke-linejoin:round;stroke-miterlimit:2" id="svg76"><defs id="defs80"/>
    <g transform="translate(9.78113,0.581)" id="g4">
        <path d="m 20.966,6.492 c -0.948,0 -1.712,0.892 -1.712,2 v 98.576 l 12.955,13.278 h 55.263 c 0.948,0 1.712,-0.892 1.712,-2 V 8.492 c 0,-1.108 -0.764,-2 -1.712,-2 z" style="fill:#ffd54f;fill-rule:nonzero" id="path2"/>
    </g>
    <g transform="matrix(0.99926,0,0,1.00074,4.24585,0.371219)" id="g40">
        <g transform="translate(28.5484,17.976)" id="g8">
            <g aria-label="@SwiftOnSecurity:" id="text6"><path d="m 3.04982,0.70649499 c 0.5805849,0 0.9932899,-0.104925 1.2311199,-0.2798 C 4.4628099,0.29379 4.5257649,0.188865 4.5257649,0.062955 c 0,-0.160885 -0.146895,-0.30778 -0.328765,-0.30778 -0.06995,0 -0.12591,0.020985 -0.22384,0.08394 -0.216845,0.1399 -0.468665,0.23783 -0.8394,0.23783 -1.0212699,0 -1.9446099,-0.53861499 -1.9446099,-1.783725 0,-1.2591 0.93733,-1.9026399 1.8746599,-1.9026399 1.070235,0 1.629835,0.8393999 1.629835,1.6018549 0,0.57359 -0.202855,0.82541 -0.51763,0.82541 -0.19586,0 -0.342755,-0.15389 -0.342755,-0.384725 0,-0.12591 0.048965,-0.216845 0.048965,-0.32177 0,-0.12591 -0.06995,-0.23783 -0.174875,-0.300785 0.09793,-0.048965 0.160885,-0.146895 0.160885,-0.272805 0,-0.132905 -0.048965,-0.230835 -0.20985,-0.33576 -0.22384,-0.1399 -0.44768,-0.202855 -0.6715199,-0.202855 -0.6995,0 -1.238115,0.65753 -1.238115,1.37102 0,0.72048501 0.426695,0.97930001 0.89536,0.97930001 0.29379,0 0.5246249,-0.15389 0.7204849,-0.36374001 0.174875,0.25182001 0.47566,0.45467501 0.86738,0.45467501 0.566595,0 1.126195,-0.53861501 1.126195,-1.44796501 0,-1.2590999 -1.014275,-2.2663799 -2.29436,-2.2663799 -1.4619549,0 -2.53918491,1.09122 -2.53918491,2.5671649 0,1.51092 1.09122001,2.41327499 2.52519501,2.41327499 z M 2.40628,-1.629835 c 0,-0.370735 0.25182,-0.720485 0.58758,-0.720485 0.1398999,0 0.2308349,0.05596 0.3147749,0.104925 0.034975,0.020985 0.062955,0.04197 0.09793,0.05596 -0.06995,0.04197 -0.12591,0.118915 -0.16788,0.202855 -0.076945,0.174875 -0.3357599,0.678515 -0.5945749,0.678515 -0.15389,0 -0.23783,-0.104925 -0.23783,-0.32177 z" id="path82"/><path d="m 7.8274112,0.04197 c 0.90935,0 1.685795,-0.60156999 1.685795,-1.405995 0,-0.68551 -0.510635,-1.126195 -1.433975,-1.392005 -0.75546,-0.216845 -1.07723,-0.4196999 -1.07723,-0.7484649 0,-0.34975 0.32177,-0.580585 0.958315,-0.580585 0.51763,0 0.832405,0.202855 0.86738,0.454675 0.020985,0.160885 0.15389,0.29379 0.32177,0.29379 0.19586,0 0.342755,-0.15389 0.342755,-0.36374 0,-0.61556 -0.566595,-1.028265 -1.531905,-1.028265 -1.014275,0 -1.63683,0.524625 -1.63683,1.27309 0,0.7974299 0.720485,1.1401849 1.517915,1.3640249 0.76945,0.216845 1.000285,0.47566 1.000285,0.762455 0,0.39871502 -0.412705,0.71349001 -1.000285,0.71349001 -0.4197,0 -0.902355,-0.19586 -1.056245,-0.62255501 -0.05596,-0.15389 -0.174875,-0.258815 -0.34975,-0.258815 -0.202855,0 -0.356745,0.160885 -0.356745,0.34975 0,0.076945 0.02798,0.16788002 0.076945,0.27280501 0.22384,0.47566 0.818415,0.91634499 1.671805,0.91634499 z" id="path84"/><path d="m 10.786293,0.04197 c 0.1399,0 0.26581,-0.08394 0.32177,-0.244825 l 0.67152,-1.84668 0.468665,1.83269 c 0.04896,0.18187 0.16788,0.258815 0.328765,0.258815 0.16788,0 0.272805,-0.104925 0.32177,-0.25182 l 0.89536,-2.791005 c 0.007,-0.020985 0.02098,-0.062955 0.02098,-0.1329049 0,-0.18187 -0.160885,-0.314775 -0.33576,-0.314775 -0.146895,0 -0.286795,0.118915 -0.328765,0.258815 l -0.552605,1.8186999 -0.43369,-1.8396849 c -0.04197,-0.16788 -0.16788,-0.244825 -0.33576,-0.244825 -0.146895,0 -0.286795,0.09793 -0.33576,0.244825 l -0.62955,1.8047099 -0.356745,-1.7697349 c -0.03498,-0.160885 -0.146895,-0.2798 -0.328765,-0.2798 -0.18187,0 -0.328765,0.146895 -0.328765,0.29379 0,0.062955 0.00699,0.09793 0.020985,0.1678799 l 0.580585,2.763025 c 0.03497,0.16788 0.146895,0.272805 0.33576,0.272805 z" id="path86"/><path d="m 14.962313,-3.7423249 c 0.188865,0 0.328765,-0.1399 0.33576,-0.328765 l 0.007,-0.26581 c 0.007,-0.16788 -0.15389,-0.33576 -0.328765,-0.33576 -0.174875,0 -0.328764,0.146895 -0.335759,0.328765 l -0.007,0.258815 c -0.007,0.18187 0.153889,0.342755 0.328764,0.342755 z M 14.927338,0.04197 c 0.18187,0 0.342755,-0.15389 0.342755,-0.342755 l 0.03498,-2.7840099 c 0,-0.188865 -0.146895,-0.342755 -0.342755,-0.342755 -0.18187,0 -0.342754,0.15389 -0.342754,0.342755 l -0.03498,2.7840099 c 0,0.188865 0.153889,0.342755 0.342754,0.342755 z" id="path88"/><path d="m 16.746039,0.04197 c 0.174875,0 0.33576,-0.15389 0.33576,-0.32177 v -2.53219 h 0.720485 c 0.174875,0 0.314775,-0.15389 0.314775,-0.3217699 0,-0.174875 -0.174875,-0.32177 -0.314775,-0.32177 l -0.71349,-0.00699 c 0.04197,-0.482655 0.25182,-0.552605 0.832405,-0.552605 0.20985,0 0.328765,-0.15389 0.328765,-0.328765 0,-0.258815 -0.174875,-0.32177 -0.40571,-0.32177 -0.958315,0 -1.38501,0.300785 -1.42698,1.20314 h -0.33576 c -0.160885,0 -0.314775,0.15389 -0.314775,0.328765 0,0.1678799 0.15389,0.3217699 0.32177,0.3217699 h 0.32177 v 2.53219 c 0,0.16788 0.160885,0.32177 0.33576,0.32177 z" id="path90"/><path d="m 19.138323,0.048965 c 0.18187,0 0.33576,-0.146895 0.33576,-0.328765 v -2.497215 h 0.594575 c 0.188865,0 0.33576,-0.160885 0.33576,-0.3357599 0,-0.19586 -0.146895,-0.342755 -0.33576,-0.342755 h -0.594575 v -0.748465 c 0,-0.174875 -0.132905,-0.342755 -0.33576,-0.342755 -0.188865,0 -0.33576,0.16788 -0.33576,0.342755 v 0.748465 h -0.538615 c -0.18187,0 -0.34975,0.132905 -0.34975,0.342755 0,0.1748749 0.146895,0.3357599 0.33576,0.3357599 h 0.552605 V -0.2798 c 0,0.18187 0.160885,0.328765 0.33576,0.328765 z" id="path92"/><path d="m 22.425966,0.04197 c 1.126195,0 2.091505,-1.10521 2.091505,-2.56017 0,-1.2730899 -0.76945,-2.2104199 -1.8187,-2.2104199 -1.112205,0 -2.08451,1.10521 -2.08451,2.5601699 0,1.25910001 0.75546,2.21042 1.811705,2.21042 z m 0,-0.66452499 c -0.57359,0 -1.112205,-0.52462501 -1.112205,-1.54589501 0,-1.1122049 0.608565,-1.8956449 1.34304,-1.8956449 0.57359,0 1.16117,0.552605 1.16117,1.5738749 0,1.112205 -0.636545,1.86766501 -1.392005,1.86766501 z" id="path94"/><path d="m 25.622686,0.04197 c 0.20985,0 0.328765,-0.15389 0.328765,-0.34974999 v -0.58758 c 0,-0.51763001 0.07695,-0.83940001 0.286795,-1.21713001 0.23783,-0.43369 0.53162,-0.68551 0.81142,-0.68551 0.32177,0 0.461669,0.23783 0.461669,1.350035 v 1.16117 c 0,0.16788 0.15389,0.328765 0.33576,0.328765 0.188865,0 0.32177,-0.160885 0.32177,-0.33576 0,-0.39871499 0.007,-0.63654498 0.007,-1.224125 0,-1.461955 -0.300785,-1.9306199 -1.063239,-1.9306199 -0.47566,0 -0.888365,0.300785 -1.154175,0.8603849 v -0.5316199 c 0,-0.188865 -0.146895,-0.33576 -0.32177,-0.33576 -0.18187,0 -0.34975,0.146895 -0.34975,0.33576 V -0.2798 c 0,0.16788 0.15389,0.32177 0.33576,0.32177 z" id="path96"/><path d="m 30.484204,0.04197 c 0.90935,0 1.685795,-0.60156999 1.685795,-1.405995 0,-0.68551 -0.510635,-1.126195 -1.433975,-1.392005 -0.75546,-0.216845 -1.07723,-0.4196999 -1.07723,-0.7484649 0,-0.34975 0.32177,-0.580585 0.958315,-0.580585 0.51763,0 0.832405,0.202855 0.86738,0.454675 0.02098,0.160885 0.15389,0.29379 0.32177,0.29379 0.19586,0 0.342755,-0.15389 0.342755,-0.36374 0,-0.61556 -0.566595,-1.028265 -1.531905,-1.028265 -1.014275,0 -1.63683,0.524625 -1.63683,1.27309 0,0.7974299 0.720485,1.1401849 1.517915,1.3640249 0.76945,0.216845 1.000285,0.47566 1.000285,0.762455 0,0.39871502 -0.412705,0.71349001 -1.000285,0.71349001 -0.4197,0 -0.902355,-0.19586 -1.056245,-0.62255501 -0.05596,-0.15389 -0.174875,-0.258815 -0.34975,-0.258815 -0.202855,0 -0.356745,0.160885 -0.356745,0.34975 0,0.076945 0.02798,0.16788002 0.07694,0.27280501 0.22384,0.47566 0.818415,0.91634499 1.671805,0.91634499 z" id="path98"/><path d="m 34.415392,0.04197 c 0.43369,0 0.916345,-0.230835 1.168165,-0.51762999 0.05596,-0.062955 0.08394,-0.12591 0.08394,-0.20985 0,-0.18187 -0.1399,-0.31477501 -0.328765,-0.31477501 -0.09094,0 -0.16788,0.048965 -0.230835,0.11192001 -0.15389,0.160885 -0.384725,0.300785 -0.692505,0.300785 -0.398715,0 -0.76945,-0.160885 -0.902355,-0.45467501 l 1.87466,-1.07723 c 0.146895,-0.08394 0.216845,-0.20985 0.216845,-0.32177 0,-0.328765 -0.4197,-1.0072799 -1.34304,-1.0072799 -0.958315,0 -1.58087,0.8603849 -1.58087,1.7347599 0,1.09821501 0.748465,1.755745 1.73476,1.755745 z m -1.098215,-1.66481 c 0,-0.09793 0,-0.146895 0.01399,-0.25182 0.05596,-0.51763 0.43369,-0.944325 0.9793,-0.944325 0.272805,0 0.48965,0.09793 0.60157,0.29379 z" id="path100"/><path d="m 37.640081,0.04197 c 0.58758,0 1.070235,-0.328765 1.31506,-0.65752999 0.05596,-0.06995 0.07695,-0.146895 0.07695,-0.23783 0,-0.16088501 -0.146895,-0.30778001 -0.328765,-0.30778001 -0.132905,0 -0.23783,0.090935 -0.300785,0.17487502 -0.160885,0.21684499 -0.37773,0.39171999 -0.776445,0.39171999 -0.426695,0 -0.85339,-0.32876499 -0.85339,-0.90935001 0,-0.664525 0.482655,-1.308065 0.930335,-1.308065 0.2798,0 0.412705,0.132905 0.538615,0.272805 0.09094,0.11192 0.146895,0.1399 0.26581,0.1399 0.18187,0 0.33576,-0.1399 0.33576,-0.32177 0,-0.08394 -0.02798,-0.160885 -0.104925,-0.244825 -0.26581,-0.3147749 -0.524625,-0.4826549 -1.042255,-0.4826549 -0.832405,0 -1.58087,1.0002849 -1.58087,1.9585999 0,0.85339001 0.664525,1.531905 1.52491,1.531905 z" id="path102"/><path d="m 40.58497,0.062955 c 0.4197,0 0.75546,-0.23783 0.99329,-0.40570999 v 0.076945 c 0,0.188865 0.174875,0.30778 0.356745,0.30778 0.18187,0 0.33576,-0.160885 0.33576,-0.33576 V -3.1337599 c 0,-0.188865 -0.160885,-0.32177 -0.33576,-0.32177 -0.160885,0 -0.328765,0.132905 -0.328765,0.32177 l -0.01399,1.9935749 c 0,0.08394 -0.01399,0.14689503 -0.04197,0.17487503 -0.118915,0.13290499 -0.51763,0.39871499 -0.89536,0.39871499 -0.25182,0 -0.46167,-0.188865 -0.46167,-1.22412502 0,-0.706495 0.08394,-1.21713 0.08394,-1.3360449 0,-0.22384 -0.160885,-0.328765 -0.33576,-0.328765 -0.202855,0 -0.29379,0.132905 -0.328765,0.356745 -0.04897,0.3147749 -0.07695,0.8044249 -0.07695,1.1541749 0,1.65781501 0.342755,2.00756501 1.04925,2.00756501 z" id="path104"/><path d="m 43.592819,0.04197 c 0.16788,0 0.33576,-0.15389 0.33576,-0.32177 l 0.007,-1.32905 c 0,-0.286795 0.02798,-0.53162 0.23783,-0.79743 0.118915,-0.160885 0.370735,-0.39172 0.5596,-0.39172 0.118915,0 0.15389,0.04197 0.15389,0.11192 v 0.090935 c 0,0.160885 0.08394,0.33576 0.328765,0.33576 0.188865,0 0.328765,-0.146895 0.328765,-0.328765 V -2.798 c 0,-0.3007849 -0.146895,-0.6645249 -0.67152,-0.6645249 -0.412705,0 -0.720485,0.202855 -0.93733,0.5595999 v -0.2098499 c 0,-0.188865 -0.15389,-0.33576 -0.342755,-0.33576 -0.18187,0 -0.342755,0.146895 -0.342755,0.33576 V -0.2798 c 0,0.16788 0.16788,0.32177 0.342755,0.32177 z" id="path106"/><path d="m 46.446779,-3.7423249 c 0.188865,0 0.328765,-0.1399 0.33576,-0.328765 l 0.007,-0.26581 c 0.007,-0.16788 -0.15389,-0.33576 -0.328765,-0.33576 -0.174875,0 -0.328765,0.146895 -0.33576,0.328765 l -0.007,0.258815 c -0.007,0.18187 0.15389,0.342755 0.328765,0.342755 z M 46.411804,0.04197 c 0.18187,0 0.342755,-0.15389 0.342755,-0.342755 l 0.03498,-2.7840099 c 0,-0.188865 -0.146895,-0.342755 -0.342755,-0.342755 -0.18187,0 -0.342755,0.15389 -0.342755,0.342755 l -0.03498,2.7840099 c 0,0.188865 0.15389,0.342755 0.342755,0.342755 z" id="path108"/><path d="m 48.377397,0.048965 c 0.18187,0 0.33576,-0.146895 0.33576,-0.328765 v -2.497215 h 0.594575 c 0.188865,0 0.33576,-0.160885 0.33576,-0.3357599 0,-0.19586 -0.146895,-0.342755 -0.33576,-0.342755 h -0.594575 v -0.748465 c 0,-0.174875 -0.132905,-0.342755 -0.33576,-0.342755 -0.188865,0 -0.33576,0.16788 -0.33576,0.342755 v 0.748465 h -0.538615 c -0.18187,0 -0.34975,0.132905 -0.34975,0.342755 0,0.1748749 0.146895,0.3357599 0.33576,0.3357599 h 0.552605 V -0.2798 c 0,0.18187 0.160885,0.328765 0.33576,0.328765 z" id="path110"/><path d="m 50.545841,1.294075 c 0.146895,0 0.258815,-0.09793 0.314775,-0.216845 l 1.867665,-4.0571 c 0.02098,-0.04197 0.02798,-0.09793 0.02798,-0.1398999 0,-0.19586 -0.1399,-0.342755 -0.30778,-0.342755 -0.146895,0 -0.26581,0.09793 -0.32177,0.216845 l -0.88137,1.9516049 -0.986295,-1.9516049 c -0.04896,-0.09793 -0.15389,-0.20985 -0.32177,-0.20985 -0.19586,0 -0.34975,0.15389 -0.34975,0.342755 0,0.062955 0.02099,0.1259099 0.04197,0.1678799 l 1.252105,2.44125501 -0.608565,1.30806498 c -0.02098,0.048965 -0.03497,0.104925 -0.03497,0.14689499 0,0.18886502 0.1399,0.34275502 0.30778,0.34275502 z" id="path112"/><path d="m 53.532708,-2.231405 c 0.216845,0 0.412705,-0.202855 0.412705,-0.46167 0,-0.216845 -0.160885,-0.3847249 -0.36374,-0.3847249 -0.216845,0 -0.412705,0.2168449 -0.412705,0.4476799 0,0.216845 0.146895,0.398715 0.36374,0.398715 z M 53.343843,0.04197 c 0.216845,0 0.412705,-0.202855 0.412705,-0.45467499 0,-0.216845 -0.15389,-0.39172 -0.356745,-0.39172 -0.216845,0 -0.412705,0.216845 -0.412705,0.44768 0,0.22383999 0.1399,0.39871499 0.356745,0.39871499 z" id="path114"/></g>
        </g>
        <g transform="translate(28.5484,26.3555)" id="g14">
            <g aria-label="Fun fact: Linux doesn't" id="text12"><path d="m 0.67787498,0.037961 c 0.151844,0 0.27115,-0.119306 0.27115,-0.27114999 V -1.616054 H 2.3915429 c 0.151844,0 0.265727,-0.124729 0.265727,-0.265727 0,-0.1518439 -0.113883,-0.2765729 -0.265727,-0.2765729 H 0.94902498 v -0.932756 H 2.8416519 c 0.151844,0 0.265727,-0.130152 0.265727,-0.27115 0,-0.151844 -0.113883,-0.27115 -0.265727,-0.27115 H 0.67787498 c -0.15184399,0 -0.27114999,0.119306 -0.27114999,0.27115 v 3.12907091 c 0,0.15184399 0.119306,0.27114999 0.27114999,0.27114999 z" id="path117"/><path d="m 4.2733204,0.048807 c 0.32538,0 0.585684,-0.184382 0.770066,-0.31453399 v 0.059653 c 0,0.14642099 0.135575,0.23861199 0.276573,0.23861199 0.140998,0 0.260304,-0.124729 0.260304,-0.26030399 V -2.4295039 c 0,-0.146421 -0.124729,-0.249458 -0.260304,-0.249458 -0.124729,0 -0.254881,0.103037 -0.254881,0.249458 l -0.010846,1.54555492 c 0,0.065076 -0.010846,0.113883 -0.032538,0.135575 -0.092191,0.103037 -0.401302,0.30911099 -0.694144,0.30911099 -0.195228,0 -0.357918,-0.14642099 -0.357918,-0.94902501 0,-0.5477229 0.065076,-0.9436019 0.065076,-1.0357929 0,-0.173536 -0.124729,-0.254881 -0.260304,-0.254881 -0.157267,0 -0.227766,0.103037 -0.254881,0.276573 -0.037961,0.244035 -0.059653,0.6236449 -0.059653,0.8947949 0,1.28525101 0.2657269,1.556401 0.81345,1.556401 z" id="path119"/><path d="m 6.5997853,0.032538 c 0.16269,0 0.254881,-0.119306 0.254881,-0.27114999 v -0.45553199 c 0,-0.40130202 0.059653,-0.65076002 0.222343,-0.94360202 0.184382,-0.3362259 0.412148,-0.5314539 0.6290679,-0.5314539 0.249458,0 0.357918,0.184382 0.357918,1.0466389 v 0.90021801 c 0,0.13015199 0.119306,0.25488099 0.260304,0.25488099 0.146421,0 0.249458,-0.124729 0.249458,-0.26030399 0,-0.309111 0.00542,-0.49349299 0.00542,-0.94902501 0,-1.1334069 -0.233189,-1.4967479 -0.824296,-1.4967479 -0.3687639,0 -0.6887209,0.233189 -0.8947949,0.667029 v -0.412148 c 0,-0.146421 -0.113883,-0.260304 -0.249458,-0.260304 -0.140998,0 -0.27115,0.113883 -0.27115,0.260304 v 2.20173791 c 0,0.13015199 0.119306,0.24945799 0.260304,0.24945799 z" id="path121"/><path d="m 11.572678,0.032538 c 0.135575,0 0.260304,-0.119306 0.260304,-0.24945799 V -2.1800459 h 0.558569 c 0.135575,0 0.244035,-0.119306 0.244035,-0.249458 0,-0.135575 -0.135575,-0.249458 -0.244035,-0.249458 l -0.553146,-0.00542 c 0.03254,-0.374187 0.195228,-0.428417 0.645337,-0.428417 0.16269,0 0.254881,-0.119306 0.254881,-0.254881 0,-0.200651 -0.135575,-0.249458 -0.314534,-0.249458 -0.742951,0 -1.073754,0.233189 -1.106292,0.932756 h -0.260304 c -0.124729,0 -0.244035,0.119306 -0.244035,0.254881 0,0.130152 0.119306,0.249458 0.249458,0.249458 h 0.249458 v 1.96312591 c 0,0.13015199 0.124729,0.24945799 0.260304,0.24945799 z" id="path123"/><path d="m 14.58197,0.086768 c 0.151844,0 0.260304,-0.130152 0.260304,-0.27115 v -2.2559679 c -0.140998,-0.065076 -0.477224,-0.233189 -0.86768,-0.233189 -0.802604,0 -1.30152,0.7863349 -1.30152,1.5347089 0,0.69956701 0.450109,1.171368 1.046639,1.171368 0.21692,0 0.450109,-0.059653 0.618222,-0.23861199 v 0.075922 c 0,0.130152 0.09761,0.21692 0.244035,0.21691999 z m -0.824296,-0.55856899 c -0.347072,0 -0.558569,-0.22776599 -0.558569,-0.67787501 0,-0.531454 0.309111,-1.0249469 0.786335,-1.0249469 0.113883,0 0.249458,0.027115 0.341649,0.065076 l -0.01627,1.41540292 c -0.113883,0.103037 -0.32538,0.22234299 -0.553146,0.22234299 z" id="path125"/><path d="m 16.610169,0.032538 c 0.455532,0 0.829719,-0.25488099 1.019524,-0.50976199 0.04338,-0.05423 0.05965,-0.11388299 0.05965,-0.18438199 0,-0.124729 -0.113883,-0.238612 -0.254881,-0.238612 -0.103037,0 -0.184382,0.070499 -0.233189,0.135575 -0.124729,0.168113 -0.292842,0.30368799 -0.601953,0.30368799 -0.330803,0 -0.661606,-0.25488099 -0.661606,-0.70499001 0,-0.515185 0.374187,-1.0141009 0.721259,-1.0141009 0.21692,0 0.319957,0.103037 0.417571,0.211497 0.0705,0.086768 0.113883,0.1084599 0.206074,0.1084599 0.140998,0 0.260304,-0.1084599 0.260304,-0.2494579 0,-0.065076 -0.02169,-0.124729 -0.08134,-0.189805 -0.206074,-0.244035 -0.406725,-0.374187 -0.808027,-0.374187 -0.645337,0 -1.225598,0.7754889 -1.225598,1.5184399 0,0.66160601 0.515185,1.187637 1.182214,1.187637 z" id="path127"/><path d="m 18.622098,0.037961 c 0.140998,0 0.260304,-0.113883 0.260304,-0.25488099 V -2.1529309 h 0.460955 c 0.146421,0 0.260304,-0.124729 0.260304,-0.260304 0,-0.151844 -0.113883,-0.265727 -0.260304,-0.265727 h -0.460955 v -0.580261 c 0,-0.135575 -0.103037,-0.265727 -0.260304,-0.265727 -0.146421,0 -0.260304,0.130152 -0.260304,0.265727 v 0.580261 h -0.417571 c -0.140998,0 -0.27115,0.103037 -0.27115,0.265727 0,0.135575 0.113883,0.260304 0.260304,0.260304 h 0.428417 v 1.93601091 c 0,0.14099799 0.124729,0.25488099 0.260304,0.25488099 z" id="path129"/><path d="m 20.13511,-1.729937 c 0.168113,0 0.319957,-0.157267 0.319957,-0.3579179 0,-0.168113 -0.124729,-0.298265 -0.281996,-0.298265 -0.168113,0 -0.319957,0.168113 -0.319957,0.347072 0,0.1681129 0.113883,0.3091109 0.281996,0.3091109 z m -0.146421,1.762475 c 0.168113,0 0.319957,-0.157267 0.319957,-0.35249499 0,-0.168113 -0.119306,-0.30368799 -0.276573,-0.30368799 -0.168113,0 -0.319957,0.16811299 -0.319957,0.34707199 0,0.17353599 0.10846,0.30911099 0.276573,0.30911099 z" id="path131"/><path d="m 23.275036,0.027115 1.767898,-0.113883 c 0.135575,-0.010846 0.244035,-0.14099799 0.244035,-0.27114999 0,-0.157267 -0.113883,-0.27114999 -0.265727,-0.26030399 l -1.475056,0.097614 V -3.3947979 c 0,-0.140998 -0.124729,-0.265727 -0.265727,-0.265727 -0.151844,0 -0.27115,0.124729 -0.27115,0.265727 v 3.16160891 c 0,0.13557499 0.124729,0.27114999 0.265727,0.26030399 z" id="path133"/><path d="m 26.057037,-2.9013049 c 0.146421,0 0.254881,-0.10846 0.260304,-0.254881 l 0.0054,-0.206074 c 0.0054,-0.130152 -0.119306,-0.260304 -0.254881,-0.260304 -0.135575,0 -0.254881,0.113883 -0.260304,0.254881 l -0.0054,0.200651 c -0.0054,0.140998 0.119306,0.265727 0.254881,0.265727 z m -0.02712,2.9338429 c 0.140998,0 0.265727,-0.119306 0.265727,-0.26572699 l 0.02711,-2.15835391 c 0,-0.146421 -0.113883,-0.265727 -0.265727,-0.265727 -0.140998,0 -0.265727,0.119306 -0.265727,0.265727 l -0.02711,2.15835391 c 0,0.14642099 0.119306,0.26572699 0.265727,0.26572699 z" id="path135"/><path d="m 27.342288,0.032538 c 0.16269,0 0.254881,-0.119306 0.254881,-0.27114999 v -0.45553199 c 0,-0.40130202 0.05965,-0.65076002 0.222343,-0.94360202 0.184382,-0.3362259 0.412148,-0.5314539 0.629068,-0.5314539 0.249458,0 0.357918,0.184382 0.357918,1.0466389 v 0.90021801 c 0,0.13015199 0.119306,0.25488099 0.260304,0.25488099 0.146421,0 0.249458,-0.124729 0.249458,-0.26030399 0,-0.309111 0.0054,-0.49349299 0.0054,-0.94902501 0,-1.1334069 -0.233189,-1.4967479 -0.824296,-1.4967479 -0.368764,0 -0.688721,0.233189 -0.894795,0.667029 v -0.412148 c 0,-0.146421 -0.113883,-0.260304 -0.249458,-0.260304 -0.140998,0 -0.27115,0.113883 -0.27115,0.260304 v 2.20173791 c 0,0.13015199 0.119306,0.24945799 0.260304,0.24945799 z" id="path137"/><path d="m 30.76962,0.048807 c 0.32538,0 0.585684,-0.184382 0.770066,-0.31453399 v 0.059653 c 0,0.14642099 0.135575,0.23861199 0.276573,0.23861199 0.140998,0 0.260304,-0.124729 0.260304,-0.26030399 V -2.4295039 c 0,-0.146421 -0.124729,-0.249458 -0.260304,-0.249458 -0.124729,0 -0.254881,0.103037 -0.254881,0.249458 l -0.01085,1.54555492 c 0,0.065076 -0.01085,0.113883 -0.03254,0.135575 -0.09219,0.103037 -0.401302,0.30911099 -0.694144,0.30911099 -0.195228,0 -0.357918,-0.14642099 -0.357918,-0.94902501 0,-0.5477229 0.06508,-0.9436019 0.06508,-1.0357929 0,-0.173536 -0.124729,-0.254881 -0.260304,-0.254881 -0.157267,0 -0.227766,0.103037 -0.254881,0.276573 -0.03796,0.244035 -0.05965,0.6236449 -0.05965,0.8947949 0,1.28525101 0.265727,1.556401 0.813449,1.556401 z" id="path139"/><path d="m 34.728409,0.032538 c 0.140998,0 0.260304,-0.113883 0.260304,-0.26030399 0,-0.065076 -0.01627,-0.113883 -0.05423,-0.16269 l -0.791758,-0.94902501 0.86768,-0.8893719 c 0.04338,-0.043384 0.07592,-0.113883 0.07592,-0.178959 0,-0.135575 -0.124729,-0.260304 -0.260304,-0.260304 -0.0705,0 -0.130152,0.021692 -0.189805,0.081345 l -0.83514,0.8731029 -0.715836,-0.8785259 c -0.05965,-0.070499 -0.124729,-0.086768 -0.195228,-0.086768 -0.140998,0 -0.254881,0.124729 -0.254881,0.265727 0,0.048807 0.02712,0.124729 0.0705,0.173536 l 0.726682,0.8676799 -0.92191,0.94902501 c -0.06508,0.065076 -0.07592,0.124729 -0.07592,0.189805 0,0.13557499 0.113883,0.26030399 0.254881,0.26030399 0.06508,0 0.130152,-0.010846 0.189805,-0.075922 l 0.889372,-0.94360197 0.770066,0.94360197 c 0.04338,0.05423 0.124729,0.081345 0.189805,0.081345 z" id="path141"/><path d="m 38.220823,0.027115 c 0.298265,0 0.563992,-0.157267 0.726682,-0.30911099 v 0.097614 c 0,0.135575 0.119306,0.21692 0.249458,0.21692 0.146421,0 0.260304,-0.10846 0.265727,-0.24945799 l 0.07592,-3.15618592 c 0.0054,-0.168113 -0.124729,-0.276573 -0.254881,-0.276573 -0.146421,0 -0.265727,0.119306 -0.27115,0.265727 l -0.02711,0.840565 c -0.135575,-0.05423 -0.347072,-0.124729 -0.580261,-0.124729 -0.677875,0 -1.155099,0.520608 -1.155099,1.4696329 0,0.79718102 0.428417,1.22559801 0.970717,1.22559801 z m 0.04338,-0.48806999 c -0.287419,0 -0.493493,-0.21149699 -0.493493,-0.75379701 0,-0.629068 0.227766,-0.9652939 0.667029,-0.9652939 0.200651,0 0.422994,0.086768 0.5423,0.168113 l -0.02169,1.06833092 c -0.0054,0.184382 -0.298265,0.48264699 -0.694144,0.48264699 z" id="path143"/><path d="m 41.198047,0.032538 c 0.688721,0 1.274405,-0.66160598 1.274405,-1.453364 0,-0.6670289 -0.48807,-1.2527129 -1.122561,-1.2527129 -0.688721,0 -1.268982,0.667029 -1.268982,1.4479409 0,0.69414401 0.482647,1.258136 1.117138,1.258136 z m 0,-0.48806999 c -0.292842,0 -0.585684,-0.27114999 -0.585684,-0.77548901 0,-0.504339 0.330803,-0.9544479 0.715836,-0.9544479 0.341649,0 0.612799,0.3741869 0.612799,0.7917579 0,0.49891602 -0.352495,0.93817901 -0.742951,0.93817901 z" id="path145"/><path d="m 44.229505,0.032538 c 0.336226,0 0.710413,-0.178959 0.905641,-0.40130199 0.04338,-0.048807 0.06508,-0.097614 0.06508,-0.16269 0,-0.14099799 -0.10846,-0.24403499 -0.254881,-0.24403499 -0.0705,0 -0.130152,0.037961 -0.178959,0.086768 -0.119306,0.12472899 -0.298265,0.23318899 -0.536877,0.23318899 -0.309111,0 -0.59653,-0.12472899 -0.699567,-0.35249499 l 1.45336,-0.83514202 c 0.113883,-0.065076 0.168113,-0.16269 0.168113,-0.249458 0,-0.2548809 -0.32538,-0.7809119 -1.041216,-0.7809119 -0.742951,0 -1.225598,0.667029 -1.225598,1.3449039 0,0.85141101 0.580261,1.361173 1.344904,1.361173 z m -0.851411,-1.290674 c 0,-0.075922 0,-0.113883 0.01085,-0.195228 0.04338,-0.401302 0.336226,-0.7321049 0.75922,-0.7321049 0.211497,0 0.37961,0.075922 0.466378,0.227766 z" id="path147"/><path d="m 46.501736,0.032538 c 0.59653,0 0.970717,-0.42299399 0.970717,-0.82971898 0,-0.41214802 -0.21692,-0.59653002 -0.802604,-0.78091202 -0.390456,-0.124729 -0.547723,-0.206074 -0.547723,-0.3796099 0,-0.146421 0.130152,-0.260304 0.477224,-0.260304 0.276573,0 0.385033,0.092191 0.385033,0.21692 0,0.043384 -0.02712,0.081345 -0.02712,0.1301519 0,0.103037 0.09761,0.222343 0.254881,0.222343 0.173536,0 0.27115,-0.124729 0.27115,-0.3470719 0,-0.406725 -0.319957,-0.677875 -0.894795,-0.677875 -0.629068,0 -0.965294,0.319957 -0.965294,0.726682 0,0.4067249 0.249458,0.6344909 0.835142,0.8134499 0.406725,0.124729 0.504339,0.20065102 0.504339,0.36334102 0,0.157267 -0.151844,0.33622599 -0.450109,0.33622599 -0.27115,0 -0.455532,-0.140998 -0.531454,-0.36334099 -0.03254,-0.103037 -0.119306,-0.17895899 -0.244035,-0.17895899 -0.140998,0 -0.254881,0.11388299 -0.254881,0.25488099 0,0.19522799 0.330803,0.75379698 1.019524,0.75379698 z" id="path149"/><path d="m 48.2859,0.032538 c 0.16269,0 0.254881,-0.119306 0.254881,-0.27114999 v -0.45553199 c 0,-0.40130202 0.05965,-0.65076002 0.222343,-0.94360202 0.184382,-0.3362259 0.412148,-0.5314539 0.629068,-0.5314539 0.249458,0 0.357918,0.184382 0.357918,1.0466389 v 0.90021801 c 0,0.13015199 0.119306,0.25488099 0.260304,0.25488099 0.146421,0 0.249458,-0.124729 0.249458,-0.26030399 0,-0.309111 0.0054,-0.49349299 0.0054,-0.94902501 0,-1.1334069 -0.233189,-1.4967479 -0.824296,-1.4967479 -0.368764,0 -0.688721,0.233189 -0.894795,0.667029 v -0.412148 c 0,-0.146421 -0.113883,-0.260304 -0.249458,-0.260304 -0.140998,0 -0.27115,0.113883 -0.27115,0.260304 v 2.20173791 c 0,0.13015199 0.119306,0.24945799 0.260304,0.24945799 z" id="path151"/><path d="m 51.176356,-2.4295039 c 0.135575,0 0.260304,-0.113883 0.260304,-0.260304 v -0.661606 c 0,-0.140998 -0.124729,-0.260304 -0.260304,-0.260304 -0.146421,0 -0.260304,0.119306 -0.260304,0.260304 v 0.661606 c 0,0.146421 0.113883,0.260304 0.260304,0.260304 z" id="path153"/><path d="m 52.559218,0.037961 c 0.140998,0 0.260304,-0.113883 0.260304,-0.25488099 V -2.1529309 h 0.460955 c 0.146421,0 0.260304,-0.124729 0.260304,-0.260304 0,-0.151844 -0.113883,-0.265727 -0.260304,-0.265727 h -0.460955 v -0.580261 c 0,-0.135575 -0.103037,-0.265727 -0.260304,-0.265727 -0.146421,0 -0.260304,0.130152 -0.260304,0.265727 v 0.580261 h -0.417571 c -0.140998,0 -0.27115,0.103037 -0.27115,0.265727 0,0.135575 0.113883,0.260304 0.260304,0.260304 h 0.428417 v 1.93601091 c 0,0.14099799 0.124729,0.25488099 0.260304,0.25488099 z" id="path155"/></g>
        </g>
        <g transform="translate(28.5484,32.0055)" id="g20">
            <g aria-label="actually support graphics -" id="text18"><path d="m 2.1149699,0.086768 c 0.151844,0 0.260304,-0.130152 0.260304,-0.27115 v -2.2559679 c -0.140998,-0.065076 -0.4772239,-0.233189 -0.8676799,-0.233189 -0.80260402,0 -1.30152001,0.7863349 -1.30152001,1.5347089 0,0.69956701 0.45010899,1.171368 1.04663901,1.171368 0.21692,0 0.450109,-0.059653 0.618222,-0.23861199 v 0.075922 c 0,0.130152 0.097614,0.21692 0.2440349,0.21691999 z M 1.290674,-0.47180099 c -0.34707202,0 -0.55856902,-0.22776599 -0.55856902,-0.67787501 0,-0.531454 0.30911102,-1.0249469 0.78633502,-1.0249469 0.113883,0 0.249458,0.027115 0.341649,0.065076 L 1.84382,-0.69414398 c -0.113883,0.103037 -0.32538,0.22234299 -0.553146,0.22234299 z" id="path158"/><path d="m 4.1431686,0.032538 c 0.455532,0 0.829719,-0.25488099 1.019524,-0.50976199 0.043384,-0.05423 0.059653,-0.11388299 0.059653,-0.18438199 0,-0.124729 -0.113883,-0.238612 -0.254881,-0.238612 -0.103037,0 -0.184382,0.070499 -0.233189,0.135575 -0.124729,0.168113 -0.292842,0.30368799 -0.601953,0.30368799 -0.330803,0 -0.661606,-0.25488099 -0.661606,-0.70499001 0,-0.515185 0.374187,-1.0141009 0.721259,-1.0141009 0.21692,0 0.319957,0.103037 0.417571,0.211497 0.070499,0.086768 0.113883,0.1084599 0.206074,0.1084599 0.140998,0 0.260304,-0.1084599 0.260304,-0.2494579 0,-0.065076 -0.021692,-0.124729 -0.081345,-0.189805 -0.206074,-0.244035 -0.406725,-0.374187 -0.808027,-0.374187 -0.645337,0 -1.2255979,0.7754889 -1.2255979,1.5184399 0,0.66160601 0.5151849,1.187637 1.1822139,1.187637 z" id="path160"/><path d="m 6.1550981,0.037961 c 0.140998,0 0.260304,-0.113883 0.260304,-0.25488099 V -2.1529309 h 0.460955 c 0.146421,0 0.2603039,-0.124729 0.2603039,-0.260304 0,-0.151844 -0.1138829,-0.265727 -0.2603039,-0.265727 h -0.460955 v -0.580261 c 0,-0.135575 -0.103037,-0.265727 -0.260304,-0.265727 -0.146421,0 -0.260304,0.130152 -0.260304,0.265727 v 0.580261 h -0.417571 c -0.140998,0 -0.27115,0.103037 -0.27115,0.265727 0,0.135575 0.113883,0.260304 0.260304,0.260304 h 0.428417 v 1.93601091 c 0,0.14099799 0.124729,0.25488099 0.260304,0.25488099 z" id="path162"/><path d="m 8.204987,0.048807 c 0.32538,0 0.585684,-0.184382 0.770066,-0.31453399 v 0.059653 c 0,0.14642099 0.135575,0.23861199 0.276573,0.23861199 0.140998,0 0.260304,-0.124729 0.260304,-0.26030399 V -2.4295039 c 0,-0.146421 -0.124729,-0.249458 -0.260304,-0.249458 -0.124729,0 -0.254881,0.103037 -0.254881,0.249458 l -0.010846,1.54555492 c 0,0.065076 -0.010846,0.113883 -0.032538,0.135575 -0.092191,0.103037 -0.401302,0.30911099 -0.694144,0.30911099 -0.195228,0 -0.357918,-0.14642099 -0.357918,-0.94902501 0,-0.5477229 0.065076,-0.9436019 0.065076,-1.0357929 0,-0.173536 -0.1247289,-0.254881 -0.2603039,-0.254881 -0.157267,0 -0.227766,0.103037 -0.254881,0.276573 -0.037961,0.244035 -0.059653,0.6236449 -0.059653,0.8947949 0,1.28525101 0.265727,1.556401 0.8134499,1.556401 z" id="path164"/><path d="m 12.006508,0.086768 c 0.151844,0 0.260304,-0.130152 0.260304,-0.27115 v -2.2559679 c -0.140998,-0.065076 -0.477224,-0.233189 -0.86768,-0.233189 -0.802604,0 -1.30152,0.7863349 -1.30152,1.5347089 0,0.69956701 0.450109,1.171368 1.046639,1.171368 0.21692,0 0.450109,-0.059653 0.618222,-0.23861199 v 0.075922 c 0,0.130152 0.09761,0.21692 0.244035,0.21691999 z m -0.824296,-0.55856899 c -0.347072,0 -0.558569,-0.22776599 -0.558569,-0.67787501 0,-0.531454 0.309111,-1.0249469 0.786335,-1.0249469 0.113883,0 0.249458,0.027115 0.341649,0.065076 l -0.01627,1.41540292 c -0.113883,0.103037 -0.32538,0.22234299 -0.553146,0.22234299 z" id="path166"/><path d="m 13.286333,0.032538 c 0.124729,0 0.260304,-0.10846 0.260304,-0.24403499 V -3.3568369 c 0,-0.140998 -0.124729,-0.254881 -0.260304,-0.254881 -0.151844,0 -0.260304,0.113883 -0.260304,0.254881 v 3.14533991 c 0,0.13557499 0.124729,0.24403499 0.260304,0.24403499 z" id="path168"/><path d="m 14.566161,0.032538 c 0.124729,0 0.260304,-0.10846 0.260304,-0.24403499 V -3.3568369 c 0,-0.140998 -0.124729,-0.254881 -0.260304,-0.254881 -0.151844,0 -0.260304,0.113883 -0.260304,0.254881 v 3.14533991 c 0,0.13557499 0.124729,0.24403499 0.260304,0.24403499 z" id="path170"/><path d="m 15.959873,1.003255 c 0.113883,0 0.200651,-0.075922 0.244035,-0.16811302 l 1.447941,-3.14533988 c 0.01627,-0.032538 0.02169,-0.075922 0.02169,-0.10846 0,-0.151844 -0.10846,-0.265727 -0.238612,-0.265727 -0.113883,0 -0.206074,0.075922 -0.249458,0.168113 L 16.502173,-1.003255 15.73753,-2.5162719 c -0.03796,-0.075922 -0.119306,-0.16269 -0.249458,-0.16269 -0.151844,0 -0.27115,0.119306 -0.27115,0.265727 0,0.048807 0.01627,0.097614 0.03254,0.130152 l 0.970717,1.89262691 -0.471801,1.01410097 c -0.01627,0.037961 -0.02712,0.081345 -0.02712,0.113883 0,0.146421 0.10846,0.26572702 0.238612,0.26572702 z" id="path172"/><path d="m 20.780925,0.032538 c 0.59653,0 0.970717,-0.42299399 0.970717,-0.82971898 0,-0.41214802 -0.21692,-0.59653002 -0.802604,-0.78091202 -0.390456,-0.124729 -0.547723,-0.206074 -0.547723,-0.3796099 0,-0.146421 0.130152,-0.260304 0.477224,-0.260304 0.276573,0 0.385033,0.092191 0.385033,0.21692 0,0.043384 -0.02711,0.081345 -0.02711,0.1301519 0,0.103037 0.09761,0.222343 0.254881,0.222343 0.173536,0 0.27115,-0.124729 0.27115,-0.3470719 0,-0.406725 -0.319957,-0.677875 -0.894795,-0.677875 -0.629068,0 -0.965294,0.319957 -0.965294,0.726682 0,0.4067249 0.249458,0.6344909 0.835142,0.8134499 0.406725,0.124729 0.504339,0.20065102 0.504339,0.36334102 0,0.157267 -0.151844,0.33622599 -0.450109,0.33622599 -0.27115,0 -0.455532,-0.140998 -0.531454,-0.36334099 -0.03254,-0.103037 -0.119306,-0.17895899 -0.244035,-0.17895899 -0.140998,0 -0.254881,0.11388299 -0.254881,0.25488099 0,0.19522799 0.330803,0.75379698 1.019524,0.75379698 z" id="path174"/><path d="m 23.047734,0.048807 c 0.32538,0 0.585684,-0.184382 0.770066,-0.31453399 v 0.059653 c 0,0.14642099 0.135575,0.23861199 0.276573,0.23861199 0.140998,0 0.260304,-0.124729 0.260304,-0.26030399 V -2.4295039 c 0,-0.146421 -0.124729,-0.249458 -0.260304,-0.249458 -0.124729,0 -0.254881,0.103037 -0.254881,0.249458 l -0.01085,1.54555492 c 0,0.065076 -0.01085,0.113883 -0.03254,0.135575 -0.09219,0.103037 -0.401302,0.30911099 -0.694144,0.30911099 -0.195228,0 -0.357918,-0.14642099 -0.357918,-0.94902501 0,-0.5477229 0.06508,-0.9436019 0.06508,-1.0357929 0,-0.173536 -0.124729,-0.254881 -0.260304,-0.254881 -0.157267,0 -0.227766,0.103037 -0.254881,0.276573 -0.03796,0.244035 -0.05965,0.6236449 -0.05965,0.8947949 0,1.28525101 0.265727,1.556401 0.813449,1.556401 z" id="path176"/><path d="m 25.374199,0.99240897 c 0.135575,0 0.260304,-0.12472899 0.260304,-0.26030399 V -0.151844 c 0.168113,0.097614 0.32538,0.146421 0.515185,0.146421 0.965294,0 1.203906,-0.82971898 1.203906,-1.442518 0,-0.8242959 -0.48807,-1.2310209 -0.911064,-1.2310209 -0.352495,0 -0.623645,0.097614 -0.81345,0.314534 v -0.059653 c 0,-0.16269 -0.140998,-0.254881 -0.249458,-0.254881 -0.151844,0 -0.265727,0.113883 -0.265727,0.265727 v 3.14533988 c 0,0.135575 0.119306,0.26030399 0.260304,0.26030399 z m 0.808027,-1.49674796 c -0.206074,0 -0.422994,-0.081345 -0.547723,-0.13015199 V -1.838397 c 0.09761,-0.1247289 0.341649,-0.3524949 0.764643,-0.3524949 0.249458,0 0.460955,0.260304 0.460955,0.7429509 0,0.64533702 -0.27115,0.94360201 -0.677875,0.94360201 z" id="path178"/><path d="m 28.199582,0.99240897 c 0.135575,0 0.260304,-0.12472899 0.260304,-0.26030399 V -0.151844 c 0.168113,0.097614 0.32538,0.146421 0.515185,0.146421 0.965294,0 1.203906,-0.82971898 1.203906,-1.442518 0,-0.8242959 -0.48807,-1.2310209 -0.911064,-1.2310209 -0.352495,0 -0.623645,0.097614 -0.81345,0.314534 v -0.059653 c 0,-0.16269 -0.140998,-0.254881 -0.249458,-0.254881 -0.151844,0 -0.265727,0.113883 -0.265727,0.265727 v 3.14533988 c 0,0.135575 0.119306,0.26030399 0.260304,0.26030399 z m 0.808027,-1.49674796 c -0.206074,0 -0.422994,-0.081345 -0.547723,-0.13015199 V -1.838397 c 0.09761,-0.1247289 0.341649,-0.3524949 0.764643,-0.3524949 0.249458,0 0.460955,0.260304 0.460955,0.7429509 0,0.64533702 -0.27115,0.94360201 -0.677875,0.94360201 z" id="path180"/><path d="m 31.708262,0.032538 c 0.688721,0 1.274405,-0.66160598 1.274405,-1.453364 0,-0.6670289 -0.48807,-1.2527129 -1.122561,-1.2527129 -0.688721,0 -1.268982,0.667029 -1.268982,1.4479409 0,0.69414401 0.482647,1.258136 1.117138,1.258136 z m 0,-0.48806999 c -0.292842,0 -0.585684,-0.27114999 -0.585684,-0.77548901 0,-0.504339 0.330803,-0.9544479 0.715836,-0.9544479 0.341649,0 0.612799,0.3741869 0.612799,0.7917579 0,0.49891602 -0.352495,0.93817901 -0.742951,0.93817901 z" id="path182"/><path d="m 33.834081,0.032538 c 0.130152,0 0.260304,-0.119306 0.260304,-0.24945799 l 0.0054,-1.03037001 c 0,-0.222343 0.02169,-0.412148 0.184382,-0.618222 0.09219,-0.1247289 0.287419,-0.3036879 0.43384,-0.3036879 0.09219,0 0.119306,0.032538 0.119306,0.086768 v 0.070499 c 0,0.1247289 0.06508,0.2603039 0.254881,0.2603039 0.146421,0 0.254881,-0.113883 0.254881,-0.2548809 v -0.16269 c 0,-0.233189 -0.113883,-0.515185 -0.520608,-0.515185 -0.319957,0 -0.558569,0.157267 -0.726682,0.43384 v -0.16269 c 0,-0.146421 -0.119306,-0.260304 -0.265727,-0.260304 -0.140998,0 -0.265727,0.113883 -0.265727,0.260304 v 2.19631491 c 0,0.13015199 0.130152,0.24945799 0.265727,0.24945799 z" id="path184"/><path d="m 36.225621,0.037961 c 0.140998,0 0.260304,-0.113883 0.260304,-0.25488099 V -2.1529309 h 0.460955 c 0.146421,0 0.260304,-0.124729 0.260304,-0.260304 0,-0.151844 -0.113883,-0.265727 -0.260304,-0.265727 h -0.460955 v -0.580261 c 0,-0.135575 -0.103037,-0.265727 -0.260304,-0.265727 -0.146421,0 -0.260304,0.130152 -0.260304,0.265727 v 0.580261 h -0.417571 c -0.140998,0 -0.27115,0.103037 -0.27115,0.265727 0,0.135575 0.113883,0.260304 0.260304,0.260304 h 0.428417 v 1.93601091 c 0,0.14099799 0.124729,0.25488099 0.260304,0.25488099 z" id="path186"/><path d="m 40.390485,0.94360198 c 0.639914,0 1.117138,-0.347072 1.133407,-1.12256098 l 0.05423,-2.2885059 c 0.0054,-0.200651 -0.119306,-0.265727 -0.254881,-0.265727 -0.140998,0 -0.222343,0.05423 -0.249458,0.151844 -0.124729,-0.048807 -0.281996,-0.097614 -0.450109,-0.097614 -0.732105,0 -1.290674,0.683298 -1.290674,1.4587869 0,0.77006601 0.531454,1.203906 1.095446,1.203906 0.222343,0 0.439263,-0.081345 0.569415,-0.24945799 l -0.01085,0.13015199 c -0.02712,0.33622599 -0.200651,0.55856899 -0.601953,0.55856899 -0.298265,0 -0.444686,-0.070499 -0.574838,-0.070499 -0.135575,0 -0.260304,0.113883 -0.260304,0.26030399 0,0.124729 0.08677,0.227766 0.200651,0.254881 0.16269,0.037961 0.395879,0.075922 0.639914,0.075922 z m 0.0054,-1.46963297 c -0.309111,0 -0.569415,-0.27657299 -0.569415,-0.73210501 0,-0.515185 0.368764,-0.9002179 0.818873,-0.9002179 0.130152,0 0.287419,0.043384 0.385033,0.097614 v 0.6561829 c 0,0.61822202 -0.249458,0.87852601 -0.634491,0.87852601 z" id="path188"/><path d="m 42.700684,0.032538 c 0.130152,0 0.260304,-0.119306 0.260304,-0.24945799 l 0.0054,-1.03037001 c 0,-0.222343 0.02169,-0.412148 0.184382,-0.618222 0.09219,-0.1247289 0.287419,-0.3036879 0.43384,-0.3036879 0.09219,0 0.119306,0.032538 0.119306,0.086768 v 0.070499 c 0,0.1247289 0.06508,0.2603039 0.254881,0.2603039 0.146421,0 0.254881,-0.113883 0.254881,-0.2548809 v -0.16269 c 0,-0.233189 -0.113883,-0.515185 -0.520608,-0.515185 -0.319957,0 -0.558569,0.157267 -0.726682,0.43384 v -0.16269 c 0,-0.146421 -0.119306,-0.260304 -0.265727,-0.260304 -0.140998,0 -0.265727,0.113883 -0.265727,0.260304 v 2.19631491 c 0,0.13015199 0.130152,0.24945799 0.265727,0.24945799 z" id="path190"/><path d="m 46.192969,0.086768 c 0.151844,0 0.260304,-0.130152 0.260304,-0.27115 v -2.2559679 c -0.140998,-0.065076 -0.477224,-0.233189 -0.86768,-0.233189 -0.802604,0 -1.30152,0.7863349 -1.30152,1.5347089 0,0.69956701 0.450109,1.171368 1.046639,1.171368 0.21692,0 0.450109,-0.059653 0.618222,-0.23861199 v 0.075922 c 0,0.130152 0.09761,0.21692 0.244035,0.21691999 z m -0.824296,-0.55856899 c -0.347072,0 -0.558569,-0.22776599 -0.558569,-0.67787501 0,-0.531454 0.309111,-1.0249469 0.786335,-1.0249469 0.113883,0 0.249458,0.027115 0.341649,0.065076 l -0.01627,1.41540292 c -0.113883,0.103037 -0.32538,0.22234299 -0.553145,0.22234299 z" id="path192"/><path d="m 47.472794,0.99240897 c 0.135575,0 0.260304,-0.12472899 0.260304,-0.26030399 V -0.151844 c 0.168113,0.097614 0.32538,0.146421 0.515185,0.146421 0.965294,0 1.203906,-0.82971898 1.203906,-1.442518 0,-0.8242959 -0.48807,-1.2310209 -0.911064,-1.2310209 -0.352495,0 -0.623645,0.097614 -0.81345,0.314534 v -0.059653 c 0,-0.16269 -0.140998,-0.254881 -0.249458,-0.254881 -0.151844,0 -0.265727,0.113883 -0.265727,0.265727 v 3.14533988 c 0,0.135575 0.119306,0.26030399 0.260304,0.26030399 z m 0.808027,-1.49674796 c -0.206074,0 -0.422994,-0.081345 -0.547723,-0.13015199 V -1.838397 c 0.09761,-0.1247289 0.341649,-0.3524949 0.764643,-0.3524949 0.249458,0 0.460955,0.260304 0.460955,0.7429509 0,0.64533702 -0.27115,0.94360201 -0.677875,0.94360201 z" id="path194"/><path d="m 50.298176,0.037961 c 0.140998,0 0.260304,-0.097614 0.260304,-0.27114999 V -1.041216 c 0,-0.146421 0.01627,-0.276573 0.06508,-0.385033 0.05965,-0.130152 0.412148,-0.7429509 0.764643,-0.7429509 0.124729,0 0.292842,0.140998 0.292842,1.31778892 0,0.34164899 -0.01085,0.48806999 -0.01085,0.62906799 0,0.14099799 0.09761,0.25488099 0.254881,0.25488099 0.140998,0 0.249458,-0.10846 0.254881,-0.24403499 0.01627,-0.151844 0.01627,-0.347072 0.01627,-0.67787499 0,-1.19848292 -0.189805,-1.79501292 -0.775489,-1.79501292 -0.319957,0 -0.634491,0.21692 -0.862257,0.504339 v -1.165945 c 0,-0.140998 -0.09761,-0.265727 -0.249458,-0.265727 -0.151844,0 -0.27115,0.124729 -0.27115,0.265727 v 3.12364791 c 0,0.13557499 0.124729,0.26030399 0.260303,0.26030399 z" id="path196"/><path d="m 53.194057,-2.9013049 c 0.146421,0 0.254881,-0.10846 0.260304,-0.254881 l 0.0054,-0.206074 c 0.0054,-0.130152 -0.119306,-0.260304 -0.254881,-0.260304 -0.135575,0 -0.254881,0.113883 -0.260304,0.254881 l -0.0054,0.200651 c -0.0054,0.140998 0.119306,0.265727 0.254881,0.265727 z m -0.02712,2.9338429 c 0.140998,0 0.265727,-0.119306 0.265727,-0.26572699 l 0.02712,-2.15835391 c 0,-0.146421 -0.113883,-0.265727 -0.265727,-0.265727 -0.140998,0 -0.265727,0.119306 -0.265727,0.265727 l -0.02712,2.15835391 c 0,0.14642099 0.119306,0.26572699 0.265727,0.26572699 z" id="path198"/><path d="m 55.227683,0.032538 c 0.455532,0 0.829719,-0.25488099 1.019524,-0.50976199 0.04338,-0.05423 0.05965,-0.11388299 0.05965,-0.18438199 0,-0.124729 -0.113883,-0.238612 -0.254881,-0.238612 -0.103037,0 -0.184382,0.070499 -0.233189,0.135575 -0.124729,0.168113 -0.292842,0.30368799 -0.601953,0.30368799 -0.330803,0 -0.661606,-0.25488099 -0.661606,-0.70499001 0,-0.515185 0.374187,-1.0141009 0.721259,-1.0141009 0.21692,0 0.319957,0.103037 0.417571,0.211497 0.0705,0.086768 0.113883,0.1084599 0.206074,0.1084599 0.140998,0 0.260304,-0.1084599 0.260304,-0.2494579 0,-0.065076 -0.02169,-0.124729 -0.08134,-0.189805 -0.206074,-0.244035 -0.406725,-0.374187 -0.808027,-0.374187 -0.645337,0 -1.225598,0.7754889 -1.225598,1.5184399 0,0.66160601 0.515185,1.187637 1.182214,1.187637 z" id="path200"/><path d="m 57.548723,0.032538 c 0.59653,0 0.970717,-0.42299399 0.970717,-0.82971898 0,-0.41214802 -0.21692,-0.59653002 -0.802604,-0.78091202 -0.390456,-0.124729 -0.547723,-0.206074 -0.547723,-0.3796099 0,-0.146421 0.130152,-0.260304 0.477224,-0.260304 0.276573,0 0.385033,0.092191 0.385033,0.21692 0,0.043384 -0.02712,0.081345 -0.02712,0.1301519 0,0.103037 0.09761,0.222343 0.254881,0.222343 0.173536,0 0.27115,-0.124729 0.27115,-0.3470719 0,-0.406725 -0.319957,-0.677875 -0.894795,-0.677875 -0.629068,0 -0.965294,0.319957 -0.965294,0.726682 0,0.4067249 0.249458,0.6344909 0.835142,0.8134499 0.406725,0.124729 0.504339,0.20065102 0.504339,0.36334102 0,0.157267 -0.151844,0.33622599 -0.450109,0.33622599 -0.27115,0 -0.455532,-0.140998 -0.531454,-0.36334099 -0.03254,-0.103037 -0.119306,-0.17895899 -0.244035,-0.17895899 -0.140998,0 -0.254881,0.11388299 -0.254881,0.25488099 0,0.19522799 0.330803,0.75379698 1.019524,0.75379698 z" id="path202"/><path d="m 61.12248,-1.068331 h 1.220175 c 0.140998,0 0.254881,-0.119306 0.254881,-0.254881 0,-0.140998 -0.113883,-0.254881 -0.254881,-0.254881 H 61.12248 c -0.130152,0 -0.254881,0.113883 -0.254881,0.254881 0,0.135575 0.124729,0.254881 0.254881,0.254881 z" id="path204"/></g>
        </g>
        <g transform="translate(28.5484,37.6545)" id="g24">
            <g aria-label="it just zooms out the" id="text22"><path d="m 0.67245198,-2.9013049 c 0.146421,0 0.254881,-0.10846 0.260304,-0.254881 l 0.005423,-0.206074 c 0.005423,-0.130152 -0.119306,-0.260304 -0.254881,-0.260304 -0.13557499,0 -0.25488099,0.113883 -0.26030399,0.254881 l -0.005423,0.200651 c -0.005423,0.140998 0.119306,0.265727 0.25488099,0.265727 z m -0.027115,2.9338429 c 0.140998,0 0.265727,-0.119306 0.265727,-0.26572699 l 0.027115,-2.15835391 c 0,-0.146421 -0.113883,-0.265727 -0.265727,-0.265727 -0.14099799,0 -0.26572699,0.119306 -0.26572699,0.265727 l -0.027115,2.15835391 c 0,0.14642099 0.119306,0.26572699 0.26572699,0.26572699 z" id="path207"/><path d="m 2.1692001,0.037961 c 0.140998,0 0.2603039,-0.113883 0.2603039,-0.25488099 V -2.1529309 h 0.460955 c 0.146421,0 0.260304,-0.124729 0.260304,-0.260304 0,-0.151844 -0.113883,-0.265727 -0.260304,-0.265727 H 2.429504 v -0.580261 c 0,-0.135575 -0.1030369,-0.265727 -0.2603039,-0.265727 -0.146421,0 -0.260304,0.130152 -0.260304,0.265727 v 0.580261 h -0.417571 c -0.140998,0 -0.27115,0.103037 -0.27115,0.265727 0,0.135575 0.113883,0.260304 0.260304,0.260304 h 0.428417 v 1.93601091 c 0,0.14099799 0.124729,0.25488099 0.260304,0.25488099 z" id="path209"/><path d="m 5.775495,-2.9446889 c 0.10846,0 0.254881,-0.070499 0.265727,-0.211497 l 0.021692,-0.233189 c 0.010846,-0.130152 -0.086768,-0.276573 -0.254881,-0.276573 -0.119306,0 -0.2494579,0.081345 -0.2603039,0.21692 l -0.021692,0.233189 c -0.010846,0.135575 0.097614,0.27115 0.2494579,0.27115 z M 5.3470781,0.92190998 c 0.4067249,0 0.6995669,-0.32538 0.6995669,-1.00325498 0,-0.40672499 -0.027115,-1.9848179 -0.027115,-2.3427359 0,-0.140998 -0.124729,-0.260304 -0.260304,-0.260304 -0.1572669,0 -0.2603039,0.113883 -0.2603039,0.265727 0,0.406725 0.032538,1.99024091 0.032538,2.4511959 0,0.26572699 -0.081345,0.39587899 -0.206074,0.39587899 -0.097614,0 -0.184382,-0.070499 -0.238612,-0.200651 C 5.0433901,0.124729 4.9728911,0.043384 4.8373161,0.043384 c -0.157267,0 -0.265727,0.124729 -0.265727,0.25488099 0,0.037961 0.037961,0.119306 0.059653,0.157267 0.119306,0.21149699 0.390456,0.46637799 0.715836,0.46637799 z" id="path211"/><path d="m 7.565083,0.048807 c 0.32538,0 0.585684,-0.184382 0.770066,-0.31453399 v 0.059653 c 0,0.14642099 0.135575,0.23861199 0.276573,0.23861199 0.140998,0 0.260304,-0.124729 0.260304,-0.26030399 V -2.4295039 c 0,-0.146421 -0.124729,-0.249458 -0.260304,-0.249458 -0.124729,0 -0.254881,0.103037 -0.254881,0.249458 l -0.010846,1.54555492 c 0,0.065076 -0.010846,0.113883 -0.032538,0.135575 -0.092191,0.103037 -0.401302,0.30911099 -0.694144,0.30911099 -0.195228,0 -0.357918,-0.14642099 -0.357918,-0.94902501 0,-0.5477229 0.065076,-0.9436019 0.065076,-1.0357929 0,-0.173536 -0.124729,-0.254881 -0.260304,-0.254881 -0.157267,0 -0.227766,0.103037 -0.254881,0.276573 -0.037961,0.244035 -0.059653,0.6236449 -0.059653,0.8947949 0,1.28525101 0.265727,1.556401 0.81345,1.556401 z" id="path213"/><path d="m 10.412157,0.032538 c 0.59653,0 0.970717,-0.42299399 0.970717,-0.82971898 0,-0.41214802 -0.21692,-0.59653002 -0.802604,-0.78091202 -0.390456,-0.124729 -0.547723,-0.206074 -0.547723,-0.3796099 0,-0.146421 0.130152,-0.260304 0.477224,-0.260304 0.276573,0 0.385033,0.092191 0.385033,0.21692 0,0.043384 -0.02712,0.081345 -0.02712,0.1301519 0,0.103037 0.09761,0.222343 0.254881,0.222343 0.173536,0 0.27115,-0.124729 0.27115,-0.3470719 0,-0.406725 -0.319957,-0.677875 -0.894795,-0.677875 -0.6290684,0 -0.9652944,0.319957 -0.9652944,0.726682 0,0.4067249 0.249458,0.6344909 0.8351424,0.8134499 0.406725,0.124729 0.504339,0.20065102 0.504339,0.36334102 0,0.157267 -0.151844,0.33622599 -0.450109,0.33622599 -0.27115,0 -0.4555324,-0.140998 -0.5314544,-0.36334099 -0.032538,-0.103037 -0.119306,-0.17895899 -0.244035,-0.17895899 -0.140998,0 -0.254881,0.11388299 -0.254881,0.25488099 0,0.19522799 0.330803,0.75379698 1.0195244,0.75379698 z" id="path215"/><path d="m 12.407816,0.037961 c 0.140998,0 0.260304,-0.113883 0.260304,-0.25488099 V -2.1529309 h 0.460955 c 0.146421,0 0.260304,-0.124729 0.260304,-0.260304 0,-0.151844 -0.113883,-0.265727 -0.260304,-0.265727 H 12.66812 v -0.580261 c 0,-0.135575 -0.103037,-0.265727 -0.260304,-0.265727 -0.146421,0 -0.260304,0.130152 -0.260304,0.265727 v 0.580261 h -0.417571 c -0.140998,0 -0.27115,0.103037 -0.27115,0.265727 0,0.135575 0.113883,0.260304 0.260304,0.260304 h 0.428417 v 1.93601091 c 0,0.14099799 0.124729,0.25488099 0.260304,0.25488099 z" id="path217"/><path d="m 15.564002,0 h 1.724514 c 0.140998,0 0.260304,-0.124729 0.260304,-0.26030399 0,-0.140998 -0.119306,-0.260304 -0.260304,-0.260304 h -1.209329 l 1.377442,-1.70824491 c 0.04338,-0.05423 0.05423,-0.103037 0.05423,-0.157267 0,-0.140998 -0.09761,-0.265727 -0.260304,-0.265727 h -1.648592 c -0.146421,0 -0.260304,0.124729 -0.260304,0.265727 0,0.146421 0.113883,0.260304 0.260304,0.260304 h 1.133407 l -1.377442,1.70824491 c -0.04338,0.05423 -0.05423,0.119306 -0.05423,0.157267 C 15.303698,-0.124729 15.390466,0 15.564002,0 Z" id="path219"/><path d="m 18.817808,0.032538 c 0.688721,0 1.274405,-0.66160598 1.274405,-1.453364 0,-0.6670289 -0.48807,-1.2527129 -1.122561,-1.2527129 -0.688721,0 -1.268982,0.667029 -1.268982,1.4479409 0,0.69414401 0.482647,1.258136 1.117138,1.258136 z m 0,-0.48806999 c -0.292842,0 -0.585684,-0.27114999 -0.585684,-0.77548901 0,-0.504339 0.330803,-0.9544479 0.715836,-0.9544479 0.341649,0 0.612799,0.3741869 0.612799,0.7917579 0,0.49891602 -0.352495,0.93817901 -0.742951,0.93817901 z" id="path221"/><path d="m 21.6215,0.032538 c 0.688721,0 1.274405,-0.66160598 1.274405,-1.453364 0,-0.6670289 -0.48807,-1.2527129 -1.122561,-1.2527129 -0.688721,0 -1.268982,0.667029 -1.268982,1.4479409 0,0.69414401 0.482647,1.258136 1.117138,1.258136 z m 0,-0.48806999 c -0.292842,0 -0.585684,-0.27114999 -0.585684,-0.77548901 0,-0.504339 0.330803,-0.9544479 0.715836,-0.9544479 0.341649,0 0.612799,0.3741869 0.612799,0.7917579 0,0.49891602 -0.352495,0.93817901 -0.742951,0.93817901 z" id="path223"/><path d="m 23.741894,0.032538 c 0.140998,0 0.260304,-0.113883 0.260304,-0.25488099 l -0.0054,-0.79718101 c 0,-0.265727 0.06508,-0.471801 0.189805,-0.683298 0.140998,-0.2223429 0.37961,-0.4718009 0.634491,-0.4718009 0.189805,0 0.265727,0.157267 0.265727,0.4989159 v 1.45336401 c 0,0.14099799 0.124729,0.25488099 0.260304,0.25488099 0.146421,0 0.260304,-0.113883 0.260304,-0.25488099 V -1.231021 c 0,-0.547723 0.357918,-0.9436019 0.672452,-0.9436019 0.206074,0 0.292842,0.168113 0.292842,0.4989159 v 1.45336401 c 0,0.14099799 0.119306,0.25488099 0.260304,0.25488099 0.135575,0 0.260304,-0.113883 0.260304,-0.25488099 V -1.643169 c 0,-0.7104129 -0.292842,-1.0303699 -0.726682,-1.0303699 -0.363341,0 -0.639914,0.211497 -0.845988,0.520608 -0.09761,-0.357918 -0.341649,-0.520608 -0.623645,-0.520608 -0.368764,0 -0.672452,0.21692 -0.894795,0.639914 v -0.37961 c 0,-0.135575 -0.113883,-0.260304 -0.260304,-0.260304 -0.135575,0 -0.260304,0.124729 -0.260304,0.260304 v 2.19089191 c 0,0.14099799 0.124729,0.25488099 0.260304,0.25488099 z" id="path225"/><path d="m 28.579208,0.032538 c 0.59653,0 0.970717,-0.42299399 0.970717,-0.82971898 0,-0.41214802 -0.21692,-0.59653002 -0.802604,-0.78091202 -0.390456,-0.124729 -0.547723,-0.206074 -0.547723,-0.3796099 0,-0.146421 0.130152,-0.260304 0.477224,-0.260304 0.276573,0 0.385033,0.092191 0.385033,0.21692 0,0.043384 -0.02712,0.081345 -0.02712,0.1301519 0,0.103037 0.09761,0.222343 0.254881,0.222343 0.173536,0 0.27115,-0.124729 0.27115,-0.3470719 0,-0.406725 -0.319957,-0.677875 -0.894795,-0.677875 -0.629068,0 -0.965294,0.319957 -0.965294,0.726682 0,0.4067249 0.249458,0.6344909 0.835142,0.8134499 0.406725,0.124729 0.504339,0.20065102 0.504339,0.36334102 0,0.157267 -0.151844,0.33622599 -0.450109,0.33622599 -0.27115,0 -0.455532,-0.140998 -0.531454,-0.36334099 -0.03254,-0.103037 -0.119306,-0.17895899 -0.244035,-0.17895899 -0.140998,0 -0.254881,0.11388299 -0.254881,0.25488099 0,0.19522799 0.330803,0.75379698 1.019524,0.75379698 z" id="path227"/><path d="m 32.977261,0.032538 c 0.688721,0 1.274405,-0.66160598 1.274405,-1.453364 0,-0.6670289 -0.48807,-1.2527129 -1.122561,-1.2527129 -0.688721,0 -1.268982,0.667029 -1.268982,1.4479409 0,0.69414401 0.482647,1.258136 1.117138,1.258136 z m 0,-0.48806999 c -0.292842,0 -0.585684,-0.27114999 -0.585684,-0.77548901 0,-0.504339 0.330803,-0.9544479 0.715836,-0.9544479 0.341649,0 0.612799,0.3741869 0.612799,0.7917579 0,0.49891602 -0.352495,0.93817901 -0.742951,0.93817901 z" id="path229"/><path d="m 35.580302,0.048807 c 0.32538,0 0.585684,-0.184382 0.770066,-0.31453399 v 0.059653 c 0,0.14642099 0.135575,0.23861199 0.276573,0.23861199 0.140998,0 0.260304,-0.124729 0.260304,-0.26030399 V -2.4295039 c 0,-0.146421 -0.124729,-0.249458 -0.260304,-0.249458 -0.124729,0 -0.254881,0.103037 -0.254881,0.249458 l -0.01085,1.54555492 c 0,0.065076 -0.01085,0.113883 -0.03254,0.135575 -0.09219,0.103037 -0.401302,0.30911099 -0.694144,0.30911099 -0.195228,0 -0.357918,-0.14642099 -0.357918,-0.94902501 0,-0.5477229 0.06508,-0.9436019 0.06508,-1.0357929 0,-0.173536 -0.124729,-0.254881 -0.260304,-0.254881 -0.157267,0 -0.227766,0.103037 -0.254881,0.276573 -0.03796,0.244035 -0.05965,0.6236449 -0.05965,0.8947949 0,1.28525101 0.265727,1.556401 0.81345,1.556401 z" id="path231"/><path d="m 38.118264,0.037961 c 0.140998,0 0.260304,-0.113883 0.260304,-0.25488099 V -2.1529309 h 0.460955 c 0.146421,0 0.260304,-0.124729 0.260304,-0.260304 0,-0.151844 -0.113883,-0.265727 -0.260304,-0.265727 h -0.460955 v -0.580261 c 0,-0.135575 -0.103037,-0.265727 -0.260304,-0.265727 -0.146421,0 -0.260304,0.130152 -0.260304,0.265727 v 0.580261 h -0.417571 c -0.140998,0 -0.27115,0.103037 -0.27115,0.265727 0,0.135575 0.113883,0.260304 0.260304,0.260304 h 0.428417 v 1.93601091 c 0,0.14099799 0.124729,0.25488099 0.260304,0.25488099 z" id="path233"/><path d="m 41.827596,0.037961 c 0.140998,0 0.260304,-0.113883 0.260304,-0.25488099 V -2.1529309 h 0.460955 c 0.146421,0 0.260304,-0.124729 0.260304,-0.260304 0,-0.151844 -0.113883,-0.265727 -0.260304,-0.265727 H 42.0879 v -0.580261 c 0,-0.135575 -0.103037,-0.265727 -0.260304,-0.265727 -0.146421,0 -0.260304,0.130152 -0.260304,0.265727 v 0.580261 h -0.417571 c -0.140998,0 -0.27115,0.103037 -0.27115,0.265727 0,0.135575 0.113883,0.260304 0.260304,0.260304 h 0.428417 v 1.93601091 c 0,0.14099799 0.124729,0.25488099 0.260304,0.25488099 z" id="path235"/><path d="m 43.394839,0.037961 c 0.140998,0 0.260304,-0.097614 0.260304,-0.27114999 V -1.041216 c 0,-0.146421 0.01627,-0.276573 0.06508,-0.385033 0.05965,-0.130152 0.412148,-0.7429509 0.764643,-0.7429509 0.124729,0 0.292842,0.140998 0.292842,1.31778892 0,0.34164899 -0.01085,0.48806999 -0.01085,0.62906799 0,0.14099799 0.09761,0.25488099 0.254881,0.25488099 0.140998,0 0.249458,-0.10846 0.254881,-0.24403499 0.01627,-0.151844 0.01627,-0.347072 0.01627,-0.67787499 0,-1.19848292 -0.189805,-1.79501292 -0.775489,-1.79501292 -0.319957,0 -0.634491,0.21692 -0.862257,0.504339 v -1.165945 c 0,-0.140998 -0.09761,-0.265727 -0.249458,-0.265727 -0.151844,0 -0.27115,0.124729 -0.27115,0.265727 v 3.12364791 c 0,0.13557499 0.124729,0.26030399 0.260303,0.26030399 z" id="path237"/><path d="m 47.169245,0.032538 c 0.336226,0 0.710413,-0.178959 0.905641,-0.40130199 0.04338,-0.048807 0.06508,-0.097614 0.06508,-0.16269 0,-0.14099799 -0.10846,-0.24403499 -0.254881,-0.24403499 -0.0705,0 -0.130152,0.037961 -0.178959,0.086768 -0.119306,0.12472899 -0.298265,0.23318899 -0.536877,0.23318899 -0.309111,0 -0.59653,-0.12472899 -0.699567,-0.35249499 l 1.45336,-0.83514202 c 0.113883,-0.065076 0.168113,-0.16269 0.168113,-0.249458 0,-0.2548809 -0.32538,-0.7809119 -1.041216,-0.7809119 -0.742951,0 -1.225598,0.667029 -1.225598,1.3449039 0,0.85141101 0.580261,1.361173 1.344904,1.361173 z m -0.851411,-1.290674 c 0,-0.075922 0,-0.113883 0.01085,-0.195228 0.04338,-0.401302 0.336226,-0.7321049 0.75922,-0.7321049 0.211497,0 0.37961,0.075922 0.466378,0.227766 z" id="path239"/></g>
        </g>
        <g transform="translate(28.5484,43.3035)" id="g32">
            <g aria-label="terminal so all the letters" id="text30"><path d="m 0.85141098,0.037961 c 0.14099799,0 0.26030402,-0.113883 0.26030402,-0.25488099 V -2.1529309 H 1.57267 c 0.146421,0 0.260304,-0.124729 0.260304,-0.260304 0,-0.151844 -0.113883,-0.265727 -0.260304,-0.265727 H 1.111715 v -0.580261 c 0,-0.135575 -0.103037,-0.265727 -0.26030402,-0.265727 -0.146421,0 -0.260304,0.130152 -0.260304,0.265727 v 0.580261 H 0.173536 c -0.140998,0 -0.27115,0.103037 -0.27115,0.265727 0,0.135575 0.113883,0.260304 0.260304,0.260304 h 0.42841698 v 1.93601091 c 0,0.14099799 0.124729,0.25488099 0.260304,0.25488099 z" id="path242"/><path d="m 3.199978,0.032538 c 0.336226,0 0.710413,-0.178959 0.905641,-0.40130199 0.043384,-0.048807 0.065076,-0.097614 0.065076,-0.16269 0,-0.14099799 -0.10846,-0.24403499 -0.254881,-0.24403499 -0.070499,0 -0.130152,0.037961 -0.178959,0.086768 -0.119306,0.12472899 -0.298265,0.23318899 -0.536877,0.23318899 -0.309111,0 -0.59653,-0.12472899 -0.699567,-0.35249499 L 3.953775,-1.643169 c 0.113883,-0.065076 0.168113,-0.16269 0.168113,-0.249458 0,-0.2548809 -0.32538,-0.7809119 -1.041216,-0.7809119 -0.742951,0 -1.225598,0.667029 -1.225598,1.3449039 0,0.85141101 0.580261,1.361173 1.344904,1.361173 z M 2.348567,-1.258136 c 0,-0.075922 0,-0.113883 0.010846,-0.195228 0.043384,-0.401302 0.336226,-0.7321049 0.75922,-0.7321049 0.211497,0 0.37961,0.075922 0.466378,0.227766 z" id="path244"/><path d="m 4.9570258,0.032538 c 0.130152,0 0.260304,-0.119306 0.260304,-0.24945799 L 5.2227528,-1.24729 c 0,-0.222343 0.021692,-0.412148 0.184382,-0.618222 0.092191,-0.1247289 0.2874189,-0.3036879 0.4338399,-0.3036879 0.092191,0 0.119306,0.032538 0.119306,0.086768 v 0.070499 c 0,0.1247289 0.065076,0.2603039 0.254881,0.2603039 0.146421,0 0.254881,-0.113883 0.254881,-0.2548809 v -0.16269 c 0,-0.233189 -0.113883,-0.515185 -0.520608,-0.515185 -0.319957,0 -0.5585689,0.157267 -0.7266819,0.43384 v -0.16269 c 0,-0.146421 -0.119306,-0.260304 -0.265727,-0.260304 -0.140998,0 -0.265727,0.113883 -0.265727,0.260304 v 2.19631491 c 0,0.13015199 0.130152,0.24945799 0.265727,0.24945799 z" id="path246"/><path d="m 7.137071,0.032538 c 0.140998,0 0.260304,-0.113883 0.260304,-0.25488099 L 7.391952,-1.019524 c 0,-0.265727 0.065076,-0.471801 0.1898049,-0.683298 0.140998,-0.2223429 0.37961,-0.4718009 0.634491,-0.4718009 0.189805,0 0.265727,0.157267 0.265727,0.4989159 v 1.45336401 c 0,0.14099799 0.124729,0.25488099 0.260304,0.25488099 0.146421,0 0.260304,-0.113883 0.260304,-0.25488099 V -1.231021 c 0,-0.547723 0.357918,-0.9436019 0.672452,-0.9436019 0.206074,0 0.292842,0.168113 0.292842,0.4989159 v 1.45336401 c 0,0.14099799 0.1193061,0.25488099 0.2603041,0.25488099 0.135575,0 0.260304,-0.113883 0.260304,-0.25488099 V -1.643169 c 0,-0.7104129 -0.292842,-1.0303699 -0.7266821,-1.0303699 -0.363341,0 -0.639914,0.211497 -0.845988,0.520608 -0.097614,-0.357918 -0.341649,-0.520608 -0.623645,-0.520608 -0.368764,0 -0.672452,0.21692 -0.8947949,0.639914 v -0.37961 c 0,-0.135575 -0.113883,-0.260304 -0.260304,-0.260304 -0.135575,0 -0.260304,0.124729 -0.260304,0.260304 v 2.19089191 c 0,0.14099799 0.124729,0.25488099 0.260304,0.25488099 z" id="path248"/><path d="m 11.486314,-2.9013049 c 0.146421,0 0.254881,-0.10846 0.260304,-0.254881 l 0.0054,-0.206074 c 0.0054,-0.130152 -0.119306,-0.260304 -0.254881,-0.260304 -0.135575,0 -0.254881,0.113883 -0.260304,0.254881 l -0.0054,0.200651 c -0.0054,0.140998 0.119306,0.265727 0.254881,0.265727 z m -0.02712,2.9338429 c 0.140998,0 0.265727,-0.119306 0.265727,-0.26572699 l 0.02712,-2.15835391 c 0,-0.146421 -0.113883,-0.265727 -0.265727,-0.265727 -0.140998,0 -0.265727,0.119306 -0.265727,0.265727 l -0.02712,2.15835391 c 0,0.14642099 0.119306,0.26572699 0.265727,0.26572699 z" id="path250"/><path d="m 12.771565,0.032538 c 0.16269,0 0.254881,-0.119306 0.254881,-0.27114999 v -0.45553199 c 0,-0.40130202 0.05965,-0.65076002 0.222343,-0.94360202 0.184382,-0.3362259 0.412148,-0.5314539 0.629068,-0.5314539 0.249458,0 0.357918,0.184382 0.357918,1.0466389 v 0.90021801 c 0,0.13015199 0.119306,0.25488099 0.260304,0.25488099 0.146421,0 0.249458,-0.124729 0.249458,-0.26030399 0,-0.309111 0.0054,-0.49349299 0.0054,-0.94902501 0,-1.1334069 -0.233189,-1.4967479 -0.824296,-1.4967479 -0.368764,0 -0.688721,0.233189 -0.894795,0.667029 v -0.412148 c 0,-0.146421 -0.113883,-0.260304 -0.249458,-0.260304 -0.140998,0 -0.27115,0.113883 -0.27115,0.260304 v 2.20173791 c 0,0.13015199 0.119306,0.24945799 0.260304,0.24945799 z" id="path252"/><path d="m 17.191306,0.086768 c 0.151844,0 0.260304,-0.130152 0.260304,-0.27115 v -2.2559679 c -0.140998,-0.065076 -0.477224,-0.233189 -0.86768,-0.233189 -0.802604,0 -1.30152,0.7863349 -1.30152,1.5347089 0,0.69956701 0.450109,1.171368 1.046639,1.171368 0.21692,0 0.450109,-0.059653 0.618222,-0.23861199 v 0.075922 c 0,0.130152 0.09761,0.21692 0.244035,0.21691999 z M 16.36701,-0.47180099 c -0.347072,0 -0.558569,-0.22776599 -0.558569,-0.67787501 0,-0.531454 0.309111,-1.0249469 0.786335,-1.0249469 0.113883,0 0.249458,0.027115 0.341649,0.065076 l -0.01627,1.41540292 c -0.113883,0.103037 -0.32538,0.22234299 -0.553146,0.22234299 z" id="path254"/><path d="m 18.471131,0.032538 c 0.124729,0 0.260304,-0.10846 0.260304,-0.24403499 V -3.3568369 c 0,-0.140998 -0.124729,-0.254881 -0.260304,-0.254881 -0.151844,0 -0.260304,0.113883 -0.260304,0.254881 v 3.14533991 c 0,0.13557499 0.124729,0.24403499 0.260304,0.24403499 z" id="path256"/><path d="m 22.202159,0.032538 c 0.59653,0 0.970717,-0.42299399 0.970717,-0.82971898 0,-0.41214802 -0.21692,-0.59653002 -0.802604,-0.78091202 -0.390456,-0.124729 -0.547723,-0.206074 -0.547723,-0.3796099 0,-0.146421 0.130152,-0.260304 0.477224,-0.260304 0.276573,0 0.385033,0.092191 0.385033,0.21692 0,0.043384 -0.02711,0.081345 -0.02711,0.1301519 0,0.103037 0.09761,0.222343 0.254881,0.222343 0.173536,0 0.27115,-0.124729 0.27115,-0.3470719 0,-0.406725 -0.319957,-0.677875 -0.894795,-0.677875 -0.629068,0 -0.965294,0.319957 -0.965294,0.726682 0,0.4067249 0.249458,0.6344909 0.835142,0.8134499 0.406725,0.124729 0.504339,0.20065102 0.504339,0.36334102 0,0.157267 -0.151844,0.33622599 -0.450109,0.33622599 -0.27115,0 -0.455532,-0.140998 -0.531454,-0.36334099 -0.03254,-0.103037 -0.119306,-0.17895899 -0.244035,-0.17895899 -0.140998,0 -0.254881,0.11388299 -0.254881,0.25488099 0,0.19522799 0.330803,0.75379698 1.019524,0.75379698 z" id="path258"/><path d="m 24.669621,0.032538 c 0.688721,0 1.274405,-0.66160598 1.274405,-1.453364 0,-0.6670289 -0.48807,-1.2527129 -1.122561,-1.2527129 -0.688721,0 -1.268982,0.667029 -1.268982,1.4479409 0,0.69414401 0.482647,1.258136 1.117138,1.258136 z m 0,-0.48806999 c -0.292842,0 -0.585684,-0.27114999 -0.585684,-0.77548901 0,-0.504339 0.330803,-0.9544479 0.715836,-0.9544479 0.341649,0 0.612799,0.3741869 0.612799,0.7917579 0,0.49891602 -0.352495,0.93817901 -0.742951,0.93817901 z" id="path260"/><path d="m 30.195664,0.086768 c 0.151844,0 0.260304,-0.130152 0.260304,-0.27115 v -2.2559679 c -0.140998,-0.065076 -0.477224,-0.233189 -0.86768,-0.233189 -0.802604,0 -1.30152,0.7863349 -1.30152,1.5347089 0,0.69956701 0.450109,1.171368 1.046639,1.171368 0.21692,0 0.450109,-0.059653 0.618222,-0.23861199 v 0.075922 c 0,0.130152 0.09761,0.21692 0.244035,0.21691999 z m -0.824296,-0.55856899 c -0.347072,0 -0.558569,-0.22776599 -0.558569,-0.67787501 0,-0.531454 0.309111,-1.0249469 0.786335,-1.0249469 0.113883,0 0.249458,0.027115 0.341649,0.065076 l -0.01627,1.41540292 c -0.113883,0.103037 -0.32538,0.22234299 -0.553145,0.22234299 z" id="path262"/><path d="m 31.475489,0.032538 c 0.124729,0 0.260304,-0.10846 0.260304,-0.24403499 V -3.3568369 c 0,-0.140998 -0.124729,-0.254881 -0.260304,-0.254881 -0.151844,0 -0.260304,0.113883 -0.260304,0.254881 v 3.14533991 c 0,0.13557499 0.124729,0.24403499 0.260304,0.24403499 z" id="path264"/><path d="m 32.755316,0.032538 c 0.124729,0 0.260304,-0.10846 0.260304,-0.24403499 V -3.3568369 c 0,-0.140998 -0.124729,-0.254881 -0.260304,-0.254881 -0.151844,0 -0.260304,0.113883 -0.260304,0.254881 v 3.14533991 c 0,0.13557499 0.124729,0.24403499 0.260304,0.24403499 z" id="path266"/><path d="m 36.177234,0.037961 c 0.140998,0 0.260304,-0.113883 0.260304,-0.25488099 V -2.1529309 h 0.460955 c 0.146421,0 0.260304,-0.124729 0.260304,-0.260304 0,-0.151844 -0.113883,-0.265727 -0.260304,-0.265727 h -0.460955 v -0.580261 c 0,-0.135575 -0.103037,-0.265727 -0.260304,-0.265727 -0.146421,0 -0.260304,0.130152 -0.260304,0.265727 v 0.580261 h -0.417571 c -0.140998,0 -0.27115,0.103037 -0.27115,0.265727 0,0.135575 0.113883,0.260304 0.260304,0.260304 h 0.428417 v 1.93601091 c 0,0.14099799 0.124729,0.25488099 0.260304,0.25488099 z" id="path268"/><path d="m 37.744477,0.037961 c 0.140998,0 0.260304,-0.097614 0.260304,-0.27114999 V -1.041216 c 0,-0.146421 0.01627,-0.276573 0.06508,-0.385033 0.05965,-0.130152 0.412148,-0.7429509 0.764643,-0.7429509 0.124729,0 0.292842,0.140998 0.292842,1.31778892 0,0.34164899 -0.01085,0.48806999 -0.01085,0.62906799 0,0.14099799 0.09761,0.25488099 0.254881,0.25488099 0.140998,0 0.249458,-0.10846 0.254881,-0.24403499 0.01627,-0.151844 0.01627,-0.347072 0.01627,-0.67787499 0,-1.19848292 -0.189805,-1.79501292 -0.775489,-1.79501292 -0.319957,0 -0.634491,0.21692 -0.862257,0.504339 v -1.165945 c 0,-0.140998 -0.09761,-0.265727 -0.249458,-0.265727 -0.151844,0 -0.27115,0.124729 -0.27115,0.265727 v 3.12364791 c 0,0.13557499 0.124729,0.26030399 0.260303,0.26030399 z" id="path270"/><path d="m 41.518883,0.032538 c 0.336226,0 0.710413,-0.178959 0.905641,-0.40130199 0.04338,-0.048807 0.06508,-0.097614 0.06508,-0.16269 0,-0.14099799 -0.10846,-0.24403499 -0.254881,-0.24403499 -0.0705,0 -0.130152,0.037961 -0.178959,0.086768 -0.119306,0.12472899 -0.298265,0.23318899 -0.536877,0.23318899 -0.309111,0 -0.59653,-0.12472899 -0.699567,-0.35249499 L 42.27268,-1.643169 c 0.113883,-0.065076 0.168113,-0.16269 0.168113,-0.249458 0,-0.2548809 -0.32538,-0.7809119 -1.041216,-0.7809119 -0.742951,0 -1.225598,0.667029 -1.225598,1.3449039 0,0.85141101 0.580261,1.361173 1.344904,1.361173 z m -0.851411,-1.290674 c 0,-0.075922 0,-0.113883 0.01085,-0.195228 0.04338,-0.401302 0.336226,-0.7321049 0.75922,-0.7321049 0.211497,0 0.37961,0.075922 0.466378,0.227766 z" id="path272"/><path d="m 45.2011,0.032538 c 0.124729,0 0.260304,-0.10846 0.260304,-0.24403499 V -3.3568369 c 0,-0.140998 -0.124729,-0.254881 -0.260304,-0.254881 -0.151844,0 -0.260304,0.113883 -0.260304,0.254881 v 3.14533991 c 0,0.13557499 0.124729,0.24403499 0.260304,0.24403499 z" id="path274"/><path d="m 47.391995,0.032538 c 0.336226,0 0.710413,-0.178959 0.905641,-0.40130199 0.04338,-0.048807 0.06508,-0.097614 0.06508,-0.16269 0,-0.14099799 -0.10846,-0.24403499 -0.254881,-0.24403499 -0.0705,0 -0.130152,0.037961 -0.178959,0.086768 -0.119306,0.12472899 -0.298265,0.23318899 -0.536877,0.23318899 -0.309111,0 -0.59653,-0.12472899 -0.699567,-0.35249499 l 1.45336,-0.83514202 c 0.113883,-0.065076 0.168113,-0.16269 0.168113,-0.249458 0,-0.2548809 -0.32538,-0.7809119 -1.041216,-0.7809119 -0.742951,0 -1.225598,0.667029 -1.225598,1.3449039 0,0.85141101 0.580261,1.361173 1.344904,1.361173 z m -0.851411,-1.290674 c 0,-0.075922 0,-0.113883 0.01085,-0.195228 0.04338,-0.401302 0.336226,-0.7321049 0.75922,-0.7321049 0.211497,0 0.37961,0.075922 0.466378,0.227766 z" id="path276"/><path d="m 49.355117,0.037961 c 0.140998,0 0.260304,-0.113883 0.260304,-0.25488099 V -2.1529309 h 0.460955 c 0.146421,0 0.260304,-0.124729 0.260304,-0.260304 0,-0.151844 -0.113883,-0.265727 -0.260304,-0.265727 h -0.460955 v -0.580261 c 0,-0.135575 -0.103037,-0.265727 -0.260304,-0.265727 -0.146421,0 -0.260304,0.130152 -0.260304,0.265727 v 0.580261 h -0.417571 c -0.140998,0 -0.27115,0.103037 -0.27115,0.265727 0,0.135575 0.113883,0.260304 0.260304,0.260304 h 0.428417 v 1.93601091 c 0,0.14099799 0.124729,0.25488099 0.260304,0.25488099 z" id="path278"/><path d="m 51.133853,0.037961 c 0.140998,0 0.260304,-0.113883 0.260304,-0.25488099 V -2.1529309 h 0.460955 c 0.146421,0 0.260304,-0.124729 0.260304,-0.260304 0,-0.151844 -0.113883,-0.265727 -0.260304,-0.265727 h -0.460955 v -0.580261 c 0,-0.135575 -0.103037,-0.265727 -0.260304,-0.265727 -0.146421,0 -0.260304,0.130152 -0.260304,0.265727 v 0.580261 h -0.417571 c -0.140998,0 -0.27115,0.103037 -0.27115,0.265727 0,0.135575 0.113883,0.260304 0.260304,0.260304 h 0.428417 v 1.93601091 c 0,0.14099799 0.124729,0.25488099 0.260304,0.25488099 z" id="path280"/><path d="m 53.481978,0.032538 c 0.336226,0 0.710413,-0.178959 0.905641,-0.40130199 0.04338,-0.048807 0.06508,-0.097614 0.06508,-0.16269 0,-0.14099799 -0.10846,-0.24403499 -0.254881,-0.24403499 -0.0705,0 -0.130152,0.037961 -0.178959,0.086768 -0.119306,0.12472899 -0.298265,0.23318899 -0.536877,0.23318899 -0.309111,0 -0.59653,-0.12472899 -0.699567,-0.35249499 l 1.45336,-0.83514202 c 0.113883,-0.065076 0.168113,-0.16269 0.168113,-0.249458 0,-0.2548809 -0.32538,-0.7809119 -1.041216,-0.7809119 -0.742951,0 -1.225598,0.667029 -1.225598,1.3449039 0,0.85141101 0.580261,1.361173 1.344904,1.361173 z m -0.851411,-1.290674 c 0,-0.075922 0,-0.113883 0.01085,-0.195228 0.04338,-0.401302 0.336226,-0.7321049 0.75922,-0.7321049 0.211497,0 0.37961,0.075922 0.466378,0.227766 z" id="path282"/><path d="m 55.239025,0.032538 c 0.130152,0 0.260304,-0.119306 0.260304,-0.24945799 l 0.0054,-1.03037001 c 0,-0.222343 0.02169,-0.412148 0.184382,-0.618222 0.09219,-0.1247289 0.287419,-0.3036879 0.43384,-0.3036879 0.09219,0 0.119306,0.032538 0.119306,0.086768 v 0.070499 c 0,0.1247289 0.06508,0.2603039 0.254881,0.2603039 0.146421,0 0.254881,-0.113883 0.254881,-0.2548809 v -0.16269 c 0,-0.233189 -0.113883,-0.515185 -0.520608,-0.515185 -0.319957,0 -0.558569,0.157267 -0.726682,0.43384 v -0.16269 c 0,-0.146421 -0.119306,-0.260304 -0.265727,-0.260304 -0.140998,0 -0.265727,0.113883 -0.265727,0.260304 v 2.19631491 c 0,0.13015199 0.130152,0.24945799 0.265727,0.24945799 z" id="path284"/><path d="m 57.939679,0.032538 c 0.59653,0 0.970717,-0.42299399 0.970717,-0.82971898 0,-0.41214802 -0.21692,-0.59653002 -0.802604,-0.78091202 -0.390456,-0.124729 -0.547723,-0.206074 -0.547723,-0.3796099 0,-0.146421 0.130152,-0.260304 0.477224,-0.260304 0.276573,0 0.385033,0.092191 0.385033,0.21692 0,0.043384 -0.02711,0.081345 -0.02711,0.1301519 0,0.103037 0.09761,0.222343 0.254881,0.222343 0.173536,0 0.27115,-0.124729 0.27115,-0.3470719 0,-0.406725 -0.319957,-0.677875 -0.894795,-0.677875 -0.629068,0 -0.965294,0.319957 -0.965294,0.726682 0,0.4067249 0.249458,0.6344909 0.835142,0.8134499 0.406725,0.124729 0.504339,0.20065102 0.504339,0.36334102 0,0.157267 -0.151844,0.33622599 -0.450109,0.33622599 -0.27115,0 -0.455532,-0.140998 -0.531454,-0.36334099 -0.03254,-0.103037 -0.119306,-0.17895899 -0.244035,-0.17895899 -0.140998,0 -0.254881,0.11388299 -0.254881,0.25488099 0,0.19522799 0.330803,0.75379698 1.019524,0.75379698 z" id="path286"/></g>
        </g>
        <g transform="translate(28.5484,48.1174)" id="g38">
            <g aria-label="look like dots." id="text36"><path d="m 0.63991398,0.032538 c 0.124729,0 0.260304,-0.10846 0.260304,-0.24403499 V -3.3568369 c 0,-0.140998 -0.124729,-0.254881 -0.260304,-0.254881 -0.15184399,0 -0.26030399,0.113883 -0.26030399,0.254881 v 3.14533991 c 0,0.13557499 0.124729,0.24403499 0.26030399,0.24403499 z" id="path289"/><path d="m 2.6030403,0.032538 c 0.688721,0 1.2744049,-0.66160598 1.2744049,-1.453364 0,-0.6670289 -0.4880699,-1.2527129 -1.1225609,-1.2527129 -0.688721,0 -1.268982,0.667029 -1.268982,1.4479409 0,0.69414401 0.482647,1.258136 1.117138,1.258136 z m 0,-0.48806999 c -0.292842,0 -0.585684,-0.27114999 -0.585684,-0.77548901 0,-0.504339 0.330803,-0.9544479 0.715836,-0.9544479 0.341649,0 0.612799,0.3741869 0.612799,0.7917579 0,0.49891602 -0.352495,0.93817901 -0.742951,0.93817901 z" id="path291"/><path d="m 5.4067324,0.032538 c 0.688721,0 1.2744049,-0.66160598 1.2744049,-1.453364 0,-0.6670289 -0.4880699,-1.2527129 -1.1225609,-1.2527129 -0.688721,0 -1.268982,0.667029 -1.268982,1.4479409 0,0.69414401 0.482647,1.258136 1.117138,1.258136 z m 0,-0.48806999 c -0.292842,0 -0.585684,-0.27114999 -0.585684,-0.77548901 0,-0.504339 0.330803,-0.9544479 0.715836,-0.9544479 0.341649,0 0.612799,0.3741869 0.612799,0.7917579 0,0.49891602 -0.352495,0.93817901 -0.742951,0.93817901 z" id="path293"/><path d="m 7.5379727,0.032538 c 0.151844,0 0.265727,-0.124729 0.265727,-0.26030399 V -1.014101 c 0.075922,-0.048807 0.195228,-0.124729 0.314534,-0.21692 0.173536,0.222343 0.558569,0.71041301 0.889372,1.155099 0.048807,0.059653 0.124729,0.092191 0.206074,0.092191 0.157267,0 0.260304,-0.124729 0.260304,-0.27114999 0,-0.075922 -0.037961,-0.130152 -0.070499,-0.168113 C 9.2245257,-0.64533698 8.8774537,-1.0846 8.5086897,-1.545555 c 0.222343,-0.206074 0.547723,-0.5477229 0.748374,-0.8134499 0.027115,-0.032538 0.05423,-0.086768 0.05423,-0.157267 0,-0.140998 -0.10846,-0.249458 -0.254881,-0.249458 -0.097614,0 -0.16269,0.048807 -0.211497,0.10846 -0.287419,0.347072 -0.748374,0.8134499 -1.046639,1.0683309 l -0.00542,-1.7570519 c 0,-0.140998 -0.10846,-0.265727 -0.260304,-0.265727 -0.140998,0 -0.265727,0.113883 -0.265727,0.254881 l 0.010846,3.12907091 c 0,0.13557499 0.130152,0.26030399 0.260304,0.26030399 z" id="path295"/><path d="m 12.098717,0.032538 c 0.124729,0 0.260304,-0.10846 0.260304,-0.24403499 V -3.3568369 c 0,-0.140998 -0.124729,-0.254881 -0.260304,-0.254881 -0.151844,0 -0.260304,0.113883 -0.260304,0.254881 v 3.14533991 c 0,0.13557499 0.124729,0.24403499 0.260304,0.24403499 z" id="path297"/><path d="m 13.411084,-2.9013049 c 0.146421,0 0.254881,-0.10846 0.260304,-0.254881 l 0.0054,-0.206074 c 0.0054,-0.130152 -0.119306,-0.260304 -0.254881,-0.260304 -0.135575,0 -0.254881,0.113883 -0.260304,0.254881 l -0.0054,0.200651 c -0.0054,0.140998 0.119306,0.265727 0.254881,0.265727 z m -0.02712,2.9338429 c 0.140998,0 0.265727,-0.119306 0.265727,-0.26572699 l 0.02712,-2.15835391 c 0,-0.146421 -0.113883,-0.265727 -0.265727,-0.265727 -0.140998,0 -0.265727,0.119306 -0.265727,0.265727 l -0.02712,2.15835391 c 0,0.14642099 0.119306,0.26572699 0.265727,0.26572699 z" id="path299"/><path d="m 14.707181,0.032538 c 0.151844,0 0.265727,-0.124729 0.265727,-0.26030399 V -1.014101 c 0.07592,-0.048807 0.195228,-0.124729 0.314534,-0.21692 0.173536,0.222343 0.558569,0.71041301 0.889372,1.155099 0.04881,0.059653 0.124729,0.092191 0.206074,0.092191 0.157267,0 0.260304,-0.124729 0.260304,-0.27114999 0,-0.075922 -0.03796,-0.130152 -0.0705,-0.168113 C 16.393734,-0.64533698 16.046662,-1.0846 15.677898,-1.545555 c 0.222343,-0.206074 0.547723,-0.5477229 0.748374,-0.8134499 0.02711,-0.032538 0.05423,-0.086768 0.05423,-0.157267 0,-0.140998 -0.10846,-0.249458 -0.254881,-0.249458 -0.09761,0 -0.16269,0.048807 -0.211497,0.10846 -0.287419,0.347072 -0.748374,0.8134499 -1.046639,1.0683309 l -0.0054,-1.7570519 c 0,-0.140998 -0.10846,-0.265727 -0.260304,-0.265727 -0.140998,0 -0.265727,0.113883 -0.265727,0.254881 l 0.01085,3.12907091 c 0,0.13557499 0.130152,0.26030399 0.260304,0.26030399 z" id="path301"/><path d="m 18.167055,0.032538 c 0.336226,0 0.710413,-0.178959 0.905641,-0.40130199 0.04338,-0.048807 0.06508,-0.097614 0.06508,-0.16269 0,-0.14099799 -0.10846,-0.24403499 -0.254881,-0.24403499 -0.0705,0 -0.130152,0.037961 -0.178959,0.086768 -0.119306,0.12472899 -0.298265,0.23318899 -0.536877,0.23318899 -0.309111,0 -0.59653,-0.12472899 -0.699567,-0.35249499 l 1.45336,-0.83514202 c 0.113883,-0.065076 0.168113,-0.16269 0.168113,-0.249458 0,-0.2548809 -0.32538,-0.7809119 -1.041216,-0.7809119 -0.742951,0 -1.225598,0.667029 -1.225598,1.3449039 0,0.85141101 0.580261,1.361173 1.344904,1.361173 z m -0.851411,-1.290674 c 0,-0.075922 0,-0.113883 0.01085,-0.195228 0.04338,-0.401302 0.336226,-0.7321049 0.75922,-0.7321049 0.211497,0 0.37961,0.075922 0.466378,0.227766 z" id="path303"/><path d="m 22.386149,0.027115 c 0.298265,0 0.563992,-0.157267 0.726682,-0.30911099 v 0.097614 c 0,0.135575 0.119306,0.21692 0.249458,0.21692 0.146421,0 0.260304,-0.10846 0.265727,-0.24945799 l 0.07592,-3.15618592 c 0.0054,-0.168113 -0.124729,-0.276573 -0.254881,-0.276573 -0.146421,0 -0.265727,0.119306 -0.27115,0.265727 l -0.02712,0.840565 c -0.135575,-0.05423 -0.347072,-0.124729 -0.580261,-0.124729 -0.677875,0 -1.155099,0.520608 -1.155099,1.4696329 0,0.79718102 0.428417,1.22559801 0.970717,1.22559801 z m 0.04338,-0.48806999 c -0.287419,0 -0.493493,-0.21149699 -0.493493,-0.75379701 0,-0.629068 0.227766,-0.9652939 0.667029,-0.9652939 0.200651,0 0.422994,0.086768 0.5423,0.168113 l -0.02169,1.06833092 c -0.0054,0.184382 -0.298265,0.48264699 -0.694144,0.48264699 z" id="path305"/><path d="m 25.363373,0.032538 c 0.688721,0 1.274405,-0.66160598 1.274405,-1.453364 0,-0.6670289 -0.48807,-1.2527129 -1.122561,-1.2527129 -0.688721,0 -1.268982,0.667029 -1.268982,1.4479409 0,0.69414401 0.482647,1.258136 1.117138,1.258136 z m 0,-0.48806999 c -0.292842,0 -0.585684,-0.27114999 -0.585684,-0.77548901 0,-0.504339 0.330803,-0.9544479 0.715836,-0.9544479 0.341649,0 0.612799,0.3741869 0.612799,0.7917579 0,0.49891602 -0.352495,0.93817901 -0.742951,0.93817901 z" id="path307"/><path d="m 27.673411,0.037961 c 0.140998,0 0.260304,-0.113883 0.260304,-0.25488099 V -2.1529309 h 0.460955 c 0.146421,0 0.260304,-0.124729 0.260304,-0.260304 0,-0.151844 -0.113883,-0.265727 -0.260304,-0.265727 h -0.460955 v -0.580261 c 0,-0.135575 -0.103037,-0.265727 -0.260304,-0.265727 -0.146421,0 -0.260304,0.130152 -0.260304,0.265727 v 0.580261 h -0.417571 c -0.140997,0 -0.271149,0.103037 -0.271149,0.265727 0,0.135575 0.113883,0.260304 0.260303,0.260304 h 0.428417 v 1.93601091 c 0,0.14099799 0.124729,0.25488099 0.260304,0.25488099 z" id="path309"/><path d="m 29.761262,0.032538 c 0.59653,0 0.970717,-0.42299399 0.970717,-0.82971898 0,-0.41214802 -0.21692,-0.59653002 -0.802604,-0.78091202 -0.390456,-0.124729 -0.547723,-0.206074 -0.547723,-0.3796099 0,-0.146421 0.130152,-0.260304 0.477224,-0.260304 0.276573,0 0.385033,0.092191 0.385033,0.21692 0,0.043384 -0.02711,0.081345 -0.02711,0.1301519 0,0.103037 0.09761,0.222343 0.254881,0.222343 0.173536,0 0.27115,-0.124729 0.27115,-0.3470719 0,-0.406725 -0.319957,-0.677875 -0.894795,-0.677875 -0.629068,0 -0.965294,0.319957 -0.965294,0.726682 0,0.4067249 0.249458,0.6344909 0.835142,0.8134499 0.406725,0.124729 0.504339,0.20065102 0.504339,0.36334102 0,0.157267 -0.151844,0.33622599 -0.450109,0.33622599 -0.27115,0 -0.455532,-0.140998 -0.531454,-0.36334099 -0.03254,-0.103037 -0.119306,-0.17895899 -0.244035,-0.17895899 -0.140998,0 -0.254881,0.11388299 -0.254881,0.25488099 0,0.19522799 0.330803,0.75379698 1.019524,0.75379698 z" id="path311"/><path d="m 31.350196,0.032538 c 0.16269,0 0.319957,-0.157267 0.319957,-0.35249499 0,-0.168113 -0.124729,-0.30368799 -0.281996,-0.30368799 -0.168113,0 -0.319957,0.16811299 -0.319957,0.34707199 0,0.17353599 0.113883,0.30911099 0.281996,0.30911099 z" id="path313"/></g>
        </g>
    </g>
    <g transform="rotate(-4.4500024,115.08048,1.2203986)" id="g50">
        <g transform="translate(-16.1028,-1.25318)" id="g44">
            <path d="m 124.768,20.951 c 0,-1.104 -0.896,-2 -2,-2 h -17.074 c -1.104,0 -2,0.896 -2,2 v 4.264 c 0,1.104 0.896,2 2,2 h 17.074 c 1.104,0 2,-0.896 2,-2 z" style="fill:#42ade7;fill-opacity:0.68" id="path42"/>
        </g>
        <g transform="translate(-16.1028,-1.25318)" id="g48">
            <path d="m 119.11,18.951 v 8.264 h 3.658 c 1.108,0 2,-0.892 2,-2 V 20.95 c 0,-1.108 -0.892,-2 -2,-2 z" style="fill:#42ade7;fill-rule:nonzero" id="path46"/>
        </g>
    </g>
    <g transform="rotate(3.5129993,115.08037,83.789049)" id="g60">
        <g transform="translate(-16.1212,0.989684)" id="g54">
            <path d="m 124.768,53.956 c 0,-1.104 -0.896,-2 -2,-2 h -17.074 c -1.104,0 -2,0.896 -2,2 v 4.264 c 0,1.104 0.896,2 2,2 h 17.074 c 1.104,0 2,-0.896 2,-2 z" style="fill:#db4437;fill-opacity:0.84" id="path52"/>
        </g>
        <g transform="translate(-16.1212,0.989684)" id="g58">
            <path d="m 119.11,51.955 v 8.264 h 3.658 c 1.108,0 2,-0.892 2,-2 v -4.264 c 0,-1.108 -0.892,-2 -2,-2 z" style="fill:#db4437;fill-opacity:0.84;fill-rule:nonzero" id="path56"/>
        </g>
    </g>
    <g transform="rotate(-2.2749991,115.0806,37.948688)" id="g70">
        <g transform="translate(-16.1388,-0.641147)" id="g64">
            <path d="m 124.768,78.581 c 0,-1.104 -0.896,-2 -2,-2 h -17.074 c -1.104,0 -2,0.896 -2,2 v 4.264 c 0,1.104 0.896,2 2,2 h 17.074 c 1.104,0 2,-0.896 2,-2 z" style="fill:#7cb342;fill-opacity:0.84" id="path62"/>
        </g>
        <g transform="translate(-16.1388,-0.641147)" id="g68">
            <path d="m 119.11,76.581 v 8.264 h 3.658 c 1.108,0 2,-0.892 2,-2 V 78.58 c 0,-1.108 -0.892,-2 -2,-2 z" style="fill:#7cb342;fill-opacity:0.84;fill-rule:nonzero" id="path66"/>
        </g>
    </g>
    <g transform="translate(5.18713,0.581)" id="g74">
        <path d="m 33.942,105.71 c -0.115,-0.01 -0.231,-0.007 -0.346,0.009 l -9.748,1.35 12.955,13.277 -1.306,-12.877 c -0.098,-0.963 -0.76,-1.68 -1.555,-1.758 z" style="fill:#f78c04;fill-rule:nonzero" id="path72"/>
    </g>
</svg>
