<?xml version="1.0" encoding="UTF-8"?>
<svg width="128" height="128" version="1.1" viewBox="0 0 128 128" xmlns="http://www.w3.org/2000/svg">
 <path d="M8.484 32.03a4.378 4.378 0 0 1 .272 1.5 4.378 4.378 0 0 1-4.377 4.378v3.432a4.378 4.378 0 0 1 4.377 4.377 4.378 4.378 0 0 1-4.377 4.379v3.431a4.378 4.378 0 0 1 4.377 4.38 4.378 4.378 0 0 1-4.377 4.376v3.434a4.378 4.378 0 0 1 4.377 4.377 4.378 4.378 0 0 1-4.377 4.379v3.431a4.378 4.378 0 0 1 4.377 4.38 4.378 4.378 0 0 1-4.377 4.376v3.432a4.378 4.378 0 0 1 4.377 4.379 4.378 4.378 0 0 1-.268 1.5H85.23a4.378 4.378 0 0 1-.271-1.5 4.378 4.378 0 0 1 4.377-4.38 4.378 4.378 0 0 1 4.379 4.38 4.378 4.378 0 0 1-.268 1.5h26.069a4.378 4.378 0 0 1-.272-1.5 4.378 4.378 0 0 1 4.377-4.38v-3.43a4.378 4.378 0 0 1-4.377-4.378 4.378 4.378 0 0 1 4.377-4.379v-3.431a4.378 4.378 0 0 1-4.377-4.38 4.378 4.378 0 0 1 4.377-4.376v-3.434a4.378 4.378 0 0 1-4.377-4.377 4.378 4.378 0 0 1 4.377-4.379v-3.431a4.378 4.378 0 0 1-4.377-4.38 4.378 4.378 0 0 1 4.377-4.376v-3.432a4.378 4.378 0 0 1-4.377-4.379 4.378 4.378 0 0 1 .27-1.5h-26.07a4.378 4.378 0 0 1 .27 1.5 4.378 4.378 0 0 1-4.378 4.38 4.378 4.378 0 0 1-4.377-4.38 4.378 4.378 0 0 1 .27-1.5zm80.852 9.31a4.378 4.378 0 0 1 4.379 4.377 4.378 4.378 0 0 1-4.38 4.379 4.378 4.378 0 0 1-4.376-4.38 4.378 4.378 0 0 1 4.377-4.376zm0 12.187a4.378 4.378 0 0 1 4.379 4.38 4.378 4.378 0 0 1-4.38 4.376 4.378 4.378 0 0 1-4.376-4.377 4.378 4.378 0 0 1 4.377-4.379zm0 12.19a4.378 4.378 0 0 1 4.379 4.377 4.378 4.378 0 0 1-4.38 4.379 4.378 4.378 0 0 1-4.376-4.38 4.378 4.378 0 0 1 4.377-4.376zm0 12.187a4.378 4.378 0 0 1 4.379 4.38 4.378 4.378 0 0 1-4.38 4.376 4.378 4.378 0 0 1-4.376-4.377 4.378 4.378 0 0 1 4.377-4.379z" fill="#e79a00" stroke-width=".6" paint-order="stroke fill markers"/>
 <g transform="scale(1.0025 .9975)" fill="#2f2f2f" aria-label="KeynoteEmoji Theatre10105 N Atanu Drive,Pertinuco, AC 90641, ASU">
  <path d="m17.972 54.424c0.22521 0 0.40871-0.17516 0.40871-0.40871 0-0.12512-0.04171-0.23355-0.15848-0.3253l-2.6608-2.0769 2.519-2.1603c0.11677-0.10009 0.1418-0.20018 0.1418-0.30862 0-0.20852-0.19184-0.41705-0.40037-0.41705-0.10009 0-0.20018 0.04171-0.26691 0.10009l-2.2771 1.9518v-1.6348c0-0.23355-0.19184-0.40871-0.40871-0.40871-0.22521 0-0.40871 0.17516-0.40871 0.40871v4.8628c0 0.21687 0.1835 0.40871 0.40871 0.40871 0.21687 0 0.40871-0.19184 0.40871-0.40871v-1.5764l2.4439 1.9101c0.06673 0.05005 0.1418 0.08341 0.25023 0.08341z"/>
  <path d="m20.917 54.416c0.51714 0 1.0927-0.27525 1.3929-0.61723 0.06673-0.07507 0.10009-0.15014 0.10009-0.25023 0-0.21687-0.16682-0.37534-0.39203-0.37534-0.10843 0-0.20018 0.05839-0.27525 0.13346-0.1835 0.19184-0.45876 0.35866-0.82576 0.35866-0.47544 0-0.91751-0.19184-1.076-0.54216l2.2354-1.2845c0.17516-0.10009 0.25857-0.25023 0.25857-0.38369 0-0.39203-0.50046-1.2011-1.6015-1.2011-1.1427 0-1.8851 1.0259-1.8851 2.0686 0 1.3095 0.89249 2.0936 2.0686 2.0936zm-1.3095-1.9852c0-0.11677 0-0.17516 0.01668-0.30028 0.06673-0.61723 0.51714-1.126 1.1677-1.126 0.3253 0 0.58387 0.11677 0.71733 0.35032z"/>
  <path d="m23.786 55.909c0.17516 0 0.30862-0.11677 0.37534-0.25857l2.227-4.8378c0.02502-0.05005 0.03336-0.11677 0.03336-0.16682 0-0.23355-0.16682-0.40871-0.367-0.40871-0.17516 0-0.31696 0.11677-0.38369 0.25857l-1.051 2.3271-1.1761-2.3271c-0.05839-0.11677-0.1835-0.25023-0.38369-0.25023-0.23355 0-0.41705 0.1835-0.41705 0.40871 0 0.07507 0.02502 0.15014 0.05005 0.20018l1.493 2.911-0.72567 1.5598c-0.02502 0.05839-0.04171 0.12512-0.04171 0.17516 0 0.22521 0.16682 0.40871 0.367 0.40871z"/>
  <path d="m27.431 54.416c0.25023 0 0.39203-0.1835 0.39203-0.41705v-0.70064c0-0.61723 0.09175-1.0009 0.34198-1.4513 0.28359-0.51714 0.63392-0.81742 0.96756-0.81742 0.38369 0 0.55051 0.28359 0.55051 1.6098v1.3846c0 0.20018 0.1835 0.39203 0.40037 0.39203 0.22521 0 0.38369-0.19184 0.38369-0.40037 0-0.47544 0.0083-0.75903 0.0083-1.4597 0-1.7433-0.35866-2.3021-1.2678-2.3021-0.56719 0-1.0593 0.35866-1.3763 1.0259v-0.63392c0-0.22521-0.17516-0.40037-0.38369-0.40037-0.21687 0-0.41705 0.17516-0.41705 0.40037v3.3864c0 0.20018 0.1835 0.38369 0.40037 0.38369z"/>
  <path d="m33.011 54.416c1.0593 0 1.9601-1.0176 1.9601-2.2354 0-1.0259-0.75069-1.9268-1.7266-1.9268-1.0593 0-1.9518 1.0259-1.9518 2.227 0 1.0676 0.74235 1.9351 1.7182 1.9351zm0-0.75069c-0.45041 0-0.90083-0.41705-0.90083-1.1928s0.5088-1.468 1.101-1.468c0.52548 0 0.94253 0.57553 0.94253 1.2178 0 0.76737-0.54216 1.443-1.1427 1.443z"/>
  <path d="m36.564 54.424c0.21687 0 0.40037-0.17516 0.40037-0.39203v-2.9777h0.70898c0.22521 0 0.40037-0.19184 0.40037-0.40037 0-0.23355-0.17516-0.40871-0.40037-0.40871h-0.70898v-0.89249c0-0.20852-0.15848-0.40871-0.40037-0.40871-0.22521 0-0.40037 0.20018-0.40037 0.40871v0.89249h-0.64226c-0.21687 0-0.41705 0.15848-0.41705 0.40871 0 0.20852 0.17516 0.40037 0.40037 0.40037h0.65894v2.9777c0 0.21687 0.19184 0.39203 0.40037 0.39203z"/>
  <path d="m40.176 54.416c0.51714 0 1.0927-0.27525 1.3929-0.61723 0.06673-0.07507 0.10009-0.15014 0.10009-0.25023 0-0.21687-0.16682-0.37534-0.39203-0.37534-0.10843 0-0.20018 0.05839-0.27525 0.13346-0.1835 0.19184-0.45876 0.35866-0.82576 0.35866-0.47544 0-0.91751-0.19184-1.076-0.54216l2.2354-1.2845c0.17516-0.10009 0.25857-0.25023 0.25857-0.38369 0-0.39203-0.50046-1.2011-1.6015-1.2011-1.1427 0-1.8851 1.0259-1.8851 2.0686 0 1.3095 0.89249 2.0936 2.0686 2.0936zm-1.3095-1.9852c0-0.11677 0-0.17516 0.01668-0.30028 0.06673-0.61723 0.51714-1.126 1.1677-1.126 0.3253 0 0.58387 0.11677 0.71733 0.35032z"/>
  <path d="m14.803 62.233h3.5116c0.15014 0 0.26691-0.12512 0.26691-0.27525s-0.11677-0.25857-0.26691-0.25857h-3.253v-2.1103h2.8693c0.15014 0 0.25857-0.12512 0.25857-0.27525s-0.10843-0.25857-0.25857-0.25857h-2.8693v-1.8767h3.2697c0.15014 0 0.26691-0.12512 0.26691-0.26691 0-0.15014-0.11677-0.26691-0.26691-0.26691h-3.5282c-0.15014 0-0.27525 0.11677-0.27525 0.26691v5.0463c0 0.15014 0.12512 0.27525 0.27525 0.27525z"/>
  <path d="m19.782 62.283c0.1418 0 0.25857-0.11677 0.25857-0.25023v-1.2428c0-0.6506 0.07507-0.93419 0.37534-1.3596 0.29194-0.40871 0.72567-0.81742 1.1344-0.81742 0.45041 0 0.64226 0.29194 0.64226 0.99258v2.4272c0 0.13346 0.12512 0.25023 0.26691 0.25023 0.15014 0 0.25857-0.11677 0.25857-0.25023v-1.8851c0-0.95922 0.8341-1.5347 1.2929-1.5347 0.42539 0 0.65894 0.28359 0.65894 0.99258v2.4272c0 0.13346 0.11677 0.25023 0.25857 0.25023s0.26691-0.11677 0.26691-0.25023v-2.3688c0-1.1177-0.48378-1.5431-1.1177-1.5431-0.45041 0-0.99258 0.25023-1.418 0.94253-0.15848-0.75069-0.63392-0.94253-1.0426-0.94253-0.56719 0-1.2094 0.49212-1.5764 1.2178v-0.95922c0-0.13346-0.10843-0.25857-0.25857-0.25857-0.1418 0-0.26691 0.12512-0.26691 0.25857v3.6534c0 0.13346 0.12512 0.25023 0.26691 0.25023z"/>
  <path d="m27.84 62.283c1.051 0 1.9435-1.0259 1.9435-2.2521 0-1.0676-0.73401-1.9101-1.6849-1.9101-1.126 0-1.9518 1.1177-1.9518 2.2437 0 1.076 0.73401 1.9184 1.6932 1.9184zm0.03336-0.47544c-0.61723 0-1.1844-0.56719-1.1844-1.4597 0-0.90917 0.61723-1.7516 1.3679-1.7516 0.67562 0 1.1928 0.6923 1.1928 1.4764 0 0.92585-0.6506 1.7349-1.3763 1.7349z"/>
  <path d="m31.168 57.429c0.12512 0 0.25857-0.08341 0.26691-0.20018l0.04171-0.35866c0.01668-0.13346-0.09175-0.30028-0.25023-0.30028-0.12512 0-0.25023 0.08341-0.26691 0.20852l-0.03336 0.40037c-0.01668 0.11677 0.10009 0.25023 0.24189 0.25023zm-0.72567 6.3392c0.61723 0 1.0176-0.54216 1.0176-1.5014 0-0.30862-0.05005-3.6784-0.05005-3.9119 0-0.13346-0.12512-0.25857-0.25857-0.25857-0.15848 0-0.26691 0.11677-0.26691 0.26691 0 0.33364 0.05839 3.6534 0.05839 3.9703 0 0.61723-0.21687 0.95087-0.50046 0.95087-0.26691 0-0.43373-0.15848-0.56719-0.5088-0.03336-0.10843-0.13346-0.1835-0.25023-0.1835-0.15848 0-0.26691 0.12512-0.26691 0.25023 0 0.03336 0.01668 0.08341 0.02502 0.10843 0.17516 0.45876 0.60055 0.81742 1.0593 0.81742z"/>
  <path d="m33.078 57.462c0.13346 0 0.25857-0.10009 0.25857-0.25023l0.0083-0.34198c0-0.12512-0.11677-0.25857-0.25023-0.25857s-0.26691 0.11677-0.26691 0.25023l-0.0083 0.34198c0 0.1418 0.11677 0.25857 0.25857 0.25857zm-0.05005 4.8211c0.1418 0 0.26691-0.12512 0.26691-0.26691l0.05005-3.62c0-0.15014-0.11677-0.27525-0.26691-0.27525-0.1418 0-0.27525 0.12512-0.27525 0.27525l-0.05005 3.62c0 0.1418 0.12512 0.26691 0.27525 0.26691z"/>
  <path d="m38.958 62.283c0.15014 0 0.26691-0.12512 0.26691-0.26691v-4.8461h1.5764c0.15014 0 0.25857-0.11677 0.25857-0.25857 0-0.15014-0.10843-0.26691-0.25857-0.26691h-3.6784c-0.1418 0-0.26691 0.11677-0.26691 0.26691 0 0.1418 0.12512 0.25857 0.26691 0.25857h1.5764v4.8461c0 0.1418 0.11677 0.26691 0.25857 0.26691z"/>
  <path d="m42.053 62.291c0.1418 0 0.25857-0.10009 0.25857-0.27525v-1.3512c0-0.27525 0.02502-0.51714 0.12512-0.71733 0.12512-0.26691 0.75903-1.3346 1.443-1.3346 0.28359 0 0.64226 0.25857 0.64226 2.3688 0 0.5088-0.01668 0.90917-0.01668 1.051 0 0.13346 0.12512 0.25023 0.25857 0.25023 0.1418 0 0.24189-0.10843 0.25023-0.25023 0.02502-0.28359 0.02502-0.55885 0.02502-1.1094 0-1.8851-0.27525-2.8276-1.1177-2.8276-0.65894 0-1.3012 0.6506-1.6098 1.2845v-2.5607c0-0.1418-0.10009-0.26691-0.25857-0.26691-0.15014 0-0.26691 0.12512-0.26691 0.26691v5.2131c0 0.13346 0.12512 0.25857 0.26691 0.25857z"/>
  <path d="m48.066 62.283c0.5088 0 1.0843-0.26691 1.3763-0.60055 0.03336-0.04171 0.06673-0.10843 0.06673-0.16682 0-0.1418-0.10843-0.25023-0.25023-0.25023-0.06673 0-0.13346 0.03336-0.16682 0.08341-0.22521 0.24189-0.66728 0.45041-1.0343 0.45041-0.64226 0-1.126-0.27525-1.4096-0.80908l2.5857-1.4764c0.1418-0.08341 0.20018-0.17516 0.20018-0.26691 0-0.367-0.49212-1.126-1.5681-1.126-1.1344 0-1.8767 1.0259-1.8767 2.1603 0 1.076 0.81742 2.0018 2.0769 2.0018zm-1.5764-1.76c-0.01668-0.10009-0.01668-0.17516-0.01668-0.26691 0.01668-0.90917 0.58387-1.6432 1.4013-1.6432 0.57553 0 0.89249 0.20018 1.0426 0.56719z"/>
  <path d="m53.179 62.35c0.15014 0 0.25857-0.12512 0.25857-0.27525v-3.6117c-0.1418-0.06673-0.65894-0.34198-1.2678-0.34198-1.2929 0-2.0018 1.2678-2.0018 2.3605 0 1.076 0.67562 1.8017 1.5764 1.8017 0.44207 0 0.88415-0.19184 1.1761-0.44207v0.23355c0 0.15014 0.08341 0.27525 0.25857 0.27525zm-1.4347-0.55885c-0.60889 0-1.0426-0.5088-1.0426-1.3262 0-1.0676 0.6506-1.8517 1.4847-1.8517 0.26691 0 0.59221 0.10009 0.74235 0.16682l-0.03336 2.5273c-0.19184 0.19184-0.66728 0.48378-1.1511 0.48378z"/>
  <path d="m55.215 62.291c0.13346 0 0.25857-0.11677 0.25857-0.25023v-3.4031h0.93419c0.15014 0 0.26691-0.12512 0.26691-0.26691 0-0.15014-0.11677-0.25857-0.26691-0.25857h-0.93419v-1.1427c0-0.1418-0.10009-0.26691-0.25857-0.26691-0.15014 0-0.26691 0.12512-0.26691 0.26691v1.1427h-0.90083c-0.15014 0-0.28359 0.10009-0.28359 0.25857 0 0.1418 0.11677 0.26691 0.26691 0.26691h0.91751v3.4031c0 0.13346 0.12512 0.25023 0.26691 0.25023z"/>
  <path d="m57.392 62.283c0.13346 0 0.25857-0.11677 0.25857-0.24189l0.0083-1.8434c0-0.28359 0.10843-0.65894 0.28359-0.88415 0.28359-0.37534 0.64226-0.70064 1.0176-0.70064 0.22521 0 0.28359 0.10843 0.28359 0.24189v0.19184c0 0.12512 0.05839 0.25857 0.24189 0.25857 0.15014 0 0.25857-0.10843 0.25857-0.25023v-0.26691c0-0.31696-0.15014-0.6923-0.6923-0.6923-0.6923 0-1.1427 0.54216-1.3929 0.98424v-0.70898c0-0.1418-0.11677-0.25023-0.26691-0.25023-0.1418 0-0.26691 0.10843-0.26691 0.25023v3.67c0 0.12512 0.13346 0.24189 0.26691 0.24189z"/>
  <path d="m62.088 62.283c0.5088 0 1.0843-0.26691 1.3763-0.60055 0.03336-0.04171 0.06673-0.10843 0.06673-0.16682 0-0.1418-0.10843-0.25023-0.25023-0.25023-0.06673 0-0.13346 0.03336-0.16682 0.08341-0.22521 0.24189-0.66728 0.45041-1.0343 0.45041-0.64226 0-1.126-0.27525-1.4096-0.80908l2.5857-1.4764c0.1418-0.08341 0.20018-0.17516 0.20018-0.26691 0-0.367-0.49212-1.126-1.5681-1.126-1.1344 0-1.8767 1.0259-1.8767 2.1603 0 1.076 0.81742 2.0018 2.0769 2.0018zm-1.5764-1.76c-0.01668-0.10009-0.01668-0.17516-0.01668-0.26691 0.01668-0.90917 0.58387-1.6432 1.4013-1.6432 0.57553 0 0.89249 0.20018 1.0426 0.56719z"/>
  <path d="m14.497 70.1h1.4672c0.10918 0 0.21154-0.09554 0.21154-0.21154 0-0.11601-0.08189-0.21837-0.22519-0.21837h-0.45038l0.05459-3.9716c0-0.10918-0.08189-0.21837-0.21837-0.21837-0.04094 0-0.11601 0.0273-0.15013 0.06824l-0.85982 0.93489c-0.04094 0.04094-0.06142 0.09554-0.06142 0.1433 0 0.11601 0.08871 0.21837 0.21154 0.21837 0.06142 0 0.11601-0.02047 0.15695-0.06824l0.49133-0.52545-0.05459 3.4188h-0.57322c-0.12283 0-0.21154 0.10236-0.21154 0.21837s0.08871 0.21154 0.21154 0.21154z"/>
  <path d="m18.544 70.141c0.93489 0 1.6992-1.1328 1.6992-2.4498 0-1.1942-0.64828-2.2246-1.549-2.2246-0.95536 0-1.706 1.1601-1.706 2.4566 0 1.1806 0.64828 2.2178 1.5559 2.2178zm0-0.42309c-0.67558 0-1.1396-0.86665-1.1396-1.8084 0-1.1055 0.60051-2.0199 1.2897-2.0199 0.6551 0 1.1396 0.85982 1.1396 1.8152 0 1.0987-0.60734 2.0131-1.2897 2.0131z"/>
  <path d="m21.355 70.1h1.4672c0.10918 0 0.21154-0.09554 0.21154-0.21154 0-0.11601-0.08189-0.21837-0.22519-0.21837h-0.45038l0.05459-3.9716c0-0.10918-0.08189-0.21837-0.21837-0.21837-0.04094 0-0.11601 0.0273-0.15013 0.06824l-0.85982 0.93489c-0.04094 0.04094-0.06142 0.09554-0.06142 0.1433 0 0.11601 0.08871 0.21837 0.21154 0.21837 0.06142 0 0.11601-0.02047 0.15695-0.06824l0.49133-0.52545-0.05459 3.4188h-0.57322c-0.12283 0-0.21154 0.10236-0.21154 0.21837s0.08871 0.21154 0.21154 0.21154z"/>
  <path d="m25.402 70.141c0.93489 0 1.6992-1.1328 1.6992-2.4498 0-1.1942-0.64828-2.2246-1.549-2.2246-0.95536 0-1.706 1.1601-1.706 2.4566 0 1.1806 0.64828 2.2178 1.5559 2.2178zm0-0.42309c-0.67558 0-1.1396-0.86665-1.1396-1.8084 0-1.1055 0.60051-2.0199 1.2897-2.0199 0.6551 0 1.1396 0.85982 1.1396 1.8152 0 1.0987-0.60734 2.0131-1.2897 2.0131z"/>
  <path d="m29.271 70.141c0.81206 0 1.5559-0.78476 1.5559-1.7469 0-0.94171-0.60734-1.5695-1.4194-1.5695-0.35485 0-0.64146 0.11601-0.853 0.23202l0.10918-1.085h1.7606c0.11601 0 0.21837-0.08871 0.21837-0.21154 0-0.11601-0.10236-0.21154-0.21837-0.21154h-1.9517c-0.10236 0-0.20472 0.08189-0.21837 0.19107l-0.17742 1.7674c-0.01365 0.12966 0.07506 0.24566 0.21837 0.24566 0.06824 0 0.10918-0.02047 0.16378-0.07506 0.12966-0.12966 0.43674-0.42991 0.94854-0.42991 0.68922 0 0.9963 0.58004 0.9963 1.1464 0 0.7097-0.53227 1.317-1.1328 1.317-0.43674 0-0.71652-0.1979-0.96901-0.52545-0.04777-0.06824-0.08189-0.10918-0.18425-0.10918-0.11601 0-0.21837 0.09554-0.21837 0.21154 0 0.03412 0.0068 0.07506 0.0273 0.10236 0.09554 0.21837 0.57322 0.75064 1.3443 0.75064z"/>
  <path d="m34.314 70.141c0.11601 0 0.21837-0.09554 0.21837-0.21837l0.0068-3.5212 2.5181 3.644c0.04094 0.06142 0.12283 0.09554 0.17742 0.09554 0.12283 0 0.21837-0.09554 0.21837-0.21837v-4.2172c0-0.11601-0.10236-0.21837-0.21837-0.21837-0.12283 0-0.21837 0.10236-0.21837 0.21837v3.5348l-2.5181-3.6577c-0.04777-0.05459-0.10236-0.08871-0.18425-0.08871-0.11601 0-0.21154 0.10236-0.21154 0.21154l-0.0068 4.2172c0 0.11601 0.10236 0.21837 0.21837 0.21837z"/>
  <path d="m43.847 70.148c0.12966 0 0.21837-0.10918 0.21837-0.21154 0-0.05459-0.02047-0.10236-0.04094-0.16378l-1.4399-4.1899c-0.03412-0.08871-0.11601-0.1433-0.20472-0.1433-0.08189 0-0.1706 0.04777-0.21154 0.13648l-1.0918 2.791-0.3412 0.07506c-0.09554 0.02047-0.16378 0.10918-0.16378 0.21154 0 0.11601 0.08189 0.20472 0.19107 0.21154 0.03412 0 0.08189-0.0068 0.12283-0.02047l-0.37532 0.96218c-0.02047 0.05459-0.0273 0.08871-0.0273 0.11601 0 0.12283 0.08189 0.21837 0.20472 0.21837 0.08871 0 0.1706-0.05459 0.1979-0.13648l0.49815-1.2556 1.6992-0.37532 0.55957 1.6241c0.0273 0.09554 0.11601 0.15013 0.20472 0.15013zm-2.2792-1.8902 0.78476-1.9926 0.58004 1.6992z"/>
  <path d="m45.184 70.148c0.10918 0 0.21154-0.09554 0.21154-0.20472v-2.7842h0.76429c0.12283 0 0.21837-0.10236 0.21837-0.21837 0-0.12283-0.09554-0.21154-0.21837-0.21154h-0.76429v-0.93489c0-0.11601-0.08189-0.21837-0.21154-0.21837-0.12283 0-0.21837 0.10236-0.21837 0.21837v0.93489h-0.73699c-0.12283 0-0.23202 0.08189-0.23202 0.21154 0 0.11601 0.09554 0.21837 0.21837 0.21837h0.75064v2.7842c0 0.10918 0.10236 0.20472 0.21837 0.20472z"/>
  <path d="m48.794 70.196c0.12283 0 0.21154-0.10236 0.21154-0.22519v-2.9548c-0.11601-0.05459-0.5391-0.27978-1.0372-0.27978-1.0577 0-1.6378 1.0372-1.6378 1.9312 0 0.8803 0.55274 1.474 1.2897 1.474 0.36167 0 0.72334-0.15695 0.96218-0.36167v0.19107c0 0.12283 0.06824 0.22519 0.21154 0.22519zm-1.1737-0.45721c-0.49815 0-0.853-0.41626-0.853-1.085 0-0.87347 0.53227-1.5149 1.2147-1.5149 0.21837 0 0.4845 0.08189 0.60734 0.13648l-0.0273 2.0677c-0.15695 0.15695-0.54592 0.39579-0.94171 0.39579z"/>
  <path d="m50.289 70.141c0.12283 0 0.20472-0.10236 0.20472-0.22519l0.0068-0.60734c0.0068-0.49815 0.12283-0.95536 0.42991-1.5149 0.23202-0.42309 0.55274-0.6551 0.853-0.6551 0.45721 0 0.64146 0.24566 0.64146 1.5286 0 0.67558 0.0068 0.95536 0.0068 1.2624 0 0.10918 0.09554 0.21154 0.20472 0.21154 0.12283 0 0.20472-0.10236 0.20472-0.21837 0-0.3139 0.0068-0.58686 0.0068-1.2829 0-1.3648-0.25931-1.9039-1.0031-1.9039-0.59369 0-1.0782 0.45721-1.3443 1.2761v-1.0782c0-0.11601-0.09554-0.20472-0.21154-0.20472-0.11601 0-0.21837 0.08871-0.21837 0.20472v3.0094c0 0.10236 0.10236 0.1979 0.21837 0.1979z"/>
  <path d="m54.772 70.161c0.50498 0 0.94171-0.28661 1.1191-0.51862v0.25931c0 0.13648 0.09554 0.23884 0.23884 0.23884 0.11601 0 0.22519-0.10236 0.22519-0.21154v-3.0094c0-0.11601-0.09554-0.19107-0.20472-0.19107-0.10236 0-0.20472 0.07506-0.20472 0.19107l-0.0273 2.0813c0 0.08189 0 0.21154-0.08189 0.30708-0.13648 0.15695-0.60051 0.47086-1.0577 0.47086-0.45038 0-0.62098-0.39579-0.62098-1.3443 0-0.9963 0.08189-1.2693 0.08189-1.5013 0-0.12966-0.08871-0.20472-0.1979-0.20472-0.12966 0-0.19107 0.07506-0.21837 0.25249-0.05459 0.32073-0.08871 0.81206-0.08189 1.4535 0.01365 1.3307 0.32073 1.7265 1.0304 1.7265z"/>
  <path d="m60.654 70.148c1.317 0 2.3884-0.62781 2.3884-2.0608 0-2.211-2.0677-2.5863-3.1732-2.5863-0.12283 0-0.22519 0.08871-0.22519 0.21154v4.1012c0 0.10236 0.07506 0.19107 0.1706 0.21837 0.05459 0.01365 0.43674 0.11601 0.83935 0.11601zm0-0.43674c-0.20472 0-0.42309-0.04094-0.56639-0.06824v-3.7054c1.3443 0.06824 2.5112 0.62098 2.5112 2.1496 0 1.0918-0.76429 1.6241-1.9448 1.6241z"/>
  <path d="m64.121 70.141c0.10918 0 0.21154-0.09554 0.21154-0.1979l0.0068-1.5081c0-0.23202 0.08871-0.5391 0.23202-0.72334 0.23202-0.30708 0.52545-0.57322 0.83253-0.57322 0.18425 0 0.23202 0.08871 0.23202 0.1979v0.15695c0 0.10236 0.04777 0.21154 0.1979 0.21154 0.12283 0 0.21154-0.08871 0.21154-0.20472v-0.21837c0-0.25931-0.12283-0.56639-0.56639-0.56639-0.56639 0-0.93489 0.44356-1.1396 0.80523v-0.58004c0-0.11601-0.09554-0.20472-0.21837-0.20472-0.11601 0-0.21837 0.08871-0.21837 0.20472v3.0026c0 0.10236 0.10918 0.1979 0.21837 0.1979z"/>
  <path d="m66.878 66.197c0.10918 0 0.21154-0.08189 0.21154-0.20472l0.0068-0.27978c0-0.10236-0.09554-0.21154-0.20472-0.21154-0.10918 0-0.21837 0.09554-0.21837 0.20472l-0.0068 0.27978c0 0.11601 0.09554 0.21154 0.21154 0.21154zm-0.04094 3.9443c0.11601 0 0.21837-0.10236 0.21837-0.21837l0.04094-2.9616c0-0.12283-0.09554-0.22519-0.21837-0.22519-0.11601 0-0.22519 0.10236-0.22519 0.22519l-0.04094 2.9616c0 0.11601 0.10236 0.21837 0.22519 0.21837z"/>
  <path d="m69.021 70.148c0.10918 0 0.16378-0.06142 0.1979-0.13648l1.201-2.9753c0.01365-0.0273 0.0273-0.05459 0.0273-0.09554 0-0.10918-0.09554-0.21154-0.21837-0.21154-0.08871 0-0.16378 0.05459-0.1979 0.12966l-1.01 2.5522-1.0031-2.5317c-0.04094-0.08871-0.10236-0.1433-0.1979-0.1433-0.12283 0-0.22519 0.08871-0.22519 0.21154 0 0.03412 0.0068 0.04777 0.01365 0.07506l1.2147 2.9753c0.03412 0.08189 0.10236 0.15013 0.1979 0.15013z"/>
  <path d="m72.364 70.141c0.41626 0 0.88712-0.21837 1.126-0.49133 0.0273-0.03412 0.05459-0.08871 0.05459-0.13648 0-0.11601-0.08871-0.20472-0.20472-0.20472-0.05459 0-0.10918 0.0273-0.13648 0.06824-0.18425 0.1979-0.54592 0.3685-0.84618 0.3685-0.52545 0-0.92124-0.22519-1.1533-0.66193l2.1154-1.2078c0.11601-0.06824 0.16378-0.1433 0.16378-0.21837 0-0.30026-0.40262-0.92124-1.2829-0.92124-0.92806 0-1.5354 0.83935-1.5354 1.7674 0 0.8803 0.66875 1.6378 1.6992 1.6378zm-1.2897-1.4399c-0.01365-0.08189-0.01365-0.1433-0.01365-0.21837 0.01365-0.74382 0.47768-1.3443 1.1464-1.3443 0.47086 0 0.73017 0.16378 0.853 0.46403z"/>
  <path d="m74.166 70.762c0.13648 0 0.15695-0.10918 0.30026-0.46403 0.10236-0.24566 0.15013-0.35485 0.15013-0.4845 0-0.11601-0.10918-0.23884-0.24566-0.23884-0.15013 0-0.29343 0.15013-0.29343 0.32755 0 0.08189 0.03412 0.15013 0.07506 0.20472l-0.15695 0.41626c-0.0068 0.02047-0.01365 0.04777-0.01365 0.06824 0 0.09554 0.08189 0.1706 0.18425 0.1706z"/>
  <path d="m14.445 78.378c0.09554 0 0.16986-0.07431 0.16986-0.16986v-1.0828c0.74312-0.0053 2.0754-0.28663 2.0754-1.2739 0-0.70066-0.64227-1.0934-1.9799-1.0934-0.41402 0-0.43526 0.05308-0.43526 0.23355v3.2166c0 0.09554 0.07962 0.16986 0.16986 0.16986zm0.16986-1.5871v-1.6933c0.04246-0.0053 0.12739-0.0053 0.18578-0.0053 0.9979 0 1.5552 0.27071 1.5552 0.75904 0 0.78558-1.2845 0.93421-1.741 0.93952z"/>
  <path d="m18.15 78.378c0.32379 0 0.69004-0.16986 0.87582-0.38218 0.02123-0.02654 0.04246-0.069 0.04246-0.10616 0-0.09024-0.069-0.15924-0.15924-0.15924-0.04246 0-0.08493 0.02123-0.10616 0.05308-0.14332 0.15393-0.42464 0.28663-0.65819 0.28663-0.40872 0-0.71658-0.17516-0.89705-0.51488l1.6455-0.93952c0.09024-0.05308 0.12739-0.11147 0.12739-0.16986 0-0.23355-0.31317-0.71658-0.9979-0.71658-0.72189 0-1.1943 0.65288-1.1943 1.3748 0 0.68473 0.52018 1.2739 1.3217 1.2739zm-1.0032-1.12c-0.01062-0.0637-0.01062-0.11147-0.01062-0.16986 0.01062-0.57857 0.37156-1.0457 0.89174-1.0457 0.36625 0 0.56796 0.12739 0.6635 0.36094z"/>
  <path d="m19.828 78.378c0.08493 0 0.16455-0.07431 0.16455-0.15393l0.0053-1.1731c0-0.18047 0.069-0.41933 0.18047-0.56265 0.18047-0.23886 0.40872-0.44587 0.64758-0.44587 0.14332 0 0.18047 0.069 0.18047 0.15393v0.12208c0 0.07962 0.03716 0.16455 0.15393 0.16455 0.09554 0 0.16455-0.069 0.16455-0.15924v-0.16986c0-0.2017-0.09554-0.44056-0.44056-0.44056-0.44056 0-0.7272 0.34502-0.88644 0.62634v-0.45118c0-0.09024-0.07431-0.15924-0.16986-0.15924-0.09024 0-0.16986 0.069-0.16986 0.15924v2.3355c0 0.07962 0.08493 0.15393 0.16986 0.15393z"/>
  <path d="m22.068 78.383c0.08493 0 0.16455-0.07431 0.16455-0.15924v-2.1657h0.5945c0.09554 0 0.16986-0.07962 0.16986-0.16986 0-0.09554-0.07431-0.16455-0.16986-0.16455h-0.5945v-0.7272c0-0.09024-0.0637-0.16986-0.16455-0.16986-0.09554 0-0.16986 0.07962-0.16986 0.16986v0.7272h-0.57326c-0.09554 0-0.18047 0.0637-0.18047 0.16455 0 0.09024 0.07431 0.16986 0.16986 0.16986h0.58388v2.1657c0 0.08493 0.07962 0.15924 0.16986 0.15924z"/>
  <path d="m23.49 75.31c0.08493 0 0.16455-0.0637 0.16455-0.15924l0.0053-0.21763c0-0.07962-0.07431-0.16455-0.15924-0.16455s-0.16986 0.07431-0.16986 0.15924l-0.0053 0.21763c0 0.09024 0.07431 0.16455 0.16455 0.16455zm-0.03185 3.068c0.09024 0 0.16986-0.07962 0.16986-0.16986l0.03185-2.3037c0-0.09554-0.07431-0.17516-0.16986-0.17516-0.09024 0-0.17516 0.07962-0.17516 0.17516l-0.03185 2.3037c0 0.09024 0.07962 0.16986 0.17516 0.16986z"/>
  <path d="m24.658 78.378c0.09554 0 0.15924-0.07962 0.15924-0.17516l0.0053-0.47241c0.0053-0.38748 0.09554-0.74312 0.3344-1.1784 0.18047-0.3291 0.42995-0.50957 0.6635-0.50957 0.35564 0 0.49895 0.19109 0.49895 1.189 0 0.52549 0.0053 0.74312 0.0053 0.98198 0 0.08493 0.07431 0.16455 0.15924 0.16455 0.09554 0 0.15924-0.07962 0.15924-0.16986 0-0.24417 0.0053-0.45649 0.0053-0.9979 0-1.0616-0.2017-1.4809-0.78028-1.4809-0.4618 0-0.83866 0.35564-1.0457 0.9926v-0.83866c0-0.09024-0.07431-0.15924-0.16455-0.15924-0.09024 0-0.16986 0.069-0.16986 0.15924v2.3408c0 0.07962 0.07962 0.15393 0.16986 0.15393z"/>
  <path d="m28.145 78.394c0.39279 0 0.7325-0.22294 0.87051-0.40341v0.2017c0 0.10616 0.07431 0.18578 0.18578 0.18578 0.09024 0 0.17516-0.07962 0.17516-0.16455v-2.3408c0-0.09024-0.07431-0.14862-0.15924-0.14862-0.07962 0-0.15924 0.05839-0.15924 0.14862l-0.02123 1.6189c0 0.0637 0 0.16455-0.0637 0.23886-0.10616 0.12208-0.4671 0.36625-0.82274 0.36625-0.35033 0-0.48303-0.30786-0.48303-1.0457 0-0.77497 0.0637-0.98729 0.0637-1.1678 0-0.10085-0.069-0.15924-0.15393-0.15924-0.10085 0-0.14862 0.05839-0.16986 0.1964-0.04246 0.24948-0.069 0.63165-0.0637 1.1306 0.01062 1.0351 0.24948 1.3429 0.80151 1.3429z"/>
  <path d="m31.123 78.378c0.44587 0 0.80682-0.24417 0.97136-0.48834 0.03185-0.04246 0.05308-0.07962 0.05308-0.12208 0-0.08493-0.07431-0.15924-0.16455-0.15924-0.0637 0-0.11147 0.04246-0.14862 0.09554-0.14862 0.21232-0.36625 0.36625-0.71127 0.36625-0.37687 0-0.83336-0.29725-0.83336-0.85459 0-0.5945 0.43526-1.1784 0.87051-1.1784 0.2654 0 0.40872 0.11678 0.54672 0.28132 0.03185 0.03716 0.069 0.05839 0.12208 0.05839 0.09024 0 0.15924-0.07431 0.15924-0.16455 0-0.03716-0.01592-0.08493-0.04246-0.11147-0.2017-0.23355-0.40341-0.37156-0.7962-0.37156-0.61573 0-1.1837 0.76435-1.1837 1.4969 0 0.65288 0.5308 1.1518 1.1571 1.1518z"/>
  <path d="m33.602 78.378c0.66881 0 1.2368-0.65288 1.2368-1.4332 0-0.67942-0.4671-1.2155-1.0722-1.2155-0.71658 0-1.2421 0.71127-1.2421 1.4279 0 0.68473 0.4671 1.2208 1.0775 1.2208zm0.02123-0.30256c-0.39279 0-0.75374-0.36094-0.75374-0.9289 0-0.57857 0.39279-1.1147 0.87051-1.1147 0.42995 0 0.75904 0.44056 0.75904 0.93952 0 0.58919-0.41402 1.1041-0.87582 1.1041z"/>
  <path d="m35.396 78.861c0.10616 0 0.12208-0.08493 0.23355-0.36094 0.07962-0.19109 0.11678-0.27602 0.11678-0.37687 0-0.09024-0.08493-0.18578-0.19109-0.18578-0.11678 0-0.22824 0.11678-0.22824 0.25478 0 0.0637 0.02654 0.11678 0.05839 0.15924l-0.12208 0.32379c-0.0053 0.01592-0.01062 0.03716-0.01062 0.05308 0 0.07431 0.0637 0.1327 0.14332 0.1327z"/>
  <path d="m40.492 78.383c0.10085 0 0.16986-0.08493 0.16986-0.16455 0-0.04246-0.01592-0.07962-0.03185-0.12739l-1.12-3.2591c-0.02654-0.069-0.09024-0.11147-0.15924-0.11147-0.0637 0-0.1327 0.03716-0.16455 0.10616l-0.84928 2.171-0.2654 0.05839c-0.07431 0.01592-0.12739 0.08493-0.12739 0.16455 0 0.09024 0.0637 0.15924 0.14862 0.16455 0.02654 0 0.0637-0.0053 0.09554-0.01592l-0.29194 0.74843c-0.01592 0.04246-0.02123 0.069-0.02123 0.09024 0 0.09554 0.0637 0.16986 0.15924 0.16986 0.069 0 0.1327-0.04246 0.15393-0.10616l0.38748-0.97667 1.3217-0.29194 0.43526 1.2633c0.02123 0.07431 0.09024 0.11678 0.15924 0.11678zm-1.7729-1.4703 0.61042-1.5499 0.45118 1.3217z"/>
  <path d="m42.588 78.378c0.50957 0 0.96606-0.22294 1.2633-0.62634 0.02654-0.03185 0.03185-0.069 0.03185-0.10085 0-0.11147-0.08493-0.16986-0.16986-0.16986-0.05308 0-0.09024 0.01062-0.1327 0.0637-0.2654 0.34502-0.60511 0.49895-0.9926 0.49895-0.61573 0-1.1837-0.4618-1.1837-1.2421 0-0.90767 0.65288-1.7092 1.2845-1.7092 0.37156 0 0.56796 0.16986 0.66881 0.2654v0.04246c0 0.09024 0.07431 0.16455 0.16986 0.16455 0.09554 0 0.16986-0.07962 0.16986-0.16986v-0.33971c0-0.09554-0.07431-0.16455-0.16455-0.16455-0.0637 0-0.11678 0.03185-0.13801 0.07431-0.16455-0.10616-0.37156-0.20701-0.70596-0.20701-0.81743 0-1.6349 0.97136-1.6349 2.0436 0 0.96075 0.70066 1.5765 1.534 1.5765z"/>
  <path d="m46.808 78.378c0.03716 0 0.069-0.01062 0.10085-0.02654 0.67412-0.34502 1.4066-1.0404 1.4066-2.2612 0-0.91828-0.48834-1.327-1.1306-1.327-0.61573 0-1.0988 0.50426-1.0988 1.3005 0 0.70596 0.45649 1.0775 1.0191 1.0775 0.30786 0 0.55734-0.09554 0.74312-0.2017-0.19109 0.49364-0.61042 0.89705-1.1094 1.1359-0.05308 0.02654-0.09024 0.07962-0.09024 0.14862 0 0.08493 0.069 0.15393 0.15924 0.15393zm0.29725-1.5552c-0.40341 0-0.70596-0.24948-0.70596-0.75904 0-0.58919 0.32379-0.98198 0.77497-0.98198 0.40341 0 0.82805 0.1964 0.82805 1.0085 0 0.12739-0.0053 0.24948-0.02123 0.37156-0.10085 0.10085-0.40341 0.36094-0.87582 0.36094z"/>
  <path d="m50.211 78.378c0.7272 0 1.3217-0.88113 1.3217-1.9056 0-0.9289-0.50426-1.7304-1.2049-1.7304-0.74312 0-1.327 0.90236-1.327 1.9109 0 0.91828 0.50426 1.7251 1.2102 1.7251zm0-0.3291c-0.52549 0-0.88644-0.67412-0.88644-1.4066 0-0.8599 0.4671-1.5712 1.0032-1.5712 0.50957 0 0.88644 0.66881 0.88644 1.4119 0 0.85459-0.47241 1.5659-1.0032 1.5659z"/>
  <path d="m53.332 78.378c0.60511 0 1.0934-0.50426 1.0934-1.3005 0-0.71127-0.45649-1.0775-1.0138-1.0775-0.31317 0-0.55734 0.09554-0.74312 0.2017 0.18578-0.49364 0.5945-0.91298 1.1041-1.1412 0.05308-0.02123 0.09024-0.07431 0.09024-0.14332 0-0.09024-0.0637-0.15393-0.15393-0.15393-0.04246 0-0.069 0.01062-0.10616 0.02654-0.5998 0.29725-1.4066 0.96606-1.4066 2.2612 0 0.98198 0.57326 1.327 1.1359 1.327zm0.0053-0.31848c-0.47772 0-0.82805-0.29194-0.82805-1.0085 0-0.12739 0.0053-0.24948 0.02654-0.37156 0.10085-0.10085 0.40341-0.36094 0.87582-0.36094 0.38748 0 0.70596 0.22824 0.70596 0.75904 0 0.5945-0.3344 0.98198-0.78028 0.98198z"/>
  <path d="m56.564 78.378c0.08493 0 0.16455-0.07962 0.16455-0.16455v-0.70066l0.16455 0.0053c0.08493 0 0.15924-0.07962 0.15924-0.16986 0-0.09024-0.07431-0.16455-0.15924-0.16455l-0.16455-0.0053v-2.2559c0-0.09554-0.069-0.16455-0.16455-0.16455-0.0637 0-0.11147 0.02654-0.14862 0.08493l-1.4491 2.3886c-0.01592 0.02654-0.02654 0.05308-0.02654 0.09024 0 0.08493 0.07431 0.16455 0.16455 0.16455l1.2898 0.02123v0.70596c0 0.08493 0.07431 0.16455 0.16986 0.16455zm-0.16986-1.2049-0.9926-0.01592 0.9926-1.6402z"/>
  <path d="m57.844 78.346h1.1412c0.08493 0 0.16455-0.07431 0.16455-0.16455 0-0.09024-0.0637-0.16986-0.17516-0.16986h-0.35033l0.04246-3.0893c0-0.08493-0.0637-0.16986-0.16986-0.16986-0.03185 0-0.09024 0.02123-0.11678 0.05308l-0.66881 0.7272c-0.03185 0.03185-0.04777 0.07431-0.04777 0.11147 0 0.09024 0.069 0.16986 0.16455 0.16986 0.04777 0 0.09024-0.01592 0.12208-0.05308l0.38218-0.40872-0.04246 2.6593h-0.44587c-0.09554 0-0.16455 0.07962-0.16455 0.16986 0 0.09024 0.069 0.16455 0.16455 0.16455z"/>
  <path d="m59.739 78.861c0.10616 0 0.12208-0.08493 0.23355-0.36094 0.07962-0.19109 0.11678-0.27602 0.11678-0.37687 0-0.09024-0.08493-0.18578-0.19109-0.18578-0.11678 0-0.22824 0.11678-0.22824 0.25478 0 0.0637 0.02654 0.11678 0.05839 0.15924l-0.12208 0.32379c-0.0053 0.01592-0.01062 0.03716-0.01062 0.05308 0 0.07431 0.0637 0.1327 0.14332 0.1327z"/>
  <path d="m64.834 78.383c0.10085 0 0.16986-0.08493 0.16986-0.16455 0-0.04246-0.01592-0.07962-0.03185-0.12739l-1.12-3.2591c-0.02654-0.069-0.09024-0.11147-0.15924-0.11147-0.0637 0-0.1327 0.03716-0.16455 0.10616l-0.84928 2.171-0.2654 0.05839c-0.07431 0.01592-0.12739 0.08493-0.12739 0.16455 0 0.09024 0.0637 0.15924 0.14862 0.16455 0.02654 0 0.0637-0.0053 0.09554-0.01592l-0.29194 0.74843c-0.01592 0.04246-0.02123 0.069-0.02123 0.09024 0 0.09554 0.0637 0.16986 0.15924 0.16986 0.069 0 0.1327-0.04246 0.15393-0.10616l0.38748-0.97667 1.3217-0.29194 0.43526 1.2633c0.02123 0.07431 0.09024 0.11678 0.15924 0.11678zm-1.7729-1.4703 0.61042-1.5499 0.45118 1.3217z"/>
  <path d="m66.607 78.378c0.65288 0 1.2368-0.42995 1.2368-1.0244 0-0.49364-0.37687-0.83336-1.1412-1.0457-0.56796-0.15924-0.85459-0.35564-0.85459-0.66881 0-0.36094 0.30786-0.57857 0.8652-0.57857 0.4671 0 0.76966 0.19109 0.80151 0.45649 0.0053 0.07431 0.07431 0.14332 0.15924 0.14332 0.09024 0 0.16455-0.07431 0.16455-0.16986 0-0.43526-0.3981-0.7325-1.1094-0.7325-0.76435 0-1.2208 0.38218-1.2208 0.89705 0 0.57326 0.58388 0.84397 1.1094 0.98729 0.67412 0.18578 0.88644 0.42995 0.88644 0.73781 0 0.38218-0.36625 0.67942-0.89705 0.67942-0.44056 0-0.82805-0.23355-0.94482-0.56265-0.02654-0.08493-0.08493-0.13801-0.17516-0.13801-0.10085 0-0.18047 0.07962-0.18047 0.17516 0 0.03185 0.01592 0.07962 0.03185 0.10616 0.16986 0.42464 0.62104 0.73781 1.2686 0.73781z"/>
  <path d="m69.871 78.378c0.93952 0 1.3535-0.58388 1.465-1.4332 0.04777-0.37156 0.0637-0.7325 0.0637-1.0881 0-0.38748-0.02123-0.89705-0.02123-0.9289 0-0.07962-0.0637-0.16455-0.16986-0.16455-0.11678 0-0.16455 0.09024-0.16455 0.17516 0 0.30786 0.0053 0.5998 0.0053 0.88644 0 0.37687-0.01062 0.72189-0.04777 1.0775-0.08493 0.73781-0.44587 1.1784-1.12 1.1784-0.89705 0-1.0669-0.95544-1.0934-1.7251-0.0053-0.18047-0.01062-0.43526-0.01062-0.65288 0-0.26009 0.01062-0.51488 0.01062-0.77497 0-0.08493-0.0637-0.16455-0.16455-0.16455-0.09554 0-0.16986 0.07431-0.16986 0.15924 0 0.28132-0.01062 0.57857-0.01062 0.89174 0 0.21763 0 0.35033 0.01062 0.61573 0.04777 1.2633 0.52549 1.948 1.4172 1.948z"/>
 </g>
 <g transform="scale(1.0613 .94227)" fill="#2f2f2f" aria-label="27.07.2018">
  <path d="m13.594 98.252h2.9819c0.13738 0 0.25859-0.11313 0.25859-0.24243 0-0.14546-0.12122-0.25859-0.25859-0.25859h-2.4647c0.05657-0.95356 0.68688-1.398 1.3091-1.8021 0.66264-0.42829 1.3414-0.84042 1.3414-1.7697 0-0.75961-0.6384-1.3738-1.5273-1.3738-0.67072 0-1.1637 0.36364-1.4465 0.6384-0.18586 0.1697-0.23435 0.25051-0.23435 0.3394 0 0.12122 0.10505 0.25859 0.25859 0.25859 0.12122 0 0.18586-0.08889 0.25051-0.16162 0.05657-0.06465 0.51718-0.57375 1.1717-0.57375 0.57375 0 1.0182 0.37173 1.0182 0.87275 0 0.66264-0.54143 0.9778-1.1556 1.3657-0.80002 0.51718-1.5031 1.0909-1.5031 2.4647z"/>
  <path d="m18.241 98.3c0.08081 0 0.18586-0.0404 0.22627-0.13738l2.4566-4.8648c0.01616-0.0404 0.03232-0.08889 0.03232-0.1293 0-0.14546-0.10505-0.25859-0.25051-0.25859h-2.8688c-0.14546 0-0.25051 0.11313-0.25051 0.25051 0 0.14546 0.10505 0.25051 0.25051 0.25051h2.4566l-2.2708 4.5254c-0.02424 0.0404-0.03232 0.07273-0.03232 0.10505 0 0.13738 0.11313 0.25859 0.25051 0.25859z"/>
  <path d="m21.667 98.3c0.17778 0 0.34748-0.17778 0.34748-0.40405 0-0.17778-0.1293-0.31516-0.29092-0.31516-0.17778 0-0.34748 0.18586-0.34748 0.38789 0 0.18586 0.12122 0.33132 0.29092 0.33132z"/>
  <path d="m24.714 98.3c1.1071 0 2.0122-1.3414 2.0122-2.9011 0-1.4142-0.7677-2.6344-1.8344-2.6344-1.1313 0-2.0202 1.3738-2.0202 2.9092 0 1.398 0.7677 2.6263 1.8425 2.6263zm0-0.50102c-0.80002 0-1.3495-1.0263-1.3495-2.1415 0-1.3091 0.71113-2.392 1.5273-2.392 0.77578 0 1.3495 1.0182 1.3495 2.1495 0 1.301-0.71921 2.3839-1.5273 2.3839z"/>
  <path d="m28.221 98.3c0.08081 0 0.18586-0.0404 0.22627-0.13738l2.4566-4.8648c0.01616-0.0404 0.03232-0.08889 0.03232-0.1293 0-0.14546-0.10505-0.25859-0.25051-0.25859h-2.8688c-0.14546 0-0.25051 0.11313-0.25051 0.25051 0 0.14546 0.10505 0.25051 0.25051 0.25051h2.4566l-2.2708 4.5254c-0.02424 0.0404-0.03232 0.07273-0.03232 0.10505 0 0.13738 0.11313 0.25859 0.25051 0.25859z"/>
  <path d="m31.647 98.3c0.17778 0 0.34748-0.17778 0.34748-0.40405 0-0.17778-0.1293-0.31516-0.29092-0.31516-0.17778 0-0.34748 0.18586-0.34748 0.38789 0 0.18586 0.12122 0.33132 0.29092 0.33132z"/>
  <path d="m32.843 98.252h2.9819c0.13738 0 0.25859-0.11313 0.25859-0.24243 0-0.14546-0.12122-0.25859-0.25859-0.25859h-2.4647c0.05657-0.95356 0.68688-1.398 1.3091-1.8021 0.66264-0.42829 1.3414-0.84042 1.3414-1.7697 0-0.75961-0.6384-1.3738-1.5273-1.3738-0.67072 0-1.1637 0.36364-1.4465 0.6384-0.18586 0.1697-0.23435 0.25051-0.23435 0.3394 0 0.12122 0.10505 0.25859 0.25859 0.25859 0.12122 0 0.18586-0.08889 0.25051-0.16162 0.05657-0.06465 0.51718-0.57375 1.1717-0.57375 0.57375 0 1.0182 0.37173 1.0182 0.87275 0 0.66264-0.54143 0.9778-1.1556 1.3657-0.80002 0.51718-1.5031 1.0909-1.5031 2.4647z"/>
  <path d="m38.92 98.3c1.1071 0 2.0122-1.3414 2.0122-2.9011 0-1.4142-0.7677-2.6344-1.8344-2.6344-1.1313 0-2.0202 1.3738-2.0202 2.9092 0 1.398 0.7677 2.6263 1.8425 2.6263zm0-0.50102c-0.80002 0-1.3495-1.0263-1.3495-2.1415 0-1.3091 0.71113-2.392 1.5273-2.392 0.77578 0 1.3495 1.0182 1.3495 2.1495 0 1.301-0.71921 2.3839-1.5273 2.3839z"/>
  <path d="m42.249 98.252h1.7374c0.1293 0 0.25051-0.11313 0.25051-0.25051s-0.09697-0.25859-0.26667-0.25859h-0.53335l0.06465-4.7031c0-0.1293-0.09697-0.25859-0.25859-0.25859-0.04849 0-0.13738 0.03232-0.17778 0.08081l-1.0182 1.1071c-0.04849 0.04849-0.07273 0.11313-0.07273 0.1697 0 0.13738 0.10505 0.25859 0.25051 0.25859 0.07273 0 0.13738-0.02424 0.18586-0.08081l0.58183-0.62224-0.06465 4.0486h-0.6788c-0.14546 0-0.25051 0.12122-0.25051 0.25859s0.10505 0.25051 0.25051 0.25051z"/>
  <path d="m46.742 98.3c0.96164 0 1.6728-0.67072 1.6728-1.5596 0-0.62224-0.36364-1.1475-0.9778-1.4707 0.42829-0.22627 0.84042-0.57375 0.84042-1.2041 0-0.7677-0.59799-1.301-1.4465-1.301-0.80002 0-1.495 0.53335-1.495 1.4303 0 0.59799 0.37981 0.92123 0.8081 1.1313-0.50102 0.25859-1.0505 0.67072-1.0667 1.495-0.0081 0.8485 0.69497 1.4788 1.6647 1.4788zm0.04849-3.2728c-0.68688-0.19394-0.96164-0.44446-0.96164-0.86467 0-0.58183 0.47678-0.88891 1.002-0.88891s0.94548 0.28284 0.94548 0.74345c0 0.36364-0.1697 0.69497-0.98588 1.0101zm-0.04849 2.7718c-0.64648 0-1.1717-0.38789-1.1717-0.92932 0-0.80002 0.69497-1.0667 1.2526-1.3172 0.54951 0.17778 1.099 0.56567 1.099 1.2122 0 0.71113-0.63032 1.0344-1.1798 1.0344z"/>
 </g>
 <rect x="96.651" y="36.109" width="19.925" height="55.781" rx="1" ry="1" fill="#fff" stroke-width=".6" paint-order="stroke fill markers"/>
 <g fill="#2f2f2f" stroke-linecap="round" stroke-linejoin="round" stroke-width=".19">
  <path d="m98.063 90.273v-0.554h17.101v0.554zm0-1.107v-0.553h17.101v0.553zm0-2.212v-1.106h17.101v1.106zm0-1.659v-0.553h17.101v0.553zm0-1.66v-0.553h17.101v0.553zm0-1.105v-1.66h17.101v1.66zm0-2.766v-0.554h17.101v0.554zm0-1.107v-1.659h17.101v1.66zm0-3.318v-0.553h17.101v0.553zm0-1.107v-1.106h17.101v1.106zm0-2.765v-1.107h17.101v1.106zm0-1.659v-0.554h17.101v0.554zm0-1.66v-1.106h17.101v1.106zm0-1.659v-1.106h17.101v1.106zm0-1.659v-0.553h17.101v0.553zm0-1.107v-0.553h17.101v0.553zm0-1.106v-0.553h17.101v0.553zm0-2.212v-0.553h17.101v0.553zm0-1.66v-0.553h17.101v0.553zm0-2.212v-0.553h17.101v0.553zm0-1.659v-1.107h17.101v1.107zm0-2.213v-1.106h17.101v1.106zm0-1.659v-0.553h17.101v0.553zm0-1.659v-0.554h17.101v0.554zm0-2.213v-1.66h17.101v1.66zm0-2.212v-0.553h17.101v0.553zm0-1.66v-1.106h17.101v1.106zm0-1.658v-1.107h17.101v1.106zm0-2.213v-0.553h17.101v0.553zm0-1.107v-0.553h17.101v0.553z"/>
 </g>
</svg>
