<?xml version="1.0" encoding="UTF-8" standalone="no"?>
<svg
   width="128"
   height="128"
   version="1.1"
   id="svg14"
   xmlns="http://www.w3.org/2000/svg"
   xmlns:svg="http://www.w3.org/2000/svg">
  <defs
     id="defs18" />
  <g
     id="text2"
     style="line-height:1.25" />
  <path
     d="M116 128H12c-6.6 0-12-5.4-12-12V12C0 5.4 5.4 0 12 0h104c6.6 0 12 5.4 12 12v104c0 6.6-5.4 12-12 12z"
     fill="#1bb7fc"
     id="path4" />
  <path
     d="M124.48 3.52L3.52 124.48C5.7 126.65 8.7 128 12 128h104c6.6 0 12-5.4 12-12V12c0-3.3-1.35-6.3-3.52-8.48z"
     fill="#1b79fc"
     id="path6" />
  <path
     d="M112 101c0 6.63-5.37 12-12 12H27.89c-6.6 0-12-5.4-12-12V28.9c0-6.6 5.4-12 12-12H100c6.63 0 12 5.37 12 12z"
     fill="#1ba2fc"
     id="path8" />
  <g
     aria-label="2"
     id="text12"
     style="line-height:1.25;text-align:center;text-anchor:middle;fill:#ffffff;stroke-width:1.102">
    <path
       d="m 44.140073,99.084 h 38.10024 c 2.64585,0 5.080032,-2.222514 5.080032,-4.974198 0,-2.857518 -2.434182,-5.080032 -5.080032,-5.080032 H 54.617639 c 1.481676,-9.207558 8.149218,-13.864254 14.710926,-18.097614 8.149218,-5.185866 17.145108,-11.218404 17.145108,-23.071812 0,-10.265898 -8.46672,-18.626784 -20.531796,-18.626784 -8.678388,0 -15.134262,4.656696 -18.838452,8.255052 -2.64585,2.540016 -3.386688,3.810024 -3.386688,5.503368 0,2.540016 2.010846,5.185866 5.080032,5.185866 2.434182,0 3.386688,-1.164174 4.445028,-2.328348 0.740838,-0.846672 5.82087,-6.455874 12.70008,-6.455874 5.82087,0 10.371732,3.492522 10.371732,8.46672 0,6.455874 -5.609202,9.948396 -13.335084,15.028428 -8.99589,5.715036 -18.838452,12.911748 -18.838452,31.22103 z"
       
       id="path21" />
  </g>
</svg>
