<?xml version="1.0" encoding="UTF-8"?>
<svg clip-rule="evenodd" fill-rule="evenodd" stroke-linejoin="round" stroke-miterlimit="2" version="1.1" viewBox="0 0 128 128" xml:space="preserve" xmlns="http://www.w3.org/2000/svg" xmlns:xlink="http://www.w3.org/1999/xlink">
    <path d="m63.89 9.64c-62.31 0-63.79 69.86-63.79 83.69s28.56 25.03 63.79 25.03c35.24 0 63.79-11.21 63.79-25.03 0-13.83-1.47-83.69-63.79-83.69z" fill="#fcc21b" fill-rule="nonzero"/>
    
        <path d="m42 58.3c-4.49 0.04-8.17-4.27-8.22-9.62-0.05-5.37 3.55-9.75 8.04-9.79 4.48-0.04 8.17 4.27 8.22 9.64 0.05 5.35-3.55 9.72-8.04 9.77zm44.11 0c4.48-0.01 8.11-4.36 8.1-9.71-0.01-5.37-3.66-9.7-8.14-9.69-4.49 0.01-8.13 4.36-8.12 9.73 0.02 5.35 3.67 9.68 8.16 9.67z" fill="#2f2f2f" fill-rule="nonzero"/>
    
    <path d="m96.462 69.49c-3.09-2.09-6.98-0.71-10.42 0-9.58 1.98-18 2.06-22.04 2.06s-12.46-0.08-22.04-2.06c-3.44-0.71-7.33-2.09-10.42 0-3.92 2.65-1.03 12.15 5.14 18.57 3.73 3.88 12.61 11.41 27.32 11.41s23.59-7.53 27.32-11.41c6.17-6.42 9.05-15.92 5.14-18.57z" fill="#e65619" fill-rule="nonzero"/>
    
    
    
<g transform="matrix(.13808 0 0 .13808 -13.999 3.2699)" fill="#e65619"><path class="st0" d="m354.92 475.12c8.18-0.92 16.47-0.32 24.51 1.34 9.69 1.71 19.21 4.17 28.82 6.28 14.22 2.91 28.5 5.6 42.94 7.24 15.53 2.43 31.2 3.8 46.86 5.11 8.12 0.76 16.3 0.7 24.42 1.52 7.98 0.8 16.01 0.47 24.01 0.69 13.01 0.34 26.03 0.28 39.03-0.07 17.35 0.03 34.69-0.92 51.95-2.59 22.61-1.81 45.21-4.24 67.51-8.52 11.17-1.95 22.3-4.17 33.32-6.88 12.07-2.85 24.49-5.34 36.96-4.23 8.96 0.84 17.95 3.98 24.78 10 5.67 5.25 8.74 12.88 9.52 20.48 0.9 9.34 0.1 18.82-2.18 27.92-5.11 20.85-15.09 40.21-27.11 57.88-20.84 29.36-49.05 52.93-80.09 70.89-17.29 9.21-35.16 17.64-54.1 22.88-33.21 10.24-68.37 13.18-102.95 10.8-15.74-1.17-31.32-3.87-46.7-7.34-34.61-8.7-67.37-24.6-95.76-46.2-20.64-16.21-39.79-34.8-54.01-57-10.22-15.68-18.23-32.88-22.9-51.03-2.37-9.04-3.12-18.49-2.41-27.81 0.61-7.95 3.69-15.99 9.63-21.47 6.58-5.89 15.28-8.9 23.95-9.89zm-1.01 18.03c-4.12 0.86-8.22 2.52-11.34 5.42-2.45 2.26-3.06 5.74-3.39 8.9-0.68 7.5 0.31 15.05 1.92 22.37 0.88 3.96 2.08 8.08 4.95 11.1 2.85 3.16 6.92 4.75 10.91 5.98 25.84 7.95 52.18 14.39 78.95 18.31 17.53 2.46 35.02 5.41 52.69 6.62 27.18 3.18 54.58 3.28 81.9 3.67 20.66-0.21 41.36-0.63 61.91-2.91 13.97-0.51 27.85-2.3 41.67-4.34 9.96-1.45 20.01-2.36 29.86-4.49 13.29-2.24 26.48-5.03 39.55-8.33 11.47-3.08 23.16-5.52 34.31-9.68 5.57-1.97 9.66-6.92 11.25-12.52 2.13-7.71 3.21-15.77 2.91-23.77-0.28-3.79-0.63-8.11-3.54-10.9-3.12-2.9-7.24-4.49-11.34-5.39-9.03-1.86-18.17 0.35-27.06 1.97-11.43 1.91-22.55 5.29-34 7.08-25.47 4.81-51.17 8.44-77.02 10.53-22.78 1.73-45.64 2.06-68.48 2.44-29.67 0.01-59.43-0.23-88.95-3.57-9.93-0.96-19.9-1.7-29.75-3.38-9.42-1.61-18.93-2.64-28.31-4.52-7.95-1.61-16.03-2.58-23.9-4.59-7.82-1.96-15.75-3.38-23.64-4.97-7.24-1.41-14.74-2.36-22.06-1.03z"/><path class="st0" d="m341.58 484.49c7.7467-1.612 15.684-0.46057 23.346 1.2484 8.35 1.9271 16.742 3.6482 25.018 6.0238 8.3288 2.4362 16.88 3.6119 25.293 5.5632 9.9268 2.2786 19.991 3.527 29.96 5.4784 10.424 2.0362 20.975 2.9331 31.484 4.0967 31.241 4.0482 62.736 4.3391 94.135 4.327 24.171-0.46058 48.364-0.86055 72.472-2.9574 27.357-2.5332 54.555-6.9328 81.51-12.763 12.117-2.1695 23.886-6.2662 35.982-8.5812 9.4082-1.9635 19.081-4.6421 28.637-2.3877 4.339 1.0908 8.6992 3.018 12.001 6.5329 3.0796 3.3816 3.45 8.6176 3.7464 13.211 0.31749 9.6963-0.82547 19.465-3.0796 28.81-1.6827 6.7874-6.0111 12.787-11.906 15.175-11.8 5.0421-24.171 7.9994-36.31 11.732-13.832 3.9997-27.791 7.3813-41.856 10.096-10.424 2.5816-21.06 3.6846-31.601 5.442-14.626 2.4726-29.315 4.6421-44.099 5.2602-21.748 2.7634-43.655 3.2725-65.519 3.527-28.913-0.47269-57.91-0.59389-86.674-4.4482-18.7-1.4666-37.21-5.0421-55.762-8.0237-28.331-4.7512-56.206-12.557-83.552-22.192-4.2226-1.4908-8.5299-3.4179-11.546-7.248-3.0373-3.6603-4.3073-8.6539-5.2386-13.454-1.7039-8.8721-2.7516-18.023-2.0319-27.113 0.34924-3.83 0.9948-8.0479 3.5876-10.787 3.3019-3.5149 7.6409-5.5269 12.001-6.5692z" stroke-width="1.1326"/></g><path d="m35.354 70.879c-0.956 0.01-1.713 0.21-2.41 0.682h-3e-3c-0.287 0.194-0.522 0.5-0.64 1.378-0.119 0.88-2e-3 2.216 0.431 3.733 0.223 0.78 0.816 1.401 1.585 1.659 8.123 2.651 18.699 4.132 29.683 4.138 10.961-1e-3 21.521-1.47 29.648-4.109 0.784-0.262 1.389-0.892 1.619-1.686h1e-3c0.433-1.517 0.55-2.855 0.431-3.735-0.118-0.878-0.352-1.185-0.636-1.378-0.93-0.63-1.969-0.775-3.44-0.633-1.47 0.142-3.224 0.627-5.074 1.01-9.851 2.036-18.474 2.11-22.547 2.11s-12.694-0.074-22.545-2.11c-1.851-0.383-3.605-0.868-5.076-1.01-0.341-0.035-0.684-0.052-1.027-0.05v1e-3z" clip-rule="evenodd" fill="#fafafa" fill-rule="nonzero" stroke-linejoin="round" stroke-miterlimit="2"/></svg>
