<?xml version='1.0' encoding='utf-8'?>
<svg xmlns="http://www.w3.org/2000/svg" width="128" height="128" version="1.1" id="svg6" viewBox="0 0 128 128">
  <defs id="defs10" />
  <g aria-label="U" id="text4" style="line-height:1.25;fill:#40c0e7">
    <path d="m 62.47995,119.92 c 28.32,0 41.44,-17.6 44.8,-43.200001 1.44,-11.2 1.92,-21.28 1.92,-31.36 0,-10.72 -0.64,-24.8 -0.64,-26.72 0,-2.4 -0.96,-7.68 -7.84,-7.68 -6.88,0 -8,5.44 -8,8 0,9.28 0.16,17.6 0.16,25.6 0,10.56 -0.32,20.16 -1.44,30.88 -2.56,22.24 -15.2,29.760001 -28.64,29.760001 -20.96,0 -26.88,-23.040001 -27.68,-46.240001 -0.16,-6.72 -0.32,-12.64 -0.32,-18.56 0,-7.04 0.32,-13.92 0.32,-21.76 0,-2.56 -1.28,-7.68 -7.68,-7.68 -6.56,0 -8.32,4.96 -8.32,7.52 0,8.32 -0.32,16 -0.32,24.48 0,5.6 0.16,11.52 0.32,18.24 1.12,34.56 16.32,58.720001 43.36,58.720001 z" style="text-align:center;text-anchor:middle" id="path12" />
  </g>
</svg>