<?xml version="1.0" encoding="UTF-8" standalone="no"?>
<svg
   width="128"
   height="128"
   version="1.1"
   id="svg12"
   xmlns="http://www.w3.org/2000/svg"
   xmlns:svg="http://www.w3.org/2000/svg">
  <defs
     id="defs16" />
  <path
     d="M116 128H12c-6.6 0-12-5.4-12-12V12C0 5.4 5.4 0 12 0h104c6.6 0 12 5.4 12 12v104c0 6.6-5.4 12-12 12z"
     fill="#1bb7fc"
     id="path2" />
  <path
     d="M124.48 3.52L3.52 124.48C5.7 126.65 8.7 128 12 128h104c6.6 0 12-5.4 12-12V12c0-3.3-1.35-6.3-3.52-8.48z"
     fill="#1b79fc"
     id="path4" />
  <path
     d="M112 101c0 6.63-5.37 12-12 12H27.89c-6.6 0-12-5.4-12-12V28.9c0-6.6 5.4-12 12-12H100c6.63 0 12 5.37 12 12z"
     fill="#1ba2fc"
     id="path6" />
  <g
     aria-label="1"
     id="text10"
     style="line-height:1.25;text-align:center;text-anchor:middle;fill:#ffffff;stroke-width:1.102">
    <path
       d="m 55.728872,99.084 h 20.955132 c 2.64585,0 5.080032,-2.222514 5.080032,-5.080032 0,-2.751684 -1.905012,-5.080032 -5.2917,-5.080032 H 72.133142 L 72.87398,34.313592 c 0,-2.540016 -1.905012,-5.080032 -5.185866,-5.080032 -1.05834,0 -2.751684,0.635004 -3.598356,1.58751 L 51.70718,44.261988 c -0.846672,0.952506 -1.375842,2.11668 -1.375842,3.386688 0,2.751684 2.222514,5.080032 5.080032,5.080032 1.375842,0 2.64585,-0.423336 3.70419,-1.481676 l 3.492522,-3.70419 -0.740838,41.381094 h -6.138372 c -2.963352,0 -5.080032,2.328348 -5.080032,5.080032 0,2.857518 2.11668,5.080032 5.080032,5.080032 z"
       
       id="path18" />
  </g>
</svg>
