<?xml version="1.0" encoding="UTF-8"?>
<svg clip-rule="evenodd" fill-rule="evenodd" stroke-linejoin="round" stroke-miterlimit="2" version="1.1" viewBox="0 0 128 128" xml:space="preserve" xmlns="http://www.w3.org/2000/svg"><g transform="matrix(.24368 0 0 .24368 -.98324 -4.5835)"><rect x="124.68" y="263.79" width="283.97" height="80" fill="#2f2f2f" fill-rule="nonzero"/><path d="m314.33 331.83c1.042 0.417 2.125 0.625 3.25 0.625 3.542 0 6.875-2.166 8.292-5.625 0.292-0.75 7.417-17.958 28.792-21.416 21.333-3.5 33.625 10.583 34.041 11.166 3.125 3.834 8.75 4.334 12.5 1.209 2.063-1.685 3.261-4.211 3.261-6.874 0-2.051-0.71-4.04-2.011-5.626-0.75-0.959-18.916-22.584-50.666-17.417-31.667 5.125-42.084 31.417-42.5 32.542-1.744 4.514 0.53 9.664 5.041 11.416zm-170-16.166c0.542-0.584 13.167-14.334 34.417-10.292 21.167 4.083 27.875 21.333 28.208 22.208 1.292 3.625 4.709 5.875 8.375 5.875h0.011c4.873 0 8.883-4.01 8.883-8.883 0-1.02-0.175-2.032-0.519-2.992-0.375-1.125-10.083-27.666-41.583-33.708-31.542-5.958-50.333 15.083-51.167 16-3.166 3.708-2.75 9.25 0.875 12.458 3.667 3.334 9.25 2.959 12.5-0.666z" fill="none"/><path d="m521.12 359-34.417-6.167c0.417-7.666 0.375-15.416 0-23.166l35-5.209c4.346-0.644 7.598-4.414 7.598-8.808 0-0.44-0.032-0.881-0.098-1.317-0.666-4.875-5.208-8.208-10.125-7.5l-34.083 5.084c-3.708-24.917-13.333-49.75-27.792-72.084 4.334-41.75 12.709-154.96-21.208-177.71-27.083-18.167-91.5 49.292-112.25 73.458-4.792 5.584-9.167 10.584-13.167 15.209-14.5-2.209-29.25-3.459-43.958-3.459-14.667 0-29.417 1.209-43.917 3.459-4-4.625-8.333-9.625-13.125-15.209-20.75-24.208-85.208-91.625-112.21-73.458-33.958 22.792-25.542 136-21.208 177.71-14.5 22.334-24.084 47.209-27.834 72.084l-34.083-5.084c-4.833-0.708-9.375 2.625-10.125 7.5-0.692 4.829 2.679 9.381 7.5 10.125l35.042 5.209c-0.375 7.75-0.417 15.5 0 23.166l-34.417 6.167c-4.833 0.917-8.083 5.5-7.208 10.333 0.779 4.203 4.475 7.284 8.75 7.292 0.5 0 1.041-0.042 1.583-0.125l33.083-5.958c1.375 8.75 3.375 17.375 6.25 25.75l-26.958 8.583c-4.647 1.48-7.258 6.516-5.792 11.167 1.499 4.652 6.547 7.26 11.209 5.791l28.541-9.083c8.25 16.208 20.334 31.125 37.375 43.875 25.167 18.792 56.584 31.542 88.875 38.458 12.292 2.625 44.042 8.75 77.292 8.75 33.292 0 68.125-6.125 80.417-8.75 32.291-6.916 63.666-19.666 88.833-38.458 17.125-12.75 29.167-27.625 37.417-43.875l28.5 9.083c0.866 0.275 1.77 0.416 2.679 0.416 3.859 0 7.293-2.524 8.446-6.207 1.5-4.667-1.084-9.709-5.75-11.167l-27-8.583c2.875-8.375 4.875-17 6.25-25.75l33.125 5.958c0.5 0.083 1.041 0.125 1.583 0.125 4.208 0 7.958-3 8.708-7.292 0.75-4.791-2.458-9.416-7.333-10.333zm-211.92-38.625c0.417-1.125 10.834-27.417 42.5-32.542 31.75-5.166 49.917 16.459 50.667 17.417 3.125 3.792 2.542 9.375-1.25 12.5-3.75 3.125-9.375 2.583-12.5-1.208-0.458-0.542-12.75-14.667-34.042-11.167-21.375 3.458-28.5 20.708-28.791 21.417-1.417 3.458-4.75 5.625-8.292 5.625h-1e-3c-4.869 0-8.875-4.007-8.875-8.875 0-1.083 0.198-2.156 0.584-3.167zm-178.29-16.458c0.833-0.917 19.625-22 51.166-16 31.542 6.041 41.209 32.625 41.584 33.708 0.344 0.963 0.521 1.977 0.521 3 0 4.88-4.016 8.896-8.896 8.896-3.748 0-7.112-2.368-8.375-5.896-0.334-0.917-7.042-18.167-28.209-22.208-21.25-4.084-33.875 9.708-34.416 10.291-3.25 3.625-8.834 4-12.5 0.709-3.667-3.25-4.042-8.75-0.875-12.5z" fill="#ffe082" fill-rule="nonzero"/><path d="m222.75 150.79s7.946 84.154 20.071-2.421m67.804 2.421s-14.092 79.641-18.783-2.292m-33.775-1.029s9.166 133 19.529 0.087" fill="#ffb74d"/><path d="m107.83 214.04c-1.126 1.014-2.713 1.335-4.144 0.838s-2.478-1.734-2.732-3.227c-6.474-39.864-30.515-219.36 92.258-52.555 0.765 1.041 1.004 2.377 0.647 3.618s-1.269 2.247-2.469 2.722c-14.067 5.77-54.826 23.709-83.56 48.604zm315.3-6.176c1.126 1.021 2.72 1.345 4.155 0.845s2.482-1.744 2.731-3.244c5.9-37.341 25.939-194.46-81.303-46.697-0.752 1.037-0.985 2.363-0.632 3.594 0.353 1.232 1.254 2.232 2.441 2.713 12.746 5.337 47.608 21.059 72.608 42.789z" fill="#f9c3d5"/><path d="m147.32 377.88c6.816 0 11.904 4.208 16.925 7.083 4.725 2.75 10.708 4.292 16.362 5.75 6.888 1.834 13.804 3.75 20.988 4.875 2.762 0.417 5.587 0.584 8.479 0.584 5.258 0 10.579-0.584 15.5-1.417 10.975-1.792 18.992-6.583 28.204-10.875 4.654-2.167 9.775-3.75 15.396-3.75 1.266 0 2.529 0.083 3.825 0.25 4.158 0.542 8.55 2.167 12.337 3.5 5.555 1.958 10.709 4.75 16.067 7.042 4.721 1.958 9.742 2.666 15.167 2.833 5.25 0.125 10.575 0.375 15.896 0.375 6.916 0 13.733-0.417 20.454-2.083 5.583-1.375 10.941-2.834 16.029-5.042 5.887-2.583 14.366-7.208 19.521-7.208 3.425 0 5.354 2.041 4.091 8.125-1.762 8.416-4.521 17.208-9.446 24.958-7.116 11.125-18.291 21-32.591 27.583-27.571 12.709-59.763 16.084-91.758 16.167h-0.134c-48.854 0-97.612-19.875-113.44-54.667-1.134-2.458-3.992-9-4.659-14.625-0.596-4.958 0.534-9.291 6.021-9.541 0.233 0.083 0.5 0.083 0.767 0.083m0-10.667-1.1 0.042c-6.055 0.292-9.446 3.625-11.242 6.375-1.829 2.792-3.825 7.75-2.892 15.458 0.834 7.084 3.959 14.542 5.75 18.375 18.859 41.375 74.267 59.959 120.8 59.959 40.108-0.125 70.208-5.5 94.817-16.834 15.3-7.041 27.837-17.708 36.321-30.916 4.987-7.875 8.579-17.292 11.041-28.917 1.329-6.292 0.696-11.542-1.796-15.667-1.666-2.666-4.825-5.875-10.512-5.875-5.554 0-12.304 3.167-18.292 5.959-1.395 0.666-2.758 1.291-4.025 1.833-4.354 1.875-9.112 3.208-14.896 4.625-5.258 1.292-11.041 1.875-18.791 1.875-3.459 0-6.917-0.083-10.375-0.208l-5.359-0.167c-5.187-0.125-9.208-0.875-12.666-2.292-1.834-0.791-3.696-1.666-5.592-2.541-3.425-1.625-6.983-3.292-10.842-4.625l-1.262-0.417c-3.758-1.333-8.05-2.833-12.504-3.417-1.567-0.198-3.146-0.295-4.725-0.291-5.917 0-11.904 1.458-18.359 4.416-1.829 0.875-3.591 1.709-5.32 2.542-7.05 3.458-13.167 6.458-21.05 7.75-5.259 0.875-10.113 1.292-14.405 1.292-2.691 0-5.22-0.167-7.45-0.542-6.316-0.958-12.404-2.583-18.791-4.333l-1.459-0.375c-5.625-1.5-10.875-2.875-14.57-5-0.963-0.542-1.863-1.125-2.792-1.709-4.525-2.833-10.208-6.375-17.658-6.375z" fill="#2f2f2f" fill-rule="nonzero"/><path d="m145.83 374.02c-5.154-0.3-9.346 6.125-8.583 12.375 1.125 9.237 4.833 17.741 9.271 25.133 10.525 16.604 25.929 26.975 41.508 34.35 20.929 9.604 43.25 13.917 65.471 14.675 30.333 0.167 61.117-1.896 90.304-13.016 15.846-6.042 31.483-15.963 41.946-32.5 5.254-8.392 8.683-18.521 10.237-28.971 0.721-3.967-1.15-7.846-3.883-9.742-5.813-1.162-11.567 0.996-16.95 3.558-12.425 5.85-25.446 10.171-38.817 10.009-9.629 0.071-19.241 0.291-28.841-1.217-9.134-2.75-17.7-7.879-26.867-10.529-6.333-2.175-13.083-2.358-19.542-1.029-11.587 3.291-22.154 10.941-33.966 13.237-8.488 1.667-17.167 2.071-25.729 1.15-10.281-1.987-20.436-4.576-30.413-7.754-7.783-2.812-14.608-9.896-23.021-9.679-0.708-0.029-1.416-0.063-2.125-0.05z" fill="#2f2f2f" fill-rule="nonzero"/></g></svg>
