<?xml version='1.0' encoding='UTF-8'?>
<svg xmlns="http://www.w3.org/2000/svg" version="1.1" id="svg6" viewBox="0 0 128 128">
  <defs id="defs10"/>
  <g aria-label="X" id="text4" style="line-height:1.25;fill:#40c0e7">
    <path d="m 23.119941,119.92 c 2.24,0 4,-0.64 5.92,-2.88 l 33.44,-39.680001 31.84,39.680001 c 1.6,1.92 3.84,2.88 6.239999,2.88 4.32,0 7.68,-3.68 7.68,-7.84 0,-1.6 -0.16,-3.2 -1.44,-4.8 l -33.759999,-42.560001 34.239999,-40.8 c 1.12,-1.44 1.92,-3.2 1.92,-5.12 0,-4.16 -3.84,-7.84 -8,-7.84 -2.079999,0 -4.479999,0.96 -6.079999,2.88 l -32.16,38.24 -30.56,-38.24 c -1.6,-1.92 -3.84,-2.88 -6.08,-2.88 -4.16,0 -8.16,3.36 -8.16,7.84 0,2.08 0.96,3.68 1.92,4.96 l 32.48,40.8 -35.68,42.400001 c -0.96,1.12 -1.76,3.36 -1.76,5.12 0,4 3.2,7.84 8,7.84 z" style="text-align:center;text-anchor:middle" id="path12"/>
  </g>
</svg>
