<?xml version='1.0' encoding='UTF-8'?>
<svg xmlns="http://www.w3.org/2000/svg" version="1.1" xml:space="preserve" style="fill-rule:evenodd;clip-rule:evenodd;stroke-linejoin:round;stroke-miterlimit:2" id="svg6" viewBox="0 0 128 128">
  <defs id="defs10"/>
  <g transform="matrix(22.5893,0,0,22.5893,-1450.2,-1722.15)" id="g4">
    <g aria-label="=" id="text2" style="fill:#6593a2">
      <path d="m 65.465997,78.559997 h 3.12 c 0.3,0 0.576,-0.252 0.576,-0.564 0,-0.3 -0.276,-0.576 -0.576,-0.576 h -3.12 c -0.324,0 -0.564,0.276 -0.564,0.576 0,0.312 0.24,0.564 0.564,0.564 z m 0,2.16 h 3.12 c 0.3,0 0.576,-0.252 0.576,-0.564 0,-0.3 -0.276,-0.576 -0.576,-0.576 h -3.12 c -0.324,0 -0.564,0.276 -0.564,0.576 0,0.312 0.24,0.564 0.564,0.564 z" id="path12"/>
    </g>
  </g>
</svg>
