<?xml version='1.0' encoding='UTF-8'?>
<svg xmlns="http://www.w3.org/2000/svg" viewBox="0 0 128 128" version="1.1" xml:space="preserve" style="fill-rule:evenodd;clip-rule:evenodd;stroke-linejoin:round;stroke-miterlimit:2" id="svg8">
  <g transform="scale(0.2397003745318352)">
    <defs id="defs12"/>
    <g id="g884">
      <g id="g4">
        <path id="path2" d="M 516.667,83.343 C 516.667,46.549 486.786,16.667 450,16.667 H 83.333 c -36.786,0 -66.667,29.882 -66.667,66.676 V 449.99 c 0,36.794 29.881,66.677 66.667,66.677 H 450 c 36.786,0 66.667,-29.883 66.667,-66.677 z" style="fill:#db4437"/>
      </g>
    </g>
    <g id="text303">
      <g aria-label="O" id="text5" style="fill:#ffffff">
        <path d="m 253.667,405.06699 c 64.4,0 119.6,-63.2 119.6,-146.4 0,-72.8 -44,-126.4 -104,-126.4 -63.6,0 -119.2,63.2 -119.2,146.4 0,72 43.2,126.4 103.6,126.4 z m 0,-38 c -32.8,0 -63.6,-30 -63.6,-88.4 0,-63.6 34.8,-108.4 76.8,-108.4 32.8,0 66.4,31.6 66.4,90 0,63.6 -36.4,106.8 -79.6,106.8 z" id="path14"/>
      </g>
    </g>
  </g>
</svg>
