<?xml version="1.0" encoding="UTF-8" standalone="no"?>
<svg
   height="128"
   width="128"
   version="1.1"
   id="svg69"
   xmlns="http://www.w3.org/2000/svg"
   xmlns:svg="http://www.w3.org/2000/svg">
  <defs
     id="defs7">
    <linearGradient
       id="a">
      <stop
         offset="0"
         id="stop2" />
      <stop
         offset="1"
         stop-opacity="0"
         id="stop4" />
    </linearGradient>
  </defs>
  <path
     d="M50.862 31.976S22.284 61.081 15.658 76.968L6.03 69.307c7.644-16.633 35.205-46.551 35.205-46.551z"
     fill="#dbe6ea"
     stroke-width="1.397"
     id="path9" />
  <path
     d="M64 22.756l-22.684-.157s-4.569 18.199-4.569 88.567c0 0 14.372 4.47 27.253 4.47"
     fill="#ecf2f4"
     stroke-width="1.397"
     id="path11" />
  <g
     transform="translate(6.03,-8.198)"
     id="g21">
    <path
       id="ellipse13"
       style="fill:#dbe6ea;stroke-width:2.143;paint-order:stroke fill markers"
       d="m 51.322001,111.325 a 8.4069996,2.9489999 0 0 1 -8.407,2.949 8.4069996,2.9489999 0 0 1 -8.407,-2.949 8.4069996,2.9489999 0 0 1 8.407,-2.949 8.4069996,2.9489999 0 0 1 8.407,2.949 z" />
    <path
       fill="#dbe6ea"
       stroke-width="1.601"
       paint-order="stroke fill markers"
       d="m 34.508,94.512 h 16.814 v 16.814 H 34.508 Z"
       id="path15" />
    <path
       id="ellipse17"
       style="fill:#cbdbe1;stroke-width:1.615;paint-order:stroke fill markers"
       d="m 51.322001,97.455002 a 8.4069996,1.676 0 0 1 -8.407,1.676 8.4069996,1.676 0 0 1 -8.407,-1.676 8.4069996,1.676 0 0 1 8.407,-1.676 8.4069996,1.676 0 0 1 8.407,1.676 z" />
    <path
       fill="#cbdbe1"
       stroke-width="0.67"
       paint-order="stroke fill markers"
       d="m 34.508,94.512 h 16.814 v 2.944 H 34.508 Z"
       id="path19" />
  </g>
  <path
     d="M77.138 31.976s28.578 29.105 35.204 44.992l9.628-7.661c-7.644-16.633-35.205-46.551-35.205-46.551z"
     fill="#dbe6ea"
     stroke-width="1.397"
     id="path23" />
  <path
     d="M64 22.756l22.684-.157s4.569 18.199 4.569 88.567c0 0-14.372 4.47-27.253 4.47"
     fill="#ecf2f4"
     stroke-width="1.397"
     id="path25" />
  <g
     stroke-width="1.222"
     id="g39">
    <path
       d="m 64,13.385 c -8.327,0 -9.902,1.598 -9.902,1.598 C 53.076,27.755 64,44.785 64,44.785 Z"
       fill="#454545"
       id="path27" />
    <path
       d="m 54.031,18.197 c 0,0 3.82,-1.457 9.969,-1.457 v -4.376 c -6.15,0 -9.902,1.348 -9.902,1.348 z"
       fill="#919fbc"
       id="path29" />
    <path
       d="M 54.098,14.983 C 53.076,27.755 64,44.785 64,44.785 c 0,0 -7.834,-3.354 -13.246,-12.379 l 0.907,-4.925 -3.156,-4.833 c 0,0 1.64,-7.267 5.593,-8.936 z"
       fill="#cacaca"
       id="path31" />
    <path
       d="m 64,13.385 c 8.327,0 9.902,1.598 9.902,1.598 C 74.924,27.755 64,44.785 64,44.785 Z"
       fill="#454545"
       id="path33" />
    <path
       d="m 73.969,18.197 c 0,0 -3.82,-1.457 -9.969,-1.457 v -4.376 c 6.15,0 9.902,1.348 9.902,1.348 z"
       fill="#919fbc"
       id="path35" />
    <path
       d="M 73.902,14.983 C 74.924,27.755 64,44.785 64,44.785 c 0,0 7.834,-3.354 13.246,-12.379 l -0.907,-4.925 3.156,-4.833 c 0,0 -1.64,-7.267 -5.593,-8.936 z"
       fill="#cacaca"
       id="path37" />
  </g>
  <g
     transform="matrix(-1,0,0,1,121.97,-8.198)"
     id="g49">
    <path
       id="ellipse41"
       style="fill:#dbe6ea;stroke-width:2.143;paint-order:stroke fill markers"
       d="m 51.322001,111.325 a 8.4069996,2.9489999 0 0 1 -8.407,2.949 8.4069996,2.9489999 0 0 1 -8.407,-2.949 8.4069996,2.9489999 0 0 1 8.407,-2.949 8.4069996,2.9489999 0 0 1 8.407,2.949 z" />
    <path
       fill="#dbe6ea"
       stroke-width="1.601"
       paint-order="stroke fill markers"
       d="m 34.508,94.512 h 16.814 v 16.814 H 34.508 Z"
       id="path43" />
    <path
       id="ellipse45"
       style="fill:#cbdbe1;stroke-width:1.615;paint-order:stroke fill markers"
       d="m 51.322001,97.455002 a 8.4069996,1.676 0 0 1 -8.407,1.676 8.4069996,1.676 0 0 1 -8.407,-1.676 8.4069996,1.676 0 0 1 8.407,-1.676 8.4069996,1.676 0 0 1 8.407,1.676 z" />
    <path
       fill="#cbdbe1"
       stroke-width="0.67"
       paint-order="stroke fill markers"
       d="m 34.508,94.512 h 16.814 v 2.944 H 34.508 Z"
       id="path47" />
  </g>
  <g
     transform="matrix(0.74772,0,0,0.74772,45.908,-19.063)"
     id="g59">
    <path
       id="ellipse51"
       style="fill:#dbe6ea;stroke-width:2.143;paint-order:stroke fill markers"
       d="m 51.322001,111.325 a 8.4069996,2.9489999 0 0 1 -8.407,2.949 8.4069996,2.9489999 0 0 1 -8.407,-2.949 8.4069996,2.9489999 0 0 1 8.407,-2.949 8.4069996,2.9489999 0 0 1 8.407,2.949 z" />
    <path
       fill="#dbe6ea"
       stroke-width="1.601"
       paint-order="stroke fill markers"
       d="m 34.508,94.512 h 16.814 v 16.814 H 34.508 Z"
       id="path53" />
    <path
       id="ellipse55"
       style="fill:#cbdbe1;stroke-width:1.615;paint-order:stroke fill markers"
       d="m 51.322001,97.455002 a 8.4069996,1.676 0 0 1 -8.407,1.676 8.4069996,1.676 0 0 1 -8.407,-1.676 8.4069996,1.676 0 0 1 8.407,-1.676 8.4069996,1.676 0 0 1 8.407,1.676 z" />
    <path
       fill="#cbdbe1"
       stroke-width="0.67"
       paint-order="stroke fill markers"
       d="m 34.508,94.512 h 16.814 v 2.944 H 34.508 Z"
       id="path57" />
  </g>
  <g
     transform="rotate(-15,43.913,27.442)"
     id="g67">
    <path
       id="rect61"
       style="fill:#1433b4;stroke-width:0.972;paint-order:stroke fill markers"
       d="m 67.387997,52.646999 h 9.292001 c 0.65095,0 1.175,0.52405 1.175,1.175 v 1.243 c 0,0.65095 -0.52405,1.175 -1.175,1.175 h -9.292001 c -0.65095,0 -1.175,-0.52405 -1.175,-1.175 v -1.243 c 0,-0.65095 0.52405,-1.175 1.175,-1.175 z" />
    <g
       aria-label="Dr E. Brown"
       id="text65"
       style="line-height:1.25;fill:#ffffff;stroke-width:0.041">
      <path
         d="m 68.009487,55.005596 c 0.315169,0 0.57155,-0.155135 0.57155,-0.511129 0,-0.514395 -0.486634,-0.602577 -0.747914,-0.602577 -0.04572,0 -0.08165,0.03429 -0.08165,0.08002 v 0.925911 c 0,0.03593 0.02776,0.06859 0.06205,0.08002 0.0147,0.0049 0.106145,0.02776 0.19596,0.02776 z m 0,-0.1633 c -0.03266,0 -0.06695,-0.0049 -0.09471,-0.0098 v -0.774042 c 0.272711,0.02123 0.502964,0.133906 0.502964,0.436011 0,0.233519 -0.160034,0.347829 -0.40825,0.347829 z"
         style="line-height:2"
         id="path80" />
      <path
         d="m 68.840683,54.995798 c 0.03919,0 0.07838,-0.03593 0.07838,-0.07512 l 0.0016,-0.31027 c 0,-0.06695 0.0065,-0.124108 0.05552,-0.186162 0.02776,-0.03756 0.08655,-0.09145 0.13064,-0.09145 0.02776,0 0.03593,0.0098 0.03593,0.02613 v 0.02123 c 0,0.03756 0.0196,0.07838 0.07675,0.07838 0.04409,0 0.07675,-0.03429 0.07675,-0.07675 V 54.3328 c 0,-0.07022 -0.03429,-0.155135 -0.156768,-0.155135 -0.09635,0 -0.168199,0.04736 -0.218822,0.13064 v -0.04899 c 0,-0.04409 -0.03593,-0.07838 -0.08002,-0.07838 -0.04246,0 -0.08002,0.03429 -0.08002,0.07838 v 0.661365 c 0,0.03919 0.03919,0.07512 0.08002,0.07512 z"
         style="line-height:2"
         id="path82" />
      <path
         d="m 70.089929,54.986 h 0.648301 c 0.04572,0 0.08002,-0.03593 0.08002,-0.08165 0,-0.04572 -0.03429,-0.08165 -0.08002,-0.08165 h -0.568284 v -0.324967 h 0.496432 c 0.04572,0 0.08002,-0.03593 0.08002,-0.08165 0,-0.04572 -0.03429,-0.08002 -0.08002,-0.08002 H 70.169946 V 54.05519 h 0.57155 c 0.04572,0 0.08002,-0.03756 0.08002,-0.08165 0,-0.04572 -0.03429,-0.08165 -0.08002,-0.08165 h -0.651567 c -0.04572,0 -0.08165,0.03593 -0.08165,0.08165 v 0.93081 c 0,0.04572 0.03593,0.08165 0.08165,0.08165 z"
         style="line-height:2"
         id="path84" />
      <path
         d="m 70.988079,54.995798 c 0.04899,0 0.09635,-0.04736 0.09635,-0.106145 0,-0.05062 -0.03756,-0.09145 -0.08492,-0.09145 -0.05062,0 -0.09635,0.05062 -0.09635,0.104512 0,0.05226 0.03429,0.09308 0.08492,0.09308 z"
         style="line-height:2"
         id="path86" />
      <path
         d="m 71.948285,54.999064 c 0.4899,0 0.723419,-0.129007 0.723419,-0.351095 0,-0.125741 -0.05389,-0.210657 -0.164933,-0.262913 0.04246,-0.04572 0.07512,-0.112677 0.07512,-0.204125 0,-0.148603 -0.125741,-0.289041 -0.370691,-0.289041 h -0.27761 c -0.04246,0 -0.08002,0.03756 -0.08002,0.08002 v 0.937342 c 0,0.06042 0.02286,0.08981 0.09471,0.08981 z m 0.06859,-0.664631 v -0.285775 h 0.194327 c 0.138805,0 0.209024,0.06205 0.209024,0.133906 0,0.07512 -0.06042,0.151869 -0.153502,0.151869 z m 0,0.509496 v -0.352728 h 0.249849 c 0.160034,0 0.243317,0.06695 0.243317,0.156768 0,0.132273 -0.225354,0.191061 -0.493166,0.19596 z"
         style="line-height:2"
         id="path88" />
      <path
         d="m 72.923185,54.995798 c 0.03919,0 0.07838,-0.03593 0.07838,-0.07512 l 0.0016,-0.31027 c 0,-0.06695 0.0065,-0.124108 0.05552,-0.186162 0.02776,-0.03756 0.08655,-0.09145 0.13064,-0.09145 0.02776,0 0.03593,0.0098 0.03593,0.02613 v 0.02123 c 0,0.03756 0.0196,0.07838 0.07675,0.07838 0.04409,0 0.07675,-0.03429 0.07675,-0.07675 V 54.3328 c 0,-0.07022 -0.03429,-0.155135 -0.156768,-0.155135 -0.09635,0 -0.168199,0.04736 -0.218822,0.13064 v -0.04899 c 0,-0.04409 -0.03593,-0.07838 -0.08002,-0.07838 -0.04246,0 -0.08002,0.03429 -0.08002,0.07838 v 0.661365 c 0,0.03919 0.03919,0.07512 0.08002,0.07512 z"
         style="line-height:2"
         id="path90" />
      <path
         d="m 73.762548,54.995798 c 0.207391,0 0.383755,-0.199226 0.383755,-0.437644 0,-0.200859 -0.14697,-0.377223 -0.338031,-0.377223 -0.207391,0 -0.382122,0.200859 -0.382122,0.436011 0,0.209024 0.145337,0.378856 0.336398,0.378856 z m 0,-0.14697 c -0.08818,0 -0.176364,-0.08165 -0.176364,-0.233519 0,-0.151869 0.09961,-0.287408 0.215556,-0.287408 0.102879,0 0.184529,0.112677 0.184529,0.238418 0,0.150236 -0.106145,0.282509 -0.223721,0.282509 z"
         style="line-height:2"
         id="path92" />
      <path
         d="m 74.448408,54.995798 c 0.03266,0 0.06205,-0.0196 0.07512,-0.05716 l 0.156768,-0.431112 0.109411,0.427846 c 0.01143,0.04246 0.03919,0.06042 0.07675,0.06042 0.03919,0 0.06369,-0.0245 0.07512,-0.05879 l 0.209024,-0.651567 c 0.0016,-0.0049 0.0049,-0.0147 0.0049,-0.03103 0,-0.04246 -0.03756,-0.07348 -0.07838,-0.07348 -0.03429,0 -0.06695,0.02776 -0.07675,0.06042 l -0.129007,0.42458 -0.101246,-0.429479 c -0.0098,-0.03919 -0.03919,-0.05715 -0.07838,-0.05715 -0.03429,0 -0.06695,0.02286 -0.07838,0.05715 l -0.14697,0.421314 -0.08328,-0.413149 c -0.0082,-0.03756 -0.03429,-0.06532 -0.07675,-0.06532 -0.04246,0 -0.07675,0.03429 -0.07675,0.06859 0,0.0147 0.0016,0.02286 0.0049,0.03919 l 0.135539,0.645035 c 0.0082,0.03919 0.03429,0.06369 0.07838,0.06369 z"
         style="line-height:2"
         id="path94" />
      <path
         d="m 75.413513,54.995798 c 0.04899,0 0.07675,-0.03593 0.07675,-0.08165 v -0.137172 c 0,-0.120842 0.01796,-0.19596 0.06695,-0.284142 0.05552,-0.101246 0.124108,-0.160034 0.189428,-0.160034 0.07512,0 0.107778,0.05552 0.107778,0.315169 v 0.271078 c 0,0.03919 0.03593,0.07675 0.07838,0.07675 0.04409,0 0.07512,-0.03756 0.07512,-0.07838 0,-0.09308 0.0016,-0.148603 0.0016,-0.285775 0,-0.341297 -0.07022,-0.450708 -0.248216,-0.450708 -0.111044,0 -0.207391,0.07022 -0.269445,0.200859 v -0.124108 c 0,-0.04409 -0.03429,-0.07838 -0.07512,-0.07838 -0.04246,0 -0.08165,0.03429 -0.08165,0.07838 v 0.662998 c 0,0.03919 0.03593,0.07512 0.07838,0.07512 z"
         style="line-height:2"
         id="path96" />
    </g>
  </g>
</svg>
