<?xml version='1.0' encoding='UTF-8'?>
<svg xmlns="http://www.w3.org/2000/svg" version="1.1" id="svg12" viewBox="0 0 128 128">
  <defs id="defs16"/>
  <path d="M116 128H12c-6.6 0-12-5.4-12-12V12C0 5.4 5.4 0 12 0h104c6.6 0 12 5.4 12 12v104c0 6.6-5.4 12-12 12z" fill="#1bb7fc" id="path2"/>
  <path d="M124.48 3.52L3.52 124.48C5.7 126.65 8.7 128 12 128h104c6.6 0 12-5.4 12-12V12c0-3.3-1.35-6.3-3.52-8.48z" fill="#1b79fc" id="path4"/>
  <path d="M112 101c0 6.63-5.37 12-12 12H27.89c-6.6 0-12-5.4-12-12V28.9c0-6.6 5.4-12 12-12H100c6.63 0 12 5.37 12 12z" fill="#1ba2fc" id="path6"/>
  <g aria-label="0" id="text10" style="line-height:1.25;text-align:center;text-anchor:middle;fill:#ffffff;stroke-width:1.102">
    <path d="m 64.14263,99.719004 c 14.499258,0 26.352666,-17.145108 26.352666,-36.830232 0,-17.99178 -10.05423,-33.655212 -24.130152,-33.655212 -14.81676,0 -26.4585,17.568444 -26.4585,36.936066 0,17.780112 10.05423,33.549378 24.235986,33.549378 z m 0,-10.160064 c -8.360886,0 -14.181756,-11.324238 -14.181756,-23.600982 0,-14.499258 7.514214,-26.564334 16.40427,-26.564334 8.149218,0 14.181756,11.218404 14.181756,23.706816 0,14.393424 -7.620048,26.4585 -16.40427,26.4585 z" id="path18"/>
  </g>
</svg>
