<?xml version='1.0' encoding='UTF-8'?>
<svg xmlns="http://www.w3.org/2000/svg" version="1.1" id="svg6" viewBox="0 0 128 128">
  <defs id="defs10"/>
  <g aria-label="H" id="text4" style="line-height:1.25;fill:#40c0e7">
    <path d="m 26.719944,119.92 c 4.48,0 8.16,-3.68 8.16,-7.84 V 76.079999 l 58.24,-8.16 V 112.08 c 0,4.16 3.52,7.84 7.999996,7.84 4.16,0 8,-3.68 8,-7.84 V 18.799999 c 0,-4.48 -3.84,-7.84 -8,-7.84 -4.479996,0 -7.999996,3.36 -7.999996,7.84 v 33.44 l -58.24,8.16 v -41.6 c 0,-4.48 -3.68,-7.84 -8.16,-7.84 -4.48,0 -7.84,3.36 -7.84,7.84 V 112.08 c 0,4.16 3.36,7.84 7.84,7.84 z" style="text-align:center;text-anchor:middle" id="path12"/>
  </g>
</svg>
