<?xml version="1.0" encoding="UTF-8" standalone="no"?>
<svg
   width="100%"
   height="100%"
   viewBox="0 0 128 128"
   version="1.1"
   xml:space="preserve"
   style="fill-rule:evenodd;clip-rule:evenodd;stroke-linejoin:round;stroke-miterlimit:2"
   id="svg34"
   xmlns="http://www.w3.org/2000/svg"
   xmlns:svg="http://www.w3.org/2000/svg">
    <path
   d="M63.99,9.64C1.68,9.64 0.2,79.5 0.2,93.33C0.2,107.16 28.76,118.36 63.99,118.36C99.23,118.36 127.78,107.15 127.78,93.33C127.78,79.5 126.31,9.64 63.99,9.64Z"
   style="fill:rgb(252,194,27);fill-rule:nonzero"
   id="path2" />
    <g
   id="g13">
        <clipPath
   id="_clip1">
            <path
   d="M 63.99,9.64 C 1.68,9.64 0.2,79.5 0.2,93.33 c 0,13.83 28.56,25.03 63.79,25.03 35.24,0 63.79,-11.21 63.79,-25.03 0,-13.83 -1.47,-83.69 -63.79,-83.69 z"
   id="path4" />
        </clipPath>
        <g
   clip-path="url(#_clip1)"
   id="g11">
            <g
   transform="matrix(2.19156,0,0,1.86971,-76.2596,-57.7292)"
   id="g9">
                <path
   id="ellipse7"
   style="fill:url(#_Radial2)"
   d="M 128,47.638 A 64,47.638 0 0 1 64,95.276001 64,47.638 0 0 1 0,47.638 64,47.638 0 0 1 64,0 64,47.638 0 0 1 128,47.638 Z" />
            </g>
        </g>
    </g>
    <g
   id="g17">
        <path
   d="m 51.25,51.1 c 0.94,0.08 1.72,0.82 1.81,1.75 v 0.02 c 0.5,5.74 -2.99,10.73 -7.78,11.15 -4.79,0.42 -9.1,-3.89 -9.61,-9.63 -0.19,-2.15 0.19,-4.2 0.98,-5.94 0.49,-1.07 1.82,-1.44 2.84,-0.85 3.31,1.91 7.35,3.15 11.76,3.5 z m 27.13,0 c -0.94,0.08 -1.72,0.82 -1.81,1.75 v 0.02 c -0.5,5.74 2.99,10.73 7.78,11.15 4.79,0.42 9.1,-3.89 9.61,-9.63 0.19,-2.15 -0.19,-4.2 -0.98,-5.94 -0.49,-1.07 -1.82,-1.44 -2.84,-0.85 -3.31,1.91 -7.35,3.15 -11.76,3.5 z"
   style="fill:#2f2f2f;fill-rule:nonzero"
   id="path15" />
    </g>
    <path
   d="M43.09,98.64C45.08,99.98 47.59,99.1 49.8,98.64C55.98,97.36 61.4,97.31 64,97.31C66.6,97.31 72.03,97.36 78.2,98.64C80.41,99.1 82.92,99.98 84.91,98.64C87.43,96.93 85.57,90.81 81.6,86.67C79.2,84.17 73.47,79.32 63.99,79.32C54.51,79.32 48.79,84.17 46.38,86.67C42.43,90.82 40.57,96.94 43.09,98.64Z"
   style="fill:rgb(237,108,48);fill-rule:nonzero"
   id="path19" />
    <path
   d="M104.292,81.715C104.292,81.329 103.978,81.015 103.592,81.015L24.407,81.015C24.021,81.015 23.707,81.329 23.707,81.715L23.707,97.596C23.707,97.982 24.021,98.296 24.407,98.296L103.592,98.296C103.978,98.296 104.292,97.982 104.292,97.596L104.292,81.715Z"
   style="fill:rgb(68,20,0)"
   id="path21" />
    <g
   transform="translate(26.371,97.861)"
   id="g25">
        <g
   aria-label="%#!$&amp"
   id="text23"
   style="fill:#ffffff;fill-opacity:0.91"><path
     d="m 4.76736,-9.36091 c 2.01123,0 3.65001,-1.63878 3.65001,-3.65001 0,-1.9864 -1.63878,-3.62518 -3.65001,-3.62518 -1.9864,0 -3.62518,1.63878 -3.62518,3.62518 0,2.01123 1.63878,3.65001 3.62518,3.65001 z m -0.2483,9.50989 c 0.37245,0 0.76973,-0.17381 0.9932,-0.59592 l 7.99526,-14.4014 c 0.09932,-0.17381 0.12415,-0.39728 0.12415,-0.54626 0,-0.57109 -0.4966,-1.14218 -1.14218,-1.14218 -0.37245,0 -0.79456,0.19864 -0.9932,0.57109 l -7.9456,14.35174 c -0.12415,0.22347 -0.17381,0.47177 -0.17381,0.64558 0,0.57109 0.44694,1.11735 1.14218,1.11735 z m 0.2483,-11.86874 c -0.69524,0 -1.26633,-0.57109 -1.26633,-1.29116 0,-0.69524 0.57109,-1.26633 1.26633,-1.26633 0.72007,0 1.29116,0.57109 1.29116,1.26633 0,0.72007 -0.57109,1.29116 -1.29116,1.29116 z m 7.37451,12.04255 c 1.9864,0 3.62518,-1.61395 3.62518,-3.62518 0,-2.01123 -1.63878,-3.62518 -3.62518,-3.62518 -2.01123,0 -3.65001,1.61395 -3.65001,3.62518 0,2.01123 1.63878,3.62518 3.65001,3.62518 z m 0,-2.33402 c -0.72007,0 -1.29116,-0.57109 -1.29116,-1.29116 0,-0.69524 0.57109,-1.29116 1.29116,-1.29116 0.69524,0 1.26633,0.59592 1.26633,1.29116 0,0.72007 -0.57109,1.29116 -1.26633,1.29116 z"
     id="path39" /><path
     d="m 21.428284,0.14898 c 0.47177,0 0.9932,-0.27313 1.16701,-0.84422 l 1.11735,-3.89831 h 2.25953 l -0.86905,2.95477 c -0.07449,0.2483 -0.09932,0.4966 -0.09932,0.59592 0,0.62075 0.47177,1.19184 1.19184,1.19184 0.44694,0 0.96837,-0.2483 1.14218,-0.84422 l 1.14218,-3.89831 h 2.63198 c 0.64558,0 1.19184,-0.52143 1.19184,-1.19184 0,-0.62075 -0.54626,-1.19184 -1.19184,-1.19184 h -1.93674 l 0.72007,-2.55749 h 2.2347 c 0.62075,0 1.19184,-0.52143 1.19184,-1.19184 0,-0.62075 -0.57109,-1.19184 -1.19184,-1.19184 h -1.53946 l 0.86905,-2.90511 c 0.04966,-0.17381 0.07449,-0.39728 0.07449,-0.4966 0,-0.59592 -0.47177,-1.19184 -1.19184,-1.19184 -0.47177,0 -0.9932,0.32279 -1.14218,0.84422 l -1.09252,3.74933 h -2.25953 l 0.84422,-2.88028 c 0.04966,-0.17381 0.09932,-0.29796 0.09932,-0.54626 0,-0.62075 -0.47177,-1.16701 -1.19184,-1.16701 -0.4966,0 -1.01803,0.32279 -1.16701,0.84422 l -1.06769,3.74933 h -3.00443 c -0.67041,0 -1.19184,0.57109 -1.19184,1.19184 0,0.67041 0.52143,1.19184 1.19184,1.19184 h 2.28436 l -0.7449,2.55749 h -2.55749 c -0.67041,0 -1.19184,0.57109 -1.19184,1.19184 0,0.67041 0.52143,1.19184 1.19184,1.19184 h 1.86225 l -0.84422,2.9796 c -0.07449,0.2483 -0.12415,0.42211 -0.12415,0.62075 0,0.57109 0.47177,1.14218 1.19184,1.14218 z m 2.9796,-7.12621 0.72007,-2.55749 h 2.28436 l -0.7449,2.55749 z"
     id="path41" /><path
     d="m 37.915412,-4.02246 c 0.69524,0 1.21667,-0.54626 1.21667,-1.21667 v -10.13064 c 0,-0.64558 -0.52143,-1.2415 -1.21667,-1.2415 -0.67041,0 -1.21667,0.59592 -1.21667,1.2415 v 10.13064 c 0,0.67041 0.54626,1.21667 1.21667,1.21667 z m -0.19864,4.17144 c 0.72007,0 1.46497,-0.69524 1.46497,-1.61395 0,-0.72007 -0.52143,-1.39048 -1.29116,-1.39048 -0.7449,0 -1.46497,0.76973 -1.46497,1.61395 0,0.76973 0.52143,1.39048 1.29116,1.39048 z"
     id="path43" /><path
     d="m 48.393667,1.91191 c 0.62075,0 1.16701,-0.54626 1.16701,-1.19184 V 0.09932 c 2.55749,-0.4966 4.54389,-2.38368 4.54389,-4.76736 0,-2.25953 -1.58912,-3.74933 -4.49423,-4.69287 l 0.09932,-4.69287 c 1.19184,0.19864 1.91191,0.79456 2.01123,1.4898 0.07449,0.57109 0.52143,1.01803 1.11735,1.01803 0.67041,0 1.19184,-0.52143 1.19184,-1.26633 0,-1.88708 -1.56429,-3.25273 -4.27076,-3.52586 v -0.4966 c 0,-0.62075 -0.54626,-1.19184 -1.16701,-1.19184 -0.62075,0 -1.11735,0.57109 -1.11735,1.19184 v 0.52143 c -2.80579,0.39728 -4.4694,2.08572 -4.4694,4.37008 0,2.483 2.01123,3.69967 4.41974,4.4694 l -0.09932,5.31362 c -1.16701,-0.2483 -2.28436,-0.91871 -2.70647,-2.08572 -0.19864,-0.52143 -0.62075,-0.89388 -1.21667,-0.89388 -0.72007,0 -1.2415,0.57109 -1.2415,1.21667 0,0.27313 0.09932,0.59592 0.2483,0.94354 0.69524,1.4898 2.40851,2.85545 4.86668,3.15341 v 0.54626 c 0,0.64558 0.4966,1.19184 1.11735,1.19184 z m -3.02926,-14.02895 c 0,-0.96837 0.69524,-1.66361 2.11055,-1.93674 l -0.02483,3.99763 c -1.44014,-0.59592 -2.08572,-1.19184 -2.08572,-2.06089 z m 6.40614,7.57315 c 0,1.06769 -0.86905,1.96157 -2.20987,2.30919 l 0.02483,-4.54389 c 1.63878,0.67041 2.18504,1.41531 2.18504,2.2347 z"
     id="path45" /><path
     d="m 62.323277,0.2483 c 1.86225,0 3.40171,-0.94354 4.49423,-2.25953 l 1.44014,1.7381 c 0.22347,0.27313 0.57109,0.42211 0.89388,0.42211 0.64558,0 1.16701,-0.52143 1.16701,-1.16701 0,-0.22347 -0.12415,-0.54626 -0.27313,-0.72007 l -1.91191,-2.33402 c 0.37245,-0.76973 0.86905,-1.9864 0.86905,-2.60715 0,-0.67041 -0.4966,-1.16701 -1.16701,-1.16701 -0.7449,0 -0.94354,0.29796 -1.21667,1.14218 -0.02483,0.04966 -0.12415,0.42211 -0.19864,0.62075 l -2.18504,-2.65681 c 1.76293,-1.06769 2.65681,-2.2347 2.65681,-4.09695 0,-1.91191 -1.86225,-3.69967 -3.87348,-3.69967 -2.01123,0 -3.87348,1.78776 -3.87348,3.74933 0,1.36565 0.69524,2.53266 1.36565,3.40171 -1.71327,0.9932 -3.32722,2.30919 -3.32722,4.89151 0,2.90511 2.68164,4.74253 5.13981,4.74253 z m 0.32279,-10.77622 c -0.52143,-0.59592 -1.16701,-1.51463 -1.16701,-2.25953 0,-0.79456 0.84422,-1.41531 1.53946,-1.41531 0.79456,0 1.56429,0.69524 1.56429,1.41531 0,0.57109 -0.04966,1.2415 -1.93674,2.25953 z m -0.32279,8.41737 c -1.14218,0 -2.80579,-0.7449 -2.80579,-2.38368 0,-1.4898 1.19184,-2.30919 2.63198,-3.10375 l 3.12858,3.74933 c -0.69524,0.96837 -1.71327,1.7381 -2.95477,1.7381 z"
     id="path47" /></g>
    </g>
    <defs
   id="defs32">
        <radialGradient
   id="_Radial2"
   cx="0"
   cy="0"
   r="1"
   gradientUnits="userSpaceOnUse"
   gradientTransform="matrix(64,0,0,47.6377,64,47.6377)"><stop
     offset="0"
     style="stop-color:rgb(219,68,55);stop-opacity:1"
     id="stop27" /><stop
     offset="1"
     style="stop-color:rgb(219,68,55);stop-opacity:0"
     id="stop29" /></radialGradient>
    </defs>
</svg>
