<svg version="1.1" xmlns="http://www.w3.org/2000/svg" xmlns:xlink="http://www.w3.org/1999/xlink" width="87.5168" height="94.17413" viewBox="0,0,87.5168,94.17413"><g transform="translate(-196.2416,-132.91293)"><g data-paper-data="{&quot;isPaintingLayer&quot;:true}" fill-rule="nonzero" stroke="none" stroke-linecap="butt" stroke-linejoin="miter" stroke-miterlimit="10" stroke-dasharray="" stroke-dashoffset="0" style=""><path d="M216.08453,135.94963c26.09745,-9.61817 44.03245,4.46961 56.36916,30.15006c5.27894,10.9888 12.07527,25.41798 11.23353,35.6169c-1.12537,13.63565 -10.25223,18.03622 -21.00484,23.20169c-9.93782,4.77406 -26.91547,1.05694 -37.59611,-5.23585c-10.68064,-6.29278 -14.88201,-8.78368 -20.69574,-20.88571c-12.33671,-25.68045 -12.33443,-54.31648 11.694,-62.8471z" data-paper-data="{&quot;index&quot;:null}" fill="#6886a3" stroke-width="0"/><path d="M217.31046,138.2077c24.75967,-9.12513 41.7753,4.24049 53.47962,28.60454c5.00833,10.4255 11.45628,24.11503 10.65769,33.79114c-1.06768,12.93667 -9.72669,17.11166 -19.92811,22.01235c-9.4284,4.52934 -25.53575,1.00276 -35.66889,-4.96745c-10.13314,-5.97021 -14.11914,-8.33342 -19.63485,-19.81509c-11.70432,-24.36404 -11.70215,-51.53216 11.09455,-59.62549z" data-paper-data="{&quot;index&quot;:null}" fill="#89b1d6" stroke-width="0"/><g fill="#004fac" stroke-width="1"><path d="M243.20483,144.79971c5.53547,3.54215 11.08283,9.71087 14.57508,16.66977c4.49524,8.97756 6.66077,10.62181 10.24403,13.38127c4.0143,3.10181 1.42136,7.40131 -3.2673,5.09409c-2.05615,-1.00584 -4.80838,-2.87814 -11.61549,-15.24918c-3.12818,-5.72888 -5.86126,-10.43021 -12.99625,-15.25358c-2.49262,-1.76345 0.17272,-6.53536 3.05992,-4.64237z"/><path d="M234.93162,146.50187c-8.60237,-2.00909 -12.5722,0.00723 -18.09862,3.16644c-3.55457,2.0109 -5.60735,-2.17173 -3.83304,-3.83382c7.02975,-6.6587 17.46305,-7.13188 23.71425,-4.65426c2.86599,1.12995 1.55039,6.10872 -1.78258,5.32163z"/><path d="M212.59477,154.33732c-6.3011,10.01675 -4.19583,24.22286 6.59508,40.79618c2.24439,3.38313 -1.33086,5.52901 -3.0969,3.53155c-12.66865,-14.23637 -16.14899,-36.59648 -8.07307,-47.37731c2.16294,-2.84582 6.31221,0.27667 4.57488,3.04958z"/><path d="M224.07579,206.51938c0.19057,-2.59553 1.36189,-5.73147 -1.64166,-11.37218c-1.62124,-2.94227 -7.68988,-12.92076 -8.08756,-18.43838c-0.24047,-2.93788 4.35304,-3.61534 5.05557,-0.53757c1.20209,5.22648 2.83367,8.10127 5.71207,12.75579c6.16716,9.78637 4.95549,14.98828 4.11669,18.65869c-0.82355,3.12017 -5.41265,2.41686 -5.15511,-1.06634z"/><path d="M240.94543,205.51302c-0.38553,6.57182 -3.24403,9.44919 -4.38536,10.58664c-1.53047,1.42317 -5.69941,0.23168 -4.00396,-3.16929c4.59376,-9.24233 -0.12359,-16.31992 -0.59807,-19.98437c-0.49516,-3.52948 2.82644,-4.47094 4.37915,-3.33504c2.3005,1.66493 3.11241,5.3811 3.68436,7.05742c2.13449,1.84671 10.04932,8.79268 25.58707,11.51931c3.70143,0.63634 3.03458,5.43825 -0.64565,5.56495c-11.44561,0.31804 -24.01755,-8.23961 -24.01755,-8.23961z"/><path d="M254.03477,220.15922c-2.20638,-0.47629 -3.53543,-0.81812 -6.44228,-0.78011c-3.10931,0.00698 -4.79596,0.64642 -6.78954,0.13368c-2.4453,-0.72012 -2.0109,-3.55456 -0.56317,-4.43784c5.78059,-3.46562 13.43867,-0.70331 14.76281,0.12127c3.39606,2.1782 1.38387,5.39248 -0.96783,4.963z"/><path d="M274.3783,203.24615c-3.09302,1.25277 -11.44612,-0.57998 -13.24267,-1.47696c-3.08423,-1.50876 -1.62822,-6.05158 1.01902,-6.19845c2.22163,-0.07395 3.62361,0.69349 6.25559,1.09686c2.8241,0.50188 3.98663,0.12748 5.68957,0.73383c3.28126,1.12452 2.53606,5.08556 0.27848,5.84472z"/><path d="M254.06502,191.56808c0.8463,0.33692 2.38325,1.12503 3.18817,1.7319c2.54976,1.84128 0.41397,6.76343 -2.75791,6.27731c-1.21477,-0.18617 -3.45269,-1.35802 -4.24728,-2.03237c-2.4877,-2.2462 0.04758,-7.52154 3.81702,-5.97684z"/><path d="M249.10591,188.32146c2.11924,2.39695 -0.66038,7.0132 -3.90027,5.61873c-3.70195,-1.53436 -7.31831,-7.68342 -7.6017,-13.04538c-0.47215,-8.63728 -3.96724,-11.52137 -6.93563,-10.18043c-3.26936,1.50203 -1.818,6.90485 0.59678,8.72545c7.16653,5.51892 1.47514,10.65594 -1.8643,7.65756c-10.64145,-9.436 -6.82262,-21.2837 -0.89076,-23.48283c8.04412,-2.9115 14.17973,6.17932 14.97845,14.03778c0.6578,6.5245 3.49819,8.27217 5.61743,10.66912z"/><path d="M218.50594,170.30092c-0.26348,2.16992 -4.67573,2.11537 -4.86397,-0.26193c-0.25081,-2.87039 0.4282,-13.61062 9.72793,-17.50391c7.15645,-2.97847 15.30219,-0.694 20.66286,5.79146c7.92673,9.57253 11.13093,21.11511 16.80137,24.67795c4.9798,3.11164 11.29693,2.90555 12.64666,3.11241c3.49897,0.60532 3.08681,5.99883 -1.68355,6.02753c-7.7447,0.05637 -16.54021,-3.84727 -19.77182,-8.90128c-2.33799,-3.67376 -6.24111,-12.00801 -9.00522,-16.50687c-2.9252,-4.79984 -6.72721,-8.83612 -12.21925,-9.05616c-4.72899,-0.24125 -11.09189,1.61553 -12.29502,12.6208z"/><path d="M237.48214,194.75961"/></g></g></g></svg>