<?xml version='1.0' encoding='UTF-8'?>
<svg xmlns="http://www.w3.org/2000/svg" xmlns:svg="http://www.w3.org/2000/svg" viewBox="0 0 128 128" version="1.1" xml:space="preserve" style="fill-rule:evenodd;clip-rule:evenodd;stroke-linejoin:round;stroke-miterlimit:2" id="svg126"><defs id="defs130"/>
    <g transform="matrix(1.02239,-0.59028,0.59028,1.02239,-39.1926,37.5067)" id="g124">
        <path d="m 100.493,56.189 c -8.588,14.876 -17.071,10.314 -21.34,20.624 -4.268,10.31 2.806,14.395 -2.58,23.724 -5.386,9.328 -6.779,14.659 -15.784,14.503 -9.005,-0.157 -14.658,-4.85 -21.27,-8.667 -6.613,-3.818 -13.504,-6.368 -18.142,-14.088 -4.638,-7.72 -0.718,-11.592 4.668,-20.921 5.386,-9.329 12.46,-5.245 19.255,-14.096 6.794,-8.852 -1.397,-13.917 7.191,-28.793 8.589,-14.876 21.917,-3.147 30.843,2.007 8.926,5.153 25.748,10.831 17.16,25.707 z" style="fill:#1d8cc8;fill-rule:nonzero" id="path2"/>
        <g transform="matrix(1.18732,0.6855,-0.6855,1.18732,-27.2733,-17.6204)" id="g8">
            <path d="m 92.852,-9.191 c 0,0.785 -2.437,1.42 -5.442,1.42 -3.005,0 -5.441,-0.635 -5.441,-1.42 v -8.365 c 0,-0.785 2.436,-1.422 5.441,-1.422 3.005,0 5.442,0.637 5.442,1.422 z" style="fill:#ecdc51;fill-rule:nonzero" id="path4"/>
            <path id="ellipse6" style="fill:#f5af3c" d="m 92.851004,-17.556 a 5.441,1.421 0 0 1 -5.441,1.421 5.441,1.421 0 0 1 -5.441,-1.421 5.441,1.421 0 0 1 5.441,-1.421 5.441,1.421 0 0 1 5.441,1.421 z"/>
        </g>
        <g transform="rotate(30.000012)" id="g12">
            <path d="m 103.011,16.129 c 0,-2.146 -1.743,-3.889 -3.889,-3.889 H 75.698 c -2.146,0 -3.889,1.743 -3.889,3.889 v 21.52 c 0,2.146 1.743,3.889 3.889,3.889 h 23.424 c 2.146,0 3.889,-1.743 3.889,-3.889 z" style="fill:#ffffff" id="path10"/>
        </g>
        <g transform="rotate(34.590012,-121.13083,121.72167)" id="g16">
            <g aria-label="super" id="text14" style="fill:#ffca31"><path d="m -9.5780496,0.05955 c 1.09175,0 1.776575,-0.77415001 1.776575,-1.518525 0,-0.7543 -0.397,-1.09175 -1.4689,-1.4292001 -0.7146,-0.228275 -1.0024254,-0.37715 -1.0024254,-0.69475 0,-0.267975 0.2382,-0.4764 0.8734004,-0.4764 0.506175,0 0.704675,0.168725 0.704675,0.397 0,0.0794 -0.049625,0.148875 -0.049625,0.2382 0,0.188575 0.17865,0.406925 0.466475,0.406925 0.3176,0 0.49625,-0.228275 0.49625,-0.6352 0,-0.744375 -0.585575,-1.240625 -1.637625,-1.240625 -1.1513004,0 -1.7666504,0.585575 -1.7666504,1.32995 0,0.744375 0.45655,1.1612251 1.5284504,1.4887501 0.744375,0.228275 0.923025,0.367225 0.923025,0.664975 0,0.287825 -0.2779,0.61534998 -0.823775,0.61534998 -0.4962504,0 -0.8337004,-0.25804998 -0.9726504,-0.66497498 -0.05955,-0.188575 -0.21835,-0.327525 -0.446625,-0.327525 -0.25805,0 -0.466475,0.208425 -0.466475,0.466475 0,0.35729998 0.605425,1.379575 1.8659004,1.379575 z" id="path133"/><path d="m -5.4294069,0.089325 c 0.5955,0 1.0719,-0.33745 1.40935,-0.57565001 v 0.109175 c 0,0.26797501 0.248125,0.43670001 0.506175,0.43670001 0.25805,0 0.4764,-0.228275 0.4764,-0.47640001 V -4.4464001 c 0,-0.267975 -0.228275,-0.45655 -0.4764,-0.45655 -0.228275,0 -0.466475,0.188575 -0.466475,0.45655 l -0.01985,2.8286251 c 0,0.1191 -0.01985,0.208425 -0.05955,0.248125 -0.168725,0.188575 -0.73445,0.56572498 -1.2704,0.56572498 -0.3573,0 -0.65505,-0.26797498 -0.65505,-1.73687498 0,-1.0024251 0.1191,-1.7269501 0.1191,-1.8956751 0,-0.3176 -0.228275,-0.466475 -0.4764,-0.466475 -0.287825,0 -0.41685,0.188575 -0.466475,0.506175 -0.069475,0.446625 -0.109175,1.141375 -0.109175,1.637625 0,2.35222509 0.486325,2.8484751 1.48875,2.8484751 z" id="path135"/><path d="m -1.1715853,1.816275 c 0.24812504,0 0.47640004,-0.228275 0.47640004,-0.4764 v -1.61777501 c 0.30767501,0.17865001 0.59550001,0.26797501 0.94287502,0.26797501 1.76665004,0 2.20335004,-1.518525 2.20335004,-2.6400501 0,-1.5086 -0.89325,-2.252975 -1.66740003,-2.252975 -0.64512501,0 -1.14137502,0.17865 -1.48875003,0.57565 v -0.109175 c 0,-0.29775 -0.25805,-0.466475 -0.45655004,-0.466475 -0.2779,0 -0.486325,0.208425 -0.486325,0.486325 V 1.339875 c 0,0.248125 0.21835,0.4764 0.4764,0.4764 z m 1.47882506,-2.73930002 c -0.37715001,0 -0.77415001,-0.14887498 -1.00242502,-0.23819998 v -2.2033501 c 0.17865,-0.228275 0.62527501,-0.645125 1.39942503,-0.645125 0.45655003,0 0.84362503,0.4764 0.84362503,1.359725 0,1.1810751 -0.49625,1.72695008 -1.24062504,1.72695008 z" id="path137"/><path d="m 5.666739,0.05955 c 0.61535,0 1.300175,-0.32752501 1.657475,-0.73445001 0.0794,-0.089325 0.1191,-0.17865001 0.1191,-0.29775001 0,-0.25804998 -0.1985,-0.44662498 -0.466475,-0.44662498 -0.129025,0 -0.2382,0.069475 -0.327525,0.1588 -0.21835,0.228275 -0.545875,0.42677498 -0.982575,0.42677498 -0.5657251,0 -1.0917501,-0.22827498 -1.2803251,-0.64512498 L 7.046314,-3.0072751 c 0.208425,-0.1191 0.307675,-0.29775 0.307675,-0.45655 0,-0.466475 -0.5955,-1.4292 -1.9056001,-1.4292 -1.359725,0 -2.24305,1.220775 -2.24305,2.4614001 0,1.55822498 1.061975,2.491175 2.4614001,2.491175 z M 4.1085139,-2.3026 c 0,-0.13895 0,-0.208425 0.01985,-0.3573001 0.0794,-0.73445 0.61535,-1.339875 1.3895,-1.339875 0.3870751,0 0.6947501,0.13895 0.8535501,0.41685 z" id="path139"/><path d="m 8.8824319,0.05955 c 0.2382,0 0.4764,-0.21835 0.4764,-0.45655001 L 9.3687569,-2.28275 c 0,-0.4069251 0.0397,-0.7543001 0.33745,-1.1314501 0.168725,-0.228275 0.5260251,-0.5558 0.7940001,-0.5558 0.168725,0 0.21835,0.05955 0.21835,0.1588 v 0.129025 c 0,0.228275 0.1191,0.4764 0.466475,0.4764 0.267975,0 0.466475,-0.208425 0.466475,-0.466475 v -0.29775 c 0,-0.426775 -0.208425,-0.942875 -0.9528,-0.942875 -0.585575,0 -1.0222751,0.287825 -1.3299501,0.794 v -0.29775 c 0,-0.267975 -0.21835,-0.4764 -0.486325,-0.4764 -0.25805,0 -0.486325,0.208425 -0.486325,0.4764 v 4.01962509 c 0,0.23820001 0.2382,0.45655001 0.486325,0.45655001 z" id="path141"/></g>
        </g>
        <g transform="rotate(34.590012,-129.26398,97.012062)" id="g20">
            <g aria-label="soft" id="text18" style="fill:#ffca31"><path d="m 2.12395,0.05955 c 1.0917501,0 1.7765751,-0.77415001 1.7765751,-1.518525 0,-0.7543 -0.397,-1.09175 -1.4689001,-1.4292001 -0.7146,-0.228275 -1.002425,-0.37715 -1.002425,-0.69475 0,-0.267975 0.2382,-0.4764 0.8734,-0.4764 0.5061751,0 0.7046751,0.168725 0.7046751,0.397 0,0.0794 -0.049625,0.148875 -0.049625,0.2382 0,0.188575 0.17865,0.406925 0.466475,0.406925 0.3176,0 0.49625,-0.228275 0.49625,-0.6352 0,-0.744375 -0.585575,-1.240625 -1.6376251,-1.240625 -1.1513,0 -1.76664999,0.585575 -1.76664999,1.32995 0,0.744375 0.45655001,1.1612251 1.52844999,1.4887501 0.7443751,0.228275 0.9230251,0.367225 0.9230251,0.664975 0,0.287825 -0.2779,0.61534998 -0.8237751,0.61534998 -0.49625,0 -0.8337,-0.25804998 -0.97265,-0.66497498 C 1.1116,-1.64755 0.95280002,-1.7865 0.72452501,-1.7865 c -0.25805,0 -0.46647501,0.208425 -0.46647501,0.466475 0,0.35729998 0.60542502,1.379575 1.8659,1.379575 z" id="path144"/><path d="m 6.6398178,0.05955 c 1.260475,0 2.332375,-1.21085 2.332375,-2.6599 0,-1.2207751 -0.89325,-2.2926751 -2.054475,-2.2926751 -1.2604751,0 -2.3224501,1.220775 -2.3224501,2.6499751 0,1.27039998 0.883325,2.3026 2.0445501,2.3026 z m 0,-0.89325002 c -0.53595,0 -1.0719001,-0.49624998 -1.0719001,-1.41927498 0,-0.9230251 0.6054251,-1.7468001 1.3101001,-1.7468001 0.625275,0 1.121525,0.684825 1.121525,1.4490501 0,0.9131 -0.645125,1.71702498 -1.359725,1.71702498 z" id="path146"/><path d="m 10.649528,0.05955 c 0.248125,0 0.4764,-0.21835 0.4764,-0.45655001 V -3.9898501 h 1.022275 c 0.248125,0 0.446625,-0.21835 0.446625,-0.45655 0,-0.248125 -0.248125,-0.45655 -0.446625,-0.45655 l -1.01235,-0.00992 c 0.05955,-0.684825 0.3573,-0.784075 1.181075,-0.784075 0.29775,0 0.466475,-0.21835 0.466475,-0.466475 0,-0.367225 -0.248125,-0.45655 -0.57565,-0.45655 -1.359725,0 -1.96515,0.426775 -2.0247,1.7071 H 9.7066534 c -0.228275,0 -0.446625,0.21835 -0.446625,0.466475 0,0.2382 0.21835,0.45655 0.45655,0.45655 h 0.4565496 v 3.59285009 c 0,0.23820001 0.228275,0.45655001 0.4764,0.45655001 z" id="path148"/><path d="m 14.043869,0.069475 c 0.25805,0 0.4764,-0.208425 0.4764,-0.46647501 V -3.9402251 h 0.843625 c 0.267975,0 0.4764,-0.228275 0.4764,-0.4764 0,-0.2779 -0.208425,-0.486325 -0.4764,-0.486325 h -0.843625 v -1.061975 c 0,-0.248125 -0.188575,-0.486325 -0.4764,-0.486325 -0.267975,0 -0.4764,0.2382 -0.4764,0.486325 v 1.061975 h -0.764225 c -0.25805,0 -0.49625,0.188575 -0.49625,0.486325 0,0.248125 0.208425,0.4764 0.4764,0.4764 h 0.784075 v 3.54322509 c 0,0.25805001 0.228275,0.46647501 0.4764,0.46647501 z" id="path150"/></g>
        </g>
        <g id="g122">
            <path d="m 67.769,57.443 c -10.288,-5.94 -17.19,5.452 -18.508,7.734 -1.318,2.284 2.33,6.854 8.146,10.213 5.818,3.358 11.597,4.231 12.916,1.947 1.318,-2.282 7.733,-13.955 -2.554,-19.894 z" style="fill:#fcc21b;fill-rule:nonzero" id="path22"/>
            <path d="m 67.256,74.324 c -1.818,-0.33 -3.038,-2.05 -2.73,-3.851 0.313,-1.799 2.034,-2.997 3.852,-2.672 1.812,0.327 3.034,2.053 2.727,3.854 -0.312,1.802 -2.038,2.997 -3.85,2.669 z" style="fill:#fcc21b;fill-rule:nonzero" id="path24"/>
            <path d="m 67.277,74.191 c -1.744,-0.316 -2.915,-1.966 -2.617,-3.694 0.298,-1.726 1.95,-2.876 3.695,-2.562 1.74,0.313 2.912,1.969 2.617,3.696 -0.3,1.727 -1.955,2.876 -3.695,2.56 z" style="fill:#fcc01c;fill-rule:nonzero" id="path26"/>
            <path d="m 67.301,74.058 c -1.668,-0.302 -2.79,-1.883 -2.505,-3.538 0.285,-1.653 1.867,-2.752 3.538,-2.453 1.665,0.301 2.788,1.887 2.504,3.54 -0.255,1.441 -1.52,2.502 -2.984,2.502 -0.185,0 -0.37,-0.017 -0.553,-0.051 z" style="fill:#fcbe1c;fill-rule:nonzero" id="path28"/>
            <path d="m 67.323,73.926 c -1.595,-0.29 -2.667,-1.799 -2.394,-3.381 0.242,-1.379 1.452,-2.394 2.851,-2.394 0.178,0 0.355,0.017 0.529,0.049 1.592,0.288 2.664,1.802 2.395,3.384 -0.275,1.58 -1.79,2.629 -3.381,2.342 z" style="fill:#fbbb1d;fill-rule:nonzero" id="path30"/>
            <path d="m 67.347,73.793 c -1.522,-0.275 -2.544,-1.717 -2.284,-3.223 0.231,-1.315 1.384,-2.283 2.718,-2.283 0.17,0 0.339,0.016 0.506,0.047 1.518,0.274 2.541,1.718 2.283,3.228 -0.234,1.312 -1.386,2.277 -2.718,2.277 -0.17,0 -0.339,-0.016 -0.505,-0.047 z" style="fill:#fbb91e;fill-rule:nonzero" id="path32"/>
            <path d="m 67.369,73.66 c -1.448,-0.263 -2.42,-1.631 -2.173,-3.066 0.22,-1.251 1.318,-2.172 2.588,-2.172 0.161,0 0.322,0.015 0.48,0.044 1.444,0.261 2.417,1.635 2.173,3.069 -0.222,1.25 -1.319,2.169 -2.588,2.169 -0.161,0 -0.322,-0.015 -0.48,-0.044 z" style="fill:#fbb71e;fill-rule:nonzero" id="path34"/>
            <path d="m 67.393,73.527 c -1.373,-0.248 -2.296,-1.549 -2.061,-2.91 0.208,-1.187 1.249,-2.061 2.454,-2.061 0.153,0 0.306,0.014 0.456,0.042 1.37,0.247 2.293,1.55 2.062,2.913 -0.211,1.186 -1.251,2.058 -2.456,2.058 -0.152,0 -0.305,-0.014 -0.455,-0.042 z" style="fill:#fbb51f;fill-rule:nonzero" id="path36"/>
            <path d="m 67.414,73.395 c -1.299,-0.235 -2.173,-1.465 -1.949,-2.753 0.198,-1.123 1.184,-1.949 2.324,-1.949 0.144,0 0.287,0.013 0.429,0.039 1.286,0.229 2.162,1.466 1.95,2.755 -0.198,1.122 -1.183,1.948 -2.322,1.948 -0.145,0 -0.29,-0.013 -0.432,-0.04 z" style="fill:#fab220;fill-rule:nonzero" id="path38"/>
            <path d="m 67.437,73.261 c -1.225,-0.222 -2.048,-1.382 -1.84,-2.596 0.186,-1.058 1.115,-1.838 2.189,-1.838 0.137,0 0.274,0.013 0.408,0.038 1.222,0.22 2.047,1.383 1.838,2.599 -0.186,1.057 -1.113,1.835 -2.186,1.835 -0.137,0 -0.274,-0.013 -0.409,-0.038 z" style="fill:#fab020;fill-rule:nonzero" id="path40"/>
            <path d="m 67.46,73.13 c -1.152,-0.21 -1.925,-1.298 -1.729,-2.44 0.174,-0.995 1.047,-1.727 2.057,-1.727 0.128,0 0.257,0.011 0.383,0.035 1.14,0.203 1.916,1.3 1.729,2.442 -0.176,0.994 -1.049,1.725 -2.058,1.725 -0.128,0 -0.255,-0.012 -0.381,-0.035 z" style="fill:#faae21;fill-rule:nonzero" id="path42"/>
            <path d="m 67.483,72.996 c -1.077,-0.194 -1.802,-1.216 -1.618,-2.284 0.164,-0.931 0.982,-1.617 1.927,-1.617 0.12,0 0.239,0.011 0.357,0.033 1.066,0.19 1.792,1.216 1.617,2.285 -0.162,0.931 -0.978,1.616 -1.923,1.616 -0.121,0 -0.241,-0.011 -0.36,-0.033 z" style="fill:#faac22;fill-rule:nonzero" id="path44"/>
            <path d="M 67.506,72.864 C 66.513,72.689 65.835,71.733 66,70.738 c 0.153,-0.868 0.914,-1.506 1.794,-1.506 0.112,0 0.223,0.01 0.332,0.03 0.994,0.176 1.671,1.133 1.506,2.129 -0.153,0.866 -0.913,1.504 -1.792,1.504 -0.112,0 -0.224,-0.01 -0.334,-0.031 z" style="fill:#f9a922;fill-rule:nonzero" id="path46"/>
            <path d="m 67.528,72.73 c -0.92,-0.162 -1.547,-1.048 -1.394,-1.97 0.142,-0.803 0.847,-1.394 1.662,-1.394 0.103,0 0.206,0.009 0.308,0.028 0.92,0.163 1.546,1.048 1.394,1.97 -0.141,0.803 -0.845,1.395 -1.661,1.395 -0.103,0 -0.207,-0.01 -0.309,-0.029 z" style="fill:#f9a723;fill-rule:nonzero" id="path48"/>
            <path d="m 67.553,72.597 c -0.847,-0.149 -1.424,-0.964 -1.284,-1.812 0.13,-0.739 0.779,-1.283 1.529,-1.283 0.095,0 0.19,0.009 0.283,0.026 0.846,0.152 1.422,0.966 1.284,1.814 -0.131,0.738 -0.779,1.281 -1.528,1.281 -0.095,0 -0.19,-0.009 -0.284,-0.026 z" style="fill:#f9a524;fill-rule:nonzero" id="path50"/>
            <path d="m 67.574,72.465 c -0.774,-0.136 -1.301,-0.881 -1.172,-1.656 0.119,-0.675 0.71,-1.172 1.396,-1.172 0.087,0 0.173,0.008 0.259,0.024 0.779,0.14 1.304,0.882 1.173,1.658 -0.118,0.674 -0.709,1.171 -1.394,1.171 -0.088,0 -0.176,-0.009 -0.262,-0.025 z" style="fill:#f9a324;fill-rule:nonzero" id="path52"/>
            <path d="m 67.598,72.332 c -0.701,-0.123 -1.178,-0.798 -1.06,-1.5 0.12,-0.7 0.791,-1.166 1.499,-1.038 0.701,0.125 1.178,0.8 1.061,1.502 -0.11,0.61 -0.645,1.058 -1.265,1.058 -0.079,0 -0.157,-0.008 -0.235,-0.022 z" style="fill:#f8a025;fill-rule:nonzero" id="path54"/>
            <path d="m 67.62,72.2 c -0.628,-0.11 -1.055,-0.715 -0.95,-1.343 0.096,-0.548 0.577,-0.951 1.133,-0.951 0.07,0 0.141,0.006 0.21,0.019 0.632,0.115 1.057,0.716 0.952,1.344 -0.097,0.547 -0.577,0.95 -1.132,0.95 -0.072,0 -0.143,-0.007 -0.213,-0.02 z" style="fill:#f89e26;fill-rule:nonzero" id="path56"/>
            <path d="m 67.644,72.066 c -0.558,-0.1 -0.935,-0.63 -0.84,-1.185 0.086,-0.484 0.51,-0.84 1.001,-0.84 0.062,0 0.123,0.006 0.184,0.017 0.559,0.101 0.935,0.632 0.84,1.187 -0.085,0.483 -0.508,0.838 -0.999,0.838 -0.062,0 -0.125,-0.006 -0.186,-0.017 z" style="fill:#f89c26;fill-rule:nonzero" id="path58"/>
            <path d="m 67.666,71.934 c -0.481,-0.084 -0.81,-0.547 -0.73,-1.029 0.074,-0.42 0.442,-0.729 0.868,-0.729 0.054,0 0.109,0.005 0.162,0.015 0.484,0.087 0.81,0.55 0.727,1.03 -0.073,0.419 -0.441,0.728 -0.866,0.728 -0.054,0 -0.108,-0.005 -0.161,-0.015 z" style="fill:#f89a27;fill-rule:nonzero" id="path60"/>
            <path d="m 67.69,71.8 c -0.407,-0.072 -0.685,-0.463 -0.618,-0.871 0.063,-0.356 0.375,-0.618 0.736,-0.618 0.045,0 0.091,0.005 0.136,0.013 0.408,0.073 0.685,0.466 0.616,0.874 -0.062,0.355 -0.373,0.616 -0.733,0.616 -0.046,0 -0.092,-0.005 -0.137,-0.013 z" style="fill:#f79728;fill-rule:nonzero" id="path62"/>
            <path d="m 67.711,71.669 c -0.334,-0.059 -0.562,-0.381 -0.506,-0.716 0.051,-0.292 0.307,-0.506 0.603,-0.506 0.037,0 0.074,0.003 0.111,0.01 0.338,0.061 0.564,0.38 0.507,0.716 -0.05,0.292 -0.305,0.507 -0.601,0.507 -0.038,0 -0.076,-0.004 -0.114,-0.011 z" style="fill:#f79528;fill-rule:nonzero" id="path64"/>
            <path d="m 67.735,71.535 c -0.26,-0.047 -0.437,-0.296 -0.395,-0.557 0.04,-0.227 0.239,-0.394 0.47,-0.394 0.03,0 0.06,0.002 0.089,0.008 0.262,0.046 0.44,0.298 0.394,0.559 -0.041,0.226 -0.24,0.392 -0.469,0.392 -0.03,0 -0.06,-0.002 -0.089,-0.008 z" style="fill:#f79329;fill-rule:nonzero" id="path66"/>
            <g id="g112">
                <path d="m 55.243,67.243 c -1.817,-0.33 -3.038,-2.05 -2.728,-3.852 0.31,-1.8 2.033,-2.997 3.851,-2.672 1.812,0.327 3.034,2.053 2.727,3.854 -0.312,1.802 -2.037,2.997 -3.85,2.67 z" style="fill:#fcc21b;fill-rule:nonzero" id="path68"/>
                <path d="m 55.266,67.11 c -1.744,-0.316 -2.916,-1.967 -2.617,-3.697 0.299,-1.725 1.95,-2.874 3.695,-2.562 1.739,0.315 2.912,1.969 2.616,3.698 -0.265,1.505 -1.586,2.614 -3.114,2.614 -0.195,0 -0.389,-0.018 -0.58,-0.054 z" style="fill:#fcc01c;fill-rule:nonzero" id="path70"/>
                <path d="m 55.289,66.978 c -1.668,-0.303 -2.79,-1.883 -2.506,-3.538 0.285,-1.652 1.868,-2.752 3.538,-2.453 1.665,0.301 2.788,1.886 2.504,3.541 -0.286,1.652 -1.871,2.75 -3.536,2.45 z" style="fill:#fcbe1c;fill-rule:nonzero" id="path72"/>
                <path d="m 55.311,66.844 c -1.595,-0.289 -2.667,-1.799 -2.394,-3.381 0.274,-1.58 1.784,-2.63 3.38,-2.344 1.592,0.287 2.664,1.8 2.396,3.383 -0.244,1.377 -1.453,2.391 -2.852,2.391 -0.178,0 -0.355,-0.017 -0.53,-0.049 z" style="fill:#fbbb1d;fill-rule:nonzero" id="path74"/>
                <path d="m 55.335,66.713 c -1.522,-0.276 -2.544,-1.717 -2.283,-3.225 0.26,-1.507 1.702,-2.508 3.223,-2.235 1.518,0.275 2.541,1.717 2.284,3.227 -0.234,1.313 -1.387,2.279 -2.721,2.279 -0.169,0 -0.337,-0.015 -0.503,-0.046 z" style="fill:#fbb91e;fill-rule:nonzero" id="path76"/>
                <path d="m 55.357,66.579 c -1.448,-0.264 -2.42,-1.632 -2.171,-3.069 0.221,-1.251 1.319,-2.172 2.59,-2.172 0.16,0 0.32,0.015 0.477,0.044 1.444,0.262 2.417,1.635 2.172,3.071 -0.222,1.25 -1.319,2.17 -2.589,2.17 -0.16,0 -0.321,-0.015 -0.479,-0.044 z" style="fill:#fbb71e;fill-rule:nonzero" id="path78"/>
                <path d="m 55.38,66.447 c -1.372,-0.248 -2.295,-1.55 -2.06,-2.91 0.209,-1.187 1.25,-2.061 2.455,-2.061 0.153,0 0.305,0.014 0.455,0.042 1.369,0.246 2.293,1.55 2.061,2.913 -0.211,1.186 -1.252,2.058 -2.456,2.058 -0.153,0 -0.304,-0.014 -0.454,-0.042 z" style="fill:#fbb51f;fill-rule:nonzero" id="path80"/>
                <path d="m 55.403,66.313 c -1.3,-0.235 -2.173,-1.465 -1.95,-2.753 0.198,-1.123 1.184,-1.949 2.324,-1.949 0.144,0 0.287,0.013 0.429,0.039 1.296,0.234 2.17,1.467 1.95,2.755 -0.198,1.122 -1.182,1.948 -2.321,1.948 -0.145,0 -0.29,-0.013 -0.432,-0.04 z" style="fill:#fab220;fill-rule:nonzero" id="path82"/>
                <path d="m 55.426,66.182 c -1.225,-0.223 -2.048,-1.382 -1.84,-2.598 0.186,-1.058 1.115,-1.838 2.189,-1.838 0.137,0 0.274,0.013 0.409,0.038 1.222,0.22 2.047,1.383 1.838,2.599 -0.188,1.058 -1.117,1.836 -2.192,1.836 -0.135,0 -0.271,-0.012 -0.404,-0.037 z" style="fill:#fab020;fill-rule:nonzero" id="path84"/>
                <path d="m 55.449,66.048 c -1.153,-0.21 -1.926,-1.298 -1.728,-2.442 0.176,-0.994 1.048,-1.726 2.058,-1.726 0.128,0 0.256,0.012 0.382,0.035 1.148,0.207 1.924,1.3 1.728,2.441 -0.175,0.995 -1.048,1.727 -2.058,1.727 -0.128,0 -0.256,-0.012 -0.382,-0.035 z" style="fill:#faae21;fill-rule:nonzero" id="path86"/>
                <path d="m 55.472,65.916 c -1.076,-0.195 -1.802,-1.215 -1.618,-2.283 0.163,-0.931 0.98,-1.616 1.925,-1.616 0.12,0 0.24,0.011 0.358,0.033 1.066,0.19 1.792,1.216 1.617,2.285 -0.165,0.93 -0.981,1.614 -1.926,1.614 -0.119,0 -0.239,-0.011 -0.356,-0.033 z" style="fill:#faac22;fill-rule:nonzero" id="path88"/>
                <path d="m 55.494,65.782 c -0.993,-0.176 -1.669,-1.131 -1.506,-2.126 0.153,-0.868 0.914,-1.506 1.795,-1.506 0.112,0 0.223,0.01 0.332,0.03 0.994,0.176 1.67,1.133 1.505,2.129 -0.153,0.866 -0.913,1.504 -1.792,1.504 -0.112,0 -0.224,-0.01 -0.334,-0.031 z" style="fill:#f9a922;fill-rule:nonzero" id="path90"/>
                <path d="m 55.517,65.648 c -0.921,-0.162 -1.548,-1.048 -1.395,-1.97 0.142,-0.803 0.847,-1.394 1.662,-1.394 0.103,0 0.206,0.009 0.308,0.028 0.92,0.163 1.546,1.048 1.394,1.97 -0.14,0.803 -0.845,1.395 -1.66,1.395 -0.104,0 -0.208,-0.01 -0.31,-0.029 z" style="fill:#f9a723;fill-rule:nonzero" id="path92"/>
                <path d="m 55.54,65.517 c -0.847,-0.15 -1.424,-0.966 -1.283,-1.814 0.13,-0.739 0.779,-1.283 1.529,-1.283 0.095,0 0.19,0.009 0.283,0.026 0.846,0.151 1.423,0.965 1.285,1.814 -0.131,0.739 -0.78,1.283 -1.53,1.283 -0.095,0 -0.19,-0.009 -0.284,-0.026 z" style="fill:#f9a524;fill-rule:nonzero" id="path94"/>
                <path d="m 55.563,65.383 c -0.774,-0.136 -1.301,-0.881 -1.173,-1.656 0.119,-0.675 0.71,-1.172 1.396,-1.172 0.087,0 0.173,0.008 0.259,0.024 0.779,0.14 1.306,0.88 1.173,1.658 -0.118,0.674 -0.709,1.17 -1.394,1.17 -0.087,0 -0.175,-0.008 -0.261,-0.024 z" style="fill:#f9a324;fill-rule:nonzero" id="path96"/>
                <path d="m 55.586,65.251 c -0.7,-0.124 -1.176,-0.798 -1.061,-1.499 0.12,-0.7 0.792,-1.166 1.5,-1.038 0.7,0.125 1.177,0.798 1.062,1.5 -0.111,0.61 -0.647,1.058 -1.267,1.058 -0.079,0 -0.157,-0.007 -0.234,-0.021 z" style="fill:#f8a025;fill-rule:nonzero" id="path98"/>
                <path d="m 55.608,65.117 c -0.627,-0.111 -1.054,-0.715 -0.95,-1.343 0.096,-0.547 0.576,-0.949 1.131,-0.949 0.07,0 0.141,0.006 0.21,0.019 0.632,0.115 1.058,0.714 0.951,1.344 -0.095,0.547 -0.575,0.95 -1.13,0.95 -0.071,0 -0.142,-0.007 -0.212,-0.02 z" style="fill:#f89e26;fill-rule:nonzero" id="path100"/>
                <path d="m 55.631,64.986 c -0.554,-0.099 -0.931,-0.632 -0.84,-1.187 0.086,-0.482 0.509,-0.837 0.999,-0.837 0.063,0 0.125,0.005 0.187,0.017 0.558,0.1 0.934,0.63 0.84,1.186 -0.085,0.483 -0.509,0.838 -0.999,0.838 -0.063,0 -0.125,-0.006 -0.187,-0.017 z" style="fill:#f89c26;fill-rule:nonzero" id="path102"/>
                <path d="m 55.654,64.852 c -0.481,-0.085 -0.809,-0.547 -0.73,-1.029 0.074,-0.419 0.442,-0.728 0.868,-0.728 0.054,0 0.108,0.005 0.162,0.015 0.48,0.084 0.808,0.547 0.729,1.028 -0.073,0.42 -0.441,0.729 -0.867,0.729 -0.054,0 -0.109,-0.005 -0.162,-0.015 z" style="fill:#f89a27;fill-rule:nonzero" id="path104"/>
                <path d="m 55.677,64.72 c -0.407,-0.072 -0.684,-0.464 -0.617,-0.872 0.063,-0.355 0.375,-0.616 0.735,-0.616 0.046,0 0.091,0.004 0.136,0.012 0.407,0.072 0.685,0.464 0.618,0.872 -0.063,0.356 -0.375,0.618 -0.736,0.618 -0.045,0 -0.091,-0.005 -0.136,-0.013 z" style="fill:#f79728;fill-rule:nonzero" id="path106"/>
                <path d="m 55.7,64.587 c -0.334,-0.059 -0.562,-0.381 -0.506,-0.716 0.051,-0.292 0.307,-0.506 0.603,-0.506 0.037,0 0.074,0.003 0.111,0.01 0.337,0.061 0.564,0.38 0.506,0.716 -0.05,0.291 -0.305,0.507 -0.601,0.507 -0.038,0 -0.076,-0.004 -0.113,-0.011 z" style="fill:#f79528;fill-rule:nonzero" id="path108"/>
                <path d="m 55.723,64.455 c -0.26,-0.047 -0.438,-0.298 -0.395,-0.559 0.04,-0.227 0.239,-0.394 0.47,-0.394 0.03,0 0.06,0.002 0.089,0.008 0.26,0.046 0.438,0.296 0.396,0.557 -0.041,0.228 -0.241,0.396 -0.473,0.396 -0.029,0 -0.058,-0.003 -0.087,-0.008 z" style="fill:#f79329;fill-rule:nonzero" id="path110"/>
            </g>
            <path d="m 57.302,62.712 c -0.078,0.044 -0.165,0.067 -0.254,0.067 -0.284,0 -0.518,-0.234 -0.518,-0.519 0,-0.186 0.101,-0.359 0.264,-0.451 0.06,-0.034 1.481,-0.817 3.089,0.111 1.61,0.93 1.642,2.552 1.644,2.621 -0.013,0.275 -0.244,0.495 -0.519,0.495 -0.271,0 -0.499,-0.212 -0.519,-0.482 0,-0.049 -0.043,-1.113 -1.124,-1.737 -1.08,-0.626 -2.02,-0.126 -2.063,-0.105 z m 11.765,6.999 c -0.092,0.001 -0.182,-0.022 -0.261,-0.068 -0.159,-0.092 -0.258,-0.261 -0.261,-0.444 0,-0.044 -0.038,-1.106 -1.12,-1.731 -1.101,-0.636 -2.055,-0.113 -2.064,-0.108 -0.072,0.036 -0.152,0.055 -0.233,0.055 -0.284,0 -0.518,-0.233 -0.518,-0.518 0,-0.177 0.091,-0.343 0.242,-0.438 0.06,-0.034 1.481,-0.817 3.09,0.112 1.608,0.928 1.64,2.55 1.64,2.618 0.002,0.284 -0.231,0.52 -0.515,0.522 z m -8.742,0.872 c -3.255,-1.879 -3.684,-4.404 -3.701,-4.51 -0.004,-0.027 -0.006,-0.055 -0.006,-0.082 0,-0.337 0.277,-0.613 0.613,-0.613 0.294,0 0.549,0.211 0.603,0.5 0.016,0.092 0.391,2.076 3.103,3.641 2.607,1.505 4.503,0.566 4.582,0.524 0.298,-0.153 0.669,-0.036 0.825,0.261 0.156,0.296 0.041,0.668 -0.254,0.825 -0.1,0.057 -2.545,1.314 -5.765,-0.546 z" style="fill:#2f2f2f;fill-rule:nonzero" id="path114"/>
            <path d="m 67.769,57.443 c -10.254,-5.92 -17.134,5.435 -18.448,7.711 -1.314,2.276 2.321,6.833 8.119,10.18 5.799,3.348 11.562,4.216 12.875,1.941 1.314,-2.276 7.71,-13.911 -2.546,-19.832 z" style="fill:none;fill-rule:nonzero" id="path116"/>
            <g id="g120">
                <path d="m 51.034,73.158 c 0.646,0.664 1.735,0.841 2.18,0.117 l 1.511,-2.368 c 0.026,-0.038 1.7,-2.535 1.157,-4.699 l -0.007,-0.032 c -0.304,-1.66 -0.264,-2.687 0.113,-4.32 0.123,-0.54 0.038,-1.164 -0.576,-1.426 -0.435,-0.186 -0.926,-0.24 -1.649,1.073 -0.84,1.529 -1.408,3.206 -1.41,4.61 -0.005,1.96 -1.196,3.515 -1.726,4.646 -0.335,0.709 -0.289,1.727 0.407,2.399 z m 11.493,6.635 c -0.898,-0.227 -1.596,-1.082 -1.191,-1.829 l 1.295,-2.493 c 0.02,-0.041 1.345,-2.74 3.49,-3.351 l 0.032,-0.01 c 1.589,-0.566 2.459,-1.115 3.684,-2.257 0.407,-0.378 0.99,-0.616 1.524,-0.215 0.378,0.284 0.67,0.683 -0.105,1.964 -0.904,1.493 -2.073,2.823 -3.287,3.526 -1.696,0.985 -2.446,2.794 -3.16,3.819 -0.447,0.644 -1.352,1.113 -2.282,0.846 z" style="fill:#e48c15;fill-rule:nonzero" id="path118"/>
            </g>
        </g>
    </g>
</svg>
