<?xml version='1.0' encoding='UTF-8'?>
<svg xmlns="http://www.w3.org/2000/svg" version="1.1" id="svg21" viewBox="0 0 128 128">
  <defs id="defs3">
    <path id="a" d="M0 0h128v128H0z"/>
  </defs>
  <path fill="#006ca2" d="M49.35 61.8h25.57L106.89 0H81.32z" id="path5"/>
  <path fill="#2f2f2f" d="M78.12 55.62L65.33 30.9 52.55 55.62l3.2 6.18h19.17z" id="path7"/>
  <path d="M76.97 76.72H51.39V61.8h25.57v14.92zm0-21.31H51.39c-3.53 0-6.39 2.86-6.39 6.39v14.92c0 3.53 2.86 6.39 6.39 6.39h25.57c3.53 0 6.39-2.86 6.39-6.39V61.8a6.374 6.374 0 0 0-6.38-6.39" fill="#ceced2" id="path9"/>
  <path d="M96.15 95.9c0 17.66-14.31 31.97-31.97 31.97-17.65 0-31.97-14.31-31.97-31.97 0-17.66 14.31-31.97 31.97-31.97 17.66 0 31.97 14.32 31.97 31.97" fill="#ceced2" id="path11"/>
  <path d="M42.75 88.12c-.42 0-.84-.08-1.24-.26-1.54-.66-2.28-2.45-1.68-4.01.01-.02.02-.05.02-.07.01-.05.01-.04.04-.08a22.774 22.774 0 0 1 15.87-13.36c.35-.08.72.09.88.42.16.33.07.72-.22.95-4.67 3.71-8.4 8.71-10.78 14.46 0 .01-.01.02-.01.02 0 .01 0 .01-.01.02-.33.77-.94 1.36-1.72 1.67-.36.17-.76.24-1.15.24" fill="#fff" id="path13"/>
  <path fill="#006ca2" d="M77.06 61.8H51.48L19.52 0h25.57z" id="path15"/>
  <g aria-label="2" id="text19" style="line-height:1.25;fill:#77a2ad">
    <path d="m 54.756001,109.095 h 14.4 c 1,0 1.92,-0.84 1.92,-1.88 0,-1.08 -0.92,-1.92 -1.92,-1.92 h -10.44 c 0.56,-3.48 3.08,-5.24 5.56,-6.839999 3.08,-1.96 6.48,-4.24 6.48,-8.72 0,-3.88 -3.2,-7.04 -7.76,-7.04 -3.28,0 -5.72,1.76 -7.12,3.12 -1,0.96 -1.28,1.44 -1.28,2.08 0,0.96 0.76,1.96 1.92,1.96 0.92,0 1.28,-0.44 1.68,-0.88 0.28,-0.32 2.2,-2.44 4.8,-2.44 2.2,0 3.92,1.32 3.92,3.2 0,2.44 -2.12,3.76 -5.04,5.68 -3.4,2.16 -7.12,4.879999 -7.12,11.799999 z" id="path25"/>
  </g>
</svg>
