<?xml version="1.0" encoding="UTF-8"?>
<svg width="128" height="128" version="1.1" viewBox="0 0 128 128" xmlns="http://www.w3.org/2000/svg">
 <path d="m122.12 15.28c-1.06 1.55-3.43 3.99-4.66 5.71-1.23 1.71-2.36 3.37-3.41 4.97s-2.03 3.16-2.94 4.68-1.77 3-2.57 4.45-1.56 2.88-2.28 4.3-1.4 2.82-2.04 4.22c-0.65 1.4-1.26 2.8-1.85 4.21s-1.16 2.84-1.7 4.28-1.06 2.92-1.56 4.42c-0.5 1.51-0.97 3.05-1.42 4.64s-0.87 3.22-1.27 4.92c-0.4 1.69-0.76 3.44-1.09 5.26-2.47-0.61-4.65-1.12-6.69-1.57s-3.93-0.85-5.84-1.24a293.82 293.82 0 0 0-12.89-2.3c0.34-1.84 0.71-3.61 1.11-5.33s0.82-3.38 1.26-5 0.91-3.19 1.39-4.73 0.99-3.04 1.51-4.51 1.07-2.92 1.63-4.36 1.15-2.85 1.76-4.27c0.61-1.41 1.25-2.82 1.91-4.24s1.36-2.84 2.1-4.27c0.73-1.44 1.5-2.89 2.32-4.37a159.9 159.9 0 0 1 5.55-9.29c1.05-1.63 2.17-3.31 3.38-5.04s2.5-3.52 3.9-5.38c2.47 0.94 4.6 1.78 6.57 2.58a287.15 287.15 0 0 1 10.97 4.73c1.89 0.86 4.12 1.34 6.85 2.53z" fill="#e1e1e1"/>
 <g transform="rotate(-61.307)" fill="#51004e" aria-label="The Blob is here to stay!">
  <path d="m-32.104 102.14c0.12001 0 0.21334-0.1 0.21334-0.21334v-3.8735h1.2601c0.12001 0 0.20668-0.09334 0.20668-0.20668 0-0.12001-0.08667-0.21334-0.20668-0.21334h-2.9401c-0.11334 0-0.21334 0.09334-0.21334 0.21334 0 0.11334 0.1 0.20668 0.21334 0.20668h1.2601v3.8735c0 0.11334 0.09334 0.21334 0.20668 0.21334z"/>
  <path d="m-29.63 102.15c0.11334 0 0.20668-0.08 0.20668-0.22001v-1.0801c0-0.22001 0.02-0.41335 0.1-0.57336 0.1-0.21334 0.6067-1.0667 1.1534-1.0667 0.22668 0 0.51336 0.20668 0.51336 1.8934 0 0.40669-0.01333 0.7267-0.01333 0.84004 0 0.10667 0.1 0.20001 0.20668 0.20001 0.11334 0 0.19334-0.0867 0.20001-0.20001 0.02-0.22668 0.02-0.44669 0.02-0.88671 0-1.5067-0.22001-2.2601-0.89338-2.2601-0.52669 0-1.0401 0.52003-1.2867 1.0267v-2.0468c0-0.11334-0.08-0.21334-0.20668-0.21334-0.12001 0-0.21334 0.1-0.21334 0.21334v4.1669c0 0.10667 0.1 0.20668 0.21334 0.20668z"/>
  <path d="m-24.824 102.14c0.40669 0 0.86671-0.21334 1.1001-0.48002 0.02667-0.0333 0.05334-0.0867 0.05334-0.13334 0-0.11334-0.08667-0.20001-0.20001-0.20001-0.05334 0-0.10667 0.0267-0.13334 0.0667-0.18001 0.19334-0.53336 0.36001-0.82671 0.36001-0.51336 0-0.90004-0.22001-1.1267-0.64669l2.0668-1.1801c0.11334-0.06667 0.16001-0.14001 0.16001-0.21334 0-0.29335-0.39335-0.90004-1.2534-0.90004-0.90671 0-1.5001 0.82004-1.5001 1.7268 0 0.86004 0.65337 1.6001 1.6601 1.6001zm-1.2601-1.4067c-0.01333-0.08-0.01333-0.14-0.01333-0.21334 0.01333-0.7267 0.46669-1.3134 1.1201-1.3134 0.46002 0 0.71337 0.16001 0.83338 0.45336z"/>
  <path d="m-20.397 102.15c2.0201 0 3.0002-0.51335 3.0002-1.3867 0-0.54003-0.29335-0.90005-0.83338-1.1001 0.22668-0.16668 0.44002-0.46002 0.44002-0.93338 0-0.52003-0.45336-1.1134-1.4667-1.1134h-1.2001c-0.11334 0-0.21334 0.1-0.21334 0.21334v4.0669c0 0.16667 0.08 0.25334 0.27335 0.25334zm0.16001-2.6001v-1.5267h0.98005c0.66003 0 1.0467 0.31335 1.0467 0.7267 0 0.40002-0.32668 0.80004-0.77337 0.80004zm0 2.2001v-1.7934h1.3134c0.67337 0 1.1001 0.33335 1.1001 0.80671 0 0.6867-1.1067 0.98005-2.4135 0.98671z"/>
  <path d="m-16.356 102.14c0.1 0 0.20668-0.0867 0.20668-0.18668v-4.1935c0-0.11334-0.1-0.20001-0.20668-0.20001-0.12001 0-0.21334 0.08667-0.21334 0.20001v4.1935c0 0.10001 0.10667 0.18668 0.21334 0.18668z"/>
  <path d="m-13.97 102.14c0.84004 0 1.5534-0.82004 1.5534-1.8001 0-0.85338-0.5867-1.5267-1.3467-1.5267-0.90004 0-1.5601 0.89338-1.5601 1.7934 0 0.86004 0.5867 1.5334 1.3534 1.5334zm0.02667-0.38002c-0.49336 0-0.94671-0.45335-0.94671-1.1667 0-0.72671 0.49336-1.4001 1.0934-1.4001 0.54003 0 0.95338 0.55336 0.95338 1.1801 0 0.74003-0.52003 1.3867-1.1001 1.3867z"/>
  <path d="m-11.376 102.14c0.11334 0 0.20001-0.0933 0.20001-0.18001v-0.0533c0.20001 0.0867 0.55336 0.18667 0.88004 0.18667 1.0067 0 1.4534-0.75337 1.4534-1.7601 0-0.90671-0.47336-1.4667-1.1667-1.4667-0.44669 0-0.87338 0.18668-1.1601 0.51336v-1.6334c0-0.11334-0.1-0.18668-0.20001-0.18668-0.11334 0-0.21334 0.07334-0.21334 0.18668v4.2002c0 0.10667 0.1 0.19334 0.20668 0.19334zm1.0267-0.44669c-0.35335 0-0.70004-0.11334-0.82004-0.16667v-1.3401c0-0.50002 0.50669-0.90004 1.1534-0.90004 0.46002 0 0.77337 0.37335 0.77337 1.0467 0 0.82004-0.29335 1.3601-1.1067 1.3601z"/>
  <path d="m-5.5293 98.286c0.10667 0 0.20668-0.08 0.20668-0.20001l0.00667-0.27335c0-0.1-0.093338-0.20668-0.20001-0.20668s-0.21334 0.09334-0.21334 0.20001l-0.00667 0.27335c0 0.11334 0.093338 0.20668 0.20668 0.20668zm-0.040002 3.8535c0.11334 0 0.21334-0.1 0.21334-0.21334l0.040002-2.8935c0-0.12001-0.093338-0.22001-0.21334-0.22001-0.11334 0-0.22001 0.1-0.22001 0.22001l-0.040002 2.8935c0 0.11334 0.1 0.21334 0.22001 0.21334z"/>
  <path d="m-3.4225 102.15c0.7067 0 1.1467-0.50002 1.1467-0.98671 0-0.50669-0.26668-0.70004-1.0267-0.95338-0.52669-0.17334-0.76004-0.30002-0.76004-0.5867 0-0.28001 0.26668-0.44669 0.75337-0.44669 0.45336 0 0.6467 0.15334 0.6467 0.38669 0 0.06-0.020001 0.09334-0.020001 0.14667 0 0.1 0.086671 0.18668 0.20668 0.18668 0.12667 0 0.20668-0.10667 0.20668-0.32668 0-0.46002-0.36668-0.76004-1.0401-0.76004-0.76004 0-1.1467 0.34002-1.1467 0.80671 0 0.4867 0.31335 0.7467 1.0201 0.96672 0.63336 0.18668 0.7667 0.33335 0.7667 0.60003 0 0.31335-0.30002 0.5867-0.73337 0.5867-0.43335 0-0.7267-0.20668-0.85338-0.56003-0.026668-0.0933-0.093338-0.14001-0.18668-0.14001-0.11334 0-0.20001 0.0867-0.20001 0.20001 0 0.26001 0.39335 0.88004 1.2201 0.88004z"/>
  <path d="m0.93769 102.15c0.11334 0 0.20668-0.08 0.20668-0.22001v-1.0801c0-0.22001 0.020001-0.41335 0.1-0.57336 0.1-0.21334 0.6067-1.0667 1.1534-1.0667 0.22668 0 0.51336 0.20668 0.51336 1.8934 0 0.40669-0.013334 0.7267-0.013334 0.84004 0 0.10667 0.1 0.20001 0.20668 0.20001 0.11334 0 0.19334-0.0867 0.20001-0.20001 0.020001-0.22668 0.020001-0.44669 0.020001-0.88671 0-1.5067-0.22001-2.2601-0.89338-2.2601-0.52669 0-1.0401 0.52003-1.2867 1.0267v-2.0468c0-0.11334-0.080004-0.21334-0.20668-0.21334-0.12001 0-0.21334 0.1-0.21334 0.21334v4.1669c0 0.10667 0.1 0.20668 0.21334 0.20668z"/>
  <path d="m5.7446 102.14c0.40669 0 0.86671-0.21334 1.1001-0.48002 0.026668-0.0333 0.053336-0.0867 0.053336-0.13334 0-0.11334-0.086671-0.20001-0.20001-0.20001-0.053336 0-0.10667 0.0267-0.13334 0.0667-0.18001 0.19334-0.53336 0.36001-0.82671 0.36001-0.51336 0-0.90004-0.22001-1.1267-0.64669l2.0668-1.1801c0.11334-0.06667 0.16001-0.14001 0.16001-0.21334 0-0.29335-0.39335-0.90004-1.2534-0.90004-0.90671 0-1.5001 0.82004-1.5001 1.7268 0 0.86004 0.65337 1.6001 1.6601 1.6001zm-1.2601-1.4067c-0.013334-0.08-0.013334-0.14-0.013334-0.21334 0.013334-0.7267 0.46669-1.3134 1.1201-1.3134 0.46002 0 0.71337 0.16001 0.83337 0.45336z"/>
  <path d="m7.8514 102.14c0.10667 0 0.20668-0.0933 0.20668-0.19334l0.00667-1.4734c0-0.22668 0.086671-0.52669 0.22668-0.7067 0.22668-0.30002 0.51336-0.56003 0.81337-0.56003 0.18001 0 0.22668 0.08667 0.22668 0.19334v0.15334c0 0.1 0.046669 0.20668 0.19334 0.20668 0.12001 0 0.20668-0.08667 0.20668-0.20001v-0.21334c0-0.25335-0.12001-0.55336-0.55336-0.55336-0.55336 0-0.91338 0.43336-1.1134 0.78671v-0.5667c0-0.11334-0.093338-0.20001-0.21334-0.20001-0.11334 0-0.21334 0.08667-0.21334 0.20001v2.9335c0 0.1 0.10667 0.19334 0.21334 0.19334z"/>
  <path d="m11.605 102.14c0.40669 0 0.86671-0.21334 1.1001-0.48002 0.02667-0.0333 0.05334-0.0867 0.05334-0.13334 0-0.11334-0.08667-0.20001-0.20001-0.20001-0.05334 0-0.10667 0.0267-0.13334 0.0667-0.18001 0.19334-0.53336 0.36001-0.82671 0.36001-0.51336 0-0.90004-0.22001-1.1267-0.64669l2.0668-1.1801c0.11334-0.06667 0.16001-0.14001 0.16001-0.21334 0-0.29335-0.39335-0.90004-1.2534-0.90004-0.90671 0-1.5001 0.82004-1.5001 1.7268 0 0.86004 0.65337 1.6001 1.6601 1.6001zm-1.2601-1.4067c-0.01333-0.08-0.01333-0.14-0.01333-0.21334 0.01333-0.7267 0.46669-1.3134 1.1201-1.3134 0.46002 0 0.71337 0.16001 0.83338 0.45336z"/>
  <path d="m16.105 102.15c0.10667 0 0.20668-0.0933 0.20668-0.20001v-2.7201h0.7467c0.12001 0 0.21334-0.1 0.21334-0.21334 0-0.12001-0.09334-0.20668-0.21334-0.20668h-0.7467v-0.91338c0-0.11334-0.08-0.21334-0.20668-0.21334-0.12001 0-0.21334 0.1-0.21334 0.21334v0.91338h-0.72004c-0.12001 0-0.22668 0.08-0.22668 0.20668 0 0.11334 0.09334 0.21334 0.21334 0.21334h0.73337v2.7201c0 0.10667 0.1 0.20001 0.21334 0.20001z"/>
  <path d="m18.579 102.14c0.84004 0 1.5534-0.82004 1.5534-1.8001 0-0.85338-0.5867-1.5267-1.3467-1.5267-0.90004 0-1.5601 0.89338-1.5601 1.7934 0 0.86004 0.5867 1.5334 1.3534 1.5334zm0.02667-0.38002c-0.49336 0-0.94671-0.45335-0.94671-1.1667 0-0.72671 0.49336-1.4001 1.0934-1.4001 0.54003 0 0.95338 0.55336 0.95338 1.1801 0 0.74003-0.52003 1.3867-1.1001 1.3867z"/>
  <path d="m24.045 102.15c0.7067 0 1.1467-0.50002 1.1467-0.98671 0-0.50669-0.26668-0.70004-1.0267-0.95338-0.52669-0.17334-0.76004-0.30002-0.76004-0.5867 0-0.28001 0.26668-0.44669 0.75337-0.44669 0.45336 0 0.6467 0.15334 0.6467 0.38669 0 0.06-0.02 0.09334-0.02 0.14667 0 0.1 0.08667 0.18668 0.20668 0.18668 0.12667 0 0.20668-0.10667 0.20668-0.32668 0-0.46002-0.36668-0.76004-1.0401-0.76004-0.76004 0-1.1467 0.34002-1.1467 0.80671 0 0.4867 0.31335 0.7467 1.0201 0.96672 0.63336 0.18668 0.7667 0.33335 0.7667 0.60003 0 0.31335-0.30002 0.5867-0.73337 0.5867s-0.7267-0.20668-0.85338-0.56003c-0.02667-0.0933-0.09334-0.14001-0.18668-0.14001-0.11334 0-0.20001 0.0867-0.20001 0.20001 0 0.26001 0.39335 0.88004 1.2201 0.88004z"/>
  <path d="m26.346 102.15c0.10667 0 0.20668-0.0933 0.20668-0.20001v-2.7201h0.7467c0.12001 0 0.21334-0.1 0.21334-0.21334 0-0.12001-0.09334-0.20668-0.21334-0.20668h-0.7467v-0.91338c0-0.11334-0.08-0.21334-0.20668-0.21334-0.12001 0-0.21334 0.1-0.21334 0.21334v0.91338h-0.72004c-0.12001 0-0.22668 0.08-0.22668 0.20668 0 0.11334 0.09334 0.21334 0.21334 0.21334h0.73337v2.7201c0 0.10667 0.1 0.20001 0.21334 0.20001z"/>
  <path d="m29.872 102.19c0.12001 0 0.20668-0.10001 0.20668-0.22001v-2.8868c-0.11334-0.05334-0.52669-0.27335-1.0134-0.27335-1.0334 0-1.6001 1.0134-1.6001 1.8868 0 0.86004 0.54003 1.4401 1.2601 1.4401 0.35335 0 0.7067-0.15334 0.94005-0.35335v0.18668c0 0.12 0.06667 0.22001 0.20668 0.22001zm-1.1467-0.44669c-0.48669 0-0.83338-0.40669-0.83338-1.0601 0-0.85337 0.52003-1.4801 1.1867-1.4801 0.21334 0 0.47336 0.08 0.59336 0.13334l-0.02667 2.0201c-0.15334 0.15334-0.53336 0.38669-0.92005 0.38669z"/>
  <path d="m31.432 103.43c0.09334 0 0.16001-0.06 0.20001-0.13334l1.9268-4.2002c0.02-0.03334 0.02-0.05334 0.02-0.09334 0-0.12001-0.09334-0.20668-0.20668-0.20668-0.1 0-0.16667 0.06667-0.20001 0.13334l-1.0467 2.2868-1.1334-2.2734c-0.03333-0.07334-0.10667-0.14001-0.20001-0.14001-0.12001 0-0.21334 0.09334-0.21334 0.21334 0 0.04 0.01333 0.08 0.02667 0.11334l1.2934 2.5801-0.6467 1.4134c-0.02 0.0333-0.02667 0.0667-0.02667 0.0933 0 0.11334 0.09334 0.21335 0.20668 0.21335z"/>
  <path d="m34.433 101.11c0.12001 0 0.21334-0.0933 0.21334-0.21335v-3.1335c0-0.11334-0.09334-0.22001-0.21334-0.22001-0.12001 0-0.22001 0.10667-0.22001 0.22001v3.1335c0 0.12001 0.1 0.21335 0.22001 0.21335zm-0.06 1.0334c0.14001 0 0.28668-0.14001 0.28668-0.33335 0-0.14001-0.09334-0.26001-0.23334-0.26001-0.15334 0-0.29335 0.15334-0.29335 0.32668 0 0.14667 0.1 0.26668 0.24001 0.26668z"/>
 </g>
 <path d="M39.621 30.629c-2.96-.025-6.03.077-8.82.752-2.92.71-4.75 1.73-5.75 2.95-4.61 5.62 8.178 15.54 12.808 19.3 4.95 4.02 10.712 8.22 16.272 12.02 1.68 1.15 3.349 2.27 4.959 3.33l-.022.005c-.016 0-.032.004-.048.004l-12.8 3.3c-16.2 4.57-38.4 5.26-42.46 13.38-6.27 12.54 13.34 24.37 21.86 28.58 19.76 9.77 42.29 11.73 62.46 1.84 5.24-2.57 9.85-5.72 13.91-9.86 12.33-14.38 15.21-26.12 12.09-40.35-8.83-28.21-45.07-34.64-71.55-35.2-.948-.02-1.922-.043-2.909-.051zm48.77 29.611c.69.1 1.44.23 1.91.76-.47-.52-1.22-.66-1.91-.76z" fill="#e39300"/>
 <path d="M38.252 50.598c-1.3.006-2.576.075-3.816.213a250.65 250.65 0 0 0 3.423 2.82c4.95 4.02 10.712 8.22 16.272 12.02 1.68 1.15 3.349 2.27 4.959 3.33 0 0 10.424-4.727 24.049-4.524 0 0-25.29-13.953-44.887-13.86z" fill-opacity=".372" fill-rule="evenodd" stroke-linecap="round" stroke-linejoin="round" stroke-width="3.78"/>
 <path d="M87.852 35.564c-5.026-.067-8.327.446-8.375.454a.117.117 0 0 0-.004.01c8.56 2.648 16.514 6.503 22.812 12.005.03-.07.055-.143.084-.213.59-1.41 1.202-2.81 1.852-4.21.64-1.4 1.319-2.8 2.039-4.22.123-.242.263-.49.388-.734l-.011-.004c-6.93-2.362-13.723-3.02-18.785-3.088z" fill-opacity=".406" fill-rule="evenodd" stroke-linecap="round" stroke-linejoin="round" stroke-width="3.78"/>
</svg>
