<?xml version="1.0" encoding="UTF-8"?>
<svg clip-rule="evenodd" fill-rule="evenodd" stroke-miterlimit="10" version="1.1" viewBox="0 0 128 128" xml:space="preserve" xmlns="http://www.w3.org/2000/svg"><g transform="matrix(.24045 0 0 .24045 -.12 -.63796)"><path d="m266.67 40.083c-260.04 0-266.17 291.5-266.17 349.17 0 57.75 119.12 104.5 266.17 104.5 147 0 266.17-46.75 266.17-104.5 0-57.667-6.166-349.17-266.17-349.17z" fill="#fcc21b" fill-rule="nonzero"/><path d="m176.56 254.1c-18.708 0.15-34.041-16.025-34.25-36.1-0.208-20.15 14.792-36.583 33.5-36.733 18.667-0.15 34.042 16.021 34.25 36.171 0.209 20.112-14.833 36.512-33.5 36.662zm183.79 0c18.667-0.041 33.792-16.362 33.75-36.437-0.042-20.15-15.25-36.396-33.917-36.359-18.708 0.038-33.875 16.359-33.833 36.509 0.042 20.075 15.292 36.325 34 36.287z" fill="#2f2f2f" fill-rule="nonzero"/><g fill-rule="nonzero"><path d="m305.58 336.07c0 13.708-17.416 19.491-38.916 19.491s-38.917-5.783-38.917-19.491 17.417-30.154 38.917-30.154 38.916 16.45 38.916 30.154z" fill="#ed6c30"/><path d="m142.97 359.14c12.943-6.51 25.42 7.553 33.871 27.846 3.574 8.584 11.808 25.275 11.808 25.275 5.333 11.416-2.983 15.67-12.179 27.308l-1.783 2.258c-9.196 11.638-25.98-1.096-30.667-12.791l-11.008-27.492c-4.688-11.708-8.021-33.363 9.958-42.404z" fill="#fcc21b" stroke="#212121" stroke-width="12.5px"/><path d="m297.7 464.76c5.521-0.25-3.584-9.588-3.459-13.817 0.242-8.896 0.288-123.16 0.617-135.41 0.236-8.76-1.674-32.813-20.598-32.813-16.158 0-22.358 7.382-23.602 41.513-0.856 23.501-2.687 86.691-6.587 95.462-2.771 6.233-27.7 10.888-23.992 15.933 6.75 9.175 37.033 7.084 46.558 13.271 9.875 6.413 19.492 16.392 31.063 15.859z" fill="#fcc21b" stroke="#212121" stroke-linecap="round" stroke-linejoin="round" stroke-width="12.5px"/><path d="m173.85 515.04c-2.733-0.334-6.342-2.992-6.342-5.292l-1.058-28.875c0-2.292 4.704-6.888 7.475-7.217 3.354-0.4 8.421 3.9 8.421 6.638l-1.059 29.166c-0.033 2.696-4.116 5.98-7.437 5.58z" fill="#eda600"/><path d="m284.83 407.56c-40.833-28.583-83.054-33.212-119.04-9.004-27.375 18.45-41.266 28.621-49.141 52.575-8.609 26.321 5.833 36.967 6.233 48.45 0.692 20.75 24.1 28.584 24.9 31.834 2.954 11.666-4.996 34.525 18.667 61.575 33.908 38.754 112.88 18.595 132.85-4.155 24.975-28.333 40.875-142.52-14.471-181.28z" fill="#fcc21b" stroke="#212121" stroke-width="12.5px"/><path d="m196.96 424.88c-29.625 15.383-77.354 51.5-70.583 76.783 2.65 9.888 5.033 16.846 17.979 20.054" fill="#fcc21b" stroke="#212121" stroke-linecap="round" stroke-linejoin="round" stroke-width="8.33px"/></g><g fill="none"><path d="m136.8 434.83c-2.696 0-18.046 70.834-18.046 70.834l42.4 53.487 49.146-26.941 21.95-77.73 15.933-2.408-0.983-6.962 5.688-28.33-104.35-4.558z"/><path d="m231.56 458.09c-43.971 2.112-97.738 49.083-76.821 80.283 11.916 17.767 50.691-29.667 72.666-25.596-18.666 9.7-20.75 51.917-1.387 60.888" stroke="#212121" stroke-linecap="round" stroke-linejoin="round" stroke-width="8.33px"/><path d="m139.5 488.53 51.483-47.87 88.559 14.695 13.962 13.05-7.729 12.25-44.479 19.98c3.937 0.912 23.954 115.64-27.746 103.83-15.204-3.458-83.488-57.708-83.488-57.708z"/></g></g></svg>
