<?xml version="1.0" encoding="UTF-8" standalone="no"?>
<svg
   version="1.1"
   xml:space="preserve"
   style="fill-rule:evenodd;clip-rule:evenodd;stroke-linejoin:round;stroke-miterlimit:2;"
   viewBox="0 0 128 128"
   id="svg29"
   sodipodi:docname="emoji_u1face.svg"
   inkscape:version="1.4.2 (f4327f4, 2025-05-13)"
   xmlns:inkscape="http://www.inkscape.org/namespaces/inkscape"
   xmlns:sodipodi="http://sodipodi.sourceforge.net/DTD/sodipodi-0.dtd"
   xmlns:xlink="http://www.w3.org/1999/xlink"
   xmlns="http://www.w3.org/2000/svg"
   xmlns:svg="http://www.w3.org/2000/svg"><defs
   id="defs29"><inkscape:path-effect
   effect="perspective-envelope"
   up_left_point="14.128426,7.4302621"
   up_right_point="59.313609,7.4302621"
   down_left_point="14.128426,63.236517"
   down_right_point="59.313609,58.501113"
   id="path-effect30"
   is_visible="true"
   lpeversion="1"
   deform_type="perspective"
   horizontal_mirror="false"
   vertical_mirror="false"
   overflow_perspective="false" /><clipPath
   clipPathUnits="userSpaceOnUse"
   id="clipPath23"><path
     id="path24"
     style="fill:#fcc21b;fill-opacity:1;stroke:none;stroke-width:9.07088;stroke-linecap:round;stroke-opacity:1"
     d="m 46.129598,80.476975 c 0.03574,15.092438 2.02057,19.624215 1.996588,29.362105 -0.01763,7.15934 -1.851366,8.90924 -1.655904,11.5723 0.117593,1.60213 2.022899,1.74675 4.033088,1.74675 4.696298,0 4.679797,-1.3217 5.212733,-3.54844 2.361109,-9.86537 0.972206,-43.189374 0.972206,-43.189374 z m 31.397737,0 c 1.041494,15.092438 3.32832,19.624215 3.953267,29.362105 0.459467,7.15934 -1.257658,8.90924 -0.884731,11.5723 0.224357,1.60213 2.139302,1.74675 4.149491,1.74675 4.696299,0 4.59172,-1.3217 4.976266,-3.54844 1.703685,-9.86537 -1.905917,-43.189374 -1.905917,-43.189374 z"
     clip-path="none"
     sodipodi:nodetypes="csssscccsssscc" /></clipPath><clipPath
   clipPathUnits="userSpaceOnUse"
   id="clipPath28"><path
     style="opacity:1;fill:#edf0c7;fill-opacity:1;stroke:none;stroke-width:4.271;stroke-linecap:round"
     d="m 46.030136,50.626919 c -12.347542,5.486124 -15.458563,12.066445 -13.477905,21.512027 1.980657,9.445581 9.159839,15.720715 23.158781,13.090332 4.842814,-1.148022 67.839178,-5.928695 65.426818,-11.756174 -2.05552,-4.965495 43.3311,-90.900084 22.91557,-94.95761 -18.70724,-3.718005 -98.023264,72.111425 -98.023264,72.111425 z"
     id="path28"
     sodipodi:nodetypes="czcssc" /></clipPath>
    
    
  
    
    
  <clipPath
   clipPathUnits="userSpaceOnUse"
   id="clipPath53"><path
     id="path54"
     style="clip-rule:evenodd;fill:#855c52;fill-rule:evenodd;stroke-width:1;stroke-linejoin:round;stroke-miterlimit:2"
     d="m 63.486106,33.973462 c -22.01909,2e-6 -27.942337,14.12408 -27.942337,27.284644 0,13.160563 5.971535,18.283945 4.584212,26.823182 -1.387324,8.539238 -1.234885,28.029422 23.249448,28.029422 24.484333,0 24.012419,-20.378663 22.964349,-28.029422 -1.048082,-7.650759 6.114227,-14.584791 6.114227,-26.823182 0,-12.238392 -6.95081,-27.284646 -28.969899,-27.284644 z"
     sodipodi:nodetypes="zzzzzzz" /></clipPath></defs><sodipodi:namedview
   id="namedview29"
   pagecolor="#ffffff"
   bordercolor="#000000"
   borderopacity="0.25"
   inkscape:showpageshadow="2"
   inkscape:pageopacity="0.0"
   inkscape:pagecheckerboard="0"
   inkscape:deskcolor="#d1d1d1"
   inkscape:zoom="4.8373046"
   inkscape:cx="63.465096"
   inkscape:cy="62.741553"
   inkscape:window-width="1366"
   inkscape:window-height="697"
   inkscape:window-x="-8"
   inkscape:window-y="-8"
   inkscape:window-maximized="1"
   inkscape:current-layer="svg29" />
  
  
  
  
  
  
  
  
  
<g
   id="g51"
   transform="rotate(-45,52.796321,48.248756)"><g
     transform="matrix(0.92140269,0.53197242,-0.53197242,0.92140269,44.831235,-31.536401)"
     id="g1"
     style="stroke-width:0.670547">
      <path
   d="M 43.12,56.15 C 36.8,56.89 34.69,50.98 29.61,48.48 23.45,45.45 15.65,45.47 9.12,46.98 c -3.07,0.48 2.44,17.2 10,20.88 4.15,2.02 8.73,1.3 13.15,1.04 3.89,-0.22 7.27,0.4 10.87,1.87"
   style="fill:#855c52;fill-rule:nonzero;stroke-width:0.670547"
   id="path1" />
    </g><path
     d="m 31.012467,28.4509 c 2.499315,-0.568612 5.421766,3.866542 7.548611,7.618198 1.024966,1.807324 2.974675,4.015962 4.647041,5.453686 1.797019,1.539796 3.379423,2.374284 1.39253,5.041613 -1.55355,1.939528 -9.953544,-3.457446 -12.729978,-6.155833 C 28.386539,37.012527 29.127403,29.315345 31.012467,28.4509 Z"
     id="path22-9-9"
     style="clip-rule:evenodd;fill:#dba689;fill-opacity:1;fill-rule:evenodd;stroke-width:0.999995;stroke-linejoin:round;stroke-miterlimit:2" /></g><g
   id="g52"
   transform="rotate(45,75.203624,48.248618)"><g
     transform="matrix(0.92140269,-0.53197242,0.53197242,0.92140269,-34.770834,36.55593)"
     id="g3"
     style="stroke-width:0.670547">
      <path
   d="m 84.88,56.15 c 6.32,0.74 8.43,-5.17 13.51,-7.67 6.16,-3.03 13.96,-3.01 20.49,-1.5 3.07,0.48 -2.44,17.2 -10,20.88 -4.15,2.02 -8.73,1.3 -13.15,1.04 -3.89,-0.22 -7.27,0.4 -10.87,1.87"
   style="fill:#855c52;fill-rule:nonzero;stroke-width:0.670547"
   id="path2" />
      <path
   d="m 114.92,50.51 c -1.88,-1.31 -7.45,2.45 -11.85,5.73 -2.12,1.58 -5.34,3.31 -7.8,4.32 -2.64,1.08 -4.62,1.49 -4.59,4.83 0.12,2.46 11.27,-0.72 15.56,-2.72 5.39,-2.52 9.81,-10.72 8.68,-12.16 z"
   style="fill:#855c52;fill-rule:nonzero;stroke-width:0.670547"
   id="path3" />
    </g><path
     d="m 96.987472,28.4509 c -2.499315,-0.568612 -5.421765,3.866542 -7.54861,7.618198 -1.024966,1.807324 -2.974676,4.015962 -4.647042,5.453686 -1.797018,1.539796 -3.379423,2.374284 -1.392529,5.041613 1.55355,1.939528 9.953544,-3.457446 12.729978,-6.155833 3.484132,-3.396037 2.743267,-11.093219 0.858203,-11.957664 z"
     id="path47"
     style="clip-rule:evenodd;fill:#dba689;fill-opacity:1;fill-rule:evenodd;stroke-width:0.999995;stroke-linejoin:round;stroke-miterlimit:2" /></g><path
   id="path25-8-9"
   style="clip-rule:evenodd;fill:#855c52;fill-rule:evenodd;stroke-width:1;stroke-linejoin:round;stroke-miterlimit:2"
   d="m 63.486106,33.973462 c -22.01909,2e-6 -27.942337,14.12408 -27.942337,27.284644 0,13.160563 5.971535,18.283945 4.584212,26.823182 -1.387324,8.539238 -1.234885,28.029422 23.249448,28.029422 24.484333,0 24.012419,-20.378663 22.964349,-28.029422 -1.048082,-7.650759 6.114227,-14.584791 6.114227,-26.823182 0,-12.238392 -6.95081,-27.284646 -28.969899,-27.284644 z"
   sodipodi:nodetypes="zzzzzzz" /><ellipse
   cx="31.929981"
   cy="76.670006"
   rx="4.585217"
   ry="5.3247886"
   transform="matrix(0.96930742,-0.24585183,0.23677954,0.97156341,0,0)"
   fill="#2f2f2f"
   id="ellipse30-9"
   style="clip-rule:evenodd;fill-rule:evenodd;stroke-width:1.00002;stroke-linejoin:round;stroke-miterlimit:2" /><ellipse
   cx="-45.738647"
   cy="91.233009"
   rx="5.3247886"
   ry="4.585217"
   transform="matrix(0.23677954,-0.97156341,0.96930742,0.24585183,0,0)"
   fill="#2f2f2f"
   id="ellipse32-9"
   style="clip-rule:evenodd;fill-rule:evenodd;stroke-width:1.00002;stroke-linejoin:round;stroke-miterlimit:2" /><path
   id="path52"
   clip-path="url(#clipPath53)"
   style="fill:#6d4a41;stroke-width:3.1;stroke-linecap:round"
   d="m 94.818151,108.78477 c 3e-6,16.33009 -14.076488,29.56824 -31.440722,29.56824 -17.364233,0 -31.440724,-13.23815 -31.440721,-29.56824 0,-16.330083 10.355409,-29.568233 31.440721,-29.568234 21.085312,0 31.440722,13.238151 31.440722,29.568234 z"
   sodipodi:nodetypes="ssszs" /><path
   d="m 70.923489,102.20813 c -0.09881,0.13683 -2.39461,3.29924 -7.799594,3.29924 -5.366979,0 -7.670371,-3.13959 -7.776797,-3.29924 -0.532132,-0.76019 -1.573602,-0.96545 -2.348995,-0.44092 -0.773438,0.5242 -0.974408,1.57673 -0.448513,2.34901 0.129232,0.19766 3.314445,4.76641 10.574305,4.76641 7.267461,0 10.452672,-4.57635 10.589515,-4.76641 0.516924,-0.7678 0.32688,-1.80164 -0.440914,-2.33379 -0.760195,-0.52455 -1.816875,-0.3269 -2.349007,0.4257 z"
   style="clip-rule:evenodd;fill:#2f2f2f;fill-opacity:1;fill-rule:evenodd;stroke-width:1;stroke-linejoin:round;stroke-miterlimit:2"
   id="path1-1-7" /><path
   id="path50"
   style="fill:#2f2f2f;stroke-width:3.09999;stroke-linecap:round"
   d="m 54.861629,90.363854 a 3.8173927,2.5488414 67.662099 0 1 -0.630497,4.672254 3.8173927,2.5488414 67.662099 0 1 -3.863782,-2.231995 3.8173927,2.5488414 67.662099 0 1 0.630493,-4.672261 3.8173927,2.5488414 67.662099 0 1 3.863786,2.232002 z" /><use
   x="0"
   y="0"
   xlink:href="#path50"
   id="use51"
   transform="matrix(-1,0,0,1,125.99952,5.1285567e-8)"
   style="stroke-width:0.942077" /><path
   style="fill:#bf8f68;fill-opacity:1;stroke:none;stroke-width:3.10001;stroke-linecap:round;stroke-dasharray:none;stroke-opacity:1"
   d="m 42.02394,48.252062 c 0.884583,-2.56429 0.63626,-3.973935 -1.875117,-4.697896 -6.913782,-1.993052 -10.095191,-3.995912 -5.491833,-12.539421 3.446535,-6.396527 6.426346,-8.888308 6.808804,-11.037652 0.279727,-1.572001 -0.507958,-3.669719 -2.575294,-4.313055 -9.165803,-2.852313 -11.219499,16.564683 -15.795719,14.820009 -2.992352,-1.140828 -0.899896,-6.78571 2.873156,-12.37067 1.721762,-2.54859 1.688127,-6.163222 -1.954317,-6.761039 -7.103876,-1.165923 -9.820586,16.962344 -13.993075,15.797706 -1.394613,-0.389271 -1.4615206,-2.753631 0.08441,-6.825926 0.831512,-2.190364 3.342839,-5.58901 3.699917,-6.886429 C 14.329722,11.530687 12.915725,9.504643 11.055003,9.2588863 7.2325954,8.7540362 2.283344,15.698445 0.98388361,24.603577 -0.62900884,35.656642 3.3878279,39.919139 16.076288,45.357532 c 10.690795,4.582176 17.486374,6.890136 21.529408,7.061239 2.419664,0.102401 3.4033,-1.224518 4.418244,-4.166709 z"
   id="path51"
   sodipodi:nodetypes="ssssssssssssssss" /><use
   x="0"
   y="0"
   xlink:href="#path51"
   id="use52"
   transform="matrix(-1,0,0,1,127.10418,0)" /></svg>
