<?xml version="1.0" encoding="UTF-8"?>
<svg clip-rule="evenodd" fill-rule="evenodd" stroke-linejoin="round" stroke-miterlimit="2" version="1.1" viewBox="0 0 128 128" xml:space="preserve" xmlns="http://www.w3.org/2000/svg"><g transform="matrix(.24753 0 0 .24753 -2.0149 -2.0209)"><path d="m391.67 512.12c-1.5-1.625-2.834-3.417-4.042-5.292l-22.458-35.541c-1.24-2.005-1.897-4.316-1.897-6.673 0-6.96 5.728-12.688 12.688-12.688 4.309 0 8.334 2.196 10.667 5.819l22.458 35.542c1.959 3.083 5.125 5.166 8.792 5.625l2.75 0.375c17.667 2.375 35.292-3.167 48.375-15.25 13.083-12.084 20.042-29.209 19.042-47-0.215-4.13-2.507-7.882-6.084-9.959l-36.166-21.25c-3.876-2.269-6.265-6.436-6.265-10.927 0-2.268 0.61-4.495 1.765-6.448 2.269-3.875 6.436-6.264 10.927-6.264 2.268 0 4.495 0.609 6.448 1.764l36.166 21.25c10.904 6.378 17.884 17.844 18.542 30.459 1.375 25.375-8.542 49.791-27.167 67.041-18.56 17.198-43.885 25.201-68.958 21.792l-2.75-0.375c-8.768-1.237-16.841-5.48-22.833-12zm-354.71-388.88c-5.956-6.533-9.424-14.959-9.791-23.792l-0.084-2.791c-1.083-25.375 9.125-49.667 28-66.667s44.125-24.625 69.25-20.917c12.542 1.834 23.25 9.792 28.625 21.25l17.834 37.959c0.797 1.69 1.21 3.535 1.21 5.404 0 4.906-2.85 9.39-7.294 11.471-1.69 0.797-3.535 1.21-5.404 1.21-4.906 0-9.39-2.85-11.471-7.294l-17.833-37.958c-1.75-3.75-5.25-6.333-9.375-6.958-17.625-2.584-35.292 2.75-48.542 14.666-13.203 11.852-20.412 29.026-19.625 46.75l0.125 2.792c0.167 3.667 1.917 7 4.792 9.25l33.333 25.625c5.502 4.251 6.553 12.265 2.334 17.792-4.252 5.502-12.266 6.553-17.792 2.333l-33.333-25.625c-1.792-1.375-3.459-2.875-4.959-4.5z" fill="#77a3ae" fill-rule="nonzero"/><path d="m99.998 87.819c100.24-91.438 255.86-84.292 347.3 15.947s84.293 255.86-15.946 347.3c-100.24 91.438-255.86 84.292-347.3-15.947s-84.293-255.86 15.946-347.3z" fill="#77a3ae"/><path d="m119.35 109.03c88.533-80.76 225.98-74.449 306.74 14.084 80.76 88.534 74.449 225.98-14.085 306.74-88.533 80.76-225.98 74.449-306.74-14.084-80.76-88.534-74.449-225.98 14.085-306.74z" fill="#f09300"/><g fill-rule="nonzero"><path d="m401.79 418.71c-27.959 25.5-69.417 35.334-103.96 42.334-67.375 13.708-124.5 2.25-174.21-52.25-29.208-32.042-53.125-83.584-58.125-123.58-7.875-62.916 13.167-109.54 63.542-155.5 30.041-27.416 68.666-45.208 106.04-51.291 65.125-10.625 131.08 9.708 178.88 62.083 30.542 33.5 34.375 74.208 38.459 116.12 6 61.25-1.667 117.46-50.625 162.08z" fill="#ffb74d"/><path d="m83.75 226c2.292 2.75 3.75 5.75 1.417 7.125-2.167 1.25-5.042-0.792-7.25-3.583-1.917-2.375-3.125-5-1.334-6.459 2.125-1.833 4.709 0.5 7.167 2.917zm197.42-63.625c2.291 2.75 3.75 5.75 1.416 7.125-2.166 1.25-5.041-0.792-7.25-3.583-1.916-2.375-3.125-5-1.333-6.459 2.167-1.833 4.75 0.5 7.167 2.917zm-66.75-53.208c-2.625 2.416-5.542 4.041-7.042 1.75-1.375-2.125 0.542-5.084 3.208-7.417 2.292-2 4.834-3.375 6.417-1.667 1.917 2.084-0.292 4.792-2.583 7.334zm188.62 275.58c2.291 2.75 3.75 5.75 1.416 7.125-2.166 1.25-5.041-0.792-7.25-3.583-1.916-2.375-3.125-5-1.333-6.459 2.125-1.833 4.708 0.5 7.167 2.917zm2.416-181.08c1.709-3.125 3.917-5.625 6.084-3.959 1.958 1.542 1.125 5-0.584 8.084-1.5 2.666-3.458 4.75-5.5 3.666-2.541-1.375-1.333-4.625 0-7.791z" fill="#fada80"/><path d="m329.75 326.58c2.292 2.75 3.75 5.75 1.417 7.125-2.167 1.25-5.042-0.791-7.25-3.583-1.917-2.375-3.125-5-1.334-6.458 2.167-1.834 4.75 0.5 7.167 2.916z" fill="#f6ecbf"/><path d="m135.62 189c2.292 2.75 3.75 5.75 1.417 7.125-2.167 1.25-5.042-0.792-7.25-3.583-1.917-2.375-3.125-5-1.334-6.459 2.167-1.833 4.75 0.5 7.167 2.917zm92.417 245.71c2.291 2.75 3.75 5.75 1.416 7.125-2.166 1.25-5.041-0.791-7.25-3.583-1.916-2.375-3.125-5-1.333-6.458 2.167-1.834 4.75 0.5 7.167 2.916z" fill="#fada80"/><path d="m249.17 93.083c3.375 5.584-0.292 10-3 13.959-3.459 5.125-7.834 2.416-10.875-0.75-3.042-3.209-5.542-7.75-0.625-11.167 4.208-2.833 9.291-4.375 14.5-2.042zm155.79 259.92c3.375 5.583-0.291 10-3 13.958-3.458 5.125-7.833 2.417-10.875-0.75-3.041-3.208-5.541-7.75-0.625-11.166 4.167-2.834 9.25-4.375 14.5-2.042zm-92.583-1.292c-2.625 6-8.333 5.5-13.125 5.584-6.167 0.125-6.5-5-5.625-9.334 0.875-4.333 3.125-9 8.75-6.916 4.708 1.791 8.917 5.041 10 10.666zm-162.5-195.38c-2.625 6-8.333 5.5-13.125 5.584-6.167 0.125-6.5-5-5.625-9.334 0.875-4.333 3.125-9 8.75-6.916 4.708 1.791 8.875 5.041 10 10.666zm172.88 20.75c3.375 5.584-0.292 10-3 13.959-3.458 5.125-7.833 2.416-10.875-0.75-3.042-3.209-5.542-7.75-0.625-11.167 4.167-2.833 9.25-4.375 14.5-2.042z" fill="#689f38"/><path d="m417.58 166.42c3.375 5.583-0.291 10-3 13.958-3.458 5.125-7.833 2.417-10.875-0.75-3.041-3.208-5.541-7.75-0.625-11.167 4.167-2.833 9.25-4.375 14.5-2.041zm19.625 144.21c3.375 5.583-0.291 10-3 13.958-3.458 5.125-7.833 2.417-10.875-0.75-3.041-3.208-5.541-7.75-0.625-11.166 4.167-2.834 9.25-4.375 14.5-2.042zm-238.67 114.83c3.375 5.584-0.292 10-3 13.959-3.459 5.125-7.834 2.416-10.875-0.75-3.042-3.209-5.542-7.75-0.625-11.167 4.208-2.875 9.291-4.417 14.5-2.042zm-80.375-94.25c3.375 5.584-0.292 10-3 13.959-3.459 5.125-7.834 2.416-10.875-0.75-3.042-3.209-5.542-7.75-0.625-11.167 4.166-2.833 9.25-4.375 14.5-2.042zm-4.042-142.62c3.375 5.584-0.292 10-3 13.959-3.458 5.125-7.833 2.416-10.875-0.75-3.042-3.209-5.542-7.75-0.625-11.167 4.208-2.833 9.292-4.375 14.5-2.042zm177.04-94.958c3.375 5.583-0.292 10-3 13.958-3.459 5.125-7.834 2.417-10.875-0.75-3.042-3.208-5.542-7.75-0.625-11.166 4.208-2.875 9.291-4.417 14.5-2.042z" fill="#e64a19"/><path d="m263.62 426.21c6.833 2.125 7 8.375 7.667 13.584 0.875 6.666-4.625 7.625-9.459 7.25-4.833-0.417-10.166-2.334-8.583-8.667 1.375-5.375 4.417-10.292 10.375-12.167zm170.04-208.12c6.833 2.125 7 8.375 7.666 13.584 0.875 6.666-4.625 7.625-9.458 7.25-4.833-0.417-10.167-2.334-8.583-8.667 1.375-5.375 4.416-10.292 10.375-12.167zm-293.88 160.46c4.666 0.208 6.25 2.5 5.041 7.041-1.083 4.084-1.166 9.584-7.416 7.667-4.584-1.375-10.584-3.917-8.959-10 1.209-4.458 7.084-4.083 11.334-4.708zm63.791-130.5c1.667 4.375 0.209 6.708-4.458 7.416-4.167 0.625-9.25 2.709-10-3.791-0.542-4.75-0.583-11.25 5.625-12.167 4.625-0.667 6.583 4.875 8.833 8.542z" fill="#689f38"/><path d="m228.88 333.33c-11.583-4.041-12.333-12.75-7.083-21.375 5.166-8.458 13.333-9.625 21.666-3.083-0.125 2.708 4.292 5.708-0.541 8.125-8.709-1.417-16.292-1.625-12.042 11.042 0.042 2.041-0.625 3.791-2 5.291z" fill="#f6ecbf"/><path d="m243.62 316.12c-0.042-2.417-0.125-4.833-0.167-7.25 5.792 5.375 6.334 11.958 2.792 18.333-3.708 6.709-10.042 8.459-17.375 6.125 0.042-1.333 0.083-2.708 0.167-4.041 5.166-4.042 10.166-8.292 14.583-13.167z" fill="#f6ecbf"/><path d="m243.62 316.12c1.667 11.625-4.125 14.958-14.583 13.125-5.417-5.333-8.667-11-1.375-17.125 6.875-5.708 11.541-1.042 15.958 4z" fill="#ffa726"/><path d="m227.92 248.62c-11.584-4.042-12.334-12.75-7.084-21.375 5.167-8.458 13.334-9.625 21.667-3.083-0.125 2.708 4.292 5.708-0.542 8.125-8.708-1.417-16.291-1.625-12.041 11.041 0.041 2.042-0.625 3.792-2 5.292z" fill="#f6ecbf"/><path d="m242.67 231.42c-0.042-2.417-0.125-4.834-0.167-7.25 5.792 5.375 6.333 11.958 2.792 18.333-3.709 6.708-10.042 8.458-17.375 6.125 0.041-1.333 0.083-2.708 0.166-4.042 5.167-4.041 10.167-8.291 14.584-13.166z" fill="#f6ecbf"/><path d="m242.67 231.42c1.666 11.625-4.125 14.958-14.584 13.125-5.416-5.334-8.666-11-1.375-17.125 6.875-5.709 11.542-1 15.959 4z" fill="#ffa726"/><path d="m312.38 291.58c-11.583-4.041-12.333-12.75-7.083-21.375 5.166-8.458 13.333-9.625 21.666-3.083-0.125 2.708 4.292 5.708-0.541 8.125-8.709-1.417-16.292-1.625-12.042 11.042 0.042 2.041-0.625 3.791-2 5.291z" fill="#f6ecbf"/><path d="m327.12 274.38c-0.042-2.417-0.125-4.833-0.167-7.25 5.792 5.375 6.334 11.958 2.792 18.333-3.708 6.709-10.042 8.459-17.375 6.125 0.042-1.333 0.083-2.708 0.167-4.041 5.166-4.084 10.166-8.292 14.583-13.167z" fill="#f6ecbf"/><path d="m327.12 274.38c1.667 11.625-4.125 14.958-14.583 13.125-5.417-5.333-8.667-11-1.375-17.125 6.875-5.708 11.541-1.042 15.958 4z" fill="#ffa726"/></g><path d="m88.417 264.21c1.416 22.417 18.291 40.209 39.541 43.667 3.292 0.542 6.25-2.167 6.042-5.5l-5.208-81.792c-0.209-3.333-3.459-5.625-6.667-4.708-20.667 6.125-35.125 25.875-33.708 48.333z" fill="#f7cb4d" fill-rule="nonzero"/><path d="m119.75 226.75c-4.206 1.94-8.02 4.638-11.25 7.958-1.292 1.334-1.25 3.375 0.167 4.584l13.291 11.708c1.417 1.25 3.584 0.167 3.459-1.708l-1.25-19.834c-0.167-2.208-2.417-3.625-4.417-2.708zm8.542 67.375-1.25-19.667c-0.075-1.095-0.997-1.957-2.095-1.957-0.601 0-1.174 0.258-1.572 0.707l-11.625 13.209c-1.208 1.375-1 3.416 0.458 4.541 3.542 2.792 7.625 5 12.042 6.375 2.083 0.667 4.167-1.041 4.042-3.208zm-27-49c-1.75 3.708-2.875 7.708-3.334 11.917-0.208 1.916 1.375 3.583 3.334 3.458l16.958-1.083c1.875-0.125 2.625-2.417 1.25-3.667l-13.25-11.667c-0.578-0.502-1.319-0.778-2.084-0.778-1.228 0-2.35 0.71-2.874 1.82zm-2.625 24.417c0.974 4.287 2.68 8.375 5.041 12.083 1.125 1.75 3.625 1.917 4.959 0.333l12.25-13.916c1.25-1.417 0.166-3.584-1.709-3.459l-17.708 1.125c-1.917 0.125-3.25 1.959-2.833 3.834z" fill="#fef6e0" fill-rule="nonzero"/><path d="m351.04 124.29c-20.667-8.834-44.125-1.792-56.792 15.625-1.958 2.708-0.875 6.541 2.208 7.875l75.334 32.208c3.083 1.333 6.583-0.542 7.208-3.833 3.833-21.209-7.292-43.042-27.958-51.875z" fill="#f7cb4d" fill-rule="nonzero"/><path d="m370.33 169.17c0.165-4.629-0.527-9.248-2.041-13.625-0.408-1.285-1.608-2.164-2.955-2.164-0.417 0-0.829 0.084-1.212 0.247l-16.417 6.583c-1.708 0.709-1.75 3.125-0.041 3.875l18.291 7.834c2 0.833 4.292-0.584 4.375-2.75zm-64-22.792 18.167 7.792c0.26 0.112 0.541 0.17 0.824 0.17 1.143 0 2.084-0.941 2.084-2.084 0-0.272-0.054-0.543-0.158-0.795l-6.542-16.333c-0.454-1.194-1.604-1.987-2.881-1.987-0.475 0-0.943 0.11-1.369 0.32-4.125 1.917-7.916 4.584-11.125 7.875-0.57 0.582-0.89 1.365-0.89 2.18 0 1.244 0.746 2.373 1.89 2.862zm55.917-1.958c-2.576-3.261-5.656-6.088-9.125-8.375-0.505-0.323-1.093-0.495-1.693-0.495-1.257 0-2.398 0.754-2.89 1.911l-6.667 15.625c-0.112 0.261-0.17 0.541-0.17 0.825 0 1.143 0.94 2.083 2.083 2.083 0.273 0 0.543-0.054 0.795-0.158l16.375-6.583c1.183-0.474 1.962-1.626 1.962-2.9 0-0.701-0.236-1.382-0.67-1.933zm-20.625-13.375c-4.333-1.084-8.75-1.375-13.042-0.917-1.573 0.177-2.775 1.523-2.775 3.105 0 0.407 0.079 0.81 0.234 1.187l6.916 17.208c0.709 1.708 3.125 1.75 3.875 0.042l6.959-16.334c0.16-0.385 0.243-0.799 0.243-1.216 0-1.453-1-2.728-2.41-3.075z" fill="#fef6e0" fill-rule="nonzero"/><path d="m340 427.33c23.167-10.791 35.042-36 29.875-59.958-0.792-3.708-4.875-5.708-8.333-4.125l-84.459 39.375c-2.099 0.975-3.448 3.089-3.448 5.404 0 1.316 0.436 2.595 1.24 3.638 15.042 19.333 41.958 26.458 65.125 15.666z" fill="#f7cb4d" fill-rule="nonzero"/><path d="m287.38 409.62c3.833 3.708 8.25 6.583 13.042 8.625 1.916 0.833 4.083-0.083 4.791-2.042l6.917-18.916c0.708-2-1.333-3.875-3.25-2.959l-20.5 9.542c-2.208 1.042-2.792 4.042-1 5.75zm67.875-36.875-20.333 9.458c-1.917 0.875-1.792 3.667 0.208 4.375l18.792 6.834c1.958 0.708 4.041-0.334 4.666-2.334 1.5-4.916 2.125-10.166 1.75-15.416-0.157-1.835-1.712-3.262-3.553-3.262-0.529 0-1.052 0.118-1.53 0.345zm-40.792 48.833c4.625 0.292 9.375-0.125 14-1.375 2.125-0.583 3.25-2.958 2.292-4.958l-8.167-17.5c-0.875-1.917-3.666-1.792-4.375 0.208l-6.875 18.875c-0.131 0.379-0.198 0.776-0.198 1.176 0 1.868 1.46 3.439 3.323 3.574zm26.959-7.291c4.208-2.834 7.791-6.375 10.708-10.334 0.435-0.603 0.669-1.328 0.669-2.071 0-1.504-0.957-2.851-2.377-3.345l-19.834-7.209c-2-0.708-3.875 1.334-2.958 3.25l8.542 18.292c0.958 1.958 3.458 2.625 5.25 1.417z" fill="#fef6e0" fill-rule="nonzero"/><path d="m209.67 140.76c-5.907 3.597-14.044 6.619-15.423 13.879-1.002 5.281 1.482 10.71 4.409 14.956 5.657 8.207 14.02 16.148 24.679 12.496 4.01-1.375 7.395-3.709 10.67-6.346 4.352-3.504 8.007-7.11 8.684-12.956 0.302-2.609-0.078-5.336-0.852-7.835-0.679-2.192-1.522-4.334-2.736-6.277-12.115-19.392-24.782-10.748-29.431-7.917z" fill="#8d6b63"/><path d="m154.82 241.26c-3.638 2.215-8.649 4.076-9.498 8.547-0.618 3.253 0.912 6.596 2.715 9.21 3.484 5.055 8.634 9.945 15.198 7.696 2.47-0.846 4.554-2.284 6.572-3.908 2.68-2.158 4.931-4.379 5.347-7.979 0.186-1.606-0.048-3.286-0.524-4.825-0.419-1.35-0.938-2.669-1.685-3.865-7.461-11.943-15.262-6.62-18.125-4.876z" fill="#6d4a41"/><path d="m190.42 342.41c-6.655 1.884-15.304 2.616-18.576 9.242-2.381 4.819-1.441 10.715 0.242 15.589 3.252 9.423 9.183 19.314 20.43 18.649 4.232-0.25 8.119-1.592 11.981-3.256 5.131-2.21 9.618-4.705 11.836-10.157 0.99-2.432 1.354-5.162 1.277-7.777-0.067-2.293-0.305-4.583-0.954-6.78-6.479-21.928-20.999-16.993-26.236-15.51z" fill="#8d6b63"/><path d="m364.59 235.29c-4.038 3.789-9.919 7.494-9.807 13.41 0.082 4.304 2.92 8.15 5.911 10.997 5.783 5.503 13.641 10.353 21.394 5.74 2.917-1.736 5.187-4.122 7.321-6.726 2.835-3.461 5.107-6.887 4.677-11.58-0.192-2.094-0.937-4.169-1.955-6.001-0.892-1.606-1.904-3.146-3.174-4.469-12.68-13.209-21.188-4.354-24.367-1.371z" fill="#855c52"/><path d="m277.64 311.73c-1.523 5.325-4.67 11.522-1.538 16.543 2.278 3.652 6.688 5.497 10.716 6.406 7.787 1.757 17.02 1.887 21.308-6.05 1.614-2.987 2.337-6.199 2.833-9.529 0.658-4.425 0.85-8.532-1.927-12.34-1.239-1.699-2.943-3.097-4.756-4.147-1.59-0.921-3.249-1.724-5.019-2.208-17.66-4.832-20.419 7.134-21.617 11.325z" fill="#855c52"/></g></svg>
