<?xml version="1.0" encoding="UTF-8" standalone="no"?>
<svg
   width="128"
   height="128"
   version="1.1"
   id="svg8"
   xmlns="http://www.w3.org/2000/svg"
   xmlns:svg="http://www.w3.org/2000/svg">
  <defs
     id="defs12" />
  <path
     d="M64.01.33C28.84.33.34 28.84.34 64s28.51 63.66 63.67 63.66 63.66-28.5 63.66-63.66S99.17.33 64.01.33zm0 121.24c-31.74 0-57.57-25.83-57.57-57.56 0-31.74 25.83-57.57 57.57-57.57 31.73 0 57.56 25.83 57.56 57.57 0 31.73-25.83 57.56-57.56 57.56z"
     fill="#40c0e7"
     id="path2" />
  <g
     aria-label="M"
     id="text6"
     style="line-height:1.25;fill:#40c0e7">
    <path
       d="m 30.207999,97.264004 c 2.496,0 4.224,-1.44 4.704,-3.744 l 8.448,-38.592 12.48,39.072 c 0.768,2.304 2.4,3.264 4.416,3.264 2.016,0 3.84,-1.152 4.512,-3.072 l 14.784,-40.704 8.832,40.128 c 0.48,2.112 2.016,3.648 4.608,3.648 2.784,0 4.704,-2.112 4.704,-4.416 0,-0.768 -0.192,-1.536 -0.48,-2.88 l -12.192,-54.336 c -0.48,-2.208 -2.016,-3.744 -4.224,-3.744 -2.4,0 -4.032,0.96 -4.8,3.072 l -15.36,42.72 -13.536,-42.528 c -0.672,-2.016 -2.016,-3.264 -4.416,-3.264 -2.496,0 -4.224,1.536 -4.704,3.744 l -11.904,54.432 c -0.384,1.632 -0.384,2.688 -0.384,3.168 0,1.824 1.44,4.032 4.512,4.032 z"
       
       id="path14" />
  </g>
</svg>
