<?xml version="1.0" encoding="UTF-8"?>
<svg clip-rule="evenodd" fill-rule="evenodd" stroke-linejoin="round" stroke-miterlimit="2" version="1.1" viewBox="0 0 128 128" xml:space="preserve" xmlns="http://www.w3.org/2000/svg"><g transform="matrix(.24328 0 0 .24328 -.79189 -8.1425)"><g fill-rule="nonzero"><path d="m521.21 393.08-41.458-7.5c1.792-7 3.083-14.166 3.917-21.416l38.125-5.667c4.346-0.645 7.598-4.414 7.598-8.808 0-0.441-0.033-0.881-0.098-1.317-0.709-4.833-5.292-8.167-10.084-7.458l-34.291 5.083c0.125-7.125 0-14.208-0.5-21.375-1.042-15.5-4.5-31.125-10.042-46.292 12.25-34.625 50.542-151.54 21.375-182.79-22.25-23.834-100.25 27.208-126 46.083-9.25 6.792-17.25 12.542-24.125 17.458-25.667-7.75-53.5-11.791-81.083-11.75-28.042-0.041-56.334 4.167-82.375 12.167-9.696-5.668-19.335-11.433-28.917-17.292-27.25-16.541-109.38-60.708-129.46-35.041-23.834 30.458 13.333 125.92 31.875 168.62-6.084 15.958-9.875 32.458-10.959 48.791-0.457 6.893-0.624 13.802-0.5 20.709l-30-4.459c-4.791-0.708-9.375 2.625-10.125 7.459-0.708 4.875 2.625 9.375 7.5 10.125l33.75 5.041c0.875 7.709 2.209 15.334 4.167 22.792l-37.417 6.75c-4.851 0.028-8.828 4.027-8.828 8.879 0 4.871 4.009 8.879 8.88 8.879 0.513 0 1.026-0.044 1.532-0.133 0.5 0 1.041-0.042 1.583-0.125l39.917-7.167c3.25 7.917 7.333 15.542 12.333 22.834l-39.875 12.666c-4.647 1.481-7.258 6.516-5.792 11.167 1.477 4.65 6.516 7.263 11.167 5.792l46.458-14.75c5.125 5.416 10.834 10.625 17.334 15.5 25.208 18.791 56.541 31.541 88.875 38.458 12.291 2.625 44 8.75 77.291 8.75 33.292 0 68.125-6.125 80.417-8.75 32.292-6.917 63.667-19.625 88.875-38.458 6.958-5.167 12.958-10.75 18.333-16.584 0.084 0.042 0.167 0.125 0.25 0.125l49.459 15.709c0.875 0.291 1.791 0.416 2.708 0.416 3.75 0 7.292-2.416 8.458-6.208 1.459-4.667-1.125-9.667-5.791-11.167l-43.375-13.791c4.791-7.167 8.708-14.709 11.833-22.459l43.875 7.917c0.542 0.125 1.042 0.125 1.583 0.125 4.209 0 7.959-3 8.75-7.292 0.917-4.75-2.291-9.375-7.125-10.25z" fill="#757575"/><path d="m361.52 411.71c-3 12.75-17.042 37.584-48.958 40.375-2.625 0.209-5.125 0.334-7.542 0.334-18.5 0-30.792-6.292-38.333-12-7.542 5.708-19.875 12-38.334 12-2.416 0-4.916-0.125-7.541-0.334-31.875-2.791-45.959-27.625-48.959-40.375-0.196-0.833-0.294-1.687-0.294-2.543 0-5.149 3.573-9.657 8.586-10.832 5.958-1.416 11.875 2.292 13.333 8.209 0.584 2.25 6.125 21.333 29.292 23.375 24.792 2.208 34.417-10.584 34.833-11.125 0.25-0.375 0.667-0.542 0.959-0.875 0.625-0.667 1.125-1.417 1.916-1.959 5.084-3.416 12-2.083 15.417 3 0.292 0.375 9.917 13.167 34.708 10.959 23.209-2.042 28.709-21.209 29.292-23.417 1.295-4.854 5.725-8.257 10.749-8.257 6.103 0 11.125 5.022 11.125 11.125 0 0.787-0.084 1.571-0.249 2.34z" fill="#212121"/><path d="m206.35 230.38h-0.175c-20.583 0-37.521 16.937-37.521 37.521 0 2.136 0.183 4.269 0.546 6.375-4.454-19.787-23.812-32.6-43.817-28.633-20.32 4.021-33.516 23.7-29.491 43.97 9.6 48.638 91.271 75.459 91.271 75.459s65.312-55.888 55.658-104.47c-3.471-17.737-19.05-30.1-36.471-30.221zm112.45-14.991c-21.291 0.145-40.3 15.258-44.604 36.945-11.8 59.405 68.054 127.72 68.054 127.72s99.854-32.85 111.59-92.25c4.854-24.72-11.209-48.779-36.059-53.762-24.458-4.85-48.125 10.817-53.57 35.012 4.2-24.458-11.734-47.87-36.188-52.787-3.036-0.606-6.125-0.902-9.221-0.883z" fill="#eb7aa4"/></g><path d="m76.509 253.54c-0.81 1.27-2.245 2.003-3.75 1.914-1.504-0.09-2.843-0.987-3.497-2.344-18.507-39.191-103-230.72 85.252-85.416 1.031 0.796 1.63 2.028 1.619 3.331-0.011 1.302-0.63 2.524-1.673 3.304-13.296 10.175-53.797 42.74-77.951 79.211zm377.96-8.743c0.894 1.178 2.347 1.791 3.815 1.612 1.467-0.18 2.729-1.127 3.313-2.485 16.194-38.567 90.141-228.45-90.782-77.224-1.023 0.856-1.575 2.151-1.483 3.482s0.816 2.538 1.948 3.246c14.275 9.151 56.812 37.907 83.189 71.369z" fill="#f9c3d5"/></g></svg>
