<?xml version='1.0' encoding='utf-8'?>
<svg xmlns="http://www.w3.org/2000/svg" width="120" height="120" version="1.1" viewBox="0 0 128 128">
 <g transform="scale(1.0666666666666667)"><g transform="translate(-180,-120)">
  <g stroke-miterlimit="10" data-paper-data="{&quot;isPaintingLayer&quot;:true}">
   <path d="m250.17 166.47c0.36992-5.1789-6.2886-7.8608-9.1555-11.283-10.913-12.947 1.5722-29.594 15.814-21.27 11.375-18.588 42.633-4.809 31.998 19.606 12.947 3.6067 11.19 20.346-0.18497 23.675 0.83233 12.3-15.999 16.276-20.623 6.8435-2.127-4.1616-5.4081-10.893-9.2922-8.9507s-8.9263-1.9619-8.5564-8.6205z" fill="#729a24" />
   <path d="m253.12 181.91c10.635 10.358 14.334 29.778 4.9939 40.136-13.687 15.167-31.258 9.3405-37.917 6.8435-6.3811-2.312-11.283-2.497-17.386 1.0173-6.1037 3.5142-13.502 5.5488-17.941 4.5315-3.6067-0.73984-3.6992-6.6586 0-7.121 13.502-1.6646 15.074-13.132 11.098-22.75-6.3811-15.444-3.3293-28.021 2.312-33.755 16.924-17.109 36.53-6.3811 44.02 0.27743 3.5142-3.5142 5.9187-5.7337 6.4736-6.3811 0.73984-0.9248 1.8496-0.73984 2.312 0.27744 1.3872 3.1443 5.6413 7.4909 9.1555 8.9705 0.83233 0.36992 0.9248 1.5722 0.18496 2.127-0.4624 0.27744-7.3059 5.8262-7.3059 5.8262z" fill="#b91830" />
  </g>
 </g>
</g></svg>