<?xml version='1.0' encoding='UTF-8'?>
<svg xmlns="http://www.w3.org/2000/svg" version="1.1" id="svg2614" viewBox="0 0 128 128">
  <defs id="defs2618"/>
  <g transform="matrix(5.71429,0,0,7.05882,-18.857205,-23.688073)" id="g4" style="clip-rule:evenodd;fill:#40c0e7;fill-rule:evenodd;stroke-linejoin:round;stroke-miterlimit:2">
    <path d="M 25,6.267 C 25,5.016 23.745,4 22.2,4 H 6.8 C 5.255,4 4,5.016 4,6.267 V 18.733 C 4,19.984 5.255,21 6.8,21 h 15.4 c 1.545,0 2.8,-1.016 2.8,-2.267 z" style="fill:#40c0e7" id="path2"/>
  </g>
  <g transform="translate(-2.273514,1.5943263)" id="g12" style="clip-rule:evenodd;fill:#94e0f1;fill-rule:evenodd;stroke-linejoin:round;stroke-miterlimit:2">
    <path d="M 30.915,7.958 C 25.554,8.085 15,8 12.066,18.857 c -0.581,2.15 -1.578,5.57 0.285,7.423 1.433,1.425 3.932,0.985 5.373,-0.162 1.534,-1.221 2.286,-3.205 3.245,-4.857 1.114,-1.917 2.599,-3.655 4.34,-5.034 1.627,-1.289 3.482,-2.052 5.444,-2.683 1.362,-0.438 3.297,-0.632 3.969,-1.979 C 36,9 32.576,7.869 30.915,7.958 Z" style="fill:#94e0f1" id="path10"/>
  </g>
  <g aria-label="NG" id="text2612" style="line-height:57.0572;fill:#ffffff">
    <path d="m 11.529208,95.677749 c 2.464884,0 4.5646,-1.917132 4.5646,-4.473308 L 16.1851,52.496633 44.668204,93.669325 c 0.91292,1.278088 2.373592,2.008424 3.742972,2.008424 2.464884,0 4.473308,-1.82584 4.473308,-4.473308 V 37.981205 c 0,-2.464884 -2.099716,-4.5646 -4.473308,-4.5646 -2.556176,0 -4.5646,2.099716 -4.5646,4.5646 v 38.7991 L 15.27218,35.425029 c -0.821628,-1.186796 -2.373592,-1.917132 -3.742972,-1.917132 -2.556176,0 -4.382016,2.099716 -4.382016,4.473308 L 7.0559,91.204441 c 0,2.373592 2.099716,4.473308 4.473308,4.473308 z" style="stroke-width:0.438" id="path11"/>
    <path d="m 91.135871,95.769041 c 13.419919,0 22.549119,-8.307572 25.835639,-19.17132 0.36516,0 0.73033,-0.09129 1.0955,-0.182584 1.73455,-0.547752 3.19522,-2.099716 3.19522,-4.290724 0,-1.917132 -0.82163,-3.65168 -2.92134,-4.290724 -3.4691,-1.095504 -6.8469,-1.551964 -10.13342,-1.551964 -4.92976,0 -10.224699,0.730336 -12.233123,1.551964 -2.373592,1.004212 -3.286512,2.647468 -3.286512,4.473308 0,2.921344 2.191008,4.5646 4.473308,4.5646 2.008424,0 3.651677,-1.278088 9.311787,-1.551964 h 1.36938 c -2.73876,7.120776 -8.855327,11.320208 -16.706439,11.320208 -12.689588,0 -18.623568,-12.050544 -18.623568,-21.271036 0,-7.029484 5.203644,-22.914292 19.992948,-22.914292 9.494369,0 13.967679,5.386228 15.793519,10.315996 0.63904,1.734548 2.09971,2.921344 4.38201,2.921344 2.64747,0 4.38202,-1.643256 4.38202,-4.199432 0,-3.925556 -6.93819,-18.167108 -24.557549,-18.167108 -17.893232,0 -29.122148,16.88902 -29.122148,32.043492 0,15.51964 10.681164,30.400236 27.752768,30.400236 z" style="stroke-width:0.438" id="path13"/>
  </g>
</svg>
