<?xml version='1.0' encoding='UTF-8'?>
<svg xmlns="http://www.w3.org/2000/svg" version="1.1" id="svg6" viewBox="0 0 128 128">
  <defs id="defs10"/>
  <g aria-label="M" id="text4" style="line-height:1.25;fill:#40c0e7">
    <path d="m 11.52002,119.92 c 4.16,0 7.04,-2.4 7.84,-6.24 l 14.08,-64.320001 20.8,65.120001 c 1.28,3.84 4,5.44 7.36,5.44 3.36,0 6.4,-1.92 7.52,-5.12 l 24.64,-67.840001 14.72,66.880001 c 0.8,3.52 3.36,6.08 7.68,6.08 4.64,0 7.84,-3.52 7.84,-7.36 0,-1.28 -0.32,-2.56 -0.8,-4.8 l -20.32,-90.560001 c -0.8,-3.68 -3.36,-6.24 -7.04,-6.24 -4,0 -6.72,1.6 -8,5.12 l -25.6,71.2 -22.56,-70.88 c -1.12,-3.36 -3.36,-5.44 -7.36,-5.44 -4.16,0 -7.04,2.56 -7.84,6.24 L 4.6400195,107.92 c -0.64,2.72 -0.64,4.48 -0.64,5.28 0,3.04 2.4,6.72 7.5200005,6.72 z" style="text-align:center;text-anchor:middle" id="path12"/>
  </g>
</svg>
