<?xml version="1.0" encoding="UTF-8"?>
<svg clip-rule="evenodd" fill-rule="evenodd" stroke-linecap="square" stroke-linejoin="round" stroke-miterlimit="2" version="1.1" viewBox="0 0 128 128" xml:space="preserve" xmlns="http://www.w3.org/2000/svg"><g transform="translate(-202.21 -202.67)"><path d="m266.21 212.13c-62.515 0-64 70.09-64 83.965 0 13.876 28.654 25.112 64 25.112 35.356 0 64-11.247 64-25.112 0-13.876-1.4748-83.965-64-83.965z" fill="#fcc21b" fill-rule="nonzero" stroke-width=".24079"/><path d="m234.17 254.48c-0.77462 1.2781-2.4592 1.6976-3.7424 0.93307-1.2803-0.76066-1.7137-2.4361-0.96316-3.7224 0.18059-0.31086 4.6152-7.6451 14.417-7.6451 9.8122 0 14.247 7.3342 14.437 7.6451 0.24392 0.41946 0.37226 0.89502 0.37226 1.3797 0 1.5037-1.236 2.7419-2.74 2.7438-0.92295 0-1.836-0.47146-2.3477-1.3243-0.1305-0.22057-3.1303-4.9762-9.7219-4.9762-6.5916-0.0101-9.5714 4.7556-9.7118 4.9663zm68.264 0.94294c-0.4315 0.26102-0.91308 0.38141-1.3747 0.38141-0.94294 0-1.856-0.49169-2.3677-1.3446-0.11029-0.20058-3.0901-4.9562-9.6918-4.9562-6.712 0-9.6918 4.9061-9.7219 4.9562-0.49771 0.80472-1.3785 1.2964-2.3246 1.2964-1.4999 0-2.733-1.2331-2.733-2.733 0-0.4705 0.12135-0.93306 0.35203-1.3424 0.18059-0.3111 4.6152-7.6451 14.427-7.6451 9.8021 0 14.227 7.334 14.407 7.6451 0.76258 1.3041 0.32122 2.9798-0.97303 3.7421z" fill="#2f2f2f" fill-rule="nonzero" stroke-width=".24079"/><g transform="matrix(.24079 0 0 .24079 202.11 202.46)"><clipPath id="_clip1"><path d="m400.96 271.71c-12.783-8.646-28.875-2.937-43.106 0-39.631 8.191-74.462 8.521-91.175 8.521s-51.545-0.33-91.175-8.521c-14.231-2.937-30.323-8.646-43.106 0-16.216 10.962-4.261 50.262 21.263 76.82 15.431 16.051 52.165 47.201 113.02 47.201 60.852 0 97.587-31.15 113.02-47.201 25.525-26.558 37.439-65.858 21.264-76.82z" clip-rule="nonzero"/></clipPath><g clip-path="url(#_clip1)"><path d="m409.36 311.97c-62.018 18.704-116.53 19.459-142.68 19.459s-80.662-0.755-142.68-19.459" fill="none" stroke="#9e9e9e" stroke-width="16.67px"/></g><path d="m129.21 307c-1.37-0.4-2.44-1.474-2.835-2.846-4.19-14.655-3.127-27.344 5.053-32.873 12.875-8.709 29.083-2.959 43.417 0 39.916 8.25 75 8.583 91.833 8.583s51.917-0.333 91.833-8.583c14.334-2.959 30.542-8.709 43.417 0 8.16 5.53 9.222 18.22 5.02 32.872-0.392 1.368-1.458 2.439-2.824 2.839-59.805 17.49-112.11 18.189-137.45 18.189-25.342 0-77.651-0.699-137.47-18.181zm268.15 14.867c0.481-0.13 0.993 0.039 1.303 0.43s0.358 0.928 0.122 1.368c-4.761 8.733-10.964 17.381-18.278 24.991-15.541 16.166-52.541 47.541-113.83 47.541s-98.292-31.375-113.83-47.541c-7.314-7.611-13.522-16.259-18.285-24.994-0.234-0.439-0.186-0.975 0.123-1.365s0.82-0.559 1.301-0.431c57.014 15.142 106.17 15.815 130.69 15.815 24.526 0 73.675-0.673 130.69-15.814z" fill="#fafafa" fill-rule="nonzero"/></g></g></svg>
