<svg viewBox="0 0 128 128" xmlns="http://www.w3.org/2000/svg" xml:space="preserve" style="fill-rule:evenodd;clip-rule:evenodd;stroke-linejoin:round;stroke-miterlimit:2"><clipPath id="a"><path d="M0 0h128v128H0z"/></clipPath><g clip-path="url(#a)"><path d="M0 125.75v14.52h128v-14.52c0-22.28-31.41-33.59-63.51-33.55C32.59 92.24 0 102.15 0 125.75" style="fill:#bdbdbd;fill-rule:nonzero"/></g><clipPath id="b"><path d="M0 0h128v128H0z"/></clipPath><g clip-path="url(#b)"><path d="M56.51 162.08H39.36c-2.19 0-3.99-1.8-3.99-3.99V121.9c0-2.19 1.8-3.99 3.99-3.99h17.16c2.19 0 3.99 1.8 3.99 3.99v36.19c-.011 2.188-1.811 3.985-4 3.99" style="fill:#0d47a1;fill-rule:nonzero"/></g><clipPath id="c"><path d="M0 0h128v128H0z"/></clipPath><g clip-path="url(#c)"><path d="M71.39 129.88h-.45c-3.29 0-5.98-2.69-5.98-5.98s2.69-5.98 5.98-5.98h.45c3.29 0 5.98 2.69 5.98 5.98 0 3.28-2.69 5.98-5.98 5.98" style="fill:#616161;fill-rule:nonzero"/></g><clipPath id="d"><path d="M0 0h128v128H0z"/></clipPath><g clip-path="url(#d)"><path d="M86.65 129.88h-.45c-3.29 0-5.98-2.69-5.98-5.98s2.69-5.98 5.98-5.98h.45c3.29 0 5.98 2.69 5.98 5.98 0 3.28-2.69 5.98-5.98 5.98" style="fill:#f5f5f5;fill-rule:nonzero"/></g><clipPath id="e"><path d="M0 0h128v128H0z"/></clipPath><g clip-path="url(#e)"><path d="M105.26 140c.07-13.65 5.71-25.59 14.12-32.22-1.75-1.57-3.73-3.02-5.9-4.36-8.64 8.32-14.25 21.6-14.32 36.58zm-82.98 0c-.07-13.65-5.69-25.52-14.1-32.15a38 38 0 0 1 5.87-4.43c8.64 8.32 14.26 21.6 14.33 36.58z" style="fill:#939393;fill-rule:nonzero"/></g><clipPath id="f"><path d="M0 0h128v128H0z"/></clipPath><g clip-path="url(#f)"><path d="M128 125.75c0-2.94-.56-5.69-1.59-8.25l-8.22 2.67 5.16 15.93 4.65-1.51zM0 138.07c3.94-3.27 6.45-8.2 6.45-13.71 0-3.85-1.23-7.4-3.31-10.32C1.12 117.5 0 121.39 0 125.75z" style="fill:#757575;fill-rule:nonzero"/></g><ellipse cx="64.07" cy="49.36" rx="49.18" ry="48.99" style="fill:#212121"/><path d="M51.89 29.71s2.92.51 2.92 3.65c0 2.77-2.13 3.87-4.26 3.87v-7.51h1.34zm-31.82 0s-2.92.51-2.92 3.65c0 2.77 2.13 3.87 4.26 3.87v-7.51h-1.34z" style="fill:#dba689;fill-rule:nonzero" transform="translate(-5.8 -3.617)scale(1.93748)"/><path d="M35.98 9.13c-12.57 0-15.86 9.75-15.86 23.44 0 14.2 10.772 17.87 15.86 17.87s15.86-3.57 15.86-17.87c.01-13.69-3.28-23.44-15.86-23.44" style="fill:#fadcbc;fill-rule:nonzero" transform="translate(-5.8 -3.617)scale(1.93748)"/><path d="M30.76 33.84c0 1.41-.95 2.56-2.12 2.56s-2.12-1.15-2.12-2.56c0-1.42.95-2.56 2.12-2.56s2.12 1.15 2.12 2.56m10.44 0c0 1.41.95 2.56 2.12 2.56s2.12-1.15 2.12-2.56c0-1.42-.95-2.56-2.12-2.56s-2.12 1.15-2.12 2.56" style="fill:#444;fill-rule:nonzero" transform="translate(-5.8 -3.617)scale(1.93748)"/><path d="M40.57 42.49h-9.18c-.53 0-.75.35-.4.88.49.74 2.3 2.17 5 2.17s4.51-1.43 5-2.17c.34-.52.11-.88-.42-.88" style="fill:#513f35;fill-rule:nonzero" transform="translate(-5.8 -3.617)scale(1.93748)"/><path d="M38.2 38.59c-.78.22-1.59.33-2.22.33s-1.44-.11-2.22-.33c-.33-.09-.47.22-.35.43.25.44 1.25 1.32 2.56 1.32 1.32 0 2.32-.88 2.56-1.32.14-.21 0-.52-.33-.43" style="fill:#dba689;fill-rule:nonzero" transform="translate(-5.8 -3.617)scale(1.93748)"/><path d="M52.262 8.761c2.609-2.071 6.264-3.817 11.411-3.919 0 0 .245-.01.357-.01.102 0 .358.01.358.01 3.72.105 6.771 1.059 9.211 2.384.814.257 1.594.591 2.271.978.411.235.784.496 1.154.791.076.061.357.216.382.309.029.104-.215-.016-.323-.025l-.518-.05a18 18 0 0 1 1.632 1.526q.406.243.804.542c.328.248.597.553.855.87.089.11.181.217.258.336.049.075.231.215.143.225-.164.019-.363-.068-.54-.126.49.691.87 1.345 1.145 1.917a22 22 0 0 1 1.843 5.752c.583.781 1.058 1.631 1.146 2.468.014.129-.201-.164-.306-.239-.195-.14-.401-.262-.602-.393.108 1.251.098 2.383.032 3.351.37.45.918 1.038.984 1.631.005.054-.099-.045-.147-.069a2.6 2.6 0 0 1-.381-.219 6 6 0 0 1-.537-.438c-.182 1.626-.491 2.598-.491 2.598s-.214-.224-.623-.541a4.5 4.5 0 0 0-.918-.531c.641 2.894 1.186 7.523 0 9.525-1.931-1.619-4.557-7.162-5.274-16.657-.656.574-1.323 1.09-1.899 1.334.041.174.083.348.138.511q.093.282.228.545c.049.092.263.284.16.268-.25-.038-.63-.422-.852-.559a6.2 6.2 0 0 0-1.418-.665 14 14 0 0 1-1.466-.161c.182.606.328 1.224.382 1.854.019.224.042.875-.13 1.032l-.177-.239q-.168-.24-.34-.477c-.327-.452-.653-.901-1.03-1.314-.701-.768-1.424-1.493-2.227-2.113-.775-.352-1.552-.702-2.371-.954-1.09-.336-2.211-.382-3.324-.585a7 7 0 0 1-.579-.133l-.335.015c.636 1.536.849 3.238.359 4.828a7.3 7.3 0 0 1-.959 1.986c-.031.045-.332.485-.412.452-.229-.096-.574-.838-.718-1.047-.539-.785-1.112-1.593-1.792-2.266-1.251-1.241-2.76-2.056-4.307-2.808.095 5.761-1.668 13.544-5.32 17.153-.942-2.112-.797-6.926 0-9.525 0 0-.49.194-.919.531-.398.317-.622.541-.622.541s-.692-2.59-.702-5.863c-.184.162-.517.577-.725.61-.061.01.011-.124.018-.186q.027-.224.065-.446.083-.518.227-1.023c.13-.452.315-.875.531-1.282.222-2.067.794-4.222 2.003-6.771" style="fill:#212121;fill-rule:nonzero" transform="translate(-57.572 1.413)scale(1.89819)"/><path d="M107.41 86.06c-2.63-2.63-6.7-3.1-9.91-1.21a66.4 66.4 0 0 1-33.83 9.22c-12.35 0-23.91-3.36-33.83-9.22-3.21-1.89-7.28-1.43-9.91 1.21-3.71 3.71-3 9.98 1.52 12.66 12.37 7.34 26.8 11.56 42.22 11.56s29.85-4.22 42.22-11.56c4.52-2.68 5.24-8.95 1.52-12.66" style="fill:#757575;fill-rule:nonzero"/><circle cx="64.07" cy="49.38" r="49.18" style="fill:#212121;fill-opacity:.5"/><path d="M64.07 18.81c21.76 0 40.51 12.81 49.16 31.29 0-.24.02-.48.02-.73C113.25 22.21 91.23.19 64.07.19S14.89 22.21 14.89 49.37c0 .24.01.49.02.73 8.65-18.48 27.4-31.29 49.16-31.29m43.48 64.25c-2.63-2.63-6.7-3.1-9.91-1.21a66.4 66.4 0 0 1-33.83 9.22c-12.35 0-23.91-3.36-33.83-9.22-3.21-1.89-7.28-1.43-9.91 1.21-3.71 3.71-3 9.98 1.52 12.66 12.37 7.34 26.8 11.56 42.22 11.56s29.85-4.22 42.22-11.56c4.52-2.68 5.24-8.95 1.52-12.66" style="fill:#bdbdbd;fill-rule:nonzero"/><path d="m117.66 37.64-6.18 2.49-7.62-18.88 6.18-2.49c1.57-.64 3.37.13 4 1.7l5.32 13.18c.64 1.57-.12 3.37-1.7 4" style="fill:#bdbdbd;fill-rule:nonzero"/><circle cx="110.28" cy="24.04" r="3.03" style="fill:#757575" transform="rotate(-22.297 110.289 24.039)"/><circle cx="114.1" cy="33.71" r="3.03" style="fill:#757575" transform="rotate(-22.297 114.114 33.71)"/><path d="m10.1 37.64 6.18 2.49 7.62-18.88-6.18-2.49c-1.57-.64-3.37.13-4 1.7L8.4 33.64c-.64 1.57.12 3.37 1.7 4" style="fill:#bdbdbd;fill-rule:nonzero"/><circle cx="17.49" cy="24.04" r="3.03" style="fill:#757575" transform="rotate(-67.703 17.485 24.038)"/><circle cx="13.66" cy="33.71" r="3.03" style="fill:#757575" transform="rotate(-67.703 13.66 33.709)"/><path d="m85.7 83.23-4.08.77c-1.91.36-3.76-.91-4.12-2.81l-.27-1.45c-.36-1.91.91-3.76 2.81-4.12l4.08-.77c1.91-.36 3.76.91 4.12 2.81l.27 1.45c.37 1.9-.9 3.76-2.81 4.12" style="fill:#212121;fill-rule:nonzero"/><path d="m94.59 79.14-7.56 1.51c-.67.13-1.34-.31-1.47-.98s.31-1.34.98-1.47l7.56-1.51c.67-.13 1.34.31 1.47.98s-.31 1.34-.98 1.47" style="fill:#212121;fill-rule:nonzero"/></svg>
