<?xml version='1.0' encoding='UTF-8'?>
<svg xmlns="http://www.w3.org/2000/svg" version="1.1" id="svg8" viewBox="0 0 128 128">
  <defs id="defs12"/>
  <path d="M64 .41C28.93.41.41 28.93.41 64c0 35.06 28.52 63.59 63.58 63.59S127.58 99.07 127.58 64C127.59 28.93 99.06.41 64 .41zm0 118C34 118.41 9.6 94 9.6 64 9.6 34 34 9.59 64 9.59S118.41 34 118.41 64.01C118.4 94 93.99 118.41 64 118.41z" fill="#40c0e7" id="path2"/>
  <g aria-label="i" transform="scale(1.15766,0.86381)" id="text6" style="line-height:71.0009;fill:#40c0e7">
    <path d="m 56.247523,50.879464 c 3.067227,0 5.339247,-2.27202 5.452848,-5.339247 l 0.113601,-4.316837 c 0.113601,-2.726424 -2.499222,-5.452848 -5.339247,-5.452848 -2.840025,0 -5.339247,2.385621 -5.452848,5.339247 l -0.113601,4.203236 c -0.113601,2.953626 2.499222,5.566449 5.339247,5.566449 z M 55.679518,112.3376 c 2.953626,0 5.566449,-2.49922 5.566449,-5.56644 l 0.568005,-45.213202 c 0,-3.067227 -2.385621,-5.566449 -5.566449,-5.566449 -2.953626,0 -5.566449,2.499222 -5.566449,5.566449 l -0.568005,45.213202 c 0,3.06722 2.499222,5.56644 5.566449,5.56644 z" id="path14"/>
  </g>
</svg>
