<svg clip-rule="evenodd" fill-rule="evenodd" stroke-linejoin="round" stroke-miterlimit="1.414" viewBox="0 0 128 128" xml:space="preserve" xmlns="http://www.w3.org/2000/svg"><path d="M3.098 73.552V54.455l60.901-28.71 60.902 28.71v19.097L64 102.263z" fill="#ffa92d"/><g transform="matrix(.97836 0 0 .99194 0 .002)"><use x="68.016" y="35.249" width="23.481" height="11.903"/><use x="53.34" y="42.072" width="23.481" height="11.903"/><use x="23.989" y="55.72" width="23.481" height="11.903"/><use x="53.49" y="28.425" width="23.481" height="11.903"/><use x="38.815" y="35.249" width="23.481" height="11.903"/><use x="24.14" y="42.072" width="23.481" height="11.903"/><use x="9.464" y="48.896" width="23.481" height="11.903"/><use x="82.691" y="42.072" width="23.481" height="11.903"/><use x="68.016" y="48.896" width="23.481" height="11.903"/><use x="53.34" y="55.72" width="23.481" height="11.903"/><use x="38.665" y="62.544" width="23.481" height="11.903"/><use x="97.366" y="48.896" width="23.481" height="11.903"/><use x="82.691" y="55.72" width="23.481" height="11.903"/><use x="68.016" y="62.544" width="23.481" height="11.903"/><use x="53.34" y="69.368" width="23.481" height="11.903"/></g><path d="m78.284 35.764 10.926 5.151-10.926 5.151-10.926-5.15zm-14.357 6.768 10.926 5.151-10.926 5.151L53 47.684zM35.21 56.07l10.927 5.151-10.926 5.151-10.926-5.15zm28.863-27.075 10.926 5.151-10.926 5.151-10.926-5.15zm-14.358 6.769 10.926 5.151-10.926 5.151-10.926-5.15zm-14.357 6.768 10.926 5.151-10.926 5.151-10.926-5.15zM21 49.301l10.926 5.151L21 59.603l-10.926-5.15zm71.642-6.769 10.926 5.151-10.926 5.151-10.926-5.15zm-14.358 6.769 10.926 5.151-10.926 5.151-10.926-5.15zM63.927 56.07l10.926 5.151-10.926 5.151L53 61.222zm-14.358 6.768 10.926 5.151-10.926 5.151-10.926-5.15zM107 49.301l10.926 5.151L107 59.603l-10.926-5.15zM92.642 56.07l10.926 5.151-10.926 5.151-10.926-5.15zm-14.358 6.768L89.21 67.99l-10.926 5.15-10.926-5.15zm-14.357 6.769 10.926 5.151-10.926 5.151L53 74.76zM49.569 49.301l10.926 5.151-10.926 5.151-10.926-5.15z" fill="#c70"/><path d="M64.036 41.861c-1.86-.2-6.18 3.47-9.07 5.53-2.58 1.83-7.92 5.4-8.42 6.1-1.38 1.92.84 4.04.84 4.04s15.74 8.07 16.26 8c.51-.06 4.25-.51 6.18-2.06 1.93-1.54 10.55-10.94 10.55-10.94s.26-1.35-1.16-2.32c-1.13-.77-5.84-3.59-7.32-4.61s-5.35-3.47-7.86-3.74" fill="#ffe265"/><path d="M63.266 63.671s1.09.39 2.32-.32 8.04-5.6 12.74-9.97c.6-.56 1.74-2.06 1.35-2.64s1.54.32 1.54 2.96c0 2.71-1.01 3.68-1.74 4.31-.97.84-13.19 11.45-14.67 11-1.05-.32-2.9-1.74-2.9-1.74z" fill="#fcb602"/><path d="M46.736 53.491c-1.31.73-.61 3.29-.26 4.18.58 1.48 5.69 4.04 7.58 5.3 4.79 3.19 9.72 5.97 10.43 6.03s.74-2.79 0-4.76c-.48-1.27-6.1-3.83-9.02-5.59-4.34-2.6-7.89-5.63-8.73-5.16" fill="#ffebc9"/></svg>
