<?xml version="1.0" encoding="UTF-8"?>
<svg width="125" height="125" version="1.1" viewBox="0 0 125 125" xmlns="http://www.w3.org/2000/svg">
 <g transform="translate(-177.5,-117.5)">
  <g stroke-miterlimit="10" data-paper-data='{"isPaintingLayer":true}'>
   <path d="m230.71 200.71c-0.4 0.5-0.5 1.2-0.1 1.7 2.3 2.7 9.5 11.3 10.7 13 1.4 1.8 0 3.1-0.8 3.9-27.1 27.4-47 20.6-53.4 19.4-4.1-0.8-6-2.8-6.6-6.7-1.2-8.3-5.1-27.7 21.3-53 1.4-1.3 2.9-1.2 4-0.3 0.9 0.7 9.6 8.8 12.1 11.2 0.4 0.4 1 0.3 1.4 0 0.9-0.9 2.5-2.5 3.2-3.1 3.6-3.1 14.7 7.6 11 11.1l-2.8 2.8z" fill="#89b1d6"/>
   <path d="m269.91 161.45s-35.4 34-37.4 35.8c-2.9 2.7-11.5-6.1-8.9-8.9 1.3-1.4 36.1-36.8 36.1-36.8z" fill="#855c52"/>
   <path d="m260.61 134.15c4.1-7.6 13.4-15.8 15.1-14.3 0.6 0.4 1.1 0.8 1.5 1.3 0.6 0.6 0.7 1.6-0.2 2.6-0.6 0.8-9 9-10.5 11-1.9 2.7-0.8 5.2 0.9 7.7 2.1 3 8.8 10.5 11.4 12.2 2.8 1.9 5.9 1.6 8.1 0 1.5-1.1 10.2-9 10.2-9 1-0.9 1.8-0.1 1.8-0.1s0.9 1 1.3 1.6c1.7 2.5-8.3 10.9-13.1 13.2-3.1 1.5-8.6 2.7-13.3-1.5-0.9 0.9-3 2.9-4 3.9-3.1 3-14.3-8.2-11.3-11.3l4.4-4.4c-2-2.7-5.1-7.9-2.3-12.9z" fill="#89b1d6"/>
   <path d="m277.35 121.98c7 3.7 17.9 16.7 21.2 22.8 0.2 0.4 0.2 0.8 0 1.1-1.4 2.4-4.1 4.7-7 6.5-0.5 0.3-1.1 0.3-1.6-0.1-6.1-4.2-16-14.4-20.4-22.3-0.3-0.5-0.2-1.1 0-1.5 1.5-2.8 4.2-5.4 6.6-6.5 0.4-0.2 0.9-0.1 1.2 0z" fill="#855c52"/>
  </g>
 </g>
</svg>
