<?xml version='1.0' encoding='UTF-8'?>
<svg xmlns="http://www.w3.org/2000/svg" version="1.1" id="svg8" viewBox="0 0 128 128">
  <defs id="defs12"/>
  <path d="M14.78 47.94l47.61-34.9v21.77h50.83v26.04H62.39v22z" fill="#40c0e7" id="path2"/>
  <g aria-label="BACK" transform="scale(1.00514,0.99488)" id="text6" style="line-height:26.4305;fill:#78a3ad">
    <path d="m 15.829437,121.85531 c 12.686701,0 18.734028,-3.34083 18.734028,-9.09214 0,-3.25625 -1.395537,-5.45528 -4.271189,-6.80852 1.099514,-1.1841 1.945294,-2.91795 1.945294,-5.28613 0,-3.848299 -3.256253,-7.485153 -9.599604,-7.485153 h -7.18913 c -1.099514,0 -2.072161,0.972647 -2.072161,2.072161 v 24.273892 c 0,1.56469 0.592046,2.32589 2.452762,2.32589 z m 1.776138,-17.21162 v -7.400579 h 5.032391 c 3.594565,0 5.412993,1.606983 5.412993,3.467699 0,1.94529 -1.564694,3.93288 -3.975167,3.93288 z m 0,13.19417 v -9.13443 h 6.470217 c 4.144323,0 6.301062,1.73385 6.301062,4.05974 0,3.42541 -5.835883,4.94782 -12.771279,5.07469 z" id="path14"/>
    <path d="m 56.93435,121.81302 c 1.26867,0 2.11445,-0.97265 2.11445,-2.02987 0,-0.50747 -0.126867,-0.80349 -0.296023,-1.31096 L 50.337265,94.071436 c -0.338312,-1.014936 -1.141803,-1.395537 -1.945294,-1.395537 -0.84578,0 -1.649271,0.465179 -1.987583,1.310959 l -6.258772,15.900662 -1.564693,0.33831 c -0.930358,0.21145 -1.606982,1.01494 -1.606982,2.02988 0,0.88807 0.42289,1.5224 1.099514,1.86071 0.126867,0.0846 0.253734,0.12687 0.380601,0.16916 l -1.69156,4.2289 c -0.169156,0.42289 -0.296023,0.88807 -0.296023,1.26867 0,1.09951 0.972647,1.98758 2.11445,1.98758 1.014936,0 1.649271,-0.63433 1.945294,-1.35325 l 2.748785,-6.93539 8.626956,-1.90301 3.044809,8.79612 c 0.296023,0.93035 0.930358,1.43782 1.987583,1.43782 z m -11.88321,-12.98272 3.171675,-7.99262 2.283606,6.80853 z" id="path16"/>
    <path d="m 72.581264,121.77073 c 4.102033,0 7.823465,-1.73385 10.14936,-5.03239 0.296023,-0.42289 0.380601,-0.84578 0.380601,-1.26867 0,-1.35325 -1.014936,-2.11445 -2.11445,-2.11445 -0.634335,0 -1.141803,0.16916 -1.649271,0.84578 -1.353248,1.77614 -3.425409,3.50999 -6.76624,3.50999 -4.398057,0 -8.119489,-3.17168 -8.119489,-8.66925 0,-6.1319 4.313478,-12.010074 8.669246,-12.010074 2.283606,0 3.594565,0.718913 4.482634,1.649271 v 0.296024 c 0,0.888069 0.84578,1.691559 1.987583,1.691559 1.184092,0 2.11445,-0.972646 2.11445,-2.11445 v -2.706496 c 0,-1.057225 -0.803491,-1.945294 -1.945294,-1.945294 -0.592046,0 -1.014936,0.253734 -1.26867,0.507468 -1.26867,-0.761202 -3.171675,-1.480115 -5.07468,-1.480115 -6.470218,0 -13.194169,7.654307 -13.194169,16.112107 0,8.03491 5.624437,12.72899 12.348389,12.72899 z" id="path18"/>
    <path d="m 104.93234,121.81302 c 1.14181,0 2.07216,-0.88807 2.07216,-2.07216 0,-0.63433 -0.21144,-1.18409 -0.80349,-1.64927 L 92.710822,107.56163 105.4821,96.608776 c 0.59205,-0.507468 0.71891,-1.014936 0.71891,-1.564693 0,-1.057225 -0.97264,-2.11445 -2.02987,-2.11445 -0.50747,0 -1.01493,0.211445 -1.35325,0.507468 l -11.544894,9.895629 v -8.288647 c 0,-1.184092 -0.972647,-2.072161 -2.072161,-2.072161 -1.141803,0 -2.072161,0.888069 -2.072161,2.072161 v 24.654487 c 0,1.09952 0.930358,2.07216 2.072161,2.07216 1.099514,0 2.072161,-0.97264 2.072161,-2.07216 v -7.99262 l 12.390674,9.68418 c 0.33832,0.25374 0.71892,0.42289 1.26867,0.42289 z" id="path20"/>
  </g>
</svg>
