<?xml version="1.0" encoding="UTF-8"?>
<svg clip-rule="evenodd" fill-rule="evenodd" stroke-linejoin="round" stroke-miterlimit="2" version="1.1" viewBox="0 0 128 128" xml:space="preserve" xmlns="http://www.w3.org/2000/svg"><g transform="matrix(.256 0 0 .256 -4.2665 -4.2666)"><path d="m516.67 83.343c0-36.794-29.881-66.676-66.667-66.676h-366.67c-36.786 0-66.667 29.882-66.667 66.676v366.65c0 36.794 29.881 66.677 66.667 66.677h366.67c36.786 0 66.667-29.883 66.667-66.677z" fill="#fcc21b"/><path d="m424.42 88.542h-295.46c-3.625 0-6.541 2.916-6.541 6.5v209c-2.834 54.958-39.75 94.708-40.125 95.125-1.209 1.291-1.875 3.041-1.792 4.833s0.917 3.458 2.25 4.625l45.542 39.042c2.682 2.309 6.782 2.028 9.125-0.625 1.75-1.959 40.291-46.334 51.333-105.38h169.83v38.416h-38.166c-1.875 0-3.709 0.834-4.917 2.25-1.25 1.459-1.833 3.334-1.542 5.25l8.417 57.625c0.458 3.209 3.208 5.584 6.458 5.584h61c0.792 0 19.5-0.209 30.042-13.917 10.958-14.125 11.083-35.625 11.083-36.542v-305.29c-0.041-3.584-2.958-6.5-6.541-6.5zm-232.58 197.62v-35.834h166.75v35.834zm166.71-91.292h-166.75v-35.833h166.75z" fill="#2f2f2f" fill-rule="nonzero"/></g></svg>
