<?xml version="1.0" encoding="UTF-8"?>
<svg width="128" height="128" version="1.1" viewBox="0 0 128 128" xmlns="http://www.w3.org/2000/svg" xmlns:xlink="http://www.w3.org/1999/xlink">
 <path d="M67.5 41.68c-.51 0-.93-.65-.93-1.44v-6.38c0-.79-.64-1.43-1.43-1.43h-4.49c-.79 0-1.44.65-1.44 1.43v6.38c0 .79-.42 1.44-.93 1.44s-.94.65-.94 1.43v2.54c0 .79.42 1.43.94 1.43h9.23c.51 0 .93-.64.93-1.43v-2.54c0-.78-.42-1.43-.94-1.43z" fill="#78a3ad"/>
 <defs>
  <path id="a" d="M121.57 79.19c-4.68-4.68-12-6.14-12-6.14s-3.83-9.95-7.06-14.28c-8.78-11.8-19.77-14.44-37.58-14.44-12.31 0-24.53.47-34.54 13.08-3.83 4.83-10.11 15.64-10.11 15.64s-10.01 2.24-15.07 7.88c-3.88 4.32-6.79 18.9-1.67 24.01 4.73 4.73 9.89 7.06 13.32 7.06H112.03c5.17 0 9.52-2.6 12.24-6.96 4.66-7.48 1.97-21.17-2.7-25.85z"/>
 </defs>
 <use width="100%" height="100%" fill="#fcc21b" overflow="visible" xlink:href="#a"/>
 <clipPath id="b">
  <use width="100%" height="100%" overflow="visible" xlink:href="#a"/>
 </clipPath>
 <path d="m-4.13 85.07h42.18v14.88h-42.18zm91.83 0h42.39v14.88h-42.39z" clip-path="url(#b)" fill="#f79329"/>
 <path d="m40.72 109.71c0 6.24-5.06 11.31-11.3 11.31-6.25 0-11.31-5.06-11.31-11.31 0-6.24 5.06-11.29 11.31-11.29 6.24 0 11.3 5.05 11.3 11.29zm68.28 0c0 6.24-5.07 11.31-11.3 11.31-6.25 0-11.31-5.06-11.31-11.31 0-6.24 5.06-11.29 11.31-11.29 6.23 0 11.3 5.05 11.3 11.29z" fill="#2f2f2f"/>
 <path d="M58.6 71.35c0 2.85-1.83 3.81-4.08 3.81H38.57c-5.52 0-2.55-8.34 2.84-14.25s13.69-6.38 14.83-6.09c2.2.54 2.36 2.58 2.36 4.81v11.72zM65.49 71.35c0 2.85 2.66 3.81 5.89 3.81H92.4c7.98 0 3.35-11.62-4.76-17.09-5.76-3.88-17.09-3.54-18.74-3.26-3.19.54-3.41 2.58-3.41 4.81v11.73z" fill="#40c0e7"/>
 <g fill="#2f2f2f" stroke-width=".941" aria-label="TAXI">
  <path d="m47.331 98.527c0.47417 0 0.86054-0.40393 0.86054-0.86054v-9.2552h2.7748c0.49174 0 0.86054-0.40393 0.86054-0.8781 0-0.49174-0.3688-0.86054-0.86054-0.86054h-7.2707c-0.45661 0-0.86054 0.3688-0.86054 0.86054 0 0.47417 0.40393 0.8781 0.86054 0.8781h2.7572v9.2552c0 0.45661 0.40393 0.86054 0.8781 0.86054z"/>
  <path d="m59.115 98.545c0.52686 0 0.8781-0.40393 0.8781-0.84298 0-0.21074-0.05269-0.33368-0.12293-0.54442l-3.4948-10.133c-0.1405-0.42149-0.47417-0.57955-0.80785-0.57955-0.35124 0-0.68492 0.19318-0.82541 0.54442l-2.5992 6.6033-0.64979 0.1405c-0.38636 0.08781-0.66736 0.42149-0.66736 0.84298 0 0.3688 0.17562 0.63223 0.45661 0.77273 0.05269 0.03512 0.10537 0.05269 0.15806 0.07025l-0.70248 1.7562c-0.07025 0.17562-0.12293 0.3688-0.12293 0.52686 0 0.45661 0.40393 0.82541 0.8781 0.82541 0.42149 0 0.68492-0.26343 0.80785-0.56198l1.1415-2.8802 3.5826-0.79029 1.2645 3.6529c0.12293 0.38636 0.38636 0.59711 0.82541 0.59711zm-4.9349-5.3915 1.3172-3.3192 0.94835 2.8275z"/>
  <path d="m61.855 98.527c0.24587 0 0.43905-0.07025 0.64979-0.31612l3.6705-4.3554 3.4948 4.3554c0.17562 0.21074 0.42149 0.31612 0.68492 0.31612 0.47417 0 0.84298-0.40393 0.84298-0.86054 0-0.17562-0.01756-0.35124-0.15806-0.52686l-3.7056-4.6715 3.7583-4.4783c0.12293-0.15806 0.21074-0.35124 0.21074-0.56198 0-0.45661-0.42149-0.86054-0.8781-0.86054-0.22831 0-0.49174 0.10537-0.66736 0.31612l-3.53 4.1973-3.3543-4.1973c-0.17562-0.21074-0.42149-0.31612-0.66736-0.31612-0.45661 0-0.89566 0.3688-0.89566 0.86054 0 0.22831 0.10537 0.40393 0.21074 0.54442l3.5651 4.4783-3.9163 4.6539c-0.10537 0.12293-0.19318 0.3688-0.19318 0.56198 0 0.43905 0.35124 0.86054 0.8781 0.86054z"/>
  <path d="m73.99 98.422h4.1973c0.49174 0 0.86054-0.38636 0.86054-0.8781s-0.33368-0.8781-0.86054-0.8781h-1.2118v-8.2541h1.2118c0.49174 0 0.86054-0.40393 0.86054-0.89566s-0.3688-0.86054-0.86054-0.86054h-4.1973c-0.49174 0-0.8781 0.3688-0.8781 0.86054s0.38636 0.89566 0.8781 0.89566h1.2293v8.2541h-1.2293c-0.49174 0-0.8781 0.38636-0.8781 0.8781s0.38636 0.8781 0.8781 0.8781z"/>
 </g>
</svg>
