<?xml version='1.0' encoding='utf-8'?>
<svg xmlns="http://www.w3.org/2000/svg" width="128" height="128" version="1.1" id="svg8" viewBox="0 0 128 128">
  <defs id="defs12" />
  <g aria-label="TOP" id="text4" style="line-height:1.25;fill:#78a3ad">
    <path d="m 39.053,120.647 c 1.08,0 1.96,-0.92 1.96,-1.96 V 97.606998 h 6.32 c 1.12,0 1.96,-0.92 1.96,-2 0,-1.12 -0.84,-1.96 -1.96,-1.96 h -16.56 c -1.04,0 -1.96,0.84 -1.96,1.96 0,1.08 0.92,2 1.96,2 h 6.28 V 118.687 c 0,1.04 0.92,1.96 2,1.96 z" id="path14" />
    <path d="m 59.093028,120.647 c 6.44,0 11.96,-6.32 11.96,-14.64 0,-7.280002 -4.4,-12.640002 -10.4,-12.640002 -6.36,0 -11.92,6.32 -11.92,14.640002 0,7.2 4.32,12.64 10.36,12.64 z m 0,-3.8 c -3.28,0 -6.36,-3 -6.36,-8.84 0,-6.36 3.48,-10.840002 7.68,-10.840002 3.28,0 6.64,3.160002 6.64,9.000002 0,6.36 -3.64,10.68 -7.96,10.68 z" id="path16" />
    <path d="m 77.653048,120.647 c 1.12,0 1.96,-0.84 1.96,-1.96 v -6.96 c 5.68,-0.2 14.76,-2.52 14.76,-9.8 0,-5.480002 -4.8,-8.560002 -14.84,-8.560002 -3.36,0 -3.88,0.32 -3.88,2.48 V 118.687 c 0,1.12 0.96,1.96 2,1.96 z m 1.96,-12.84 V 97.326998 h 0.56 c 6.56,0 10.24,1.64 10.24,4.600002 0,4.52 -7.24,5.68 -10.8,5.88 z" id="path18" />
  </g>
  <path d="M64.01 18.96l33.81 46.11h-21.1v16.18H51.5V65.08H30.2z" fill="#fcc21b" id="path6" />
</svg>