<?xml version="1.0" encoding="UTF-8"?>
<svg version="1.1" viewBox="0 0 128 128" xmlns="http://www.w3.org/2000/svg">
 <path d="M112.5 124.96h-97c-5.52 0-10-4.48-10-10V32.72c0-5.76 4.67-10.43 10.43-10.43h96.13c5.76 0 10.43 4.67 10.43 10.43v82.25c.01 5.52-4.47 9.99-9.99 9.99z" fill="#90a4ae"/>
 <path d="M112.5 119h-97c-5.52 0-10-4.48-10-10v3.5c0 5.52 4.48 10 10 10h97c5.52 0 10-4.48 10-10V109c0 5.53-4.48 10-10 10z" fill="#78909c"/>
 <path d="m112.5 112.5h-97c-5.52 0-10-4.48-10-10v3.5c0 5.52 4.48 10 10 10h97c5.52 0 10-4.48 10-10v-3.5c0 5.52-4.48 10-10 10z" fill="#78909c"/>
 <path d="M112.5 109.57h-97c-5.52 0-10-4.48-10-10V26.84c0-5.76 4.67-10.43 10.43-10.43h96.13c5.76 0 10.43 4.67 10.43 10.43v72.73c.01 5.52-4.47 10-9.99 10z" fill="#e0e0e0"/>
 <path d="M122.5 84.62V26.84c0-5.76-4.67-10.43-10.43-10.43H15.93c-5.76 0-10.43 4.67-10.43 10.43v72.73c0 5.52 4.48 10 10 10h69.9c14.26-4.78 28.32-12.95 37.1-24.95z" fill="#e0e0e0"/>
 <path d="M122.5 47H5.5V11.04c0-4.42 3.58-8 8-8h101c4.42 0 8 3.58 8 8z" fill="#1e88e5"/>
 <path d="M27.49 53.6h73.03v49.04H27.49zM33.12 9.43h61.76v33.18H33.12z" fill="none"/>
 <path d="m122.46 86.61s-3.08 1.73-7.71 1.73-7.33-1.93-7.33-1.93-1.35 5.59-6.94 12.72-15.03 11.77-15.03 11.77l28.92-5.98z" fill="#78909c"/>
 <path d="M85.4 110.7h27.1c5.52 0 10-4.48 10-10V85.75c-8.78 12-22.84 20.17-37.1 24.95z" fill="#b0bec5"/>
 <circle cx="25.1" cy="12.07" r="7" fill="#01579b"/>
 <circle cx="102.6" cy="12.07" r="7" fill="#01579b"/>
 <g fill="#bdbdbd">
  <path d="m18.46-0.05v8.26a6.79 6.79 0 0 0 13.58 0v-8.26zm77.49 0v8.26a6.79 6.79 0 0 0 13.58 0v-8.26z"/>
 </g>
 <g fill="#fefefe" stroke-width=".88" aria-label="July">
  <path d="m39.854 33.473c4.0482 0 6.442-2.5697 6.442-6.0195v-13.975h0.10561c0.88005 0 1.6193-0.77444 1.6193-1.7249 0-0.91525-0.80964-1.7249-1.7249-1.7249h-6.7236c-0.98566 0-1.7953 0.80965-1.7953 1.7249 0 0.98566 0.80965 1.7601 1.7953 1.7601h3.2034v13.94c0 1.4081-0.91525 2.4993-2.9218 2.4993-2.3233 0-3.133-1.2321-3.133-2.9218 0-0.98566-0.77444-1.7601-1.7601-1.7601-1.0913 0-1.7601 0.80965-1.7601 1.8305 0 2.9218 1.7953 6.3716 6.6532 6.3716z"/>
  <path d="m56.364 33.579c2.1121 0 3.8018-1.1969 4.9987-2.0417v0.38722c0 0.95045 0.88005 1.5489 1.7953 1.5489s1.6897-0.80965 1.6897-1.6897v-14.292c0-0.95045-0.80965-1.6193-1.6897-1.6193-0.80965 0-1.6545 0.66884-1.6545 1.6193l-0.0704 10.033c0 0.42242-0.0704 0.73924-0.21121 0.88005-0.59843 0.66884-2.6049 2.0065-4.5059 2.0065-1.2673 0-2.3233-0.95045-2.3233-6.1604 0-3.5554 0.42242-6.1251 0.42242-6.7236 0-1.1265-0.80965-1.6545-1.6897-1.6545-1.0209 0-1.4785 0.66884-1.6545 1.7953-0.24641 1.5841-0.38722 4.0482-0.38722 5.8083 0 8.3429 1.7249 10.103 5.2803 10.103z"/>
  <path d="m71.466 33.473c0.80965 0 1.6897-0.70404 1.6897-1.5841v-20.417c0-0.91525-0.80965-1.6545-1.6897-1.6545-0.98566 0-1.6897 0.73924-1.6897 1.6545v20.417c0 0.88005 0.80965 1.5841 1.6897 1.5841z"/>
  <path d="m80.513 39.774c0.73924 0 1.3025-0.49283 1.5841-1.0913l9.3989-20.417c0.10561-0.21121 0.14081-0.49283 0.14081-0.70404 0-0.98566-0.70404-1.7249-1.5489-1.7249-0.73924 0-1.3377 0.49283-1.6193 1.0913l-4.4355 9.8214-4.9635-9.8214c-0.24641-0.49283-0.77444-1.0561-1.6193-1.0561-0.98566 0-1.7601 0.77444-1.7601 1.7249 0 0.31682 0.10561 0.63364 0.21121 0.84485l6.3012 12.285-3.0626 6.5828c-0.10561 0.24641-0.17601 0.52803-0.17601 0.73924 0 0.95045 0.70404 1.7249 1.5489 1.7249z"/>
 </g>
 <g fill="#2f2f2f" stroke-width="1.65" aria-label="17">
  <path d="m42.932 98.599h13.071c1.6504 0 3.1688-1.3864 3.1688-3.1688 0-1.7164-1.1883-3.1688-3.3008-3.1688h-2.7067l0.46212-34.065c0-1.5844-1.1883-3.1688-3.2348-3.1688-0.66017 0-1.7164 0.3961-2.2446 0.99026l-7.724 8.3842c-0.52814 0.59415-0.85822 1.3203-0.85822 2.1125 0 1.7164 1.3864 3.1688 3.1688 3.1688 0.85822 0 1.6504-0.26407 2.3106-0.92424l2.1786-2.3106-0.46212 25.813h-3.829c-1.8485 0-3.1688 1.4524-3.1688 3.1688 0 1.7825 1.3203 3.1688 3.1688 3.1688z"/>
  <path d="m69.141 98.929c0.92424 0 2.1786-0.3961 2.8387-1.7164l18.089-36.177c0.33008-0.66017 0.7922-1.6504 0.7922-2.3106 0-1.7825-1.3864-3.2348-3.1688-3.2348h-21.588c-1.7825 0-3.1688 1.5184-3.1688 3.1688 0 1.7825 1.3864 3.1688 3.1688 3.1688h16.504l-16.24 32.546c-0.33008 0.66017-0.3961 1.1223-0.3961 1.3864 0 1.6504 1.3864 3.1688 3.1688 3.1688z"/>
 </g>
</svg>
