<?xml version="1.0" encoding="UTF-8"?>
<svg clip-rule="evenodd" fill-rule="evenodd" stroke-linecap="round" stroke-linejoin="round" stroke-miterlimit="1.5" version="1.1" viewBox="0 0 128 128" xml:space="preserve" xmlns="http://www.w3.org/2000/svg" xmlns:xlink="http://www.w3.org/1999/xlink"><path d="m55.789 9.54c-4.553 0.655-8.937 1.3-13.551 0.957-9.665-0.719-22.021-4.17-30.15 2.961-7.266 6.373-3.566 19.664-3.269 27.967 0.316 8.824-3.434 17.093-3.467 25.835-0.028 7.519 3.936 14.24 4.045 21.74 0.138 9.556-1.533 21.173 6.872 27.993 8.986 7.291 20.122 1.056 30.13 0.295 10.028-0.762 18.942 1.358 28.789 2.587 10.975 1.371 22.987 1.952 34.015 0.928 10.066-0.935 14.951-8.872 12.874-18.496-2.346-10.873-7.949-21.005-11.24-31.611-1.641-5.286 4.365-9.694 4.917-15.27 0.919-9.293 2.187-20.52 3.651-29.736 0.769-4.841 0.903-10.407-2.029-14.635-5.535-7.982-14.054-3.756-21.612-2.794-7.345 0.934-19.317 1.364-26.692 1.327" fill="none" stroke="#424242" stroke-width="4"/><g transform="matrix(.94969 0 0 .94969 3.2201 3.2201)"><circle cx="64" cy="64" r="48" fill="none" stroke="#db4437" stroke-width="31.59"/></g><g transform="matrix(.16377 0 0 .16377 .61487 .28481)" fill="#fafafa"><path class="st0" d="m345.65 15.31c6.6-0.57 13.23-0.23 19.85-0.27 19.35-0.04 38.7 0.09 58.05-0.1 1.55 0.05 3.17-0.01 4.68 0.5 1.45 1.66 2.51 3.64 4.09 5.2 2.75 0.87 5.67 1.01 8.48 1.67 0.76 4.35 0.31 8.8 0.38 13.19-0.01 54-0.02 108 0 162-0.09 4.07 0.42 8.22-0.43 12.24-1.2 1.62-3.45 1.14-5.19 1.34-5.17-0.11-10.38 0.44-15.5-0.23-2.08-1.57-3.59-3.77-5.68-5.31-1.51-0.76-3.27-0.59-4.9-0.71-14.67-0.05-29.34-0.01-44-0.02-1.96 0.11-4.04-0.1-5.86 0.73-2.18 1.46-3.75 3.62-5.45 5.57-5.56-0.06-11.12 0.07-16.68-0.05-1.47-0.16-3.3 0.07-4.24-1.33-0.88-4.35-0.31-8.83-0.42-13.23-0.01-56.68 0.06-113.36-0.03-170.04 0.03-1.42 0.11-2.85 0.38-4.25 1.77-0.33 3.57-0.46 5.36-0.63-1.32 0.68-2.64 1.35-3.96 2.03 3.1-0.72 6.49-0.94 9.21-2.75 0.92-1.74 1.3-3.68 1.86-5.55z"/><path class="st0" d="m21.32 334.44c3.64-0.94 7.47-0.34 11.19-0.46 53.33 0.05 106.66 0.01 159.99 0.02 4.25 0.06 8.5-0.27 12.74 0.09 2.29 0.05 3.89 2.33 3.76 4.51 0.25 6.15 0.05 12.31 0.07 18.47-1.83 1.18-3.79 2.25-5.28 3.86-0.93 1.67-0.65 3.68-0.78 5.52 0.03 13.35 0.02 26.7 0.01 40.05 0.04 3.27-0.25 6.6 0.4 9.83 1.19 2.45 3.65 3.88 5.67 5.58-0.04 5.84 0.14 11.68-0.09 17.51-0.09 1.6-0.31 3.7-2.01 4.41-4.47 0.54-9 0.07-13.49 0.17-57.28 0.06-114.57-0.11-171.86 0.09-1.13-3.53-1.74-7.22-3.16-10.64-1.38-1.73-3.4-2.75-4.99-4.25-0.59-2.18-0.38-4.48-0.4-6.7 0.25-8.67 0.02-17.33-0.01-25.99-0.05-14 0.03-28-0.13-42-0.05-3.07 0.25-6.13 0.86-9.14 1.39-0.46 2.79-0.89 4.13-1.49 1.63-2.95 0.15-7.48 3.38-9.44z"/><path class="st0" d="m565.01 338.59c-0.15-2.17 1.46-4.44 3.75-4.5 3.9-0.35 7.83-0.06 11.74-0.09 53.33 0 106.66 0.01 159.99-0.01 4.06 0.07 8.18-0.38 12.21 0.32 2.2 2.33 1.69 6 2.32 8.96 2 0.88 4.02 1.72 6.06 2.54 0.07 21.89-0.05 43.79 0.01 65.69-0.06 6.98 0.27 13.98-0.23 20.95-1.61 0.49-3.23 0.94-4.74 1.68-1.79 2.88-0.16 7.48-3.43 9.44-3.65 0.93-7.48 0.34-11.19 0.45-57.64-0.03-115.28-0.02-172.92 0-2.19 0.36-3.54-1.81-3.5-3.74-0.37-6.1-0.09-12.22-0.16-18.33 1.71-1.3 3.57-2.48 4.95-4.16 1.21-1.84 1.01-4.15 1.13-6.24-0.03-15.04-0.04-30.07 0-45.1-0.06-1.59-0.03-3.2-0.45-4.73-1.58-2.13-3.8-3.67-5.39-5.78-0.63-5.74-0.2-11.58-0.15-17.35z"/><path class="st0" d="m335.01 567.18c6.28-0.39 12.66-0.58 18.94-0.02 2.1 1.59 3.64 3.81 5.77 5.38 1.53 0.43 3.14 0.4 4.73 0.46 13.35-0.04 26.69-0.04 40.04-0.01 3.27-0.04 6.59 0.23 9.83-0.38 2.22-1.48 3.66-3.82 5.73-5.47 5.13-0.64 10.34-0.1 15.5-0.21 2.14 0.16 5.15-0.23 6.29 2.09 0.51 4.13 0.08 8.32 0.16 12.48 0.03 56.34-0.04 112.68 0.04 169.02-0.06 1.78-0.15 3.72-1.34 5.17-2.41 1.21-5.2 1.24-7.73 2.11-1.45 1.38-2.03 3.41-3.16 5.05-1.07 0.19-2.14 0.29-3.22 0.31-23.7-0.1-47.39-0.13-71.09-0.02-3.63-0.07-7.35 0.35-10.9-0.56-1.41-1.45-2.27-3.32-3.56-4.86-2.52-0.98-5.61-0.27-7.81-1.99-0.82-4.36-0.31-8.83-0.4-13.23 0.02-53.33 0.01-106.67 0.01-160 0.05-4.25-0.27-8.51 0.13-12.74-0.07-1.22 0.74-2.51 2.04-2.58z"/></g></svg>
