<?xml version='1.0' encoding='utf-8'?>
<svg xmlns="http://www.w3.org/2000/svg" xmlns:ns1="http://sodipodi.sourceforge.net/DTD/sodipodi-0.dtd" xmlns:ns2="http://www.inkscape.org/namespaces/inkscape" xmlns:ns3="http://www.w3.org/1999/xlink" width="128" height="128" version="1.1" id="svg87" ns1:docname="emoji_u1f4d8.svg" ns2:version="1.2.2 (b0a8486541, 2022-12-01)" viewBox="0 0 128 128">
  <ns1:namedview id="namedview89" pagecolor="#ffffff" bordercolor="#666666" borderopacity="1.0" ns2:showpageshadow="2" ns2:pageopacity="0.0" ns2:pagecheckerboard="0" ns2:deskcolor="#d1d1d1" showgrid="false" ns2:zoom="6.1328125" ns2:cx="63.918471" ns2:cy="64.163057" ns2:window-width="1854" ns2:window-height="1011" ns2:window-x="0" ns2:window-y="0" ns2:window-maximized="1" ns2:current-layer="svg87" />
  <defs id="defs61">
    <linearGradient gradientTransform="translate(2.222 -8.517)" ns3:href="#a" id="b" x1="95.743" y1="70.878" x2="95.743" y2="82.469" gradientUnits="userSpaceOnUse" />
    <linearGradient id="a">
      <stop offset="0" stop-color="#fff" id="stop56" />
      <stop offset="1" stop-color="#fff" stop-opacity=".787" id="stop58" />
    </linearGradient>
  </defs>
  <path d="M110.03 113.945c-2.81.43-83.36 1.85-86.74.18-4.51-2.22-5.26-8.47-2.92-12.88 1.92-3.62 6.84-3.71 10.25-3.77 5.16-.09 74.56-.05 78.96.59.98.15 1.76.01 1.95 1.15.22 1.36-.36 3.04-.41 4.43-.07 1.68.16 3.34.36 5 .14 1.19.91 2.64.81 3.82-.09 1.13-1.32 1.34-2.26 1.48z" fill="#fff" id="path63" />
  <path style="line-height:normal;font-variant-ligatures:normal;font-variant-position:normal;font-variant-caps:normal;font-variant-numeric:normal;font-variant-alternates:normal;font-variant-east-asian:normal;font-feature-settings:normal;text-indent:0;text-align:start;text-decoration-line:none;text-decoration-style:solid;text-decoration-color:#000;text-transform:none;text-orientation:mixed;shape-padding:0;isolation:auto;mix-blend-mode:normal" d="M66.5 9.014c-5.69.03-11.391.1-17.082.21-5.218.101-10.411.13-15.57.358-2.528.116-5.14.393-7.772.625-5.281.476-10.429 2.938-12.847 7.379l-.002.002v.002c-1.07 1.977-1.644 4.421-2.008 6.896-1.029 6.984-1.656 14.039-2.104 21.125v.002c-.455 7.013-.505 14.073-.535 21.168v.002c-.03 8.654-.539 17.221-.539 25.711v.002c-.005 4.287-.155 8.587.504 12.408.659 3.82 2.035 7.101 5.146 9.81l.002.003c2.08 1.806 4.492 2.897 7.186 3.592h.004c-.036-.01 1.955.224 4.515.326 2.561.101 5.99.178 9.989.234 7.997.113 18.277.144 28.562.125 10.285-.019 20.577-.086 28.61-.168 8.033-.081 13.984-.188 14.982-.248 2.446-.145 5.445.068 7.658-.375 1.107-.221 1.947-.589 2.463-1.047.515-.457.848-.987.934-2.17.077-1.144-.846-2.945-1.815-4.799-1.038-1.97-1.976-4.24-2.11-6.779v-.006c-.121-2.48.535-4.583.766-6.357l.237-1.807 1.82.069c.678.025 1.683-.604 2.086-1.352l.004-.006.002-.006c.17-.308.388-1.362.394-2.523.006-1.161-.123-2.426-.236-3.38-.248-2.109-.248-4.111-.451-5.933v-.002c-.852-7.643-1.623-15.28-2.402-22.908v-.002c-1.03-10.222-2.04-20.423-3.217-30.601v-.002c-.51-4.45-.773-8.805-2.01-12.692-.943-2.961-2.872-4.101-5.727-4.83-2.854-.728-6.436-.72-9.626-.96-9.965-.747-19.82-1.146-29.811-1.096zm-23.44.912c4.452 0 8.814.166 12.868.1h.002c10.64-.163 21.13.872 31.504 1.15h.002c3.473.095 6.71.662 9.82.709h.004c3.287.041 7.563.27 10.472 3.537l.002.002c1.502 1.682 2.214 3.73 2.555 5.676h.002c.28 1.599.832 3.33 1.049 5.404v.004c1.076 10.129 1.676 20.258 2.394 30.34v.004c.33 4.462.678 8.904 1.116 13.326l.002.002v.004c.523 5.445.95 11.318.492 16.943v.006l-.002.008c-.041.462-.13.983-.346 1.523-.536 1.349-1.798 2.028-2.853 2.309-1.058.281-2.114.308-3.153.275-2.077-.065-4.294-.416-4.732-.424h-.002l-13.961-.24c-5.738-.1-11.478-.189-17.23-.29-5.87-.09-11.74-.19-17.596-.28-5.028-.08-10.038-.149-15.051-.229-3.196-.05-6.39-.091-9.576-.12h-.03c-.387-.01-.802-.01-1.232-.01-6.685 0-9.77 3.2-10.096 3.548-.03.142-.025.181-.14.568-.18.605-.503 1.765-1.92 2.247-.61.207-1.45.162-2.033-.141a2.768 2.768 0 0 1-1.108-1.053c-.415-.67-.515-1.204-.592-1.484l-.004-.01-.001-.01c-.463-1.772-.324-3.437-.305-4.74.03-2.584.201-5.077.24-7.517v-.002c.14-8.054.421-16.086.711-24.108v-.002c.3-8.096.64-16.183 1.02-24.27.14-2.999.28-5.995.45-8.997.102-1.834.058-3.762.66-5.713.604-1.952 2.122-3.854 4.589-4.834 5.535-2.202 11.551-2.936 17.535-3.14 1.496-.052 2.99-.071 4.475-.071zm64.598 82.18c.766.011 1.365.045 1.875.119h.004c.123.017.55.014 1.174.158.626.145 1.62.63 2.115 1.564l.008.012.006.014c.447.87.418 1.998.152 2.738v.002l-.002.004c-.45 1.24-.696 2.602-.806 4.013-.162 2.072-.34 4.015-.182 5.829v.002c.09.956.255 1.836.545 2.658.04.112.257.506.525 1.05.27.546.635 1.327.54 2.385v.016c-.125 1.264-1.126 2.313-1.948 2.709-.822.395-1.53.47-2.02.543-.485.074-.847.077-1.603.111-.761.035-1.777.071-3.021.11-2.489.077-5.883.162-9.887.246-8.008.167-18.452.333-28.916.433-10.465.1-20.948.135-29.045.04-4.049-.048-7.499-.128-10.074-.25a58.69 58.69 0 0 1-3.196-.221c-.841-.088-1.234-.007-2.177-.473-2.882-1.42-4.556-4.166-5.106-7.037-.55-2.871-.084-5.946 1.317-8.574v-.002c1.243-2.353 3.392-3.818 5.58-4.7 2.189-.882 4.472-1.225 6.398-1.26h.002c2.39-.041 21.268-.74 39.904-1.343 9.318-.302 18.613-.582 25.864-.746 3.625-.082 6.738-.134 9.097-.147 1.179-.006 2.111-.015 2.877-.004z" color="#000" font-weight="400" font-family="sans-serif" white-space="normal" overflow="visible" fill="#173479" stroke-width="4" id="path65" />
  <path d="M8.36 110.865c2.39 2.99 3.59-.6 3.59-.6.6-11.97 14.36-12.57 14.36-12.57 8.08-1.5 91.11-.39 91.11-.39 1.61.06 3.17-1.01 3.92-2.4.96-1.76.62-5.16.39-7.11-.23-1.95-.23-3.95-.45-5.92-.85-7.63-1.62-15.26-2.4-22.89-1.03-10.22-2.04-20.43-3.22-30.63-.5-4.37-.75-8.86-2.09-13.07-2.33-7.32-11-6.72-17.11-7.18-10.01-.75-19.92-1.15-29.97-1.1-5.7.03-11.41.1-17.11.21-5.2.1-10.41.13-15.62.36-2.61.12-5.25.4-7.86.63-5.78.52-11.6 3.22-14.43 8.42-1.25 2.31-1.85 4.98-2.23 7.56-1.04 7.07-1.67 14.18-2.12 21.3-.46 7.09-.51 14.19-.54 21.29-.03 8.58-.54 17.15-.54 25.72-.01 6.27-.37 12.9 2.28 18.41z" fill="#3666d9" id="path67" />
  <path d="M61.93 22.553c-25.447 0-26.53 28.91-26.635 35.198-.11 6.49 12.956 12.03 29.287 12.175 16.427.146 29.107-5.222 28.256-11.795-.824-6.36-5.222-35.578-30.908-35.578z" fill="none" stroke="#fff" stroke-width="1.6" id="path69" />
  <g stroke-width="2.261" id="g81">
    <path d="M76.272 45.165c.44.007.795.095 1.135.303.141.085.262.22.352.605.091.386.093.973-.045 1.641-.159.77-.5 1.64-.983 2.49-3.012.487-12.242 1.576-26.598-.217-.545-.825-.961-1.664-1.196-2.408-.21-.666-.274-1.25-.226-1.634.047-.383.151-.515.28-.599.417-.27.888-.332 1.558-.268.67.065 1.475.28 2.323.45v-.001c4.53.908 8.482.959 10.35.967 1.869.009 5.827-.007 10.286-.879v.001c.837-.163 1.624-.372 2.294-.431a4.6 4.6 0 0 1 .47-.02" fill="#fff" stroke-width="2.939" id="path71" />
    <path d="M61.93 22.553c25.687 0 30.085 29.219 30.908 35.578.852 6.573-11.829 11.94-28.255 11.795-16.331-.145-29.398-5.685-29.289-12.175.106-6.287 1.19-35.198 26.636-35.198" fill="#fcc21b" id="path73" />
    <path d="M76.644 39.61c.387.544 1.123.725 1.65.4.526-.325.639-1.023.262-1.567-.09-.131-2.277-3.185-6.446-3.195-4.167-.01-5.85 3.028-5.922 3.158-.292.541-.057 1.25.52 1.574.197.11.403.162.61.163.396.001.775-.196.97-.555.049-.093 1.19-2.082 4.007-2.074 2.82.004 4.28 2.007 4.349 2.096M47.411 39.913a1.163 1.163 0 0 0 1.589-.4c.045-.083 1.27-2.064 4.072-2.057 2.85.008 4.201 2.063 4.215 2.084.353.546 1.075.734 1.619.41.54-.319.695-1.026.34-1.569-.083-.13-2.099-3.172-6.242-3.182-4.133-.01-5.954 3.017-6.03 3.146-.316.544-.119 1.246.437 1.568" fill="#2f2f2f" id="path75" />
    <path d="M49.004 44.155c1.319-.895 3.016-.295 4.515.018 4.194.875 7.863.925 9.625.932 1.763.008 5.439-.012 9.56-.855 1.476-.301 3.122-.891 4.554.019 1.829 1.16.956 5.35-1.53 8.221-1.519 1.755-5.246 5.2-11.883 5.156-6.622-.044-10.71-3.525-12.413-5.291-2.78-2.886-4.103-7.06-2.428-8.2" fill="#ec6c31" stroke-width="11.303" id="path77" />
    <path d="M94.97 56.782c.948.014 1.715.213 2.449.68h.002c.303.194.563.496.76 1.365.199.87.205 2.196-.088 3.704-.079.408-.183.829-.303 1.258-8.009 2.872-18.953 4.454-30.469 4.402-11.48-.06-22.54-1.739-30.81-4.667-.171-.436-.325-.864-.45-1.278-.458-1.504-.599-2.824-.5-3.69.1-.863.324-1.163.599-1.351.9-.613 1.915-.751 3.36-.606 1.447.145 3.181.628 5.01 1.01 9.774 2.048 18.293 2.16 22.32 2.177 4.03.018 12.561-.019 22.167-1.987 1.802-.37 3.497-.84 4.941-.974a9.472 9.472 0 0 1 1.013-.043" fill="url(#b)" stroke-width="1.763" stroke-linejoin="round" transform="matrix(.44237 0 0 .44237 33.633 19.748)" id="path79" />
  </g>
</svg>