<?xml version="1.0" encoding="UTF-8" standalone="no"?>
<svg
   width="128"
   height="128"
   version="1.1"
   id="svg6"
   xmlns="http://www.w3.org/2000/svg"
   xmlns:svg="http://www.w3.org/2000/svg">
  <defs
     id="defs10" />
  <g
     aria-label="A"
     id="text4"
     style="line-height:1.25;fill:#40c0e7">
    <path
       d="m 98.879996,120.08 c 4.800004,0 8.000004,-3.68 8.000004,-7.68 0,-1.92 -0.48,-3.04 -1.12,-4.96 L 73.919996,15.119999 c -1.28,-3.84 -4.32,-5.2799999 -7.36,-5.2799999 -3.2,0 -6.24,1.7599999 -7.52,4.9599999 l -23.68,60.16 -5.92,1.28 c -3.52,0.8 -6.08,3.84 -6.08,7.68 0,3.36 1.6,5.76 4.16,7.04 0.48,0.32 0.96,0.48 1.44,0.64 l -6.4,16.000001 c -0.64,1.6 -1.12,3.36 -1.12,4.8 0,4.16 3.68,7.52 8,7.52 3.84,0 6.24,-2.4 7.36,-5.12 l 10.4,-26.240001 32.64,-7.2 11.52,33.280001 c 1.12,3.52 3.52,5.44 7.52,5.44 z m -44.96,-49.120001 12,-30.24 8.64,25.76 z"
       style="text-align:center;text-anchor:middle"
       id="path12" />
  </g>
</svg>
