<?xml version='1.0' encoding='UTF-8'?>
<svg xmlns="http://www.w3.org/2000/svg" xmlns:dc="http://purl.org/dc/elements/1.1/" xmlns:ns2="http://creativecommons.org/ns#" xmlns:rdf="http://www.w3.org/1999/02/22-rdf-syntax-ns#" version="1.1" id="svg12" viewBox="0 0 128 128">
  <metadata id="metadata18">
    <rdf:RDF>
      <ns2:Work rdf:about="">
        <dc:format>image/svg+xml</dc:format>
        <dc:type rdf:resource="http://purl.org/dc/dcmitype/StillImage"/>
      </ns2:Work>
    </rdf:RDF>
  </metadata>
  <defs id="defs16"/>
  <path d="M116 128H12c-6.6 0-12-5.4-12-12V12C0 5.4 5.4 0 12 0h104c6.6 0 12 5.4 12 12v104c0 6.6-5.4 12-12 12z" fill="#1bb7fc" id="path2"/>
  <path d="M124.48 3.52L3.52 124.48C5.7 126.65 8.7 128 12 128h104c6.6 0 12-5.4 12-12V12c0-3.3-1.35-6.3-3.52-8.48z" fill="#1b79fc" id="path4"/>
  <path d="M112 101c0 6.63-5.37 12-12 12H27.89c-6.6 0-12-5.4-12-12V28.9c0-6.6 5.4-12 12-12H100c6.63 0 12 5.37 12 12z" fill="#1ba2fc" id="path6"/>
  <g aria-label="1" id="text825" style="line-height:1.25;text-align:center;text-anchor:middle;fill:#ffffff;stroke-width:0.959">
    <path d="m 30.988604,94.660309 h 18.230454 c 2.301824,0 4.419503,-1.933533 4.419503,-4.419504 0,-2.393898 -1.657314,-4.419504 -4.603649,-4.419504 H 45.259919 L 45.90443,38.311634 c 0,-2.209752 -1.657314,-4.419504 -4.511577,-4.419504 -0.92073,0 -2.393898,0.552438 -3.130482,1.381095 L 27.48983,46.966496 c -0.736584,0.828657 -1.196949,1.84146 -1.196949,2.946336 0,2.393898 1.933533,4.419504 4.419504,4.419504 1.196949,0 2.301825,-0.368292 3.222555,-1.289022 l 3.038409,-3.222555 -0.644511,36.000542 h -5.340234 c -2.578044,0 -4.419504,2.025606 -4.419504,4.419504 0,2.485971 1.84146,4.419504 4.419504,4.419504 z" style="text-align:start;text-anchor:start" id="path13"/>
  </g>
  <g aria-label="0" id="text821" style="line-height:1.25;text-align:center;text-anchor:middle;fill:#ffffff;stroke-width:0.959">
    <path d="m 77.031555,95.212747 c 12.614001,0 22.926177,-14.915826 22.926177,-32.041403 0,-15.65241 -8.746935,-29.279214 -20.992644,-29.279214 -12.89022,0 -23.018249,15.284118 -23.018249,32.133476 0,15.468264 8.746934,29.187141 21.084716,29.187141 z m 0,-8.839008 c -7.273767,0 -12.337782,-9.851811 -12.337782,-20.532279 0,-12.614 6.537183,-23.110322 14.271315,-23.110322 7.089621,0 12.337782,9.759738 12.337782,20.624352 0,12.521927 -6.629256,23.018249 -14.271315,23.018249 z" style="text-align:start;text-anchor:start" id="path16"/>
  </g>
</svg>
