<?xml version='1.0' encoding='UTF-8'?>
<svg xmlns="http://www.w3.org/2000/svg" version="1.1" id="svg21" viewBox="0 0 128 128">
  <defs id="defs3">
    <path id="a" d="M0 0h128v128H0z"/>
  </defs>
  <path fill="#006ca2" d="M50.14 61.85h25.59L107.72 0H82.13z" id="path5"/>
  <path fill="#2f2f2f" d="M78.93 55.67l-12.8-24.75-12.79 24.75 3.2 6.18h19.19z" id="path7"/>
  <path d="M77.77 76.78H52.18V61.85h25.59zm0-21.33H52.18a6.4 6.4 0 0 0-6.4 6.4v14.93c0 3.54 2.86 6.4 6.4 6.4h25.59c3.54 0 6.4-2.86 6.4-6.4V61.85c0-3.54-2.86-6.4-6.4-6.4" fill="#f79329" id="path9"/>
  <path d="M96.97 95.97c0 17.67-14.32 31.99-31.99 31.99-17.67 0-31.99-14.32-31.99-31.99 0-17.67 14.32-31.99 31.99-31.99 17.67 0 31.99 14.33 31.99 31.99" fill="#f79329" id="path11"/>
  <path d="M43.53 88.19c-.42 0-.84-.08-1.24-.26-1.54-.66-2.28-2.45-1.68-4.01.01-.03.02-.05.03-.07.01-.05.01-.04.04-.08A22.803 22.803 0 0 1 56.56 70.4c.35-.08.72.09.88.42.16.33.07.73-.22.96-4.67 3.71-8.4 8.72-10.79 14.47 0 .01-.01.02-.01.02 0 .01 0 .01-.01.02-.33.77-.94 1.37-1.72 1.67-.37.16-.77.23-1.16.23" fill="#fff" id="path13"/>
  <path fill="#006ca2" d="M77.86 61.85H52.27L20.28 0h25.59z" id="path15"/>
  <g aria-label="3" id="text19" style="line-height:1.25;fill:#ae3d09">
    <path d="m 62.786999,109.455 c 3.68,0 8.44,-2.36 8.44,-8.32 0,-2.720004 -1.12,-5.040004 -3.36,-6.520004 1.72,-1.36 2.76,-3.2 2.76,-5.36 0,-3.64 -3.44,-6.44 -7.88,-6.44 -2.28,0 -4.24,0.8 -5.4,1.52 -1.36,0.84 -1.64,1.56 -1.64,2.2 0,0.92 0.6,1.92 1.92,1.92 0.52,0 0.76,-0.2 1.24,-0.52 0.68,-0.44 1.88,-1.24 3.88,-1.24 2.6,0 4.04,1.32 4.04,2.56 0,1.92 -2.48,3.56 -4.64,3.56 -1.12,0 -1.96,0.84 -1.96,1.92 0,1.04 0.84,1.92 1.92,1.92 1.48,0 5.24,0.8 5.24,4.480004 0,3.08 -2.48,4.48 -4.64,4.48 -2.72,0 -4.08,-1.8 -4.48,-2.52 -0.36,-0.64 -0.88,-1.04 -1.68,-1.04 -1.08,0 -1.92,0.8 -1.92,1.84 0,0.24 0.12,0.76 0.32,1.2 1.16,2.56 4.4,4.36 7.84,4.36 z" id="path25"/>
  </g>
</svg>
