<?xml version="1.0" encoding="UTF-8" standalone="no"?>
<svg
   width="100%"
   height="100%"
   viewBox="0 0 128 128"
   version="1.1"
   xml:space="preserve"
   style="fill-rule:evenodd;clip-rule:evenodd;stroke-linejoin:round;stroke-miterlimit:2"
   id="svg24"
   xmlns="http://www.w3.org/2000/svg"
   xmlns:svg="http://www.w3.org/2000/svg"><defs
   id="defs28" />
    <path
   d="M128,12.8C128,5.735 122.265,0 115.2,0L12.8,0C5.735,0 0,5.735 0,12.8L0,115.2C0,122.265 5.735,128 12.8,128L115.2,128C122.265,128 128,122.265 128,115.2L128,12.8Z"
   style="fill:rgb(28,97,146)"
   id="path2" />
    <g
   transform="translate(75.3126,54.5493)"
   id="g7">
        <g
   id="text835">
            <g
   aria-label="B"
   id="text4"
   style="fill:#ffffff"><path
     d="m 8.796487,0.529112 c 19.8417,0 29.299577,-5.224981 29.299577,-14.219885 0,-5.092703 -2.182587,-8.531931 -6.680039,-10.648379 1.719614,-1.851892 3.042394,-4.563591 3.042394,-8.267375 0,-6.018649 -5.092703,-11.706603 -15.013553,-11.706603 H 8.201236 c -1.719614,0 -3.240811,1.521197 -3.240811,3.240811 v 37.963786 c 0,2.447143 0.925946,3.637645 3.836062,3.637645 z m 2.777838,-26.918573 v -11.574325 h 7.870541 c 5.621815,0 8.465792,2.513282 8.465792,5.423398 0,3.042394 -2.447143,6.150927 -6.217066,6.150927 z m 0,20.635368 v -14.286024 h 10.119267 c 6.481622,0 9.854711,2.711699 9.854711,6.349344 0,5.357259 -9.127182,7.738263 -19.973978,7.93668 z"
     id="path30" /></g>
        </g>
    </g>
    <g
   transform="translate(11.0958,118.519)"
   id="g12">
        <g
   id="text893">
            <g
   aria-label="C"
   id="text9"
   style="fill:#ffffff"><path
     d="m 21.958148,0.396834 c 6.415483,0 12.235715,-2.711699 15.87336,-7.870541 0.462973,-0.66139 0.595251,-1.32278 0.595251,-1.98417 0,-2.116448 -1.587336,-3.30695 -3.30695,-3.30695 -0.992085,0 -1.785753,0.264556 -2.579421,1.32278 -2.116448,2.777838 -5.357259,5.489537 -10.58224,5.489537 -6.878456,0 -12.698688,-4.960425 -12.698688,-13.558495 0,-9.590155 6.746178,-18.783476 13.558495,-18.783476 3.571506,0 5.621815,1.124363 7.010734,2.579421 v 0.462973 c 0,1.388919 1.32278,2.64556 3.108533,2.64556 1.851892,0 3.30695,-1.521197 3.30695,-3.30695 v -4.232896 c 0,-1.653475 -1.256641,-3.042394 -3.042394,-3.042394 -0.925946,0 -1.587336,0.396834 -1.98417,0.793668 -1.98417,-1.190502 -4.960425,-2.314865 -7.93668,-2.314865 -10.119267,0 -20.635368,11.971159 -20.635368,25.198959 0,12.56641 8.796487,19.907839 19.312588,19.907839 z"
     id="path33" /></g>
        </g>
    </g>
    <g
   transform="translate(11.3273,54.8139)"
   id="g17">
        <g
   id="text917">
            <g
   aria-label="A"
   id="text14"
   style="fill:#ffffff"><path
     d="m 32.672666,0.462973 c 1.98417,0 3.30695,-1.521197 3.30695,-3.174672 0,-0.793668 -0.198417,-1.256641 -0.462973,-2.050309 L 22.354982,-42.924211 c -0.529112,-1.587336 -1.785753,-2.182587 -3.042394,-2.182587 -1.32278,0 -2.579421,0.727529 -3.108533,2.050309 l -9.788572,24.868264 -2.447143,0.529112 c -1.455058,0.330695 -2.513282,1.587336 -2.513282,3.174672 0,1.388919 0.66139,2.381004 1.719614,2.910116 0.198417,0.132278 0.396834,0.198417 0.595251,0.264556 l -2.64556,6.6139 c -0.264556,0.66139 -0.462973,1.388919 -0.462973,1.98417 0,1.719614 1.521197,3.108533 3.30695,3.108533 1.587336,0 2.579421,-0.992085 3.042394,-2.116448 l 4.299035,-10.846796 13.492356,-2.976255 4.762008,13.756912 c 0.462973,1.455058 1.455058,2.248726 3.108533,2.248726 z M 14.087607,-19.8417 l 4.960425,-12.500271 3.571506,10.648379 z"
     id="path36" /></g>
        </g>
    </g>
    <g
   transform="translate(75.0811,117.857)"
   id="g22">
        <g
   id="text921">
            <g
   aria-label="D"
   id="text19"
   style="fill:#ffffff"><path
     d="m 15.410387,0.793668 c 12.764827,0 23.14865,-6.283205 23.14865,-20.701507 0,-20.833785 -19.709422,-24.405291 -30.291662,-24.405291 -1.851892,0 -3.30695,1.388919 -3.30695,3.240811 v 37.500813 c 0,1.455058 1.124363,2.777838 2.513282,3.240811 0.595251,0.198417 4.299035,1.124363 7.93668,1.124363 z m 0,-6.6139 c -1.32278,0 -2.711699,-0.198417 -3.836062,-0.396834 v -31.349886 c 11.045213,0.859807 20.370812,5.423398 20.370812,17.659113 0,9.457877 -6.481622,14.087607 -16.53475,14.087607 z"
     id="path39" /></g>
        </g>
    </g>
</svg>
