<?xml version='1.0' encoding='UTF-8'?>
<svg xmlns="http://www.w3.org/2000/svg" version="1.1" id="svg6" viewBox="0 0 128 128">
  <defs id="defs10"/>
  <g aria-label="J" id="text4" style="line-height:1.25;fill:#40c0e7">
    <path d="m 59.759946,119.92 c 18.4,0 29.28,-11.68 29.28,-27.360001 v -63.52 h 0.48 c 4,0 7.36,-3.52 7.36,-7.84 0,-4.16 -3.68,-7.84 -7.84,-7.84 h -30.56 c -4.48,0 -8.16,3.68 -8.16,7.84 0,4.48 3.68,8 8.16,8 h 14.56 v 63.36 c 0,6.4 -4.16,11.360001 -13.28,11.360001 -10.56,0 -14.24,-5.600001 -14.24,-13.280001 0,-4.48 -3.52,-8 -8,-8 -4.96,0 -8,3.68 -8,8.32 0,13.280001 8.16,28.960001 30.24,28.960001 z" style="text-align:center;text-anchor:middle" id="path12"/>
  </g>
</svg>
