<svg version="1.1" xmlns="http://www.w3.org/2000/svg" xmlns:xlink="http://www.w3.org/1999/xlink" width="80.81034" height="109.14929" viewBox="0,0,80.81034,109.14929"><g transform="translate(-199.59483,-125.42535)"><g data-paper-data="{&quot;isPaintingLayer&quot;:true}" fill-rule="nonzero" stroke="none" stroke-width="1" stroke-linecap="butt" stroke-linejoin="miter" stroke-miterlimit="10" stroke-dasharray="" stroke-dashoffset="0" style=""><path d="M278.25112,163.50736c-2.15535,2.784 -50.11194,63.04405 -53.16536,66.99553c-2.8738,3.68206 -22.09236,7.0947 -23.97829,-0.35923c-0.35923,-1.16748 -0.98787,-4.75974 -1.4369,-7.18451c-0.80826,-4.75974 5.11896,-6.82528 5.11896,-6.82528l0.80826,-68.79166c-9.16025,-3.68206 -9.07044,-21.64333 9.42967,-21.91275c9.42967,-0.08981 14.99766,1.25729 21.91275,7.36412c3.59225,3.05342 6.10683,7.0947 8.62141,10.50734c5.47819,7.36412 12.57289,1.70632 18.50011,0.53884c14.0996,-2.69419 19.8472,12.66269 14.1894,19.66759zM263.61269,156.50246c0,0 -4.2209,1.52671 -5.74761,2.06555c-6.91509,2.51458 -15.26708,1.88593 -19.66759,-1.52671c-1.79613,-1.4369 -9.07044,-7.36412 -11.58502,-9.51947c-2.24516,-1.88593 -6.46606,-2.42477 -7.45393,-1.79613c-0.53884,0.35923 -1.16748,0.62864 -1.70632,0.80826l0.26942,56.48819c0,0.08981 0.08981,0.17961 0.17961,0.08981c3.14322,-2.96361 45.08278,-42.74782 46.42988,-44.18472c1.25729,-1.25729 0.17961,-2.8738 -0.71845,-2.42477z" fill="#fca31c"/><g><path d="M227.57047,199.35045v-56.35112c0,-0.65525 -1.4561,-0.65525 -1.4561,0v56.35112c0,0.58244 1.4561,0.58244 1.4561,0zM232.23,193.08922v-47.3961c0,-0.65525 1.4561,-0.65525 1.4561,0v47.3961c0,0.58244 -1.4561,0.65525 -1.4561,0zM237.61757,187.55603v-35.60168c0,-0.65525 1.4561,-0.65525 1.4561,0v35.60168c0,0.58244 -1.3833,0.58244 -1.4561,0zM243.22356,181.65883v-25.19055c0,-0.65525 1.4561,-0.65525 1.4561,0v25.19055c0,0.58244 -1.4561,0.58244 -1.4561,0zM249.19358,175.68881v-17.40041c0,-0.65525 1.4561,-0.65525 1.4561,0v17.3276c0,0.58244 -1.4561,0.65525 -1.4561,0.07281zM254.94517,169.50038v-12.59528c0,-0.65525 1.4561,-0.65525 1.4561,0v12.59528c0,0.58244 -1.4561,0.58244 -1.4561,0z" fill="#6ca4ae"/><path d="M225.02229,142.12568c0,-1.00523 0.8149,-1.82012 1.82012,-1.82012c1.00523,0 1.82012,0.8149 1.82012,1.82012c0,1.00523 -0.8149,1.82012 -1.82012,1.82012c-1.00523,0 -1.82012,-0.8149 -1.82012,-1.82012z" fill="#464c50"/><path d="M231.21073,145.18349c0,-0.96502 0.7823,-1.74732 1.74732,-1.74732c0.96502,0 1.74732,0.7823 1.74732,1.74732c0,0.96502 -0.7823,1.74732 -1.74732,1.74732c-0.96502,0 -1.74732,-0.7823 -1.74732,-1.74732z" fill="#464c50"/><path d="M236.67111,151.0807c0,-0.96502 0.7823,-1.74732 1.74732,-1.74732c0.96502,0 1.74732,0.7823 1.74732,1.74732c0,0.96502 -0.7823,1.74732 -1.74732,1.74732c-0.96502,0 -1.74732,-0.7823 -1.74732,-1.74732z" fill="#464c50"/><path d="M242.3499,155.95864c0,-0.8846 0.71711,-1.60171 1.60171,-1.60171c0.8846,0 1.60171,0.71711 1.60171,1.60171c0,0.8846 -0.71711,1.60171 -1.60171,1.60171c-0.8846,0 -1.60171,-0.71711 -1.60171,-1.60171z" fill="#464c50"/><path d="M248.39272,157.48754c0,-0.8444 0.68451,-1.52891 1.52891,-1.52891c0.8444,0 1.52891,0.68451 1.52891,1.52891c0,0.8444 -0.68451,1.52891 -1.52891,1.52891c-0.8444,0 -1.52891,-0.68451 -1.52891,-1.52891z" fill="#464c50"/><path d="M254.14432,156.39547c0,-0.8444 0.68451,-1.52891 1.52891,-1.52891c0.8444,0 1.52891,0.68451 1.52891,1.52891c0,0.8444 -0.68451,1.52891 -1.52891,1.52891c-0.8444,0 -1.52891,-0.68451 -1.52891,-1.52891z" fill="#464c50"/></g></g></g></svg>