<?xml version='1.0' encoding='UTF-8'?>
<svg xmlns="http://www.w3.org/2000/svg" version="1.1" id="svg10" viewBox="0 0 128 128">
  <defs id="defs14"/>
  <path fill="#fcc21b" d="M9.6 114.26L64 20.03l54.41 94.23z" id="path2"/>
  <path d="M127.07 115.93L66.89 11.7c-.6-1.03-1.7-1.67-2.89-1.67-1.19 0-2.29.64-2.88 1.67L.93 115.93c-.6 1.03-.6 2.3 0 3.34.6 1.03 1.7 1.66 2.89 1.66h120.36c1.19 0 2.29-.63 2.89-1.66.59-1.04.59-2.31 0-3.34zM9.6 114.26L64 20.03l54.41 94.23H9.6z" fill="#2f2f2f" id="path4"/>
  <g aria-label="!" id="text8" style="line-height:1.25;fill:#2f2f2f;stroke-width:5.566">
    <path d="m 67.689039,94.137553 c 2.909312,0 5.091296,-2.285888 5.091296,-5.091296 V 46.653426 c 0,-2.701504 -2.181984,-5.1952 -5.091296,-5.1952 -2.805408,0 -5.091296,2.493696 -5.091296,5.1952 v 42.392831 c 0,2.805408 2.285888,5.091296 5.091296,5.091296 z m -0.831232,17.455877 c 3.013216,0 6.130336,-2.90932 6.130336,-6.75376 0,-3.01322 -2.181984,-5.818629 -5.403008,-5.818629 -3.11712,0 -6.130336,3.221029 -6.130336,6.753759 0,3.22103 2.181984,5.81863 5.403008,5.81863 z" id="path16"/>
  </g>
</svg>
