<?xml version="1.0" encoding="UTF-8" standalone="no"?>
<svg
   width="128"
   height="128"
   version="1.1"
   id="svg8"
   xmlns="http://www.w3.org/2000/svg"
   xmlns:svg="http://www.w3.org/2000/svg">
  <defs
     id="defs12" />
  <g
     aria-label="END"
     id="text4"
     style="line-height:1.25;fill:#78a3ad">
    <path
       d="m 30.775,119.322 h 15.88 c 1.12,0 1.96,-0.88 1.96,-2 0,-1.12 -0.84,-2 -1.96,-2 h -13.92 v -7.96 h 12.16 c 1.12,0 1.96,-0.88 1.96,-2 0,-1.12 -0.84,-1.96 -1.96,-1.96 h -12.16 v -6.880001 h 14 c 1.12,0 1.96,-0.92 1.96,-2 0,-1.12 -0.84,-2 -1.96,-2 h -15.96 c -1.12,0 -2,0.88 -2,2 V 117.322 c 0,1.12 0.88,2 2,2 z"
       
       id="path14" />
    <path
       d="m 54.455016,119.562 c 1.08,0 2,-0.84 2,-1.96 l 0.04,-16.96 12.48,18.04 c 0.4,0.56 1.04,0.88 1.64,0.88 1.08,0 1.96,-0.8 1.96,-1.96 V 94.281999 c 0,-1.08 -0.92,-2 -1.96,-2 -1.12,0 -2,0.92 -2,2 V 111.282 l -12.52,-18.120001 c -0.36,-0.52 -1.04,-0.84 -1.64,-0.84 -1.12,0 -1.92,0.92 -1.92,1.96 l -0.04,23.320001 c 0,1.04 0.92,1.96 1.96,1.96 z"
       
       id="path16" />
    <path
       d="m 84.895033,119.802 c 7.72,0 14,-3.8 14,-12.52 0,-12.600001 -11.92,-14.760001 -18.32,-14.760001 -1.12,0 -2,0.84 -2,1.96 V 117.162 c 0,0.88 0.68,1.68 1.52,1.96 0.36,0.12 2.6,0.68 4.8,0.68 z m 0,-4 c -0.8,0 -1.64,-0.12 -2.32,-0.24 V 96.601999 c 6.68,0.52 12.32,3.28 12.32,10.680001 0,5.72 -3.92,8.52 -10,8.52 z"
       
       id="path18" />
  </g>
  <path
     d="M16.32 48.58L62 14.78V36h50v26H63v20.4z"
     fill="#bdcf46"
     id="path6" />
</svg>
