<?xml version="1.0" encoding="UTF-8" standalone="no"?>
<svg
   width="128"
   height="128"
   version="1.1"
   id="svg14"
   xmlns="http://www.w3.org/2000/svg"
   xmlns:svg="http://www.w3.org/2000/svg">
  <defs
     id="defs18" />
  <path
     d="M122.12 15.28c-1.06 1.55-3.43 3.99-4.66 5.71-1.23 1.71-2.36 3.37-3.41 4.97-1.05 1.6-2.03 3.16-2.94 4.68-.91 1.52-1.77 3-2.57 4.45-.8 1.45-1.56 2.88-2.28 4.3-.72 1.42-1.4 2.82-2.04 4.22-.65 1.4-1.26 2.8-1.85 4.21-.59 1.41-1.16 2.84-1.7 4.28-.54 1.44-1.06 2.92-1.56 4.42-.5 1.51-.97 3.05-1.42 4.64-.45 1.59-.87 3.22-1.27 4.92-.4 1.69-.76 3.44-1.09 5.26-2.47-.61-4.65-1.12-6.69-1.57-2.04-.45-3.93-.85-5.84-1.24a293.82 293.82 0 0 0-12.89-2.3c.34-1.84.71-3.61 1.11-5.33.4-1.72.82-3.38 1.26-5 .44-1.62.91-3.19 1.39-4.73.48-1.54.99-3.04 1.51-4.51.52-1.47 1.07-2.92 1.63-4.36.56-1.44 1.15-2.85 1.76-4.27.61-1.41 1.25-2.82 1.91-4.24.66-1.42 1.36-2.84 2.1-4.27.73-1.44 1.5-2.89 2.32-4.37a159.9 159.9 0 0 1 5.55-9.29c1.05-1.63 2.17-3.31 3.38-5.04s2.5-3.52 3.9-5.38c2.47.94 4.6 1.78 6.57 2.58a287.146 287.146 0 0 1 10.97 4.73c1.89.86 4.12 1.34 6.85 2.53z"
     fill="#e1e1e1"
     id="path2" />
  <g
     aria-label="The Blob is here to stay!"
     transform="rotate(-61.307)"
     id="text6"
     style="line-height:25px;fill:none;stroke:#000000">
    <path
       d="m -32.103915,102.14 c 0.120006,0 0.213344,-0.1 0.213344,-0.21334 v -3.87353 h 1.260063 c 0.120006,0 0.206677,-0.09334 0.206677,-0.206677 0,-0.120006 -0.08667,-0.213344 -0.206677,-0.213344 h -2.940147 c -0.113339,0 -0.213344,0.09334 -0.213344,0.213344 0,0.113339 0.100005,0.206677 0.213344,0.206677 h 1.260063 v 3.87353 c 0,0.11334 0.09334,0.21334 0.206677,0.21334 z"
       style="line-height:24px;fill:#51004e;stroke:none"
       id="path20" />
    <path
       d="m -29.630462,102.14667 c 0.113339,0 0.206677,-0.08 0.206677,-0.22001 v -1.08006 c 0,-0.22001 0.02,-0.41335 0.100005,-0.57336 0.100005,-0.21334 0.606697,-1.066719 1.153391,-1.066719 0.226678,0 0.513359,0.206677 0.513359,1.893429 0,0.40669 -0.01333,0.7267 -0.01333,0.84004 0,0.10667 0.100005,0.20001 0.206677,0.20001 0.113339,0 0.193343,-0.0867 0.20001,-0.20001 0.02,-0.22668 0.02,-0.44669 0.02,-0.88671 0,-1.506742 -0.220011,-2.260113 -0.893378,-2.260113 -0.526693,0 -1.040052,0.520026 -1.286731,1.026718 v -2.046769 c 0,-0.113339 -0.08,-0.213344 -0.206677,-0.213344 -0.120006,0 -0.213344,0.100005 -0.213344,0.213344 v 4.166874 c 0,0.10667 0.100005,0.20668 0.213344,0.20668 z"
       style="line-height:24px;fill:#51004e;stroke:none"
       id="path22" />
    <path
       d="m -24.82356,102.14 c 0.406687,0 0.86671,-0.21334 1.100055,-0.48002 0.02667,-0.0333 0.05334,-0.0867 0.05334,-0.13334 0,-0.11334 -0.08667,-0.20001 -0.20001,-0.20001 -0.05334,0 -0.106672,0.0267 -0.13334,0.0667 -0.180009,0.19334 -0.53336,0.36001 -0.826708,0.36001 -0.513359,0 -0.900045,-0.22001 -1.126723,-0.64669 l 2.06677,-1.180063 c 0.113339,-0.06667 0.160008,-0.140007 0.160008,-0.213344 0,-0.293348 -0.393353,-0.900045 -1.253396,-0.900045 -0.906712,0 -1.500075,0.820041 -1.500075,1.726752 0,0.86004 0.653366,1.60008 1.660083,1.60008 z m -1.260063,-1.40674 c -0.01333,-0.08 -0.01333,-0.14 -0.01333,-0.21334 0.01333,-0.726703 0.46669,-1.313399 1.120056,-1.313399 0.460023,0 0.713369,0.160008 0.833375,0.453356 z"
       style="line-height:24px;fill:#51004e;stroke:none"
       id="path24" />
    <path
       d="m -20.396679,102.15333 c 2.020101,0 3.00015,-0.51335 3.00015,-1.38673 0,-0.54003 -0.293348,-0.900046 -0.833375,-1.100056 0.226678,-0.166675 0.440022,-0.460023 0.440022,-0.93338 0,-0.520026 -0.453356,-1.113389 -1.46674,-1.113389 h -1.20006 c -0.113339,0 -0.213344,0.100005 -0.213344,0.213344 v 4.066871 c 0,0.16667 0.08,0.25334 0.273347,0.25334 z m 0.160008,-2.600125 v -1.526743 h 0.980049 c 0.660033,0 1.046719,0.313349 1.046719,0.726703 0,0.40002 -0.326683,0.80004 -0.773372,0.80004 z m 0,2.200105 v -1.793418 h 1.313399 c 0.673367,0 1.100055,0.333348 1.100055,0.806708 0,0.6867 -1.106722,0.98005 -2.413454,0.98671 z"
       style="line-height:24px;fill:#51004e;stroke:none"
       id="path26" />
    <path
       d="m -16.35647,102.14 c 0.100005,0 0.206677,-0.0867 0.206677,-0.18668 v -4.193538 c 0,-0.113339 -0.100005,-0.20001 -0.206677,-0.20001 -0.120006,0 -0.213344,0.08667 -0.213344,0.20001 v 4.193538 c 0,0.10001 0.106672,0.18668 0.213344,0.18668 z"
       style="line-height:24px;fill:#51004e;stroke:none"
       id="path28" />
    <path
       d="m -13.969685,102.14 c 0.840042,0 1.553411,-0.82004 1.553411,-1.80009 0,-0.853375 -0.586696,-1.526742 -1.346734,-1.526742 -0.900045,0 -1.560078,0.893378 -1.560078,1.793422 0,0.86004 0.586696,1.53341 1.353401,1.53341 z m 0.02667,-0.38002 c -0.493358,0 -0.946714,-0.45335 -0.946714,-1.16672 0,-0.726706 0.493358,-1.400073 1.093388,-1.400073 0.540027,0 0.953381,0.553361 0.953381,1.180063 0,0.74003 -0.520026,1.38673 -1.100055,1.38673 z"
       style="line-height:24px;fill:#51004e;stroke:none"
       id="path30" />
    <path
       d="m -11.376227,102.14 c 0.113339,0 0.20001,-0.0933 0.20001,-0.18001 v -0.0533 c 0.20001,0.0867 0.553361,0.18667 0.880044,0.18667 1.0067169,0 1.4534058,-0.75337 1.4534058,-1.76009 0,-0.906708 -0.4733569,-1.466736 -1.1667248,-1.466736 -0.446689,0 -0.873377,0.186676 -1.160058,0.513359 v -1.633415 c 0,-0.113339 -0.100005,-0.186676 -0.20001,-0.186676 -0.113339,0 -0.213344,0.07334 -0.213344,0.186676 v 4.200212 c 0,0.10667 0.100005,0.19334 0.206677,0.19334 z m 1.026718,-0.44669 c -0.353351,0 -0.700035,-0.11334 -0.820041,-0.16667 v -1.34007 c 0,-0.500025 0.506692,-0.900045 1.153391,-0.900045 0.4600229,0 0.7733719,0.373352 0.7733719,1.046715 0,0.82004 -0.293348,1.36007 -1.1067219,1.36007 z"
       style="line-height:24px;fill:#51004e;stroke:none"
       id="path32" />
    <path
       d="m -5.5292719,98.286475 c 0.106672,0 0.206677,-0.08 0.206677,-0.20001 l 0.00667,-0.273347 c 0,-0.100005 -0.093338,-0.206677 -0.20001,-0.206677 -0.106672,0 -0.213344,0.09334 -0.213344,0.20001 l -0.00667,0.273347 c 0,0.113339 0.093338,0.206677 0.206677,0.206677 z M -5.5692739,102.14 c 0.113339,0 0.213344,-0.1 0.213344,-0.21334 l 0.040002,-2.893481 c 0,-0.120006 -0.093338,-0.220011 -0.213344,-0.220011 -0.113339,0 -0.220011,0.100005 -0.220011,0.220011 l -0.040002,2.893481 c 0,0.11334 0.100005,0.21334 0.220011,0.21334 z"
       style="line-height:24px;fill:#51004e;stroke:none"
       id="path34" />
    <path
       d="m -3.4225041,102.15333 c 0.706702,0 1.146724,-0.50002 1.146724,-0.98671 0,-0.50669 -0.26668,-0.70004 -1.026718,-0.95338 -0.526693,-0.17334 -0.760038,-0.300017 -0.760038,-0.586698 0,-0.280014 0.26668,-0.446689 0.753371,-0.446689 0.453356,0 0.646699,0.153341 0.646699,0.386686 0,0.06 -0.020001,0.09334 -0.020001,0.146674 0,0.100005 0.086671,0.186676 0.206677,0.186676 0.126673,0 0.206677,-0.106672 0.206677,-0.326683 0,-0.460023 -0.366685,-0.760038 -1.040052,-0.760038 -0.760038,0 -1.146724,0.340017 -1.146724,0.806707 0,0.486695 0.313349,0.746705 1.020051,0.966715 0.633365,0.18668 0.766705,0.33335 0.766705,0.60003 0,0.31335 -0.300015,0.5867 -0.73337,0.5867 -0.433355,0 -0.726703,-0.20668 -0.853376,-0.56003 -0.026668,-0.0933 -0.093338,-0.14001 -0.186676,-0.14001 -0.113339,0 -0.20001,0.0867 -0.20001,0.20001 0,0.26001 0.393353,0.88004 1.220061,0.88004 z"
       style="line-height:24px;fill:#51004e;stroke:none"
       id="path36" />
    <path
       d="m 0.93771187,102.14667 c 0.11333903,0 0.20667703,-0.08 0.20667703,-0.22001 v -1.08006 c 0,-0.22001 0.020001,-0.41335 0.100005,-0.57336 0.100005,-0.21334 0.6066969,-1.066719 1.1533909,-1.066719 0.226678,0 0.513359,0.206677 0.513359,1.893429 0,0.40669 -0.013334,0.7267 -0.013334,0.84004 0,0.10667 0.100005,0.20001 0.206677,0.20001 0.113339,0 0.193343,-0.0867 0.20001,-0.20001 0.020001,-0.22668 0.020001,-0.44669 0.020001,-0.88671 0,-1.506742 -0.220011,-2.260113 -0.893378,-2.260113 -0.526693,0 -1.0400519,0.520026 -1.2867309,1.026718 v -2.046769 c 0,-0.113339 -0.080004,-0.213344 -0.20667703,-0.213344 -0.120006,0 -0.213344,0.100005 -0.213344,0.213344 v 4.166874 c 0,0.10667 0.100005,0.20668 0.213344,0.20668 z"
       style="line-height:24px;fill:#51004e;stroke:none"
       id="path38" />
    <path
       d="m 5.7446161,102.14 c 0.4066869,0 0.8667099,-0.21334 1.1000549,-0.48002 0.026668,-0.0333 0.053336,-0.0867 0.053336,-0.13334 0,-0.11334 -0.086671,-0.20001 -0.20001,-0.20001 -0.053336,0 -0.106672,0.0267 -0.13334,0.0667 -0.180009,0.19334 -0.53336,0.36001 -0.8267079,0.36001 -0.513359,0 -0.900045,-0.22001 -1.126723,-0.64669 L 6.677996,99.926557 c 0.113339,-0.06667 0.160008,-0.140007 0.160008,-0.213344 0,-0.293348 -0.393353,-0.900045 -1.2533959,-0.900045 -0.906712,0 -1.500075,0.820041 -1.500075,1.726752 0,0.86004 0.653366,1.60008 1.660083,1.60008 z m -1.260063,-1.40674 c -0.013334,-0.08 -0.013334,-0.14 -0.013334,-0.21334 0.013334,-0.726703 0.46669,-1.313399 1.120056,-1.313399 0.4600229,0 0.7133689,0.160008 0.8333749,0.453356 z"
       style="line-height:24px;fill:#51004e;stroke:none"
       id="path40" />
    <path
       d="m 7.8513853,102.14 c 0.106672,0 0.206677,-0.0933 0.206677,-0.19334 l 0.00667,-1.47341 c 0,-0.22668 0.086671,-0.526692 0.226678,-0.706701 0.226678,-0.300015 0.5133589,-0.560028 0.8133739,-0.560028 0.180009,0 0.226678,0.08667 0.226678,0.193343 v 0.153341 c 0,0.100005 0.046669,0.206677 0.193343,0.206677 0.120006,0 0.206677,-0.08667 0.206677,-0.20001 v -0.213344 c 0,-0.253346 -0.120006,-0.553361 -0.553361,-0.553361 -0.553361,0 -0.9133789,0.433355 -1.1133889,0.786706 v -0.566695 c 0,-0.113339 -0.093338,-0.20001 -0.213344,-0.20001 -0.113339,0 -0.213344,0.08667 -0.213344,0.20001 v 2.933482 c 0,0.1 0.106672,0.19334 0.213344,0.19334 z"
       style="line-height:24px;fill:#51004e;stroke:none"
       id="path42" />
    <path
       d="m 11.604907,102.14 c 0.406687,0 0.86671,-0.21334 1.100055,-0.48002 0.02667,-0.0333 0.05334,-0.0867 0.05334,-0.13334 0,-0.11334 -0.08667,-0.20001 -0.20001,-0.20001 -0.05334,0 -0.106672,0.0267 -0.13334,0.0667 -0.180009,0.19334 -0.53336,0.36001 -0.826708,0.36001 -0.513359,0 -0.900045,-0.22001 -1.126723,-0.64669 l 2.06677,-1.180063 c 0.113339,-0.06667 0.160008,-0.140007 0.160008,-0.213344 0,-0.293348 -0.393353,-0.900045 -1.253396,-0.900045 -0.906712,0 -1.5000754,0.820041 -1.5000754,1.726752 0,0.86004 0.6533664,1.60008 1.6600834,1.60008 z m -1.260063,-1.40674 c -0.01333,-0.08 -0.01333,-0.14 -0.01333,-0.21334 0.01333,-0.726703 0.46669,-1.313399 1.120056,-1.313399 0.460023,0 0.713369,0.160008 0.833375,0.453356 z"
       style="line-height:24px;fill:#51004e;stroke:none"
       id="path44" />
    <path
       d="m 16.105123,102.14667 c 0.106672,0 0.206677,-0.0933 0.206677,-0.20001 v -2.720138 h 0.746704 c 0.120006,0 0.213344,-0.100005 0.213344,-0.213344 0,-0.120006 -0.09334,-0.206677 -0.213344,-0.206677 H 16.3118 v -0.913379 c 0,-0.113339 -0.08,-0.213344 -0.206677,-0.213344 -0.120006,0 -0.213344,0.100005 -0.213344,0.213344 v 0.913379 h -0.720036 c -0.120006,0 -0.226678,0.08 -0.226678,0.206677 0,0.113339 0.09334,0.213344 0.213344,0.213344 h 0.73337 v 2.720138 c 0,0.10667 0.100005,0.20001 0.213344,0.20001 z"
       style="line-height:24px;fill:#51004e;stroke:none"
       id="path46" />
    <path
       d="m 18.578582,102.14 c 0.840042,0 1.553411,-0.82004 1.553411,-1.80009 0,-0.853375 -0.586696,-1.526742 -1.346734,-1.526742 -0.900045,0 -1.560078,0.893378 -1.560078,1.793422 0,0.86004 0.586696,1.53341 1.353401,1.53341 z m 0.02667,-0.38002 c -0.493358,0 -0.946714,-0.45335 -0.946714,-1.16672 0,-0.726706 0.493358,-1.400073 1.093388,-1.400073 0.540027,0 0.953381,0.553361 0.953381,1.180063 0,0.74003 -0.520026,1.38673 -1.100055,1.38673 z"
       style="line-height:24px;fill:#51004e;stroke:none"
       id="path48" />
    <path
       d="m 24.045513,102.15333 c 0.706702,0 1.146724,-0.50002 1.146724,-0.98671 0,-0.50669 -0.26668,-0.70004 -1.026718,-0.95338 -0.526693,-0.17334 -0.760038,-0.300017 -0.760038,-0.586698 0,-0.280014 0.26668,-0.446689 0.753371,-0.446689 0.453356,0 0.646699,0.153341 0.646699,0.386686 0,0.06 -0.02,0.09334 -0.02,0.146674 0,0.100005 0.08667,0.186676 0.206677,0.186676 0.126673,0 0.206677,-0.106672 0.206677,-0.326683 0,-0.460023 -0.366685,-0.760038 -1.040052,-0.760038 -0.760038,0 -1.146723,0.340017 -1.146723,0.806707 0,0.486695 0.313348,0.746705 1.02005,0.966715 0.633365,0.18668 0.766705,0.33335 0.766705,0.60003 0,0.31335 -0.300015,0.5867 -0.73337,0.5867 -0.433355,0 -0.726703,-0.20668 -0.853376,-0.56003 -0.02667,-0.0933 -0.09334,-0.14001 -0.186675,-0.14001 -0.113339,0 -0.20001,0.0867 -0.20001,0.20001 0,0.26001 0.393352,0.88004 1.220059,0.88004 z"
       style="line-height:24px;fill:#51004e;stroke:none"
       id="path50" />
    <path
       d="m 26.345632,102.14667 c 0.106672,0 0.206677,-0.0933 0.206677,-0.20001 v -2.720138 h 0.746704 c 0.120006,0 0.213344,-0.100005 0.213344,-0.213344 0,-0.120006 -0.09334,-0.206677 -0.213344,-0.206677 h -0.746704 v -0.913379 c 0,-0.113339 -0.08,-0.213344 -0.206677,-0.213344 -0.120006,0 -0.213344,0.100005 -0.213344,0.213344 v 0.913379 h -0.720036 c -0.120006,0 -0.226678,0.08 -0.226678,0.206677 0,0.113339 0.09334,0.213344 0.213344,0.213344 h 0.73337 v 2.720138 c 0,0.10667 0.100005,0.20001 0.213344,0.20001 z"
       style="line-height:24px;fill:#51004e;stroke:none"
       id="path52" />
    <path
       d="m 29.872473,102.19334 c 0.120006,0 0.206677,-0.10001 0.206677,-0.22001 v -2.886815 c -0.113339,-0.05334 -0.526693,-0.273347 -1.013384,-0.273347 -1.033385,0 -1.60008,1.013384 -1.60008,1.886762 0,0.86004 0.540027,1.44007 1.260063,1.44007 0.353351,0 0.706702,-0.15334 0.940047,-0.35335 v 0.18668 c 0,0.12 0.06667,0.22001 0.206677,0.22001 z m -1.146724,-0.44669 c -0.486691,0 -0.833375,-0.40669 -0.833375,-1.06006 0,-0.853371 0.520026,-1.480069 1.186726,-1.480069 0.213344,0 0.473357,0.08 0.593363,0.13334 l -0.02667,2.020099 c -0.153341,0.15334 -0.53336,0.38669 -0.920046,0.38669 z"
       style="line-height:24px;fill:#51004e;stroke:none"
       id="path54" />
    <path
       d="m 31.432557,103.4334 c 0.09334,0 0.160008,-0.06 0.20001,-0.13334 l 1.926763,-4.200211 c 0.02,-0.03334 0.02,-0.05334 0.02,-0.09334 0,-0.120006 -0.09334,-0.206677 -0.206677,-0.206677 -0.100005,0 -0.166675,0.06667 -0.20001,0.13334 l -1.046719,2.286778 -1.13339,-2.273444 c -0.03334,-0.07334 -0.106672,-0.140007 -0.20001,-0.140007 -0.120006,0 -0.213344,0.09334 -0.213344,0.213344 0,0.04 0.01333,0.08 0.02667,0.113339 l 1.293398,2.580128 -0.646699,1.41341 c -0.02,0.0333 -0.02667,0.0667 -0.02667,0.0933 0,0.11334 0.09334,0.21335 0.206677,0.21335 z"
       style="line-height:24px;fill:#51004e;stroke:none"
       id="path56" />
    <path
       d="m 34.432714,101.10662 c 0.120006,0 0.213344,-0.0933 0.213344,-0.21335 v -3.133488 c 0,-0.113339 -0.09334,-0.220011 -0.213344,-0.220011 -0.120006,0 -0.220011,0.106672 -0.220011,0.220011 v 3.133488 c 0,0.12001 0.100005,0.21335 0.220011,0.21335 z m -0.06,1.03338 c 0.140007,0 0.286681,-0.14001 0.286681,-0.33335 0,-0.14001 -0.09334,-0.26001 -0.233345,-0.26001 -0.153341,0 -0.293348,0.15334 -0.293348,0.32668 0,0.14667 0.100005,0.26668 0.240012,0.26668 z"
       style="line-height:24px;fill:#51004e;stroke:none"
       id="path58" />
  </g>
  <path
     d="M39.621 30.629c-2.96-.025-6.03.077-8.82.752-2.92.71-4.75 1.73-5.75 2.95-4.61 5.62 8.178 15.54 12.808 19.3 4.95 4.02 10.712 8.22 16.272 12.02 1.68 1.15 3.349 2.27 4.959 3.33l-.022.005c-.016 0-.032.004-.048.004l-12.8 3.3c-16.2 4.57-38.4 5.26-42.46 13.38-6.27 12.54 13.34 24.37 21.86 28.58 19.76 9.77 42.29 11.73 62.46 1.84 5.24-2.57 9.85-5.72 13.91-9.86 12.33-14.38 15.21-26.12 12.09-40.35-8.83-28.21-45.07-34.64-71.55-35.2-.948-.02-1.922-.043-2.909-.051zm48.77 29.611c.69.1 1.44.23 1.91.76-.47-.52-1.22-.66-1.91-.76z"
     fill="#e39300"
     id="path8" />
  <path
     d="M38.252 50.598c-1.3.006-2.576.075-3.816.213a250.65 250.65 0 0 0 3.423 2.82c4.95 4.02 10.712 8.22 16.272 12.02 1.68 1.15 3.349 2.27 4.959 3.33 0 0 10.424-4.727 24.049-4.524 0 0-25.29-13.953-44.887-13.86z"
     fill-opacity=".372"
     fill-rule="evenodd"
     stroke-width="3.78"
     stroke-linecap="round"
     stroke-linejoin="round"
     id="path10" />
  <path
     d="M87.852 35.564c-5.026-.067-8.327.446-8.375.454a.117.117 0 0 0-.004.01c8.56 2.648 16.514 6.503 22.812 12.005.03-.07.055-.143.084-.213.59-1.41 1.202-2.81 1.852-4.21.64-1.4 1.319-2.8 2.039-4.22.123-.242.263-.49.388-.734l-.011-.004c-6.93-2.362-13.723-3.02-18.785-3.088z"
     fill-opacity=".406"
     fill-rule="evenodd"
     stroke-width="3.78"
     stroke-linecap="round"
     stroke-linejoin="round"
     id="path12" />
</svg>
