<svg version="1.1" xmlns="http://www.w3.org/2000/svg" xmlns:xlink="http://www.w3.org/1999/xlink" width="126.45" height="109.04" viewBox="0,0,126.45,109.04"><g transform="translate(-176.775,-125.48)"><g data-paper-data="{&quot;isPaintingLayer&quot;:true}" stroke-dasharray="" stroke-dashoffset="0" style=""><path d="M303.225,209.42c0,13.86 -28.29,25.1 -63.22,25.1c-34.92,0 -63.23,-11.24 -63.23,-25.1c0,-13.87 1.47,-83.94 63.23,-83.94c61.77,0 63.22,70.06 63.22,83.94" fill="#fcc21b" fill-rule="nonzero" stroke="none" stroke-width="1" stroke-linecap="butt" stroke-linejoin="miter" stroke-miterlimit="10"/><path d="M256.4258,200.75023c0.2836,0.23819 1.0174,1.95422 0.75668,2.65397c-0.37876,1.01657 -1.93464,1.02293 -2.34665,0.68078c-8.92863,-7.44411 -20.92789,-7.44411 -29.85653,0c-0.32468,0.26963 -1.67434,0.16368 -2.06536,-0.59323c-0.44669,-0.8647 0.10448,-2.43348 0.4754,-2.74152c4.94379,-4.11592 10.73225,-6.17717 16.52071,-6.17717c5.78846,0 11.57691,2.05468 16.51574,6.17717z" data-paper-data="{&quot;index&quot;:null}" fill="#2f2f2f" fill-rule="nonzero" stroke="none" stroke-width="1" stroke-linecap="butt" stroke-linejoin="miter" stroke-miterlimit="10"/><path d="M271.57359,177.15551c4.29151,-1.81197 6.29422,2.09807 5.43591,5.53128c-2.19344,8.48765 -21.55292,15.92627 -30.70814,0.66757c-2.67027,-4.38688 2.19344,-7.05715 4.95908,-5.05445c7.34325,5.34055 15.92627,0.66757 20.31315,-1.1444zM206.05653,178.10917c-2.09807,-2.09807 -6.29422,0 -5.62665,3.43321c2.67027,13.256 26.13053,15.16334 30.61277,1.33514c1.1444,-3.71931 -2.0027,-6.10348 -5.43591,-4.19614c-8.39229,4.67298 -14.87724,3.91004 -19.55021,-0.5722z" fill="#eb8f00" fill-rule="nonzero" stroke="none" stroke-width="1" stroke-linecap="butt" stroke-linejoin="miter" stroke-miterlimit="10"/><path d="M247.8805,167.25804c6.1,-0.2 20.7,0.3 26.9,0.8c2.2,0.2 2.4,2.1 2.2,3.4c-2.7,15.8 -29.5,18.7 -31.4,-1.2c-0.2,-2.7 1.2,-3 2.3,-3zM202.5805,169.25804c-1.7,0.3 -2.4,2 -2,3.7c3.7,15.6 30.3,15.4 31.5,-3c0,-1.7 -0.6,-3.1 -2.7,-3.1c-4.6,0 -20.3,1.4 -26.8,2.4z" fill="#ffffff" fill-rule="nonzero" stroke="none" stroke-width="1" stroke-linecap="butt" stroke-linejoin="miter" stroke-miterlimit="10"/><g fill="#2f2f2f" fill-rule="nonzero" stroke="none" stroke-width="1" stroke-linecap="butt" stroke-linejoin="miter" stroke-miterlimit="10"><path d="M216.25447,179.41222c-4.49,0.04 -8.17,-4.27 -8.22,-9.62c-0.05,-5.37 3.55,-9.75 8.04,-9.79c4.48,-0.04 8.17,4.27 8.22,9.64c0.05,5.36 -3.55,9.73 -8.04,9.77z"/><path d="M252.20447,169.74222c-0.01,-5.37 3.63,-9.72 8.12,-9.73c4.48,-0.01 8.13,4.32 8.14,9.69c0.01,5.35 -3.62,9.7 -8.1,9.71c-4.49,0.01 -8.14,-4.32 -8.16,-9.67z"/></g><path d="M195.02776,168.86669v-22.4h86.40002v22.4z" fill="#fcc21b" fill-rule="nonzero" stroke="none" stroke-width="0" stroke-linecap="butt" stroke-linejoin="miter" stroke-miterlimit="10"/><path d="M199.03675,161.41239c7.64239,-4.72913 16.42978,-8.31862 26.12886,-9.28857" fill="none" fill-rule="evenodd" stroke="#bf3f0c" stroke-width="5" stroke-linecap="round" stroke-linejoin="round" stroke-miterlimit="1.5"/><path d="M251.63677,152.85715c9.69908,0.96995 18.48648,4.55943 26.12886,9.28857" data-paper-data="{&quot;index&quot;:null}" fill="none" fill-rule="evenodd" stroke="#bf3f0c" stroke-width="5" stroke-linecap="round" stroke-linejoin="round" stroke-miterlimit="1.5"/></g></g></svg>