<?xml version='1.0' encoding='utf-8'?>
<svg xmlns="http://www.w3.org/2000/svg" width="128" height="128" version="1.1" id="svg12" viewBox="0 0 128 128">
  <defs id="defs16" />
  <path d="M116 128H12c-6.6 0-12-5.4-12-12V12C0 5.4 5.4 0 12 0h104c6.6 0 12 5.4 12 12v104c0 6.6-5.4 12-12 12z" fill="#1bb7fc" id="path2" />
  <path d="M124.48 3.52L3.52 124.48C5.7 126.65 8.7 128 12 128h104c6.6 0 12-5.4 12-12V12c0-3.3-1.35-6.3-3.52-8.48z" fill="#1b79fc" id="path4" />
  <path d="M112 101c0 6.63-5.37 12-12 12H27.89c-6.6 0-12-5.4-12-12V28.9c0-6.6 5.4-12 12-12H100c6.63 0 12 5.37 12 12z" fill="#1ba2fc" id="path6" />
  <g aria-label="7" id="text10" style="line-height:1.25;text-align:center;text-anchor:middle;fill:#ffffff;stroke-width:1.102">
    <path d="m 53.13588,99.61317 c 1.481676,0 3.492522,-0.635004 4.550862,-2.751684 L 86.685258,38.864454 c 0.52917,-1.05834 1.270008,-2.64585 1.270008,-3.70419 0,-2.857518 -2.222514,-5.185866 -5.080032,-5.185866 H 48.267516 c -2.857518,0 -5.080032,2.434182 -5.080032,5.080032 0,2.857518 2.222514,5.080032 5.080032,5.080032 h 26.4585 L 48.690852,92.310624 c -0.52917,1.05834 -0.635004,1.799178 -0.635004,2.222514 0,2.64585 2.222514,5.080032 5.080032,5.080032 z" id="path18" />
  </g>
</svg>