<?xml version='1.0' encoding='utf-8'?>
<svg xmlns="http://www.w3.org/2000/svg" width="128" height="128" version="1.1" id="svg24" viewBox="0 0 128 128">
  <defs id="defs28" />
  <path d="M80.67 35.35c0 2.19-1.8 3.99-3.99 3.99H51.33c-2.2 0-3.99-1.8-3.99-3.99V24.56c0-2.2 1.8-3.99 3.99-3.99h25.34c2.19 0 3.99 1.79 3.99 3.99v10.79z" fill="#2f2f2f" id="path2" />
  <g fill="#2f2f2f" id="g6">
    <path d="m 93.35,120.07 c 0,4.38 3.53,7.93 7.91,7.93 4.38,0 7.91,-3.56 7.91,-7.93 V 87.99 c 0,-4.36 -3.53,-7.91 -7.91,-7.91 -4.38,0 -7.91,3.55 -7.91,7.91 z m -73.98,0 c 0,4.38 3.54,7.93 7.91,7.93 4.38,0 7.91,-3.56 7.91,-7.93 V 87.99 c 0,-4.36 -3.54,-7.91 -7.91,-7.91 -4.37,0 -7.91,3.55 -7.91,7.91 z" id="path4" />
  </g>
  <path d="M106.23 72.54H21.76c-6.58 0-11.97 4.2-11.97 9.33v25.05c0 2.2 1.8 3.99 4 3.99h100.42c2.19 0 3.99-1.8 3.99-3.99V81.87c.01-5.13-5.38-9.33-11.97-9.33z" fill="#fcc21b" id="path8" />
  <g fill="#ffffff" id="g14">
    <path id="circle10" d="m 35.26,90.43 a 7.5900002,7.5900002 0 0 1 -7.59,7.59 7.5900002,7.5900002 0 0 1 -7.59,-7.59 7.5900002,7.5900002 0 0 1 7.59,-7.59 7.5900002,7.5900002 0 0 1 7.59,7.59 z" />
    <path d="m 93.75,90.43 c 0,4.19 3.4,7.59 7.6,7.59 4.18,0 7.59,-3.4 7.59,-7.59 0,-4.19 -3.4,-7.59 -7.59,-7.59 -4.2,0 -7.6,3.4 -7.6,7.59 z" id="path12" />
  </g>
  <path d="M108.01 68.29v-.03l-6.53-24.12c-1.17-4.31-5.79-7.85-10.26-7.85H36.79c-4.48 0-9.1 3.54-10.27 7.85l-6.53 24.12c-.01.01-.01.03-.01.04l-2.12 7.81h92.28z" fill="#fcc21b" id="path16" />
  <path d="M93.75 47.48c-.47-2.19-2.68-3.98-4.92-3.98H39.16c-2.24 0-4.45 1.79-4.92 3.98L29.83 68.2c-.47 2.19.99 3.98 3.22 3.98h61.9c2.24 0 3.69-1.79 3.22-3.98z" fill="#40c0e7" id="path18" />
  <g aria-label="TAXI" id="text22" style="line-height:1.25;fill:#ffffff;stroke-width:0.592">
    <path d="m 54.437789,32.945272 c 0.298215,0 0.541205,-0.254035 0.541205,-0.541205 v -5.820715 h 1.74511 c 0.30926,0 0.541205,-0.254035 0.541205,-0.55225 0,-0.30926 -0.231945,-0.541205 -0.541205,-0.541205 h -4.57263 c -0.28717,0 -0.541205,0.231945 -0.541205,0.541205 0,0.298215 0.254035,0.55225 0.541205,0.55225 h 1.734065 v 5.820715 c 0,0.28717 0.254035,0.541205 0.55225,0.541205 z" id="path31" />
    <path d="m 61.848996,32.956317 c 0.33135,0 0.55225,-0.254035 0.55225,-0.53016 0,-0.13254 -0.03314,-0.209855 -0.07731,-0.342395 l -2.197955,-6.372965 c -0.08836,-0.26508 -0.298215,-0.364485 -0.50807,-0.364485 -0.2209,0 -0.430755,0.121495 -0.519115,0.342395 l -1.63466,4.15292 -0.408665,0.08836 c -0.24299,0.05523 -0.41971,0.26508 -0.41971,0.53016 0,0.231945 0.11045,0.39762 0.28717,0.48598 0.03314,0.02209 0.06627,0.03313 0.09941,0.04418 l -0.4418,1.1045 c -0.04418,0.11045 -0.07731,0.231945 -0.07731,0.33135 0,0.28717 0.254035,0.519115 0.55225,0.519115 0.26508,0 0.430755,-0.165675 0.50807,-0.35344 l 0.717925,-1.81138 2.25318,-0.497025 0.79524,2.29736 c 0.07731,0.24299 0.24299,0.37553 0.519115,0.37553 z m -3.103645,-3.390815 0.828375,-2.087505 0.59643,1.778245 z" id="path33" />
    <path d="m 63.572016,32.945272 c 0.15463,0 0.276125,-0.04418 0.408665,-0.19881 l 2.308405,-2.73916 2.197955,2.73916 c 0.11045,0.13254 0.26508,0.19881 0.430755,0.19881 0.298215,0 0.53016,-0.254035 0.53016,-0.541205 0,-0.11045 -0.01105,-0.2209 -0.09941,-0.33135 l -2.330495,-2.93797 2.36363,-2.816475 c 0.07731,-0.09941 0.13254,-0.2209 0.13254,-0.35344 0,-0.28717 -0.26508,-0.541205 -0.55225,-0.541205 -0.143585,0 -0.30926,0.06627 -0.41971,0.19881 l -2.220045,2.639755 -2.109595,-2.639755 c -0.11045,-0.13254 -0.26508,-0.19881 -0.41971,-0.19881 -0.28717,0 -0.563295,0.231945 -0.563295,0.541205 0,0.143585 0.06627,0.254035 0.13254,0.342395 l 2.242135,2.816475 -2.463035,2.926925 c -0.06627,0.07731 -0.121495,0.231945 -0.121495,0.35344 0,0.276125 0.2209,0.541205 0.55225,0.541205 z" id="path35" />
    <path d="m 71.204119,32.879002 h 2.639756 c 0.30926,0 0.541205,-0.24299 0.541205,-0.55225 0,-0.30926 -0.209855,-0.55225 -0.541205,-0.55225 H 73.08177 v -5.19115 h 0.762105 c 0.30926,0 0.541205,-0.254035 0.541205,-0.563295 0,-0.30926 -0.231945,-0.541205 -0.541205,-0.541205 h -2.639756 c -0.30926,0 -0.55225,0.231945 -0.55225,0.541205 0,0.30926 0.24299,0.563295 0.55225,0.563295 h 0.773151 v 5.19115 h -0.773151 c -0.30926,0 -0.55225,0.24299 -0.55225,0.55225 0,0.30926 0.24299,0.55225 0.55225,0.55225 z" id="path37" />
  </g>
</svg>