<?xml version="1.0" encoding="UTF-8" standalone="no"?>
<svg
   width="128"
   height="128"
   version="1.1"
   id="svg1610"
   xmlns="http://www.w3.org/2000/svg"
   xmlns:svg="http://www.w3.org/2000/svg">
  <defs
     id="defs1614" />
  <g
     transform="matrix(5.71429,0,0,7.05882,-18.857205,-24.23525)"
     id="g4"
     style="clip-rule:evenodd;fill:#db4437;fill-rule:evenodd;stroke-linejoin:round;stroke-miterlimit:2">
    <path
       d="M 25,6.267 C 25,5.016 23.745,4 22.2,4 H 6.8 C 5.255,4 4,5.016 4,6.267 V 18.733 C 4,19.984 5.255,21 6.8,21 h 15.4 c 1.545,0 2.8,-1.016 2.8,-2.267 z"
       style="fill:#db4437"
       id="path2" />
  </g>
  <g
     transform="translate(-2.273515,1.047149)"
     id="g12"
     style="clip-rule:evenodd;fill:#ef9a9a;fill-rule:evenodd;stroke-linejoin:round;stroke-miterlimit:2">
    <path
       d="M 30.915,7.958 C 25.554,8.085 15,8 12.066,18.857 c -0.581,2.15 -1.578,5.57 0.285,7.423 1.433,1.425 3.932,0.985 5.373,-0.162 1.534,-1.221 2.286,-3.205 3.245,-4.857 1.114,-1.917 2.599,-3.655 4.34,-5.034 1.627,-1.289 3.482,-2.052 5.444,-2.683 1.362,-0.438 3.297,-0.632 3.969,-1.979 C 36,9 32.576,7.869 30.915,7.958 Z"
       style="fill:#ef9a9a"
       id="path10" />
  </g>
  <g
     id="text1604"
     style="line-height:1.25" />
  <g
     aria-label="B"
     id="text1608"
     style="line-height:1.25">
    <path
       d="m 46.864001,97.360003 c 28.8,0 42.528,-7.584 42.528,-20.64 0,-7.392 -3.168,-12.384 -9.696,-15.456 2.496,-2.688 4.416,-6.624 4.416,-12 0,-8.736 -7.392,-16.992 -21.792,-16.992 h -16.32 c -2.496,0 -4.704,2.208 -4.704,4.704 v 55.104 c 0,3.552 1.344,5.28 5.568,5.28 z m 4.032,-39.072 v -16.8 h 11.424 c 8.16,0 12.288,3.648 12.288,7.872 0,4.416 -3.552,8.928 -9.024,8.928 z m 0,29.952 v -20.736 h 14.688 c 9.408,0 14.304,3.936 14.304,9.216 0,7.776 -13.248,11.232 -28.992,11.52 z"
       style="fill:#ffffff"
       id="path13" />
  </g>
</svg>
