<?xml version="1.0" encoding="UTF-8"?>
<svg clip-rule="evenodd" fill-rule="evenodd" version="1.1" viewBox="0 0 128 128" xml:space="preserve" xmlns="http://www.w3.org/2000/svg"><g transform="matrix(.24002 0 0 .24002 .19994 -4.6125)"><g fill-rule="nonzero"><path d="m265.83 39.458c-260.5 0-266.67 292-266.67 349.79 0 57.833 119.38 104.62 266.67 104.62 147.29 0 266.62-46.792 266.62-104.62 0-57.792-6.166-349.79-266.62-349.79z" fill="#fcc21b"/><path d="m441.17 387.12c-38.125 13.667-80.167-5.625-94.042-43.208-13.792-37.584 5.75-79.209 43.833-92.959 38-13.666 80.125 5.709 94.042 43.292 13.833 37.625-5.833 79.25-43.833 92.875z" fill="#fcc21b"/><path d="m440.12 384.38c-36.583 13.125-76.917-5.375-90.208-41.458-13.25-36.042 5.5-76 42.083-89.167 36.458-13.125 76.875 5.458 90.208 41.5 13.25 36.083-5.583 76.042-42.083 89.125z" fill="#fcc01c"/><path d="m439.12 381.58c-35 12.542-73.625-5.166-86.375-39.708-12.708-34.542 5.292-72.75 40.292-85.375 34.916-12.542 73.625 5.25 86.375 39.75 12.666 34.583-5.375 72.833-40.292 85.333z" fill="#fcbe1c"/><path d="m438.08 378.83c-33.458 12-70.375-4.916-82.541-37.958-12.125-33 5.041-69.542 38.5-81.583 33.375-12 70.333 5 82.583 38 12.083 33-5.167 69.541-38.542 81.541z" fill="#fbbb1d"/><path d="m437.08 376.04c-31.916 11.458-67.125-4.709-78.708-36.167s4.833-66.333 36.708-77.792c31.834-11.458 67.084 4.75 78.75 36.25 11.5 31.459-4.916 66.292-36.75 77.709z" fill="#fbb91e"/><path d="m436.04 373.29c-30.375 10.875-63.834-4.459-74.875-34.417-11-29.958 4.583-63.083 34.916-74.042 30.292-10.875 63.834 4.542 74.917 34.459 10.958 29.958-4.667 63.125-34.958 74z" fill="#fbb71e"/><path d="m435.04 370.5c-28.792 10.333-60.584-4.25-71.042-32.667-10.458-28.416 4.333-59.875 33.125-70.25 28.708-10.333 60.542 4.292 71.083 32.709 10.417 28.458-4.458 59.916-33.166 70.208z" fill="#fbb51f"/><path d="m434 367.75c-27.25 9.792-57.333-4-67.208-30.917-9.875-26.875 4.125-56.625 31.333-66.458 27.167-9.792 57.292 4.083 67.25 30.958 9.875 26.875-4.167 56.625-31.375 66.417z" fill="#fab220"/><path d="m432.96 364.96c-25.708 9.209-54.041-3.791-63.416-29.125-9.334-25.333 3.875-53.416 29.583-62.666 25.625-9.209 54.042 3.833 63.417 29.208 9.333 25.333-3.917 53.375-29.584 62.583z" fill="#fab020"/><path d="m431.96 362.21c-24.166 8.667-50.791-3.541-59.583-27.375-8.75-23.833 3.625-50.166 27.792-58.875 24.083-8.666 50.791 3.625 59.583 27.417 8.75 23.792-3.708 50.167-27.792 58.833z" fill="#faae21"/><path d="m430.92 359.42c-22.584 8.125-47.542-3.334-55.75-25.625-8.209-22.292 3.416-46.959 26-55.125 22.541-8.084 47.5 3.375 55.75 25.666 8.208 22.334-3.417 47-26 55.084z" fill="#faac22"/><path d="m429.92 356.67c-21.042 7.541-44.25-3.084-51.917-23.875-7.625-20.75 3.167-43.75 24.208-51.334 21-7.541 44.25 3.125 51.917 23.917 7.625 20.75-3.208 43.75-24.208 51.292z" fill="#f9a922"/><path d="m428.88 353.88c-19.5 7-41-2.875-48.083-22.125-7.084-19.208 2.958-40.5 22.416-47.542 19.459-7 41 2.917 48.084 22.125 7.083 19.292-2.959 40.542-22.417 47.542z" fill="#f9a723"/><path d="m427.88 351.08c-17.917 6.417-37.75-2.625-44.25-20.333s2.708-37.292 20.625-43.75c17.875-6.417 37.708 2.667 44.292 20.375 6.458 17.708-2.75 37.292-20.667 43.708z" fill="#f9a524"/><path d="m426.83 348.33c-16.375 5.875-34.458-2.416-40.416-18.583-5.959-16.167 2.458-34.042 18.833-39.958 16.333-5.875 34.458 2.458 40.458 18.625 5.959 16.166-2.5 34.041-18.875 39.916z" fill="#f9a324"/><path d="m425.83 345.54c-14.833 5.333-31.208-2.167-36.583-16.834-5.375-14.625 2.25-30.833 17.083-36.166 14.792-5.334 31.209 2.208 36.625 16.875 5.334 14.625-2.333 30.833-17.125 36.125z" fill="#f8a025"/><path d="m424.79 342.79c-13.292 4.75-27.959-1.959-32.75-15.084-4.834-13.125 2-27.625 15.291-32.416 13.25-4.75 27.917 2 32.792 15.083 4.792 13.167-2.042 27.667-15.333 32.417z" fill="#f89e26"/><path d="m423.79 340c-11.709 4.208-24.667-1.708-28.959-13.292-4.25-11.583 1.792-24.375 13.5-28.625 11.709-4.208 24.667 1.75 28.959 13.334 4.25 11.583-1.792 24.375-13.5 28.583z" fill="#f89c26"/><path d="m422.75 337.25c-10.167 3.667-21.417-1.5-25.125-11.542-3.708-10.041 1.542-21.166 11.708-24.833 10.167-3.667 21.417 1.542 25.125 11.583 3.709 10.042-1.541 21.125-11.708 24.792z" fill="#f89a27"/><path d="m421.75 334.46c-8.625 3.084-18.167-1.291-21.292-9.791s1.292-17.917 9.917-21.042c8.625-3.083 18.125 1.292 21.292 9.833 3.125 8.5-1.292 17.917-9.917 21z" fill="#f79728"/><path d="m420.71 331.71c-7.083 2.542-14.875-1.041-17.458-8.041s1.083-14.709 8.125-17.25c7.083-2.542 14.875 1.041 17.458 8.041 2.584 7-1.041 14.709-8.125 17.25z" fill="#f79528"/><path d="m419.71 328.92c-5.5 1.958-11.625-0.834-13.625-6.25-2-5.459 0.834-11.459 6.375-13.459 5.5-2 11.625 0.834 13.625 6.292 2 5.417-0.875 11.417-6.375 13.417z" fill="#f79329"/></g><g fill-rule="nonzero"><path d="m135.42 384.38c-38.125 13.667-80.167-5.625-94.042-43.25-13.833-37.583 5.75-79.208 43.833-92.958 38-13.667 80.125 5.708 94.042 43.291 13.833 37.625-5.833 79.25-43.833 92.917z" fill="#fcc21b"/><path d="m134.38 381.58c-36.583 13.125-76.917-5.375-90.208-41.5-13.25-36.041 5.5-75.958 42.083-89.166 36.458-13.084 76.875 5.458 90.208 41.541 13.25 36.125-5.583 76.042-42.083 89.125z" fill="#fcc01c"/><path d="m133.38 378.83c-35 12.542-73.625-5.166-86.375-39.708-12.708-34.5 5.292-72.75 40.292-85.375 34.916-12.542 73.625 5.25 86.375 39.792 12.666 34.5-5.375 72.75-40.292 85.291z" fill="#fcbe1c"/><path d="m132.33 376.04c-33.458 12-70.375-4.917-82.541-37.959-12.125-33 5.041-69.5 38.5-81.583 33.375-12 70.333 5 82.583 38 12.083 33-5.167 69.583-38.542 81.542z" fill="#fbbb1d"/><path d="m131.33 373.29c-31.916 11.458-67.125-4.709-78.708-36.209-11.583-31.458 4.833-66.291 36.708-77.791 31.834-11.417 67.084 4.75 78.75 36.25 11.5 31.458-4.916 66.291-36.75 77.75z" fill="#fbb91e"/><path d="m130.29 370.5c-30.375 10.875-63.834-4.458-74.875-34.458-11-29.917 4.583-63.084 34.916-74.042 30.292-10.875 63.834 4.542 74.917 34.5 10.958 29.958-4.667 63.125-34.958 74z" fill="#fbb71e"/><path d="m129.29 367.75c-28.792 10.333-60.584-4.25-71.042-32.667-10.458-28.416 4.333-59.833 33.125-70.25 28.708-10.333 60.542 4.292 71.083 32.709 10.417 28.416-4.458 59.875-33.166 70.208z" fill="#fbb51f"/><path d="m128.25 364.96c-27.25 9.792-57.333-4-67.208-30.916-9.875-26.875 4.125-56.625 31.333-66.459 27.167-9.75 57.292 4.084 67.25 30.959 9.875 26.875-4.167 56.666-31.375 66.416z" fill="#fab220"/><path d="m127.25 362.21c-25.708 9.209-54.042-3.791-63.417-29.166-9.333-25.334 3.875-53.417 29.584-62.667 25.625-9.208 54.041 3.833 63.416 29.208 9.292 25.334-3.958 53.375-29.583 62.625z" fill="#fab020"/><path d="m126.21 359.42c-24.166 8.666-50.791-3.542-59.583-27.417-8.75-23.792 3.625-50.167 27.792-58.875 24.083-8.667 50.791 3.583 59.583 27.417 8.75 23.833-3.708 50.208-27.792 58.875z" fill="#faae21"/><path d="m125.21 356.67c-22.583 8.083-47.541-3.334-55.75-25.625-8.208-22.292 3.417-46.959 26-55.084 22.542-8.083 47.5 3.375 55.75 25.667 8.167 22.25-3.458 46.917-26 55.042z" fill="#faac22"/><path d="m124.17 353.88c-21.042 7.542-44.25-3.125-51.917-23.875-7.625-20.75 3.167-43.708 24.208-51.333 21-7.542 44.25 3.125 51.917 23.916 7.625 20.75-3.208 43.75-24.208 51.292z" fill="#f9a922"/><path d="m123.12 351.08c-19.5 7-41-2.875-48.083-22.125-7.084-19.208 2.958-40.5 22.416-47.541 19.459-7 41 2.916 48.084 22.125 7.083 19.291-2.959 40.583-22.417 47.541z" fill="#f9a723"/><path d="m122.12 348.33c-17.917 6.417-37.75-2.666-44.25-20.375-6.5-17.666 2.708-37.291 20.625-43.75 17.875-6.416 37.708 2.667 44.292 20.375 6.5 17.709-2.75 37.292-20.667 43.75z" fill="#f9a524"/><path d="m121.08 345.54c-16.375 5.875-34.458-2.417-40.416-18.584-5.959-16.166 2.458-34.041 18.833-39.958 16.333-5.875 34.458 2.417 40.458 18.625 5.959 16.167-2.5 34.042-18.875 39.917z" fill="#f9a324"/><path d="m120.08 342.79c-14.833 5.291-31.208-2.209-36.583-16.834s2.25-30.833 17.083-36.166c14.792-5.334 31.209 2.208 36.625 16.833 5.334 14.625-2.333 30.833-17.125 36.167z" fill="#f8a025"/><path d="m119.04 340c-13.292 4.75-27.959-1.958-32.792-15.083-4.833-13.084 2-27.584 15.292-32.375 13.25-4.75 27.916 1.958 32.791 15.083 4.834 13.125-2 27.625-15.291 32.375z" fill="#f89e26"/><path d="m118.04 337.25c-11.709 4.208-24.667-1.75-28.959-13.333-4.25-11.542 1.792-24.375 13.5-28.584 11.709-4.208 24.667 1.75 28.959 13.334 4.25 11.541-1.792 24.375-13.5 28.583z" fill="#f89c26"/><path d="m117 334.46c-10.167 3.625-21.417-1.5-25.125-11.541-3.708-10.042 1.542-21.167 11.708-24.834 10.167-3.666 21.417 1.5 25.125 11.542 3.709 10.083-1.541 21.167-11.708 24.833z" fill="#f89a27"/><path d="m116 331.71c-8.625 3.084-18.167-1.291-21.292-9.791s1.292-17.917 9.917-21.042c8.625-3.083 18.167 1.292 21.292 9.792s-1.292 17.916-9.917 21.041z" fill="#f79728"/><path d="m114.96 328.92c-7.041 2.541-14.875-1.042-17.458-8.042-2.583-6.958 1.083-14.708 8.125-17.25 7.083-2.542 14.875 1.042 17.458 8.042 2.584 7-1.041 14.708-8.125 17.25z" fill="#f79528"/><path d="m113.96 326.17c-5.5 1.958-11.625-0.834-13.625-6.292-2-5.417 0.834-11.5 6.375-13.458 5.5-1.959 11.625 0.791 13.625 6.25 2 5.458-0.875 11.5-6.375 13.5z" fill="#f79329"/></g><path d="m124.83 250.15c-3.214 5.307-10.211 7.052-15.541 3.875-5.318-3.159-7.119-10.117-4-15.458 0.75-1.292 19.166-31.751 59.875-31.751 40.75 0 59.166 30.459 59.958 31.75 1.012 1.74 1.545 3.717 1.545 5.73 0 6.245-5.133 11.386-11.378 11.395-3.834 0-7.625-1.958-9.75-5.5-0.542-0.916-13-20.666-40.375-20.666-27.375-0.042-39.75 19.75-40.334 20.625zm300.17 3.917c-1.792 1.083-3.792 1.583-5.708 1.583-3.917 0-7.709-2.042-9.834-5.583-0.458-0.834-12.833-20.584-40.25-20.584-27.875 0-40.25 20.375-40.375 20.584-2.065 3.343-5.726 5.385-9.656 5.385-6.226 0-11.35-5.124-11.35-11.35 0-1.954 0.505-3.875 1.465-5.577 0.75-1.292 19.166-31.75 59.916-31.75 40.709 0 59.084 30.458 59.834 31.75 3.166 5.416 1.333 12.416-4.042 15.541z" fill="#2f2f2f" fill-rule="nonzero"/><path d="m304.39 422.33c2.433 2.167 4.758-0.541 4.758-0.541s38.921-43.334 41.467-45.284c3.587-2.754 11.304-7.125 19.333 0.75 3.333 3.267 8.854 10.6-0.733 22.875-2.059 2.646-62.692 69.784-66.246 73.405 0 0-28.067 28.691-45.188 39.662-4.758 3.058-10.108 6.275-16.391 8.6-6.25 2.321-13.355 3.983-20.884 4.179-7.512 0.279-15.35-0.991-22.8-3.5-7.433-2.529-14.421-6.333-20.766-10.754-1.567-1.125-3.134-2.254-4.625-3.467l-4.292-3.341c-2.924-2.351-5.742-4.832-8.446-7.434-5.27-5.011-10.141-10.428-14.567-16.2-4.295-5.65-7.466-11.791-10.904-17.366-5.933-9.617-8.716-21.934-9.883-31.434-2.613-21.4 6.137-43.475 6.137-43.475l4.013-7.425c14.033-20.891 47.662-56.804 47.662-56.804 10.855-12.754 22.446-11.908 27.167-8.687 13.6 9.271 9.958 21.816 0.342 33.187l-31.863 34.763c-1.616 3.762 3.196 7.896 6.3 5.25 9.729-8.342 30.154-31.138 30.154-31.138 9.175-9.229 60.75-64.821 64.221-68.212 6.959-6.809 15.888-10.459 22.859-5.592 7.116 4.963 9.283 12.871 2.741 21.725-1.775 2.396-53.879 60.263-53.879 60.263-3.05 3.354 0.754 7.875 4.108 4.616 0 0 64.834-71.083 67.767-74.412 6.617-7.563 17.513-9.459 24.15-3.546 6.484 5.775 6.575 15.542-0.154 23.362-2.15 2.48-47.792 53.159-66.075 73.888-1.233 1.383-2.154 3.221-0.25 4.917 0.012 0.012 1.946 2.004 4.308-0.646 4.959-5.567 54.596-59.925 57.367-62.867 6.346-6.754 14.992-10.083 22.167-3.846 6.562 5.692 7.85 15.896 0.654 23.304l-60.084 66.755s-1.929 2.437 0.355 4.47z" fill="#fac036" fill-rule="nonzero" stroke="#2f2f2f" stroke-width="12.5"/></g></svg>
