<?xml version="1.0" encoding="UTF-8" standalone="no"?>
<svg
   width="128"
   height="128"
   version="1.1"
   id="svg8"
   xmlns="http://www.w3.org/2000/svg"
   xmlns:svg="http://www.w3.org/2000/svg">
  <defs
     id="defs12" />
  <g
     aria-label="ON!"
     id="text4"
     style="line-height:1.25;fill:#78a3ad">
    <path
       d="m 45.118001,119.02 c 6.44,0 11.96,-6.32 11.96,-14.64 0,-7.280001 -4.4,-12.640001 -10.4,-12.640001 -6.36,0 -11.92,6.32 -11.92,14.640001 0,7.2 4.32,12.64 10.36,12.64 z m 0,-3.8 c -3.28,0 -6.36,-3 -6.36,-8.84 0,-6.36 3.48,-10.840001 7.68,-10.840001 3.28,0 6.64,3.16 6.64,9.000001 0,6.36 -3.64,10.68 -7.96,10.68 z"
       
       id="path14" />
    <path
       d="m 63.63802,119.02 c 1.08,0 2,-0.84 2,-1.96 l 0.04,-16.96 12.48,18.04 c 0.4,0.56 1.04,0.88 1.64,0.88 1.08,0 1.96,-0.8 1.96,-1.96 V 93.739999 c 0,-1.08 -0.92,-2 -1.96,-2 -1.12,0 -2,0.92 -2,2 V 110.74 l -12.52,-18.120001 c -0.36,-0.52 -1.04,-0.84 -1.64,-0.84 -1.12,0 -1.92,0.92 -1.92,1.96 l -0.04,23.320001 c 0,1.04 0.92,1.96 1.96,1.96 z"
       
       id="path16" />
    <path
       d="m 90.158038,112.3 c 1.12,0 1.96,-0.88 1.96,-1.96 V 94.019999 c 0,-1.04 -0.84,-2 -1.96,-2 -1.08,0 -1.96,0.96 -1.96,2 V 110.34 c 0,1.08 0.88,1.96 1.96,1.96 z m -0.32,6.72 c 1.16,0 2.36,-1.12 2.36,-2.6 0,-1.16 -0.84,-2.24 -2.08,-2.24 -1.2,0 -2.36,1.24 -2.36,2.6 0,1.24 0.84,2.24 2.08,2.24 z"
       
       id="path18" />
  </g>
  <path
     fill="#ed6c30"
     d="M.27 46.05l46.11 33.81V58.77h35.24v21.09l46.11-33.8-46.11-33.82v21.09H46.38V12.24z"
     id="path6" />
</svg>
