<?xml version="1.0" encoding="UTF-8" standalone="no"?>
<svg
   xml:space="preserve"
   width="128"
   height="128"
   version="1.1"
   id="svg28700"
   sodipodi:docname="emoji_u1f9cc.svg"
   inkscape:version="1.4.2 (f4327f4, 2025-05-13)"
   xmlns:inkscape="http://www.inkscape.org/namespaces/inkscape"
   xmlns:sodipodi="http://sodipodi.sourceforge.net/DTD/sodipodi-0.dtd"
   xmlns:xlink="http://www.w3.org/1999/xlink"
   xmlns="http://www.w3.org/2000/svg"
   xmlns:svg="http://www.w3.org/2000/svg"><path
   style="fill:#855c52;fill-opacity:1;stroke:none;stroke-width:6;stroke-linecap:round"
   d="m -76.665441,14.933601 c -6.250862,0.970429 -7.200427,3.559044 -8.294329,9.574303 -1.2743,7.007259 2.425853,15.257271 5.371496,21.741768 0.866961,1.908517 0.927453,6.53665 1.743063,8.46767 1.465697,3.470152 0.678702,6.523101 0.644268,10.289935 -0.03345,3.659381 -2.987456,8.043511 -2.752616,11.695501 0.232676,3.618356 0.467922,8.170614 3.337219,10.387316 2.519353,1.946349 9.953064,2.481975 11.898831,-0.03783 2.359274,-3.055299 -0.01043,-8.960604 -0.107308,-12.819573 -0.114704,-4.569245 0.265213,-11.026104 0.878326,-15.555481 0.749706,-5.538458 -0.603571,-8.324792 0.557966,-13.79173 0.96391,-4.53678 2.175349,-10.156967 2.263204,-14.794184 0.09127,-4.817582 1.776697,-7.401212 -1.481218,-10.951341 -1.534406,-1.672033 -3.909856,-5.781965 -9.143705,-4.969425 z"
   id="path32789-6"
   sodipodi:nodetypes="sssssssssssssss" /><path
   id="path32060-0"
   style="fill:#7cb342;fill-opacity:1;stroke-width:6;stroke-linecap:round"
   d="m -93.987714,58.732444 c 0,8.622134 -3.652413,13.477647 -9.818056,13.477646 -6.16564,-10e-7 -12.15613,-4.772462 -12.15613,-14.066965 0,-9.294503 5.99049,-12.888325 12.15613,-12.888326 6.165643,-10e-7 9.818056,4.855511 9.818056,13.477645 z"
   sodipodi:nodetypes="zzzzz" /><sodipodi:namedview
   id="namedview28702"
   pagecolor="#ffffff"
   bordercolor="#000000"
   borderopacity="0.25"
   inkscape:showpageshadow="2"
   inkscape:pageopacity="0.0"
   inkscape:pagecheckerboard="0"
   inkscape:deskcolor="#d1d1d1"
   showgrid="false"
   inkscape:zoom="4.1466779"
   inkscape:cx="63.665422"
   inkscape:cy="63.544843"
   inkscape:window-width="1366"
   inkscape:window-height="697"
   inkscape:window-x="-8"
   inkscape:window-y="-8"
   inkscape:window-maximized="1"
   inkscape:current-layer="svg28700" />
  
  <defs
   id="defs28677">
    <path
   id="a"
   d="M100.652 56.221c-4.258-15.744-12.859-35.375-29.326-41.657-5.29-2.019-10.994-3.039-16.658-2.637-7.411.528-14.724 3.583-19.876 8.93-5.083 5.274-7.841 12.481-8.719 19.75-.886 7.326-.081 14.18 1.95 21.147 1.836 6.306 2.901 14.615 1.747 21.148-1.727 9.8-2.568 20.521 6.817 26.652 4.855 3.166 10.734 4.303 16.487 4.965 7.882.906 15.837.548 23.622-.983 7.443-1.458 13.887-2.572 19.169-8.366 4.725-5.18 7.792-11.465 8.475-18.478.964-9.925-1.104-20.911-3.688-30.471z" />
  
	
	
	
	
<clipPath
   clipPathUnits="userSpaceOnUse"
   id="clipPath8"><path
     id="path8"
     style="fill:#2f2f2f;fill-opacity:1;stroke-width:7;stroke-linecap:round"
     d="m 92.764315,62.325485 c -3.908681,-8.5e-5 -6.588519,-1.315756 -5.669848,5.159448 0.215403,1.518241 7.598236,11.718708 8.143814,13.124442 1.928071,1.733145 3.758882,4.120587 6.248049,4.324218 1.7005,0.139114 4.03964,-0.544772 6.23828,-1.417968 0.71193,-2.080407 0.89381,-4.66736 0.51562,-7.333984 C 107.32224,69.706022 96.673139,62.324813 92.764315,62.325485 Z"
     sodipodi:nodetypes="cscsccc" /></clipPath></defs>
  
  <clipPath
   id="b">
    <use
   xlink:href="#a"
   overflow="visible"
   id="use28681" />
  </clipPath>
  
  
  
  
  
  
  
  
<g
   id="g1"
   transform="translate(220.92355,-45.131098)">
		<path
   fill="#fcc21b"
   d="M 111.79,92.66 C 119.08,68.84 113.25,48.58 96.48,40.05 71.41,27.3 47.76,36.97 33.6,58.18 c -1.2,1.81 -2.26,3.72 -3.25,5.67 l -0.08,-0.06 c -0.52,0.97 -0.87,1.04 -1.1,0.83 -0.11,-2.82 -0.19,-5.64 -0.16,-8.46 0.05,-5.03 0.31,-10.04 0.75,-15.06 0.34,-3.82 0.35,-5.91 3.77,-8.06 1.91,-1.19 3.84,-2.37 5.75,-3.58 2.04,-1.3 5.63,-2.93 6.36,-5.48 0.63,-2.25 -1.11,-4.26 -3.29,-4.59 -1.3,-0.19 -2.31,1 -3.63,0.72 -2.7,-0.57 -2.15,-3.14 -1.06,-4.92 C 40.5,10.54 41.96,6.89 36.83,3.08 35.7,2.25 34.59,1.45 33.3,0.94 30.93,-0.01 28.39,-0.12 26,0.41 c -3.79,0.85 -7.25,3.28 -9.13,6.62 -1.57,2.78 -2.62,5.69 -3.04,8.79 -0.54,3.93 0.46,7.81 0.88,11.68 0.47,4.15 -0.52,7.34 -1.1,11.36 -0.83,5.79 -1.32,11.62 -1.42,17.47 -0.07,4.19 0.06,8.37 0.39,12.54 1.06,12.99 2.57,25.96 9.68,41.79 l 0.03,-0.09 c 1.59,9.67 21.82,17.34 46.59,17.34 0.03,0 0.06,0 0.1,0 0.04,0 0.06,0 0.1,0 6.98,0 13.51,-0.63 19.38,-1.72 14.27,-2.62 24.62,-8 26.72,-14.42 0.32,-0.79 0.55,-1.59 0.63,-2.41 0.5,-5.22 -7.03,-6.89 -4.02,-16.7 z"
   id="path1" />
	</g><path
   fill="#2f2f2f"
   d="m 272.21355,5.1889024 c 2.11,-3.58 6.22,-5.05999998 9.16,-3.31 2.96,1.75 3.65,6.05 1.54,9.6199996 -2.1,3.57 -6.2,5.04 -9.16,3.3 -2.95,-1.73 -3.65,-6.0499996 -1.54,-9.6099996 z"
   id="path2" /><path
   fill="#ed6c30"
   d="m 293.14355,48.158902 c -2.44,0.31 -4.9,0.27 -7.34,0.01 -5.63,-0.62 -11.53,-3.08 -15.16,-7.89 -3.67,-4.89 -4.06,-14.76 1.84,-17.91 1.73,-0.93 5.18,-1.44 7.06,-0.77 2.74,0.98 4.4,3.95 7.27,4.74 3.81,1.04 7.67,-0.37 11.52,-0.09 3.2,0.22 7.3,2.47 8.44,5.78 3.14,9.09 -6.47,15.19 -13.63,16.13 z"
   id="path3" /><path
   fill="#2f2f2f"
   d="m 310.92355,18.008902 c -2.1,3.56 -6.2,5.04 -9.15,3.3 -2.97,-1.72 -3.65,-6.04 -1.54,-9.6 2.1,-3.5899996 6.21,-5.0599996 9.16,-3.3199996 2.95,1.7499996 3.64,6.0499996 1.53,9.6199996 z"
   id="path4" /><g
   id="g9"><path
     style="fill:#2f2f2f;fill-opacity:1;stroke:none;stroke-width:3.30001;stroke-linecap:round;stroke-dasharray:none;stroke-opacity:1"
     d="m 64.815034,19.12671 c 0,0 2.340614,-6.418405 9.223041,-11.7449666 5.639456,-4.3645824 10.562941,-6.97558068 11.510539,-5.871373 0.859795,1.0018978 -1.550376,2.6752356 -2.729145,5.5081151 -0.806056,1.9371539 -1.109403,2.9576749 -0.77684,3.5511125 0.260346,0.464569 1.039997,0.310677 2.529355,-0.513027 3.500454,-1.9359576 11.870323,-4.4391544 12.012397,-3.008208 0.142073,1.4309474 -2.135901,1.6377244 -4.310399,5.172397 -2.174501,3.534673 -3.707983,7.99687 -3.707983,7.99687 z"
     id="path45248"
     sodipodi:nodetypes="cssssssscc" /><path
     style="fill:#487628;fill-opacity:1;stroke:none;stroke-width:3.00001;stroke-linecap:round;stroke-dasharray:none;stroke-opacity:1"
     d="m 58.478371,2.8276658 c 1.503514,1.6446922 -0.993073,3.4967681 -1.365123,11.2233082 -0.534411,11.098293 7.406869,16.84685 7.406869,16.84685 L 54.002986,42.596537 c 0,0 -11.858015,-8.354455 -11.178536,-22.465474 C 43.459546,6.9418439 56.974855,1.182974 58.478371,2.8276658 Z"
     id="path39860"
     sodipodi:nodetypes="zsccsz" /><path
     style="fill:#7cb342;fill-opacity:1;stroke:none;stroke-width:6;stroke-linecap:round"
     d="m 41.26894,49.236884 c 0,0 -5.889869,-2.61772 -11.452523,-3.599365 -5.562653,-0.981644 -6.707906,0.163608 -7.525943,7.525944 -0.818037,7.362335 0.65443,8.507588 5.399046,9.65284 4.744616,1.145252 10.9617,1.636075 10.9617,1.636075 z"
     id="path31866"
     sodipodi:nodetypes="cssscc" /><path
     d="M 79.715009,14.729412 C 46.122347,12.13641 32.30779,45.728192 32.30779,75.760746 c 0,30.032564 20.875871,35.183954 39.813683,35.183954 18.937809,0 39.813677,-2.55374 39.813677,-35.183954 0,-32.630197 1.37252,-58.438333 -32.220141,-61.031334 z"
     style="fill:#7cb342;fill-opacity:1;stroke-width:1"
     id="path13307"
     sodipodi:nodetypes="zzzzz" /><path
     style="fill:#7cb342;fill-opacity:1;stroke:none;stroke-width:6;stroke-linecap:round"
     d="m 47.746205,106.07068 c -0.77619,4.30657 -5.593285,4.63503 -5.593285,10.77765 0,6.14262 5.29507,7.39907 10.746682,7.39907 7.524641,0 11.368691,-3.52747 12.338121,-12.97916 0.732027,-7.13706 -2.270568,-10.94791 -8.542765,-11.730951 -5.591217,-0.69802 -8.075109,1.686111 -8.948753,6.533391 z"
     id="path29697"
     sodipodi:nodetypes="ssssss" /><path
     style="fill:#7cb342;fill-opacity:1;stroke:none;stroke-width:6;stroke-linecap:round"
     d="m 100.35469,107.75878 c 0.77619,4.30657 8.18395,4.63503 8.18395,10.77765 0,6.14262 -5.29508,7.39907 -10.746686,7.39907 -7.524642,0 -13.959354,-3.52747 -14.928783,-12.97916 -0.732027,-7.13706 2.270568,-10.94791 8.542765,-11.73095 5.591216,-0.69802 8.075109,1.68611 8.948754,6.53339 z"
     id="path30062"
     sodipodi:nodetypes="ssssss" /><path
     style="fill:#855c52;fill-opacity:1;stroke:none;stroke-width:6;stroke-linecap:round"
     d="m 33.369499,57.806939 c 0,0 -4.862587,15.933226 -4.706458,22.411704 0.15613,6.478478 1.975917,10.901919 4.034107,15.464077 2.05819,4.56216 3.676567,9.07032 7.844096,11.65409 4.167529,2.58376 10.458856,0.71343 15.239959,2.01705 4.781104,1.30362 7.881629,5.07114 13.222906,5.60293 5.341276,0.53179 13.228112,-2.3957 17.481129,-3.58587 4.253016,-1.19018 5.303205,-2.1223 8.148099,-2.91352 2.844895,-0.79122 6.204083,-0.23826 8.884803,-1.79294 2.68071,-1.55468 4.08528,-2.85375 6.27527,-7.171752 2.19,-4.317999 4.25823,-19.049947 4.25823,-19.049947 0,0 -8.29409,4.83998 -12.56494,4.490595 C 97.215858,84.583971 94.882783,77.806152 90.67204,78.933753 86.461298,80.061354 88.472723,90.907385 83.571716,90.752145 78.670708,90.596904 81.058052,78.565311 76.384841,76.868498 71.71163,75.171683 67.287634,83.163473 63.28965,82.351801 59.291666,81.54013 59.333777,76.224098 56.106158,74.997592 52.878537,73.771088 49.080641,77.595986 45.695936,75.736303 42.311231,73.876621 41.777689,67.499035 39.644776,64.530451 37.511863,61.561867 33.369499,57.806939 33.369499,57.806939 Z"
     id="path30118"
     sodipodi:nodetypes="czzzzzzzzzczzzzzzzzc" /><g
     id="path31626"
     transform="matrix(1.0178649,-0.02226941,0.0209439,0.95728012,116.05064,4.2497957)"
     style="stroke-width:1.01282"><path
       style="color:#000000;fill:#7cb342;stroke-width:3.3423;stroke-linecap:round;-inkscape-stroke:none"
       d="m -5.9838884,60.673149 c 0,0 13.8730839,10.765029 14.6165932,25.65705 0.383284,7.676935 -1.7556849,12.089354 -7.1402709,13.820501 -7.2633192,2.33515 -14.0523599,-2.083092 -15.0775839,-11.606862 -0.960416,-8.921741 -6.785894,-17.327483 -6.785894,-17.327483"
       id="path42190"
       sodipodi:nodetypes="csssc" /></g><g
     transform="matrix(-0.81268647,0.03801571,-0.04916288,0.88415119,118.01171,-17.953884)"
     id="g36165"
     style="clip-rule:evenodd;fill-rule:evenodd;stroke-width:1.01881;stroke-linecap:round;stroke-linejoin:round;stroke-miterlimit:1.5"><path
       d="m 45.366176,87.058335 c 0,0 0.513702,-7.199784 3.314,-7.071991 2.996234,0.136736 2.70498,7.852078 2.70498,7.852078 z"
       style="fill:#ffecb3;stroke-width:1.01881"
       id="path36163"
       sodipodi:nodetypes="cscc" /></g><g
     transform="matrix(0.80878575,-0.03801571,0.04155814,0.88415119,9.0167851,-14.408395)"
     id="g36169"
     style="clip-rule:evenodd;fill-rule:evenodd;stroke-width:1.01881;stroke-linecap:round;stroke-linejoin:round;stroke-miterlimit:1.5"><path
       d="m 47.838275,85.672651 c 0,0 1.267557,-7.121324 4.041476,-6.747997 2.968009,0.399447 1.867721,8.053494 1.867721,8.053494 z"
       style="fill:#ffecb3;stroke-width:1.01881"
       id="path36167"
       sodipodi:nodetypes="cscc" /></g><g
     transform="matrix(0.60795104,-0.00413073,-0.01716243,0.62795317,24.346292,7.1232661)"
     id="g36177"
     style="clip-rule:evenodd;fill-rule:evenodd;stroke-width:0.944142;stroke-linecap:round;stroke-linejoin:round;stroke-miterlimit:1.5"><path
       d="m 41.815752,79.812679 c 14.224713,9.940479 40.505183,11.205947 55.619189,2.678197"
       style="fill:none;stroke:#2f2f2f;stroke-width:5.66484px"
       id="path36175" /></g><g
     transform="matrix(0.57253478,0,0,0.57253478,35.314748,-13.099171)"
     id="g36181"
     style="clip-rule:evenodd;fill-rule:evenodd;stroke-width:1.01881;stroke-linecap:round;stroke-linejoin:round;stroke-miterlimit:1.5"><path
       d="m 30.81431,82.525057 c 11.614463,3.03513 41.922346,4.494527 53.774693,2.589381"
       style="fill:none;stroke:#2f2f2f;stroke-width:6.11284px"
       id="path36179" /></g><path
     style="fill:#487628;fill-opacity:1;stroke:none;stroke-width:3.00001;stroke-linecap:round;stroke-dasharray:none;stroke-opacity:1"
     d="m 104.49518,4.1499332 c -1.65459,1.4926221 0.6525,3.5760058 0.28045,11.3025478 -0.53441,11.098292 -8.991282,16.05724 -8.991282,16.05724 -1.645581,0.961884 -1.701296,3.563321 1.724657,8.112147 3.425955,4.548826 6.002015,5.293792 7.619775,4.542948 0,0 12.60586,-7.176464 13.28534,-21.287481 C 119.04922,9.6881156 106.14976,2.6573112 104.49518,4.1499332 Z"
     id="path41460"
     sodipodi:nodetypes="zsczcsz" /><use
     x="0"
     y="0"
     xlink:href="#path32789-6"
     id="use1"
     transform="rotate(7.1007742,26.169322,795.21358)"
     style="stroke-width:1.01881" /><use
     x="0"
     y="0"
     xlink:href="#path32060-0"
     id="use2"
     transform="matrix(0.99741884,0.07548268,-0.05223392,0.99863488,119.47353,-1.223121)"
     style="stroke-width:1.01881" /><path
     id="path4-4"
     d="m 81.315831,47.605571 c -1.236973,3.019115 -4.272124,4.640046 -6.7739,3.615159 -2.515132,-1.006998 -3.536042,-4.304695 -2.291257,-7.324944 1.233572,-3.042551 4.277668,-4.656804 6.779445,-3.631916 2.502908,1.0327 3.529363,4.313642 2.285712,7.341701 z M 49.622398,41.978585 c 1.242519,-3.035874 4.285481,-4.657938 6.780578,-3.624105 2.510721,1.031568 3.537177,4.312508 2.293526,7.340569 -1.235839,3.026927 -4.272124,4.640046 -6.781711,3.616291 -2.500642,-1.017076 -3.537177,-4.312507 -2.292393,-7.332755 z"
     style="fill:#2f2f2f;fill-opacity:1;stroke-width:1"
     sodipodi:nodetypes="cccccccccc" /><path
     style="fill:#2f2f2f;fill-opacity:1;stroke-width:7;stroke-linecap:round"
     d="m 96.827048,72.037119 c -3.931854,-4.49786 -5.088617,-3.401322 -3.224527,-0.244794 1.949917,3.301864 3.268013,4.700501 4.980752,9.91566 1.712747,5.215158 1.813247,7.948999 1.813247,7.948999 l 3.477,-0.898181 c 0,0 -1.51423,-10.393115 -7.046472,-16.721684 z"
     id="path5"
     sodipodi:nodetypes="sssccs"
     clip-path="url(#clipPath8)" /></g></svg>
