<?xml version='1.0' encoding='UTF-8'?>
<svg xmlns="http://www.w3.org/2000/svg" version="1.1" id="svg3103" viewBox="0 0 128 128">
  <defs id="defs3107"/>
  <g transform="matrix(5.71429,0,0,7.05882,-18.857205,-24.23525)" id="g4" style="clip-rule:evenodd;fill:#40c0e7;fill-rule:evenodd;stroke-linejoin:round;stroke-miterlimit:2">
    <path d="M 25,6.267 C 25,5.016 23.745,4 22.2,4 H 6.8 C 5.255,4 4,5.016 4,6.267 V 18.733 C 4,19.984 5.255,21 6.8,21 h 15.4 c 1.545,0 2.8,-1.016 2.8,-2.267 z" style="fill:#40c0e7" id="path2"/>
  </g>
  <g transform="translate(-2.2735147,1.047149)" id="g12" style="clip-rule:evenodd;fill:#81d7ee;fill-rule:evenodd;stroke-linejoin:round;stroke-miterlimit:2">
    <path d="M 30.915,7.958 C 25.554,8.085 15,8 12.066,18.857 c -0.581,2.15 -1.578,5.57 0.285,7.423 1.433,1.425 3.932,0.985 5.373,-0.162 1.534,-1.221 2.286,-3.205 3.245,-4.857 1.114,-1.917 2.599,-3.655 4.34,-5.034 1.627,-1.289 3.482,-2.052 5.444,-2.683 1.362,-0.438 3.297,-0.632 3.969,-1.979 C 36,9 32.576,7.869 30.915,7.958 Z" style="fill:#81d7ee" id="path10"/>
  </g>
  <g aria-label="UP!" transform="scale(0.91526739,1.0925769)" id="text3101" style="line-height:54.6087;fill:#ffffff;stroke-width:0.918216">
    <path d="m 32.766712,88.942348 c 15.465145,0 22.629789,-9.611107 24.464637,-23.5909 0.786363,-6.116159 1.048484,-11.620702 1.048484,-17.125245 0,-5.854038 -0.349495,-13.542924 -0.349495,-14.591409 0,-1.310605 -0.524242,-4.193937 -4.281311,-4.193937 -3.757069,0 -4.368685,2.970705 -4.368685,4.368685 0,5.067674 0.08737,9.611107 0.08737,13.979792 0,5.766665 -0.174747,11.009087 -0.786363,16.863125 -1.397979,12.144945 -8.300502,16.251509 -15.639893,16.251509 -11.445955,0 -14.678782,-12.581814 -15.11565,-25.251001 -0.08737,-3.669695 -0.174748,-6.902522 -0.174748,-10.135349 0,-3.844443 0.174748,-7.601512 0.174748,-11.882824 0,-1.397979 -0.69899,-4.193937 -4.193938,-4.193937 -3.582322,0 -4.5434327,2.708584 -4.5434327,4.106564 0,4.543432 -0.1747474,8.73737 -0.1747474,13.368176 0,3.05808 0.087374,6.290907 0.1747474,9.960602 0.6116159,18.87272 8.9121177,32.066149 23.6782737,32.066149 z" style="stroke-width:0.84312" id="path11"/>
    <path d="m 73.745031,88.942348 c 2.446464,0 4.281312,-1.834847 4.281312,-4.281311 V 69.458013 c 12.407066,-0.436869 32.240897,-5.504544 32.240897,-21.406558 0,-11.970197 -10.484845,-18.697972 -32.415645,-18.697972 -7.339391,0 -8.475249,0.698989 -8.475249,5.417169 v 49.890385 c 0,2.446464 2.096969,4.281311 4.368685,4.281311 z M 78.026343,60.89539 V 38.003479 h 1.223232 c 14.329287,0 22.367665,3.582322 22.367665,10.047976 0,9.873229 -15.814638,12.407066 -23.590897,12.843935 z" style="stroke-width:0.84312" id="path13"/>
    <path d="m 122.93638,74.263566 c 2.44647,0 4.28132,-1.922221 4.28132,-4.281311 V 34.333784 c 0,-2.271716 -1.83485,-4.368685 -4.28132,-4.368685 -2.35909,0 -4.28131,2.096969 -4.28131,4.368685 v 35.648471 c 0,2.35909 1.92222,4.281311 4.28131,4.281311 z m -0.69899,14.678782 c 2.53384,0 5.15505,-2.446463 5.15505,-5.67929 0,-2.533838 -1.83485,-4.892928 -4.54343,-4.892928 -2.62121,0 -5.15505,2.708585 -5.15505,5.679291 0,2.708585 1.83485,4.892927 4.54343,4.892927 z" style="stroke-width:0.84312" id="path15"/>
  </g>
</svg>
