<?xml version="1.0" encoding="UTF-8"?>
<svg clip-rule="evenodd" fill-rule="evenodd" stroke-linejoin="round" stroke-miterlimit="2" version="1.1" viewBox="0 0 128 128" xml:space="preserve" xmlns="http://www.w3.org/2000/svg"><g transform="matrix(.256 0 0 .256 -4.2665 -4.2666)"><path d="m516.67 83.343c0-36.794-29.881-66.676-66.667-66.676h-366.67c-36.786 0-66.667 29.882-66.667 66.676v366.65c0 36.794 29.881 66.677 66.667 66.677h366.67c36.786 0 66.667-29.883 66.667-66.677z" fill="#ed6c30"/><path d="m458.67 167.83h-66.375v-62c0-1.75-0.709-3.416-1.917-4.625-1.208-1.208-2.917-1.958-4.625-1.958h-60.833c-1.709 0-3.417 0.708-4.625 1.958-1.209 1.209-1.917 2.875-1.917 4.625v61.959h-98.125v-61.959c0-1.75-0.708-3.416-1.917-4.625-1.208-1.208-2.916-1.958-4.625-1.958h-60.833c-1.708 0-3.417 0.708-4.625 1.958-1.208 1.209-1.917 2.875-1.917 4.625v61.959h-72.041c-1.75 0-3.417 0.708-4.625 1.958-1.209 1.208-1.917 2.875-1.917 4.625v60.583c0 1.75 0.708 3.417 1.917 4.625 1.208 1.209 2.916 1.917 4.625 1.917h72.041v88.125c0 1.708 0.709 3.417 1.917 4.625s2.917 1.917 4.625 1.917h60.833c1.75 0 3.417-0.709 4.625-1.917 1.209-1.208 1.917-2.917 1.917-4.625v-88.083h97.917c-1.459 63.708-22.875 103.58-44.125 127.96-11 12.583-21.959 21-30.125 26.292-4.084 2.625-7.459 4.458-9.792 5.625-1.167 0.583-2.042 0.958-2.625 1.208l-0.625 0.292-0.125 0.041c-1.833 0.75-3.25 2.25-3.833 4.125-0.625 1.875-0.334 3.959 0.75 5.584l33.25 50.958c1.666 2.542 4.833 3.625 7.666 2.625 0.667-0.25 31.542-11.167 62.417-45.667 30.125-33.583 59.833-89.875 61.208-179.04h66.5c1.709 0 3.417-0.709 4.625-1.917 1.209-1.208 1.917-2.917 1.917-4.625v-60.583c0-1.75-0.708-3.417-1.917-4.625-1.25-1.25-2.916-1.959-4.666-1.959z" fill="#fff" fill-rule="nonzero"/></g></svg>
