<?xml version='1.0' encoding='UTF-8'?>
<svg xmlns="http://www.w3.org/2000/svg" version="1.1" id="svg6" viewBox="0 0 128 128">
  <defs id="defs10"/>
  <g aria-label="TM" transform="scale(0.9475,1.05542)" id="text4" style="line-height:62.4531;fill:#40c0e7">
    <path d="m 25.766351,95.149553 c 2.697975,0 4.896325,-2.298275 4.896325,-4.896325 V 37.592751 h 15.78815 c 2.797901,0 4.896326,-2.298275 4.896326,-4.99625 0,-2.7979 -2.098425,-4.896325 -4.896326,-4.896325 H 5.0818752 c -2.5980501,0 -4.89632519,2.098425 -4.89632519,4.896325 0,2.697975 2.29827509,4.99625 4.89632519,4.99625 H 20.770101 v 52.660477 c 0,2.59805 2.298275,4.896325 4.99625,4.896325 z" id="path12"/>
    <path d="m 52.546245,95.149553 c 2.59805,0 4.3967,-1.498875 4.896325,-3.897075 l 8.793401,-40.169851 12.99025,40.669476 c 0.7994,2.3982 2.498125,3.39745 4.59655,3.39745 2.098425,0 3.997,-1.1991 4.696475,-3.1976 l 15.388454,-42.368201 9.1931,41.768651 c 0.49962,2.19835 2.09842,3.79715 4.7964,3.79715 2.89782,0 4.89632,-2.19835 4.89632,-4.59655 0,-0.7994 -0.19985,-1.5988 -0.49962,-2.99775 L 109.60342,30.997701 c -0.49962,-2.298275 -2.09842,-3.897075 -4.3967,-3.897075 -2.49812,0 -4.19685,0.99925 -4.99625,3.1976 L 84.222471,74.764852 70.133046,30.498076 c -0.699475,-2.098425 -2.098425,-3.39745 -4.59655,-3.39745 -2.598051,0 -4.396701,1.5988 -4.896326,3.897075 l -12.3907,56.657477 c -0.3997,1.698725 -0.3997,2.7979 -0.3997,3.297525 0,1.898575 1.498875,4.19685 4.696475,4.19685 z" id="path14"/>
  </g>
</svg>
