<?xml version="1.0" encoding="UTF-8"?>
<svg version="1.1" viewBox="0 0 128 128" xmlns="http://www.w3.org/2000/svg">
 <path d="m64 9.6c-62.31 0-63.79 69.86-63.79 83.69s28.56 25.03 63.79 25.03c35.24 0 63.79-11.21 63.79-25.03 0-13.83-1.47-83.69-63.79-83.69z" fill="#fcc21b"/>
 <path d="m94.485 74.434c-2.882-1.4672-6.51-0.49833-9.719 0-8.935 1.3891-16.788 1.9819-20.556 1.9819s-11.621-0.59284-20.557-1.9819c-3.208-0.49833-6.836-1.4672-9.718 0-3.656 1.8588-0.96 6.9915 4.794 11.496 3.479 2.7217 14.236 7.7703 25.48 7.7703s22.003-5.0486 25.482-7.7703c5.755-4.5041 8.44-9.6368 4.794-11.496z" fill="#ed6c30" stroke-width=".868"/>
 <path class="st3" d="m89.865 84.771c-0.06416 1e-3 -0.13024 5e-3 -0.20117 0.0117-1.5445 0.15668-3.0949 1.4005-6.2168 2.4746-3.1219 1.0741-4.5493 1.4172-7.2617 2.4434-2.7679 0.95234-2.5273 2.5446-2.5273 2.9043 0 0 0.41407-0.0852 0.61719-0.13281l10.555-3.6953c2.1398-1.0257 3.828-2.0392 4.8613-2.8476 0.38201-0.29898 0.74756-0.60092 1.1016-0.9043-0.17721-0.13519-0.46702-0.26232-0.92774-0.25391z" fill="#fff"/>
 <path class="st3" d="m73.658 92.605c0 1.1865 7.6879 1.613 7.6879 4.4736 0 2.2-0.3 3.2499 0 5.4499 0.4 2.4 2.1 2.9 3.3 2.7 2.9-0.5 1.9-5.4 2.3-10.8 0.3-4.1 3.8469-7.6898 3.8469-9.4036z" fill="#fff"/>
 <g transform="matrix(1 0 0 -1 .6602 113.56)" fill="#2f2f2f">
  <path d="m80.095 65.038c7.67 0 14.99-3.84 19.31-10.47 0.83-1.27 0.47-2.98-0.8-3.8-1.27-0.83-2.98-0.47-3.8 0.81-4.08 6.27-11.71 9.26-18.97 7.44-1.47-0.37-2.97 0.52-3.34 2-0.37 1.47 0.52 2.97 2 3.34 1.85 0.45 3.74 0.68 5.6 0.68z"/>
  <path d="m46.575 65.038c1.86 0 3.75-0.23 5.61-0.7 1.47-0.37 2.37-1.86 2-3.34-0.37-1.47-1.87-2.37-3.34-2-7.26 1.82-14.89-1.17-18.97-7.44-0.83-1.27-2.53-1.63-3.8-0.81-1.27 0.83-1.63 2.53-0.8 3.8 4.3 6.65 11.63 10.49 19.3 10.49z"/>
 </g>
</svg>
