<?xml version="1.0" encoding="UTF-8"?>
<svg clip-rule="evenodd" fill-rule="evenodd" stroke-linejoin="round" stroke-miterlimit="2" version="1.1" viewBox="0 0 128 128" xml:space="preserve" xmlns="http://www.w3.org/2000/svg" xmlns:xlink="http://www.w3.org/1999/xlink"><defs><linearGradient id="SVGID_3_" x1="64.94" x2="64.94" y1="48.64" y2="4.54" gradientTransform="matrix(1,0,0,-1,0,130)" gradientUnits="userSpaceOnUse">
				<stop stop-color="#469643" offset="0"/>
				<stop stop-color="#489743" offset=".02"/>
				<stop stop-color="#6DB141" offset=".44"/>
				<stop stop-color="#84C03F" offset=".78"/>
				<stop stop-color="#8CC63F" offset="1"/>
			</linearGradient></defs><g transform="scale(.2397)"><path d="m265.79 36c-259.62 0-265.79 291.08-265.79 348.71s119 104.29 265.79 104.29c146.83 0 265.79-46.708 265.79-104.29 0-57.625-6.125-348.71-265.79-348.71z" fill="url(#_Linear1)" fill-rule="nonzero"/><path d="m401.92 406.08c-12.875 6.134-29.084 2.084-43.417 0-39.917-5.804-75-6.041-91.833-6.041-16.834-0-51.917 0.237-91.834 6.041-14.333 2.084-30.541 6.134-43.416 0-16.334-7.771-4.292-35.633 21.416-54.462 15.542-11.379 52.542-33.467 113.83-33.467 61.291 0 98.291 22.083 113.83 33.467 25.708 18.829 37.708 46.691 21.417 54.462z" fill="url(#_Linear2)" fill-rule="nonzero"/><g fill="#2f2f2f"><path d="m410.74 274.77c-1.636 4.745-6.336 7.785-11.334 7.334-0.875-0.084-1.75-0.25-2.625-0.542-33.791-11.625-77.916-7.375-78.291-7.333-5.042 0.5-9.584-2.417-11.375-7-1.792-4.625-0.167-9.875 3.791-12.792 35.459-25.708 87.5-38.042 89.667-38.5 5.958-1.375 11.833 2.292 13.208 8.208 1.334 5.875-2.333 11.792-8.208 13.167-0.292 0.042-21.625 5.083-45.208 15.042 13.666 0.791 29.333 3.625 43.541 8.458 5.75 2 8.792 8.25 6.834 13.958z"/><path d="m120.99 274.77c1.666 4.875 6.416 7.75 11.333 7.334 0.875-0.084 1.75-0.25 2.625-0.542 33.792-11.625 77.917-7.375 78.292-7.333 5.041 0.5 9.583-2.417 11.375-7 1.791-4.625 0.166-9.875-3.792-12.792-35.458-25.708-87.5-38.042-89.667-38.5-5.958-1.375-11.833 2.292-13.208 8.208-1.333 5.875 2.333 11.792 8.208 13.167 0.292 0.042 21.625 5.083 45.209 15.042-13.667 0.791-29.334 3.625-43.542 8.458-4.435 1.502-7.438 5.689-7.438 10.371 0 1.221 0.205 2.434 0.605 3.587z"/></g><clipPath><path d="m266.67 350.19c-28.46-4.2-69.851 0.354-72.559 10.421-2.892 10.755 6.229 39.878-18.207 64.046-21.244 21.009-38.794 38.527-39.22 64.264-0.224 13.547 12.816 23.682 28.936 34.681 16.125 10.995 82.779 8.7 82.779 8.7s106.99 3.259 128.98-8.059c22.587-11.623 30.016-11.989 29.147-32.784-1.07-25.628-40.563-42.082-55.637-70.963-16.386-31.394-3.619-41.904-17.656-53.622-14.036-11.718-44.205-13.384-66.562-16.684z"/></clipPath><g transform="matrix(4.1719 0 0 4.1719 3.1476 16.173)" clip-rule="evenodd" fill-rule="evenodd" stroke-linejoin="round" stroke-miterlimit="2"><path d="m96.7 119.17c4.86-1.47 6.65-3.17 6.42-4.39-0.3-1.58-7.12-1.82-15.12-0.67v-30.61s-8.11-2.42-24.5-2.42c-18.19 0-24.5 2.42-24.5 2.42v27.86c-5-0.29-8.79 0.33-9 1.68-0.14 1.07 3 2.36 6.92 3.46-7.58 0.78-12.13 2-12.13 3.37 0 2.35 14.44 4.25 32.05 4.25 6.92 0.04 13.84-0.29 20.72-1 3.82 0.55 7.67 0.8 11.53 0.77 8.84 0 16-1.12 16-2.5 0.05-0.97-3.36-1.8-8.39-2.22z" fill="url(#SVGID_3_)"/><g fill="#368231"><ellipse transform="rotate(-8.4704)" cx="92.311" cy="127.61" rx="2.65" ry="1.56"/><ellipse transform="rotate(-72.71)" cx="-99.295" cy="54.076" rx="2.16" ry="3.6699" stroke-width=".99998"/><ellipse cx="58.25" cy="110.54" rx="2.42" ry="4.71"/><ellipse cx="62.75" cy="93.92" rx="2.25" ry="4.08"/><ellipse cx="76.38" cy="103.83" rx="3.96" ry="7.25"/><ellipse cx="48.21" cy="98.31" rx="1.88" ry="3.27"/></g></g><g fill-opacity=".78"><path d="m251.45 459.04c0.819-1.386 0.358-3.176-1.028-3.994l-3.75-2.214c-1.386-0.818-3.176-0.357-3.994 1.029l-2.085 3.531c-0.818 1.386-0.357 3.176 1.029 3.994l3.749 2.214c1.387 0.818 3.177 0.357 3.995-1.029l2.084-3.531z" fill="#c19d2f"/><path d="m319.39 434.28c-0.758-1.421-2.526-1.959-3.947-1.201l-3.841 2.049c-1.421 0.758-1.959 2.526-1.201 3.946l1.93 3.618c0.757 1.42 2.525 1.958 3.946 1.201l3.842-2.05c1.42-0.757 1.958-2.526 1.2-3.946l-1.929-3.617z" fill="#c18b2f"/><path d="m277.43 412.2c0.835-1.376 0.395-3.171-0.981-4.006l-0.741-0.45c-1.376-0.835-3.171-0.396-4.006 0.981l-0.361 0.595c-0.835 1.376-0.396 3.171 0.98 4.006l0.741 0.45c1.376 0.835 3.172 0.395 4.007-0.981l0.361-0.595z" fill="#c18b2f"/><path d="m199.23 456.85c1.558-0.406 2.493-2.001 2.087-3.558l-1.099-4.214c-0.406-1.557-2-2.492-3.558-2.086l-3.967 1.035c-1.558 0.406-2.493 2-2.087 3.558l1.099 4.213c0.406 1.558 2 2.493 3.558 2.086l3.967-1.034z" fill="#ca9d2f"/><path d="m215.59 408.6c1.554-0.425 2.499-2.038 2.111-3.601l-0.567-2.28c-0.388-1.562-1.965-2.486-3.518-2.061l-1.751 0.479c-1.553 0.425-2.498 2.038-2.11 3.6l0.567 2.281c0.388 1.562 1.964 2.485 3.518 2.061l1.75-0.479z" fill="#ca9d2f"/><path d="m357.09 485.2c-1.511 0.555-2.287 2.232-1.732 3.743l1.501 4.088c0.555 1.511 2.233 2.287 3.744 1.732l3.848-1.414c1.511-0.555 2.288-2.232 1.733-3.743l-1.502-4.087c-0.555-1.511-2.232-2.288-3.743-1.733l-3.849 1.414z" fill="#6a8b2f"/></g><path d="m194.11 330.4-2.083 9.075c1.271-5.408 2.083-9.075 2.083-9.075zm137.08 3.525c1.246 2.138 2.037 3.838 2.037 3.838s-0.75-1.634-2.037-3.838z" fill="url(#_Linear5)"/><defs><linearGradient id="_Linear1" x2="1" gradientTransform="matrix(2.7735e-14 452.94 -385.98 2.3635e-14 270.92 36.038)" gradientUnits="userSpaceOnUse"><stop stop-color="#6fa13a" offset="0"/><stop stop-color="#d9bf2d" offset=".52"/><stop stop-color="#ffca28" offset="1"/></linearGradient><linearGradient id="_Linear2" x2="1" gradientTransform="matrix(5.5908e-15 -91.304 91.304 5.5908e-15 259.84 409.06)" gradientUnits="userSpaceOnUse"><stop stop-color="#ed6c30" offset="0"/><stop stop-color="#d55215" offset="1"/></linearGradient><linearGradient id="_Linear5" x2="1" gradientTransform="matrix(4.9035 217.06 -217.06 4.9035 259.25 316.81)" gradientUnits="userSpaceOnUse"><stop stop-color="#709d2f" stop-opacity=".06" offset="0"/><stop stop-color="#6c9d2f" offset=".08"/><stop stop-color="#849d2f" offset="1"/></linearGradient></defs></g></svg>
