<?xml version="1.0" encoding="UTF-8" standalone="no"?>
<svg
   width="128"
   height="128"
   version="1.1"
   id="svg6"
   xmlns="http://www.w3.org/2000/svg"
   xmlns:svg="http://www.w3.org/2000/svg">
  <defs
     id="defs10" />
  <g
     aria-label="S"
     id="text4"
     style="line-height:1.25;fill:#40c0e7">
    <path
       d="m 63.520038,119.92 c 20.8,0 38.560002,-13.76 38.560002,-32.160001 0,-15.68 -11.680002,-25.76 -32.800002,-31.84 -17.28,-4.96 -24.64,-9.6 -24.64,-17.12 0,-8 7.36,-13.28 21.92,-13.28 11.84,0 19.04,4.64 19.84,10.4 0.48,3.68 3.52,6.72 7.36,6.72 4.48,0 7.840002,-3.52 7.840002,-8.32 0,-14.08 -12.960002,-23.52 -35.040002,-23.52 -23.2,0 -37.44,12 -37.44,29.12 0,18.24 16.48,26.08 34.72,31.2 17.6,4.96 22.88,10.88 22.88,17.44 0,9.12 -9.44,16.320001 -22.88,16.320001 -9.6,0 -20.64,-4.48 -24.16,-14.240001 -1.28,-3.52 -4,-5.92 -8,-5.92 -4.64,0 -8.16,3.68 -8.16,8 0,1.76 0.64,3.84 1.76,6.24 5.12,10.880001 18.72,20.960001 38.24,20.960001 z"
       style="text-align:center;text-anchor:middle"
       id="path12" />
  </g>
</svg>
