<?xml version='1.0' encoding='UTF-8'?>
<svg xmlns="http://www.w3.org/2000/svg" version="1.1" id="svg12" viewBox="0 0 128 128">
  <defs id="defs16"/>
  <path d="M116 128H12c-6.6 0-12-5.4-12-12V12C0 5.4 5.4 0 12 0h104c6.6 0 12 5.4 12 12v104c0 6.6-5.4 12-12 12z" fill="#1bb7fc" id="path2"/>
  <path d="M124.48 3.52L3.52 124.48C5.7 126.65 8.7 128 12 128h104c6.6 0 12-5.4 12-12V12c0-3.3-1.35-6.3-3.52-8.48z" fill="#1b79fc" id="path4"/>
  <path d="M112 101c0 6.63-5.37 12-12 12H27.89c-6.6 0-12-5.4-12-12V28.9c0-6.6 5.4-12 12-12H100c6.63 0 12 5.37 12 12z" fill="#1ba2fc" id="path6"/>
  <g aria-label="*" id="text10" style="line-height:1.25;text-align:center;text-anchor:middle;fill:#ffffff;stroke-width:2.324">
    <path d="m 49.255574,96.238185 c 3.792768,0 8.254848,-2.454144 10.932096,-7.585536 2.23104,-4.238976 4.685184,-8.701056 6.470016,-12.940032 1.784832,4.238976 3.34656,7.80864 6.246913,13.163136 2.677248,4.908288 6.246912,7.362432 10.932096,7.362432 5.354496,0 8.701056,-4.685184 8.701056,-8.92416 0,-2.677248 -1.11552,-6.023808 -5.131392,-9.147264 -3.792768,-3.123456 -8.031744,-5.800704 -11.378304,-8.031744 5.131392,-0.223104 9.593472,0 14.278656,-0.669312 5.5776,-0.892416 8.477952,-6.023808 8.477952,-10.485888 0,-5.354496 -4.238976,-8.701057 -9.147264,-8.701057 -5.5776,0 -12.493824,5.131393 -17.848321,10.485889 1.561729,-3.34656 4.462081,-9.370368 4.462081,-14.947969 0,-7.139328 -3.569665,-11.601408 -9.370369,-11.601408 -5.5776,0 -9.370368,4.238976 -9.370368,11.378304 0,5.131393 1.784832,10.262785 4.46208,14.947969 -2.677248,-2.23104 -5.800704,-4.685184 -9.370368,-7.139328 -3.792768,-2.454144 -6.916224,-3.569665 -9.370368,-3.569665 -6.023808,0 -9.147264,4.462081 -9.147264,9.147265 0,4.46208 2.677248,7.80864 7.362432,9.370368 4.685184,1.561728 11.1552,2.23104 15.394176,2.23104 -2.900352,1.338624 -6.69312,3.792768 -10.932096,7.362432 -4.46208,3.792768 -5.354496,6.69312 -5.354496,10.03968 0,4.46208 3.569664,8.254848 8.701056,8.254848 z" id="path18"/>
  </g>
</svg>
