<?xml version="1.0" encoding="UTF-8"?>
<svg width="100" height="100" version="1.1" viewBox="0 0 100 100" xmlns="http://www.w3.org/2000/svg">
 <g transform="translate(-190,-130)">
  <g stroke-miterlimit="10" data-paper-data='{"isPaintingLayer":true}'>
   <path d="m216.08 135.95c26.097-9.6182 44.032 4.4696 56.369 30.15 5.2789 10.989 12.075 25.418 11.234 35.617-1.1254 13.636-10.252 18.036-21.005 23.202-9.9378 4.7741-26.915 1.0569-37.596-5.2358-10.681-6.2928-14.882-8.7837-20.696-20.886-12.337-25.68-12.334-54.316 11.694-62.847z" fill="#6886a3" stroke-width="0" data-paper-data='{"index":null}'/>
   <path d="m217.31 138.21c24.76-9.1251 41.775 4.2405 53.48 28.605 5.0083 10.426 11.456 24.115 10.658 33.791-1.0677 12.937-9.7267 17.112-19.928 22.012-9.4284 4.5293-25.536 1.0028-35.669-4.9674s-14.119-8.3334-19.635-19.815c-11.704-24.364-11.702-51.532 11.095-59.625z" fill="#89b1d6" stroke-width="0" data-paper-data='{"index":null}'/>
   <g fill="#004fac">
    <path d="m243.2 144.8c5.5355 3.5422 11.083 9.7109 14.575 16.67 4.4952 8.9776 6.6608 10.622 10.244 13.381 4.0143 3.1018 1.4214 7.4013-3.2673 5.0941-2.0562-1.0058-4.8084-2.8781-11.615-15.249-3.1282-5.7289-5.8613-10.43-12.996-15.254-2.4926-1.7634 0.17272-6.5354 3.0599-4.6424z"/>
    <path d="m234.93 146.5c-8.6024-2.0091-12.572 7e-3 -18.099 3.1664-3.5546 2.0109-5.6074-2.1717-3.833-3.8338 7.0298-6.6587 17.463-7.1319 23.714-4.6543 2.866 1.13 1.5504 6.1087-1.7826 5.3216z"/>
    <path d="m212.59 154.34c-6.3011 10.017-4.1958 24.223 6.5951 40.796 2.2444 3.3831-1.3309 5.529-3.0969 3.5316-12.669-14.236-16.149-36.596-8.0731-47.377 2.1629-2.8458 6.3122 0.27667 4.5749 3.0496z"/>
    <path d="m224.08 206.52c0.19057-2.5955 1.3619-5.7315-1.6417-11.372-1.6212-2.9423-7.6899-12.921-8.0876-18.438-0.24047-2.9379 4.353-3.6153 5.0556-0.53757 1.2021 5.2265 2.8337 8.1013 5.7121 12.756 6.1672 9.7864 4.9555 14.988 4.1167 18.659-0.82355 3.1202-5.4126 2.4169-5.1551-1.0663z"/>
    <path d="m240.95 205.51c-0.38553 6.5718-3.244 9.4492-4.3854 10.587-1.5305 1.4232-5.6994 0.23168-4.004-3.1693 4.5938-9.2423-0.12359-16.32-0.59807-19.984-0.49516-3.5295 2.8264-4.4709 4.3792-3.335 2.3005 1.6649 3.1124 5.3811 3.6844 7.0574 2.1345 1.8467 10.049 8.7927 25.587 11.519 3.7014 0.63634 3.0346 5.4382-0.64565 5.565-11.446 0.31804-24.018-8.2396-24.018-8.2396z"/>
    <path d="m254.03 220.16c-2.2064-0.47629-3.5354-0.81812-6.4423-0.78011-3.1093 7e-3 -4.796 0.64642-6.7895 0.13368-2.4453-0.72012-2.0109-3.5546-0.56317-4.4378 5.7806-3.4656 13.439-0.70331 14.763 0.12127 3.3961 2.1782 1.3839 5.3925-0.96783 4.963z"/>
    <path d="m274.38 203.25c-3.093 1.2528-11.446-0.57998-13.243-1.477-3.0842-1.5088-1.6282-6.0516 1.019-6.1984 2.2216-0.0739 3.6236 0.69349 6.2556 1.0969 2.8241 0.50188 3.9866 0.12748 5.6896 0.73383 3.2813 1.1245 2.5361 5.0856 0.27848 5.8447z"/>
    <path d="m254.07 191.57c0.8463 0.33692 2.3832 1.125 3.1882 1.7319 2.5498 1.8413 0.41397 6.7634-2.7579 6.2773-1.2148-0.18617-3.4527-1.358-4.2473-2.0324-2.4877-2.2462 0.0476-7.5215 3.817-5.9768z"/>
    <path d="m249.11 188.32c2.1192 2.397-0.66038 7.0132-3.9003 5.6187-3.702-1.5344-7.3183-7.6834-7.6017-13.045-0.47215-8.6373-3.9672-11.521-6.9356-10.18-3.2694 1.502-1.818 6.9048 0.59678 8.7254 7.1665 5.5189 1.4751 10.656-1.8643 7.6576-10.641-9.436-6.8226-21.284-0.89076-23.483 8.0441-2.9115 14.18 6.1793 14.978 14.038 0.6578 6.5245 3.4982 8.2722 5.6174 10.669z"/>
    <path d="m218.51 170.3c-0.26348 2.1699-4.6757 2.1154-4.864-0.26193-0.25081-2.8704 0.4282-13.611 9.7279-17.504 7.1564-2.9785 15.302-0.694 20.663 5.7915 7.9267 9.5725 11.131 21.115 16.801 24.678 4.9798 3.1116 11.297 2.9056 12.647 3.1124 3.499 0.60532 3.0868 5.9988-1.6836 6.0275-7.7447 0.0564-16.54-3.8473-19.772-8.9013-2.338-3.6738-6.2411-12.008-9.0052-16.507-2.9252-4.7998-6.7272-8.8361-12.219-9.0562-4.729-0.24125-11.092 1.6155-12.295 12.621z"/>
    <path d="m237.48 194.76"/>
   </g>
  </g>
 </g>
</svg>
