<?xml version="1.0" encoding="UTF-8"?>
<svg clip-rule="evenodd" fill-rule="evenodd" stroke-linejoin="round" stroke-miterlimit="2" version="1.1" viewBox="0 0 128 128" xml:space="preserve" xmlns="http://www.w3.org/2000/svg">
    <path d="m63.99 9.64c-62.31 0-63.79 69.86-63.79 83.69s28.56 25.03 63.79 25.03c35.24 0 63.79-11.21 63.79-25.03 0-13.83-1.47-83.69-63.79-83.69z" fill="#fcc21b" fill-rule="nonzero"/>
    
        <clipPath id="_clip1">
            <path d="m63.99 9.64c-62.31 0-63.79 69.86-63.79 83.69s28.56 25.03 63.79 25.03c35.24 0 63.79-11.21 63.79-25.03 0-13.83-1.47-83.69-63.79-83.69z"/>
        </clipPath>
        <g clip-path="url(#_clip1)">
            <g transform="matrix(2.1916 0 0 1.8697 -76.26 -57.729)">
                <path d="m128 47.638a64 47.638 0 0 1-64 47.638 64 47.638 0 0 1-64-47.638 64 47.638 0 0 1 64-47.638 64 47.638 0 0 1 64 47.638z" fill="url(#_Radial2)"/>
            </g>
        </g>
    
    
        <path d="m51.25 51.1c0.94 0.08 1.72 0.82 1.81 1.75v0.02c0.5 5.74-2.99 10.73-7.78 11.15s-9.1-3.89-9.61-9.63c-0.19-2.15 0.19-4.2 0.98-5.94 0.49-1.07 1.82-1.44 2.84-0.85 3.31 1.91 7.35 3.15 11.76 3.5zm27.13 0c-0.94 0.08-1.72 0.82-1.81 1.75v0.02c-0.5 5.74 2.99 10.73 7.78 11.15s9.1-3.89 9.61-9.63c0.19-2.15-0.19-4.2-0.98-5.94-0.49-1.07-1.82-1.44-2.84-0.85-3.31 1.91-7.35 3.15-11.76 3.5z" fill="#2f2f2f" fill-rule="nonzero"/>
    
    <path d="m43.09 98.64c1.99 1.34 4.5 0.46 6.71 0 6.18-1.28 11.6-1.33 14.2-1.33s8.03 0.05 14.2 1.33c2.21 0.46 4.72 1.34 6.71 0 2.52-1.71 0.66-7.83-3.31-11.97-2.4-2.5-8.13-7.35-17.61-7.35s-15.2 4.85-17.61 7.35c-3.95 4.15-5.81 10.27-3.29 11.97z" fill="#ed6c30" fill-rule="nonzero"/>
    <path d="m104.29 81.715c0-0.386-0.314-0.7-0.7-0.7h-79.185c-0.386 0-0.7 0.314-0.7 0.7v15.881c0 0.386 0.314 0.7 0.7 0.7h79.185c0.386 0 0.7-0.314 0.7-0.7v-15.881z" fill="#441400"/>
    <g transform="translate(26.371,97.861)">
        <g fill="#fff" fill-opacity=".91" aria-label="%#!$"><path d="m4.7674-9.3609c2.0112 0 3.65-1.6388 3.65-3.65 0-1.9864-1.6388-3.6252-3.65-3.6252-1.9864 0-3.6252 1.6388-3.6252 3.6252 0 2.0112 1.6388 3.65 3.6252 3.65zm-0.2483 9.5099c0.37245 0 0.76973-0.17381 0.9932-0.59592l7.9953-14.401c0.09932-0.17381 0.12415-0.39728 0.12415-0.54626 0-0.57109-0.4966-1.1422-1.1422-1.1422-0.37245 0-0.79456 0.19864-0.9932 0.57109l-7.9456 14.352c-0.12415 0.22347-0.17381 0.47177-0.17381 0.64558 0 0.57109 0.44694 1.1174 1.1422 1.1174zm0.2483-11.869c-0.69524 0-1.2663-0.57109-1.2663-1.2912 0-0.69524 0.57109-1.2663 1.2663-1.2663 0.72007 0 1.2912 0.57109 1.2912 1.2663 0 0.72007-0.57109 1.2912-1.2912 1.2912zm7.3745 12.043c1.9864 0 3.6252-1.614 3.6252-3.6252s-1.6388-3.6252-3.6252-3.6252c-2.0112 0-3.65 1.614-3.65 3.6252s1.6388 3.6252 3.65 3.6252zm0-2.334c-0.72007 0-1.2912-0.57109-1.2912-1.2912 0-0.69524 0.57109-1.2912 1.2912-1.2912 0.69524 0 1.2663 0.59592 1.2663 1.2912 0 0.72007-0.57109 1.2912-1.2663 1.2912z"/><path d="m21.428 0.14898c0.47177 0 0.9932-0.27313 1.167-0.84422l1.1174-3.8983h2.2595l-0.86905 2.9548c-0.07449 0.2483-0.09932 0.4966-0.09932 0.59592 0 0.62075 0.47177 1.1918 1.1918 1.1918 0.44694 0 0.96837-0.2483 1.1422-0.84422l1.1422-3.8983h2.632c0.64558 0 1.1918-0.52143 1.1918-1.1918 0-0.62075-0.54626-1.1918-1.1918-1.1918h-1.9367l0.72007-2.5575h2.2347c0.62075 0 1.1918-0.52143 1.1918-1.1918 0-0.62075-0.57109-1.1918-1.1918-1.1918h-1.5395l0.86905-2.9051c0.04966-0.17381 0.07449-0.39728 0.07449-0.4966 0-0.59592-0.47177-1.1918-1.1918-1.1918-0.47177 0-0.9932 0.32279-1.1422 0.84422l-1.0925 3.7493h-2.2595l0.84422-2.8803c0.04966-0.17381 0.09932-0.29796 0.09932-0.54626 0-0.62075-0.47177-1.167-1.1918-1.167-0.4966 0-1.018 0.32279-1.167 0.84422l-1.0677 3.7493h-3.0044c-0.67041 0-1.1918 0.57109-1.1918 1.1918 0 0.67041 0.52143 1.1918 1.1918 1.1918h2.2844l-0.7449 2.5575h-2.5575c-0.67041 0-1.1918 0.57109-1.1918 1.1918 0 0.67041 0.52143 1.1918 1.1918 1.1918h1.8622l-0.84422 2.9796c-0.07449 0.2483-0.12415 0.42211-0.12415 0.62075 0 0.57109 0.47177 1.1422 1.1918 1.1422zm2.9796-7.1262 0.72007-2.5575h2.2844l-0.7449 2.5575z"/><path d="m37.915-4.0225c0.69524 0 1.2167-0.54626 1.2167-1.2167v-10.131c0-0.64558-0.52143-1.2415-1.2167-1.2415-0.67041 0-1.2167 0.59592-1.2167 1.2415v10.131c0 0.67041 0.54626 1.2167 1.2167 1.2167zm-0.19864 4.1714c0.72007 0 1.465-0.69524 1.465-1.614 0-0.72007-0.52143-1.3905-1.2912-1.3905-0.7449 0-1.465 0.76973-1.465 1.614 0 0.76973 0.52143 1.3905 1.2912 1.3905z"/><path d="m48.394 1.9119c0.62075 0 1.167-0.54626 1.167-1.1918v-0.62075c2.5575-0.4966 4.5439-2.3837 4.5439-4.7674 0-2.2595-1.5891-3.7493-4.4942-4.6929l0.09932-4.6929c1.1918 0.19864 1.9119 0.79456 2.0112 1.4898 0.07449 0.57109 0.52143 1.018 1.1174 1.018 0.67041 0 1.1918-0.52143 1.1918-1.2663 0-1.8871-1.5643-3.2527-4.2708-3.5259v-0.4966c0-0.62075-0.54626-1.1918-1.167-1.1918s-1.1174 0.57109-1.1174 1.1918v0.52143c-2.8058 0.39728-4.4694 2.0857-4.4694 4.3701 0 2.483 2.0112 3.6997 4.4197 4.4694l-0.09932 5.3136c-1.167-0.2483-2.2844-0.91871-2.7065-2.0857-0.19864-0.52143-0.62075-0.89388-1.2167-0.89388-0.72007 0-1.2415 0.57109-1.2415 1.2167 0 0.27313 0.09932 0.59592 0.2483 0.94354 0.69524 1.4898 2.4085 2.8554 4.8667 3.1534v0.54626c0 0.64558 0.4966 1.1918 1.1174 1.1918zm-3.0293-14.029c0-0.96837 0.69524-1.6636 2.1106-1.9367l-0.02483 3.9976c-1.4401-0.59592-2.0857-1.1918-2.0857-2.0609zm6.4061 7.5732c0 1.0677-0.86905 1.9616-2.2099 2.3092l0.02483-4.5439c1.6388 0.67041 2.185 1.4153 2.185 2.2347z"/><path d="m62.323 0.2483c1.8622 0 3.4017-0.94354 4.4942-2.2595l1.4401 1.7381c0.22347 0.27313 0.57109 0.42211 0.89388 0.42211 0.64558 0 1.167-0.52143 1.167-1.167 0-0.22347-0.12415-0.54626-0.27313-0.72007l-1.9119-2.334c0.37245-0.76973 0.86905-1.9864 0.86905-2.6072 0-0.67041-0.4966-1.167-1.167-1.167-0.7449 0-0.94354 0.29796-1.2167 1.1422-0.02483 0.04966-0.12415 0.42211-0.19864 0.62075l-2.185-2.6568c1.7629-1.0677 2.6568-2.2347 2.6568-4.097 0-1.9119-1.8622-3.6997-3.8735-3.6997s-3.8735 1.7878-3.8735 3.7493c0 1.3656 0.69524 2.5327 1.3656 3.4017-1.7133 0.9932-3.3272 2.3092-3.3272 4.8915 0 2.9051 2.6816 4.7425 5.1398 4.7425zm0.32279-10.776c-0.52143-0.59592-1.167-1.5146-1.167-2.2595 0-0.79456 0.84422-1.4153 1.5395-1.4153 0.79456 0 1.5643 0.69524 1.5643 1.4153 0 0.57109-0.04966 1.2415-1.9367 2.2595zm-0.32279 8.4174c-1.1422 0-2.8058-0.7449-2.8058-2.3837 0-1.4898 1.1918-2.3092 2.632-3.1038l3.1286 3.7493c-0.69524 0.96837-1.7133 1.7381-2.9548 1.7381z"/></g>
    </g>
    <defs>
        <radialGradient id="_Radial2" cx="0" cy="0" r="1" gradientTransform="matrix(64 0 0 47.638 64 47.638)" gradientUnits="userSpaceOnUse"><stop stop-color="#db4437" offset="0"/><stop stop-color="#db4437" stop-opacity="0" offset="1"/></radialGradient>
    </defs>
</svg>
