<?xml version="1.0" encoding="UTF-8" standalone="no"?>
<svg
   version="1.1"
   viewBox="0 0 128 128"
   id="svg12"
   sodipodi:docname="emoji_u1fae9.svg"
   xml:space="preserve"
   inkscape:version="1.4.2 (f4327f4, 2025-05-13)"
   xmlns:inkscape="http://www.inkscape.org/namespaces/inkscape"
   xmlns:sodipodi="http://sodipodi.sourceforge.net/DTD/sodipodi-0.dtd"
   xmlns="http://www.w3.org/2000/svg"
   xmlns:svg="http://www.w3.org/2000/svg"><defs
     id="defs12" /><sodipodi:namedview
     id="namedview12"
     pagecolor="#ffffff"
     bordercolor="#000000"
     borderopacity="0.25"
     inkscape:showpageshadow="2"
     inkscape:pageopacity="0.0"
     inkscape:pagecheckerboard="0"
     inkscape:deskcolor="#d1d1d1"
     inkscape:zoom="4.6838249"
     inkscape:cx="64.050217"
     inkscape:cy="63.943467"
     inkscape:window-width="1366"
     inkscape:window-height="697"
     inkscape:window-x="-8"
     inkscape:window-y="-8"
     inkscape:window-maximized="1"
     inkscape:current-layer="svg12" /><path
     d="m 128.00359,93.783242 c 0,14.030308 -28.637628,25.408428 -63.996844,25.408428 -35.349093,0 -64.006963917,-11.37812 -64.006963917,-25.408428 0,-14.040433 1.488063217,-84.9714463 64.006963917,-84.9714463 62.529024,0 63.996844,70.9208903 63.996844,84.9714463"
     fill="#fcc21b"
     id="path1"
     style="stroke-width:1.01229;stroke-miterlimit:10" /><path
     d="m 95.964675,66.010316 c 4.344235,-1.834265 6.371545,2.123882 5.502695,5.599268 -2.220351,8.591895 -21.81784,16.121698 -31.085336,0.675773 -2.703112,-4.440805 2.220352,-7.143918 5.020037,-5.116508 7.433432,5.406225 16.121697,0.675774 20.562604,-1.158462 z m -66.322066,0.965379 c -2.123882,-2.123881 -6.371543,0 -5.695739,3.475387 2.703112,13.418888 26.452095,15.349321 30.989169,1.351505 1.158462,-3.765002 -2.027309,-6.178499 -5.502696,-4.247661 -8.495423,4.730421 -15.059807,3.958046 -19.790228,-0.579231 z"
     fill="#eb8f00"
     id="path3"
     style="stroke-width:1.01229;stroke-miterlimit:10" /><path
     d="m 71.983575,58.216905 c 6.174956,-0.202457 20.954359,0.303687 27.230544,0.80983 2.227031,0.202458 2.429491,2.125805 2.227031,3.441779 -2.733175,15.994149 -29.862491,18.929784 -31.785838,-1.214745 -0.202457,-2.733177 1.214746,-3.036864 2.328263,-3.036864 z m -45.856642,2.024576 c -1.72089,0.303686 -2.415244,0.008 -2.024576,1.732194 4.116838,17.89614 30.672323,17.602505 31.887069,-1.023593 0,-1.720889 -0.607373,-3.138092 -2.733177,-3.138092 -4.656525,0 -20.549445,1.417203 -27.129316,2.429491 z"
     fill="#ffffff"
     id="path4"
     style="stroke-width:1.01229;stroke-miterlimit:10"
     sodipodi:nodetypes="ccccccccsc" /><path
     d="m 91.683489,62.508003 c -0.238171,3.417245 -3.25156,6.026777 -6.720581,5.819671 -3.479377,-0.19675 -6.109619,-3.148007 -5.871448,-6.565251 0.227816,-3.4276 3.23085,-6.026778 6.710226,-5.819672 3.479377,0.196751 6.119975,3.148007 5.881803,6.565252"
     style="fill:#2f2f2f;stroke-width:1"
     id="path48" /><path
     d="m 46.524083,61.234303 c 0.3935,3.406889 -2.071058,6.523831 -5.529724,6.958753 -3.458666,0.445277 -6.585962,-1.967505 -6.979463,-5.364039 -0.414212,-3.406889 2.060702,-6.523831 5.519368,-6.969108 3.44831,-0.434922 6.585962,1.97786 6.989819,5.374394"
     style="fill:#2f2f2f;stroke-width:1"
     id="path49" /><path
     d="M 18.484159,62.12256 V 39.447311 H 105.94583 V 62.12256 Z"
     fill="#fcc21b"
     stroke-width="0"
     id="path7"
     style="stroke-miterlimit:10" /><g
     transform="matrix(-0.91046264,-0.12497169,0.15299545,-0.74369569,110.05192,166.56113)"
     id="g5"
     style="clip-rule:evenodd;fill-rule:evenodd;stroke-width:1.03131;stroke-linecap:round;stroke-miterlimit:10">
      <path
   d="m 41.537602,93.877515 c 11.933319,2.637277 25.464767,2.631359 41.75588,-1.901852"
   style="fill:none;fill-rule:nonzero;stroke:#2f2f2f;stroke-width:6.18787"
   id="path5"
   sodipodi:nodetypes="cc" />
    </g></svg>
