<?xml version='1.0' encoding='utf-8'?>
<svg xmlns="http://www.w3.org/2000/svg" width="128" height="128" version="1.1" id="svg1937" viewBox="0 0 128 128">
  <defs id="defs1941" />
  <g transform="matrix(5.71429,0,0,7.05882,-18.972241,-24.235235)" id="g4" style="clip-rule:evenodd;fill:#40c0e7;fill-rule:evenodd;stroke-linejoin:round;stroke-miterlimit:2">
    <path d="M 25,6.267 C 25,5.016 23.745,4 22.2,4 H 6.8 C 5.255,4 4,5.016 4,6.267 V 18.733 C 4,19.984 5.255,21 6.8,21 h 15.4 c 1.545,0 2.8,-1.016 2.8,-2.267 z" style="fill:#40c0e7" id="path2" />
  </g>
  <g transform="translate(-2.3885498,1.0471643)" id="g12" style="clip-rule:evenodd;fill:#94e0f1;fill-rule:evenodd;stroke-linejoin:round;stroke-miterlimit:2">
    <path d="M 30.915,7.958 C 25.554,8.085 15,8 12.066,18.857 c -0.581,2.15 -1.578,5.57 0.285,7.423 1.433,1.425 3.932,0.985 5.373,-0.162 1.534,-1.221 2.286,-3.205 3.245,-4.857 1.114,-1.917 2.599,-3.655 4.34,-5.034 1.627,-1.289 3.482,-2.052 5.444,-2.683 1.362,-0.438 3.297,-0.632 3.969,-1.979 C 36,9 32.576,7.869 30.915,7.958 Z" style="fill:#94e0f1" id="path10" />
  </g>
  <g aria-label="COOL" transform="scale(0.80489688,1.2423952)" id="text1935" style="line-height:38.6549;fill:#ffffff">
    <path d="m 25.315017,72.603648 c 5.999276,0 11.441917,-2.535776 14.843568,-7.359936 0.432938,-0.618482 0.556634,-1.236964 0.556634,-1.855446 0,-1.979142 -1.484357,-3.09241 -3.09241,-3.09241 -0.927723,0 -1.669901,0.247393 -2.41208,1.236964 -1.979142,2.597625 -5.009704,5.133401 -9.895712,5.133401 -6.432213,0 -11.874855,-4.638615 -11.874855,-12.678881 0,-8.96799 6.308517,-17.56489 12.678882,-17.56489 3.339803,0 5.257097,1.05142 6.555909,2.41208 v 0.432938 c 0,1.298812 1.236964,2.473928 2.906866,2.473928 1.731749,0 3.09241,-1.422509 3.09241,-3.09241 v -3.958285 c 0,-1.546205 -1.175116,-2.845018 -2.845018,-2.845018 -0.865875,0 -1.484357,0.37109 -1.855446,0.742179 -1.855446,-1.113268 -4.638615,-2.164687 -7.421784,-2.164687 -9.462775,0 -19.2966389,11.194524 -19.2966389,23.564165 0,11.751158 8.2258109,18.616308 18.0596749,18.616308 z" style="stroke-width:1.00001" id="path11" />
    <path d="m 60.444784,72.603648 c 9.95756,0 18.492612,-9.772015 18.492612,-22.636441 0,-11.256373 -6.803302,-19.544032 -16.080532,-19.544032 -9.833865,0 -18.430765,9.772016 -18.430765,22.636442 0,11.132676 6.679606,19.544031 16.018685,19.544031 z m 0,-5.875579 c -5.071553,0 -9.833864,-4.638615 -9.833864,-13.668452 0,-9.833864 5.380793,-16.760863 11.874854,-16.760863 5.071553,0 10.266802,4.886008 10.266802,13.915845 0,9.833864 -5.628187,16.51347 -12.307792,16.51347 z" style="stroke-width:1.00001" id="path13" />
    <path d="m 99.90397,72.603648 c 9.95756,0 18.49261,-9.772015 18.49261,-22.636441 0,-11.256373 -6.8033,-19.544032 -16.08053,-19.544032 -9.833864,0 -18.430764,9.772016 -18.430764,22.636442 0,11.132676 6.679606,19.544031 16.018684,19.544031 z m 0,-5.875579 c -5.071552,0 -9.833864,-4.638615 -9.833864,-13.668452 0,-9.833864 5.380794,-16.760863 11.874854,-16.760863 5.07155,0 10.2668,4.886008 10.2668,13.915845 0,9.833864 -5.62818,16.51347 -12.30779,16.51347 z" style="stroke-width:1.00001" id="path15" />
    <path d="m 128.53972,72.5418 20.16251,-1.298812 c 1.54621,-0.123696 2.78317,-1.608053 2.78317,-3.09241 0,-1.793598 -1.29881,-3.09241 -3.03056,-2.968714 l -16.82271,1.113268 V 33.515585 c 0,-1.608053 -1.42251,-3.030562 -3.03056,-3.030562 -1.73175,0 -3.09241,1.422509 -3.09241,3.030562 v 36.057502 c 0,1.546205 1.4225,3.09241 3.03056,2.968713 z" style="stroke-width:1.00001" id="path17" />
  </g>
</svg>