<?xml version='1.0' encoding='UTF-8'?>
<svg xmlns="http://www.w3.org/2000/svg" xmlns:ns1="http://www.w3.org/1999/xlink" version="1.1" id="svg22" viewBox="0 0 128 128">
  <defs id="defs8">
    <radialGradient ns1:href="#a" id="b" cx="42.143" cy="6.368" fx="42.143" fy="6.368" r="1.639" gradientUnits="userSpaceOnUse" gradientTransform="matrix(1.89289 0 0 1.75554 -37.72 -4.8)"/>
    <linearGradient id="a">
      <stop offset="0" stop-color="#282846" id="stop3"/>
      <stop offset="1" stop-color="#1a4223" stop-opacity=".177" id="stop5"/>
    </linearGradient>
  </defs>
  <rect width="60.56" height="121.55" x="33.71" y="3.12" rx="6.2" ry="2.1" fill="#181818" paint-order="stroke fill markers" id="rect10"/>
  <path paint-order="stroke fill markers" d="M35.299 9.47h57.383v107.014H35.299z" id="path12"/>
  <path d="M54.111 120.209h19.758M54.111 6.38h19.758" fill="none" fill-rule="evenodd" stroke="#282828" stroke-width="1.48" stroke-linecap="round" stroke-linejoin="round" id="path14"/>
  <circle cx="42.052" cy="6.38" r="1.434" fill="url(#b)" paint-order="stroke fill markers" id="circle16"/>
  <g aria-label="OFF" id="text20" style="line-height:44.4946;fill:#ed6c30">
    <path d="m 21.62311,88.632148 c 11.461751,0 21.286109,-11.248178 21.286109,-26.055907 0,-12.956762 -7.83101,-22.496356 -18.50966,-22.496356 -11.31937,0 -21.2149189,11.248178 -21.2149189,26.055906 0,12.814381 7.6886279,22.496357 18.4384699,22.496357 z m 0,-6.763145 c -5.837663,0 -11.31937,-5.339325 -11.31937,-15.733212 0,-11.319369 6.193617,-19.292761 13.668673,-19.292761 5.837662,0 11.817706,5.624089 11.817706,16.017975 0,11.319369 -6.478381,19.007998 -14.167009,19.007998 z" style="line-height:0" id="path26"/>
    <path d="m 51.866769,88.703339 c 1.993348,0 3.55955,-1.566202 3.55955,-3.55955 V 66.990083 h 18.936807 c 1.993348,0 3.488359,-1.637393 3.488359,-3.488359 0,-1.993348 -1.495011,-3.630741 -3.488359,-3.630741 H 55.426319 V 47.626131 h 24.84566 c 1.993348,0 3.488359,-1.708584 3.488359,-3.55955 0,-1.993348 -1.495011,-3.55955 -3.488359,-3.55955 h -28.40521 c -1.993348,0 -3.55955,1.566202 -3.55955,3.55955 v 41.077208 c 0,1.993348 1.566202,3.55955 3.55955,3.55955 z" style="line-height:0" id="path28"/>
    <path d="m 90.439695,88.703339 c 1.993348,0 3.55955,-1.566202 3.55955,-3.55955 V 66.990083 h 18.936805 c 1.99335,0 3.48836,-1.637393 3.48836,-3.488359 0,-1.993348 -1.49501,-3.630741 -3.48836,-3.630741 H 93.999245 V 47.626131 H 118.8449 c 1.99335,0 3.48836,-1.708584 3.48836,-3.55955 0,-1.993348 -1.49501,-3.55955 -3.48836,-3.55955 H 90.439695 c -1.993349,0 -3.559551,1.566202 -3.559551,3.55955 v 41.077208 c 0,1.993348 1.566202,3.55955 3.559551,3.55955 z" style="line-height:0" id="path30"/>
  </g>
</svg>
