<?xml version="1.0" encoding="UTF-8" standalone="no"?>
<svg
   width="128"
   height="128"
   version="1.1"
   id="svg16"
   sodipodi:docname="emoji_u1f995.svg"
   inkscape:version="1.4.2 (f4327f4, 2025-05-13)"
   xml:space="preserve"
   xmlns:inkscape="http://www.inkscape.org/namespaces/inkscape"
   xmlns:sodipodi="http://sodipodi.sourceforge.net/DTD/sodipodi-0.dtd"
   xmlns:xlink="http://www.w3.org/1999/xlink"
   xmlns="http://www.w3.org/2000/svg"
   xmlns:svg="http://www.w3.org/2000/svg"><sodipodi:namedview
     id="namedview16"
     pagecolor="#ffffff"
     bordercolor="#000000"
     borderopacity="0.25"
     inkscape:showpageshadow="2"
     inkscape:pageopacity="0.0"
     inkscape:pagecheckerboard="0"
     inkscape:deskcolor="#d1d1d1"
     inkscape:zoom="4.2098882"
     inkscape:cx="63.897184"
     inkscape:cy="64.491024"
     inkscape:window-width="1366"
     inkscape:window-height="697"
     inkscape:window-x="-8"
     inkscape:window-y="-8"
     inkscape:window-maximized="1"
     inkscape:current-layer="svg16" /><linearGradient
     id="a"
     gradientUnits="userSpaceOnUse"
     x1="48.665"
     x2="48.665"
     y1="84.939"
     y2="121.277"><stop
       offset="0"
       stop-color="#2d80b1"
       id="stop2" /></linearGradient><linearGradient
     id="b"
     gradientUnits="userSpaceOnUse"
     x1="70.213"
     x2="70.213"
     y1="84.939"
     y2="121.277"><stop
       offset="0"
       stop-color="#2d80b1"
       id="stop3" /></linearGradient><linearGradient
     id="c"
     gradientUnits="userSpaceOnUse"
     x1="68.25"
     x2="68.25"
     y1="88.373"
     y2="114.027"><stop
       offset="0"
       stop-color="#f9e4b8"
       id="stop5" /></linearGradient><linearGradient
     id="d"
     gradientUnits="userSpaceOnUse"
     x1="63.979"
     x2="63.979"
     y1="11.177"
     y2="123.857"><stop
       offset="0"
       stop-color="#2db1a8"
       id="stop6" /></linearGradient><defs
     id="defs9"><inkscape:path-effect
       effect="powerclip"
       message=""
       id="path-effect29"
       is_visible="true"
       lpeversion="1"
       inverse="true"
       flatten="false"
       hide_clip="false" /><inkscape:path-effect
       effect="powerclip"
       message=""
       id="path-effect28"
       is_visible="true"
       lpeversion="1"
       inverse="true"
       flatten="false"
       hide_clip="false" /><path
       id="e"
       d="M121.15 78.64c-1.36-3.68-3.46-5.39-8.55-7.61-6.53-2.58-13.88-2.57-13.88-2.57s-1.49.2-.65.48c.84.28 19.33 2.84 20.17 10.72.84 7.88-9.8 14.13-19.18 11.18-9.38-2.96-6.83-7.13-16.36-15.44-9.52-8.31-26.98-7.35-33.98-7.91-7-.56-13.27-.97-21.87-10.04-6.91-7.29-13.26-19.47-10.02-26.61 1.23-9.35 12.45-13.12 23.08-14.49-.71-1.67-2.88-2.39-4.65-3.39-3.5-1.97-.98-3.61-3.61-6.19-2.22-2.19-5.23-2-7.46-.9-3.31 1.64-3.83 4.79-7.19 6.33C11.37 14.79.53 26.89 8.65 49.7c0 0 1.85 4.31 5.2 10.07.49.53 6.04 8.8 14.07 16.88 3.69 3.71 6.96 8.14 11.01 11.36-.35 3.43-.64 7.37-1.24 11.2-1.45 9.36-5.18 17.46-5.59 19.05-.41 1.59-.36 2.21 3.36 2.49 3.73.28 10.09.57 11.03.06.93-.51 1.6-4.76 1.29-7.88-.31-3.12.26-9.87 1.81-12.64.76-1.35 2.7-3.99 4.52-6.85 5.46.69 16.02.67 16.9.42.69 2.92 1.75 6.56 3.32 10.07 3.42 7.64 4.5 7.49 3.68 9.76-.83 2.27-2.28 4.55-1.66 6.25.62 1.7 5.02 1.5 7.92 1.29 2.9-.21 6.47-.31 5.54-3.82s-4.92-11.52-4.09-14.57c.46-1.71 1.77-4.41 2.24-7.27 4.16-.58 5.73-.4 12.97.61 12.75.99 25.07-4.4 20.22-17.54z" /><path
       id="e-6"
       d="M121.15 78.64c-1.36-3.68-3.46-5.39-8.55-7.61-6.53-2.58-13.88-2.57-13.88-2.57s-1.49.2-.65.48c.84.28 19.33 2.84 20.17 10.72.84 7.88-9.8 14.13-19.18 11.18-9.38-2.96-6.83-7.13-16.36-15.44-9.52-8.31-26.98-7.35-33.98-7.91-7-.56-13.27-.97-21.87-10.04-6.91-7.29-13.26-19.47-10.02-26.61 1.23-9.35 12.45-13.12 23.08-14.49-.71-1.67-2.88-2.39-4.65-3.39-3.5-1.97-.98-3.61-3.61-6.19-2.22-2.19-5.23-2-7.46-.9-3.31 1.64-3.83 4.79-7.19 6.33C11.37 14.79.53 26.89 8.65 49.7c0 0 1.85 4.31 5.2 10.07.49.53 6.04 8.8 14.07 16.88 3.69 3.71 6.96 8.14 11.01 11.36-.35 3.43-.64 7.37-1.24 11.2-1.45 9.36-5.18 17.46-5.59 19.05-.41 1.59-.36 2.21 3.36 2.49 3.73.28 10.09.57 11.03.06.93-.51 1.6-4.76 1.29-7.88-.31-3.12.26-9.87 1.81-12.64.76-1.35 2.7-3.99 4.52-6.85 5.46.69 16.02.67 16.9.42.69 2.92 1.75 6.56 3.32 10.07 3.42 7.64 4.5 7.49 3.68 9.76-.83 2.27-2.28 4.55-1.66 6.25.62 1.7 5.02 1.5 7.92 1.29 2.9-.21 6.47-.31 5.54-3.82s-4.92-11.52-4.09-14.57c.46-1.71 1.77-4.41 2.24-7.27 4.16-.58 5.73-.4 12.97.61 12.75.99 25.07-4.4 20.22-17.54z" /><clipPath
       clipPathUnits="userSpaceOnUse"
       id="clipPath20"><path
         style="fill:#13ab96;stroke:none;stroke-width:5.99999;stroke-linecap:round"
         d="M 36.875891,-0.5787352 C 13.420332,-0.0060485 5.5155391,17.224644 5.5155391,38.371203 c 0,36.111927 21.5399249,64.744627 56.3664329,61.952347 32.588386,-2.612829 59.615988,-15.140194 59.615988,-38.793914 0,-12.836644 -11.92004,-19.61714 -24.530535,-17.881014 -5.736867,0.789812 -8.651303,3.592472 -8.235171,6.572938 0.530964,3.802922 2.868425,3.368017 8.605273,2.578209 7.080733,-0.974827 9.164543,2.675433 9.164543,6.151312 0,4.027506 -3.37125,7.350829 -8.916985,7.486233 C 82.291108,66.810729 80.456932,60.725406 56.779266,61.303516 36.867685,61.789673 27.215675,50.025937 27.215675,37.565002 c 0,-5.66989 4.172669,-8.435361 9.223151,-8.558672 10.445294,-0.255031 17.191019,-5.227393 17.191019,-14.405652 0,-9.178261 -9.204973,-15.3637278 -16.753954,-15.1794132 z"
         id="path21"
         sodipodi:nodetypes="ssssssssssssss" /></clipPath><clipPath
       clipPathUnits="userSpaceOnUse"
       id="clipPath25"><path
         d="m 43.758556,73.364162 -5.49,3.1 c 0,0 0.56,13.09 -0.99,18.16 -1.55,5.07 -3.8,8.729998 -4.79,10.139998 -0.99,1.41 -3.8,2.5 -2.67,6.05 0.67,2.1 3.8,2.82 8.87,2.67 5.07,-0.14 14.36,-6.9 14.36,-6.9 l 2.96,-14.639998 17.6,5.216376 c 0,0 -0.42,2.706992 -0.7,3.729632 -0.28,1.01061 -0.911515,2.53086 -0.771515,4.04678 0.14,1.52795 0.741515,3.37721 8.651515,3.19721 7.78,-0.18 9.15,-9.569998 9.15,-9.569998 l -6.48,-14.22 z"
         style="clip-rule:evenodd;fill:#13ab96;fill-opacity:1;fill-rule:nonzero;stroke-linejoin:round;stroke-miterlimit:2"
         id="path26"
         sodipodi:nodetypes="ccssccccccccccc" /></clipPath><clipPath
       clipPathUnits="userSpaceOnUse"
       id="clipPath27"><path
         style="display:none;opacity:1;fill:#1dcebd;fill-opacity:1;stroke:none;stroke-width:5;stroke-linecap:round;stroke-miterlimit:2;stroke-dasharray:none;stroke-opacity:1"
         d="m 58.808788,24.871707 c -10.470358,2.682566 -17.102592,-3.681808 -18.171504,-1.18768 -1.068912,2.494127 2.9692,5.403943 10.214048,6.235319 7.244848,0.831376 7.957456,-5.047639 7.957456,-5.047639 z"
         id="path28"
         sodipodi:nodetypes="cssc" /><path
         id="lpe_path-effect28"
         style="opacity:1;fill:#1dcebd;fill-opacity:1;stroke:none;stroke-width:5;stroke-linecap:round;stroke-miterlimit:2;stroke-dasharray:none;stroke-opacity:1"
         class="powerclip"
         d="M 2.230933,-1.5378829 H 125.48014 V 131.26823 H 2.230933 Z M 58.808788,24.871707 c -10.470358,2.682566 -17.102592,-3.681808 -18.171504,-1.18768 -1.068912,2.494127 2.9692,5.403943 10.214048,6.235319 7.244848,0.831376 7.957456,-5.047639 7.957456,-5.047639 z"
         sodipodi:nodetypes="ccccccssc" /></clipPath><clipPath
       clipPathUnits="userSpaceOnUse"
       id="clipPath30"><path
         style="fill:#13ab96;stroke:none;stroke-width:6.45843;stroke-linecap:round"
         d="m 121.49796,61.529636 c 0,-12.836644 -11.92003,-19.61714 -24.530535,-17.881015 -5.736867,0.789813 -8.651303,3.592474 -8.23517,6.572939 0.530962,3.802922 2.868423,3.368017 8.605272,2.578208 7.080743,-0.974826 9.164543,2.675434 9.164543,6.151313 0,4.027506 -3.37125,7.350829 -8.916985,7.486233 -15.293977,0.373415 -17.128154,-5.711908 -40.80582,-5.133798 -19.91158,0.486158 -29.56359,-11.277579 -29.56359,-23.738514 0,-5.669889 4.172669,-8.435361 9.223151,-8.558672 5.108589,-0.12473 9.332241,-1.377845 12.314595,-3.699512 -2.74042,0.465503 -4.07629,0.174816 -5.878659,-0.250811 -5.626226,-1.328615 -6.610716,-4.711258 -5.403768,-5.614566 1.179988,-0.88313 4.159712,0.747225 7.665463,1.540847 2.146804,0.485987 4.978738,0.54737 7.104247,0.06996 0.906672,-1.843187 1.389141,-3.996972 1.389141,-6.45157 0,-9.1782617 -9.204973,-15.36372877 -16.753953,-15.17941415 C 13.420332,-0.00604844 5.515539,17.224644 5.515539,38.371204 c 0,36.111926 21.428166,61.952346 56.366433,61.952346 37.320821,0 59.615988,-17.073567 59.615988,-38.793914 z"
         id="path30"
         sodipodi:nodetypes="ssssssssscssscsssss" /></clipPath></defs><clipPath
     id="f"><use
       xlink:href="#e"
       overflow="visible"
       id="use9" /></clipPath><path
     d="m 48.204772,77.580669 -5.538303,3.127275 c 0,0 0.564927,13.205174 -0.998711,18.319783 -1.563637,5.114613 -3.833436,8.806813 -4.832146,10.229223 -0.998711,1.4224 -3.833435,2.52199 -2.693492,6.10323 0.675896,2.11847 3.833435,2.84481 8.948043,2.69349 5.114609,-0.14123 14.486349,-6.96071 14.486349,-6.96071 l 2.986044,-14.768812 18.42671,-0.280509 c 0,0 -0.248526,5.089931 -1.378013,9.305231 -0.282464,1.0195 -0.919535,2.55313 -0.778303,4.08239 0.141232,1.54139 0.748039,3.40692 8.727636,3.22534 7.848453,-0.18159 9.230507,-9.6542 9.230507,-9.6542 L 88.254078,88.657277 Z"
     style="clip-rule:evenodd;fill:#13ab96;fill-opacity:1;fill-rule:nonzero;stroke-width:0.999996;stroke-linejoin:round;stroke-miterlimit:2"
     id="path1-9"
     sodipodi:nodetypes="ccssccccccccccc" /><path
     id="path24"
     style="fill:#13ab96;fill-opacity:1;stroke:#212121;stroke-width:4.95639;stroke-linecap:round;stroke-miterlimit:2;stroke-dasharray:none;stroke-opacity:1"
     d="m 82.807988,69.868708 c -9.63184,-0.508981 -1.987013,28.932155 -0.997718,34.313062 0.374671,2.03787 0.113649,5.50127 -0.53328,7.29606 -0.359558,0.99751 -2.046787,3.14353 -1.477647,6.06029 0.1894,0.97068 1.184964,3.94152 11.399222,3.04523 10.214255,-0.89629 8.135478,-7.07638 7.721378,-8.06656 -2.02103,-4.83264 -2.3007,-6.67924 -3.76258,-11.15602 -1.05931,-3.243973 -2.368385,-25.946162 -4.763305,-28.490398 -2.11535,-2.247238 -4.73241,-2.850865 -7.58607,-3.001664 z M 49.539837,68.561654 c -7.68935,4.316771 -3.954569,27.366382 -5.054809,34.045106 -0.32274,1.95912 -0.60915,4.83735 -2.00552,6.33176 -2.1412,2.29156 -7.67337,3.93925 -5.23177,8.65101 2.52726,4.87705 17.39512,4.49039 21.18868,0.43045 2.19533,-2.34949 1.04636,-11.03087 1.04636,-14.19927 0,-9.067276 8.128179,-33.556177 -2.880041,-36.452584 -2.38795,-0.628301 -5.08683,0.08417 -7.0629,1.193528 z"
     clip-path="url(#clipPath25)"
     transform="matrix(1.0087987,0,0,1.0087987,4.0612016,3.5710021)"
     sodipodi:nodetypes="sssssssssssssssss" /><g
     id="g23"
     transform="matrix(0.97643421,0,0,0.97643421,1.8453719,3.5521419)"
     style="stroke-width:1.02413"><path
       style="fill:#13ab96;stroke:none;stroke-width:6.1448;stroke-linecap:round"
       d="m 36.024423,-0.5787352 c -21.398283,0 -30.5088839,17.8033792 -30.5088839,38.9499382 0,36.111927 21.5399249,64.744627 56.3664329,61.952347 32.588386,-2.612829 59.615988,-15.140194 59.615988,-38.793914 0,-12.836644 -11.92004,-19.61714 -24.530535,-17.881014 -5.736867,0.789812 -8.651303,3.592472 -8.235171,6.572938 0.530964,3.802922 2.868425,3.368017 8.605273,2.578209 7.080733,-0.974827 9.164543,2.675433 9.164543,6.151312 0,4.027506 -3.37125,7.350829 -8.916985,7.486233 C 82.291108,66.810729 80.456932,60.725406 56.779266,61.303516 36.867685,61.789673 27.215675,50.025937 27.215675,37.565002 c 0,-5.66989 4.172669,-18.676706 9.223151,-18.800017 10.445294,-0.255031 17.191019,5.013952 17.191019,-4.164307 0,-9.178261 -7.470672,-15.1794132 -17.605422,-15.1794132 z"
       id="path165"
       sodipodi:nodetypes="ssssssssssssss" /><path
       style="fill:#1dcebd;stroke-width:4.09654;stroke-linecap:round;stroke-miterlimit:2"
       d="m 30.33526,53.710983 c -1.456059,-4.729074 -3.119585,-12.967284 -3.119585,-16.145981 0,-16.682535 32.221705,13.73365 32.221705,13.73365 L 57.200157,15.739723 c -14.823356,0 -40.179222,-0.463847 -40.179222,21.509599 0,8.442096 1.287304,14.689545 2.521612,20.118769"
       id="path7"
       clip-path="url(#clipPath30)"
       sodipodi:nodetypes="csccsc" /><g
       id="g18"
       transform="matrix(0.9290173,-0.02268272,0,0.9290173,104.3813,-6.4723572)"
       style="stroke-width:1.07641"><path
         style="fill:#a5a936;fill-opacity:1;stroke:none;stroke-width:6.45843;stroke-linecap:round"
         d="M -73.85734,27.827843 H -74.8165"
         id="path17"
         sodipodi:nodetypes="cc" /></g><ellipse
       style="fill:#2f2f2f;fill-opacity:1;stroke:none;stroke-width:6.14572;stroke-linecap:round"
       id="path166"
       transform="matrix(0.99970207,-0.02440855,0,1,0,0)"
       cx="44.080204"
       cy="13.765102"
       rx="3.6084998"
       ry="3.9191775" /><path
       style="fill:#a5a936;fill-opacity:1;stroke:none;stroke-width:6.1448;stroke-linecap:round"
       d="m 35.766553,27.055475 c -0.297025,0.0073 -0.59405,0.0145 -0.891076,0.02176"
       id="path171"
       sodipodi:nodetypes="cc" /><path
       style="fill:#1dcebd;stroke-width:4.09654;stroke-linecap:round;stroke-miterlimit:2"
       d="m 123.12105,61.037349 c 0,14.300179 -17.37933,31.244549 -47.87629,31.244549 -36.278598,0 -44.9095,-38.570915 -44.9095,-38.570915 l -10.792713,3.657108 c 0,0 9.782316,40.754247 48.557365,42.468052 27.581015,1.219047 56.801148,-17.961831 55.021138,-38.798794 z"
       id="path19"
       clip-path="url(#clipPath20)"
       sodipodi:nodetypes="csccsc" /></g><path
     id="path23"
     style="fill:#13ab96;fill-opacity:1;stroke-width:4;stroke-linecap:round;stroke-miterlimit:2"
     d="m 87.597787,74.05446 c -9.716588,-0.513461 -2.004498,29.18673 -1.006498,34.61497 0.37797,2.0558 0.114652,5.54969 -0.537971,7.36026 -0.362719,1.00628 -2.064797,3.17118 -1.490649,6.11361 0.191067,0.97921 1.19539,3.9762 11.49952,3.07202 10.304131,-0.90418 8.207061,-7.13864 7.789321,-8.13754 -2.03881,-4.87515 -2.32095,-6.73801 -3.79569,-11.25417 C 98.987188,102.5511 97.666595,79.649155 95.250603,77.082534 93.116642,74.815524 90.476554,74.206586 87.597787,74.05446 Z M 54.036921,72.735905 c -7.757006,4.354753 -3.989364,27.607165 -5.099285,34.344655 -0.32558,1.97636 -0.614509,4.87992 -2.023166,6.38747 -2.160039,2.31173 -7.740884,3.97392 -5.277802,8.72713 2.549497,4.91996 17.548174,4.5299 21.375111,0.43423 2.214647,-2.37016 1.055567,-11.12792 1.055567,-14.32419 0,-9.147058 8.199696,-33.851432 -2.905381,-36.773324 -2.408961,-0.63383 -5.131588,0.08492 -7.125044,1.204029 z"
     sodipodi:nodetypes="sssssssssssssssss" /><g
     id="g34"
     transform="matrix(0.93135177,0.01112048,-0.01112048,0.93135177,9.4538601,3.8203865)"
     style="stroke-width:1.07363"><circle
       style="opacity:1;fill:#1dcebd;fill-opacity:1;stroke:none;stroke-width:5.36817;stroke-linecap:round;stroke-miterlimit:2;stroke-dasharray:none;stroke-opacity:1"
       id="path31"
       cx="52.409515"
       cy="69.425858"
       r="2.7286799" /><circle
       style="opacity:1;fill:#1dcebd;fill-opacity:1;stroke:none;stroke-width:5.36817;stroke-linecap:round;stroke-miterlimit:2;stroke-dasharray:none;stroke-opacity:1"
       id="circle31"
       cx="65.777191"
       cy="70.514442"
       r="2.7286799" /><circle
       style="opacity:1;fill:#1dcebd;fill-opacity:1;stroke:none;stroke-width:5.36817;stroke-linecap:round;stroke-miterlimit:2;stroke-dasharray:none;stroke-opacity:1"
       id="circle32"
       cx="79.394333"
       cy="72.35041"
       r="2.7286799" /><circle
       style="opacity:1;fill:#1dcebd;fill-opacity:1;stroke:none;stroke-width:5.36817;stroke-linecap:round;stroke-miterlimit:2;stroke-dasharray:none;stroke-opacity:1"
       id="circle33"
       cx="58.768425"
       cy="77.009842"
       r="2.7286799" /><circle
       style="opacity:1;fill:#1dcebd;fill-opacity:1;stroke:none;stroke-width:5.36817;stroke-linecap:round;stroke-miterlimit:2;stroke-dasharray:none;stroke-opacity:1"
       id="circle34"
       cx="70.462433"
       cy="78.266388"
       r="2.7286799" /></g></svg>
