<?xml version="1.0" encoding="UTF-8"?>
<svg clip-rule="evenodd" fill-rule="evenodd" stroke-linejoin="round" stroke-miterlimit="2" version="1.1" viewBox="0 0 128 128" xml:space="preserve" xmlns="http://www.w3.org/2000/svg"><g transform="matrix(.24364 0 0 .24364 -.97171 -4.5645)"><path d="m521.17 355.12-32.709-5.917c0.292-7.833 0.167-15.75-0.333-23.666l33.625-5c4.828-0.732 8.207-5.294 7.5-10.125-0.723-4.81-5.273-8.175-10.083-7.459l-33.167 4.959c-4.125-23.584-13.458-46.959-27.167-68.125 4.375-41.75 12.709-154.88-21.208-177.67-27.042-18.167-91.458 49.292-112.25 73.458-4.792 5.584-9.167 10.625-13.167 15.209-14.5-2.209-29.25-3.417-43.958-3.417-14.667 0-29.417 1.208-43.917 3.417-4.041-4.584-8.375-9.625-13.166-15.209-20.75-24.208-85.167-91.625-112.25-73.5-33.959 22.792-25.542 136-21.209 177.71-13.791 21.291-23.125 44.833-27.208 68.541l-36.292-5.416c-4.815-0.694-9.36 2.654-10.125 7.458-0.708 4.875 2.625 9.417 7.5 10.125l36.792 5.5c-0.458 7.542-0.583 15.125-0.333 22.625l-35.875 6.458c-4.215 0.763-7.309 4.467-7.309 8.75 0 0.531 0.047 1.061 0.142 1.584 0.779 4.202 4.476 7.283 8.75 7.291 0.5 0 1.042-0.041 1.583-0.125l34.167-6.166c1.125 8.791 2.958 17.416 5.542 25.833l-27.334 8.667c-4.646 1.48-7.258 6.515-5.791 11.166 1.154 3.688 4.593 6.216 8.458 6.216 0.919 0 1.833-0.143 2.708-0.424l28.334-9c8.208 17.708 20.75 33.958 39.166 47.708 25.209 18.792 56.584 31.542 88.875 38.459 12.292 2.625 44 8.75 77.292 8.75s68.125-6.125 80.417-8.75c32.291-6.917 63.666-19.667 88.875-38.459 18.125-13.5 30.541-29.458 38.75-46.833l25.541 8.125c4.652 1.471 9.69-1.142 11.167-5.792 1.458-4.666-1.125-9.666-5.792-11.166l-24.416-7.75c2.708-8.5 4.583-17.25 5.75-26.167l31.041 5.583c0.542 0.084 1.084 0.125 1.584 0.125 4.208 0 7.958-3 8.75-7.291 0.791-4.792-2.417-9.417-7.25-10.292z" fill="#ffa726" fill-rule="nonzero"/><path d="m105.14 216.87c-1.125 1.014-2.713 1.335-4.144 0.838-1.431-0.498-2.477-1.734-2.732-3.227-6.474-39.866-30.514-219.36 92.258-52.555 0.765 1.041 1.004 2.377 0.647 3.618s-1.269 2.247-2.469 2.723c-14.067 5.769-54.826 23.706-83.56 48.603zm329.04-6.629c1.125 1.021 2.717 1.346 4.152 0.848 1.436-0.497 2.485-1.738 2.736-3.236 6.271-39.18 28.89-211.68-88.393-50.719-0.757 1.039-0.991 2.368-0.636 3.604 0.355 1.235 1.26 2.237 2.453 2.715 13.583 5.636 52.264 22.881 79.688 46.788z" fill="#f9c3d5"/><path d="m265.25 334.1h-4e-3c-66.331 0-120.91 46.626-120.91 103.29 0.043 17.188 5.108 34.099 14.734 49.192 9.956 3.419 20.106 6.246 30.396 8.467 12.291 2.625 43.995 8.75 77.287 8.75s68.125-6.125 80.417-8.75c7.606-1.64 15.138-3.607 22.575-5.896 10.714-15.717 16.38-33.575 16.425-51.763v-4e-3c0-56.662-54.582-103.29-120.91-103.29h-4e-3z" fill="#fff3e0" fill-rule="nonzero"/><g fill="#212121"><path d="m133.85 313.29c0-19.084 13.75-34.542 30.708-34.542 16.917 0 30.667 15.458 30.667 34.542 0 19.083-13.75 34.583-30.667 34.583-16.958 0-30.708-15.458-30.708-34.583z"/><path d="m368.81 347.88c-16.959 0-30.709-15.458-30.709-34.583 0-19.084 13.75-34.542 30.709-34.542 16.916 0 30.666 15.458 30.666 34.542 0 19.125-13.75 34.583-30.666 34.583z"/><path d="m347.69 411.42c-1.125 6.958-2.917 14.25-6.084 20.666-4.583 9.209-11.791 17.417-20.958 22.875-17.75 10.542-38.458 13.334-59.083 13.375-31.459 0.084-62.875-16.416-73.084-45.291-0.708-2-2.541-7.417-3-12.084-0.375-4.083 0.334-7.666 3.875-7.916 4.667-0.292 8.042 3.375 11.375 5.875 3.084 2.291 6.917 3.541 10.542 4.791 4.458 1.5 8.875 3.084 13.5 4 4.958 1 10.542 0.375 15.417-0.666 7.083-1.5 12.208-5.417 18.125-9 3.666-2.209 7.791-3.667 12.375-2.917 2.708 0.458 5.5 1.792 7.916 2.917 3.542 1.583 6.917 3.958 10.334 5.833 3 1.625 6.25 2.25 9.791 2.333 7.834 0.209 15.75 1 23.375-1.416 3.625-1.167 7.042-2.334 10.334-4.167 6.333-3.5 17.291-11.833 15.25 0.792z"/></g></g></svg>
