<?xml version='1.0' encoding='UTF-8'?>
<svg xmlns="http://www.w3.org/2000/svg" version="1.1" id="svg2940" viewBox="0 0 128 128">
  <defs id="defs2944"/>
  <g transform="matrix(5.71429,0,0,7.05882,-18.857205,-24.23525)" id="g4" style="clip-rule:evenodd;fill:#db4437;fill-rule:evenodd;stroke-linejoin:round;stroke-miterlimit:2">
    <path d="M 25,6.267 C 25,5.016 23.745,4 22.2,4 H 6.8 C 5.255,4 4,5.016 4,6.267 V 18.733 C 4,19.984 5.255,21 6.8,21 h 15.4 c 1.545,0 2.8,-1.016 2.8,-2.267 z" style="fill:#db4437" id="path2"/>
  </g>
  <g transform="translate(-2.273515,1.047149)" id="g12" style="clip-rule:evenodd;fill:#ef9a9a;fill-rule:evenodd;stroke-linejoin:round;stroke-miterlimit:2">
    <path d="M 30.915,7.958 C 25.554,8.085 15,8 12.066,18.857 c -0.581,2.15 -1.578,5.57 0.285,7.423 1.433,1.425 3.932,0.985 5.373,-0.162 1.534,-1.221 2.286,-3.205 3.245,-4.857 1.114,-1.917 2.599,-3.655 4.34,-5.034 1.627,-1.289 3.482,-2.052 5.444,-2.683 1.362,-0.438 3.297,-0.632 3.969,-1.979 C 36,9 32.576,7.869 30.915,7.958 Z" style="fill:#ef9a9a" id="path10"/>
  </g>
  <g aria-label="SOS" transform="scale(0.93533997,1.06913)" id="text2938" style="line-height:44.8434;fill:#ffffff">
    <path d="m 26.271776,84.328169 c 9.32737,0 17.291509,-6.170414 17.291509,-14.42155 0,-7.031402 -5.237677,-11.551589 -14.708545,-14.278051 -7.748892,-2.224219 -11.049346,-4.30494 -11.049346,-7.677143 0,-3.58745 3.300454,-5.955167 9.829613,-5.955167 5.309426,0 8.538131,2.080721 8.896876,4.663685 0.215247,1.650227 1.578478,3.013458 3.300454,3.013458 2.008972,0 3.515701,-1.578478 3.515701,-3.730948 0,-6.313912 -5.811669,-10.547103 -15.713031,-10.547103 -10.403605,0 -16.789266,5.381175 -16.789266,13.058318 0,8.179386 7.390147,11.695087 15.569533,13.991055 7.89239,2.224219 10.260107,4.878932 10.260107,7.820641 0,4.089693 -4.233191,7.318399 -10.260107,7.318399 -4.30494,0 -9.255621,-2.008973 -10.834099,-6.385662 -0.573992,-1.578478 -1.793725,-2.654713 -3.58745,-2.654713 -2.0807208,0 -3.6591988,1.650227 -3.6591988,3.58745 0,0.789239 0.286996,1.721976 0.789239,2.798211 2.2959678,4.878933 8.3946328,9.39912 17.1480108,9.39912 z" id="path11"/>
    <path d="m 67.527416,84.328169 c 11.55159,0 21.452952,-11.336343 21.452952,-26.260135 0,-13.058318 -7.89239,-22.672684 -18.654741,-22.672684 -11.408091,0 -21.381202,11.336342 -21.381202,26.260134 0,12.91482 7.748892,22.672685 18.582991,22.672685 z m 0,-6.816155 c -5.883418,0 -11.408091,-5.381176 -11.408091,-15.85653 0,-11.408091 6.242163,-19.443979 13.775808,-19.443979 5.883419,0 11.910335,5.668171 11.910335,16.143525 0,11.408091 -6.52916,19.156984 -14.278052,19.156984 z" id="path13"/>
    <path d="m 111.2226,84.328169 c 9.32737,0 17.29151,-6.170414 17.29151,-14.42155 0,-7.031402 -5.23768,-11.551589 -14.70855,-14.278051 -7.74889,-2.224219 -11.04934,-4.30494 -11.04934,-7.677143 0,-3.58745 3.30045,-5.955167 9.82961,-5.955167 5.30942,0 8.53813,2.080721 8.89687,4.663685 0.21525,1.650227 1.57848,3.013458 3.30046,3.013458 2.00897,0 3.5157,-1.578478 3.5157,-3.730948 0,-6.313912 -5.81167,-10.547103 -15.71303,-10.547103 -10.40361,0 -16.789268,5.381175 -16.789268,13.058318 0,8.179386 7.390148,11.695087 15.569538,13.991055 7.89239,2.224219 10.2601,4.878932 10.2601,7.820641 0,4.089693 -4.23319,7.318399 -10.2601,7.318399 -4.30494,0 -9.25563,-2.008973 -10.8341,-6.385662 -0.573996,-1.578478 -1.793729,-2.654713 -3.587454,-2.654713 -2.080721,0 -3.659199,1.650227 -3.659199,3.58745 0,0.789239 0.286996,1.721976 0.789239,2.798211 2.295968,4.878933 8.394634,9.39912 17.148014,9.39912 z" id="path15"/>
  </g>
</svg>
