<?xml version="1.0" encoding="UTF-8"?>
<svg clip-rule="evenodd" fill-rule="evenodd" stroke-linejoin="round" stroke-miterlimit="2" version="1.1" viewBox="0 0 128 128" xml:space="preserve" xmlns="http://www.w3.org/2000/svg"><g transform="matrix(.24365 0 0 .24365 -.97171 -4.8238)"><path d="m521.17 384.04-42.917-7.75c1.292-6.834 2.167-13.75 2.625-20.75l40.875-6.084c4.821-0.744 8.192-5.296 7.5-10.125-0.708-4.875-5.208-8.125-10.125-7.5l-37.792 5.667c-0.083-4.292-0.208-8.542-0.5-12.833-2.166-32.417-14.791-65.375-35.291-93.584-2.875-44.416-13.5-151.71-49.709-168.21-28.375-12.917-77.708 57.042-96.375 86.958-12.708-1.666-25.625-2.5-38.458-2.5-12.25 0-24.542 0.792-36.667 2.334-18.708-30.167-67.583-99.792-95.916-87-35.709 16.125-46.875 120.46-50.125 166-21.542 28.708-34.875 62.625-37.125 96-0.25 3.708-0.417 7.458-0.5 11.166l-26.5-3.958c-4.834-0.625-9.375 2.625-10.084 7.5-0.708 4.875 2.625 9.375 7.5 10.125l29.417 4.375c0.5 8.25 1.458 16.417 3.125 24.417l-32 5.75c-4.214 0.762-7.309 4.466-7.309 8.749 0 0.531 0.048 1.061 0.142 1.584 0.779 4.203 4.476 7.283 8.75 7.292 0.5 0 1.042-0.042 1.584-0.125l33.458-6.042c2.792 8.333 6.458 16.417 11.042 24.167l-32.125 10.208c-3.832 1.073-6.501 4.591-6.501 8.57 0 4.883 4.018 8.9 8.9 8.9 1.014 0 2.02-0.173 2.976-0.512l37.416-11.875c6.375 7.709 13.875 15 22.834 21.667 25.208 18.792 56.541 31.542 88.875 38.458 12.291 2.625 44 8.75 77.291 8.75 33.292 0 68.125-6.125 80.417-8.75 32.292-6.916 63.667-19.666 88.875-38.458 10.042-7.5 18.25-15.75 25.042-24.542l46.5 14.792c4.651 1.471 9.69-1.142 11.166-5.792 1.459-4.666-1.125-9.708-5.791-11.166l-41.709-13.25c4.084-7.417 7.417-15.125 9.917-23.042l44.125 7.958c0.542 0.084 1.083 0.125 1.583 0.125 4.209 0 7.959-3 8.75-7.291 0.875-4.834-2.333-9.459-7.166-10.375z" fill="#eee" fill-rule="nonzero"/><g fill="#2f2f2f"><path d="m383.83 424.58c-1.525 4.512-5.779 7.572-10.541 7.584-1.167 0-2.375-0.167-3.542-0.584-9.875-3.333-17.458-7.791-23.333-12.625-28.5 17.959-55.75 23.792-78.75 23.792-38 0-64.459-15.5-66.209-16.542-3.25-2.029-5.231-5.601-5.231-9.433 0-6.101 5.02-11.121 11.121-11.121 1.939 0 3.844 0.507 5.527 1.471 2.333 1.375 56.458 32.333 119.17-5.5-4.375-8-5.292-14.375-5.375-14.958-0.792-6.084 3.458-11.667 9.583-12.5 6.042-0.75 11.583 3.416 12.458 9.416 0.167 1.042 3.542 18.625 28.167 26.917 5.792 1.958 8.917 8.25 6.958 14.083z"/><path d="m368.08 344.88c-15.038 0-28.129-7.624-35.381-18.983-0.596-0.997-0.742-2.201-0.4-3.312 0.341-1.111 1.138-2.025 2.192-2.516 12.995-6.115 53.971-25.187 66.448-30.994 1.01-0.471 2.167-0.518 3.212-0.13 1.044 0.388 1.89 1.178 2.348 2.194 1.927 4.486 3.081 9.35 3.081 14.491-0.041 21.708-18.625 39.25-41.5 39.25z"/><path d="m153.92 344.88c-22.834 0-41.417-17.542-41.417-39.208 0-3.218 0.446-6.329 1.257-9.31 0.326-1.171 1.151-2.139 2.255-2.648 1.104-0.508 2.376-0.505 3.478 8e-3 12.841 5.947 51.676 24.027 65.074 30.265 1.164 0.541 2.014 1.589 2.302 2.84 0.289 1.252-0.015 2.566-0.824 3.563-7.657 8.8-19.168 14.49-32.125 14.49z"/></g><path d="m112.29 196.82c-1.201 0.881-2.782 1.052-4.144 0.448-1.361-0.604-2.295-1.892-2.447-3.373-3.603-38.095-14.553-207.15 94.326-42.539 0.728 1.103 0.89 2.486 0.436 3.728-0.454 1.241-1.47 2.193-2.738 2.566-14.56 4.453-55.602 18.154-85.433 39.17zm299.02-2.661c1.223 0.804 2.78 0.905 4.097 0.265s2.2-1.925 2.325-3.384c2.96-38.324 11.481-215.26-101.18-39.466-0.728 1.138-0.86 2.558-0.352 3.811 0.508 1.252 1.591 2.18 2.907 2.49 15.598 3.847 59.952 15.968 92.199 36.284z" fill="#f9c3d5"/></g></svg>
