<?xml version='1.0' encoding='utf-8'?>
<svg xmlns="http://www.w3.org/2000/svg" xmlns:ns1="http://sodipodi.sourceforge.net/DTD/sodipodi-0.dtd" xmlns:ns2="http://www.inkscape.org/namespaces/inkscape" xmlns:ns3="http://www.w3.org/1999/xlink" width="128" height="128" version="1.1" id="svg34" ns1:docname="emoji_u1f4d5.svg" ns2:version="1.2.2 (b0a8486541, 2022-12-01)" viewBox="0 0 128 128">
  <ns1:namedview id="namedview36" pagecolor="#ffffff" bordercolor="#666666" borderopacity="1.0" ns2:showpageshadow="2" ns2:pageopacity="0.0" ns2:pagecheckerboard="0" ns2:deskcolor="#d1d1d1" showgrid="false" ns2:zoom="6.1328125" ns2:cx="63.918471" ns2:cy="64.163057" ns2:window-width="1854" ns2:window-height="1011" ns2:window-x="0" ns2:window-y="0" ns2:window-maximized="1" ns2:current-layer="svg34" />
  <defs id="defs8">
    <linearGradient gradientTransform="translate(2.222 -8.517)" ns3:href="#a" id="b" x1="95.743" y1="70.878" x2="95.743" y2="82.469" gradientUnits="userSpaceOnUse" />
    <linearGradient id="a">
      <stop offset="0" stop-color="#fff" id="stop3" />
      <stop offset="1" stop-color="#fff" stop-opacity=".787" id="stop5" />
    </linearGradient>
  </defs>
  <path d="M110.03 113.94c-2.81.43-83.36 1.85-86.74.18-4.51-2.22-5.26-8.47-2.92-12.88 1.92-3.62 6.84-3.71 10.25-3.77 5.16-.09 74.56-.05 78.96.59.98.15 1.76.01 1.95 1.15.22 1.36-.36 3.04-.41 4.43-.07 1.68.16 3.34.36 5 .14 1.19.91 2.64.81 3.82-.09 1.13-1.32 1.34-2.26 1.48z" fill="#fff" id="path10" />
  <path style="line-height:normal;font-variant-ligatures:normal;font-variant-position:normal;font-variant-caps:normal;font-variant-numeric:normal;font-variant-alternates:normal;font-variant-east-asian:normal;font-feature-settings:normal;text-indent:0;text-align:start;text-decoration-line:none;text-decoration-style:solid;text-decoration-color:#000;text-transform:none;text-orientation:mixed;shape-padding:0;isolation:auto;mix-blend-mode:normal" d="M66.5 9.01c-5.69.03-11.391.099-17.082.209-5.218.1-10.411.131-15.57.36-2.528.116-5.14.392-7.772.624l.004-.002c-5.282.475-10.432 2.94-12.851 7.381l-.002.002v.002c-1.07 1.978-1.644 4.42-2.008 6.894a2 2 0 0 0 0 .002C10.19 31.466 9.563 38.52 9.115 45.605a2 2 0 0 1 0 .004c-.455 7.013-.505 14.073-.535 21.168v.002C8.55 75.433 8.04 84 8.04 92.49a2 2 0 0 0 0 .002c-.006 4.287-.154 8.587.505 12.408.659 3.822 2.035 7.101 5.148 9.81 2.08 1.807 4.491 2.898 7.186 3.593a2 2 0 0 1 .004.002c-.036-.01 1.955.222 4.515.324 2.561.101 5.99.18 9.989.236 7.997.113 18.277.144 28.562.125a3578.01 3578.01 0 0 0 28.61-.168c8.033-.081 13.984-.188 14.982-.248 2.446-.145 5.445.066 7.658-.377 1.107-.221 1.947-.587 2.463-1.045.515-.456.846-.989.932-2.168.078-1.143-.844-2.947-1.813-4.8-1.038-1.97-1.976-4.24-2.11-6.78a2 2 0 0 1 0-.006c-.121-2.48.535-4.583.766-6.357a2 2 0 0 1 2.057-1.74c.678.025 1.683-.602 2.086-1.35a2 2 0 0 1 .006-.013c.17-.31.388-1.36.394-2.522.006-1.161-.123-2.426-.236-3.38-.248-2.109-.248-4.113-.451-5.934-.852-7.644-1.623-15.28-2.402-22.909a2 2 0 0 0 0-.002c-1.03-10.222-2.04-20.423-3.217-30.601a2 2 0 0 0 0-.002c-.51-4.449-.773-8.805-2.01-12.692-.943-2.961-2.872-4.103-5.727-4.832-2.854-.728-6.436-.72-9.626-.96C86.346 9.357 76.49 8.96 66.5 9.01zm-23.44.912c4.452 0 8.814.164 12.868.098a2 2 0 0 0 .002 0c10.64-.163 21.129.873 31.504 1.15a2 2 0 0 0 .002 0c3.473.095 6.71.664 9.82.71h.004c3.287.042 7.563.272 10.472 3.538l.002.002c1.502 1.682 2.214 3.728 2.555 5.674a2 2 0 0 0 0 .002c.28 1.6.834 3.33 1.05 5.406l-.001-.004c1.076 10.13 1.678 20.262 2.396 30.344v.006c.33 4.462.678 8.905 1.116 13.326a2 2 0 0 1 .002.004c.523 5.445.95 11.32.492 16.945a2 2 0 0 1-.002.014c-.041.462-.13.982-.346 1.523v.002c-.537 1.348-1.798 2.026-2.853 2.307-1.058.281-2.114.306-3.153.273-2.077-.065-4.294-.414-4.732-.422a2 2 0 0 0-.002 0l-13.961-.24c-5.738-.1-11.478-.19-17.23-.29-5.87-.09-11.74-.19-17.596-.28-5.028-.08-10.038-.15-15.051-.23-3.196-.05-6.39-.09-9.576-.12a2 2 0 0 1-.03 0c-.387-.01-.802-.01-1.232-.01-6.685 0-9.77 3.202-10.096 3.55-.03.14-.025.18-.14.568-.18.603-.504 1.762-1.92 2.244-.61.207-1.45.164-2.033-.139a2.768 2.768 0 0 1-1.108-1.053c-.415-.67-.515-1.204-.592-1.484a2 2 0 0 1-.005-.02c-.463-1.771-.324-3.437-.305-4.74.03-2.584.201-5.077.24-7.517a2 2 0 0 1 0-.004c.14-8.054.421-16.086.711-24.108a2 2 0 0 0 0-.002c.3-8.096.64-16.181 1.02-24.267.14-3 .28-5.996.45-8.998.102-1.834.058-3.762.66-5.713.604-1.952 2.122-3.856 4.589-4.836 5.535-2.201 11.551-2.933 17.535-3.139 1.496-.051 2.99-.07 4.475-.07zm64.598 82.182c.766.011 1.365.043 1.875.117h.004c.123.017.55.012 1.174.156.626.145 1.62.632 2.115 1.566a2 2 0 0 1 .014.024c.447.87.418 1.998.152 2.738a2 2 0 0 1-.002.008c-.45 1.24-.696 2.6-.806 4.012a2 2 0 0 0 0 .002c-.162 2.07-.34 4.014-.182 5.828v.002c.09.956.255 1.836.545 2.658.04.112.257.506.525 1.05.27.547.635 1.325.54 2.383a2 2 0 0 1 0 .018c-.125 1.264-1.126 2.313-1.948 2.709-.818.394-1.52.468-2.01.541h-.004c-.488.075-.85.079-1.609.113-.761.035-1.777.071-3.021.11-2.489.077-5.883.162-9.887.246-8.008.167-18.452.333-28.916.433-10.465.1-20.948.135-29.045.04-4.049-.048-7.499-.128-10.074-.25a58.68 58.68 0 0 1-3.196-.221c-.841-.088-1.234-.009-2.177-.475-2.882-1.42-4.559-4.164-5.108-7.035-.549-2.87-.082-5.945 1.317-8.572 1.243-2.355 3.393-3.823 5.582-4.705 2.189-.883 4.472-1.226 6.398-1.26a2 2 0 0 0 .002 0c2.39-.042 21.268-.738 39.904-1.342 9.318-.302 18.613-.582 25.864-.746 3.625-.082 6.736-.134 9.095-.147 1.179-.006 2.113-.013 2.88-.001z" color="#000" font-weight="400" font-family="sans-serif" white-space="normal" overflow="visible" fill="#791717" stroke-width="4" stroke-linejoin="round" id="path12" />
  <path d="M8.36 110.86c2.39 2.99 3.59-.6 3.59-.6.6-11.97 14.36-12.57 14.36-12.57 8.08-1.5 91.11-.39 91.11-.39 1.61.06 3.17-1.01 3.92-2.4.96-1.76.62-5.16.39-7.11-.23-1.95-.23-3.95-.45-5.92-.85-7.63-1.62-15.26-2.4-22.89-1.03-10.22-2.04-20.43-3.22-30.63-.5-4.37-.75-8.86-2.09-13.07-2.33-7.32-11-6.72-17.11-7.18C86.45 7.35 76.54 6.95 66.49 7c-5.7.03-11.41.1-17.11.21-5.2.1-10.41.13-15.62.36-2.61.12-5.25.4-7.86.63-5.78.52-11.6 3.22-14.43 8.42-1.25 2.31-1.85 4.98-2.23 7.56-1.04 7.07-1.67 14.18-2.12 21.3-.46 7.09-.51 14.19-.54 21.29-.03 8.58-.54 17.15-.54 25.72-.01 6.27-.37 12.9 2.28 18.41z" fill="#d93636" id="path14" />
  <path d="M61.93 22.549c-25.447 0-26.53 28.91-26.635 35.197-.11 6.49 12.956 12.031 29.287 12.176 16.427.145 29.107-5.223 28.256-11.795-.824-6.36-5.222-35.578-30.908-35.578z" fill="none" stroke="#fff" stroke-width="1.6" id="path16" />
  <g stroke-width="2.261" id="g28">
    <path d="M76.272 45.16c.44.007.795.096 1.135.303.141.086.261.22.352.605.091.386.093.974-.045 1.642-.159.77-.5 1.64-.983 2.49-3.012.486-12.242 1.575-26.598-.218-.545-.824-.961-1.664-1.196-2.407-.21-.666-.274-1.251-.227-1.635.047-.383.152-.515.28-.598.418-.271.889-.333 1.559-.268.67.064 1.475.28 2.323.449h-.001c4.531.907 8.483.958 10.35.967 1.87.008 5.828-.008 10.287-.88v.002c.836-.163 1.624-.373 2.294-.432a4.6 4.6 0 0 1 .47-.02" fill="#fff" stroke-width="2.939" id="path18" />
    <path d="M61.93 22.548c25.687 0 30.084 29.22 30.908 35.579.851 6.572-11.829 11.94-28.255 11.794-16.331-.144-29.398-5.685-29.289-12.174.106-6.287 1.19-35.199 26.636-35.199" fill="#fcc21b" id="path20" />
    <path d="M76.643 39.605c.388.544 1.124.725 1.65.4.527-.325.64-1.022.263-1.567-.09-.13-2.278-3.185-6.446-3.194-4.167-.01-5.85 3.028-5.923 3.157-.29.542-.056 1.251.52 1.575.198.11.404.162.61.163.397 0 .776-.197.97-.556.05-.093 1.19-2.081 4.007-2.073 2.82.003 4.28 2.006 4.35 2.095M47.411 39.909a1.163 1.163 0 0 0 1.589-.4c.045-.084 1.27-2.065 4.072-2.057 2.85.008 4.201 2.062 4.215 2.083.353.546 1.075.735 1.619.411.54-.32.695-1.027.34-1.57-.083-.13-2.099-3.172-6.242-3.182-4.133-.01-5.954 3.017-6.03 3.146-.316.544-.119 1.247.437 1.569" fill="#2f2f2f" id="path22" />
    <path d="M49.004 44.15c1.318-.895 3.016-.294 4.515.018 4.193.875 7.863.925 9.625.933 1.763.007 5.438-.012 9.56-.855 1.476-.302 3.121-.892 4.554.018 1.828 1.161.956 5.35-1.53 8.222-1.519 1.755-5.246 5.199-11.884 5.155-6.62-.043-10.71-3.525-12.412-5.291-2.78-2.885-4.103-7.06-2.428-8.2" fill="#ec6c31" stroke-width="11.303" id="path24" />
    <path d="M94.97 56.782c.948.014 1.715.213 2.449.68h.002c.303.194.563.496.76 1.365.199.87.205 2.196-.088 3.704-.079.408-.183.829-.303 1.258-8.009 2.872-18.953 4.454-30.469 4.402-11.48-.06-22.54-1.739-30.81-4.667-.171-.436-.325-.864-.45-1.278-.458-1.504-.599-2.824-.5-3.69.1-.863.324-1.163.599-1.351.9-.613 1.915-.751 3.36-.606 1.447.145 3.181.628 5.01 1.01 9.774 2.048 18.293 2.16 22.32 2.177 4.03.018 12.561-.019 22.167-1.987 1.802-.37 3.497-.84 4.941-.974a9.472 9.472 0 0 1 1.013-.043" fill="url(#b)" stroke-width="1.763" stroke-linejoin="round" transform="matrix(.44237 0 0 .44237 33.632 19.743)" id="path26" />
  </g>
</svg>