<?xml version="1.0" encoding="UTF-8" standalone="no"?>
<svg
   width="128"
   height="128"
   version="1.1"
   id="svg8"
   xmlns="http://www.w3.org/2000/svg"
   xmlns:svg="http://www.w3.org/2000/svg">
  <defs
     id="defs12" />
  <g
     aria-label="C"
     id="text4"
     style="line-height:1.25;fill:#40c0e7">
    <path
       d="m 65.392,97.312 c 9.312,0 17.76,-3.936 23.04,-11.424 0.672,-0.96 0.864,-1.92 0.864,-2.88 0,-3.072 -2.304,-4.8 -4.8,-4.8 -1.44,0 -2.592,0.384 -3.744,1.92 -3.072,4.032 -7.776,7.968 -15.36,7.968 -9.984,0 -18.432,-7.2 -18.432,-19.68 0,-13.92 9.792,-27.264 19.68,-27.264 5.184,0 8.16,1.632 10.176,3.744 v 0.672 c 0,2.016 1.92,3.84 4.512,3.84 2.688,0 4.8,-2.208 4.8,-4.8 v -6.144 c 0,-2.4 -1.824,-4.416 -4.416,-4.416 -1.344,0 -2.304,0.576 -2.88,1.152 -2.88,-1.728 -7.2,-3.36 -11.52,-3.36 -14.688,0 -29.952,17.376 -29.952,36.576 0,18.24 12.768,28.896 28.032,28.896 z"
       
       id="path14" />
  </g>
  <path
     d="M64 .28C28.82.28.29 28.81.29 64S28.82 127.71 64 127.71c35.19 0 63.71-28.52 63.71-63.71S99.19.28 64 .28zm0 121.33c-31.77 0-57.61-25.84-57.61-57.6C6.39 32.23 32.23 6.39 64 6.39S121.61 32.23 121.61 64 95.77 121.61 64 121.61z"
     fill="#40c0e7"
     id="path6" />
</svg>
