<?xml version='1.0' encoding='UTF-8'?>
<svg xmlns="http://www.w3.org/2000/svg" version="1.1" id="svg2451" viewBox="0 0 128 128">
  <defs id="defs2455"/>
  <g transform="matrix(5.71429,0,0,7.05882,-18.857205,-24.23525)" id="g4" style="clip-rule:evenodd;fill:#40c0e7;fill-rule:evenodd;stroke-linejoin:round;stroke-miterlimit:2">
    <path d="M 25,6.267 C 25,5.016 23.745,4 22.2,4 H 6.8 C 5.255,4 4,5.016 4,6.267 V 18.733 C 4,19.984 5.255,21 6.8,21 h 15.4 c 1.545,0 2.8,-1.016 2.8,-2.267 z" style="fill:#40c0e7" id="path2"/>
  </g>
  <g transform="translate(-2.273514,1.047149)" id="g12" style="clip-rule:evenodd;fill:#81d7ee;fill-rule:evenodd;stroke-linejoin:round;stroke-miterlimit:2">
    <path d="M 30.915,7.958 C 25.554,8.085 15,8 12.066,18.857 c -0.581,2.15 -1.578,5.57 0.285,7.423 1.433,1.425 3.932,0.985 5.373,-0.162 1.534,-1.221 2.286,-3.205 3.245,-4.857 1.114,-1.917 2.599,-3.655 4.34,-5.034 1.627,-1.289 3.482,-2.052 5.444,-2.683 1.362,-0.438 3.297,-0.632 3.969,-1.979 C 36,9 32.576,7.869 30.915,7.958 Z" style="fill:#81d7ee" id="path10"/>
  </g>
  <g aria-label="NEW" id="text2449" style="line-height:36.8418;fill:#ffffff">
    <path d="m 7.5287515,84.395659 c 1.591569,0 2.9473495,-1.237887 2.9473495,-2.888403 l 0.05895,-24.993527 18.391464,26.585096 c 0.58947,0.825258 1.532622,1.296834 2.416827,1.296834 1.591569,0 2.888403,-1.17894 2.888403,-2.888403 v -34.3661 c 0,-1.591569 -1.355781,-2.94735 -2.888403,-2.94735 -1.650516,0 -2.94735,1.355781 -2.94735,2.94735 V 72.19363 L 9.9455784,45.49064 c -0.530523,-0.766311 -1.5326219,-1.237887 -2.4168269,-1.237887 -1.650516,0 -2.8294559,1.355781 -2.8294559,2.888403 l -0.058947,34.3661 c 0,1.532622 1.3557809,2.888403 2.8884029,2.888403 z" style="stroke-width:0.62" id="path11"/>
    <path d="m 46.021166,84.041977 h 23.401959 c 1.650516,0 2.888403,-1.296834 2.888403,-2.94735 0,-1.650516 -1.237887,-2.94735 -2.888403,-2.94735 H 48.909569 V 66.416824 h 17.919888 c 1.650516,0 2.888403,-1.296834 2.888403,-2.94735 0,-1.650516 -1.237887,-2.888403 -2.888403,-2.888403 H 48.909569 V 50.442188 h 20.63145 c 1.650516,0 2.888403,-1.355781 2.888403,-2.94735 0,-1.650516 -1.237887,-2.94735 -2.888403,-2.94735 H 46.021166 c -1.650516,0 -2.94735,1.296834 -2.94735,2.94735 v 33.599789 c 0,1.650516 1.296834,2.94735 2.94735,2.94735 z" style="stroke-width:0.62" id="path13"/>
    <path d="m 87.343035,84.395659 c 1.355781,0 2.298933,-0.412629 2.829456,-2.004198 l 8.075739,-24.993527 6.8968,24.875633 c 0.35368,1.355781 1.29683,2.122092 2.82945,2.122092 1.23789,0 2.23999,-0.707364 2.65262,-1.886304 l 12.43782,-34.425047 c 0.29473,-0.884205 0.29473,-1.414728 0.29473,-1.886304 0,-1.473675 -1.23789,-2.593668 -2.82945,-2.593668 -1.41473,0 -2.35788,0.766311 -2.82946,2.063145 l -9.43152,26.11352 -7.01469,-25.465103 c -0.41263,-1.414728 -1.414731,-2.063145 -2.711565,-2.063145 -1.355781,0 -2.35788,0.58947 -2.829456,2.004198 l -8.25258,25.465103 -7.722057,-25.406156 c -0.412628,-1.296834 -1.35578,-2.063145 -2.829455,-2.063145 -1.591569,0 -2.829456,1.119993 -2.829456,2.593668 0,0.471576 0,0.825258 0.294735,1.886304 l 10.256777,33.658736 c 0.412629,1.296834 1.237887,2.004198 2.711562,2.004198 z" style="stroke-width:0.62" id="path15"/>
  </g>
</svg>
