<?xml version="1.0" encoding="UTF-8"?>
<svg clip-rule="evenodd" fill-rule="evenodd" stroke-linejoin="round" stroke-miterlimit="2" version="1.1" viewBox="0 0 128 128" xml:space="preserve" xmlns="http://www.w3.org/2000/svg"><g transform="matrix(.256 0 0 .256 -4.2665 -4.2666)"><path d="m516.67 83.343c0-36.794-29.881-66.676-66.667-66.676h-366.67c-36.786 0-66.667 29.882-66.667 66.676v366.65c0 36.794 29.881 66.677 66.667 66.677h366.67c36.786 0 66.667-29.883 66.667-66.677z" fill="#ed6c30"/><path d="m436.96 111.33h-42.875c-1.75 0-3.416 0.667-4.625 1.917-1.208 1.208-1.916 2.917-1.916 4.625v273.04h-33.875c-1.875 0-3.667 0.833-4.917 2.208-1.25 1.417-1.833 3.292-1.583 5.167l5.791 44.833c0.417 3.292 3.209 5.708 6.5 5.708h53.709c0.333 0 3.541 0 7.833-1.041 4.25-1.042 9.792-3.042 14.208-7.917 4.459-5.083 6.334-10.917 7.334-15.5 0.958-4.583 0.958-7.958 0.958-8.292v-298.21c0-1.708-0.708-3.417-1.917-4.625-1.208-1.25-2.916-1.917-4.625-1.917z" fill="#fff" fill-rule="nonzero"/><path d="m364.88 352.5c1.208-1.208 1.917-2.917 1.917-4.625v-230c0-1.708-0.709-3.417-1.917-4.625s-2.917-1.917-4.625-1.917h-42.917c-1.708 0-3.416 0.667-4.625 1.917-1.208 1.208-1.916 2.917-1.916 4.625v230c0 1.708 0.708 3.417 1.916 4.625 1.209 1.208 2.917 1.917 4.625 1.917h42.875c1.75 0 3.417-0.709 4.667-1.917zm-84-2.958h-176.12c-1.708 0-3.417 0.708-4.625 1.916-1.208 1.209-1.917 2.917-1.917 4.625v87.25c0 1.709 0.709 3.417 1.917 4.625 1.208 1.209 2.917 1.917 4.625 1.917h176.12c1.708 0 3.417-0.708 4.625-1.917 1.208-1.208 1.917-2.916 1.917-4.625v-87.25c0-1.708-0.709-3.416-1.917-4.625-1.208-1.208-2.917-1.916-4.625-1.916zm-43.708 38.125v24.041l-0.709 1.709-1.708 0.666h-83.917l-1.666-0.666-0.709-1.709v-24.041l0.709-1.667 1.666-0.708h83.917l1.708 0.708zm54.25-257.5h-74.5v-23.584c0-1.75-0.709-3.416-1.917-4.666-1.208-1.209-2.917-1.917-4.625-1.917h-35.125c-1.75 0-3.417 0.708-4.625 1.917-1.208 1.25-1.917 2.916-1.917 4.666v23.584h-74.5c-1.708 0-3.416 0.708-4.625 1.916-1.208 1.209-1.916 2.917-1.916 4.625v35.792c0 0.917 0.25 1.792 0.625 2.625v30.375c0 1.708 0.708 3.417 1.916 4.625 1.209 1.208 2.917 1.917 4.625 1.917h29.584c1.708 0 3.416-0.709 4.625-1.917 1.208-1.208 1.916-2.917 1.916-4.625v-26.458h37.75v16.25h-20.208c-1.708 0-3.417 0.708-4.625 1.916-1.208 1.209-1.917 2.917-1.917 4.625v25.875c0 1.709 0.709 3.417 1.917 4.625 1.208 1.209 2.917 1.917 4.625 1.917h20.208v11.5h-40.458c-1.708 0-3.417 0.708-4.625 1.917-1.208 1.208-1.917 2.875-1.917 4.625v25.875c0 1.75 0.709 3.375 1.917 4.625 1.208 1.208 2.917 1.916 4.625 1.916h40.458v11.5h-63.958c-1.708 0-3.417 0.709-4.625 1.917s-1.917 2.917-1.917 4.625v25.875c0 1.75 0.709 3.417 1.917 4.625s2.917 1.917 4.625 1.917h176.12c1.708 0 3.417-0.709 4.625-1.917s1.917-2.917 1.917-4.625v-25.875c0-1.708-0.709-3.417-1.917-4.625s-2.917-1.917-4.625-1.917h-63.958v-11.5h40.458c3.585-9e-3 6.533-2.956 6.542-6.541v-25.875c0-1.709-0.709-3.375-1.917-4.625-1.208-1.209-2.917-1.917-4.625-1.917h-40.458v-11.5h20.208c1.708 0 3.417-0.708 4.625-1.917 1.208-1.208 1.917-2.916 1.917-4.625v-25.875c0-1.708-0.709-3.416-1.917-4.625-1.208-1.208-2.917-1.916-4.625-1.916h-20.208v-16.25h38.333v26.458c0 1.708 0.708 3.417 1.917 4.625 1.208 1.208 2.916 1.917 4.625 1.917h29.583c1.75 0 3.417-0.709 4.625-1.917s1.917-2.917 1.917-4.625v-68.75c0-1.708-0.709-3.417-1.917-4.625-1.167-1.25-2.875-1.958-4.583-1.958z" fill="#fff" fill-rule="nonzero"/></g></svg>
