<?xml version="1.0" encoding="UTF-8" standalone="no"?>
<svg
   width="100%"
   height="100%"
   viewBox="0 0 128 128"
   version="1.1"
   xml:space="preserve"
   style="fill-rule:evenodd;clip-rule:evenodd;stroke-linejoin:round;stroke-miterlimit:2"
   id="svg24"
   xmlns="http://www.w3.org/2000/svg"
   xmlns:svg="http://www.w3.org/2000/svg"><defs
   id="defs28" />
    <path
   d="M128,12.8C128,5.735 122.265,0 115.2,0L12.8,0C5.735,0 0,5.735 0,12.8L0,115.2C0,122.265 5.735,128 12.8,128L115.2,128C122.265,128 128,122.265 128,115.2L128,12.8Z"
   style="fill:rgb(28,97,146)"
   id="path2" />
    <g
   transform="translate(77.8962,54.5493)"
   id="g7">
        <g
   id="text836">
            <g
   aria-label="b"
   id="text4"
   style="fill:#ffffff"><path
     d="m 7.672124,0.330695 c 1.719614,0 2.843977,-1.190502 2.843977,-1.98417 V -2.050309 C 11.971159,-0.992085 15.145831,0 17.659113,0 c 8.730348,0 14.55058,-5.820232 14.55058,-17.394557 0,-9.722433 -5.555676,-14.682858 -11.971159,-14.682858 -3.505367,0 -6.6139,0.992085 -9.325599,3.96834 v -12.963244 c 0,-1.785753 -1.521197,-2.976255 -3.108533,-2.976255 -1.719614,0 -3.174672,1.190502 -3.174672,2.976255 V -2.64556 c 0,1.719614 1.32278,2.976255 3.042394,2.976255 z m 9.524016,-6.547761 c -2.447143,0 -4.894286,-0.66139 -6.283205,-1.124363 v -11.442047 c 0,-3.836062 4.100618,-6.944595 9.193321,-6.944595 3.439228,0 5.886371,2.64556 5.886371,8.333514 0,6.746178 -2.314865,11.177491 -8.796487,11.177491 z"
     id="path30" /></g>
        </g>
    </g>
    <g
   transform="translate(15.1649,118.519)"
   id="g12">
        <g
   id="text840">
            <g
   aria-label="c"
   id="text9"
   style="fill:#ffffff"><path
     d="m 16.931584,0.396834 c 5.555676,0 10.119267,-3.108533 12.434132,-6.217066 0.529112,-0.66139 0.727529,-1.388919 0.727529,-2.248726 0,-1.521197 -1.388919,-2.910116 -3.108533,-2.910116 -1.256641,0 -2.248726,0.859807 -2.843977,1.653475 -1.521197,2.050309 -3.571506,3.703784 -7.341429,3.703784 -4.034479,0 -8.068958,-3.108533 -8.068958,-8.59807 0,-6.283205 4.563591,-12.367993 8.796487,-12.367993 2.64556,0 3.902201,1.256641 5.092703,2.579421 0.859807,1.058224 1.388919,1.32278 2.513282,1.32278 1.719614,0 3.174672,-1.32278 3.174672,-3.042394 0,-0.793668 -0.264556,-1.521197 -0.992085,-2.314865 -2.513282,-2.976255 -4.960425,-4.563591 -9.854711,-4.563591 -7.870541,0 -14.947414,9.457877 -14.947414,18.51892 0,8.068958 6.283205,14.484441 14.418302,14.484441 z"
     id="path33" /></g>
        </g>
    </g>
    <g
   transform="translate(15.2672,54.8139)"
   id="g17">
        <g
   id="text844">
            <g
   aria-label="a"
   id="text14"
   style="fill:#ffffff"><path
     d="m 25.79421,1.058224 c 1.851892,0 3.174672,-1.587336 3.174672,-3.30695 V -29.76255 c -1.719614,-0.793668 -5.820232,-2.843977 -10.58224,-2.843977 -9.788572,0 -15.87336,9.590155 -15.87336,18.717337 0,8.531931 5.489537,14.286024 12.764827,14.286024 2.64556,0 5.489537,-0.727529 7.539846,-2.910116 v 0.925946 c 0,1.587336 1.190502,2.64556 2.976255,2.64556 z M 15.741082,-5.754093 c -4.232896,0 -6.812317,-2.777838 -6.812317,-8.267375 0,-6.481622 3.769923,-12.500271 9.590155,-12.500271 1.388919,0 3.042394,0.330695 4.166757,0.793668 L 22.48726,-8.465792 c -1.388919,1.256641 -3.96834,2.711699 -6.746178,2.711699 z"
     id="path36" /></g>
        </g>
    </g>
    <g
   transform="translate(78.0522,117.857)"
   id="g22">
        <g
   id="text848">
            <g
   aria-label="d"
   id="text19"
   style="fill:#ffffff"><path
     d="m 14.352163,0.330695 c 3.637645,0 6.878456,-1.918031 8.862626,-3.769923 v 1.190502 c 0,1.653475 1.455058,2.64556 3.042394,2.64556 1.785753,0 3.174672,-1.32278 3.240811,-3.042394 l 0.925946,-38.492898 c 0.06614,-2.050309 -1.521197,-3.373089 -3.108533,-3.373089 -1.785753,0 -3.240811,1.455058 -3.30695,3.240811 l -0.330695,10.251545 c -1.653475,-0.66139 -4.232896,-1.521197 -7.076873,-1.521197 -8.267375,0 -14.087607,6.349344 -14.087607,17.923669 0,9.722433 5.224981,14.947414 11.838881,14.947414 z m 0.529112,-5.95251 c -3.505367,0 -6.018649,-2.579421 -6.018649,-9.193321 0,-7.672124 2.777838,-11.772742 8.135097,-11.772742 2.447143,0 5.158842,1.058224 6.6139,2.050309 l -0.264556,13.029383 c -0.06614,2.248726 -3.637645,5.886371 -8.465792,5.886371 z"
     id="path39" /></g>
        </g>
    </g>
</svg>
