<?xml version="1.0" encoding="UTF-8"?>
<svg clip-rule="evenodd" fill-rule="evenodd" stroke-linejoin="round" stroke-miterlimit="2" version="1.1" viewBox="0 0 128 128" xml:space="preserve" xmlns="http://www.w3.org/2000/svg"><g transform="matrix(.256 0 0 .256 -4.2665 -4.2666)"><path d="m516.67 83.343c0-36.794-29.881-66.676-66.667-66.676h-366.67c-36.786 0-66.667 29.882-66.667 66.676v366.65c0 36.794 29.881 66.677 66.667 66.677h366.67c36.786 0 66.667-29.883 66.667-66.677z" fill="#db4437"/><path d="m456.42 391.25c5.712 5.765 5.712 15.193 0 20.958l-44.167 44.209c-5.765 5.712-15.193 5.712-20.958 0l-124.62-124.58-124.58 124.58c-5.765 5.712-15.193 5.712-20.958 0l-44.208-44.209c-5.713-5.765-5.713-15.193 0-20.958l124.58-124.58-124.58-124.58c-5.714-5.781-5.714-15.219 0-21l44.208-44.166c2.777-2.78 6.55-4.344 10.479-4.344 3.93 0 7.702 1.564 10.479 4.344l124.58 124.58 124.58-124.58c2.777-2.78 6.55-4.344 10.479-4.344 3.93 0 7.702 1.564 10.479 4.344l44.209 44.166c5.713 5.781 5.713 15.219 0 21l-124.58 124.58z" fill="#fff" fill-rule="nonzero"/></g></svg>
