<?xml version='1.0' encoding='utf-8'?>
<svg xmlns="http://www.w3.org/2000/svg" width="128" height="128" version="1.1" xml:space="preserve" style="fill-rule:evenodd;clip-rule:evenodd;stroke-linejoin:round;stroke-miterlimit:2" id="svg59" viewBox="0 0 128 128"><defs id="defs63" /><g transform="matrix(1.00079,0,0,0.868836,-0.0503274,8.39449)" id="g4"><path d="m 125.343,24.801 c 0,-2.958 -2.085,-5.359 -4.653,-5.359 H 7.31 c -2.568,0 -4.653,2.401 -4.653,5.359 v 78.398 c 0,2.958 2.085,5.359 4.653,5.359 h 113.38 c 2.568,0 4.653,-2.401 4.653,-5.359 z" style="fill:#42ade7" id="path2" /></g><g transform="translate(-1.93208,12.0755)" id="g8"><path d="m 59.026,37.083 c 0,-2.017 -1.635,-3.652 -3.651,-3.652 H 12.794 c -2.017,0 -3.652,1.635 -3.652,3.652 v 42.58 c 0,2.017 1.635,3.652 3.652,3.652 h 42.581 c 2.016,0 3.651,-1.635 3.651,-3.652 z" style="fill:#fafafa" id="path6" /></g><g id="Ebene1" transform="matrix(0.339199,0,0,0.339199,10.5148,36.2787)"><g transform="translate(0,37.736)" id="g12"><path d="M 63.79,8.64 C 1.48,8.64 0,78.5 0,92.33 c 0,13.83 28.56,25.03 63.79,25.03 35.24,0 63.79,-11.21 63.79,-25.03 0,-13.83 -1.47,-83.69 -63.79,-83.69 z" style="fill:#fcc21b;fill-rule:nonzero" id="path10" /></g><g transform="translate(0,37.736)" id="g16"><path d="m 42.21,66.47 c -4.49,0.04 -8.17,-4.27 -8.22,-9.62 -0.05,-5.37 3.55,-9.75 8.04,-9.79 4.48,-0.04 8.17,4.27 8.22,9.64 0.05,5.36 -3.55,9.73 -8.04,9.77 z m 44.11,0 c 4.48,-0.01 8.11,-4.36 8.1,-9.71 -0.01,-5.37 -3.66,-9.7 -8.14,-9.69 -4.49,0.01 -8.13,4.36 -8.12,9.73 0.02,5.35 3.67,9.68 8.16,9.67 z" style="fill:#2f2f2f;fill-rule:nonzero" id="path14" /></g><g transform="matrix(0.680022,0,0,0.187061,20.4786,102.134)" id="g20"><path d="m 34.793,96.38 c 14.42,17.508 43.994,17.508 58.414,0 2.31,-2.803 3.558,-11.895 2.787,-20.29 -0.771,-8.395 -3.272,-12.934 -5.581,-10.13 -13.04,15.832 -39.786,15.832 -52.826,0 -2.309,-2.804 -4.81,1.735 -5.581,10.13 -0.771,8.395 0.477,17.487 2.787,20.29 z" style="fill:#2f2f2f" id="path18" /></g><g transform="translate(0,37.736)" id="g24"><path d="m 29.08,121.23 c 4.69,1.33 10.12,-0.73 10.24,-5.2 l 0.66,-14.77 C 40,101.02 41.06,85.23 32.89,76.8 L 32.77,76.67 C 27.02,69.91 24.5,65.12 21.92,56.69 21.06,53.9 19.03,51.28 15.54,51.7 c -2.47,0.3 -4.85,1.35 -4.69,9.23 0.19,9.18 2.02,18.32 5.7,24.72 5.14,8.95 3.8,19.17 4.36,25.72 0.34,4.11 3.23,8.63 8.17,9.86 z m 69.84,0 c -4.69,1.33 -10.12,-0.73 -10.24,-5.2 L 88.02,101.26 C 88,101.02 86.94,85.23 95.11,76.8 l 0.12,-0.13 c 5.75,-6.76 8.27,-11.55 10.85,-19.98 0.86,-2.79 2.89,-5.41 6.38,-4.99 2.47,0.3 4.85,1.35 4.69,9.23 -0.19,9.18 -2.02,18.32 -5.7,24.72 -5.14,8.95 -3.8,19.17 -4.36,25.72 -0.34,4.11 -3.23,8.63 -8.17,9.86 z" style="fill:#e48c15;fill-rule:nonzero" id="path22" /></g><g transform="matrix(2.94812,0,0,2.94812,-30.9988,-106.954)" id="g28"><g aria-label="Official Blob ID" id="text26" style="fill:#212121"><path d="m 16.11,39.271001 c 1.932,0 3.588,-1.896 3.588,-4.392 0,-2.184 -1.32,-3.792 -3.12,-3.792 -1.908,0 -3.576,1.896 -3.576,4.392 0,2.16 1.296,3.792 3.108,3.792 z m 0,-1.14 c -0.984,0 -1.908,-0.9 -1.908,-2.652 0,-1.908 1.044,-3.252 2.304,-3.252 0.984,0 1.992,0.948 1.992,2.7 0,1.908 -1.092,3.204 -2.388,3.204 z" id="path65" /><path d="m 21.810006,39.271001 c 0.3,0 0.576,-0.264 0.576,-0.552 v -4.344 h 1.236 c 0.3,0 0.54,-0.264 0.54,-0.552 0,-0.3 -0.3,-0.552 -0.54,-0.552 l -1.224,-0.012 c 0.072,-0.828 0.432,-0.948 1.428,-0.948 0.36,0 0.564,-0.264 0.564,-0.564 0,-0.444 -0.3,-0.552 -0.696,-0.552 -1.644,0 -2.376,0.516 -2.448,2.064 h -0.576 c -0.276,0 -0.54,0.264 -0.54,0.564 0,0.288 0.264,0.552 0.552,0.552 h 0.552 v 4.344 c 0,0.288 0.276,0.552 0.576,0.552 z" id="path67" /><path d="m 25.661996,39.271001 c 0.3,0 0.576,-0.264 0.576,-0.552 v -4.344 h 1.236 c 0.3,0 0.54,-0.264 0.54,-0.552 0,-0.3 -0.3,-0.552 -0.54,-0.552 l -1.224,-0.012 c 0.072,-0.828 0.432,-0.948 1.428,-0.948 0.36,0 0.564,-0.264 0.564,-0.564 0,-0.444 -0.3,-0.552 -0.696,-0.552 -1.644,0 -2.376,0.516 -2.448,2.064 h -0.576 c -0.276,0 -0.54,0.264 -0.54,0.564 0,0.288 0.264,0.552 0.552,0.552 h 0.552 v 4.344 c 0,0.288 0.276,0.552 0.576,0.552 z" id="path69" /><path d="m 29.369986,32.779001 c 0.324,0 0.564,-0.24 0.576,-0.564 l 0.012,-0.456 c 0.012,-0.288 -0.264,-0.576 -0.564,-0.576 -0.3,0 -0.564,0.252 -0.576,0.564 l -0.012,0.444 c -0.012,0.312 0.264,0.588 0.564,0.588 z m -0.06,6.492 c 0.312,0 0.588,-0.264 0.588,-0.588 l 0.06,-4.776 c 0,-0.324 -0.252,-0.588 -0.588,-0.588 -0.312,0 -0.588,0.264 -0.588,0.588 l -0.06,4.776 c 0,0.324 0.264,0.588 0.588,0.588 z" id="path71" /><path d="m 33.869986,39.271001 c 1.008,0 1.836,-0.564 2.256,-1.128 0.096,-0.12 0.132,-0.252 0.132,-0.408 0,-0.276 -0.252,-0.528 -0.564,-0.528 -0.228,0 -0.408,0.156 -0.516,0.3 -0.276,0.372 -0.648,0.672 -1.332,0.672 -0.732,0 -1.464,-0.564 -1.464,-1.56 0,-1.14 0.828,-2.244 1.596,-2.244 0.48,0 0.708,0.228 0.924,0.468 0.156,0.192 0.252,0.24 0.456,0.24 0.312,0 0.576,-0.24 0.576,-0.552 0,-0.144 -0.048,-0.276 -0.18,-0.42 -0.456,-0.54 -0.9,-0.828 -1.788,-0.828 -1.428,0 -2.712,1.716 -2.712,3.36 0,1.464 1.14,2.628 2.616,2.628 z" id="path73" /><path d="m 37.925978,32.779001 c 0.324,0 0.564,-0.24 0.576,-0.564 l 0.012,-0.456 c 0.012,-0.288 -0.264,-0.576 -0.564,-0.576 -0.3,0 -0.564,0.252 -0.576,0.564 l -0.012,0.444 c -0.012,0.312 0.264,0.588 0.564,0.588 z m -0.06,6.492 c 0.312,0 0.588,-0.264 0.588,-0.588 l 0.06,-4.776 c 0,-0.324 -0.252,-0.588 -0.588,-0.588 -0.312,0 -0.588,0.264 -0.588,0.588 l -0.06,4.776 c 0,0.324 0.264,0.588 0.588,0.588 z" id="path75" /><path d="m 44.033978,39.391001 c 0.336,0 0.576,-0.288 0.576,-0.6 v -4.992 c -0.312,-0.144 -1.056,-0.516 -1.92,-0.516 -1.776,0 -2.88,1.74 -2.88,3.396 0,1.548 0.996,2.592 2.316,2.592 0.48,0 0.996,-0.132 1.368,-0.528 v 0.168 c 0,0.288 0.216,0.48 0.54,0.48 z m -1.824,-1.236 c -0.768,0 -1.236,-0.504 -1.236,-1.5 0,-1.176 0.684,-2.268 1.74,-2.268 0.252,0 0.552,0.06 0.756,0.144 l -0.036,3.132 c -0.252,0.228 -0.72,0.492 -1.224,0.492 z" id="path77" /><path d="m 46.865971,39.271001 c 0.276,0 0.576,-0.24 0.576,-0.54 v -6.96 c 0,-0.312 -0.276,-0.564 -0.576,-0.564 -0.336,0 -0.576,0.252 -0.576,0.564 v 6.96 c 0,0.3 0.276,0.54 0.576,0.54 z" id="path79" /><path d="m 54.149983,39.295001 c 3.6,0 5.316,-0.948 5.316,-2.58 0,-0.924 -0.396,-1.548 -1.212,-1.932 0.312,-0.336 0.552,-0.828 0.552,-1.5 0,-1.092 -0.924,-2.124 -2.724,-2.124 h -2.04 c -0.312,0 -0.588,0.276 -0.588,0.588 v 6.888 c 0,0.444 0.168,0.66 0.696,0.66 z m 0.504,-4.884 v -2.1 h 1.428 c 1.02,0 1.536,0.456 1.536,0.984 0,0.552 -0.444,1.116 -1.128,1.116 z m 0,3.744 v -2.592 h 1.836 c 1.176,0 1.788,0.492 1.788,1.152 0,0.972 -1.656,1.404 -3.624,1.44 z" id="path81" /><path d="m 61.301983,39.271001 c 0.276,0 0.576,-0.24 0.576,-0.54 v -6.96 c 0,-0.312 -0.276,-0.564 -0.576,-0.564 -0.336,0 -0.576,0.252 -0.576,0.564 v 6.96 c 0,0.3 0.276,0.54 0.576,0.54 z" id="path83" /><path d="m 65.645984,39.271001 c 1.524,0 2.82,-1.464 2.82,-3.216 0,-1.476 -1.08,-2.772 -2.484,-2.772 -1.524,0 -2.808,1.476 -2.808,3.204 0,1.536 1.068,2.784 2.472,2.784 z m 0,-1.08 c -0.648,0 -1.296,-0.6 -1.296,-1.716 0,-1.116 0.732,-2.112 1.584,-2.112 0.756,0 1.356,0.828 1.356,1.752 0,1.104 -0.78,2.076 -1.644,2.076 z" id="path85" /><path d="m 70.313987,39.259001 c 0.312,0 0.516,-0.216 0.516,-0.36 v -0.072 c 0.264,0.192 0.84,0.372 1.296,0.372 1.584,0 2.64,-1.056 2.64,-3.156 0,-1.764 -1.008,-2.664 -2.172,-2.664 -0.636,0 -1.2,0.18 -1.692,0.72 v -2.352 c 0,-0.324 -0.276,-0.54 -0.564,-0.54 -0.312,0 -0.576,0.216 -0.576,0.54 v 6.972 c 0,0.312 0.24,0.54 0.552,0.54 z m 1.728,-1.188 c -0.444,0 -0.888,-0.12 -1.14,-0.204 v -2.076 c 0,-0.696 0.744,-1.26 1.668,-1.26 0.624,0 1.068,0.48 1.068,1.512 0,1.224 -0.42,2.028 -1.596,2.028 z" id="path87" /><path d="m 80.477993,39.199001 h 2.868 c 0.336,0 0.588,-0.264 0.588,-0.6 0,-0.336 -0.228,-0.6 -0.588,-0.6 h -0.828 v -5.64 h 0.828 c 0.336,0 0.588,-0.276 0.588,-0.612 0,-0.336 -0.252,-0.588 -0.588,-0.588 h -2.868 c -0.336,0 -0.6,0.252 -0.6,0.588 0,0.336 0.264,0.612 0.6,0.612 h 0.84 v 5.64 h -0.84 c -0.336,0 -0.6,0.264 -0.6,0.6 0,0.336 0.264,0.6 0.6,0.6 z" id="path89" /><path d="m 87.150001,39.343001 c 2.316,0 4.2,-1.14 4.2,-3.756 0,-3.78 -3.576,-4.428 -5.496,-4.428 -0.336,0 -0.6,0.252 -0.6,0.588 v 6.804 c 0,0.264 0.204,0.504 0.456,0.588 0.108,0.036 0.78,0.204 1.44,0.204 z m 0,-1.2 c -0.24,0 -0.492,-0.036 -0.696,-0.072 v -5.688 c 2.004,0.156 3.696,0.984 3.696,3.204 0,1.716 -1.176,2.556 -3,2.556 z" id="path91" /></g></g><g transform="matrix(1.55257,0,0,1.55257,42.9709,-45.4333)" id="g56"><g aria-label="Name:" id="text30" style="fill:#212121"><path d="m 69.557,54.969999 c 0.324,0 0.6,-0.252 0.6,-0.588 l 0.012,-5.088 3.744,5.412 c 0.12,0.168 0.312,0.264 0.492,0.264 0.324,0 0.588,-0.24 0.588,-0.588 v -6.996 c 0,-0.324 -0.276,-0.6 -0.588,-0.6 -0.336,0 -0.6,0.276 -0.6,0.6 v 5.1 l -3.756,-5.436 c -0.108,-0.156 -0.312,-0.252 -0.492,-0.252 -0.336,0 -0.576,0.276 -0.576,0.588 l -0.012,6.996 c 0,0.312 0.276,0.588 0.588,0.588 z" id="path94" /><path d="m 80.573005,55.089999 c 0.336,0 0.576,-0.288 0.576,-0.6 v -4.992 c -0.312,-0.144 -1.056,-0.516 -1.92,-0.516 -1.776,0 -2.88,1.74 -2.88,3.396 0,1.548 0.996,2.592 2.316,2.592 0.48,0 0.996,-0.132 1.368,-0.528 v 0.168 c 0,0.288 0.216,0.48 0.54,0.48 z m -1.824,-1.236 c -0.768,0 -1.236,-0.504 -1.236,-1.5 0,-1.176 0.684,-2.268 1.74,-2.268 0.252,0 0.552,0.06 0.756,0.144 l -0.036,3.132 c -0.252,0.228 -0.72,0.492 -1.224,0.492 z" id="path96" /><path d="m 83.404998,54.969999 c 0.312,0 0.576,-0.252 0.576,-0.564 l -0.012,-1.764 c 0,-0.588 0.144,-1.044 0.42,-1.512 0.312,-0.492 0.84,-1.044 1.404,-1.044 0.42,0 0.588,0.348 0.588,1.104 v 3.216 c 0,0.312 0.276,0.564 0.576,0.564 0.324,0 0.576,-0.252 0.576,-0.564 v -2.232 c 0,-1.212 0.792,-2.088 1.488,-2.088 0.456,0 0.648,0.372 0.648,1.104 v 3.216 c 0,0.312 0.264,0.564 0.576,0.564 0.3,0 0.576,-0.252 0.576,-0.564 v -3.144 c 0,-1.572 -0.648,-2.28 -1.608,-2.28 -0.804,0 -1.416,0.468 -1.872,1.152 -0.216,-0.792 -0.756,-1.152 -1.38,-1.152 -0.816,0 -1.488,0.48 -1.98,1.416 v -0.84 c 0,-0.3 -0.252,-0.576 -0.576,-0.576 -0.3,0 -0.576,0.276 -0.576,0.576 v 4.848 c 0,0.312 0.276,0.564 0.576,0.564 z" id="path98" /><path d="m 94.972993,54.969999 c 0.744,0 1.572,-0.396 2.004,-0.888 0.096,-0.108 0.144,-0.216 0.144,-0.36 0,-0.312 -0.24,-0.54 -0.564,-0.54 -0.156,0 -0.288,0.084 -0.396,0.192 -0.264,0.276 -0.66,0.516 -1.188,0.516 -0.684,0 -1.32,-0.276 -1.548,-0.78 l 3.216,-1.848 c 0.252,-0.144 0.372,-0.36 0.372,-0.552 0,-0.564 -0.72,-1.728 -2.304,-1.728 -1.644,0 -2.712,1.476 -2.712,2.976 0,1.884 1.284,3.012 2.976,3.012 z m -1.884,-2.856 c 0,-0.168 0,-0.252 0.024,-0.432 0.096,-0.888 0.744,-1.62 1.68,-1.62 0.468,0 0.84,0.168 1.032,0.504 z" id="path100" /><path d="m 98.728983,51.069999 c 0.372,0 0.708,-0.348 0.708,-0.792 0,-0.372 -0.276,-0.66 -0.624,-0.66 -0.372,0 -0.708,0.372 -0.708,0.768 0,0.372 0.252,0.684 0.624,0.684 z m -0.324,3.9 c 0.372,0 0.708,-0.348 0.708,-0.78 0,-0.372 -0.264,-0.672 -0.612,-0.672 -0.372,0 -0.708,0.372 -0.708,0.768 0,0.384 0.24,0.684 0.612,0.684 z" id="path102" /></g><g aria-label="Face Listening to You" id="text38" style="fill:#212121"><path d="m 69.569,66.982003 c 0.336,0 0.6,-0.264 0.6,-0.6 v -3.06 h 3.192 c 0.336,0 0.588,-0.276 0.588,-0.588 0,-0.336 -0.252,-0.612 -0.588,-0.612 h -3.192 v -2.064 h 4.188 c 0.336,0 0.588,-0.288 0.588,-0.6 0,-0.336 -0.252,-0.6 -0.588,-0.6 h -4.788 c -0.336,0 -0.6,0.264 -0.6,0.6 v 6.924 c 0,0.336 0.264,0.6 0.6,0.6 z" id="path105" /><path d="m 79.720993,67.090003 c 0.336,0 0.576,-0.288 0.576,-0.6 v -4.992 c -0.312,-0.144 -1.056,-0.516 -1.92,-0.516 -1.776,0 -2.88,1.74 -2.88,3.396 0,1.548 0.996,2.592 2.316,2.592 0.48,0 0.996,-0.132 1.368,-0.528 v 0.168 c 0,0.288 0.216,0.48 0.54,0.48 z m -1.824,-1.236 c -0.768,0 -1.236,-0.504 -1.236,-1.5 0,-1.176 0.684,-2.268 1.74,-2.268 0.252,0 0.552,0.06 0.756,0.144 l -0.036,3.132 c -0.252,0.228 -0.72,0.492 -1.224,0.492 z" id="path107" /><path d="m 84.208986,66.970003 c 1.008,0 1.836,-0.564 2.256,-1.128 0.096,-0.12 0.132,-0.252 0.132,-0.408 0,-0.276 -0.252,-0.528 -0.564,-0.528 -0.228,0 -0.408,0.156 -0.516,0.3 -0.276,0.372 -0.648,0.672 -1.332,0.672 -0.732,0 -1.464,-0.564 -1.464,-1.56 0,-1.14 0.828,-2.244 1.596,-2.244 0.48,0 0.708,0.228 0.924,0.468 0.156,0.192 0.252,0.24 0.456,0.24 0.312,0 0.576,-0.24 0.576,-0.552 0,-0.144 -0.048,-0.276 -0.18,-0.42 -0.456,-0.54 -0.9,-0.828 -1.788,-0.828 -1.428,0 -2.712,1.716 -2.712,3.36 0,1.464 1.14,2.628 2.616,2.628 z" id="path109" /><path d="m 90.208978,66.970003 c 0.744,0 1.572,-0.396 2.004,-0.888 0.096,-0.108 0.144,-0.216 0.144,-0.36 0,-0.312 -0.24,-0.54 -0.564,-0.54 -0.156,0 -0.288,0.084 -0.396,0.192 -0.264,0.276 -0.66,0.516 -1.188,0.516 -0.684,0 -1.32,-0.276 -1.548,-0.78 l 3.216,-1.848 c 0.252,-0.144 0.372,-0.36 0.372,-0.552 0,-0.564 -0.72,-1.728 -2.304,-1.728 -1.644,0 -2.712,1.476 -2.712,2.976 0,1.884 1.284,3.012 2.976,3.012 z m -1.884,-2.856 c 0,-0.168 0,-0.252 0.024,-0.432 0.096,-0.888 0.744,-1.62 1.68,-1.62 0.468,0 0.84,0.168 1.032,0.504 z" id="path111" /><path d="m 98.428979,66.958003 3.912001,-0.252 c 0.3,-0.024 0.54,-0.312 0.54,-0.6 0,-0.348 -0.252,-0.6 -0.588,-0.576 l -3.264001,0.216 v -6.36 c 0,-0.312 -0.276,-0.588 -0.588,-0.588 -0.336,0 -0.6,0.276 -0.6,0.588 v 6.996 c 0,0.3 0.276,0.6 0.588,0.576 z" id="path113" /><path d="m 104.58498,60.478003 c 0.324,0 0.564,-0.24 0.576,-0.564 l 0.012,-0.456 c 0.012,-0.288 -0.264,-0.576 -0.564,-0.576 -0.3,0 -0.564,0.252 -0.576,0.564 l -0.012,0.444 c -0.012,0.312 0.264,0.588 0.564,0.588 z m -0.06,6.492 c 0.312,0 0.588,-0.264 0.588,-0.588 l 0.06,-4.776 c 0,-0.324 -0.252,-0.588 -0.588,-0.588 -0.312,0 -0.588,0.264 -0.588,0.588 l -0.06,4.776 c 0,0.324 0.264,0.588 0.588,0.588 z" id="path115" /><path d="m 108.58099,66.970003 c 1.32,0 2.148,-0.936 2.148,-1.836 0,-0.912 -0.48,-1.32 -1.776,-1.728 -0.864,-0.276 -1.212,-0.456 -1.212,-0.84 0,-0.324 0.288,-0.576 1.056,-0.576 0.612,0 0.852,0.204 0.852,0.48 0,0.096 -0.06,0.18 -0.06,0.288 0,0.228 0.216,0.492 0.564,0.492 0.384,0 0.6,-0.276 0.6,-0.768 0,-0.9 -0.708,-1.5 -1.98,-1.5 -1.392,0 -2.136,0.708 -2.136,1.608 0,0.9 0.552,1.404 1.848,1.8 0.9,0.276 1.116,0.444 1.116,0.804 0,0.348 -0.336,0.744 -0.996,0.744 -0.6,0 -1.008,-0.312 -1.176,-0.804 -0.072,-0.228 -0.264,-0.396 -0.54,-0.396 -0.312,0 -0.564,0.252 -0.564,0.564 0,0.432 0.732,1.668 2.256,1.668 z" id="path117" /><path d="m 112.99698,66.982003 c 0.312,0 0.576,-0.252 0.576,-0.564 v -4.284 h 1.02 c 0.324,0 0.576,-0.276 0.576,-0.576 0,-0.336 -0.252,-0.588 -0.576,-0.588 h -1.02 v -1.284 c 0,-0.3 -0.228,-0.588 -0.576,-0.588 -0.324,0 -0.576,0.288 -0.576,0.588 v 1.284 h -0.924 c -0.312,0 -0.6,0.228 -0.6,0.588 0,0.3 0.252,0.576 0.576,0.576 h 0.948 v 4.284 c 0,0.312 0.276,0.564 0.576,0.564 z" id="path119" /><path d="m 118.193,66.970003 c 0.744,0 1.572,-0.396 2.004,-0.888 0.096,-0.108 0.144,-0.216 0.144,-0.36 0,-0.312 -0.24,-0.54 -0.564,-0.54 -0.156,0 -0.288,0.084 -0.396,0.192 -0.264,0.276 -0.66,0.516 -1.188,0.516 -0.684,0 -1.32,-0.276 -1.548,-0.78 l 3.216,-1.848 c 0.252,-0.144 0.372,-0.36 0.372,-0.552 0,-0.564 -0.72,-1.728 -2.304,-1.728 -1.644,0 -2.712,1.476 -2.712,2.976 0,1.884 1.284,3.012 2.976,3.012 z m -1.884,-2.856 c 0,-0.168 0,-0.252 0.024,-0.432 0.096,-0.888 0.744,-1.62 1.68,-1.62 0.468,0 0.84,0.168 1.032,0.504 z" id="path121" /><path d="m 122.06899,66.970003 c 0.36,0 0.564,-0.264 0.564,-0.6 v -1.008 c 0,-0.888 0.132,-1.44 0.492,-2.088 0.408,-0.744 0.912,-1.176 1.392,-1.176 0.552,0 0.792,0.408 0.792,2.316 v 1.992 c 0,0.288 0.264,0.564 0.576,0.564 0.324,0 0.552,-0.276 0.552,-0.576 0,-0.684 0.012,-1.092 0.012,-2.1 0,-2.508 -0.516,-3.312 -1.824,-3.312 -0.816,0 -1.524,0.516 -1.98,1.476 v -0.912 c 0,-0.324 -0.252,-0.576 -0.552,-0.576 -0.312,0 -0.6,0.252 -0.6,0.576 v 4.872 c 0,0.288 0.264,0.552 0.576,0.552 z" id="path123" /><path d="m 128.65698,60.478003 c 0.324,0 0.564,-0.24 0.576,-0.564 l 0.012,-0.456 c 0.012,-0.288 -0.264,-0.576 -0.564,-0.576 -0.3,0 -0.564,0.252 -0.576,0.564 l -0.012,0.444 c -0.012,0.312 0.264,0.588 0.564,0.588 z m -0.06,6.492 c 0.312,0 0.588,-0.264 0.588,-0.588 l 0.06,-4.776 c 0,-0.324 -0.252,-0.588 -0.588,-0.588 -0.312,0 -0.588,0.264 -0.588,0.588 l -0.06,4.776 c 0,0.324 0.264,0.588 0.588,0.588 z" id="path125" /><path d="m 131.50098,66.970003 c 0.36,0 0.564,-0.264 0.564,-0.6 v -1.008 c 0,-0.888 0.132,-1.44 0.492,-2.088 0.408,-0.744 0.912,-1.176 1.392,-1.176 0.552,0 0.792,0.408 0.792,2.316 v 1.992 c 0,0.288 0.264,0.564 0.576,0.564 0.324,0 0.552,-0.276 0.552,-0.576 0,-0.684 0.012,-1.092 0.012,-2.1 0,-2.508 -0.516,-3.312 -1.824,-3.312 -0.816,0 -1.524,0.516 -1.98,1.476 v -0.912 c 0,-0.324 -0.252,-0.576 -0.552,-0.576 -0.312,0 -0.6,0.252 -0.6,0.576 v 4.872 c 0,0.288 0.264,0.552 0.576,0.552 z" id="path127" /><path d="m 139.49298,68.986003 c 1.416,0 2.472,-0.768 2.508,-2.484 l 0.12,-5.064 c 0.012,-0.444 -0.264,-0.588 -0.564,-0.588 -0.312,0 -0.492,0.12 -0.552,0.336 -0.276,-0.108 -0.624,-0.216 -0.996,-0.216 -1.62,0 -2.856,1.512 -2.856,3.228 0,1.704 1.176,2.664 2.424,2.664 0.492,0 0.972,-0.18 1.26,-0.552 l -0.024,0.288 c -0.06,0.744 -0.444,1.236 -1.332,1.236 -0.66,0 -0.984,-0.156 -1.272,-0.156 -0.3,0 -0.576,0.252 -0.576,0.576 0,0.276 0.192,0.504 0.444,0.564 0.36,0.084 0.876,0.168 1.416,0.168 z m 0.012,-3.252 c -0.684,0 -1.26,-0.612 -1.26,-1.62 0,-1.14 0.816,-1.992 1.812,-1.992 0.288,0 0.636,0.096 0.852,0.216 v 1.452 c 0,1.368 -0.552,1.944 -1.404,1.944 z" id="path129" /><path d="m 149.33299,66.982003 c 0.312,0 0.576,-0.252 0.576,-0.564 v -4.284 h 1.02 c 0.324,0 0.576,-0.276 0.576,-0.576 0,-0.336 -0.252,-0.588 -0.576,-0.588 h -1.02 v -1.284 c 0,-0.3 -0.228,-0.588 -0.576,-0.588 -0.324,0 -0.576,0.288 -0.576,0.588 v 1.284 h -0.924 c -0.312,0 -0.6,0.228 -0.6,0.588 0,0.3 0.252,0.576 0.576,0.576 h 0.948 v 4.284 c 0,0.312 0.276,0.564 0.576,0.564 z" id="path131" /><path d="m 154.025,66.970003 c 1.524,0 2.82,-1.464 2.82,-3.216 0,-1.476 -1.08,-2.772 -2.484,-2.772 -1.524,0 -2.808,1.476 -2.808,3.204 0,1.536 1.068,2.784 2.472,2.784 z m 0,-1.08 c -0.648,0 -1.296,-0.6 -1.296,-1.716 0,-1.116 0.732,-2.112 1.584,-2.112 0.756,0 1.356,0.828 1.356,1.752 0,1.104 -0.78,2.076 -1.644,2.076 z" id="path133" /><path d="m 163.82901,66.970003 c 0.204,0 0.408,-0.108 0.516,-0.3 l 4.104,-6.9 c 0.108,-0.18 0.12,-0.252 0.12,-0.384 0,-0.336 -0.3,-0.588 -0.588,-0.588 -0.204,0 -0.408,0.096 -0.516,0.288 l -2.388,4.032 -2.352,-4.02 c -0.108,-0.192 -0.312,-0.3 -0.504,-0.3 -0.336,0 -0.6,0.276 -0.6,0.588 0,0.12 0.024,0.216 0.096,0.348 l 2.664,4.56 -1.044,1.752 c -0.096,0.156 -0.096,0.228 -0.096,0.336 0,0.3 0.252,0.588 0.588,0.588 z" id="path135" /><path d="m 170.76501,66.970003 c 1.524,0 2.82,-1.464 2.82,-3.216 0,-1.476 -1.08,-2.772 -2.484,-2.772 -1.524,0 -2.808,1.476 -2.808,3.204 0,1.536 1.068,2.784 2.472,2.784 z m 0,-1.08 c -0.648,0 -1.296,-0.6 -1.296,-1.716 0,-1.116 0.732,-2.112 1.584,-2.112 0.756,0 1.356,0.828 1.356,1.752 0,1.104 -0.78,2.076 -1.644,2.076 z" id="path137" /><path d="m 176.52501,67.006003 c 0.72,0 1.296,-0.408 1.704,-0.696 v 0.132 c 0,0.324 0.3,0.528 0.612,0.528 0.312,0 0.576,-0.276 0.576,-0.576 v -4.872 c 0,-0.324 -0.276,-0.552 -0.576,-0.552 -0.276,0 -0.564,0.228 -0.564,0.552 l -0.024,3.42 c 0,0.144 -0.024,0.252 -0.072,0.3 -0.204,0.228 -0.888,0.684 -1.536,0.684 -0.432,0 -0.792,-0.324 -0.792,-2.1 0,-1.212 0.144,-2.088 0.144,-2.292 0,-0.384 -0.276,-0.564 -0.576,-0.564 -0.348,0 -0.504,0.228 -0.564,0.612 -0.084,0.54 -0.132,1.38 -0.132,1.98 0,2.844 0.588,3.444 1.8,3.444 z" id="path139" /></g><g aria-label="Status:" id="text42" style="fill:#212121"><path d="m 71.309,90.970003 c 1.56,0 2.892,-1.032 2.892,-2.412 0,-1.176 -0.876,-1.932 -2.46,-2.388 -1.296,-0.372 -1.848,-0.72 -1.848,-1.284 0,-0.6 0.552,-0.996 1.644,-0.996 0.888,0 1.428,0.348 1.488,0.78 0.036,0.276 0.264,0.504 0.552,0.504 0.336,0 0.588,-0.264 0.588,-0.624 0,-1.056 -0.972,-1.764 -2.628,-1.764 -1.74,0 -2.808,0.9 -2.808,2.184 0,1.368 1.236,1.956 2.604,2.34 1.32,0.372 1.716,0.816 1.716,1.308 0,0.684 -0.708,1.224 -1.716,1.224 -0.72,0 -1.548,-0.336 -1.812,-1.068 -0.096,-0.264 -0.3,-0.444 -0.6,-0.444 -0.348,0 -0.612,0.276 -0.612,0.6 0,0.132 0.048,0.288 0.132,0.468 0.384,0.816 1.404,1.572 2.868,1.572 z" id="path142" /><path d="m 76.504995,90.982003 c 0.312,0 0.576,-0.252 0.576,-0.564 v -4.284 h 1.02 c 0.324,0 0.576,-0.276 0.576,-0.576 0,-0.336 -0.252,-0.588 -0.576,-0.588 h -1.02 v -1.284 c 0,-0.3 -0.228,-0.588 -0.576,-0.588 -0.324,0 -0.576,0.288 -0.576,0.588 v 1.284 h -0.924 c -0.312,0 -0.6,0.228 -0.6,0.588 0,0.3 0.252,0.576 0.576,0.576 h 0.948 v 4.284 c 0,0.312 0.276,0.564 0.576,0.564 z" id="path144" /><path d="m 82.948997,91.090003 c 0.336,0 0.576,-0.288 0.576,-0.6 v -4.992 c -0.312,-0.144 -1.056,-0.516 -1.92,-0.516 -1.776,0 -2.88,1.74 -2.88,3.396 0,1.548 0.996,2.592 2.316,2.592 0.48,0 0.996,-0.132 1.368,-0.528 v 0.168 c 0,0.288 0.216,0.48 0.54,0.48 z m -1.824,-1.236 c -0.768,0 -1.236,-0.504 -1.236,-1.5 0,-1.176 0.684,-2.268 1.74,-2.268 0.252,0 0.552,0.06 0.756,0.144 l -0.036,3.132 c -0.252,0.228 -0.72,0.492 -1.224,0.492 z" id="path146" /><path d="m 86.24899,90.982003 c 0.312,0 0.576,-0.252 0.576,-0.564 v -4.284 h 1.02 c 0.324,0 0.576,-0.276 0.576,-0.576 0,-0.336 -0.252,-0.588 -0.576,-0.588 h -1.02 v -1.284 c 0,-0.3 -0.228,-0.588 -0.576,-0.588 -0.324,0 -0.576,0.288 -0.576,0.588 v 1.284 h -0.924 c -0.312,0 -0.6,0.228 -0.6,0.588 0,0.3 0.252,0.576 0.576,0.576 h 0.948 v 4.284 c 0,0.312 0.276,0.564 0.576,0.564 z" id="path148" /><path d="m 90.78498,91.006003 c 0.72,0 1.296,-0.408 1.704,-0.696 v 0.132 c 0,0.324 0.3,0.528 0.612,0.528 0.312,0 0.576,-0.276 0.576,-0.576 v -4.872 c 0,-0.324 -0.276,-0.552 -0.576,-0.552 -0.276,0 -0.564,0.228 -0.564,0.552 l -0.024,3.42 c 0,0.144 -0.024,0.252 -0.072,0.3 -0.204,0.228 -0.888,0.684 -1.536,0.684 -0.432,0 -0.792,-0.324 -0.792,-2.1 0,-1.212 0.144,-2.088 0.144,-2.292 0,-0.384 -0.276,-0.564 -0.576,-0.564 -0.348,0 -0.504,0.228 -0.564,0.612 -0.084,0.54 -0.132,1.38 -0.132,1.98 0,2.844 0.588,3.444 1.8,3.444 z" id="path150" /><path d="m 97.084975,90.970003 c 1.32,0 2.148,-0.936 2.148,-1.836 0,-0.912 -0.48,-1.32 -1.776,-1.728 -0.864,-0.276 -1.212,-0.456 -1.212,-0.84 0,-0.324 0.288,-0.576 1.056,-0.576 0.612,0 0.852,0.204 0.852,0.48 0,0.096 -0.06,0.18 -0.06,0.288 0,0.228 0.216,0.492 0.564,0.492 0.384,0 0.6,-0.276 0.6,-0.768 0,-0.9 -0.708,-1.5 -1.98,-1.5 -1.392,0 -2.136,0.708 -2.136,1.608 0,0.9 0.552,1.404 1.848,1.8 0.9,0.276 1.116,0.444 1.116,0.804 0,0.348 -0.336,0.744 -0.996,0.744 -0.6,0 -1.008,-0.312 -1.176,-0.804 -0.072,-0.228 -0.264,-0.396 -0.54,-0.396 -0.312,0 -0.564,0.252 -0.564,0.564 0,0.432 0.732,1.668 2.256,1.668 z" id="path152" /><path d="m 100.91297,87.070003 c 0.372,0 0.708,-0.348 0.708,-0.792 0,-0.372 -0.276,-0.66 -0.624,-0.66 -0.372,0 -0.708,0.372 -0.708,0.768 0,0.372 0.252,0.684 0.624,0.684 z m -0.324,3.9 c 0.372,0 0.708,-0.348 0.708,-0.78 0,-0.372 -0.264,-0.672 -0.612,-0.672 -0.372,0 -0.708004,0.372 -0.708004,0.768 0,0.384 0.240004,0.684 0.612004,0.684 z" id="path154" /></g><g aria-label="Not an Emoji yet" id="text46" style="fill:#212121"><path d="m 69.557,102.97 c 0.324,0 0.6,-0.252 0.6,-0.588 l 0.012,-5.087997 3.744,5.411997 c 0.12,0.168 0.312,0.264 0.492,0.264 0.324,0 0.588,-0.24 0.588,-0.588 v -6.995997 c 0,-0.324 -0.276,-0.6 -0.588,-0.6 -0.336,0 -0.6,0.276 -0.6,0.6 V 100.486 l -3.756,-5.435997 c -0.108,-0.156 -0.312,-0.252 -0.492,-0.252 -0.336,0 -0.576,0.276 -0.576,0.588 L 68.969,102.382 c 0,0.312 0.276,0.588 0.588,0.588 z" id="path157" /><path d="m 78.821005,102.97 c 1.524,0 2.82,-1.464 2.82,-3.215997 0,-1.476 -1.08,-2.772 -2.484,-2.772 -1.524,0 -2.808,1.476 -2.808,3.203997 0,1.536 1.068,2.784 2.472,2.784 z m 0,-1.08 c -0.648,0 -1.296,-0.6 -1.296,-1.716 0,-1.115997 0.732,-2.111997 1.584,-2.111997 0.756,0 1.356,0.828 1.356,1.752 0,1.103997 -0.78,2.075997 -1.644,2.075997 z" id="path159" /><path d="m 83.933011,102.982 c 0.312,0 0.576,-0.252 0.576,-0.564 v -4.283997 h 1.02 c 0.324,0 0.576,-0.276 0.576,-0.576 0,-0.336 -0.252,-0.588 -0.576,-0.588 h -1.02 v -1.284 c 0,-0.3 -0.228,-0.588 -0.576,-0.588 -0.324,0 -0.576,0.288 -0.576,0.588 v 1.284 h -0.924 c -0.312,0 -0.6,0.228 -0.6,0.588 0,0.3 0.252,0.576 0.576,0.576 h 0.948 V 102.418 c 0,0.312 0.276,0.564 0.576,0.564 z" id="path161" /><path d="m 94.937011,103.09 c 0.336,0 0.576,-0.288 0.576,-0.6 v -4.991997 c -0.312,-0.144 -1.056,-0.516 -1.92,-0.516 -1.776,0 -2.88,1.74 -2.88,3.395997 0,1.548 0.996,2.592 2.316,2.592 0.48,0 0.996,-0.132 1.368,-0.528 v 0.168 c 0,0.288 0.216,0.48 0.54,0.48 z m -1.824,-1.236 c -0.768,0 -1.236,-0.504 -1.236,-1.5 0,-1.175997 0.684,-2.267997 1.74,-2.267997 0.252,0 0.552,0.06 0.756,0.144 l -0.036,3.131997 c -0.252,0.228 -0.72,0.492 -1.224,0.492 z" id="path163" /><path d="m 97.769004,102.97 c 0.36,0 0.564,-0.264 0.564,-0.6 v -1.008 c 0,-0.888 0.132,-1.439997 0.492,-2.087997 0.408,-0.744 0.912,-1.176 1.391996,-1.176 0.552,0 0.792,0.408 0.792,2.315997 v 1.992 c 0,0.288 0.264,0.564 0.576,0.564 0.324,0 0.552,-0.276 0.552,-0.576 0,-0.684 0.012,-1.092 0.012,-2.1 0,-2.507997 -0.516,-3.311997 -1.824,-3.311997 -0.815996,0 -1.523996,0.516 -1.979996,1.476 v -0.912 c 0,-0.324 -0.252,-0.576 -0.552,-0.576 -0.312,0 -0.6,0.252 -0.6,0.576 V 102.418 c 0,0.288 0.264,0.552 0.576,0.552 z" id="path165" /><path d="m 108.64101,102.898 h 4.764 c 0.336,0 0.588,-0.264 0.588,-0.6 0,-0.336 -0.252,-0.6 -0.588,-0.6 h -4.176 v -2.387997 h 3.648 c 0.336,0 0.588,-0.264 0.588,-0.6 0,-0.336 -0.252,-0.588 -0.588,-0.588 h -3.648 v -2.064 h 4.2 c 0.336,0 0.588,-0.276 0.588,-0.6 0,-0.336 -0.252,-0.6 -0.588,-0.6 h -4.788 c -0.336,0 -0.6,0.264 -0.6,0.6 V 102.298 c 0,0.336 0.264,0.6 0.6,0.6 z" id="path167" /><path d="m 115.67301,102.97 c 0.312,0 0.576,-0.252 0.576,-0.564 l -0.012,-1.764 c 0,-0.588 0.144,-1.043997 0.42,-1.511997 0.312,-0.492 0.84,-1.044 1.404,-1.044 0.42,0 0.588,0.348 0.588,1.104 V 102.406 c 0,0.312 0.276,0.564 0.576,0.564 0.324,0 0.576,-0.252 0.576,-0.564 v -2.232 c 0,-1.211997 0.792,-2.087997 1.488,-2.087997 0.456,0 0.648,0.372 0.648,1.104 V 102.406 c 0,0.312 0.264,0.564 0.576,0.564 0.3,0 0.576,-0.252 0.576,-0.564 v -3.143997 c 0,-1.572 -0.648,-2.28 -1.608,-2.28 -0.804,0 -1.416,0.468 -1.872,1.152 -0.216,-0.792 -0.756,-1.152 -1.38,-1.152 -0.816,0 -1.488,0.48 -1.98,1.416 v -0.84 c 0,-0.3 -0.252,-0.576 -0.576,-0.576 -0.3,0 -0.576,0.276 -0.576,0.576 V 102.406 c 0,0.312 0.276,0.564 0.576,0.564 z" id="path169" /><path d="m 126.73701,102.97 c 1.524,0 2.82,-1.464 2.82,-3.215997 0,-1.476 -1.08,-2.772 -2.484,-2.772 -1.524,0 -2.808,1.476 -2.808,3.203997 0,1.536 1.068,2.784 2.472,2.784 z m 0,-1.08 c -0.648,0 -1.296,-0.6 -1.296,-1.716 0,-1.115997 0.732,-2.111997 1.584,-2.111997 0.756,0 1.356,0.828 1.356,1.752 0,1.103997 -0.78,2.075997 -1.644,2.075997 z" id="path171" /><path d="m 131.66901,96.382003 c 0.24,0 0.564,-0.156 0.588,-0.468 l 0.048,-0.516 c 0.024,-0.288 -0.192,-0.612 -0.564,-0.612 -0.264,0 -0.552,0.18 -0.576,0.48 l -0.048,0.516 c -0.024,0.3 0.216,0.6 0.552,0.6 z m -0.948,8.555997 c 0.9,0 1.548,-0.72 1.548,-2.22 0,-0.9 -0.06,-4.391997 -0.06,-5.183997 0,-0.312 -0.276,-0.576 -0.576,-0.576 -0.348,0 -0.576,0.252 -0.576,0.588 0,0.9 0.072,4.403997 0.072,5.423997 0,0.588 -0.18,0.876 -0.456,0.876 -0.216,0 -0.408,-0.156 -0.528,-0.444 -0.096,-0.228 -0.252,-0.408 -0.552,-0.408 -0.348,0 -0.588,0.276 -0.588,0.564 0,0.084 0.084,0.264 0.132,0.348 0.264,0.468 0.864,1.032 1.584,1.032 z" id="path173" /><path d="m 134.633,96.478003 c 0.324,0 0.564,-0.24 0.576,-0.564 l 0.012,-0.456 c 0.012,-0.288 -0.264,-0.576 -0.564,-0.576 -0.3,0 -0.564,0.252 -0.576,0.564 l -0.012,0.444 c -0.012,0.312 0.264,0.588 0.564,0.588 z m -0.06,6.491997 c 0.312,0 0.588,-0.264 0.588,-0.588 l 0.06,-4.775997 c 0,-0.324 -0.252,-0.588 -0.588,-0.588 -0.312,0 -0.588,0.264 -0.588,0.588 l -0.06,4.775997 c 0,0.324 0.264,0.588 0.588,0.588 z" id="path175" /><path d="m 142.00102,105.118 c 0.252,0 0.444,-0.168 0.54,-0.372 l 3.204,-6.959997 c 0.036,-0.072 0.048,-0.168 0.048,-0.24 0,-0.336 -0.24,-0.588 -0.528,-0.588 -0.252,0 -0.456,0.168 -0.552,0.372 l -1.512,3.347997 -1.692,-3.347997 c -0.084,-0.168 -0.264,-0.36 -0.552,-0.36 -0.336,0 -0.6,0.264 -0.6,0.588 0,0.108 0.036,0.216 0.072,0.288 l 2.148,4.187997 -1.044,2.244 c -0.036,0.084 -0.06,0.18 -0.06,0.252 0,0.324 0.24,0.588 0.528,0.588 z" id="path177" /><path d="m 149.057,102.97 c 0.744,0 1.572,-0.396 2.004,-0.888 0.096,-0.108 0.144,-0.216 0.144,-0.36 0,-0.312 -0.24,-0.54 -0.564,-0.54 -0.156,0 -0.288,0.084 -0.396,0.192 -0.264,0.276 -0.66,0.516 -1.188,0.516 -0.684,0 -1.32,-0.276 -1.548,-0.78 l 3.216,-1.847997 c 0.252,-0.144 0.372,-0.36 0.372,-0.552 0,-0.564 -0.72,-1.728 -2.304,-1.728 -1.644,0 -2.712,1.476 -2.712,2.976 0,1.883997 1.284,3.011997 2.976,3.011997 z m -1.884,-2.856 c 0,-0.167997 0,-0.251997 0.024,-0.431997 0.096,-0.888 0.744,-1.62 1.68,-1.62 0.468,0 0.84,0.168 1.032,0.504 z" id="path179" /><path d="m 153.40099,102.982 c 0.312,0 0.576,-0.252 0.576,-0.564 v -4.283997 h 1.02 c 0.324,0 0.576,-0.276 0.576,-0.576 0,-0.336 -0.252,-0.588 -0.576,-0.588 h -1.02 v -1.284 c 0,-0.3 -0.228,-0.588 -0.576,-0.588 -0.324,0 -0.576,0.288 -0.576,0.588 v 1.284 h -0.924 c -0.312,0 -0.6,0.228 -0.6,0.588 0,0.3 0.252,0.576 0.576,0.576 h 0.948 V 102.418 c 0,0.312 0.276,0.564 0.576,0.564 z" id="path181" /></g><g aria-label="Cuteness:" id="text50" style="fill:#212121"><path d="m 72.053,126.97 c 1.164,0 2.22,-0.492 2.88,-1.428 0.084,-0.12 0.108,-0.24 0.108,-0.36 0,-0.384 -0.288,-0.6 -0.6,-0.6 -0.18,0 -0.324,0.048 -0.468,0.24 -0.384,0.504 -0.972,0.996 -1.92,0.996 -1.248,0 -2.304,-0.9 -2.304,-2.46 0,-1.74 1.224,-3.408 2.46,-3.408 0.648,0 1.02,0.204 1.272,0.468 v 0.084 c 0,0.252 0.24,0.48 0.564,0.48 0.336,0 0.6,-0.276 0.6,-0.6 v -0.768 c 0,-0.3 -0.228,-0.552 -0.552,-0.552 -0.168,0 -0.288,0.072 -0.36,0.144 -0.36,-0.216 -0.9,-0.42 -1.44,-0.42 -1.836,0 -3.744,2.172 -3.744,4.572 0,2.28 1.596,3.612 3.504,3.612 z" id="path184" /><path d="m 77.764998,127.006 c 0.72,0 1.296,-0.408 1.704,-0.696 v 0.132 c 0,0.324 0.3,0.528 0.612,0.528 0.312,0 0.576,-0.276 0.576,-0.576 v -4.872 c 0,-0.324 -0.276,-0.552 -0.576,-0.552 -0.276,0 -0.564,0.228 -0.564,0.552 l -0.024,3.42 c 0,0.144 -0.024,0.252 -0.072,0.3 -0.204,0.228 -0.888,0.684 -1.536,0.684 -0.432,0 -0.792,-0.324 -0.792,-2.1 0,-1.212 0.144,-2.088 0.144,-2.292 0,-0.384 -0.276,-0.564 -0.576,-0.564 -0.348,0 -0.504,0.228 -0.564,0.612 -0.084,0.54 -0.132,1.38 -0.132,1.98 0,2.844 0.588,3.444 1.8,3.444 z" id="path186" /><path d="m 83.380994,126.982 c 0.312,0 0.576,-0.252 0.576,-0.564 v -4.284 h 1.02 c 0.324,0 0.576,-0.276 0.576,-0.576 0,-0.336 -0.252,-0.588 -0.576,-0.588 h -1.02 v -1.284 c 0,-0.3 -0.228,-0.588 -0.576,-0.588 -0.324,0 -0.576,0.288 -0.576,0.588 v 1.284 h -0.924 c -0.312,0 -0.6,0.228 -0.6,0.588 0,0.3 0.252,0.576 0.576,0.576 h 0.948 v 4.284 c 0,0.312 0.276,0.564 0.576,0.564 z" id="path188" /><path d="m 88.576997,126.97 c 0.744,0 1.572,-0.396 2.004,-0.888 0.096,-0.108 0.144,-0.216 0.144,-0.36 0,-0.312 -0.24,-0.54 -0.564,-0.54 -0.156,0 -0.288,0.084 -0.396,0.192 -0.264,0.276 -0.66,0.516 -1.188,0.516 -0.684,0 -1.32,-0.276 -1.548,-0.78 l 3.216,-1.848 c 0.252,-0.144 0.372,-0.36 0.372,-0.552 0,-0.564 -0.72,-1.728 -2.304,-1.728 -1.644,0 -2.712,1.476 -2.712,2.976 0,1.884 1.284,3.012 2.976,3.012 z m -1.884,-2.856 c 0,-0.168 0,-0.252 0.024,-0.432 0.096,-0.888 0.744,-1.62 1.68,-1.62 0.468,0 0.84,0.168 1.032,0.504 z" id="path190" /><path d="m 92.452987,126.97 c 0.36,0 0.564,-0.264 0.564,-0.6 v -1.008 c 0,-0.888 0.132,-1.44 0.492,-2.088 0.408,-0.744 0.912,-1.176 1.392,-1.176 0.552,0 0.792,0.408 0.792,2.316 v 1.992 c 0,0.288 0.264,0.564 0.576,0.564 0.324,0 0.552,-0.276 0.552,-0.576 0,-0.684 0.012,-1.092 0.012,-2.1 0,-2.508 -0.516,-3.312 -1.824,-3.312 -0.816,0 -1.524,0.516 -1.98,1.476 v -0.912 c 0,-0.324 -0.252,-0.576 -0.552,-0.576 -0.312,0 -0.6,0.252 -0.6,0.576 v 4.872 c 0,0.288 0.264,0.552 0.576,0.552 z" id="path192" /><path d="m 100.98498,126.97 c 0.744,0 1.572,-0.396 2.004,-0.888 0.096,-0.108 0.144,-0.216 0.144,-0.36 0,-0.312 -0.24,-0.54 -0.564,-0.54 -0.156,0 -0.288,0.084 -0.396,0.192 -0.264,0.276 -0.66,0.516 -1.188,0.516 -0.684,0 -1.320001,-0.276 -1.548001,-0.78 l 3.216001,-1.848 c 0.252,-0.144 0.372,-0.36 0.372,-0.552 0,-0.564 -0.72,-1.728 -2.304,-1.728 -1.644001,0 -2.712001,1.476 -2.712001,2.976 0,1.884 1.284,3.012 2.976001,3.012 z m -1.884001,-2.856 c 0,-0.168 0,-0.252 0.024,-0.432 0.096,-0.888 0.744,-1.62 1.680001,-1.62 0.468,0 0.84,0.168 1.032,0.504 z" id="path194" /><path d="m 106.01297,126.97 c 1.32,0 2.148,-0.936 2.148,-1.836 0,-0.912 -0.48,-1.32 -1.776,-1.728 -0.864,-0.276 -1.212,-0.456 -1.212,-0.84 0,-0.324 0.288,-0.576 1.056,-0.576 0.612,0 0.852,0.204 0.852,0.48 0,0.096 -0.06,0.18 -0.06,0.288 0,0.228 0.216,0.492 0.564,0.492 0.384,0 0.6,-0.276 0.6,-0.768 0,-0.9 -0.708,-1.5 -1.98,-1.5 -1.392,0 -2.136,0.708 -2.136,1.608 0,0.9 0.552,1.404 1.848,1.8 0.9,0.276 1.116,0.444 1.116,0.804 0,0.348 -0.336,0.744 -0.996,0.744 -0.6,0 -1.008,-0.312 -1.176,-0.804 -0.072,-0.228 -0.264,-0.396 -0.54,-0.396 -0.312,0 -0.564,0.252 -0.564,0.564 0,0.432 0.732,1.668 2.256,1.668 z" id="path196" /><path d="m 111.11296,126.97 c 1.32,0 2.148,-0.936 2.148,-1.836 0,-0.912 -0.48,-1.32 -1.776,-1.728 -0.864,-0.276 -1.212,-0.456 -1.212,-0.84 0,-0.324 0.288,-0.576 1.056,-0.576 0.612,0 0.852,0.204 0.852,0.48 0,0.096 -0.06,0.18 -0.06,0.288 0,0.228 0.216,0.492 0.564,0.492 0.384,0 0.6,-0.276 0.6,-0.768 0,-0.9 -0.708,-1.5 -1.98,-1.5 -1.392,0 -2.136,0.708 -2.136,1.608 0,0.9 0.552,1.404 1.848,1.8 0.9,0.276 1.116,0.444 1.116,0.804 0,0.348 -0.336,0.744 -0.996,0.744 -0.6,0 -1.008,-0.312 -1.176,-0.804 -0.072,-0.228 -0.264,-0.396 -0.54,-0.396 -0.312,0 -0.564,0.252 -0.564,0.564 0,0.432 0.732,1.668 2.256,1.668 z" id="path198" /><path d="m 114.94095,123.07 c 0.372,0 0.708,-0.348 0.708,-0.792 0,-0.372 -0.276,-0.66 -0.624,-0.66 -0.372,0 -0.708,0.372 -0.708,0.768 0,0.372 0.252,0.684 0.624,0.684 z m -0.324,3.9 c 0.372,0 0.708,-0.348 0.708,-0.78 0,-0.372 -0.264,-0.672 -0.612,-0.672 -0.372,0 -0.708,0.372 -0.708,0.768 0,0.384 0.24,0.684 0.612,0.684 z" id="path200" /></g><g aria-label="Yes" id="text54" style="fill:#212121"><path d="m 70.325,138.96999 c 0.204,0 0.408,-0.108 0.516,-0.3 l 4.104,-6.9 c 0.108,-0.18 0.12,-0.252 0.12,-0.384 0,-0.336 -0.3,-0.588 -0.588,-0.588 -0.204,0 -0.408,0.096 -0.516,0.288 l -2.388,4.032 -2.352,-4.02 c -0.108,-0.192 -0.312,-0.3 -0.504,-0.3 -0.336,0 -0.6,0.276 -0.6,0.588 0,0.12 0.024,0.216 0.096,0.348 l 2.664,4.56 -1.044,1.752 c -0.096,0.156 -0.096,0.228 -0.096,0.336 0,0.3 0.252,0.588 0.588,0.588 z" id="path203" /><path d="m 77.765,138.96999 c 0.744,0 1.572,-0.396 2.004,-0.888 0.096,-0.108 0.144,-0.216 0.144,-0.36 0,-0.312 -0.24,-0.54 -0.564,-0.54 -0.156,0 -0.288,0.084 -0.396,0.192 -0.264,0.276 -0.66,0.516 -1.188,0.516 -0.684,0 -1.32,-0.276 -1.548,-0.78 l 3.216,-1.848 c 0.252,-0.144 0.372,-0.36 0.372,-0.552 0,-0.564 -0.72,-1.728 -2.304,-1.728 -1.644,0 -2.712,1.476 -2.712,2.976 0,1.884 1.284,3.012 2.976,3.012 z m -1.884,-2.856 c 0,-0.168 0,-0.252 0.024,-0.432 0.096,-0.888 0.744,-1.62 1.68,-1.62 0.468,0 0.84,0.168 1.032,0.504 z" id="path205" /><path d="m 82.792991,138.96999 c 1.32,0 2.148,-0.936 2.148,-1.836 0,-0.912 -0.48,-1.32 -1.776,-1.728 -0.864,-0.276 -1.212,-0.456 -1.212,-0.84 0,-0.324 0.288,-0.576 1.056,-0.576 0.612,0 0.852,0.204 0.852,0.48 0,0.096 -0.06,0.18 -0.06,0.288 0,0.228 0.216,0.492 0.564,0.492 0.384,0 0.6,-0.276 0.6,-0.768 0,-0.9 -0.708,-1.5 -1.98,-1.5 -1.392,0 -2.136,0.708 -2.136,1.608 0,0.9 0.552,1.404 1.848,1.8 0.9,0.276 1.116,0.444 1.116,0.804 0,0.348 -0.336,0.744 -0.996,0.744 -0.6,0 -1.008,-0.312 -1.176,-0.804 -0.072,-0.228 -0.264,-0.396 -0.54,-0.396 -0.312,0 -0.564,0.252 -0.564,0.564 0,0.432 0.732,1.668 2.256,1.668 z" id="path207" /></g></g></g></svg>