<?xml version="1.0" encoding="UTF-8"?>
<svg clip-rule="evenodd" fill-rule="evenodd" stroke-linejoin="round" stroke-miterlimit="2" version="1.1" viewBox="0 0 128 128" xml:space="preserve" xmlns="http://www.w3.org/2000/svg"><g transform="matrix(.256 0 0 .256 -4.2665 -4.2666)"><path d="m516.67 83.343c0-36.794-29.881-66.676-66.667-66.676h-366.67c-36.786 0-66.667 29.882-66.667 66.676v366.65c0 36.794 29.881 66.677 66.667 66.677h366.67c36.786 0 66.667-29.883 66.667-66.677z" fill="#f79329"/><path d="m446.04 129.17h-134.83v-56.084c0-1.708-0.708-3.416-1.916-4.666-1.209-1.209-2.917-1.917-4.667-1.917h-70.75c-1.75 0-3.417 0.708-4.667 1.917-1.208 1.208-1.916 2.916-1.916 4.666v56.084h-134.88c-1.75 0-3.417 0.708-4.667 1.916-1.208 1.209-1.917 2.875-1.917 4.625v225.75c0 1.709 0.709 3.417 1.917 4.667 1.208 1.208 2.917 1.917 4.667 1.917h134.88v90.875c0 1.75 0.708 3.416 1.916 4.666 1.209 1.209 2.917 1.917 4.667 1.917h70.75c1.75 0 3.417-0.708 4.667-1.917 1.208-1.208 1.916-2.916 1.916-4.666v-90.875h134.88c1.75 0 3.417-0.709 4.667-1.917 1.208-1.208 1.917-2.958 1.917-4.667v-225.75c0-1.75-0.709-3.416-1.917-4.625-1.25-1.208-2.958-1.916-4.708-1.916zm-218.75 56.25v38.458h-75.292c-1.083 0-2.167-0.458-2.958-1.208-0.792-0.792-1.209-1.875-1.209-2.959v-30.125c0-1.125 0.459-2.166 1.209-2.958 0.791-0.792 1.875-1.208 2.958-1.208zm-79.459 92.166c0-1.083 0.459-2.166 1.209-2.958 0.791-0.792 1.875-1.208 2.958-1.208h75.292v38.458h-75.292c-1.083 0-2.167-0.458-2.958-1.208-0.792-0.792-1.209-1.875-1.209-2.959zm163.38 34.25v-38.416h75.292c1.083 0 2.167 0.458 2.958 1.208 0.792 0.792 1.209 1.833 1.209 2.958v30.084c0 1.083-0.459 2.208-1.209 2.958-0.783 0.784-1.85 1.219-2.958 1.208zm78.209-89.166c-0.784 0.783-1.851 1.219-2.959 1.208h-75.25v-38.458h75.292c1.083 0 2.167 0.458 2.958 1.208 0.792 0.792 1.209 1.833 1.209 2.958v30.084c0 1.125-0.459 2.208-1.25 3z" fill="#fff" fill-rule="nonzero"/></g></svg>
