<?xml version="1.0" encoding="UTF-8" standalone="no"?>
<svg
   width="128"
   height="128"
   version="1.1"
   id="svg8"
   xmlns="http://www.w3.org/2000/svg"
   xmlns:svg="http://www.w3.org/2000/svg">
  <defs
     id="defs12" />
  <path
     d="M64 .29C28.81.29.29 28.82.29 64c0 35.19 28.53 63.71 63.72 63.71 35.18 0 63.71-28.52 63.71-63.71C127.71 28.82 99.18.29 64 .29zm0 121.32C32.24 121.61 6.39 95.77 6.39 64 6.39 32.24 32.24 6.39 64 6.39c31.77 0 57.6 25.84 57.6 57.61.01 31.77-25.83 57.61-57.6 57.61z"
     fill="#40c0e7"
     id="path2" />
  <g
     aria-label="R"
     id="text6"
     style="line-height:1.25;fill:#40c0e7">
    <path
       d="m 46.335999,97.551998 c 2.496,0 4.704,-2.016 4.704,-4.704 v -17.376 c 2.304,-0.384 4.608,-0.576 6.432,-0.576 3.36,0 10.752,1.152 22.656,20.16 0.96,1.536 2.4,2.496 4.224,2.496 2.88,0 4.704,-2.304 4.704,-4.704 0,-0.672 -0.096,-1.44 -0.48,-2.208 -4.8,-9.6 -11.424,-15.936 -15.936,-19.488 7.584,-3.36 14.208,-8.928 14.208,-18.624 0,-12.96 -12.096,-20.448 -33.6,-20.448 h -3.936 c -6.624,0 -7.68,0.864 -7.68,5.76 v 55.008 c 0,2.688 2.016,4.704 4.704,4.704 z m 4.704,-30.912 v -25.344 h 1.92 c 15.36,0 24.384,3.84 24.384,11.232 0,9.216 -14.592,13.344 -26.304,14.112 z"
       
       id="path14" />
  </g>
</svg>
