<?xml version='1.0' encoding='utf-8'?>
<svg xmlns="http://www.w3.org/2000/svg" width="128" height="128" version="1.1" id="svg6" viewBox="0 0 128 128">
  <defs id="defs10" />
  <g aria-label="Z" id="text4" style="line-height:1.25;fill:#40c0e7">
    <path d="m 28.559939,119.92 h 68.96 c 4.480001,0 8.000001,-3.84 8.000001,-8.16 0,-4.64 -3.52,-8.16 -8.000001,-8.16 h -54.4 L 106.63994,24.559999 c 1.12,-1.44 1.44,-2.4 1.44,-4.96 0,-4.8 -3.84,-8.48 -8.640001,-8.48 h -68.96 c -4.32,0 -8,3.84 -8,8.16 0,4.64 3.68,8.32 8,8.32 h 54.4 l -63.04,78.240001 c -1.28,1.6 -1.92,3.52 -1.92,5.12 0,5.28 2.72,8.96 8.64,8.96 z" style="text-align:center;text-anchor:middle" id="path12" />
  </g>
</svg>