<?xml version="1.0" encoding="UTF-8"?>
<svg width="128" height="128" version="1.1" viewBox="0 0 128 128" xmlns="http://www.w3.org/2000/svg" xmlns:xlink="http://www.w3.org/1999/xlink">
 <defs>
  <linearGradient id="b" x1="64" x2="64" y1="17.286" y2="110.54" gradientUnits="userSpaceOnUse">
   <stop stop-color="#fff" stop-opacity=".705" offset="0"/>
   <stop stop-color="#fff" stop-opacity=".393" offset="1"/>
  </linearGradient>
 </defs>
 <g stroke-width="3.78">
  <g stroke-opacity=".393">
   <path d="M18.451 19.81c-.36.06-.762.107-1.11.169-10.16 1.788-15.195 4.656-15.195 4.656a1.89 1.89 0 0 0-.943 1.635v1.32l17.248-7.78z" fill="#1e1e82" paint-order="fill markers stroke"/>
   <path d="M36.63 18.48c-7.271-.042-13.277.53-18.179 1.33L1.203 27.59v9.474L42.09 18.625a140.43 140.43 0 0 0-5.46-.145z" fill="#1e8282" paint-order="fill markers stroke"/>
   <path d="M42.09 18.625L1.203 37.065v9.476l58.1-26.203c-6.287-.941-12.02-1.48-17.213-1.713z" fill="#1e821e" paint-order="fill markers stroke"/>
   <path d="m59.303 20.338-58.1 26.202v9.477l73.848-33.309a176.6 176.6 0 0 1-10.723-1.559 194.26 194.26 0 0 0-5.025-0.812z" fill="#82821e" paint-order="fill markers stroke"/>
   <path d="M75.05 22.709L1.204 56.018v9.474l92.79-41.85c-5.498.126-11.8-.12-18.942-.933z" fill="#821e1e" paint-order="fill markers stroke"/>
   <path d="M123.775 17.643c-.371.221-4.538 2.632-13.796 4.396-4.28.815-9.591 1.457-15.987 1.604L1.203 65.493v9.478l123.705-55.795-1.133-1.533z" fill="#811e82" paint-order="fill markers stroke"/>
   <path d="m124.91 19.176-123.7 55.794v9.474l125.59-56.644v-6.069l-1.889-2.556z" fill="#1e1e82" paint-order="fill markers stroke"/>
   <path d="m126.8 27.8-125.59 56.646v9.477l125.59-56.647v-9.474z" fill="#1e8282" paint-order="fill markers stroke"/>
   <path d="m126.8 37.275-125.59 56.647v9.476l125.59-56.644v-9.479z" fill="#1e821e" paint-order="fill markers stroke"/>
   <path d="M126.797 46.754L1.203 103.398v5.252a1.89 1.89 0 0 0 2.994 1.534s3.947-2.904 13.487-4.909c.208-.043.434-.084.648-.127l108.465-48.92v-9.474z" fill="#82821e" paint-order="fill markers stroke"/>
   <path d="m126.8 56.229-108.46 48.92c5.93-1.188 13.848-1.96 24.018-1.358l84.447-38.088v-9.473z" fill="#821e1e" paint-order="fill markers stroke"/>
   <path d="M126.797 65.703L42.35 103.791c4.982.295 10.51.926 16.595 1.992l67.852-30.601v-9.479z" fill="#811e82" paint-order="fill markers stroke"/>
   <path d="M126.797 75.182l-67.852 30.601c1.528.268 3.079.554 4.678.88 3.656.742 7.116 1.325 10.42 1.788l52.754-23.795v-9.474z" fill="#1e1e82" paint-order="fill markers stroke"/>
   <path d="m126.8 84.656-52.754 23.795c6.674 0.936 12.652 1.349 17.945 1.383l34.809-15.701v-9.477z" fill="#1e8282" paint-order="fill markers stroke"/>
   <path d="M126.797 94.133l-34.809 15.701c7.776.05 14.105-.695 19.1-1.729 10.078-2.085 14.916-5.474 14.916-5.474a1.89 1.89 0 0 0 .793-1.54v-6.958z" fill="#1e821e" paint-order="fill markers stroke"/>
  </g>
  <path d="M124.852 17.287a1.89 1.89 0 0 0-.928.276s-4.245 2.628-13.945 4.476c-9.701 1.848-24.688 2.81-45.65-.889-21.37-3.77-36.827-2.96-46.987-1.171-10.16 1.788-15.196 4.656-15.196 4.656a1.89 1.89 0 0 0-.943 1.635v82.38a1.89 1.89 0 0 0 2.994 1.534s3.947-2.904 13.487-4.909c9.54-2.004 24.492-2.972 45.939 1.387 21.89 4.45 37.387 3.53 47.465 1.443 10.078-2.085 14.916-5.474 14.916-5.474a1.89 1.89 0 0 0 .793-1.54V19.177a1.89 1.89 0 0 0-1.945-1.889z" fill="url(#b)" fill-rule="evenodd" font-family="sans-serif" font-weight="400" overflow="visible" stroke-linecap="round" stroke-linejoin="round" style="font-feature-settings:normal;font-variant-alternates:normal;font-variant-caps:normal;font-variant-east-asian:normal;font-variant-ligatures:normal;font-variant-numeric:normal;font-variant-position:normal;isolation:auto;mix-blend-mode:normal;shape-padding:0;text-decoration-color:#000;text-decoration-line:none;text-decoration-style:solid;text-indent:0;text-orientation:mixed;text-transform:none" paint-order="fill markers stroke" white-space="normal"/>
  <path d="m3.092 26.27s18.568-10.73 60.908-3.258 60.908-3.835 60.908-3.835v81.917s-17.57 12.525-60.908 3.716c-43.338-8.81-60.908 3.841-60.908 3.841z" fill="none" fill-rule="evenodd" stroke="#000" stroke-linecap="round" stroke-linejoin="round" stroke-opacity=".393" paint-order="fill markers stroke"/>
 </g>
 <g fill="#fff" stroke="#000" stroke-opacity=".721" aria-label="?">
  <path d="m57.728 76.32c1.088 0 2.688-1.216 4.352-2.688 0.064-0.064 3.2-2.88 5.824-5.312 2.24-2.048 6.976-5.568 6.976-12.608 0-8.064-5.76-13.44-14.272-13.44-4.928 0-8.832 2.816-10.624 4.8-0.64 0.704-1.6 1.92-1.6 2.944 0 1.856 1.472 3.072 3.072 3.072 0.768 0 1.536-0.256 2.048-0.832 1.6-1.792 3.776-3.968 7.104-3.968 6.144 0 8.32 3.84 8.32 7.424 0 2.624-2.56 5.824-5.568 8.768-3.328 3.264-6.016 5.184-7.552 6.528-0.704 0.576-1.088 1.472-1.088 2.304 0 1.664 1.344 3.008 3.008 3.008zm-1.984 10.176c1.984 0 3.776-1.856 3.776-4.16 0-1.984-1.408-3.584-3.328-3.584s-3.776 1.984-3.776 4.096c0 2.048 1.344 3.648 3.328 3.648z"/>
 </g>
</svg>
