<?xml version="1.0" encoding="UTF-8" standalone="no"?>
<svg
   width="100%"
   height="100%"
   viewBox="0 0 128 128"
   version="1.1"
   xml:space="preserve"
   style="fill-rule:evenodd;clip-rule:evenodd"
   id="svg30"
   xmlns="http://www.w3.org/2000/svg"
   xmlns:svg="http://www.w3.org/2000/svg"><defs
   id="defs34" />
    <g
   transform="matrix(1.02239,-0.59028,0.59028,1.02239,-39.1926,37.5067)"
   id="g28">
        <g
   transform="rotate(30.000012)"
   id="g4">
            <path
   id="circle2"
   style="fill:#d0e3e9;stroke:#0074e0;stroke-width:11.86px"
   d="m 131.57,22.441 a 44.16,44.16 0 0 1 -44.159996,44.16 44.16,44.16 0 0 1 -44.16,-44.16 44.16,44.16 0 0 1 44.16,-44.16 44.16,44.16 0 0 1 44.159996,44.16 z" />
        </g>
        <g
   id="g10">
            <path
   d="M 97.645,54.253 62.467,55.63 66.491,70.648 Z"
   style="fill:#ce0d00;fill-rule:nonzero"
   id="path6" />
            <path
   d="M 31.312,72.027 66.491,70.649 62.467,55.631 Z"
   style="fill:#cbcbcb;fill-rule:nonzero"
   id="path8" />
        </g>
        <g
   transform="matrix(0.749829,0.432914,-0.432914,0.749829,72.4439,39.2051)"
   id="g14">
            <g
   aria-label="N"
   id="text12"
   ><path
     d="m 2.331076,0.112794 c 0.507573,0 0.93995,-0.394779 0.93995,-0.92115099 L 3.289825,-8.7791329 9.1551129,-0.300784 c 0.18799,0.263186 0.488774,0.413578 0.770759,0.413578 0.5075731,0 0.9211511,-0.37598 0.9211511,-0.92115099 V -11.768174 c 0,-0.507573 -0.432377,-0.93995 -0.9211511,-0.93995 -0.526372,0 -0.93995,0.432377 -0.93995,0.93995 v 7.989575 L 3.101835,-12.294546 c -0.169191,-0.244387 -0.488774,-0.394779 -0.770759,-0.394779 -0.526372,0 -0.902352,0.432377 -0.902352,0.921151 L 1.409925,-0.80835699 c 0,0.48877399 0.432377,0.92115099 0.921151,0.92115099 z"
     id="path37" /></g>
        </g>
        <g
   transform="matrix(0.749829,0.432914,-0.432914,0.749829,83.675,80.6494)"
   id="g18">
            <g
   aria-label="E"
   id="text16"
   ><path
     d="M 2.349875,0 H 9.8130779 C 10.33945,0 10.734229,-0.413578 10.734229,-0.93994999 10.734229,-1.466322 10.33945,-1.8799 9.8130779,-1.8799 H 3.271026 v -3.7410009 h 5.7148959 c 0.526372,0 0.921151,-0.413578 0.921151,-0.93995 0,-0.526372 -0.394779,-0.921151 -0.921151,-0.921151 H 3.271026 V -10.71543 h 6.5796499 c 0.5263721,0 0.9211511,-0.432377 0.9211511,-0.93995 0,-0.526372 -0.394779,-0.93995 -0.9211511,-0.93995 H 2.349875 c -0.526372,0 -0.93995,0.413578 -0.93995,0.93995 V -0.93994999 C 1.409925,-0.413578 1.823503,0 2.349875,0 Z"
     id="path40" /></g>
        </g>
        <g
   transform="matrix(0.749829,0.432914,-0.432914,0.749829,42.3158,91.7297)"
   id="g22">
            <g
   aria-label="S"
   id="text20"
   ><path
     d="m 5.0757299,0.112794 c 2.44387,0 4.530559,-1.616714 4.530559,-3.778599 0,-1.8423019 -1.372327,-3.0266389 -3.853795,-3.7410009 -2.0302919,-0.582769 -2.8950459,-1.12794 -2.8950459,-2.011493 0,-0.9399501 0.864754,-1.5603171 2.5754629,-1.5603171 1.391126,0 2.237081,0.545171 2.331076,1.2219351 0.056397,0.432377 0.413578,0.789558 0.864754,0.789558 0.526372,0 0.921151,-0.413578 0.921151,-0.977548 0,-1.6543121 -1.522719,-2.7634531 -4.116981,-2.7634531 -2.7258549,0 -4.3989659,1.409925 -4.3989659,3.4214181 0,2.143086 1.936297,3.064237 4.0793829,3.665805 2.06789,0.582769 2.688257,1.2783319 2.688257,2.0490909 0,1.071543 -1.109141,1.917498 -2.688257,1.917498 -1.1279399,0 -2.4250709,-0.526372 -2.8386489,-1.673111 -0.150392,-0.413578 -0.469975,-0.695563 -0.93995,-0.695563 -0.54517101,0 -0.958749,0.432377 -0.958749,0.93995 0,0.206789 0.075196,0.451176 0.20678899,0.733161 C 1.184337,-1.071543 2.782252,0.112794 5.0757299,0.112794 Z"
     id="path43" /></g>
        </g>
        <g
   transform="matrix(0.749829,0.432914,-0.432914,0.749829,31.6006,50.6783)"
   id="g26">
            <g
   aria-label="W"
   id="text24"
   ><path
     d="m 4.380167,0.112794 c 0.4323769,0 0.7331609,-0.131593 0.9023519,-0.63916599 l 2.575463,-7.97077591 2.1994831,7.93317791 c 0.112794,0.43237699 0.413578,0.67676399 0.902352,0.67676399 0.394779,0 0.714362,-0.225588 0.845955,-0.60156799 L 15.772361,-11.46739 c 0.09399,-0.281985 0.09399,-0.451176 0.09399,-0.601568 0,-0.469975 -0.394779,-0.827156 -0.902352,-0.827156 -0.451176,0 -0.75196,0.244387 -0.902352,0.657965 l -3.00784,8.327957 -2.2370811,-8.121168 c -0.131593,-0.451176 -0.451176,-0.657965 -0.864754,-0.657965 -0.432377,0 -0.75196,0.18799 -0.902352,0.639166 l -2.63186,8.121168 -2.4626689,-8.102369 c -0.131593,-0.413578 -0.432377,-0.657965 -0.902352,-0.657965 -0.50757301,0 -0.902352,0.357181 -0.902352,0.827156 0,0.150392 0,0.263186 0.093995,0.601568 L 3.515413,-0.52637199 C 3.647006,-0.112794 3.910192,0.112794 4.380167,0.112794 Z"
     id="path46" /></g>
        </g>
    </g>
</svg>
