<?xml version="1.0" encoding="UTF-8"?>
<svg clip-rule="evenodd" fill-rule="evenodd" stroke-linecap="round" stroke-linejoin="round" stroke-miterlimit="1.5" version="1.1" viewBox="0 0 128 128" xml:space="preserve" xmlns="http://www.w3.org/2000/svg"><g transform="matrix(.24045 0 0 .24045 -.34072 -4.8173)"><path d="m266.67 53.503c-260.04 0-265.25 264.16-265.25 321.83 0 57.75 119.12 104.5 266.17 104.5 147 0 266.17-46.75 266.17-104.5 0-57.667-7.083-321.83-267.08-321.83z" fill="#fcc21b" fill-rule="nonzero"/><path d="m217.94 201.68s-50.654-8.56-87.636 24.713" fill="none" stroke="#333" stroke-width="20.83px"/><path d="m343.52 276.63c-18.803-6.768-61.762 18.286-86.559 18.286s-24.283-1.881-52.135-1.881c-27.853 0-50.417 28.528-50.417 63.738s22.564 63.737 50.417 63.737c27.852 0 41.229-14.949 61.845-14.949s33.993 14.949 61.845 14.949 50.416-28.57 50.416-63.78c0-35.167-5.033-69.164-35.412-80.1z" fill="#ed6c30" fill-rule="nonzero"/><path d="m119.08 321.08c32.018-2.794 14.136 38.413 15.521 52.562 0.298 3.142 1.996 6.725 3.964 4.218 0.81-1.033 61.909-64.38 61.909-64.38 6.632-6.979 16.237-8.66 23.207-2.064 6.969 6.596 5.841 16.293-0.791 23.273l-45.516 49.349 62.716-64.557c6.632-6.979 16.237-8.66 23.206-2.064 6.97 6.596 5.841 16.294-0.791 23.273l-61.455 66.509 51.181-52.692c6.632-6.979 16.237-8.66 23.207-2.064s5.841 16.294-0.791 23.273l-50.015 54.437 31.357-31.773c6.632-6.98 16.237-8.66 23.207-2.065 6.97 6.596 4.426 14.926-2.196 21.941 0 0-67.141 71.372-74.669 78.048-18.822 16.69-67.199 26.819-97.35-1.091-37.127-34.388-15.37-78.807-10.474-95.454 3.846-13.027 9.548-26.668 12.073-40.427 2.207-12.045 3.054-37.429 12.5-38.252z" fill="#fac036" stroke="#212121" stroke-linecap="butt" stroke-miterlimit="2" stroke-width="12.5px"/><path d="m315.39 201.68s50.654-8.56 87.636 24.713" fill="none" stroke="#333" stroke-width="20.83px"/></g></svg>
