<?xml version='1.0' encoding='utf-8'?>
<svg xmlns="http://www.w3.org/2000/svg" width="128" height="128" version="1.1" id="svg12" viewBox="0 0 128 128">
  <defs id="defs16" />
  <path d="M116 128H12c-6.6 0-12-5.4-12-12V12C0 5.4 5.4 0 12 0h104c6.6 0 12 5.4 12 12v104c0 6.6-5.4 12-12 12z" fill="#1bb7fc" id="path2" />
  <path d="M124.48 3.52L3.52 124.48C5.7 126.65 8.7 128 12 128h104c6.6 0 12-5.4 12-12V12c0-3.3-1.35-6.3-3.52-8.48z" fill="#1b79fc" id="path4" />
  <path d="M112 101c0 6.63-5.37 12-12 12H27.89c-6.6 0-12-5.4-12-12V28.9c0-6.6 5.4-12 12-12H100c6.63 0 12 5.37 12 12z" fill="#1ba2fc" id="path6" />
  <g aria-label="8" id="text10" style="line-height:1.25;text-align:center;text-anchor:middle;fill:#ffffff;stroke-width:1.102">
    <path d="m 64.88354,99.719004 c 12.70008,0 22.119306,-8.99589 22.119306,-20.849298 0,-7.090878 -3.598356,-13.017582 -9.736728,-17.250942 4.445028,-3.069186 8.149218,-7.620048 8.149218,-14.605092 0,-10.477566 -8.043384,-17.780112 -19.473456,-17.780112 -10.795068,0 -20.10846,7.302546 -20.10846,19.367622 0,6.773376 3.069186,10.795068 7.514214,13.652586 -5.2917,3.386688 -10.477565,8.678388 -10.689233,17.568444 -0.317502,11.430072 9.207557,19.896792 22.225139,19.896792 z m 0.423336,-43.180272 c -6.773376,-2.010846 -9.52506,-4.339194 -9.52506,-8.360886 0,-5.715036 4.550862,-8.678388 10.160064,-8.678388 5.185866,0 9.419226,2.64585 9.419226,6.985044 0,3.598356 -2.010846,6.773376 -10.05423,10.05423 z M 64.88354,89.55894 c -6.773376,0 -12.17091,-3.810024 -12.17091,-9.207558 0,-7.620048 7.090878,-10.477566 13.22925,-13.123416 5.609202,1.905012 11.11257,5.715036 11.11257,11.853408 0,7.196712 -6.561708,10.477566 -12.17091,10.477566 z" id="path18" />
  </g>
</svg>