<?xml version="1.0" encoding="UTF-8"?>
<svg clip-rule="evenodd" fill-rule="evenodd" stroke-linejoin="round" stroke-miterlimit="2" version="1.1" viewBox="0 0 128 128" xml:space="preserve" xmlns="http://www.w3.org/2000/svg"><g transform="matrix(.24334 0 0 .24334 -1.1977 -4.4826)"><path d="m522.79 359-34.459-6.208c0.417-7.667 0.375-15.417 0-23.167l35-5.208c4.343-0.637 7.595-4.401 7.595-8.79 0-0.433-0.032-0.865-0.095-1.294-0.708-4.833-5.25-8.166-10.083-7.5l-34.083 5.084c-3.75-24.917-13.334-49.75-27.834-72.125 4.375-41.75 12.75-154.92-21.208-177.71-27.083-18.166-91.5 49.25-112.25 73.459-4.792 5.583-9.167 10.625-13.167 15.208-14.5-2.208-29.25-3.417-43.958-3.417-14.708-0.041-29.417 1.209-43.917 3.417-4-4.583-8.375-9.625-13.166-15.208-20.75-24.209-85.167-91.625-112.21-73.459-33.958 22.792-25.541 135.96-21.208 177.71-14.458 22.333-24.125 47.208-27.833 72.125l-34.084-5.084c-4.833-0.666-9.375 2.625-10.125 7.5-0.75 4.834 2.625 9.375 7.459 10.084l35 5.208c-0.375 7.75-0.417 15.5 0 23.167l-34.417 6.208c-4.852 0.028-8.828 4.027-8.828 8.879 0 4.871 4.008 8.879 8.879 8.879 0.514 0 1.026-0.044 1.532-0.133 0.5 0 1.042-0.042 1.584-0.125l33.083-5.958c1.375 8.75 3.375 17.375 6.25 25.75l-27 8.541c-4.635 1.496-7.239 6.517-5.792 11.167 1.477 4.65 6.516 7.263 11.167 5.792l28.542-9.042c8.25 16.208 20.333 31.125 37.416 43.875 25.209 18.792 56.542 31.542 88.875 38.458 12.25 2.625 44 8.75 77.292 8.75s68.125-6.125 80.417-8.75c32.291-6.916 63.666-19.666 88.875-38.458 17.083-12.75 29.166-27.667 37.416-43.875l28.5 9.042c4.652 1.471 9.69-1.142 11.167-5.792 1.5-4.667-1.083-9.667-5.75-11.167l-27-8.583c2.875-8.333 4.917-16.958 6.25-25.75l33.125 5.958c4.794 0.834 9.434-2.385 10.333-7.166 0.732-4.805-2.516-9.389-7.291-10.292z" fill="#ffcc80" fill-rule="nonzero"/><path d="m295.62 429.96c0.875 1.917-0.708 5-1.167 6.75-0.583 2.209-1.125 4.375-1.791 6.5-3.167 10.5-8.584 20.334-20.209 22.625-10.75 2.125-21.083-5.208-25.125-14.916-1.5-3.542-2.666-7.209-3.916-10.834-0.667-2-1.334-4-1.959-5.958-0.458-1.417-1.666-3.667-1.5-5.125 5.917-0.375 12.792-3.042 17.875-6.042 1.667-1 3.542-1.541 5.084-2.75 1.375-1.083 2.25-2.625 4-3.166 1.75 1.875 4.708 2.916 6.875 4.375 2.625 1.75 5.291 3.291 8.125 4.625 2.625 1.25 5.75 1.25 8.458 1.958 1.417 0.375 3.792 0.167 4.833 1.375 0.209 0.167 0.334 0.333 0.417 0.583z" fill="#ed6c30" fill-rule="nonzero"/><g fill="#2f2f2f" fill-rule="nonzero"><path d="m195.5 337.79c0 19.125-13.792 34.583-30.75 34.583s-30.75-15.5-30.75-34.583c0-19.167 13.792-34.625 30.75-34.625 16.958-0.042 30.75 15.458 30.75 34.625zm143.08 0c0 19.125 13.75 34.583 30.75 34.583 16.959 0 30.75-15.5 30.75-34.583 0-19.167-13.791-34.625-30.75-34.625-16.958-0.042-30.75 15.458-30.75 34.625zm-69.916 84.416c-3.209 0-5.792-2.583-5.792-5.791v-33.959c0-3.208 2.583-5.791 5.792-5.791 3.208 0 5.791 2.583 5.791 5.791v33.959c0 3.208-2.583 5.791-5.791 5.791z"/><path d="m239.54 435.83c-1.792 0-3.709-0.083-5.667-0.25-23.583-2.083-33.958-20.375-36.167-29.791-0.877-3.806 1.529-7.66 5.334-8.542 0.537-0.128 1.088-0.193 1.641-0.193 3.284 0 6.159 2.285 6.9 5.485 0.209 0.875 4.625 17.166 23.542 18.875 19.792 1.791 27.458-8.584 27.792-9.042 2.291-3.167 6.666-3.958 9.875-1.75 3.208 2.208 4.041 6.542 1.875 9.792-0.459 0.666-10.709 15.416-35.125 15.416z"/><path d="m298 435.83c-24.417 0-34.667-14.75-35.125-15.416-2.208-3.25-1.333-7.709 1.917-9.917 3.291-2.208 7.708-1.333 9.916 1.917 0.25 0.333 8.042 10.708 27.709 8.958 19.291-1.708 23.5-18.667 23.541-18.833 0.917-3.834 4.75-6.209 8.542-5.334 3.833 0.917 6.208 4.709 5.333 8.542-2.208 9.375-12.625 27.708-36.166 29.792-2 0.208-3.875 0.291-5.667 0.291z"/><path d="m246.75 382.21c0.333 4.375 3.292 8.959 7.875 11.75 3.667 2.292 8.875 3.417 14 3.417 5.083 0 10.292-1.125 13.958-3.417 4.584-2.833 7.542-7.375 7.875-11.75 0.334-4.166-0.625-8.416-5.166-11.333-2.5-1.625-5.625-2.708-8.834-3.292-1.208-0.208-4.375-0.75-7.708-0.75-3.292 0-6.75 0.5-8 0.75-3.208 0.584-6.333 1.667-8.833 3.292-4.5 2.958-5.5 7.167-5.167 11.333z"/><path d="m268.46 403.58c-6.416 0-12.666-1.583-17.125-4.333-6.125-3.792-10.291-10.125-10.791-16.542-0.709-9.333 4-14.375 8-17 3.083-1.958 6.916-3.416 11.083-4.166 1.667-0.334 5.458-0.834 9.083-0.834 3.917 0 7.5 0.584 8.834 0.834 4.166 0.75 8 2.208 11.041 4.166 4.042 2.625 8.75 7.709 8 17.042-0.5 6.375-4.625 12.708-10.791 16.542-4.459 2.75-10.709 4.333-17.125 4.333h-0.209zm0.292-30.541c-2.833 0-5.875 0.458-6.833 0.625-2.584 0.5-4.959 1.333-6.625 2.416-1.625 1.042-2.584 2.375-2.334 5.625 0.209 2.5 2.125 5.209 4.959 6.959 2.541 1.583 6.5 2.5 10.625 2.5v6.208l0.083-6.208c4.292 0 8.25-0.959 10.75-2.5 2.792-1.709 4.792-4.5 4.958-6.959 0.292-3.25-0.708-4.583-2.333-5.625-1.667-1.083-4.042-1.916-6.583-2.416-0.709-0.084-3.667-0.625-6.667-0.625z"/></g><path d="m268.67 473.58c-11.792 0-23.125-7.708-28.167-19.833-2.333-5.625-7.042-20.375-7.25-21-1.25-3.875 0.917-8.042 4.792-9.292s8.041 0.917 9.291 4.792c1.625 5.083 5.125 15.792 6.792 19.792 2.583 6.208 9.417 12 16.875 10.541 6.833-1.333 11.333-6.75 14.583-17.5 0.417-1.458 1.292-4.75 2.125-7.833 0.625-2.417 1.25-4.75 1.584-5.958 1.125-3.917 5.125-6.209 9.125-5.084 3.916 1.125 6.208 5.209 5.083 9.125-0.333 1.167-0.917 3.375-1.542 5.709-0.833 3.208-1.75 6.666-2.25 8.291-1.833 6-7.333 24.084-25.875 27.75-1.666 0.334-3.416 0.5-5.166 0.5z" fill="#2f2f2f" fill-rule="nonzero"/><path d="m92.627 208.6c0.231 1.589 1.356 2.904 2.89 3.379 1.534 0.474 3.204 0.025 4.293-1.156 12.184-11.971 43.158-38.525 92.702-55.991 1.256-0.443 2.223-1.462 2.6-2.738 0.378-1.277 0.121-2.658-0.692-3.713-126.4-164.26-107.54 17.762-101.79 60.219zm348.08 0c-0.231 1.589-1.355 2.904-2.89 3.379-1.534 0.474-3.204 0.025-4.293-1.156-12.184-11.971-43.158-38.525-92.702-55.991-1.255-0.443-2.222-1.462-2.6-2.738-0.378-1.277-0.12-2.658 0.692-3.713 126.4-164.26 107.54 17.762 101.79 60.219z" fill="#f9c3d5"/></g></svg>
