<?xml version="1.0" encoding="UTF-8"?>
<svg width="128" height="128" version="1.1" viewBox="0 0 128 128" xmlns="http://www.w3.org/2000/svg">
 <g transform="scale(1.1806) rotate(-30 42.685 77.834)" stroke-width=".847">
  <path d="m100.49 56.189c-8.588 14.876-17.071 10.314-21.34 20.624-4.268 10.31 2.806 14.395-2.58 23.724-5.386 9.328-6.779 14.659-15.784 14.503-9.005-0.157-14.658-4.85-21.27-8.667-6.613-3.818-13.504-6.368-18.142-14.088s-0.718-11.592 4.668-20.921 12.46-5.245 19.255-14.096c6.794-8.852-1.397-13.917 7.191-28.793 8.589-14.876 21.917-3.147 30.843 2.007 8.926 5.153 25.748 10.831 17.16 25.707z" fill="#155fe3"/>
  <g transform="scale(1.371) rotate(30 14.036 -43.547)" stroke-linecap="round" stroke-linejoin="round" stroke-opacity=".794" stroke-width="1.854">
   <path d="m92.852-9.191c0 0.785-2.437 1.42-5.442 1.42s-5.441-0.635-5.441-1.42v-8.365c0-0.785 2.436-1.422 5.441-1.422s5.442 0.637 5.442 1.422z" fill="#fddd42" paint-order="stroke fill markers"/>
   <path d="m92.851-17.556a5.441 1.421 0 0 1-5.441 1.421 5.441 1.421 0 0 1-5.441-1.421 5.441 1.421 0 0 1 5.441-1.421 5.441 1.421 0 0 1 5.441 1.421z" fill="#d0cd50" style="paint-order:stroke fill markers"/>
  </g>
  <path transform="rotate(30)" d="m76.4 12.24h22.02c2.5434 0 4.591 2.0476 4.591 4.591v20.116c0 2.5434-2.0476 4.591-4.591 4.591h-22.02c-2.5434 0-4.591-2.0476-4.591-4.591v-20.116c0-2.5434 2.0476-4.591 4.591-4.591z" fill="#fff" stroke-linecap="round" stroke-linejoin="round" stroke-opacity=".794" stroke-width="2.541" style="paint-order:stroke fill markers"/>
  <g transform="rotate(34.59)" fill="#ffca31" stroke-width=".718" aria-label="super">
   <path d="m80.935 47.31c1.0918 0 1.7766-0.77415 1.7766-1.5185 0-0.7543-0.397-1.0918-1.4689-1.4292-0.7146-0.22828-1.0024-0.37715-1.0024-0.69475 0-0.26798 0.2382-0.4764 0.8734-0.4764 0.50618 0 0.70468 0.16872 0.70468 0.397 0 0.0794-0.04962 0.14888-0.04962 0.2382 0 0.18858 0.17865 0.40692 0.46648 0.40692 0.3176 0 0.49625-0.22828 0.49625-0.6352 0-0.74438-0.58558-1.2406-1.6376-1.2406-1.1513 0-1.7666 0.58558-1.7666 1.33s0.45655 1.1612 1.5284 1.4888c0.74438 0.22828 0.92302 0.36722 0.92302 0.66498 0 0.28782-0.2779 0.61535-0.82378 0.61535-0.49625 0-0.8337-0.25805-0.97265-0.66498-0.05955-0.18858-0.21835-0.32752-0.44662-0.32752-0.25805 0-0.46648 0.20842-0.46648 0.46648 0 0.3573 0.60542 1.3796 1.8659 1.3796z"/>
   <path d="m85.084 47.339c0.5955 0 1.0719-0.33745 1.4094-0.57565v0.10918c0 0.26798 0.24812 0.4367 0.50618 0.4367 0.25805 0 0.4764-0.22828 0.4764-0.4764v-4.0296c0-0.26798-0.22828-0.45655-0.4764-0.45655-0.22828 0-0.46648 0.18858-0.46648 0.45655l-0.01985 2.8286c0 0.1191-0.01985 0.20842-0.05955 0.24812-0.16872 0.18858-0.73445 0.56572-1.2704 0.56572-0.3573 0-0.65505-0.26798-0.65505-1.7369 0-1.0024 0.1191-1.727 0.1191-1.8957 0-0.3176-0.22828-0.46648-0.4764-0.46648-0.28782 0-0.41685 0.18858-0.46648 0.50618-0.06947 0.44662-0.10918 1.1414-0.10918 1.6376 0 2.3522 0.48632 2.8485 1.4888 2.8485z"/>
   <path d="m89.342 49.066c0.24812 0 0.4764-0.22828 0.4764-0.4764v-1.6178c0.30768 0.17865 0.5955 0.26798 0.94288 0.26798 1.7666 0 2.2034-1.5185 2.2034-2.64 0-1.5086-0.89325-2.253-1.6674-2.253-0.64512 0-1.1414 0.17865-1.4888 0.57565v-0.10918c0-0.29775-0.25805-0.46648-0.45655-0.46648-0.2779 0-0.48632 0.20842-0.48632 0.48632v5.7565c0 0.24812 0.21835 0.4764 0.4764 0.4764zm1.4788-2.7393c-0.37715 0-0.77415-0.14888-1.0024-0.2382v-2.2034c0.17865-0.22828 0.62528-0.64512 1.3994-0.64512 0.45655 0 0.84362 0.4764 0.84362 1.3597 0 1.1811-0.49625 1.727-1.2406 1.727z"/>
   <path d="m96.18 47.31c0.61535 0 1.3002-0.32752 1.6575-0.73445 0.0794-0.08933 0.1191-0.17865 0.1191-0.29775 0-0.25805-0.1985-0.44662-0.46648-0.44662-0.12902 0-0.2382 0.06947-0.32752 0.1588-0.21835 0.22828-0.54588 0.42678-0.98258 0.42678-0.56572 0-1.0918-0.22828-1.2803-0.64512l2.6599-1.5284c0.20842-0.1191 0.30768-0.29775 0.30768-0.45655 0-0.46648-0.5955-1.4292-1.9056-1.4292-1.3597 0-2.243 1.2208-2.243 2.4614 0 1.5582 1.062 2.4912 2.4614 2.4912zm-1.5582-2.3622c0-0.13895 0-0.20842 0.01985-0.3573 0.0794-0.73445 0.61535-1.3399 1.3895-1.3399 0.38708 0 0.69475 0.13895 0.85355 0.41685z"/>
   <path d="m99.396 47.31c0.2382 0 0.4764-0.21835 0.4764-0.45655l0.0099-1.8858c0-0.40692 0.0397-0.7543 0.33745-1.1314 0.16873-0.22828 0.52603-0.5558 0.794-0.5558 0.16873 0 0.21835 0.05955 0.21835 0.1588v0.12902c0 0.22828 0.1191 0.4764 0.46648 0.4764 0.26797 0 0.46647-0.20842 0.46647-0.46648v-0.29775c0-0.42678-0.20842-0.94288-0.9528-0.94288-0.58557 0-1.0223 0.28782-1.3299 0.794v-0.29775c0-0.26798-0.21835-0.4764-0.48632-0.4764-0.25805 0-0.48632 0.20842-0.48632 0.4764v4.0196c0 0.2382 0.2382 0.45655 0.48632 0.45655z"/>
  </g>
  <g transform="rotate(34.59)" fill="#ffca31" stroke-width=".718" aria-label="soft">
   <path d="m80.047 56.295c1.0918 0 1.7766-0.77415 1.7766-1.5185 0-0.7543-0.397-1.0918-1.4689-1.4292-0.7146-0.22828-1.0024-0.37715-1.0024-0.69475 0-0.26798 0.2382-0.4764 0.8734-0.4764 0.50618 0 0.70468 0.16872 0.70468 0.397 0 0.0794-0.04963 0.14888-0.04963 0.2382 0 0.18858 0.17865 0.40692 0.46648 0.40692 0.3176 0 0.49625-0.22828 0.49625-0.6352 0-0.74438-0.58558-1.2406-1.6376-1.2406-1.1513 0-1.7666 0.58558-1.7666 1.33s0.45655 1.1612 1.5284 1.4888c0.74438 0.22828 0.92302 0.36722 0.92302 0.66498 0 0.28782-0.2779 0.61535-0.82378 0.61535-0.49625 0-0.8337-0.25805-0.97265-0.66498-0.05955-0.18858-0.21835-0.32752-0.44662-0.32752-0.25805 0-0.46648 0.20842-0.46648 0.46648 0 0.3573 0.60542 1.3796 1.8659 1.3796z"/>
   <path d="m84.563 56.295c1.2605 0 2.3324-1.2108 2.3324-2.6599 0-1.2208-0.89325-2.2927-2.0545-2.2927-1.2605 0-2.3224 1.2208-2.3224 2.65 0 1.2704 0.88332 2.3026 2.0446 2.3026zm0-0.89325c-0.53595 0-1.0719-0.49625-1.0719-1.4193s0.60542-1.7468 1.3101-1.7468c0.62528 0 1.1215 0.68482 1.1215 1.449 0 0.9131-0.64512 1.717-1.3597 1.717z"/>
   <path d="m88.572 56.295c0.24812 0 0.4764-0.21835 0.4764-0.45655v-3.5928h1.0223c0.24812 0 0.44662-0.21835 0.44662-0.45655 0-0.24812-0.24812-0.45655-0.44662-0.45655l-1.0124-0.0099c0.05955-0.68482 0.3573-0.78408 1.1811-0.78408 0.29775 0 0.46648-0.21835 0.46648-0.46648 0-0.36722-0.24812-0.45655-0.57565-0.45655-1.3597 0-1.9652 0.42678-2.0247 1.7071h-0.4764c-0.22828 0-0.44662 0.21835-0.44662 0.46648 0 0.2382 0.21835 0.45655 0.45655 0.45655h0.45655v3.5928c0 0.2382 0.22828 0.45655 0.4764 0.45655z"/>
   <path d="m91.967 56.304c0.25805 0 0.4764-0.20842 0.4764-0.46648v-3.5432h0.84362c0.26798 0 0.4764-0.22828 0.4764-0.4764 0-0.2779-0.20842-0.48632-0.4764-0.48632h-0.84362v-1.062c0-0.24812-0.18858-0.48632-0.4764-0.48632-0.26798 0-0.4764 0.2382-0.4764 0.48632v1.062h-0.76422c-0.25805 0-0.49625 0.18858-0.49625 0.48632 0 0.24812 0.20842 0.4764 0.4764 0.4764h0.78408v3.5432c0 0.25805 0.22828 0.46648 0.4764 0.46648z"/>
  </g>
  <g stroke-width="3.776">
   <path d="m67.769 57.443c-10.288-5.94-17.19 5.452-18.508 7.734-1.318 2.284 2.33 6.854 8.146 10.213 5.818 3.358 11.597 4.231 12.916 1.947 1.318-2.282 7.733-13.955-2.554-19.894z" fill="#fcc21b"/>
   <path d="M67.256 74.324c-1.818-.33-3.038-2.05-2.73-3.851.313-1.799 2.034-2.997 3.852-2.672 1.812.327 3.034 2.053 2.727 3.854-.312 1.802-2.038 2.997-3.85 2.669z" fill="#fcc21b"/>
   <path d="M67.277 74.191c-1.744-.316-2.915-1.966-2.617-3.694.298-1.726 1.95-2.876 3.695-2.562 1.74.313 2.912 1.969 2.617 3.696-.3 1.727-1.955 2.876-3.695 2.56z" fill="#fcc01c"/>
   <path d="M67.301 74.058c-1.668-.302-2.79-1.883-2.505-3.538.285-1.653 1.867-2.752 3.538-2.453 1.665.301 2.788 1.887 2.504 3.54a3.03 3.03 0 0 1-3.537 2.451z" fill="#fcbe1c"/>
   <path d="M67.323 73.926c-1.595-.29-2.667-1.799-2.394-3.381a2.895 2.895 0 0 1 3.38-2.345c1.592.288 2.664 1.802 2.395 3.384-.275 1.58-1.79 2.629-3.381 2.342z" fill="#fbbb1d"/>
   <path d="M67.347 73.793c-1.522-.275-2.544-1.717-2.284-3.223a2.76 2.76 0 0 1 3.224-2.236c1.518.274 2.541 1.718 2.283 3.228a2.761 2.761 0 0 1-3.223 2.23z" fill="#fbb91e"/>
   <path d="M67.369 73.66c-1.448-.263-2.42-1.631-2.173-3.066a2.628 2.628 0 0 1 3.068-2.128c1.444.261 2.417 1.635 2.173 3.069a2.629 2.629 0 0 1-3.068 2.125z" fill="#fbb71e"/>
   <path d="M67.393 73.527c-1.373-.248-2.296-1.549-2.061-2.91a2.492 2.492 0 0 1 2.91-2.019c1.37.247 2.293 1.55 2.062 2.913a2.494 2.494 0 0 1-2.911 2.016z" fill="#fbb51f"/>
   <path d="M67.414 73.395c-1.299-.235-2.173-1.465-1.949-2.753a2.36 2.36 0 0 1 2.753-1.91 2.403 2.403 0 0 1 1.95 2.755 2.358 2.358 0 0 1-2.754 1.908z" fill="#fab220"/>
   <path d="M67.437 73.261c-1.225-.222-2.048-1.382-1.84-2.596a2.223 2.223 0 0 1 2.597-1.8c1.222.22 2.047 1.383 1.838 2.599a2.22 2.22 0 0 1-2.595 1.797z" fill="#fab020"/>
   <path d="M67.46 73.13c-1.152-.21-1.925-1.298-1.729-2.44a2.088 2.088 0 0 1 2.44-1.692A2.13 2.13 0 0 1 69.9 71.44a2.09 2.09 0 0 1-2.439 1.69z" fill="#faae21"/>
   <path d="M67.483 72.996c-1.077-.194-1.802-1.216-1.618-2.284a1.957 1.957 0 0 1 2.284-1.584 1.993 1.993 0 0 1 1.617 2.285 1.952 1.952 0 0 1-2.283 1.583z" fill="#faac22"/>
   <path d="M67.506 72.864A1.852 1.852 0 0 1 66 70.738a1.822 1.822 0 0 1 2.126-1.476 1.854 1.854 0 0 1 1.506 2.129 1.82 1.82 0 0 1-2.126 1.473z" fill="#f9a922"/>
   <path d="m67.528 72.73a1.715 1.715 0 0 1-1.394-1.97 1.688 1.688 0 0 1 1.97-1.366 1.717 1.717 0 0 1 1.394 1.97 1.686 1.686 0 0 1-1.97 1.366z" fill="#f9a723"/>
   <path d="m67.553 72.597a1.579 1.579 0 0 1-1.284-1.812 1.553 1.553 0 0 1 1.812-1.257 1.584 1.584 0 0 1 1.284 1.814 1.552 1.552 0 0 1-1.812 1.255z" fill="#f9a524"/>
   <path d="M67.574 72.465a1.442 1.442 0 0 1-1.172-1.656 1.417 1.417 0 0 1 1.655-1.148c.779.14 1.304.882 1.173 1.658a1.415 1.415 0 0 1-1.656 1.146z" fill="#f9a324"/>
   <path d="M67.598 72.332a1.303 1.303 0 0 1-1.06-1.5c.12-.7.791-1.166 1.499-1.038a1.308 1.308 0 0 1 1.061 1.502 1.285 1.285 0 0 1-1.5 1.036z" fill="#f8a025"/>
   <path d="M67.62 72.2a1.168 1.168 0 0 1-.95-1.343 1.15 1.15 0 0 1 1.343-.932c.632.115 1.057.716.952 1.344a1.15 1.15 0 0 1-1.345.93z" fill="#f89e26"/>
   <path d="M67.644 72.066c-.558-.1-.935-.63-.84-1.185a1.017 1.017 0 0 1 1.185-.823c.559.101.935.632.84 1.187a1.014 1.014 0 0 1-1.185.821z" fill="#f89c26"/>
   <path d="M67.666 71.934a.896.896 0 0 1-.73-1.029.881.881 0 0 1 1.03-.714c.484.087.81.55.727 1.03a.879.879 0 0 1-1.027.713z" fill="#f89a27"/>
   <path d="M67.69 71.8a.76.76 0 0 1-.618-.871.747.747 0 0 1 .872-.605.76.76 0 0 1 .616.874.744.744 0 0 1-.87.603z" fill="#f79728"/>
   <path d="M67.711 71.669a.623.623 0 0 1-.506-.716.612.612 0 0 1 .714-.496c.338.061.564.38.507.716a.61.61 0 0 1-.715.496z" fill="#f79528"/>
   <path d="M67.735 71.535a.488.488 0 0 1-.395-.557.477.477 0 0 1 .559-.386c.262.046.44.298.394.559a.477.477 0 0 1-.558.384z" fill="#f79329"/>
   <path d="M55.243 67.243c-1.817-.33-3.038-2.05-2.728-3.852.31-1.8 2.033-2.997 3.851-2.672 1.812.327 3.034 2.053 2.727 3.854-.312 1.802-2.037 2.997-3.85 2.67z" fill="#fcc21b"/>
   <path d="M55.266 67.11c-1.744-.316-2.916-1.967-2.617-3.697.299-1.725 1.95-2.874 3.695-2.562 1.739.315 2.912 1.969 2.616 3.698a3.162 3.162 0 0 1-3.694 2.56z" fill="#fcc01c"/>
   <path d="M55.289 66.978c-1.668-.303-2.79-1.883-2.506-3.538.285-1.652 1.868-2.752 3.538-2.453 1.665.301 2.788 1.886 2.504 3.541-.286 1.652-1.871 2.75-3.536 2.45z" fill="#fcbe1c"/>
   <path d="M55.311 66.844c-1.595-.289-2.667-1.799-2.394-3.381.274-1.58 1.784-2.63 3.38-2.344 1.592.287 2.664 1.8 2.396 3.383a2.897 2.897 0 0 1-3.382 2.342z" fill="#fbbb1d"/>
   <path d="M55.335 66.713c-1.522-.276-2.544-1.717-2.283-3.225.26-1.507 1.702-2.508 3.223-2.235 1.518.275 2.541 1.717 2.284 3.227a2.764 2.764 0 0 1-3.224 2.233z" fill="#fbb91e"/>
   <path d="M55.357 66.579c-1.448-.264-2.42-1.632-2.171-3.069a2.63 2.63 0 0 1 3.067-2.128c1.444.262 2.417 1.635 2.172 3.071a2.629 2.629 0 0 1-3.068 2.126z" fill="#fbb71e"/>
   <path d="M55.38 66.447c-1.372-.248-2.295-1.55-2.06-2.91a2.493 2.493 0 0 1 2.91-2.019c1.369.246 2.293 1.55 2.061 2.913a2.495 2.495 0 0 1-2.91 2.016z" fill="#fbb51f"/>
   <path d="M55.403 66.313c-1.3-.235-2.173-1.465-1.95-2.753a2.36 2.36 0 0 1 2.753-1.91c1.296.234 2.17 1.467 1.95 2.755a2.357 2.357 0 0 1-2.753 1.908z" fill="#fab220"/>
   <path d="M55.426 66.182c-1.225-.223-2.048-1.382-1.84-2.598a2.223 2.223 0 0 1 2.598-1.8c1.222.22 2.047 1.383 1.838 2.599a2.226 2.226 0 0 1-2.596 1.799z" fill="#fab020"/>
   <path d="M55.449 66.048c-1.153-.21-1.926-1.298-1.728-2.442a2.09 2.09 0 0 1 2.44-1.691c1.148.207 1.924 1.3 1.728 2.441a2.09 2.09 0 0 1-2.44 1.692z" fill="#faae21"/>
   <path d="M55.472 65.916c-1.076-.195-1.802-1.215-1.618-2.283a1.954 1.954 0 0 1 2.283-1.583 1.993 1.993 0 0 1 1.617 2.285 1.956 1.956 0 0 1-2.282 1.581z" fill="#faac22"/>
   <path d="m55.494 65.782a1.854 1.854 0 0 1-1.506-2.126 1.823 1.823 0 0 1 2.127-1.476 1.854 1.854 0 0 1 1.505 2.129 1.82 1.82 0 0 1-2.126 1.473z" fill="#f9a922"/>
   <path d="m55.517 65.648a1.715 1.715 0 0 1-1.395-1.97 1.688 1.688 0 0 1 1.97-1.366 1.717 1.717 0 0 1 1.394 1.97 1.685 1.685 0 0 1-1.97 1.366z" fill="#f9a723"/>
   <path d="m55.54 65.517a1.58 1.58 0 0 1-1.283-1.814 1.553 1.553 0 0 1 1.812-1.257 1.584 1.584 0 0 1 1.285 1.814 1.554 1.554 0 0 1-1.814 1.257z" fill="#f9a524"/>
   <path d="M55.563 65.383a1.442 1.442 0 0 1-1.173-1.656 1.417 1.417 0 0 1 1.655-1.148c.779.14 1.306.88 1.173 1.658a1.415 1.415 0 0 1-1.655 1.146z" fill="#f9a324"/>
   <path d="M55.586 65.251a1.307 1.307 0 0 1-1.061-1.499c.12-.7.792-1.166 1.5-1.038a1.309 1.309 0 0 1 1.062 1.5 1.288 1.288 0 0 1-1.501 1.037z" fill="#f8a025"/>
   <path d="M55.608 65.117a1.17 1.17 0 0 1-.95-1.343 1.148 1.148 0 0 1 1.341-.93c.632.115 1.058.714.951 1.344a1.147 1.147 0 0 1-1.342.93z" fill="#f89e26"/>
   <path d="M55.631 64.986a1.035 1.035 0 0 1-.84-1.187 1.015 1.015 0 0 1 1.186-.82c.558.1.934.63.84 1.186a1.015 1.015 0 0 1-1.186.821z" fill="#f89c26"/>
   <path d="M55.654 64.852a.898.898 0 0 1-.73-1.029.881.881 0 0 1 1.03-.713.896.896 0 0 1 .729 1.028.88.88 0 0 1-1.029.714z" fill="#f89a27"/>
   <path d="M55.677 64.72a.76.76 0 0 1-.617-.872.747.747 0 0 1 .871-.604.76.76 0 0 1 .618.872.747.747 0 0 1-.872.605z" fill="#f79728"/>
   <path d="M55.7 64.587a.623.623 0 0 1-.506-.716.612.612 0 0 1 .714-.496c.337.061.564.38.506.716a.61.61 0 0 1-.714.496z" fill="#f79528"/>
   <path d="M55.723 64.455a.488.488 0 0 1-.395-.559.477.477 0 0 1 .559-.386.487.487 0 0 1 .396.557.48.48 0 0 1-.56.388z" fill="#f79329"/>
   <path d="M57.302 62.712a.518.518 0 0 1-.508-.903c.06-.034 1.481-.817 3.089.111 1.61.93 1.642 2.552 1.644 2.621a.52.52 0 0 1-1.038.013c0-.049-.043-1.113-1.124-1.737-1.08-.626-2.02-.126-2.063-.105zM69.067 69.711a.504.504 0 0 1-.261-.068.524.524 0 0 1-.261-.444c0-.044-.038-1.106-1.12-1.731-1.101-.636-2.055-.113-2.064-.108a.518.518 0 0 1-.509-.901c.06-.034 1.481-.817 3.09.112 1.608.928 1.64 2.55 1.64 2.618a.519.519 0 0 1-.515.522zM60.325 70.583c-3.255-1.879-3.684-4.404-3.701-4.51a.613.613 0 0 1 1.21-.195c.016.092.391 2.076 3.103 3.641 2.607 1.505 4.503.566 4.582.524a.615.615 0 0 1 .825.261.612.612 0 0 1-.254.825c-.1.057-2.545 1.314-5.765-.546z" fill="#2f2f2f"/>
   <path d="m67.769 57.443c-10.254-5.92-17.134 5.435-18.448 7.711s2.321 6.833 8.119 10.18c5.799 3.348 11.562 4.216 12.875 1.941 1.314-2.276 7.71-13.911-2.546-19.832z" fill="none" stroke-width="3.199"/>
   <g fill="#e48c15">
    <path d="M51.034 73.158c.646.664 1.735.841 2.18.117l1.511-2.368c.026-.038 1.7-2.535 1.157-4.699l-.007-.032c-.304-1.66-.264-2.687.113-4.32.123-.54.038-1.164-.576-1.426-.435-.186-.926-.24-1.649 1.073-.84 1.529-1.408 3.206-1.41 4.61-.005 1.96-1.196 3.515-1.726 4.646-.335.709-.289 1.727.407 2.399zM62.527 79.793c-.898-.227-1.596-1.082-1.191-1.829l1.295-2.493c.02-.041 1.345-2.74 3.49-3.351l.032-.01c1.589-.566 2.459-1.115 3.684-2.257.407-.378.99-.616 1.524-.215.378.284.67.683-.105 1.964-.904 1.493-2.073 2.823-3.287 3.526-1.696.985-2.446 2.794-3.16 3.819-.447.644-1.352 1.113-2.282.846z"/>
   </g>
  </g>
 </g>
</svg>
