<?xml version='1.0' encoding='utf-8'?>
<svg xmlns="http://www.w3.org/2000/svg" width="128" height="128" version="1.1" id="svg12" viewBox="0 0 128 128">
  <defs id="defs16" />
  <path d="M116 128H12c-6.6 0-12-5.4-12-12V12C0 5.4 5.4 0 12 0h104c6.6 0 12 5.4 12 12v104c0 6.6-5.4 12-12 12z" fill="#1bb7fc" id="path2" />
  <path d="M124.48 3.52L3.52 124.48C5.7 126.65 8.7 128 12 128h104c6.6 0 12-5.4 12-12V12c0-3.3-1.35-6.3-3.52-8.48z" fill="#1b79fc" id="path4" />
  <path d="M112 101c0 6.63-5.37 12-12 12H27.89c-6.6 0-12-5.4-12-12V28.9c0-6.6 5.4-12 12-12H100c6.63 0 12 5.37 12 12z" fill="#1ba2fc" id="path6" />
  <g aria-label="9" id="text10" style="line-height:1.25;text-align:center;text-anchor:middle;fill:#ffffff;stroke-width:1.102">
    <path d="m 57.845495,99.719004 c 0.952506,0 1.799178,-0.317502 2.751684,-0.740838 14.710926,-7.514214 26.98767,-21.590136 26.98767,-43.39194 0,-16.721772 -8.572554,-26.4585 -22.648476,-26.4585 -12.911748,0 -22.436807,9.948396 -22.436807,25.92933 0,14.393424 9.313391,21.907638 20.743463,21.907638 3.598356,0 6.773376,-0.635004 9.419226,-1.58751 -3.810024,6.35004 -9.948396,11.535906 -16.93344,14.922594 -1.693344,0.740838 -2.857518,2.434182 -2.857518,4.550862 0,2.751684 2.11668,4.868364 4.974198,4.868364 z m 5.397534,-32.702706 c -6.455874,0 -10.900902,-4.021692 -10.900902,-11.959242 0,-10.5834 5.82087,-15.980934 12.17091,-15.980934 8.572554,0 13.22925,5.503368 13.22925,16.510104 0,2.010846 0,3.810024 -0.317502,5.82087 -2.010846,2.010846 -6.985044,5.609202 -14.181756,5.609202 z" id="path18" />
  </g>
</svg>