<?xml version='1.0' encoding='utf-8'?>
<svg xmlns="http://www.w3.org/2000/svg" width="128" height="128" version="1.1" xml:space="preserve" style="fill-rule:evenodd;clip-rule:evenodd;stroke-linecap:round;stroke-linejoin:round;stroke-miterlimit:1.5;" viewBox="0 0 128 128"><g transform="matrix(1.11422,0,0,1.03608,-9.1815,1.6007)"><ellipse cx="66.174" cy="81.509" rx="52.166" ry="28.498" style="fill:#855c52;stroke:#855c52;stroke-width:0.93;" /></g><g transform="matrix(0.675926,0,0,0.576271,19.2716,31.3983)"><ellipse cx="66.174" cy="81.509" rx="52.166" ry="28.498" style="fill:#3e2723;" /></g><path d="M11.511,68.342L5.072,86.272" style="fill:none;stroke:#6d4a41;stroke-width:5;" /><path d="M5.072,76.009L17.694,89.116" style="fill:none;stroke:#6d4a41;stroke-width:3;" /><path d="M5.072,76.009L17.694,89.116" style="fill:none;stroke:#f79329;stroke-opacity:0.33;stroke-width:3;" /><path d="M5.072,95.917L21.156,83.923L19.178,97.401L17.694,108.53" style="fill:none;stroke:#855c52;stroke-width:4;" /><path d="M11.383,101.11L28.74,99.997" style="fill:none;stroke:#6d4a41;stroke-width:2;" /><path d="M26.721,113.723L35.871,100.554" style="fill:none;stroke:#6d4a41;stroke-width:4;" /><path d="M42.054,117.494L26.721,99.997" style="fill:none;stroke:#5d4037;stroke-width:3;" /><path d="M34.387,115.454L53.553,103.336" style="fill:none;stroke:#6d4a41;stroke-width:4;" /><path d="M57.387,120.647L39.828,101.11" style="fill:none;stroke:#6d4a41;stroke-width:5;" /><path d="M33.151,93.073L43.97,89.363" style="fill:none;stroke:#6d4a41;stroke-width:4;" /><path d="M33.151,93.073L43.97,89.363" style="fill:none;stroke:#f79329;stroke-opacity:0.33;stroke-width:4;" /><path d="M30.059,91.218L34.387,82.439" style="fill:none;stroke:#5d4037;stroke-width:2;" /><path d="M26.721,82.439L38.56,84.294" style="fill:none;stroke:#6d4a41;stroke-width:2;" /><path d="M25.113,72.794L34.387,77.369" style="fill:none;stroke:#855c52;stroke-width:5;" /><path d="M32.223,65.622L34.387,73.783" style="fill:none;stroke:#6d4a41;stroke-width:4;" /><path d="M38.56,64L41.559,69.703" style="fill:none;stroke:#6d4a41;stroke-width:3;" /><path d="M49.349,65.622L36.474,69.703" style="fill:none;stroke:#6d4a41;stroke-width:5;" /><path d="M45.639,62.407L60.972,64" style="fill:none;stroke:#5d4037;stroke-width:4;" /><path d="M45.639,62.407L60.972,64" style="fill:none;stroke:#f79329;stroke-opacity:0.33;stroke-width:4;" /><path d="M17.941,62.407L23.011,67.662" style="fill:none;stroke:#6d4a41;stroke-width:4;" /><path d="M16.581,69.703L25.484,60.305" style="fill:none;stroke:#855c52;stroke-width:5;" /><path d="M36.474,64L29.936,58.566" style="fill:none;stroke:#6d4a41;stroke-width:3;" /><path d="M26.844,65.622L38.56,58.566" style="fill:none;stroke:#6d4a41;stroke-width:5;" /><path d="M39.921,65.004L49.349,56.224" style="fill:none;stroke:#6d4a41;stroke-width:4;" /><path d="M50.709,62.407L41.93,56.224" style="fill:none;stroke:#6d4a41;stroke-width:3;" /><path d="M50.709,62.407L41.93,56.224" style="fill:none;stroke:#f79329;stroke-opacity:0.33;stroke-width:3;" /><path d="M21.033,60.305L33.205,56.224" style="fill:none;stroke:#6d4a41;stroke-width:3;" /><path d="M49.349,118.422L68.763,115.578" style="fill:none;stroke:#855c52;stroke-width:5;" /><path d="M68.763,119.906L84.466,109.148" style="fill:none;stroke:#5d4037;stroke-width:4;" /><path d="M84.466,118.422L64,110.384" style="fill:none;stroke:#6d4a41;stroke-width:5;" /><path d="M84.466,118.422L64,110.384" style="fill:none;stroke:#f79329;stroke-opacity:0.33;stroke-width:5;" /><path d="M76.615,119.906L94.359,107.911" style="fill:none;stroke:#6d4a41;stroke-width:5;" /><path d="M70.988,114.527L102.272,111.374" style="fill:none;stroke:#5d4037;stroke-width:5;" /><path d="M91.267,107.911L112.536,104.573" style="fill:none;stroke:#6d4a41;stroke-width:5;" /><path d="M97.574,97.401L112.536,109.148" style="fill:none;stroke:#6d4a41;stroke-width:5;" /><path d="M97.574,97.401L112.536,109.148" style="fill:none;stroke:#f79329;stroke-opacity:0.33;stroke-width:5;" /><path d="M94.359,104.573L94.359,119.906" style="fill:none;stroke:#855c52;stroke-width:4;" /><path d="M98.563,95.175L125.767,94.804" style="fill:none;stroke:#6d4a41;stroke-width:5;" /><path d="M119.831,101.11L112.165,82.81" style="fill:none;stroke:#6d4a41;stroke-width:5;" /><path d="M106.229,92.578L124.283,77.616" style="fill:none;stroke:#6d4a41;stroke-width:5;" /><path d="M112.165,77.616L118.471,66.611" style="fill:none;stroke:#6d4a41;stroke-width:5;" /><path d="M112.165,77.616L118.471,66.611" style="fill:none;stroke:#f79329;stroke-opacity:0.33;stroke-width:5;" /><path d="M115.998,88.869L125.767,86.025" style="fill:none;stroke:#5d4037;stroke-width:2;" /><path d="M122.675,94.804L125.767,73.288" style="fill:none;stroke:#855c52;stroke-width:3;" /><path d="M125.145,77.616L109.073,64" style="fill:none;stroke:#6d4a41;stroke-width:5;" /><path d="M102.025,66.611L114.143,64" style="fill:none;stroke:#5d4037;stroke-width:4;" /><path d="M102.025,66.611L114.143,64" style="fill:none;stroke:#f79329;stroke-opacity:0.33;stroke-width:4;" /><path d="M102.025,65.306L104.498,58.945" style="fill:none;stroke:#6d4a41;stroke-width:5;" /><path d="M97.45,64L94.111,58.945" style="fill:none;stroke:#6d4a41;stroke-width:5;" /><path d="M87.31,62.125L90.525,56.966" style="fill:none;stroke:#6d4a41;stroke-width:3;" /><path d="M87.31,62.125L90.525,56.966" style="fill:none;stroke:#f79329;stroke-opacity:0.33;stroke-width:3;" /><path d="M83.725,61.472L76.182,55.853" style="fill:none;stroke:#855c52;stroke-width:4;" /><path d="M68.268,59.546L85.518,56.966" style="fill:none;stroke:#6d4a41;stroke-width:5;" /><path d="M64.682,58.945L58.128,55.853" style="fill:none;stroke:#5d4037;stroke-width:3;" /><path d="M64.682,58.945L58.128,55.853" style="fill:none;stroke:#f79329;stroke-opacity:0.33;stroke-width:3;" /><path d="M51.822,59.546L67.155,53.504" style="fill:none;stroke:#6d4a41;stroke-width:5;" /><path d="M70.123,61.472L79.953,66.611" style="fill:none;stroke:#6d4a41;stroke-width:5;" /><path d="M73.214,66.611L88.918,64" style="fill:none;stroke:#6d4a41;stroke-width:3;" /><path d="M86.816,69.332L100.418,69.703" style="fill:none;stroke:#6d4a41;stroke-width:4;" /><path d="M104.251,78.976L90.402,73.288" style="fill:none;stroke:#5d4037;stroke-width:5;" /><path d="M104.251,78.976L90.402,73.288" style="fill:none;stroke:#f79329;stroke-opacity:0.33;stroke-width:5;" /><path d="M88.918,81.079L103.138,81.079" style="fill:none;stroke:#6d4a41;stroke-width:5;" /><path d="M96.028,74.525L96.028,86.643" style="fill:none;stroke:#6d4a41;stroke-width:3;" /><path d="M83.601,86.643L97.326,85.53" style="fill:none;stroke:#6d4a41;stroke-width:3;" /><path d="M86.816,95.175L90.464,81.944" style="fill:none;stroke:#6d4a41;stroke-width:5;" /><path d="M86.816,95.175L90.464,81.944" style="fill:none;stroke:#f79329;stroke-opacity:0.33;stroke-width:5;" /><path d="M82.241,94.186L73.09,90.476" style="fill:none;stroke:#855c52;stroke-width:3;" /><path d="M69.628,97.153L82.241,88.56" style="fill:none;stroke:#6d4a41;stroke-width:5;" /><path d="M69.628,98.019L61.096,90.476" style="fill:none;stroke:#6d4a41;stroke-width:5;" /><path d="M69.628,98.019L61.096,90.476" style="fill:none;stroke:#f79329;stroke-opacity:0.33;stroke-width:5;" /><path d="M56.15,97.153L67.897,88.56" style="fill:none;stroke:#6d4a41;stroke-width:2;" /><path d="M56.15,96.164L51.575,90.476" style="fill:none;stroke:#6d4a41;stroke-width:2;" /><path d="M56.15,96.164L51.575,90.476" style="fill:none;stroke:#f79329;stroke-opacity:0.33;stroke-width:2;" /><path d="M46.629,94.248L56.15,90.476" style="fill:none;stroke:#6d4a41;stroke-width:2;" /><path d="M17.941,92.857L50.709,100.191" style="fill:none;stroke:#855c52;stroke-width:3;" /><path d="M42.054,105.987L23.168,85.53L8.919,80.628" style="fill:none;stroke:#6d4a41;stroke-width:4;" /><path d="M13.025,88.56L25.486,70.968" style="fill:none;stroke:#6d4a41;stroke-width:3;" /><path d="M29.071,80.628L13.025,70.968" style="fill:none;stroke:#6d4a41;stroke-width:3;" /><path d="M13.025,80.628L25.486,68.4" style="fill:none;stroke:#6d4a41;stroke-width:3;" /><path d="M15.923,96.524L29.071,108.746" style="fill:none;stroke:#855c52;stroke-width:2;" /><path d="M25.486,108.746L64,105.987" style="fill:none;stroke:#6d4a41;stroke-width:3;" /><path d="M51.911,114.555L59.394,96.524" style="fill:none;stroke:#6d4a41;stroke-width:3;" /><path d="M83.062,114.555L69.779,89.564" style="fill:none;stroke:#6d4a41;stroke-width:3;" /><path d="M64,105.539L100.103,96.524" style="fill:none;stroke:#6d4a41;stroke-width:2;" /><path d="M93.447,105.987L91.757,76.281" style="fill:none;stroke:#6d4a41;stroke-width:3;" /><path d="M83.062,102.06L103.349,84.492" style="fill:none;stroke:#6d4a41;stroke-width:3;" /><path d="M114.942,101.032L97.553,84.492" style="fill:none;stroke:#6d4a41;stroke-width:3;" /><path d="M97.553,93.276L114.942,78.213" style="fill:none;stroke:#6d4a41;stroke-width:3;" /><path d="M97.553,70.243L112.768,76.281" style="fill:none;stroke:#6d4a41;stroke-width:5;" /><path d="M114.942,85.745L91.757,64" style="fill:none;stroke:#6d4a41;stroke-width:3;" /><path d="M99.727,82.077L112.768,64" style="fill:none;stroke:#6d4a41;stroke-width:3;" /><path d="M70.504,109.609L61.81,93.276" style="fill:none;stroke:#6d4a41;stroke-width:3;" /><path d="M43.213,109.609L47.319,93.276" style="fill:none;stroke:#6d4a41;stroke-width:3;" /><path d="M47.319,117.096L40.074,93.276" style="fill:none;stroke:#6d4a41;stroke-width:4;" /><path d="M22.685,109.609L35.002,88.598" style="fill:none;stroke:#6d4a41;stroke-width:5;" /><path d="M10.368,96.809L35.002,99.104" style="fill:none;stroke:#855c52;stroke-width:3;" /><path d="M92.964,105.186L68.33,99.104" style="fill:none;stroke:#5d4037;stroke-width:3;" /><path d="M56.738,109.609L75.576,105.186" style="fill:none;stroke:#6d4a41;stroke-width:5;" /><path d="M56.738,109.609L75.576,105.186" style="fill:none;stroke:#f79329;stroke-opacity:0.33;stroke-width:5;" /><path d="M57.825,101.443L80.647,109.609" style="fill:none;stroke:#6d4a41;stroke-width:4;" /><path d="M86.081,109.609L80.647,97.957" style="fill:none;stroke:#6d4a41;stroke-width:3;" /><path d="M119.047,96.809L100.451,103.783" style="fill:none;stroke:#6d4a41;stroke-width:3;" /><path d="M119.047,79.904L100.451,67.587" style="fill:none;stroke:#6d4a41;stroke-width:3;" /><path d="M119.047,79.904L100.451,67.587" style="fill:none;stroke:#f79329;stroke-opacity:0.33;stroke-width:3;" /><path d="M66.157,67.587L61.81,59.134" style="fill:none;stroke:#855c52;stroke-width:5;" /><path d="M34.761,67.587L24.376,82.077" style="fill:none;stroke:#6d4a41;stroke-width:3;" /><path d="M5.779,70.968L20.753,82.077" style="fill:none;stroke:#6d4a41;stroke-width:3;" /><path d="M5.779,70.968L20.753,82.077" style="fill:none;stroke:#f79329;stroke-opacity:0.33;stroke-width:3;" /><path d="M7.711,90.289L29.568,94.394" style="fill:none;stroke:#5d4037;stroke-width:3;" /><path d="M7.711,90.289L29.568,94.394" style="fill:none;stroke:#f79329;stroke-opacity:0.33;stroke-width:3;" /><path d="M119.047,103.783L86.202,94.394" style="fill:none;stroke:#855c52;stroke-width:5;" /></svg>