<?xml version='1.0' encoding='UTF-8'?>
<svg xmlns="http://www.w3.org/2000/svg" version="1.1" id="svg12" viewBox="0 0 128 128">
  <defs id="defs16"/>
  <path d="M116 128H12c-6.6 0-12-5.4-12-12V12C0 5.4 5.4 0 12 0h104c6.6 0 12 5.4 12 12v104c0 6.6-5.4 12-12 12z" fill="#1bb7fc" id="path2"/>
  <path d="M124.48 3.52L3.52 124.48C5.7 126.65 8.7 128 12 128h104c6.6 0 12-5.4 12-12V12c0-3.3-1.35-6.3-3.52-8.48z" fill="#1b79fc" id="path4"/>
  <path d="M112 101c0 6.63-5.37 12-12 12H27.89c-6.6 0-12-5.4-12-12V28.9c0-6.6 5.4-12 12-12H100c6.63 0 12 5.37 12 12z" fill="#1ba2fc" id="path6"/>
  <g aria-label="#" id="text10" style="line-height:1.25;text-align:center;text-anchor:middle;fill:#ffffff;stroke-width:1.102">
    <path d="m 47.152777,99.878 c 2.010846,0 4.23336,-1.164174 4.974198,-3.598356 l 4.76253,-16.615938 h 9.630894 l -3.70419,12.594246 c -0.317502,1.05834 -0.423336,2.11668 -0.423336,2.540016 0,2.64585 2.010846,5.080032 5.080032,5.080032 1.905012,0 4.127526,-1.05834 4.868364,-3.598356 l 4.868364,-16.615938 h 11.218404 c 2.751684,0 5.080032,-2.222514 5.080032,-5.080032 0,-2.64585 -2.328348,-5.080032 -5.080032,-5.080032 H 80.172985 L 83.242171,58.60274 h 9.52506 c 2.64585,0 5.080032,-2.222514 5.080032,-5.080032 0,-2.64585 -2.434182,-5.080032 -5.080032,-5.080032 h -6.561708 l 3.70419,-12.382578 c 0.211668,-0.740838 0.317502,-1.693344 0.317502,-2.11668 0,-2.540016 -2.010846,-5.080032 -5.080032,-5.080032 -2.010846,0 -4.23336,1.375842 -4.868364,3.598356 l -4.656696,15.980934 h -9.630894 l 3.598356,-12.276744 c 0.211668,-0.740838 0.423336,-1.270008 0.423336,-2.328348 0,-2.64585 -2.010846,-4.974198 -5.080032,-4.974198 -2.11668,0 -4.339194,1.375842 -4.974198,3.598356 L 55.407829,48.442676 H 42.601915 c -2.857518,0 -5.080032,2.434182 -5.080032,5.080032 0,2.857518 2.222514,5.080032 5.080032,5.080032 h 9.736728 l -3.17502,10.900902 H 38.262721 c -2.857518,0 -5.080032,2.434182 -5.080032,5.080032 0,2.857518 2.222514,5.080032 5.080032,5.080032 h 7.93755 l -3.598356,12.70008 c -0.317502,1.05834 -0.52917,1.799178 -0.52917,2.64585 0,2.434182 2.010846,4.868364 5.080032,4.868364 z M 59.852857,69.503642 62.922043,58.60274 h 9.736728 l -3.17502,10.900902 z" id="path18"/>
  </g>
</svg>
